<?xml version="1.0" encoding="utf-8" standalone="no"?>
<!DOCTYPE svg PUBLIC "-//W3C//DTD SVG 1.1//EN"
  "http://www.w3.org/Graphics/SVG/1.1/DTD/svg11.dtd">
<svg xmlns:xlink="http://www.w3.org/1999/xlink" width="1008pt" height="288pt" viewBox="0 0 1008 288" xmlns="http://www.w3.org/2000/svg" version="1.1">
 <metadata>
  <rdf:RDF xmlns:dc="http://purl.org/dc/elements/1.1/" xmlns:cc="http://creativecommons.org/ns#" xmlns:rdf="http://www.w3.org/1999/02/22-rdf-syntax-ns#">
   <cc:Work>
    <dc:type rdf:resource="http://purl.org/dc/dcmitype/StillImage"/>
    <dc:date>2023-04-14T14:30:16.525134</dc:date>
    <dc:format>image/svg+xml</dc:format>
    <dc:creator>
     <cc:Agent>
      <dc:title>Matplotlib v3.7.1, https://matplotlib.org/</dc:title>
     </cc:Agent>
    </dc:creator>
   </cc:Work>
  </rdf:RDF>
 </metadata>
 <defs>
  <style type="text/css">*{stroke-linejoin: round; stroke-linecap: butt}</style>
 </defs>
 <g id="figure_1">
  <g id="patch_1">
   <path d="M 0 288 
L 1008 288 
L 1008 0 
L 0 0 
z
" style="fill: #ffffff"/>
  </g>
  <g id="axes_1">
   <g id="patch_2">
    <path d="M 126 256.32 
L 481.090909 256.32 
L 481.090909 34.56 
L 126 34.56 
z
" style="fill: #ffffff"/>
   </g>
   <g id="matplotlib.axis_1">
    <g id="xtick_1">
     <g id="line2d_1">
      <path d="M 142.140496 256.32 
L 142.140496 34.56 
" clip-path="url(#p58d48453d4)" style="fill: none; stroke: #cccccc; stroke-linecap: round"/>
     </g>
     <g id="text_1">
      <!-- 0 -->
      <g style="fill: #262626" transform="translate(138.840496 274.895) scale(0.132 -0.132)">
       <defs>
        <path id="SimHei-30" d="M 225 2537 
Q 250 3200 412 3587 
Q 575 3975 875 4225 
Q 1175 4475 1612 4475 
Q 2050 4475 2375 4112 
Q 2700 3750 2800 3200 
Q 2900 2650 2862 1937 
Q 2825 1225 2612 775 
Q 2400 325 1975 150 
Q 1550 -25 1125 187 
Q 700 400 525 750 
Q 350 1100 275 1487 
Q 200 1875 225 2537 
z
M 750 2687 
Q 675 2000 800 1462 
Q 925 925 1212 700 
Q 1500 475 1800 612 
Q 2100 750 2237 1162 
Q 2375 1575 2375 2062 
Q 2375 2550 2337 2950 
Q 2300 3350 2112 3675 
Q 1925 4000 1612 4012 
Q 1300 4025 1062 3700 
Q 825 3375 750 2687 
z
" transform="scale(0.015625)"/>
       </defs>
       <use xlink:href="#SimHei-30"/>
      </g>
     </g>
    </g>
    <g id="xtick_2">
     <g id="line2d_2">
      <path d="M 196.854041 256.32 
L 196.854041 34.56 
" clip-path="url(#p58d48453d4)" style="fill: none; stroke: #cccccc; stroke-linecap: round"/>
     </g>
     <g id="text_2">
      <!-- 5 -->
      <g style="fill: #262626" transform="translate(193.554041 274.895) scale(0.132 -0.132)">
       <defs>
        <path id="SimHei-35" d="M 550 1325 
Q 725 650 1150 575 
Q 1575 500 1837 662 
Q 2100 825 2212 1087 
Q 2325 1350 2312 1675 
Q 2300 2000 2137 2225 
Q 1975 2450 1725 2525 
Q 1475 2600 1162 2525 
Q 850 2450 650 2175 
L 225 2225 
Q 275 2375 700 4375 
L 2675 4375 
L 2675 3925 
L 1075 3925 
Q 950 3250 825 2850 
Q 1200 3025 1525 3012 
Q 1850 3000 2150 2862 
Q 2450 2725 2587 2487 
Q 2725 2250 2787 2012 
Q 2850 1775 2837 1500 
Q 2825 1225 2725 937 
Q 2625 650 2425 462 
Q 2225 275 1937 162 
Q 1650 50 1275 75 
Q 900 100 562 350 
Q 225 600 100 1200 
L 550 1325 
z
" transform="scale(0.015625)"/>
       </defs>
       <use xlink:href="#SimHei-35"/>
      </g>
     </g>
    </g>
    <g id="xtick_3">
     <g id="line2d_3">
      <path d="M 251.567586 256.32 
L 251.567586 34.56 
" clip-path="url(#p58d48453d4)" style="fill: none; stroke: #cccccc; stroke-linecap: round"/>
     </g>
     <g id="text_3">
      <!-- 10 -->
      <g style="fill: #262626" transform="translate(244.967586 274.895) scale(0.132 -0.132)">
       <defs>
        <path id="SimHei-31" d="M 1400 3600 
Q 1075 3275 575 2975 
L 575 3450 
Q 1200 3875 1600 4450 
L 1900 4450 
L 1900 150 
L 1400 150 
L 1400 3600 
z
" transform="scale(0.015625)"/>
       </defs>
       <use xlink:href="#SimHei-31"/>
       <use xlink:href="#SimHei-30" x="50"/>
      </g>
     </g>
    </g>
    <g id="xtick_4">
     <g id="line2d_4">
      <path d="M 306.281132 256.32 
L 306.281132 34.56 
" clip-path="url(#p58d48453d4)" style="fill: none; stroke: #cccccc; stroke-linecap: round"/>
     </g>
     <g id="text_4">
      <!-- 15 -->
      <g style="fill: #262626" transform="translate(299.681132 274.895) scale(0.132 -0.132)">
       <use xlink:href="#SimHei-31"/>
       <use xlink:href="#SimHei-35" x="50"/>
      </g>
     </g>
    </g>
    <g id="xtick_5">
     <g id="line2d_5">
      <path d="M 360.994677 256.32 
L 360.994677 34.56 
" clip-path="url(#p58d48453d4)" style="fill: none; stroke: #cccccc; stroke-linecap: round"/>
     </g>
     <g id="text_5">
      <!-- 20 -->
      <g style="fill: #262626" transform="translate(354.394677 274.895) scale(0.132 -0.132)">
       <defs>
        <path id="SimHei-32" d="M 300 250 
Q 325 625 650 925 
Q 975 1225 1475 1862 
Q 1975 2500 2125 2850 
Q 2275 3200 2237 3450 
Q 2200 3700 2000 3862 
Q 1800 4025 1537 4000 
Q 1275 3975 1037 3800 
Q 800 3625 675 3275 
L 200 3350 
Q 400 3925 712 4187 
Q 1025 4450 1450 4475 
Q 1700 4500 1900 4462 
Q 2100 4425 2312 4287 
Q 2525 4150 2662 3875 
Q 2800 3600 2762 3212 
Q 2725 2825 2375 2287 
Q 2025 1750 1025 600 
L 2825 600 
L 2825 150 
L 300 150 
L 300 250 
z
" transform="scale(0.015625)"/>
       </defs>
       <use xlink:href="#SimHei-32"/>
       <use xlink:href="#SimHei-30" x="50"/>
      </g>
     </g>
    </g>
    <g id="xtick_6">
     <g id="line2d_6">
      <path d="M 415.708222 256.32 
L 415.708222 34.56 
" clip-path="url(#p58d48453d4)" style="fill: none; stroke: #cccccc; stroke-linecap: round"/>
     </g>
     <g id="text_6">
      <!-- 25 -->
      <g style="fill: #262626" transform="translate(409.108222 274.895) scale(0.132 -0.132)">
       <use xlink:href="#SimHei-32"/>
       <use xlink:href="#SimHei-35" x="50"/>
      </g>
     </g>
    </g>
    <g id="xtick_7">
     <g id="line2d_7">
      <path d="M 470.421768 256.32 
L 470.421768 34.56 
" clip-path="url(#p58d48453d4)" style="fill: none; stroke: #cccccc; stroke-linecap: round"/>
     </g>
     <g id="text_7">
      <!-- 30 -->
      <g style="fill: #262626" transform="translate(463.821768 274.895) scale(0.132 -0.132)">
       <defs>
        <path id="SimHei-33" d="M 250 1225 
L 700 1300 
Q 800 975 1025 762 
Q 1250 550 1587 562 
Q 1925 575 2125 837 
Q 2325 1100 2300 1437 
Q 2275 1775 2037 1962 
Q 1800 2150 1275 2225 
L 1275 2550 
Q 1800 2600 2037 2825 
Q 2275 3050 2250 3412 
Q 2225 3775 1925 3937 
Q 1625 4100 1287 3975 
Q 950 3850 750 3275 
L 300 3350 
Q 450 3800 712 4100 
Q 975 4400 1425 4450 
Q 1875 4500 2212 4337 
Q 2550 4175 2687 3837 
Q 2825 3500 2725 3100 
Q 2625 2700 2150 2400 
Q 2500 2250 2687 1950 
Q 2875 1650 2812 1162 
Q 2750 675 2375 375 
Q 2000 75 1525 87 
Q 1050 100 700 387 
Q 350 675 250 1225 
z
" transform="scale(0.015625)"/>
       </defs>
       <use xlink:href="#SimHei-33"/>
       <use xlink:href="#SimHei-30" x="50"/>
      </g>
     </g>
    </g>
   </g>
   <g id="matplotlib.axis_2">
    <g id="ytick_1">
     <g id="line2d_8">
      <path d="M 126 256.32 
L 481.090909 256.32 
" clip-path="url(#p58d48453d4)" style="fill: none; stroke: #cccccc; stroke-linecap: round"/>
     </g>
     <g id="text_8">
      <!-- -1.00 -->
      <g style="fill: #262626" transform="translate(83.5 260.8575) scale(0.132 -0.132)">
       <defs>
        <path id="SimHei-2d" d="M 2975 2125 
L 125 2125 
L 125 2525 
L 2975 2525 
L 2975 2125 
z
" transform="scale(0.015625)"/>
        <path id="SimHei-2e" d="M 1075 125 
L 500 125 
L 500 675 
L 1075 675 
L 1075 125 
z
" transform="scale(0.015625)"/>
       </defs>
       <use xlink:href="#SimHei-2d"/>
       <use xlink:href="#SimHei-31" x="50"/>
       <use xlink:href="#SimHei-2e" x="100"/>
       <use xlink:href="#SimHei-30" x="150"/>
       <use xlink:href="#SimHei-30" x="200"/>
      </g>
     </g>
    </g>
    <g id="ytick_2">
     <g id="line2d_9">
      <path d="M 126 228.6 
L 481.090909 228.6 
" clip-path="url(#p58d48453d4)" style="fill: none; stroke: #cccccc; stroke-linecap: round"/>
     </g>
     <g id="text_9">
      <!-- -0.75 -->
      <g style="fill: #262626" transform="translate(83.5 233.1375) scale(0.132 -0.132)">
       <defs>
        <path id="SimHei-37" d="M 850 150 
Q 1300 2050 2425 3925 
L 275 3925 
L 275 4375 
L 2950 4375 
L 2950 3950 
Q 1775 2050 1400 150 
L 850 150 
z
" transform="scale(0.015625)"/>
       </defs>
       <use xlink:href="#SimHei-2d"/>
       <use xlink:href="#SimHei-30" x="50"/>
       <use xlink:href="#SimHei-2e" x="100"/>
       <use xlink:href="#SimHei-37" x="150"/>
       <use xlink:href="#SimHei-35" x="200"/>
      </g>
     </g>
    </g>
    <g id="ytick_3">
     <g id="line2d_10">
      <path d="M 126 200.88 
L 481.090909 200.88 
" clip-path="url(#p58d48453d4)" style="fill: none; stroke: #cccccc; stroke-linecap: round"/>
     </g>
     <g id="text_10">
      <!-- -0.50 -->
      <g style="fill: #262626" transform="translate(83.5 205.4175) scale(0.132 -0.132)">
       <use xlink:href="#SimHei-2d"/>
       <use xlink:href="#SimHei-30" x="50"/>
       <use xlink:href="#SimHei-2e" x="100"/>
       <use xlink:href="#SimHei-35" x="150"/>
       <use xlink:href="#SimHei-30" x="200"/>
      </g>
     </g>
    </g>
    <g id="ytick_4">
     <g id="line2d_11">
      <path d="M 126 173.16 
L 481.090909 173.16 
" clip-path="url(#p58d48453d4)" style="fill: none; stroke: #cccccc; stroke-linecap: round"/>
     </g>
     <g id="text_11">
      <!-- -0.25 -->
      <g style="fill: #262626" transform="translate(83.5 177.6975) scale(0.132 -0.132)">
       <use xlink:href="#SimHei-2d"/>
       <use xlink:href="#SimHei-30" x="50"/>
       <use xlink:href="#SimHei-2e" x="100"/>
       <use xlink:href="#SimHei-32" x="150"/>
       <use xlink:href="#SimHei-35" x="200"/>
      </g>
     </g>
    </g>
    <g id="ytick_5">
     <g id="line2d_12">
      <path d="M 126 145.44 
L 481.090909 145.44 
" clip-path="url(#p58d48453d4)" style="fill: none; stroke: #cccccc; stroke-linecap: round"/>
     </g>
     <g id="text_12">
      <!-- 0.00 -->
      <g style="fill: #262626" transform="translate(90.1 149.9775) scale(0.132 -0.132)">
       <use xlink:href="#SimHei-30"/>
       <use xlink:href="#SimHei-2e" x="50"/>
       <use xlink:href="#SimHei-30" x="100"/>
       <use xlink:href="#SimHei-30" x="150"/>
      </g>
     </g>
    </g>
    <g id="ytick_6">
     <g id="line2d_13">
      <path d="M 126 117.72 
L 481.090909 117.72 
" clip-path="url(#p58d48453d4)" style="fill: none; stroke: #cccccc; stroke-linecap: round"/>
     </g>
     <g id="text_13">
      <!-- 0.25 -->
      <g style="fill: #262626" transform="translate(90.1 122.2575) scale(0.132 -0.132)">
       <use xlink:href="#SimHei-30"/>
       <use xlink:href="#SimHei-2e" x="50"/>
       <use xlink:href="#SimHei-32" x="100"/>
       <use xlink:href="#SimHei-35" x="150"/>
      </g>
     </g>
    </g>
    <g id="ytick_7">
     <g id="line2d_14">
      <path d="M 126 90 
L 481.090909 90 
" clip-path="url(#p58d48453d4)" style="fill: none; stroke: #cccccc; stroke-linecap: round"/>
     </g>
     <g id="text_14">
      <!-- 0.50 -->
      <g style="fill: #262626" transform="translate(90.1 94.5375) scale(0.132 -0.132)">
       <use xlink:href="#SimHei-30"/>
       <use xlink:href="#SimHei-2e" x="50"/>
       <use xlink:href="#SimHei-35" x="100"/>
       <use xlink:href="#SimHei-30" x="150"/>
      </g>
     </g>
    </g>
    <g id="ytick_8">
     <g id="line2d_15">
      <path d="M 126 62.28 
L 481.090909 62.28 
" clip-path="url(#p58d48453d4)" style="fill: none; stroke: #cccccc; stroke-linecap: round"/>
     </g>
     <g id="text_15">
      <!-- 0.75 -->
      <g style="fill: #262626" transform="translate(90.1 66.8175) scale(0.132 -0.132)">
       <use xlink:href="#SimHei-30"/>
       <use xlink:href="#SimHei-2e" x="50"/>
       <use xlink:href="#SimHei-37" x="100"/>
       <use xlink:href="#SimHei-35" x="150"/>
      </g>
     </g>
    </g>
    <g id="ytick_9">
     <g id="line2d_16">
      <path d="M 126 34.56 
L 481.090909 34.56 
" clip-path="url(#p58d48453d4)" style="fill: none; stroke: #cccccc; stroke-linecap: round"/>
     </g>
     <g id="text_16">
      <!-- 1.00 -->
      <g style="fill: #262626" transform="translate(90.1 39.0975) scale(0.132 -0.132)">
       <use xlink:href="#SimHei-31"/>
       <use xlink:href="#SimHei-2e" x="50"/>
       <use xlink:href="#SimHei-30" x="100"/>
       <use xlink:href="#SimHei-30" x="150"/>
      </g>
     </g>
    </g>
   </g>
   <g id="PolyCollection_1">
    <defs>
     <path id="maec29698d8" d="M 147.61185 -150.5979 
L 147.61185 -134.5221 
L 164.025914 -134.515783 
L 174.968623 -134.508622 
L 185.911332 -134.507695 
L 196.854041 -134.502653 
L 207.79675 -134.487876 
L 218.739459 -134.483528 
L 229.682168 -134.461159 
L 240.624877 -134.439716 
L 251.567586 -134.419941 
L 262.510296 -134.419343 
L 273.453005 -134.41344 
L 284.395714 -134.395061 
L 295.338423 -134.392396 
L 306.281132 -134.389179 
L 317.223841 -134.388897 
L 328.16655 -134.38888 
L 339.109259 -134.388399 
L 350.051968 -134.387649 
L 360.994677 -134.367627 
L 371.937386 -134.347447 
L 382.880095 -134.347099 
L 393.822804 -134.328166 
L 404.765513 -134.322818 
L 415.708222 -134.302266 
L 426.650932 -134.301346 
L 437.593641 -134.285073 
L 448.53635 -134.282825 
L 464.950413 -134.270042 
L 464.950413 -150.849958 
L 464.950413 -150.849958 
L 448.53635 -150.837175 
L 437.593641 -150.834927 
L 426.650932 -150.818654 
L 415.708222 -150.817734 
L 404.765513 -150.797182 
L 393.822804 -150.791834 
L 382.880095 -150.772901 
L 371.937386 -150.772553 
L 360.994677 -150.752373 
L 350.051968 -150.732351 
L 339.109259 -150.731601 
L 328.16655 -150.73112 
L 317.223841 -150.731103 
L 306.281132 -150.730821 
L 295.338423 -150.727604 
L 284.395714 -150.724939 
L 273.453005 -150.70656 
L 262.510296 -150.700657 
L 251.567586 -150.700059 
L 240.624877 -150.680284 
L 229.682168 -150.658841 
L 218.739459 -150.636472 
L 207.79675 -150.632124 
L 196.854041 -150.617347 
L 185.911332 -150.612305 
L 174.968623 -150.611378 
L 164.025914 -150.604217 
L 147.61185 -150.5979 
z
" style="stroke: #ffffff; stroke-opacity: 0.25"/>
    </defs>
    <g clip-path="url(#p58d48453d4)">
     <use xlink:href="#maec29698d8" x="0" y="288" style="fill: #4c72b0; fill-opacity: 0.25; stroke: #ffffff; stroke-opacity: 0.25"/>
    </g>
   </g>
   <g id="LineCollection_1">
    <path d="M 142.140496 145.44 
L 142.140496 34.56 
" clip-path="url(#p58d48453d4)" style="fill: none; stroke: #4c72b0; stroke-width: 1.5"/>
    <path d="M 153.083205 145.44 
L 153.083205 148.548915 
" clip-path="url(#p58d48453d4)" style="fill: none; stroke: #4c72b0; stroke-width: 1.5"/>
    <path d="M 164.025914 145.44 
L 164.025914 142.128305 
" clip-path="url(#p58d48453d4)" style="fill: none; stroke: #4c72b0; stroke-width: 1.5"/>
    <path d="M 174.968623 145.44 
L 174.968623 146.631204 
" clip-path="url(#p58d48453d4)" style="fill: none; stroke: #4c72b0; stroke-width: 1.5"/>
    <path d="M 185.911332 145.44 
L 185.911332 142.659852 
" clip-path="url(#p58d48453d4)" style="fill: none; stroke: #4c72b0; stroke-width: 1.5"/>
    <path d="M 196.854041 145.44 
L 196.854041 150.202056 
" clip-path="url(#p58d48453d4)" style="fill: none; stroke: #4c72b0; stroke-width: 1.5"/>
    <path d="M 207.79675 145.44 
L 207.79675 142.855338 
" clip-path="url(#p58d48453d4)" style="fill: none; stroke: #4c72b0; stroke-width: 1.5"/>
    <path d="M 218.739459 145.44 
L 218.739459 151.307456 
" clip-path="url(#p58d48453d4)" style="fill: none; stroke: #4c72b0; stroke-width: 1.5"/>
    <path d="M 229.682168 145.44 
L 229.682168 139.687629 
" clip-path="url(#p58d48453d4)" style="fill: none; stroke: #4c72b0; stroke-width: 1.5"/>
    <path d="M 240.624877 145.44 
L 240.624877 139.908738 
" clip-path="url(#p58d48453d4)" style="fill: none; stroke: #4c72b0; stroke-width: 1.5"/>
    <path d="M 251.567586 145.44 
L 251.567586 144.477589 
" clip-path="url(#p58d48453d4)" style="fill: none; stroke: #4c72b0; stroke-width: 1.5"/>
    <path d="M 262.510296 145.44 
L 262.510296 142.415638 
" clip-path="url(#p58d48453d4)" style="fill: none; stroke: #4c72b0; stroke-width: 1.5"/>
    <path d="M 273.453005 145.44 
L 273.453005 150.780859 
" clip-path="url(#p58d48453d4)" style="fill: none; stroke: #4c72b0; stroke-width: 1.5"/>
    <path d="M 284.395714 145.44 
L 284.395714 147.474742 
" clip-path="url(#p58d48453d4)" style="fill: none; stroke: #4c72b0; stroke-width: 1.5"/>
    <path d="M 295.338423 145.44 
L 295.338423 143.20364 
" clip-path="url(#p58d48453d4)" style="fill: none; stroke: #4c72b0; stroke-width: 1.5"/>
    <path d="M 306.281132 145.44 
L 306.281132 146.102321 
" clip-path="url(#p58d48453d4)" style="fill: none; stroke: #4c72b0; stroke-width: 1.5"/>
    <path d="M 317.223841 145.44 
L 317.223841 145.278428 
" clip-path="url(#p58d48453d4)" style="fill: none; stroke: #4c72b0; stroke-width: 1.5"/>
    <path d="M 328.16655 145.44 
L 328.16655 146.305449 
" clip-path="url(#p58d48453d4)" style="fill: none; stroke: #4c72b0; stroke-width: 1.5"/>
    <path d="M 339.109259 145.44 
L 339.109259 144.36 
" clip-path="url(#p58d48453d4)" style="fill: none; stroke: #4c72b0; stroke-width: 1.5"/>
    <path d="M 350.051968 145.44 
L 350.051968 139.856626 
" clip-path="url(#p58d48453d4)" style="fill: none; stroke: #4c72b0; stroke-width: 1.5"/>
    <path d="M 360.994677 145.44 
L 360.994677 151.052339 
" clip-path="url(#p58d48453d4)" style="fill: none; stroke: #4c72b0; stroke-width: 1.5"/>
    <path d="M 371.937386 145.44 
L 371.937386 144.701965 
" clip-path="url(#p58d48453d4)" style="fill: none; stroke: #4c72b0; stroke-width: 1.5"/>
    <path d="M 382.880095 145.44 
L 382.880095 139.997322 
" clip-path="url(#p58d48453d4)" style="fill: none; stroke: #4c72b0; stroke-width: 1.5"/>
    <path d="M 393.822804 145.44 
L 393.822804 142.545047 
" clip-path="url(#p58d48453d4)" style="fill: none; stroke: #4c72b0; stroke-width: 1.5"/>
    <path d="M 404.765513 145.44 
L 404.765513 151.119279 
" clip-path="url(#p58d48453d4)" style="fill: none; stroke: #4c72b0; stroke-width: 1.5"/>
    <path d="M 415.708222 145.44 
L 415.708222 146.642339 
" clip-path="url(#p58d48453d4)" style="fill: none; stroke: #4c72b0; stroke-width: 1.5"/>
    <path d="M 426.650932 145.44 
L 426.650932 150.499555 
" clip-path="url(#p58d48453d4)" style="fill: none; stroke: #4c72b0; stroke-width: 1.5"/>
    <path d="M 437.593641 145.44 
L 437.593641 147.321803 
" clip-path="url(#p58d48453d4)" style="fill: none; stroke: #4c72b0; stroke-width: 1.5"/>
    <path d="M 448.53635 145.44 
L 448.53635 140.951115 
" clip-path="url(#p58d48453d4)" style="fill: none; stroke: #4c72b0; stroke-width: 1.5"/>
    <path d="M 459.479059 145.44 
L 459.479059 150.164928 
" clip-path="url(#p58d48453d4)" style="fill: none; stroke: #4c72b0; stroke-width: 1.5"/>
   </g>
   <g id="line2d_17">
    <path d="M 126 145.44 
L 481.090909 145.44 
" clip-path="url(#p58d48453d4)" style="fill: none; stroke: #4c72b0; stroke-width: 1.5; stroke-linecap: round"/>
   </g>
   <g id="line2d_18">
    <defs>
     <path id="mea817247d0" d="M 0 2.5 
C 0.663008 2.5 1.29895 2.236584 1.767767 1.767767 
C 2.236584 1.29895 2.5 0.663008 2.5 0 
C 2.5 -0.663008 2.236584 -1.29895 1.767767 -1.767767 
C 1.29895 -2.236584 0.663008 -2.5 0 -2.5 
C -0.663008 -2.5 -1.29895 -2.236584 -1.767767 -1.767767 
C -2.236584 -1.29895 -2.5 -0.663008 -2.5 0 
C -2.5 0.663008 -2.236584 1.29895 -1.767767 1.767767 
C -1.29895 2.236584 -0.663008 2.5 0 2.5 
z
" style="stroke: #4c72b0"/>
    </defs>
    <g clip-path="url(#p58d48453d4)">
     <use xlink:href="#mea817247d0" x="142.140496" y="34.56" style="fill: #4c72b0; stroke: #4c72b0"/>
     <use xlink:href="#mea817247d0" x="153.083205" y="148.548915" style="fill: #4c72b0; stroke: #4c72b0"/>
     <use xlink:href="#mea817247d0" x="164.025914" y="142.128305" style="fill: #4c72b0; stroke: #4c72b0"/>
     <use xlink:href="#mea817247d0" x="174.968623" y="146.631204" style="fill: #4c72b0; stroke: #4c72b0"/>
     <use xlink:href="#mea817247d0" x="185.911332" y="142.659852" style="fill: #4c72b0; stroke: #4c72b0"/>
     <use xlink:href="#mea817247d0" x="196.854041" y="150.202056" style="fill: #4c72b0; stroke: #4c72b0"/>
     <use xlink:href="#mea817247d0" x="207.79675" y="142.855338" style="fill: #4c72b0; stroke: #4c72b0"/>
     <use xlink:href="#mea817247d0" x="218.739459" y="151.307456" style="fill: #4c72b0; stroke: #4c72b0"/>
     <use xlink:href="#mea817247d0" x="229.682168" y="139.687629" style="fill: #4c72b0; stroke: #4c72b0"/>
     <use xlink:href="#mea817247d0" x="240.624877" y="139.908738" style="fill: #4c72b0; stroke: #4c72b0"/>
     <use xlink:href="#mea817247d0" x="251.567586" y="144.477589" style="fill: #4c72b0; stroke: #4c72b0"/>
     <use xlink:href="#mea817247d0" x="262.510296" y="142.415638" style="fill: #4c72b0; stroke: #4c72b0"/>
     <use xlink:href="#mea817247d0" x="273.453005" y="150.780859" style="fill: #4c72b0; stroke: #4c72b0"/>
     <use xlink:href="#mea817247d0" x="284.395714" y="147.474742" style="fill: #4c72b0; stroke: #4c72b0"/>
     <use xlink:href="#mea817247d0" x="295.338423" y="143.20364" style="fill: #4c72b0; stroke: #4c72b0"/>
     <use xlink:href="#mea817247d0" x="306.281132" y="146.102321" style="fill: #4c72b0; stroke: #4c72b0"/>
     <use xlink:href="#mea817247d0" x="317.223841" y="145.278428" style="fill: #4c72b0; stroke: #4c72b0"/>
     <use xlink:href="#mea817247d0" x="328.16655" y="146.305449" style="fill: #4c72b0; stroke: #4c72b0"/>
     <use xlink:href="#mea817247d0" x="339.109259" y="144.36" style="fill: #4c72b0; stroke: #4c72b0"/>
     <use xlink:href="#mea817247d0" x="350.051968" y="139.856626" style="fill: #4c72b0; stroke: #4c72b0"/>
     <use xlink:href="#mea817247d0" x="360.994677" y="151.052339" style="fill: #4c72b0; stroke: #4c72b0"/>
     <use xlink:href="#mea817247d0" x="371.937386" y="144.701965" style="fill: #4c72b0; stroke: #4c72b0"/>
     <use xlink:href="#mea817247d0" x="382.880095" y="139.997322" style="fill: #4c72b0; stroke: #4c72b0"/>
     <use xlink:href="#mea817247d0" x="393.822804" y="142.545047" style="fill: #4c72b0; stroke: #4c72b0"/>
     <use xlink:href="#mea817247d0" x="404.765513" y="151.119279" style="fill: #4c72b0; stroke: #4c72b0"/>
     <use xlink:href="#mea817247d0" x="415.708222" y="146.642339" style="fill: #4c72b0; stroke: #4c72b0"/>
     <use xlink:href="#mea817247d0" x="426.650932" y="150.499555" style="fill: #4c72b0; stroke: #4c72b0"/>
     <use xlink:href="#mea817247d0" x="437.593641" y="147.321803" style="fill: #4c72b0; stroke: #4c72b0"/>
     <use xlink:href="#mea817247d0" x="448.53635" y="140.951115" style="fill: #4c72b0; stroke: #4c72b0"/>
     <use xlink:href="#mea817247d0" x="459.479059" y="150.164928" style="fill: #4c72b0; stroke: #4c72b0"/>
    </g>
   </g>
   <g id="patch_3">
    <path d="M 126 256.32 
L 126 34.56 
" style="fill: none; stroke: #cccccc; stroke-width: 1.25; stroke-linejoin: miter; stroke-linecap: square"/>
   </g>
   <g id="patch_4">
    <path d="M 481.090909 256.32 
L 481.090909 34.56 
" style="fill: none; stroke: #cccccc; stroke-width: 1.25; stroke-linejoin: miter; stroke-linecap: square"/>
   </g>
   <g id="patch_5">
    <path d="M 126 256.32 
L 481.090909 256.32 
" style="fill: none; stroke: #cccccc; stroke-width: 1.25; stroke-linejoin: miter; stroke-linecap: square"/>
   </g>
   <g id="patch_6">
    <path d="M 126 34.56 
L 481.090909 34.56 
" style="fill: none; stroke: #cccccc; stroke-width: 1.25; stroke-linejoin: miter; stroke-linecap: square"/>
   </g>
   <g id="text_17">
    <!-- ACF -->
    <g style="fill: #262626" transform="translate(292.745455 28.56) scale(0.144 -0.144)">
     <defs>
      <path id="SimHei-41" d="M 3075 125 
L 2475 125 
L 2125 1450 
L 1025 1450 
L 675 125 
L 75 125 
L 1325 4450 
L 1825 4450 
L 3075 125 
z
M 2000 1925 
L 1600 3450 
L 1550 3450 
L 1150 1925 
L 2000 1925 
z
" transform="scale(0.015625)"/>
      <path id="SimHei-43" d="M 2975 1825 
Q 2950 875 2575 475 
Q 2200 75 1675 75 
Q 1075 75 650 562 
Q 225 1050 225 2125 
Q 225 3300 637 3875 
Q 1050 4450 1700 4450 
Q 2250 4450 2612 4037 
Q 2975 3625 2950 2875 
L 2400 2875 
Q 2400 3425 2225 3700 
Q 2050 3975 1700 3975 
Q 1300 3975 1062 3562 
Q 825 3150 825 2175 
Q 825 1275 1062 912 
Q 1300 550 1675 550 
Q 1950 550 2175 812 
Q 2400 1075 2400 1825 
L 2975 1825 
z
" transform="scale(0.015625)"/>
      <path id="SimHei-46" d="M 2925 3925 
L 875 3925 
L 875 2525 
L 2425 2525 
L 2425 2050 
L 875 2050 
L 875 125 
L 300 125 
L 300 4400 
L 2925 4400 
L 2925 3925 
z
" transform="scale(0.015625)"/>
     </defs>
     <use xlink:href="#SimHei-41"/>
     <use xlink:href="#SimHei-43" x="50"/>
     <use xlink:href="#SimHei-46" x="100"/>
    </g>
   </g>
  </g>
  <g id="axes_2">
   <g id="patch_7">
    <path d="M 552.109091 256.32 
L 907.2 256.32 
L 907.2 34.56 
L 552.109091 34.56 
z
" style="fill: #ffffff"/>
   </g>
   <g id="matplotlib.axis_3">
    <g id="xtick_8">
     <g id="line2d_19">
      <path d="M 568.249587 256.32 
L 568.249587 34.56 
" clip-path="url(#pfdbd5ab77d)" style="fill: none; stroke: #cccccc; stroke-linecap: round"/>
     </g>
     <g id="text_18">
      <!-- 0 -->
      <g style="fill: #262626" transform="translate(564.949587 274.895) scale(0.132 -0.132)">
       <use xlink:href="#SimHei-30"/>
      </g>
     </g>
    </g>
    <g id="xtick_9">
     <g id="line2d_20">
      <path d="M 622.963132 256.32 
L 622.963132 34.56 
" clip-path="url(#pfdbd5ab77d)" style="fill: none; stroke: #cccccc; stroke-linecap: round"/>
     </g>
     <g id="text_19">
      <!-- 5 -->
      <g style="fill: #262626" transform="translate(619.663132 274.895) scale(0.132 -0.132)">
       <use xlink:href="#SimHei-35"/>
      </g>
     </g>
    </g>
    <g id="xtick_10">
     <g id="line2d_21">
      <path d="M 677.676677 256.32 
L 677.676677 34.56 
" clip-path="url(#pfdbd5ab77d)" style="fill: none; stroke: #cccccc; stroke-linecap: round"/>
     </g>
     <g id="text_20">
      <!-- 10 -->
      <g style="fill: #262626" transform="translate(671.076677 274.895) scale(0.132 -0.132)">
       <use xlink:href="#SimHei-31"/>
       <use xlink:href="#SimHei-30" x="50"/>
      </g>
     </g>
    </g>
    <g id="xtick_11">
     <g id="line2d_22">
      <path d="M 732.390223 256.32 
L 732.390223 34.56 
" clip-path="url(#pfdbd5ab77d)" style="fill: none; stroke: #cccccc; stroke-linecap: round"/>
     </g>
     <g id="text_21">
      <!-- 15 -->
      <g style="fill: #262626" transform="translate(725.790223 274.895) scale(0.132 -0.132)">
       <use xlink:href="#SimHei-31"/>
       <use xlink:href="#SimHei-35" x="50"/>
      </g>
     </g>
    </g>
    <g id="xtick_12">
     <g id="line2d_23">
      <path d="M 787.103768 256.32 
L 787.103768 34.56 
" clip-path="url(#pfdbd5ab77d)" style="fill: none; stroke: #cccccc; stroke-linecap: round"/>
     </g>
     <g id="text_22">
      <!-- 20 -->
      <g style="fill: #262626" transform="translate(780.503768 274.895) scale(0.132 -0.132)">
       <use xlink:href="#SimHei-32"/>
       <use xlink:href="#SimHei-30" x="50"/>
      </g>
     </g>
    </g>
    <g id="xtick_13">
     <g id="line2d_24">
      <path d="M 841.817313 256.32 
L 841.817313 34.56 
" clip-path="url(#pfdbd5ab77d)" style="fill: none; stroke: #cccccc; stroke-linecap: round"/>
     </g>
     <g id="text_23">
      <!-- 25 -->
      <g style="fill: #262626" transform="translate(835.217313 274.895) scale(0.132 -0.132)">
       <use xlink:href="#SimHei-32"/>
       <use xlink:href="#SimHei-35" x="50"/>
      </g>
     </g>
    </g>
    <g id="xtick_14">
     <g id="line2d_25">
      <path d="M 896.530859 256.32 
L 896.530859 34.56 
" clip-path="url(#pfdbd5ab77d)" style="fill: none; stroke: #cccccc; stroke-linecap: round"/>
     </g>
     <g id="text_24">
      <!-- 30 -->
      <g style="fill: #262626" transform="translate(889.930859 274.895) scale(0.132 -0.132)">
       <use xlink:href="#SimHei-33"/>
       <use xlink:href="#SimHei-30" x="50"/>
      </g>
     </g>
    </g>
   </g>
   <g id="matplotlib.axis_4">
    <g id="ytick_10">
     <g id="line2d_26">
      <path d="M 552.109091 256.32 
L 907.2 256.32 
" clip-path="url(#pfdbd5ab77d)" style="fill: none; stroke: #cccccc; stroke-linecap: round"/>
     </g>
     <g id="text_25">
      <!-- -1.00 -->
      <g style="fill: #262626" transform="translate(509.609091 260.8575) scale(0.132 -0.132)">
       <use xlink:href="#SimHei-2d"/>
       <use xlink:href="#SimHei-31" x="50"/>
       <use xlink:href="#SimHei-2e" x="100"/>
       <use xlink:href="#SimHei-30" x="150"/>
       <use xlink:href="#SimHei-30" x="200"/>
      </g>
     </g>
    </g>
    <g id="ytick_11">
     <g id="line2d_27">
      <path d="M 552.109091 228.6 
L 907.2 228.6 
" clip-path="url(#pfdbd5ab77d)" style="fill: none; stroke: #cccccc; stroke-linecap: round"/>
     </g>
     <g id="text_26">
      <!-- -0.75 -->
      <g style="fill: #262626" transform="translate(509.609091 233.1375) scale(0.132 -0.132)">
       <use xlink:href="#SimHei-2d"/>
       <use xlink:href="#SimHei-30" x="50"/>
       <use xlink:href="#SimHei-2e" x="100"/>
       <use xlink:href="#SimHei-37" x="150"/>
       <use xlink:href="#SimHei-35" x="200"/>
      </g>
     </g>
    </g>
    <g id="ytick_12">
     <g id="line2d_28">
      <path d="M 552.109091 200.88 
L 907.2 200.88 
" clip-path="url(#pfdbd5ab77d)" style="fill: none; stroke: #cccccc; stroke-linecap: round"/>
     </g>
     <g id="text_27">
      <!-- -0.50 -->
      <g style="fill: #262626" transform="translate(509.609091 205.4175) scale(0.132 -0.132)">
       <use xlink:href="#SimHei-2d"/>
       <use xlink:href="#SimHei-30" x="50"/>
       <use xlink:href="#SimHei-2e" x="100"/>
       <use xlink:href="#SimHei-35" x="150"/>
       <use xlink:href="#SimHei-30" x="200"/>
      </g>
     </g>
    </g>
    <g id="ytick_13">
     <g id="line2d_29">
      <path d="M 552.109091 173.16 
L 907.2 173.16 
" clip-path="url(#pfdbd5ab77d)" style="fill: none; stroke: #cccccc; stroke-linecap: round"/>
     </g>
     <g id="text_28">
      <!-- -0.25 -->
      <g style="fill: #262626" transform="translate(509.609091 177.6975) scale(0.132 -0.132)">
       <use xlink:href="#SimHei-2d"/>
       <use xlink:href="#SimHei-30" x="50"/>
       <use xlink:href="#SimHei-2e" x="100"/>
       <use xlink:href="#SimHei-32" x="150"/>
       <use xlink:href="#SimHei-35" x="200"/>
      </g>
     </g>
    </g>
    <g id="ytick_14">
     <g id="line2d_30">
      <path d="M 552.109091 145.44 
L 907.2 145.44 
" clip-path="url(#pfdbd5ab77d)" style="fill: none; stroke: #cccccc; stroke-linecap: round"/>
     </g>
     <g id="text_29">
      <!-- 0.00 -->
      <g style="fill: #262626" transform="translate(516.209091 149.9775) scale(0.132 -0.132)">
       <use xlink:href="#SimHei-30"/>
       <use xlink:href="#SimHei-2e" x="50"/>
       <use xlink:href="#SimHei-30" x="100"/>
       <use xlink:href="#SimHei-30" x="150"/>
      </g>
     </g>
    </g>
    <g id="ytick_15">
     <g id="line2d_31">
      <path d="M 552.109091 117.72 
L 907.2 117.72 
" clip-path="url(#pfdbd5ab77d)" style="fill: none; stroke: #cccccc; stroke-linecap: round"/>
     </g>
     <g id="text_30">
      <!-- 0.25 -->
      <g style="fill: #262626" transform="translate(516.209091 122.2575) scale(0.132 -0.132)">
       <use xlink:href="#SimHei-30"/>
       <use xlink:href="#SimHei-2e" x="50"/>
       <use xlink:href="#SimHei-32" x="100"/>
       <use xlink:href="#SimHei-35" x="150"/>
      </g>
     </g>
    </g>
    <g id="ytick_16">
     <g id="line2d_32">
      <path d="M 552.109091 90 
L 907.2 90 
" clip-path="url(#pfdbd5ab77d)" style="fill: none; stroke: #cccccc; stroke-linecap: round"/>
     </g>
     <g id="text_31">
      <!-- 0.50 -->
      <g style="fill: #262626" transform="translate(516.209091 94.5375) scale(0.132 -0.132)">
       <use xlink:href="#SimHei-30"/>
       <use xlink:href="#SimHei-2e" x="50"/>
       <use xlink:href="#SimHei-35" x="100"/>
       <use xlink:href="#SimHei-30" x="150"/>
      </g>
     </g>
    </g>
    <g id="ytick_17">
     <g id="line2d_33">
      <path d="M 552.109091 62.28 
L 907.2 62.28 
" clip-path="url(#pfdbd5ab77d)" style="fill: none; stroke: #cccccc; stroke-linecap: round"/>
     </g>
     <g id="text_32">
      <!-- 0.75 -->
      <g style="fill: #262626" transform="translate(516.209091 66.8175) scale(0.132 -0.132)">
       <use xlink:href="#SimHei-30"/>
       <use xlink:href="#SimHei-2e" x="50"/>
       <use xlink:href="#SimHei-37" x="100"/>
       <use xlink:href="#SimHei-35" x="150"/>
      </g>
     </g>
    </g>
    <g id="ytick_18">
     <g id="line2d_34">
      <path d="M 552.109091 34.56 
L 907.2 34.56 
" clip-path="url(#pfdbd5ab77d)" style="fill: none; stroke: #cccccc; stroke-linecap: round"/>
     </g>
     <g id="text_33">
      <!-- 1.00 -->
      <g style="fill: #262626" transform="translate(516.209091 39.0975) scale(0.132 -0.132)">
       <use xlink:href="#SimHei-31"/>
       <use xlink:href="#SimHei-2e" x="50"/>
       <use xlink:href="#SimHei-30" x="100"/>
       <use xlink:href="#SimHei-30" x="150"/>
      </g>
     </g>
    </g>
   </g>
   <g id="PolyCollection_2">
    <defs>
     <path id="m9e1aa50c2a" d="M 573.720941 -150.5979 
L 573.720941 -134.5221 
L 590.135005 -134.5221 
L 601.077714 -134.5221 
L 612.020423 -134.5221 
L 622.963132 -134.5221 
L 633.905841 -134.5221 
L 644.84855 -134.5221 
L 655.791259 -134.5221 
L 666.733968 -134.5221 
L 677.676677 -134.5221 
L 688.619386 -134.5221 
L 699.562096 -134.5221 
L 710.504805 -134.5221 
L 721.447514 -134.5221 
L 732.390223 -134.5221 
L 743.332932 -134.5221 
L 754.275641 -134.5221 
L 765.21835 -134.5221 
L 776.161059 -134.5221 
L 787.103768 -134.5221 
L 798.046477 -134.5221 
L 808.989186 -134.5221 
L 819.931895 -134.5221 
L 830.874604 -134.5221 
L 841.817313 -134.5221 
L 852.760022 -134.5221 
L 863.702731 -134.5221 
L 874.645441 -134.5221 
L 891.059504 -134.5221 
L 891.059504 -150.5979 
L 891.059504 -150.5979 
L 874.645441 -150.5979 
L 863.702731 -150.5979 
L 852.760022 -150.5979 
L 841.817313 -150.5979 
L 830.874604 -150.5979 
L 819.931895 -150.5979 
L 808.989186 -150.5979 
L 798.046477 -150.5979 
L 787.103768 -150.5979 
L 776.161059 -150.5979 
L 765.21835 -150.5979 
L 754.275641 -150.5979 
L 743.332932 -150.5979 
L 732.390223 -150.5979 
L 721.447514 -150.5979 
L 710.504805 -150.5979 
L 699.562096 -150.5979 
L 688.619386 -150.5979 
L 677.676677 -150.5979 
L 666.733968 -150.5979 
L 655.791259 -150.5979 
L 644.84855 -150.5979 
L 633.905841 -150.5979 
L 622.963132 -150.5979 
L 612.020423 -150.5979 
L 601.077714 -150.5979 
L 590.135005 -150.5979 
L 573.720941 -150.5979 
z
" style="stroke: #ffffff; stroke-opacity: 0.25"/>
    </defs>
    <g clip-path="url(#pfdbd5ab77d)">
     <use xlink:href="#m9e1aa50c2a" x="0" y="288" style="fill: #4c72b0; fill-opacity: 0.25; stroke: #ffffff; stroke-opacity: 0.25"/>
    </g>
   </g>
   <g id="LineCollection_2">
    <path d="M 568.249587 145.44 
L 568.249587 34.56 
" clip-path="url(#pfdbd5ab77d)" style="fill: none; stroke: #4c72b0; stroke-width: 1.5"/>
    <path d="M 579.192296 145.44 
L 579.192296 148.553173 
" clip-path="url(#pfdbd5ab77d)" style="fill: none; stroke: #4c72b0; stroke-width: 1.5"/>
    <path d="M 590.135005 145.44 
L 590.135005 142.204077 
" clip-path="url(#pfdbd5ab77d)" style="fill: none; stroke: #4c72b0; stroke-width: 1.5"/>
    <path d="M 601.077714 145.44 
L 601.077714 146.456408 
" clip-path="url(#pfdbd5ab77d)" style="fill: none; stroke: #4c72b0; stroke-width: 1.5"/>
    <path d="M 612.020423 145.44 
L 612.020423 142.796905 
" clip-path="url(#pfdbd5ab77d)" style="fill: none; stroke: #4c72b0; stroke-width: 1.5"/>
    <path d="M 622.963132 145.44 
L 622.963132 150.03424 
" clip-path="url(#pfdbd5ab77d)" style="fill: none; stroke: #4c72b0; stroke-width: 1.5"/>
    <path d="M 633.905841 145.44 
L 633.905841 143.240001 
" clip-path="url(#pfdbd5ab77d)" style="fill: none; stroke: #4c72b0; stroke-width: 1.5"/>
    <path d="M 644.84855 145.44 
L 644.84855 150.947434 
" clip-path="url(#pfdbd5ab77d)" style="fill: none; stroke: #4c72b0; stroke-width: 1.5"/>
    <path d="M 655.791259 145.44 
L 655.791259 140.149971 
" clip-path="url(#pfdbd5ab77d)" style="fill: none; stroke: #4c72b0; stroke-width: 1.5"/>
    <path d="M 666.733968 145.44 
L 666.733968 138.958949 
" clip-path="url(#pfdbd5ab77d)" style="fill: none; stroke: #4c72b0; stroke-width: 1.5"/>
    <path d="M 677.676677 145.44 
L 677.676677 144.854372 
" clip-path="url(#pfdbd5ab77d)" style="fill: none; stroke: #4c72b0; stroke-width: 1.5"/>
    <path d="M 688.619386 145.44 
L 688.619386 142.081157 
" clip-path="url(#pfdbd5ab77d)" style="fill: none; stroke: #4c72b0; stroke-width: 1.5"/>
    <path d="M 699.562096 145.44 
L 699.562096 151.533347 
" clip-path="url(#pfdbd5ab77d)" style="fill: none; stroke: #4c72b0; stroke-width: 1.5"/>
    <path d="M 710.504805 145.44 
L 710.504805 147.569404 
" clip-path="url(#pfdbd5ab77d)" style="fill: none; stroke: #4c72b0; stroke-width: 1.5"/>
    <path d="M 721.447514 145.44 
L 721.447514 142.937665 
" clip-path="url(#pfdbd5ab77d)" style="fill: none; stroke: #4c72b0; stroke-width: 1.5"/>
    <path d="M 732.390223 145.44 
L 732.390223 145.722083 
" clip-path="url(#pfdbd5ab77d)" style="fill: none; stroke: #4c72b0; stroke-width: 1.5"/>
    <path d="M 743.332932 145.44 
L 743.332932 144.548251 
" clip-path="url(#pfdbd5ab77d)" style="fill: none; stroke: #4c72b0; stroke-width: 1.5"/>
    <path d="M 754.275641 145.44 
L 754.275641 147.327062 
" clip-path="url(#pfdbd5ab77d)" style="fill: none; stroke: #4c72b0; stroke-width: 1.5"/>
    <path d="M 765.21835 145.44 
L 765.21835 144.56543 
" clip-path="url(#pfdbd5ab77d)" style="fill: none; stroke: #4c72b0; stroke-width: 1.5"/>
    <path d="M 776.161059 145.44 
L 776.161059 140.194871 
" clip-path="url(#pfdbd5ab77d)" style="fill: none; stroke: #4c72b0; stroke-width: 1.5"/>
    <path d="M 787.103768 145.44 
L 787.103768 151.2841 
" clip-path="url(#pfdbd5ab77d)" style="fill: none; stroke: #4c72b0; stroke-width: 1.5"/>
    <path d="M 798.046477 145.44 
L 798.046477 144.012194 
" clip-path="url(#pfdbd5ab77d)" style="fill: none; stroke: #4c72b0; stroke-width: 1.5"/>
    <path d="M 808.989186 145.44 
L 808.989186 139.548621 
" clip-path="url(#pfdbd5ab77d)" style="fill: none; stroke: #4c72b0; stroke-width: 1.5"/>
    <path d="M 819.931895 145.44 
L 819.931895 142.204159 
" clip-path="url(#pfdbd5ab77d)" style="fill: none; stroke: #4c72b0; stroke-width: 1.5"/>
    <path d="M 830.874604 145.44 
L 830.874604 151.227108 
" clip-path="url(#pfdbd5ab77d)" style="fill: none; stroke: #4c72b0; stroke-width: 1.5"/>
    <path d="M 841.817313 145.44 
L 841.817313 148.112981 
" clip-path="url(#pfdbd5ab77d)" style="fill: none; stroke: #4c72b0; stroke-width: 1.5"/>
    <path d="M 852.760022 145.44 
L 852.760022 149.6114 
" clip-path="url(#pfdbd5ab77d)" style="fill: none; stroke: #4c72b0; stroke-width: 1.5"/>
    <path d="M 863.702731 145.44 
L 863.702731 148.564021 
" clip-path="url(#pfdbd5ab77d)" style="fill: none; stroke: #4c72b0; stroke-width: 1.5"/>
    <path d="M 874.645441 145.44 
L 874.645441 139.990054 
" clip-path="url(#pfdbd5ab77d)" style="fill: none; stroke: #4c72b0; stroke-width: 1.5"/>
    <path d="M 885.58815 145.44 
L 885.58815 149.795 
" clip-path="url(#pfdbd5ab77d)" style="fill: none; stroke: #4c72b0; stroke-width: 1.5"/>
   </g>
   <g id="line2d_35">
    <path d="M 552.109091 145.44 
L 907.2 145.44 
" clip-path="url(#pfdbd5ab77d)" style="fill: none; stroke: #4c72b0; stroke-width: 1.5; stroke-linecap: round"/>
   </g>
   <g id="line2d_36">
    <g clip-path="url(#pfdbd5ab77d)">
     <use xlink:href="#mea817247d0" x="568.249587" y="34.56" style="fill: #4c72b0; stroke: #4c72b0"/>
     <use xlink:href="#mea817247d0" x="579.192296" y="148.553173" style="fill: #4c72b0; stroke: #4c72b0"/>
     <use xlink:href="#mea817247d0" x="590.135005" y="142.204077" style="fill: #4c72b0; stroke: #4c72b0"/>
     <use xlink:href="#mea817247d0" x="601.077714" y="146.456408" style="fill: #4c72b0; stroke: #4c72b0"/>
     <use xlink:href="#mea817247d0" x="612.020423" y="142.796905" style="fill: #4c72b0; stroke: #4c72b0"/>
     <use xlink:href="#mea817247d0" x="622.963132" y="150.03424" style="fill: #4c72b0; stroke: #4c72b0"/>
     <use xlink:href="#mea817247d0" x="633.905841" y="143.240001" style="fill: #4c72b0; stroke: #4c72b0"/>
     <use xlink:href="#mea817247d0" x="644.84855" y="150.947434" style="fill: #4c72b0; stroke: #4c72b0"/>
     <use xlink:href="#mea817247d0" x="655.791259" y="140.149971" style="fill: #4c72b0; stroke: #4c72b0"/>
     <use xlink:href="#mea817247d0" x="666.733968" y="138.958949" style="fill: #4c72b0; stroke: #4c72b0"/>
     <use xlink:href="#mea817247d0" x="677.676677" y="144.854372" style="fill: #4c72b0; stroke: #4c72b0"/>
     <use xlink:href="#mea817247d0" x="688.619386" y="142.081157" style="fill: #4c72b0; stroke: #4c72b0"/>
     <use xlink:href="#mea817247d0" x="699.562096" y="151.533347" style="fill: #4c72b0; stroke: #4c72b0"/>
     <use xlink:href="#mea817247d0" x="710.504805" y="147.569404" style="fill: #4c72b0; stroke: #4c72b0"/>
     <use xlink:href="#mea817247d0" x="721.447514" y="142.937665" style="fill: #4c72b0; stroke: #4c72b0"/>
     <use xlink:href="#mea817247d0" x="732.390223" y="145.722083" style="fill: #4c72b0; stroke: #4c72b0"/>
     <use xlink:href="#mea817247d0" x="743.332932" y="144.548251" style="fill: #4c72b0; stroke: #4c72b0"/>
     <use xlink:href="#mea817247d0" x="754.275641" y="147.327062" style="fill: #4c72b0; stroke: #4c72b0"/>
     <use xlink:href="#mea817247d0" x="765.21835" y="144.56543" style="fill: #4c72b0; stroke: #4c72b0"/>
     <use xlink:href="#mea817247d0" x="776.161059" y="140.194871" style="fill: #4c72b0; stroke: #4c72b0"/>
     <use xlink:href="#mea817247d0" x="787.103768" y="151.2841" style="fill: #4c72b0; stroke: #4c72b0"/>
     <use xlink:href="#mea817247d0" x="798.046477" y="144.012194" style="fill: #4c72b0; stroke: #4c72b0"/>
     <use xlink:href="#mea817247d0" x="808.989186" y="139.548621" style="fill: #4c72b0; stroke: #4c72b0"/>
     <use xlink:href="#mea817247d0" x="819.931895" y="142.204159" style="fill: #4c72b0; stroke: #4c72b0"/>
     <use xlink:href="#mea817247d0" x="830.874604" y="151.227108" style="fill: #4c72b0; stroke: #4c72b0"/>
     <use xlink:href="#mea817247d0" x="841.817313" y="148.112981" style="fill: #4c72b0; stroke: #4c72b0"/>
     <use xlink:href="#mea817247d0" x="852.760022" y="149.6114" style="fill: #4c72b0; stroke: #4c72b0"/>
     <use xlink:href="#mea817247d0" x="863.702731" y="148.564021" style="fill: #4c72b0; stroke: #4c72b0"/>
     <use xlink:href="#mea817247d0" x="874.645441" y="139.990054" style="fill: #4c72b0; stroke: #4c72b0"/>
     <use xlink:href="#mea817247d0" x="885.58815" y="149.795" style="fill: #4c72b0; stroke: #4c72b0"/>
    </g>
   </g>
   <g id="patch_8">
    <path d="M 552.109091 256.32 
L 552.109091 34.56 
" style="fill: none; stroke: #cccccc; stroke-width: 1.25; stroke-linejoin: miter; stroke-linecap: square"/>
   </g>
   <g id="patch_9">
    <path d="M 907.2 256.32 
L 907.2 34.56 
" style="fill: none; stroke: #cccccc; stroke-width: 1.25; stroke-linejoin: miter; stroke-linecap: square"/>
   </g>
   <g id="patch_10">
    <path d="M 552.109091 256.32 
L 907.2 256.32 
" style="fill: none; stroke: #cccccc; stroke-width: 1.25; stroke-linejoin: miter; stroke-linecap: square"/>
   </g>
   <g id="patch_11">
    <path d="M 552.109091 34.56 
L 907.2 34.56 
" style="fill: none; stroke: #cccccc; stroke-width: 1.25; stroke-linejoin: miter; stroke-linecap: square"/>
   </g>
   <g id="text_34">
    <!-- PACF -->
    <g style="fill: #262626" transform="translate(715.254545 28.56) scale(0.144 -0.144)">
     <defs>
      <path id="SimHei-50" d="M 2950 3100 
Q 2950 2500 2600 2150 
Q 2250 1800 1625 1800 
L 900 1800 
L 900 125 
L 325 125 
L 325 4400 
L 1625 4400 
Q 2250 4400 2600 4050 
Q 2950 3700 2950 3100 
z
M 2375 3100 
Q 2375 3575 2150 3750 
Q 1925 3925 1475 3925 
L 900 3925 
L 900 2275 
L 1475 2275 
Q 1925 2275 2150 2450 
Q 2375 2625 2375 3100 
z
" transform="scale(0.015625)"/>
     </defs>
     <use xlink:href="#SimHei-50"/>
     <use xlink:href="#SimHei-41" x="50"/>
     <use xlink:href="#SimHei-43" x="100"/>
     <use xlink:href="#SimHei-46" x="150"/>
    </g>
   </g>
  </g>
 </g>
 <defs>
  <clipPath id="p58d48453d4">
   <rect x="126" y="34.56" width="355.090909" height="221.76"/>
  </clipPath>
  <clipPath id="pfdbd5ab77d">
   <rect x="552.109091" y="34.56" width="355.090909" height="221.76"/>
  </clipPath>
 </defs>
</svg>
