<?xml version="1.0" encoding="utf-8" standalone="no"?>
<!DOCTYPE svg PUBLIC "-//W3C//DTD SVG 1.1//EN"
  "http://www.w3.org/Graphics/SVG/1.1/DTD/svg11.dtd">
<svg xmlns:xlink="http://www.w3.org/1999/xlink" width="1008pt" height="576pt" viewBox="0 0 1008 576" xmlns="http://www.w3.org/2000/svg" version="1.1">
 <metadata>
  <rdf:RDF xmlns:dc="http://purl.org/dc/elements/1.1/" xmlns:cc="http://creativecommons.org/ns#" xmlns:rdf="http://www.w3.org/1999/02/22-rdf-syntax-ns#">
   <cc:Work>
    <dc:type rdf:resource="http://purl.org/dc/dcmitype/StillImage"/>
    <dc:date>2023-04-14T14:40:11.764226</dc:date>
    <dc:format>image/svg+xml</dc:format>
    <dc:creator>
     <cc:Agent>
      <dc:title>Matplotlib v3.7.1, https://matplotlib.org/</dc:title>
     </cc:Agent>
    </dc:creator>
   </cc:Work>
  </rdf:RDF>
 </metadata>
 <defs>
  <style type="text/css">*{stroke-linejoin: round; stroke-linecap: butt}</style>
 </defs>
 <g id="figure_1">
  <g id="patch_1">
   <path d="M 0 576 
L 1008 576 
L 1008 0 
L 0 0 
z
" style="fill: #ffffff"/>
  </g>
  <g id="axes_1">
   <g id="patch_2">
    <path d="M 44.852 527.476 
L 992.448 527.476 
L 992.448 15.552 
L 44.852 15.552 
z
" style="fill: #ffffff"/>
   </g>
   <g id="matplotlib.axis_1">
    <g id="xtick_1">
     <g id="line2d_1">
      <path d="M 44.852 527.476 
L 44.852 15.552 
" clip-path="url(#pa9f97ff978)" style="fill: none; stroke: #cccccc; stroke-linecap: round"/>
     </g>
     <g id="text_1">
      <!-- Jan -->
      <g style="fill: #262626" transform="translate(34.952 546.051) scale(0.132 -0.132)">
       <defs>
        <path id="SimHei-4a" d="M 2800 1550 
Q 2800 775 2462 425 
Q 2125 75 1550 75 
Q 1025 75 675 412 
Q 325 750 325 1500 
L 325 1775 
L 900 1775 
L 900 1425 
Q 900 975 1087 787 
Q 1275 600 1525 600 
Q 1875 600 2050 800 
Q 2225 1000 2225 1525 
L 2225 4400 
L 2800 4400 
L 2800 1550 
z
" transform="scale(0.015625)"/>
        <path id="SimHei-61" d="M 2875 125 
L 2275 125 
Q 2225 175 2200 262 
Q 2175 350 2175 475 
Q 2000 275 1750 175 
Q 1500 75 1225 75 
Q 825 75 550 275 
Q 275 475 275 850 
Q 275 1225 525 1450 
Q 775 1675 1300 1750 
Q 1650 1800 1912 1875 
Q 2175 1950 2175 2075 
Q 2175 2225 2062 2375 
Q 1950 2525 1575 2525 
Q 1275 2525 1137 2412 
Q 1000 2300 950 2100 
L 400 2100 
Q 450 2500 762 2737 
Q 1075 2975 1575 2975 
Q 2125 2975 2400 2725 
Q 2675 2475 2675 2025 
L 2675 650 
Q 2675 500 2725 375 
Q 2775 250 2875 125 
z
M 2175 1050 
L 2175 1550 
Q 2025 1500 1887 1462 
Q 1750 1425 1425 1375 
Q 1050 1325 937 1200 
Q 825 1075 825 900 
Q 825 750 937 637 
Q 1050 525 1275 525 
Q 1500 525 1762 650 
Q 2025 775 2175 1050 
z
" transform="scale(0.015625)"/>
        <path id="SimHei-6e" d="M 2800 125 
L 2300 125 
L 2300 1925 
Q 2300 2225 2150 2400 
Q 2000 2575 1750 2575 
Q 1425 2575 1137 2237 
Q 850 1900 850 1400 
L 850 125 
L 350 125 
L 350 2925 
L 850 2925 
L 850 2400 
Q 1050 2675 1287 2825 
Q 1525 2975 1900 2975 
Q 2350 2975 2575 2725 
Q 2800 2475 2800 2100 
L 2800 125 
z
" transform="scale(0.015625)"/>
       </defs>
       <use xlink:href="#SimHei-4a"/>
       <use xlink:href="#SimHei-61" x="50"/>
       <use xlink:href="#SimHei-6e" x="100"/>
      </g>
      <!-- 2020 -->
      <g style="fill: #262626" transform="translate(31.652 558.591) scale(0.132 -0.132)">
       <defs>
        <path id="SimHei-32" d="M 300 250 
Q 325 625 650 925 
Q 975 1225 1475 1862 
Q 1975 2500 2125 2850 
Q 2275 3200 2237 3450 
Q 2200 3700 2000 3862 
Q 1800 4025 1537 4000 
Q 1275 3975 1037 3800 
Q 800 3625 675 3275 
L 200 3350 
Q 400 3925 712 4187 
Q 1025 4450 1450 4475 
Q 1700 4500 1900 4462 
Q 2100 4425 2312 4287 
Q 2525 4150 2662 3875 
Q 2800 3600 2762 3212 
Q 2725 2825 2375 2287 
Q 2025 1750 1025 600 
L 2825 600 
L 2825 150 
L 300 150 
L 300 250 
z
" transform="scale(0.015625)"/>
        <path id="SimHei-30" d="M 225 2537 
Q 250 3200 412 3587 
Q 575 3975 875 4225 
Q 1175 4475 1612 4475 
Q 2050 4475 2375 4112 
Q 2700 3750 2800 3200 
Q 2900 2650 2862 1937 
Q 2825 1225 2612 775 
Q 2400 325 1975 150 
Q 1550 -25 1125 187 
Q 700 400 525 750 
Q 350 1100 275 1487 
Q 200 1875 225 2537 
z
M 750 2687 
Q 675 2000 800 1462 
Q 925 925 1212 700 
Q 1500 475 1800 612 
Q 2100 750 2237 1162 
Q 2375 1575 2375 2062 
Q 2375 2550 2337 2950 
Q 2300 3350 2112 3675 
Q 1925 4000 1612 4012 
Q 1300 4025 1062 3700 
Q 825 3375 750 2687 
z
" transform="scale(0.015625)"/>
       </defs>
       <use xlink:href="#SimHei-32"/>
       <use xlink:href="#SimHei-30" x="50"/>
       <use xlink:href="#SimHei-32" x="100"/>
       <use xlink:href="#SimHei-30" x="150"/>
      </g>
     </g>
    </g>
    <g id="xtick_2">
     <g id="line2d_2">
      <path d="M 162.976981 527.476 
L 162.976981 15.552 
" clip-path="url(#pa9f97ff978)" style="fill: none; stroke: #cccccc; stroke-linecap: round"/>
     </g>
     <g id="text_2">
      <!-- Apr -->
      <g style="fill: #262626" transform="translate(153.076981 546.154125) scale(0.132 -0.132)">
       <defs>
        <path id="SimHei-41" d="M 3075 125 
L 2475 125 
L 2125 1450 
L 1025 1450 
L 675 125 
L 75 125 
L 1325 4450 
L 1825 4450 
L 3075 125 
z
M 2000 1925 
L 1600 3450 
L 1550 3450 
L 1150 1925 
L 2000 1925 
z
" transform="scale(0.015625)"/>
        <path id="SimHei-70" d="M 2825 1525 
Q 2825 800 2475 425 
Q 2125 50 1625 50 
Q 1350 50 1150 162 
Q 950 275 800 500 
L 800 -800 
L 300 -800 
L 300 2925 
L 800 2925 
L 800 2550 
Q 950 2775 1150 2875 
Q 1350 2975 1625 2975 
Q 2125 2975 2475 2612 
Q 2825 2250 2825 1525 
z
M 2275 1525 
Q 2275 2000 2087 2262 
Q 1900 2525 1525 2525 
Q 1225 2525 1012 2262 
Q 800 2000 800 1525 
Q 800 1050 1012 775 
Q 1225 500 1525 500 
Q 1900 500 2087 775 
Q 2275 1050 2275 1525 
z
" transform="scale(0.015625)"/>
        <path id="SimHei-72" d="M 2500 2425 
Q 2025 2500 1700 2287 
Q 1375 2075 1150 1550 
L 1150 125 
L 650 125 
L 650 2925 
L 1150 2925 
L 1150 2200 
Q 1375 2600 1712 2787 
Q 2050 2975 2500 2975 
L 2500 2425 
z
" transform="scale(0.015625)"/>
       </defs>
       <use xlink:href="#SimHei-41"/>
       <use xlink:href="#SimHei-70" x="50"/>
       <use xlink:href="#SimHei-72" x="100"/>
      </g>
     </g>
    </g>
    <g id="xtick_3">
     <g id="line2d_3">
      <path d="M 281.101962 527.476 
L 281.101962 15.552 
" clip-path="url(#pa9f97ff978)" style="fill: none; stroke: #cccccc; stroke-linecap: round"/>
     </g>
     <g id="text_3">
      <!-- Jul -->
      <g style="fill: #262626" transform="translate(271.201962 546.051) scale(0.132 -0.132)">
       <defs>
        <path id="SimHei-75" d="M 2800 125 
L 2300 125 
L 2300 650 
Q 2100 375 1862 225 
Q 1625 75 1250 75 
Q 800 75 575 325 
Q 350 575 350 950 
L 350 2925 
L 850 2925 
L 850 1125 
Q 850 825 1000 650 
Q 1150 475 1400 475 
Q 1725 475 2012 812 
Q 2300 1150 2300 1650 
L 2300 2925 
L 2800 2925 
L 2800 125 
z
" transform="scale(0.015625)"/>
        <path id="SimHei-6c" d="M 1825 125 
L 1325 125 
L 1325 4400 
L 1825 4400 
L 1825 125 
z
" transform="scale(0.015625)"/>
       </defs>
       <use xlink:href="#SimHei-4a"/>
       <use xlink:href="#SimHei-75" x="50"/>
       <use xlink:href="#SimHei-6c" x="100"/>
      </g>
     </g>
    </g>
    <g id="xtick_4">
     <g id="line2d_4">
      <path d="M 400.525019 527.476 
L 400.525019 15.552 
" clip-path="url(#pa9f97ff978)" style="fill: none; stroke: #cccccc; stroke-linecap: round"/>
     </g>
     <g id="text_4">
      <!-- Oct -->
      <g style="fill: #262626" transform="translate(390.625019 546.051) scale(0.132 -0.132)">
       <defs>
        <path id="SimHei-4f" d="M 2950 2275 
Q 2950 1100 2587 587 
Q 2225 75 1575 75 
Q 925 75 550 587 
Q 175 1100 175 2275 
Q 175 3450 550 3950 
Q 925 4450 1575 4450 
Q 2225 4450 2587 3950 
Q 2950 3450 2950 2275 
z
M 2350 2275 
Q 2350 3325 2125 3650 
Q 1900 3975 1575 3975 
Q 1250 3975 1012 3650 
Q 775 3325 775 2275 
Q 775 1225 1012 887 
Q 1250 550 1575 550 
Q 1900 550 2125 887 
Q 2350 1225 2350 2275 
z
" transform="scale(0.015625)"/>
        <path id="SimHei-63" d="M 2850 1250 
Q 2850 725 2487 400 
Q 2125 75 1575 75 
Q 1025 75 625 462 
Q 225 850 225 1525 
Q 225 2200 625 2587 
Q 1025 2975 1575 2975 
Q 2125 2975 2450 2687 
Q 2775 2400 2775 2000 
L 2225 2000 
Q 2200 2300 2012 2412 
Q 1825 2525 1575 2525 
Q 1275 2525 1025 2287 
Q 775 2050 775 1525 
Q 775 1000 1025 762 
Q 1275 525 1575 525 
Q 1900 525 2100 700 
Q 2300 875 2300 1250 
L 2850 1250 
z
" transform="scale(0.015625)"/>
        <path id="SimHei-74" d="M 2750 200 
Q 2625 150 2462 112 
Q 2300 75 2025 75 
Q 1575 75 1300 325 
Q 1025 575 1025 1025 
L 1025 2525 
L 175 2525 
L 175 2925 
L 1025 2925 
L 1025 3900 
L 1525 3900 
L 1525 2925 
L 2550 2925 
L 2550 2525 
L 1525 2525 
L 1525 1000 
Q 1525 800 1625 662 
Q 1725 525 2000 525 
Q 2275 525 2450 575 
Q 2625 625 2750 700 
L 2750 200 
z
" transform="scale(0.015625)"/>
       </defs>
       <use xlink:href="#SimHei-4f"/>
       <use xlink:href="#SimHei-63" x="50"/>
       <use xlink:href="#SimHei-74" x="100"/>
      </g>
     </g>
    </g>
    <g id="xtick_5">
     <g id="line2d_5">
      <path d="M 519.948077 527.476 
L 519.948077 15.552 
" clip-path="url(#pa9f97ff978)" style="fill: none; stroke: #cccccc; stroke-linecap: round"/>
     </g>
     <g id="text_5">
      <!-- Jan -->
      <g style="fill: #262626" transform="translate(510.048077 546.051) scale(0.132 -0.132)">
       <use xlink:href="#SimHei-4a"/>
       <use xlink:href="#SimHei-61" x="50"/>
       <use xlink:href="#SimHei-6e" x="100"/>
      </g>
      <!-- 2021 -->
      <g style="fill: #262626" transform="translate(506.748077 558.591) scale(0.132 -0.132)">
       <defs>
        <path id="SimHei-31" d="M 1400 3600 
Q 1075 3275 575 2975 
L 575 3450 
Q 1200 3875 1600 4450 
L 1900 4450 
L 1900 150 
L 1400 150 
L 1400 3600 
z
" transform="scale(0.015625)"/>
       </defs>
       <use xlink:href="#SimHei-32"/>
       <use xlink:href="#SimHei-30" x="50"/>
       <use xlink:href="#SimHei-32" x="100"/>
       <use xlink:href="#SimHei-31" x="150"/>
      </g>
     </g>
    </g>
    <g id="xtick_6">
     <g id="line2d_6">
      <path d="M 636.774981 527.476 
L 636.774981 15.552 
" clip-path="url(#pa9f97ff978)" style="fill: none; stroke: #cccccc; stroke-linecap: round"/>
     </g>
     <g id="text_6">
      <!-- Apr -->
      <g style="fill: #262626" transform="translate(626.874981 546.154125) scale(0.132 -0.132)">
       <use xlink:href="#SimHei-41"/>
       <use xlink:href="#SimHei-70" x="50"/>
       <use xlink:href="#SimHei-72" x="100"/>
      </g>
     </g>
    </g>
    <g id="xtick_7">
     <g id="line2d_7">
      <path d="M 754.899962 527.476 
L 754.899962 15.552 
" clip-path="url(#pa9f97ff978)" style="fill: none; stroke: #cccccc; stroke-linecap: round"/>
     </g>
     <g id="text_7">
      <!-- Jul -->
      <g style="fill: #262626" transform="translate(744.999962 546.051) scale(0.132 -0.132)">
       <use xlink:href="#SimHei-4a"/>
       <use xlink:href="#SimHei-75" x="50"/>
       <use xlink:href="#SimHei-6c" x="100"/>
      </g>
     </g>
    </g>
    <g id="xtick_8">
     <g id="line2d_8">
      <path d="M 874.323019 527.476 
L 874.323019 15.552 
" clip-path="url(#pa9f97ff978)" style="fill: none; stroke: #cccccc; stroke-linecap: round"/>
     </g>
     <g id="text_8">
      <!-- Oct -->
      <g style="fill: #262626" transform="translate(864.423019 546.051) scale(0.132 -0.132)">
       <use xlink:href="#SimHei-4f"/>
       <use xlink:href="#SimHei-63" x="50"/>
       <use xlink:href="#SimHei-74" x="100"/>
      </g>
     </g>
    </g>
    <g id="xtick_9">
     <g id="line2d_9">
      <path d="M 992.448 527.476 
L 992.448 15.552 
" clip-path="url(#pa9f97ff978)" style="fill: none; stroke: #cccccc; stroke-linecap: round"/>
     </g>
    </g>
    <g id="xtick_10"/>
    <g id="xtick_11"/>
    <g id="xtick_12"/>
    <g id="xtick_13"/>
    <g id="xtick_14"/>
    <g id="xtick_15"/>
    <g id="xtick_16"/>
    <g id="xtick_17"/>
    <g id="xtick_18"/>
    <g id="xtick_19"/>
    <g id="xtick_20"/>
    <g id="xtick_21"/>
    <g id="xtick_22"/>
    <g id="xtick_23"/>
    <g id="xtick_24"/>
    <g id="xtick_25"/>
   </g>
   <g id="matplotlib.axis_2">
    <g id="ytick_1">
     <g id="line2d_10">
      <path d="M 44.852 505.111458 
L 992.448 505.111458 
" clip-path="url(#pa9f97ff978)" style="fill: none; stroke: #cccccc; stroke-linecap: round"/>
     </g>
     <g id="text_9">
      <!-- 0.0 -->
      <g style="fill: #262626" transform="translate(15.552 509.648958) scale(0.132 -0.132)">
       <defs>
        <path id="SimHei-2e" d="M 1075 125 
L 500 125 
L 500 675 
L 1075 675 
L 1075 125 
z
" transform="scale(0.015625)"/>
       </defs>
       <use xlink:href="#SimHei-30"/>
       <use xlink:href="#SimHei-2e" x="50"/>
       <use xlink:href="#SimHei-30" x="100"/>
      </g>
     </g>
    </g>
    <g id="ytick_2">
     <g id="line2d_11">
      <path d="M 44.852 411.347864 
L 992.448 411.347864 
" clip-path="url(#pa9f97ff978)" style="fill: none; stroke: #cccccc; stroke-linecap: round"/>
     </g>
     <g id="text_10">
      <!-- 0.2 -->
      <g style="fill: #262626" transform="translate(15.552 415.885364) scale(0.132 -0.132)">
       <use xlink:href="#SimHei-30"/>
       <use xlink:href="#SimHei-2e" x="50"/>
       <use xlink:href="#SimHei-32" x="100"/>
      </g>
     </g>
    </g>
    <g id="ytick_3">
     <g id="line2d_12">
      <path d="M 44.852 317.584269 
L 992.448 317.584269 
" clip-path="url(#pa9f97ff978)" style="fill: none; stroke: #cccccc; stroke-linecap: round"/>
     </g>
     <g id="text_11">
      <!-- 0.4 -->
      <g style="fill: #262626" transform="translate(15.552 322.121769) scale(0.132 -0.132)">
       <defs>
        <path id="SimHei-34" d="M 2000 1100 
L 75 1100 
L 75 1525 
L 2100 4450 
L 2475 4450 
L 2475 1525 
L 3075 1525 
L 3075 1100 
L 2475 1100 
L 2475 150 
L 2000 150 
L 2000 1100 
z
M 2000 1525 
L 2000 3500 
L 600 1525 
L 2000 1525 
z
" transform="scale(0.015625)"/>
       </defs>
       <use xlink:href="#SimHei-30"/>
       <use xlink:href="#SimHei-2e" x="50"/>
       <use xlink:href="#SimHei-34" x="100"/>
      </g>
     </g>
    </g>
    <g id="ytick_4">
     <g id="line2d_13">
      <path d="M 44.852 223.820674 
L 992.448 223.820674 
" clip-path="url(#pa9f97ff978)" style="fill: none; stroke: #cccccc; stroke-linecap: round"/>
     </g>
     <g id="text_12">
      <!-- 0.6 -->
      <g style="fill: #262626" transform="translate(15.552 228.358174) scale(0.132 -0.132)">
       <defs>
        <path id="SimHei-36" d="M 250 1612 
Q 275 1975 387 2225 
Q 500 2475 725 2850 
L 1750 4450 
L 2325 4450 
L 1275 2800 
Q 1950 2975 2350 2750 
Q 2750 2525 2887 2237 
Q 3025 1950 3037 1612 
Q 3050 1275 2937 950 
Q 2825 625 2537 362 
Q 2250 100 1737 75 
Q 1225 50 862 262 
Q 500 475 362 862 
Q 225 1250 250 1612 
z
M 1025 787 
Q 1250 550 1625 525 
Q 2000 500 2250 775 
Q 2500 1050 2500 1575 
Q 2500 2100 2187 2300 
Q 1875 2500 1487 2450 
Q 1100 2400 925 2075 
Q 750 1750 775 1387 
Q 800 1025 1025 787 
z
" transform="scale(0.015625)"/>
       </defs>
       <use xlink:href="#SimHei-30"/>
       <use xlink:href="#SimHei-2e" x="50"/>
       <use xlink:href="#SimHei-36" x="100"/>
      </g>
     </g>
    </g>
    <g id="ytick_5">
     <g id="line2d_14">
      <path d="M 44.852 130.05708 
L 992.448 130.05708 
" clip-path="url(#pa9f97ff978)" style="fill: none; stroke: #cccccc; stroke-linecap: round"/>
     </g>
     <g id="text_13">
      <!-- 0.8 -->
      <g style="fill: #262626" transform="translate(15.552 134.59458) scale(0.132 -0.132)">
       <defs>
        <path id="SimHei-38" d="M 175 1375 
Q 175 1675 325 1962 
Q 475 2250 825 2425 
Q 525 2600 425 2812 
Q 325 3025 312 3300 
Q 300 3575 387 3775 
Q 475 3975 650 4150 
Q 825 4325 1037 4387 
Q 1250 4450 1500 4450 
Q 1750 4450 1950 4400 
Q 2150 4350 2375 4187 
Q 2600 4025 2700 3725 
Q 2800 3425 2687 3025 
Q 2575 2625 2100 2400 
Q 2525 2275 2700 2012 
Q 2875 1750 2875 1375 
Q 2875 1000 2762 775 
Q 2650 550 2512 400 
Q 2375 250 2137 162 
Q 1900 75 1537 75 
Q 1175 75 912 162 
Q 650 250 475 425 
Q 300 600 237 837 
Q 175 1075 175 1375 
z
M 687 1400 
Q 675 1100 787 875 
Q 900 650 1200 587 
Q 1500 525 1825 600 
Q 2150 675 2275 950 
Q 2400 1225 2362 1500 
Q 2325 1775 2050 1962 
Q 1775 2150 1450 2125 
Q 1125 2100 912 1900 
Q 700 1700 687 1400 
z
M 775 3350 
Q 775 3100 950 2875 
Q 1125 2650 1500 2650 
Q 1875 2650 2062 2875 
Q 2250 3100 2237 3412 
Q 2225 3725 2012 3875 
Q 1800 4025 1437 4000 
Q 1075 3975 925 3787 
Q 775 3600 775 3350 
z
" transform="scale(0.015625)"/>
       </defs>
       <use xlink:href="#SimHei-30"/>
       <use xlink:href="#SimHei-2e" x="50"/>
       <use xlink:href="#SimHei-38" x="100"/>
      </g>
     </g>
    </g>
    <g id="ytick_6">
     <g id="line2d_15">
      <path d="M 44.852 36.293485 
L 992.448 36.293485 
" clip-path="url(#pa9f97ff978)" style="fill: none; stroke: #cccccc; stroke-linecap: round"/>
     </g>
     <g id="text_14">
      <!-- 1.0 -->
      <g style="fill: #262626" transform="translate(15.552 40.830985) scale(0.132 -0.132)">
       <use xlink:href="#SimHei-31"/>
       <use xlink:href="#SimHei-2e" x="50"/>
       <use xlink:href="#SimHei-30" x="100"/>
      </g>
     </g>
    </g>
   </g>
   <g id="line2d_16">
    <path d="M 44.852 407.204673 
L 46.150077 378.214239 
L 47.448153 188.264311 
L 48.74623 127.753829 
L 50.044307 365.811522 
L 51.342384 408.720782 
L 52.64046 301.828996 
L 53.938537 262.300394 
L 55.236614 130.169722 
L 56.53469 39.945195 
L 57.832767 317.486942 
L 59.130844 242.709081 
L 60.428921 374.908811 
L 61.726997 205.707127 
L 63.025074 339.80498 
L 64.323151 380.794323 
L 65.621227 187.787781 
L 66.919304 188.387832 
L 68.217381 441.570846 
L 69.515458 200.060273 
L 70.813534 480.846568 
L 72.111611 169.738496 
L 73.409688 203.880094 
L 74.707764 176.376186 
L 76.005841 292.035305 
L 77.303918 261.830244 
L 78.601995 269.130793 
L 79.900071 157.835335 
L 81.198148 197.206561 
L 82.496225 428.443477 
L 83.794301 364.594379 
L 85.092378 84.232927 
L 86.390455 135.697062 
L 87.688532 178.696995 
L 88.986608 217.15965 
L 90.284685 333.065599 
L 91.582762 414.775407 
L 92.880838 197.406238 
L 94.178915 418.916328 
L 95.476992 469.080109 
L 96.775068 438.783385 
L 98.073145 471.335205 
L 99.371222 67.591029 
L 100.669299 212.889987 
L 101.967375 136.316784 
L 103.265452 144.457595 
L 104.563529 446.915099 
L 105.861605 427.01318 
L 107.159682 279.471666 
L 108.457759 295.660162 
L 109.755836 264.094768 
L 111.053912 236.460749 
L 112.351989 459.985019 
L 113.650066 214.006553 
L 114.948142 326.021321 
L 116.246219 173.889686 
L 117.544296 484.647384 
L 118.842373 76.89281 
L 120.140449 487.603815 
L 121.438526 152.322589 
L 122.736603 489.013921 
L 124.034679 54.688274 
L 125.332756 57.450009 
L 126.630833 77.409393 
L 127.92891 237.581817 
L 129.226986 45.06011 
L 130.525063 217.883102 
L 131.82314 459.160644 
L 133.121216 503.388495 
L 134.419293 163.75733 
L 135.71737 136.968756 
L 137.015447 501.625518 
L 138.313523 408.837225 
L 139.6116 388.79885 
L 140.909677 130.003955 
L 142.207753 446.048947 
L 143.50583 244.318156 
L 144.803907 368.326697 
L 146.101984 91.438123 
L 147.40006 115.169182 
L 148.698137 365.034442 
L 149.996214 226.000786 
L 151.29429 249.780418 
L 152.592367 417.2704 
L 153.890444 56.598457 
L 155.188521 294.980454 
L 156.486597 366.649006 
L 157.784674 375.348001 
L 159.082751 109.212229 
L 160.380827 476.829614 
L 161.678904 473.753301 
L 162.976981 490.42128 
L 164.275058 281.206313 
L 165.573134 376.64353 
L 166.871211 459.261359 
L 168.169288 361.636594 
L 169.467364 94.271274 
L 170.765441 272.444059 
L 172.063518 470.240659 
L 173.361595 247.380193 
L 175.957748 406.164391 
L 177.255825 237.815214 
L 178.553901 303.685523 
L 179.851978 174.866578 
L 181.150055 224.0611 
L 182.448132 432.024422 
L 183.746208 187.508053 
L 185.044285 212.747993 
L 186.342362 40.619056 
L 187.640438 425.588484 
L 188.938515 387.603516 
L 190.236592 160.647018 
L 191.534668 344.938048 
L 192.832745 339.555385 
L 194.130822 53.007773 
L 195.428899 247.889412 
L 196.726975 152.64257 
L 198.025052 202.832002 
L 199.323129 202.458464 
L 200.621205 362.234007 
L 201.919282 207.84527 
L 203.217359 121.794282 
L 204.515436 220.973884 
L 205.813512 223.710472 
L 207.111589 344.489121 
L 208.409666 49.413202 
L 209.707742 298.048186 
L 211.005819 54.256576 
L 212.303896 247.518913 
L 213.601973 60.410855 
L 214.900049 409.036221 
L 216.198126 339.779734 
L 217.496203 437.757029 
L 218.794279 454.138417 
L 220.092356 177.632451 
L 221.390433 52.781175 
L 222.68851 249.811447 
L 223.986586 271.036913 
L 225.284663 103.743553 
L 226.58274 385.54308 
L 227.880816 461.736417 
L 229.178893 344.303029 
L 230.47697 429.866187 
L 231.775047 173.151762 
L 233.073123 436.639503 
L 234.3712 351.808226 
L 235.669277 398.215271 
L 236.967353 430.651638 
L 238.26543 482.378686 
L 239.563507 270.375316 
L 240.861584 486.440165 
L 242.15966 289.523328 
L 243.457737 256.778271 
L 244.755814 251.378843 
L 246.05389 421.994534 
L 247.351967 240.258826 
L 248.650044 91.553158 
L 249.948121 129.591106 
L 251.246197 369.507934 
L 252.544274 83.242138 
L 255.140427 379.535578 
L 256.438504 239.264602 
L 257.736581 463.729613 
L 259.034658 207.5747 
L 260.332734 283.996241 
L 261.630811 143.890662 
L 262.928888 177.99934 
L 265.525041 503.308887 
L 266.823118 217.137621 
L 268.121195 223.364066 
L 269.419271 172.615152 
L 270.717348 394.132012 
L 272.015425 436.15947 
L 273.313501 419.82613 
L 274.611578 428.971067 
L 275.909655 193.339584 
L 277.207732 114.551079 
L 278.505808 211.978732 
L 279.803885 255.483809 
L 281.101962 339.234293 
L 282.400038 343.265335 
L 283.698115 432.705993 
L 284.996192 55.071942 
L 286.294268 437.526974 
L 288.890422 344.580249 
L 290.188499 188.200021 
L 291.486575 270.136633 
L 292.784652 389.262747 
L 294.082729 429.309996 
L 295.380805 449.751674 
L 296.678882 396.574486 
L 297.976959 217.804246 
L 299.275036 429.110759 
L 300.573112 297.582751 
L 301.871189 450.28844 
L 303.169266 330.556568 
L 304.467342 55.334335 
L 305.765419 234.167012 
L 307.063496 376.99041 
L 308.361573 182.537341 
L 309.659649 473.470303 
L 310.957726 216.715307 
L 312.255803 451.393138 
L 313.553879 331.559513 
L 314.851956 143.504695 
L 316.150033 258.727453 
L 317.44811 184.786883 
L 318.746186 491.751503 
L 320.044263 384.429492 
L 321.34234 440.99647 
L 322.640416 339.874207 
L 323.938493 334.56332 
L 325.23657 424.913469 
L 326.534647 342.887794 
L 327.832723 113.4722 
L 329.1308 50.556794 
L 330.428877 377.875498 
L 331.726953 408.814559 
L 333.02503 197.938646 
L 334.323107 283.849787 
L 335.621184 314.205463 
L 336.91926 494.414031 
L 338.217337 254.399546 
L 339.515414 299.585507 
L 340.81349 54.77188 
L 342.111567 70.016633 
L 343.409644 407.905205 
L 344.707721 156.796336 
L 346.005797 245.002576 
L 347.303874 196.423355 
L 348.601951 304.200882 
L 349.900027 240.325687 
L 351.198104 484.496023 
L 352.496181 183.731065 
L 353.794258 453.09207 
L 355.092334 503.828228 
L 356.390411 211.644757 
L 358.986564 65.968128 
L 360.284641 132.669004 
L 361.582718 307.438978 
L 362.880795 286.140118 
L 364.178871 51.485631 
L 365.476948 481.28892 
L 366.775025 192.543073 
L 368.073101 326.15231 
L 369.371178 103.170539 
L 370.669255 256.055118 
L 371.967332 68.199044 
L 373.265408 435.089468 
L 374.563485 459.065075 
L 375.861562 381.839848 
L 377.159638 372.641087 
L 378.457715 466.662819 
L 379.755792 40.977897 
L 381.053868 236.039943 
L 382.351945 309.399237 
L 383.650022 472.359935 
L 384.948099 131.809403 
L 386.246175 477.228781 
L 387.544252 485.221591 
L 388.842329 60.121905 
L 390.140405 483.603749 
L 391.438482 277.966361 
L 392.736559 263.558688 
L 394.034636 117.70812 
L 395.332712 498.607948 
L 396.630789 212.558384 
L 397.928866 270.514436 
L 399.226942 209.977802 
L 400.525019 405.112717 
L 401.823096 259.500725 
L 403.121173 196.022954 
L 404.419249 53.322414 
L 405.717326 422.46074 
L 407.015403 124.748664 
L 408.313479 229.38775 
L 409.611556 164.589617 
L 410.909633 492.944117 
L 412.20771 443.898357 
L 413.505786 289.652612 
L 414.803863 303.03509 
L 416.10194 281.919713 
L 417.400016 85.370444 
L 418.698093 144.809695 
L 419.99617 235.282201 
L 421.294247 122.321226 
L 422.592323 338.750474 
L 423.8904 492.836624 
L 425.188477 96.436043 
L 426.486553 208.345328 
L 427.78463 38.821273 
L 429.082707 191.052855 
L 430.380784 46.312498 
L 431.67886 41.699114 
L 432.976937 237.66346 
L 434.275014 158.266467 
L 435.57309 335.288183 
L 436.871167 315.705366 
L 438.169244 306.752214 
L 439.467321 481.225641 
L 440.765397 352.727404 
L 442.063474 51.468134 
L 443.361551 356.982939 
L 444.659627 406.272607 
L 445.957704 59.965365 
L 447.255781 153.753067 
L 448.553858 140.306052 
L 449.851934 141.306661 
L 451.150011 127.479118 
L 452.448088 426.388288 
L 453.746164 177.353228 
L 455.044241 362.996069 
L 456.342318 67.088165 
L 457.640395 294.213288 
L 458.938471 273.357719 
L 460.236548 101.988767 
L 461.534625 424.434196 
L 462.832701 382.53633 
L 464.130778 136.162127 
L 465.428855 196.573397 
L 466.726932 275.941519 
L 468.025008 384.84411 
L 469.323085 68.208532 
L 470.621162 212.761224 
L 471.919238 443.720785 
L 473.217315 215.550633 
L 474.515392 444.76968 
L 475.813468 191.982301 
L 477.111545 136.664317 
L 478.409622 169.910789 
L 479.707699 301.503721 
L 481.005775 39.704581 
L 482.303852 495.937515 
L 483.601929 120.605531 
L 484.900005 229.489566 
L 486.198082 473.573748 
L 487.496159 409.970694 
L 488.794236 318.224193 
L 490.092312 114.026983 
L 491.390389 381.668235 
L 492.688466 393.861076 
L 493.986542 395.545565 
L 495.284619 94.884917 
L 496.582696 346.245743 
L 497.880773 255.860429 
L 499.178849 79.02431 
L 500.476926 300.908004 
L 501.775003 267.216822 
L 503.073079 501.649105 
L 504.371156 171.968187 
L 505.669233 453.95842 
L 506.96731 463.468972 
L 508.265386 233.223457 
L 509.563463 402.468833 
L 510.86154 392.883961 
L 512.159616 80.458195 
L 513.457693 81.081791 
L 514.75577 457.666037 
L 516.053847 359.090041 
L 517.351923 334.643027 
L 518.65 483.281455 
L 519.948077 289.164972 
L 521.246153 206.384298 
L 522.54423 427.677907 
L 523.842307 369.204474 
L 525.140384 406.004635 
L 526.43846 156.581721 
L 527.736537 187.81006 
L 529.034614 192.637759 
L 530.33269 53.951795 
L 531.630767 152.776055 
L 532.928844 101.524362 
L 534.226921 108.481423 
L 535.524997 91.990733 
L 536.823074 363.646481 
L 538.121151 351.928026 
L 539.419227 95.618046 
L 540.717304 90.351372 
L 542.015381 227.221878 
L 543.313458 478.632416 
L 544.611534 332.874033 
L 545.909611 470.417572 
L 547.207688 377.638194 
L 548.505764 306.485352 
L 549.803841 176.720139 
L 551.101918 307.203737 
L 552.399995 339.775298 
L 553.698071 117.901749 
L 554.996148 240.340897 
L 556.294225 351.113145 
L 557.592301 447.201464 
L 558.890378 195.983848 
L 560.188455 239.373215 
L 561.486532 426.317716 
L 562.784608 447.636406 
L 564.082685 41.805277 
L 565.380762 475.444207 
L 566.678838 86.946333 
L 567.976915 462.912665 
L 569.274992 463.709503 
L 570.573068 133.746458 
L 571.871145 205.462044 
L 573.169222 356.67596 
L 574.467299 324.31686 
L 575.765375 110.517298 
L 577.063452 86.294199 
L 578.361529 406.695307 
L 579.659605 458.418408 
L 580.957682 133.302688 
L 582.255759 184.214535 
L 583.553836 220.761841 
L 584.851912 280.923997 
L 586.149989 365.813564 
L 587.448066 66.323313 
L 588.746142 255.706292 
L 590.044219 471.677732 
L 591.342296 268.648683 
L 592.640373 85.147784 
L 593.938449 455.778452 
L 595.236526 128.6106 
L 596.534603 41.233944 
L 597.832679 237.287537 
L 599.130756 324.877972 
L 600.428833 83.671311 
L 601.72691 96.95557 
L 603.024986 222.921974 
L 604.323063 185.169834 
L 605.62114 44.722247 
L 608.217293 439.290961 
L 609.51537 280.916898 
L 610.813447 313.82693 
L 612.111523 142.981659 
L 613.4096 48.637624 
L 614.707677 460.99839 
L 616.005753 329.212236 
L 617.30383 127.753853 
L 618.601907 475.338495 
L 619.899984 42.46659 
L 622.496137 389.092855 
L 623.794214 152.087367 
L 625.09229 137.459318 
L 626.390367 241.420744 
L 627.688444 208.116117 
L 628.986521 188.309855 
L 630.284597 304.335189 
L 631.582674 227.635624 
L 632.880751 201.703649 
L 634.178827 390.318607 
L 635.476904 232.747498 
L 636.774981 121.347628 
L 638.073058 222.028036 
L 639.371134 77.891867 
L 640.669211 498.290165 
L 641.967288 156.649924 
L 643.265364 292.275518 
L 644.563441 54.392653 
L 645.861518 445.079422 
L 647.159595 177.136015 
L 648.457671 408.773226 
L 649.755748 318.60701 
L 651.053825 237.008973 
L 652.351901 373.353274 
L 653.649978 173.556365 
L 654.948055 373.580676 
L 656.246132 44.78857 
L 657.544208 188.582999 
L 658.842285 45.209044 
L 660.140362 378.119296 
L 661.438438 213.366375 
L 662.736515 186.235954 
L 664.034592 272.881997 
L 665.332668 200.977764 
L 666.630745 157.715813 
L 667.928822 502.285927 
L 669.226899 503.218028 
L 670.524975 145.033372 
L 671.823052 150.838332 
L 673.121129 308.171415 
L 674.419205 71.183439 
L 675.717282 260.365656 
L 677.015359 108.669923 
L 678.313436 268.781774 
L 679.611512 478.582512 
L 680.909589 361.848401 
L 682.207666 504.206727 
L 683.505742 490.165819 
L 684.803819 374.481762 
L 686.101896 321.877231 
L 687.399973 119.702973 
L 688.698049 215.529425 
L 689.996126 51.409799 
L 691.294203 197.110497 
L 692.592279 444.50452 
L 693.890356 445.482727 
L 695.188433 355.590553 
L 696.48651 189.223137 
L 697.784586 497.298327 
L 699.082663 356.956701 
L 700.38074 128.872002 
L 701.678816 401.274842 
L 702.976893 425.697075 
L 704.27497 346.711836 
L 705.573047 422.090012 
L 706.871123 191.232119 
L 708.1692 175.188402 
L 709.467277 457.892202 
L 710.765353 137.108698 
L 712.06343 345.97661 
L 713.361507 298.801732 
L 714.659584 324.835082 
L 715.95766 150.701015 
L 717.255737 187.549338 
L 718.553814 73.148525 
L 719.85189 338.721912 
L 721.149967 269.58973 
L 722.448044 172.970831 
L 723.746121 278.937179 
L 725.044197 291.09559 
L 726.342274 118.740966 
L 727.640351 158.877004 
L 728.938427 486.380811 
L 730.236504 460.660119 
L 731.534581 430.800059 
L 732.832658 49.645345 
L 734.130734 346.927878 
L 735.428811 297.91732 
L 736.726888 80.404569 
L 738.024964 485.132594 
L 739.323041 86.222473 
L 740.621118 411.801937 
L 741.919195 440.808019 
L 743.217271 152.927785 
L 744.515348 345.222065 
L 745.813425 444.163872 
L 747.111501 93.202048 
L 748.409578 315.684469 
L 749.707655 498.172027 
L 751.005732 399.282719 
L 752.303808 321.934354 
L 753.601885 186.211199 
L 754.899962 454.097733 
L 756.198038 370.616752 
L 757.496115 333.236054 
L 758.794192 479.723167 
L 760.092268 82.827026 
L 761.390345 477.650127 
L 762.688422 275.966165 
L 763.986499 484.429345 
L 765.284575 238.139629 
L 766.582652 440.374829 
L 767.880729 212.468349 
L 769.178805 359.070374 
L 770.476882 71.506863 
L 771.774959 361.766032 
L 773.073036 164.032068 
L 774.371112 432.27691 
L 775.669189 130.366452 
L 776.967266 448.087066 
L 778.265342 63.241278 
L 779.563419 267.594633 
L 780.861496 47.893522 
L 782.159573 106.986191 
L 783.457649 243.913073 
L 784.755726 423.71482 
L 786.053803 288.541789 
L 787.351879 278.326702 
L 788.649956 441.023116 
L 789.948033 83.008463 
L 791.24611 453.608699 
L 792.544186 406.563595 
L 793.842263 175.73121 
L 795.14034 289.383409 
L 796.438416 166.096159 
L 797.736493 436.29117 
L 799.03457 460.139113 
L 800.332647 42.027562 
L 801.630723 203.13179 
L 802.9288 126.092935 
L 804.226877 262.661317 
L 805.524953 273.95952 
L 806.82303 367.410037 
L 808.121107 233.340667 
L 809.419184 308.190168 
L 810.71726 103.955529 
L 812.015337 109.427393 
L 813.313414 212.855631 
L 814.61149 101.440075 
L 815.909567 490.475703 
L 817.207644 335.0141 
L 818.505721 161.447392 
L 821.101874 454.671529 
L 822.399951 481.896978 
L 823.698027 296.499139 
L 824.996104 379.455561 
L 826.294181 144.982482 
L 827.592258 485.021605 
L 828.890334 393.942451 
L 830.188411 205.479106 
L 831.486488 135.852077 
L 832.784564 236.471709 
L 834.082641 197.621709 
L 835.380718 359.823122 
L 836.678795 109.563206 
L 837.976871 39.430072 
L 839.274948 456.390759 
L 840.573025 312.451704 
L 841.871101 359.518793 
L 843.169178 223.902111 
L 844.467255 191.182088 
L 845.765332 298.547234 
L 847.063408 152.780934 
L 848.361485 399.037164 
L 849.659562 482.60315 
L 850.957638 443.97119 
L 852.255715 297.091451 
L 853.553792 378.49768 
L 854.851868 68.079353 
L 856.149945 50.050299 
L 857.448022 479.457905 
L 858.746099 117.991658 
L 860.044175 99.351678 
L 861.342252 417.303549 
L 862.640329 143.191853 
L 863.938405 449.413414 
L 865.236482 69.817657 
L 866.534559 374.821142 
L 867.832636 402.744637 
L 869.130712 445.4018 
L 870.428789 326.902622 
L 871.726866 277.966359 
L 873.024942 67.328355 
L 874.323019 152.006721 
L 875.621096 369.641709 
L 876.919173 109.592847 
L 878.217249 499.56498 
L 879.515326 203.214434 
L 880.813403 465.149542 
L 882.111479 481.010376 
L 883.409556 67.604945 
L 884.707633 60.587224 
L 886.00571 98.327417 
L 887.303786 290.853091 
L 888.601863 267.149864 
L 889.89994 301.534327 
L 891.198016 252.433897 
L 892.496093 379.511511 
L 893.79417 123.593613 
L 895.092247 130.924023 
L 896.390323 252.036784 
L 897.6884 91.384451 
L 898.986477 352.137816 
L 900.284553 47.335277 
L 901.58263 212.62284 
L 902.880707 208.615028 
L 904.178784 316.354681 
L 905.47686 259.525014 
L 906.774937 244.97457 
L 908.073014 114.960795 
L 909.37109 291.220941 
L 910.669167 252.723803 
L 911.967244 345.12045 
L 913.265321 44.34466 
L 914.563397 393.733788 
L 915.861474 170.607295 
L 917.159551 353.355991 
L 918.457627 452.52762 
L 919.755704 78.992006 
L 921.053781 441.69209 
L 922.351858 348.525271 
L 923.649934 383.651002 
L 924.948011 476.522512 
L 926.246088 426.453287 
L 927.544164 75.80508 
L 928.842241 137.852249 
L 930.140318 157.524124 
L 931.438395 304.858186 
L 932.736471 381.374108 
L 934.034548 377.551051 
L 935.332625 172.467819 
L 936.630701 112.631058 
L 937.928778 404.98626 
L 939.226855 142.282417 
L 940.524932 65.097677 
L 941.823008 41.510204 
L 943.121085 158.773423 
L 944.419162 141.60358 
L 945.717238 399.424787 
L 947.015315 47.792663 
L 948.313392 94.765045 
L 949.611468 259.576798 
L 950.909545 244.553164 
L 952.207622 235.153135 
L 953.505699 40.307338 
L 954.803775 52.975265 
L 956.101852 346.978761 
L 957.399929 348.648441 
L 958.698005 440.209149 
L 959.996082 283.016522 
L 961.294159 241.825867 
L 962.592236 281.171682 
L 963.890312 51.676403 
L 965.188389 39.888759 
L 966.486466 444.46599 
L 967.784542 260.03193 
L 969.082619 300.753569 
L 970.380696 141.940812 
L 971.678773 479.722655 
L 972.976849 214.370849 
L 974.274926 407.501651 
L 975.573003 373.474868 
L 976.871079 176.67695 
L 978.169156 405.009743 
L 979.467233 502.791832 
L 980.76531 211.757809 
L 982.063386 475.443463 
L 983.361463 326.950413 
L 984.65954 52.308169 
L 985.957616 77.165862 
L 987.255693 293.261672 
L 988.55377 62.649341 
L 989.851847 484.320059 
L 991.149923 80.162216 
L 992.448 361.697782 
L 992.448 361.697782 
" clip-path="url(#pa9f97ff978)" style="fill: none; stroke: #4c72b0; stroke-width: 1.5; stroke-linecap: round"/>
   </g>
   <g id="line2d_17">
    <path d="M 56.53469 261.021366 
L 57.832767 252.049593 
L 59.130844 238.499077 
L 60.428921 257.163527 
L 61.726997 264.958857 
L 64.323151 259.565557 
L 65.621227 248.161436 
L 66.919304 240.77018 
L 68.217381 271.910292 
L 70.813534 304.257762 
L 72.111611 296.960704 
L 73.409688 279.857832 
L 74.707764 276.924738 
L 76.005841 272.14777 
L 77.303918 260.251362 
L 78.601995 268.385664 
L 79.900071 265.330414 
L 81.198148 240.893985 
L 82.496225 263.732306 
L 83.794301 252.107087 
L 85.092378 243.55653 
L 86.390455 236.738227 
L 87.688532 236.970308 
L 88.986608 229.482742 
L 90.284685 236.606278 
L 91.582762 251.170739 
L 92.880838 255.12783 
L 94.178915 277.298806 
L 95.476992 281.362469 
L 96.775068 288.78137 
L 98.073145 327.491598 
L 99.371222 320.680994 
L 100.669299 324.100294 
L 101.967375 316.016007 
L 103.265452 297.155207 
L 104.563529 300.369176 
L 105.861605 323.32987 
L 107.159682 309.385404 
L 109.755836 274.574547 
L 111.053912 251.087102 
L 112.351989 290.326501 
L 113.650066 290.438157 
L 114.948142 309.408611 
L 116.246219 312.35182 
L 117.544296 316.125049 
L 118.842373 281.113012 
L 120.140449 301.926227 
L 121.438526 287.592469 
L 122.736603 310.084385 
L 124.034679 291.907137 
L 125.332756 251.653636 
L 126.630833 237.99392 
L 127.92891 229.14997 
L 129.226986 216.267012 
L 130.525063 189.590584 
L 131.82314 227.817367 
L 133.121216 229.395835 
L 134.419293 230.539309 
L 135.71737 195.334793 
L 137.015447 240.028517 
L 138.313523 275.167239 
L 139.6116 306.306185 
L 140.909677 295.548398 
L 142.207753 335.647282 
L 143.50583 338.290788 
L 144.803907 329.207393 
L 146.101984 288.012356 
L 147.40006 283.153541 
L 148.698137 305.960109 
L 149.996214 278.397636 
L 151.29429 262.491956 
L 152.592367 265.339111 
L 153.890444 257.998561 
L 155.188521 242.891711 
L 156.486597 255.124797 
L 157.784674 255.826927 
L 159.082751 257.604337 
L 160.380827 293.770381 
L 161.678904 304.642267 
L 162.976981 331.084316 
L 164.275058 334.226905 
L 165.573134 330.164218 
L 166.871211 370.430509 
L 168.169288 377.096123 
L 169.467364 349.858349 
L 170.765441 339.567955 
L 172.063518 375.670798 
L 173.361595 352.725856 
L 174.659671 338.103315 
L 175.957748 329.677626 
L 177.255825 325.338517 
L 178.553901 318.042716 
L 179.851978 289.603238 
L 181.150055 275.845688 
L 182.448132 309.621003 
L 183.746208 301.127402 
L 185.044285 275.378136 
L 186.342362 254.702022 
L 187.640438 264.508081 
L 188.938515 262.651994 
L 190.236592 254.935174 
L 191.534668 259.060427 
L 192.832745 275.529308 
L 195.428899 240.010474 
L 196.726975 236.523926 
L 198.025052 235.532326 
L 199.323129 251.716267 
L 200.621205 245.380819 
L 201.919282 227.404995 
L 203.217359 223.519721 
L 205.813512 199.538814 
L 207.111589 228.686948 
L 208.409666 208.839327 
L 209.707742 223.379889 
L 211.005819 208.522346 
L 212.303896 213.028391 
L 213.601973 182.846076 
L 216.198126 224.763716 
L 218.794279 269.484825 
L 220.092356 252.799158 
L 221.390433 253.135956 
L 222.68851 248.312282 
L 223.986586 269.990315 
L 225.284663 255.612779 
L 226.58274 288.126002 
L 227.880816 293.396021 
L 229.178893 293.848351 
L 230.47697 293.059267 
L 231.775047 264.960601 
L 233.073123 290.861307 
L 234.3712 320.764012 
L 236.967353 351.565866 
L 238.26543 389.42938 
L 239.563507 377.912603 
L 240.861584 380.382978 
L 242.15966 374.905008 
L 243.457737 357.596217 
L 244.755814 365.418925 
L 246.05389 363.954428 
L 247.351967 352.799488 
L 249.948121 292.027223 
L 251.246197 280.740148 
L 252.544274 262.02683 
L 253.842351 236.435408 
L 255.140427 245.436633 
L 256.438504 243.685266 
L 257.736581 264.920343 
L 259.034658 243.47836 
L 260.332734 247.852101 
L 262.928888 257.926675 
L 264.226964 255.368692 
L 265.525041 297.375367 
L 266.823118 296.036535 
L 268.121195 280.419384 
L 270.717348 266.794679 
L 272.015425 289.653156 
L 273.313501 303.236145 
L 274.611578 331.744185 
L 275.909655 333.27821 
L 277.207732 310.340507 
L 278.505808 281.207491 
L 279.803885 285.04211 
L 281.101962 296.629133 
L 282.400038 313.694151 
L 283.698115 317.551549 
L 284.996192 279.442796 
L 286.294268 281.212881 
L 287.592345 277.28778 
L 288.890422 292.411846 
L 290.188499 299.77674 
L 291.486575 305.592531 
L 292.784652 318.970424 
L 294.082729 327.977995 
L 295.380805 338.626629 
L 296.678882 335.013478 
L 297.976959 351.286708 
L 299.275036 350.445087 
L 300.573112 341.231356 
L 301.871189 351.802175 
L 303.169266 366.03783 
L 304.467342 344.5576 
L 305.765419 329.048027 
L 307.063496 323.816068 
L 308.361573 297.094635 
L 309.659649 304.784217 
L 310.957726 304.675323 
L 312.255803 306.903561 
L 313.553879 310.301237 
L 314.851956 279.622862 
L 316.150033 272.439951 
L 317.44811 285.385205 
L 318.746186 311.143655 
L 320.044263 311.887563 
L 321.34234 337.733476 
L 322.640416 324.373866 
L 323.938493 336.158667 
L 325.23657 333.5107 
L 326.534647 334.643529 
L 327.832723 331.640279 
L 329.1308 310.823213 
L 330.428877 330.132075 
L 331.726953 321.83838 
L 333.02503 303.189296 
L 334.323107 287.474627 
L 335.621184 284.907753 
L 336.91926 300.892824 
L 338.217337 283.841432 
L 339.515414 279.511203 
L 340.81349 273.641171 
L 342.111567 275.587155 
L 343.409644 278.590126 
L 344.707721 253.388303 
L 346.005797 258.094696 
L 347.303874 249.352053 
L 348.601951 248.351595 
L 349.900027 222.942761 
L 351.198104 245.952408 
L 352.496181 234.366964 
L 353.794258 274.198983 
L 355.092334 317.580143 
L 356.390411 297.954098 
L 357.688488 296.24437 
L 358.986564 278.340925 
L 360.284641 271.96549 
L 361.582718 272.289299 
L 362.880795 276.870742 
L 364.178871 233.569703 
L 365.476948 263.325489 
L 366.775025 237.270589 
L 368.073101 219.502997 
L 369.371178 208.655575 
L 370.669255 220.291182 
L 371.967332 220.514274 
L 373.265408 250.75632 
L 374.563485 265.91893 
L 375.861562 275.488903 
L 377.159638 307.604448 
L 378.457715 306.141838 
L 379.755792 290.98532 
L 381.053868 281.974084 
L 383.650022 324.227435 
L 384.948099 330.588471 
L 386.246175 334.802403 
L 387.544252 337.418054 
L 388.842329 305.24626 
L 390.140405 316.342526 
L 391.438482 297.47288 
L 392.736559 319.730959 
L 394.034636 307.897777 
L 395.332712 326.818648 
L 396.630789 300.838493 
L 397.928866 314.708996 
L 399.226942 287.983898 
L 400.525019 279.973011 
L 401.823096 299.910893 
L 403.121173 271.152813 
L 404.419249 248.688419 
L 405.717326 264.578624 
L 407.015403 265.282678 
L 408.313479 238.360659 
L 409.611556 233.563782 
L 412.20771 279.198805 
L 413.505786 267.652795 
L 414.803863 272.006231 
L 416.10194 280.595907 
L 417.400016 283.80071 
L 418.698093 256.035606 
L 419.99617 267.08896 
L 421.294247 256.382307 
L 422.592323 273.798393 
L 423.8904 273.787644 
L 425.188477 239.041412 
L 426.486553 230.910684 
L 427.78463 204.489302 
L 429.082707 195.402616 
L 430.380784 191.496822 
L 431.67886 181.185764 
L 432.976937 181.423889 
L 434.275014 185.018414 
L 435.57309 184.672185 
L 436.871167 166.959059 
L 438.169244 187.990676 
L 439.467321 215.278707 
L 440.765397 246.66932 
L 442.063474 232.710848 
L 443.361551 263.777892 
L 444.659627 300.235241 
L 445.957704 282.465432 
L 447.255781 282.014092 
L 448.553858 262.515879 
L 451.150011 227.148699 
L 452.448088 221.664963 
L 453.746164 204.127546 
L 455.044241 235.280339 
L 456.342318 206.290862 
L 457.640395 195.08493 
L 458.938471 216.424166 
L 460.236548 211.247736 
L 461.534625 239.66055 
L 462.832701 263.783517 
L 464.130778 264.651818 
L 465.428855 241.670329 
L 466.726932 251.529158 
L 468.025008 253.713962 
L 469.323085 253.825999 
L 470.621162 245.680792 
L 471.919238 262.717099 
L 473.217315 274.073285 
L 474.515392 276.106834 
L 475.813468 257.051431 
L 477.111545 257.10165 
L 478.409622 254.435389 
L 479.707699 256.991609 
L 481.005775 222.477656 
L 482.303852 265.250555 
L 483.601929 256.034985 
L 484.900005 234.611863 
L 486.198082 260.414175 
L 487.496159 256.934276 
L 488.794236 269.558466 
L 490.092312 267.294732 
L 491.390389 288.470477 
L 492.688466 297.706212 
L 493.986542 333.290311 
L 495.284619 293.185051 
L 496.582696 315.749072 
L 497.880773 318.386158 
L 499.178849 278.931214 
L 500.476926 268.024945 
L 501.775003 262.924208 
L 503.073079 301.686421 
L 504.371156 280.716416 
L 505.669233 286.72615 
L 506.96731 293.518491 
L 508.265386 307.352345 
L 509.563463 312.974654 
L 510.86154 326.677007 
L 512.159616 326.820396 
L 513.457693 304.837774 
L 514.75577 323.882696 
L 516.053847 309.626789 
L 517.351923 325.894273 
L 518.65 328.826577 
L 519.948077 311.396177 
L 521.246153 308.712261 
L 522.54423 311.233168 
L 523.842307 308.86522 
L 525.140384 341.419864 
L 526.43846 348.969857 
L 527.736537 321.984259 
L 529.034614 305.339031 
L 530.33269 277.269908 
L 531.630767 244.219368 
L 532.928844 225.455307 
L 534.226921 215.665019 
L 535.524997 182.096302 
L 536.823074 181.540503 
L 538.121151 176.132842 
L 539.419227 170.036474 
L 540.717304 160.290605 
L 542.015381 163.749017 
L 543.313458 206.217079 
L 544.611534 224.226877 
L 545.909611 261.116198 
L 547.207688 288.031875 
L 548.505764 309.481337 
L 549.803841 290.788703 
L 551.101918 286.316274 
L 552.399995 310.731999 
L 553.698071 313.487037 
L 554.996148 314.798939 
L 556.294225 302.047012 
L 557.592301 313.479755 
L 558.890378 286.036382 
L 560.188455 272.209884 
L 561.486532 284.193121 
L 562.784608 311.284747 
L 564.082685 284.744901 
L 565.380762 298.311792 
L 566.678838 295.216251 
L 567.976915 317.473428 
L 569.274992 328.733063 
L 570.573068 297.387563 
L 571.871145 298.335382 
L 573.169222 310.065657 
L 574.467299 299.865571 
L 575.765375 266.15366 
L 577.063452 270.602553 
L 578.361529 263.727663 
L 579.659605 300.87487 
L 580.957682 267.913872 
L 582.255759 239.964376 
L 583.553836 248.665914 
L 584.851912 256.212109 
L 586.149989 257.12587 
L 587.448066 231.326515 
L 588.746142 245.845415 
L 590.044219 284.383768 
L 591.342296 270.579105 
L 592.640373 233.252043 
L 593.938449 265.499619 
L 595.236526 259.939226 
L 596.534603 241.986436 
L 599.130756 233.529231 
L 600.428833 235.264031 
L 601.72691 219.388959 
L 603.024986 194.513383 
L 604.323063 186.165498 
L 605.62114 182.122944 
L 606.919216 160.706203 
L 608.217293 191.774239 
L 609.51537 215.742534 
L 610.813447 223.396474 
L 612.111523 205.206842 
L 613.4096 201.703474 
L 614.707677 238.107756 
L 616.005753 248.736782 
L 617.30383 242.995184 
L 618.601907 286.056809 
L 619.899984 266.142364 
L 621.19806 243.411783 
L 622.496137 254.229379 
L 623.794214 238.055423 
L 625.09229 237.503188 
L 626.390367 256.7815 
L 627.688444 231.493273 
L 628.986521 217.403035 
L 630.284597 235.061169 
L 631.582674 210.290881 
L 632.880751 226.214587 
L 634.178827 244.047933 
L 635.476904 228.413397 
L 636.774981 225.339423 
L 638.073058 233.796295 
L 639.371134 217.443407 
L 640.669211 246.460812 
L 641.967288 243.294818 
L 643.265364 242.088851 
L 644.563441 224.764554 
L 645.861518 249.102132 
L 647.159595 227.783872 
L 648.457671 245.386445 
L 649.755748 265.112383 
L 651.053825 266.610477 
L 652.351901 296.156618 
L 653.649978 263.683238 
L 654.948055 285.376313 
L 656.246132 260.627618 
L 657.544208 274.046653 
L 658.842285 234.059615 
L 660.140362 254.157943 
L 661.438438 234.617258 
L 662.736515 221.380153 
L 664.034592 224.967455 
L 665.332668 207.729904 
L 666.630745 206.145849 
L 667.928822 219.016374 
L 669.226899 264.85932 
L 670.524975 260.504357 
L 671.823052 271.067286 
L 673.121129 264.072498 
L 674.419205 249.854204 
L 675.717282 257.267174 
L 677.015359 240.845967 
L 678.313436 247.626368 
L 679.611512 279.713038 
L 680.909589 265.669285 
L 682.207666 265.768155 
L 683.505742 300.2814 
L 684.803819 322.645743 
L 686.101896 324.016324 
L 687.399973 328.868278 
L 688.698049 324.384655 
L 689.996126 318.658642 
L 691.294203 311.491515 
L 692.592279 308.083715 
L 693.890356 316.447148 
L 695.188433 301.585531 
L 696.48651 271.491262 
L 697.784586 283.772919 
L 699.082663 287.280866 
L 700.38074 288.197769 
L 701.678816 306.772311 
L 702.976893 344.201038 
L 704.27497 359.161172 
L 705.573047 356.919721 
L 706.871123 331.49466 
L 708.1692 313.454445 
L 709.467277 340.321352 
L 710.765353 304.302389 
L 712.06343 303.20438 
L 713.361507 320.197353 
L 714.659584 312.553377 
L 715.95766 285.053771 
L 717.255737 269.137521 
L 718.553814 234.243372 
L 719.85189 248.992352 
L 721.149967 258.432485 
L 722.448044 229.940347 
L 723.746121 244.123196 
L 725.044197 238.635094 
L 727.640351 204.033209 
L 728.938427 237.601189 
L 730.236504 264.912267 
L 731.534581 300.67742 
L 732.832658 271.769763 
L 734.130734 279.503578 
L 735.428811 291.998227 
L 736.726888 272.144966 
L 738.024964 291.548666 
L 739.323041 288.296817 
L 740.621118 313.58931 
L 741.919195 309.032031 
L 743.217271 278.258798 
L 744.515348 269.700998 
L 745.813425 309.152851 
L 747.111501 283.780268 
L 748.409578 285.556983 
L 749.707655 327.333729 
L 751.005732 318.748741 
L 752.303808 342.319929 
L 753.601885 319.760856 
L 754.899962 321.089827 
L 756.198038 342.858724 
L 757.496115 341.660123 
L 758.794192 345.216052 
L 760.092268 344.17855 
L 761.390345 360.375116 
L 762.688422 338.154529 
L 763.986499 346.669192 
L 765.284575 338.289719 
L 766.582652 363.706082 
L 767.880729 339.543144 
L 769.178805 338.388506 
L 770.476882 312.215587 
L 771.774959 300.419874 
L 773.073036 308.540378 
L 774.371112 304.003056 
L 775.669189 289.443085 
L 776.967266 285.808857 
L 780.861496 234.58352 
L 782.159573 209.375102 
L 783.457649 226.615723 
L 784.755726 232.810601 
L 786.053803 245.261574 
L 787.351879 229.866553 
L 788.649956 260.932219 
L 789.948033 224.424359 
L 791.24611 263.461101 
L 793.842263 290.141766 
L 795.14034 308.381488 
L 796.438416 300.599796 
L 797.736493 301.857431 
L 799.03457 319.017164 
L 801.630723 271.598117 
L 802.9288 275.906564 
L 804.226877 256.811826 
L 805.524953 243.551418 
L 806.82303 262.719301 
L 808.121107 257.115027 
L 809.419184 271.324428 
L 812.015337 203.019692 
L 813.313414 220.102499 
L 814.61149 209.933327 
L 815.909567 246.371604 
L 817.207644 253.606882 
L 818.505721 242.35567 
L 819.803797 236.783937 
L 821.101874 258.917023 
L 822.399951 276.287704 
L 823.698027 295.542065 
L 824.996104 322.544882 
L 826.294181 315.757567 
L 827.592258 354.11572 
L 828.890334 344.462395 
L 830.188411 331.508896 
L 831.486488 328.949364 
L 832.784564 321.427264 
L 834.082641 295.722282 
L 835.380718 283.514896 
L 836.678795 264.821303 
L 837.976871 230.818754 
L 839.274948 261.959582 
L 840.573025 244.702592 
L 841.871101 241.260226 
L 843.169178 243.102526 
L 844.467255 248.635527 
L 845.765332 254.84308 
L 847.063408 250.359002 
L 848.361485 254.280407 
L 850.957638 332.038513 
L 852.255715 316.108582 
L 853.553792 322.71318 
L 854.851868 293.569236 
L 856.149945 276.184054 
L 857.448022 305.011636 
L 858.746099 286.956078 
L 860.044175 281.613153 
L 861.342252 283.439791 
L 862.640329 249.498662 
L 863.938405 250.042884 
L 865.236482 227.315505 
L 866.534559 226.947851 
L 867.832636 260.414379 
L 869.130712 299.949529 
L 870.428789 284.694001 
L 871.726866 300.691471 
L 873.024942 297.489139 
L 874.323019 270.959456 
L 875.621096 293.604442 
L 876.919173 259.622385 
L 878.217249 302.597117 
L 879.515326 285.436446 
L 880.813403 291.676937 
L 882.111479 295.237794 
L 883.409556 269.308027 
L 884.707633 247.570113 
L 886.00571 250.670019 
L 887.303786 264.554656 
L 888.601863 254.305472 
L 889.89994 273.49962 
L 891.198016 248.786512 
L 892.496093 266.416219 
L 895.092247 197.251991 
L 896.390323 215.695175 
L 897.6884 218.774898 
L 898.986477 244.155938 
L 900.284553 219.804156 
L 901.58263 214.351454 
L 902.880707 205.059524 
L 904.178784 211.451602 
L 905.47686 199.452953 
L 906.774937 211.591048 
L 908.073014 209.994726 
L 909.37109 213.913141 
L 910.669167 230.047076 
L 911.967244 229.34534 
L 913.265321 229.046278 
L 914.563397 247.157373 
L 915.861474 243.3566 
L 917.159551 247.056731 
L 918.457627 266.356991 
L 919.755704 249.758735 
L 921.053781 282.431864 
L 922.351858 288.162297 
L 924.948011 314.395224 
L 926.246088 352.606086 
L 927.544164 320.813215 
L 928.842241 317.537711 
L 930.140318 297.954524 
L 931.438395 283.187581 
L 932.736471 313.425791 
L 934.034548 307.011687 
L 935.332625 289.405942 
L 936.630701 262.303947 
L 937.928778 255.150322 
L 939.226855 226.733235 
L 940.524932 225.662495 
L 941.823008 216.02829 
L 943.121085 216.15322 
L 944.419162 199.82776 
L 945.717238 201.632828 
L 947.015315 168.656989 
L 948.313392 160.886711 
L 949.611468 175.581285 
L 950.909545 159.537976 
L 952.207622 168.825048 
L 953.505699 166.346014 
L 954.803775 167.49252 
L 956.101852 186.313054 
L 957.399929 207.01754 
L 958.698005 211.095976 
L 959.996082 234.618362 
L 961.294159 249.324444 
L 962.592236 251.483932 
L 965.188389 212.669819 
L 966.486466 253.085684 
L 967.784542 273.79135 
L 969.082619 269.168831 
L 970.380696 248.498068 
L 971.678773 252.449419 
L 972.976849 245.584852 
L 974.274926 262.15243 
L 975.573003 271.382749 
L 976.871079 283.882803 
L 978.169156 320.394902 
L 979.467233 326.227486 
L 980.76531 321.400074 
L 983.361463 357.370023 
L 984.65954 314.628575 
L 985.957616 300.908076 
L 987.255693 289.484078 
L 988.55377 258.401525 
L 989.851847 289.165836 
L 991.149923 256.681084 
L 992.448 242.571679 
L 992.448 242.571679 
" clip-path="url(#pa9f97ff978)" style="fill: none; stroke: #dd8452; stroke-width: 1.5; stroke-linecap: round"/>
   </g>
   <g id="line2d_18">
    <path d="M 56.53469 372.35547 
L 59.130844 388.699923 
L 60.428921 382.834325 
L 61.726997 389.709505 
L 63.025074 391.963794 
L 64.323151 395.694485 
L 65.621227 394.650818 
L 66.919304 393.238195 
L 68.217381 384.450305 
L 69.515458 410.934934 
L 70.813534 392.81216 
L 72.111611 386.192759 
L 73.409688 386.350295 
L 74.707764 383.976998 
L 76.005841 385.804092 
L 77.303918 392.074905 
L 78.601995 394.979434 
L 79.900071 392.126729 
L 81.198148 409.369489 
L 82.496225 394.160892 
L 83.794301 415.375209 
L 85.092378 403.382309 
L 86.390455 398.27101 
L 87.688532 398.414274 
L 88.986608 400.093855 
L 90.284685 395.347128 
L 91.582762 381.733524 
L 92.880838 384.455119 
L 94.178915 376.193807 
L 95.476992 370.390318 
L 96.775068 363.434414 
L 98.073145 372.969917 
L 99.371222 360.792444 
L 100.669299 364.164529 
L 103.265452 346.103624 
L 104.563529 343.164403 
L 105.861605 343.107672 
L 107.159682 346.279146 
L 108.457759 356.515112 
L 109.755836 365.698099 
L 111.053912 383.938457 
L 112.351989 386.454018 
L 113.650066 386.534484 
L 114.948142 399.460844 
L 116.246219 404.265928 
L 117.544296 398.151185 
L 120.140449 366.088751 
L 121.438526 358.205125 
L 122.736603 345.531164 
L 124.034679 326.943172 
L 125.332756 323.693594 
L 126.630833 315.582848 
L 127.92891 318.100158 
L 129.226986 309.624968 
L 130.525063 333.584661 
L 131.82314 319.475213 
L 133.121216 316.970592 
L 134.419293 317.456952 
L 135.71737 339.62206 
L 137.015447 322.373655 
L 138.313523 327.675362 
L 139.6116 339.293703 
L 140.909677 331.05467 
L 142.207753 350.016965 
L 143.50583 352.035064 
L 144.803907 357.403414 
L 146.101984 353.973606 
L 147.40006 348.841313 
L 148.698137 356.071449 
L 149.996214 371.599927 
L 151.29429 379.633477 
L 152.592367 376.173753 
L 153.890444 365.930279 
L 155.188521 381.254395 
L 156.486597 375.204441 
L 157.784674 374.507512 
L 159.082751 376.894144 
L 160.380827 370.678808 
L 161.678904 360.281081 
L 162.976981 352.315267 
L 164.275058 353.857876 
L 165.573134 355.80316 
L 166.871211 386.672156 
L 168.169288 389.549482 
L 169.467364 358.803973 
L 170.765441 357.186083 
L 172.063518 376.912528 
L 173.361595 376.496891 
L 174.659671 383.673559 
L 175.957748 392.838925 
L 177.255825 389.955983 
L 178.553901 391.263893 
L 179.851978 395.000366 
L 181.150055 396.414969 
L 182.448132 407.160705 
L 183.746208 400.147345 
L 185.044285 415.831272 
L 186.342362 388.782667 
L 187.640438 378.300805 
L 188.938515 380.487579 
L 190.236592 376.454871 
L 191.534668 374.078637 
L 192.832745 375.494503 
L 194.130822 357.860377 
L 195.428899 371.059553 
L 196.726975 369.103164 
L 198.025052 368.874604 
L 199.323129 386.074666 
L 200.621205 395.00592 
L 201.919282 406.7587 
L 203.217359 403.128112 
L 204.515436 412.415548 
L 205.813512 423.697277 
L 207.111589 430.057753 
L 208.409666 411.701615 
L 209.707742 410.117625 
L 211.005819 395.979801 
L 212.303896 395.329662 
L 213.601973 399.497665 
L 214.900049 377.362702 
L 216.198126 374.193567 
L 217.496203 357.950268 
L 218.794279 344.481066 
L 220.092356 344.471694 
L 221.390433 344.942653 
L 222.68851 345.721063 
L 223.986586 361.040834 
L 225.284663 351.679248 
L 226.58274 363.658685 
L 227.880816 357.793379 
L 229.178893 357.628285 
L 230.47697 358.46506 
L 231.775047 366.034157 
L 233.073123 360.112824 
L 234.3712 386.175389 
L 235.669277 386.755048 
L 236.967353 385.672264 
L 238.26543 417.076662 
L 239.563507 409.320288 
L 240.861584 406.637374 
L 242.15966 402.952574 
L 243.457737 398.723703 
L 244.755814 411.709331 
L 246.05389 412.842168 
L 247.351967 404.816702 
L 248.650044 377.173006 
L 249.948121 370.308418 
L 251.246197 383.986024 
L 252.544274 368.713963 
L 253.842351 393.79597 
L 255.140427 385.682561 
L 256.438504 385.73896 
L 257.736581 366.828665 
L 259.034658 377.693592 
L 260.332734 377.06726 
L 261.630811 383.24516 
L 262.928888 387.820156 
L 264.226964 390.270659 
L 265.525041 383.594717 
L 266.823118 382.705852 
L 268.121195 384.594777 
L 269.419271 380.299486 
L 270.717348 390.550428 
L 272.015425 381.252042 
L 273.313501 374.668444 
L 274.611578 382.442244 
L 275.909655 384.499846 
L 277.207732 366.31056 
L 278.505808 381.579132 
L 279.803885 383.204464 
L 281.101962 384.215793 
L 282.400038 391.863855 
L 283.698115 388.22122 
L 284.996192 370.420501 
L 286.294268 368.271454 
L 287.592345 372.48251 
L 288.890422 374.511328 
L 290.188499 383.917958 
L 291.486575 387.249678 
L 292.784652 385.983734 
L 294.082729 380.980897 
L 295.380805 375.09575 
L 296.678882 377.5213 
L 297.976959 411.281945 
L 299.275036 412.107328 
L 300.573112 411.866924 
L 301.871189 405.659795 
L 303.169266 423.003892 
L 304.467342 378.883934 
L 305.765419 375.504122 
L 307.063496 378.992101 
L 308.361573 380.338606 
L 309.659649 371.472134 
L 310.957726 371.392965 
L 312.255803 368.926124 
L 313.553879 368.760765 
L 314.851956 369.245246 
L 316.150033 370.342899 
L 317.44811 388.523153 
L 318.746186 373.597088 
L 320.044263 373.16292 
L 321.34234 376.032986 
L 322.640416 385.043619 
L 323.938493 391.156683 
L 325.23657 393.85623 
L 326.534647 393.820637 
L 327.832723 387.844749 
L 329.1308 358.626164 
L 330.428877 364.47639 
L 331.726953 372.871675 
L 333.02503 369.570625 
L 334.323107 378.508164 
L 335.621184 379.431759 
L 336.91926 363.285877 
L 338.217337 369.750433 
L 339.515414 371.163973 
L 340.81349 362.099571 
L 342.111567 365.377567 
L 343.409644 362.639228 
L 344.707721 365.983606 
L 346.005797 367.277747 
L 347.303874 366.323499 
L 348.601951 366.807727 
L 349.900027 396.989663 
L 351.198104 368.754474 
L 353.794258 369.010113 
L 355.092334 372.223831 
L 356.390411 372.553728 
L 357.688488 370.437415 
L 358.986564 352.202635 
L 360.284641 347.161631 
L 361.582718 347.084903 
L 362.880795 347.45085 
L 364.178871 351.397366 
L 365.476948 334.27071 
L 366.775025 347.036487 
L 368.073101 372.371369 
L 369.371178 367.321681 
L 370.669255 368.887767 
L 371.967332 369.167041 
L 373.265408 357.723885 
L 374.563485 344.07715 
L 375.861562 339.951147 
L 377.159638 358.123797 
L 378.457715 359.983074 
L 379.755792 340.23094 
L 381.053868 339.904342 
L 382.351945 352.29751 
L 383.650022 344.507226 
L 384.948099 354.847613 
L 386.246175 351.048571 
L 387.544252 348.503433 
L 388.842329 327.065185 
L 390.140405 319.117928 
L 391.438482 326.643209 
L 392.736559 349.810847 
L 395.332712 328.017184 
L 396.630789 332.747214 
L 397.928866 342.559005 
L 399.226942 350.470894 
L 400.525019 360.045173 
L 401.823096 381.504797 
L 403.121173 396.439257 
L 404.419249 376.59687 
L 405.717326 365.23266 
L 407.015403 366.038648 
L 408.313479 392.727675 
L 409.611556 390.502296 
L 410.909633 364.011552 
L 412.20771 353.458005 
L 413.505786 359.848939 
L 414.803863 359.468546 
L 416.10194 361.935686 
L 417.400016 367.331139 
L 418.698093 370.437516 
L 419.99617 378.091638 
L 421.294247 370.287992 
L 422.592323 372.228168 
L 423.8904 372.247862 
L 425.188477 376.306029 
L 426.486553 377.293351 
L 427.78463 366.96792 
L 429.082707 369.664821 
L 430.380784 365.636109 
L 431.67886 358.188635 
L 432.976937 358.08932 
L 434.275014 359.26012 
L 435.57309 359.662049 
L 436.871167 394.825668 
L 438.169244 389.82826 
L 439.467321 356.885652 
L 440.765397 365.413681 
L 442.063474 352.832058 
L 443.361551 363.788842 
L 444.659627 381.533721 
L 445.957704 360.543197 
L 447.255781 360.105983 
L 448.553858 355.044611 
L 449.851934 351.813785 
L 451.150011 349.364947 
L 452.448088 358.61406 
L 453.746164 365.722337 
L 455.044241 368.854637 
L 456.342318 366.80163 
L 457.640395 380.993054 
L 458.938471 388.700259 
L 460.236548 384.527718 
L 461.534625 370.448583 
L 462.832701 368.433558 
L 464.130778 369.371336 
L 465.428855 380.825532 
L 466.726932 382.596705 
L 468.025008 380.216367 
L 470.621162 380.673279 
L 471.919238 365.701905 
L 473.217315 376.004843 
L 474.515392 373.242767 
L 475.813468 376.606041 
L 477.111545 376.658445 
L 478.409622 374.996519 
L 479.707699 374.277956 
L 481.005775 366.462458 
L 482.303852 353.931642 
L 483.601929 347.69629 
L 484.900005 362.164298 
L 486.198082 343.870825 
L 487.496159 347.968219 
L 488.794236 348.696777 
L 490.092312 346.412612 
L 491.390389 346.723237 
L 492.688466 343.224741 
L 493.986542 369.214766 
L 495.284619 363.489936 
L 496.582696 376.680631 
L 497.880773 378.389233 
L 499.178849 370.876721 
L 500.476926 378.491797 
L 501.775003 379.717252 
L 503.073079 371.234457 
L 504.371156 368.754174 
L 506.96731 354.880269 
L 508.265386 369.55043 
L 509.563463 366.623802 
L 510.86154 366.12489 
L 512.159616 366.408324 
L 513.457693 345.936262 
L 514.75577 339.667698 
L 516.053847 350.928633 
L 517.351923 358.679562 
L 518.65 355.569559 
L 519.948077 363.035071 
L 522.54423 359.122583 
L 523.842307 360.407733 
L 525.140384 382.582205 
L 526.43846 399.207957 
L 527.736537 395.660627 
L 529.034614 389.449882 
L 530.33269 365.725319 
L 531.630767 381.737121 
L 532.928844 375.234636 
L 534.226921 370.050736 
L 535.524997 388.088257 
L 536.823074 389.066555 
L 538.121151 399.937999 
L 539.419227 396.954248 
L 540.717304 394.373613 
L 542.015381 392.723398 
L 543.313458 362.617619 
L 544.611534 358.792568 
L 545.909611 347.128094 
L 547.207688 353.210849 
L 548.505764 369.722405 
L 549.803841 365.20304 
L 551.101918 366.667447 
L 552.399995 383.533191 
L 553.698071 388.887795 
L 554.996148 389.900093 
L 556.294225 403.833993 
L 557.592301 393.992624 
L 558.890378 403.583695 
L 560.188455 408.131609 
L 561.486532 396.696486 
L 562.784608 392.758859 
L 564.082685 364.017771 
L 565.380762 352.117583 
L 566.678838 347.809243 
L 567.976915 340.844452 
L 569.274992 334.544296 
L 570.573068 329.993079 
L 571.871145 330.578232 
L 573.169222 331.040043 
L 574.467299 335.682399 
L 575.765375 334.815156 
L 577.063452 340.853268 
L 578.361529 349.150184 
L 579.659605 351.716917 
L 580.957682 355.02671 
L 582.255759 370.291912 
L 583.553836 375.190066 
L 584.851912 375.788146 
L 586.149989 374.969734 
L 587.448066 364.609685 
L 588.746142 371.130424 
L 590.044219 366.768143 
L 592.640373 380.033827 
L 593.938449 367.703391 
L 595.236526 363.003928 
L 596.534603 347.059056 
L 597.832679 347.652261 
L 599.130756 350.855679 
L 600.428833 352.860536 
L 601.72691 347.062852 
L 603.024986 373.882578 
L 604.323063 376.493351 
L 605.62114 372.395492 
L 606.919216 409.318581 
L 608.217293 376.221501 
L 609.51537 385.365045 
L 610.813447 381.452714 
L 612.111523 384.703455 
L 613.4096 380.343636 
L 614.707677 362.472794 
L 616.005753 359.795039 
L 617.30383 355.921718 
L 618.601907 357.370533 
L 619.899984 338.497685 
L 621.19806 349.609719 
L 622.496137 343.084966 
L 623.794214 341.629074 
L 625.09229 341.263318 
L 626.390367 355.206107 
L 627.688444 373.238891 
L 628.986521 377.377434 
L 630.284597 378.951966 
L 631.582674 411.165711 
L 632.880751 431.471694 
L 634.178827 415.449932 
L 635.476904 431.326495 
L 636.774981 427.264807 
L 638.073058 433.531064 
L 639.371134 418.388614 
L 640.669211 381.258736 
L 641.967288 379.219222 
L 643.265364 379.812555 
L 644.563441 366.339867 
L 645.861518 350.406848 
L 647.159595 357.503119 
L 648.457671 346.741989 
L 649.755748 351.701153 
L 651.053825 352.095993 
L 652.351901 364.56761 
L 653.649978 379.767129 
L 654.948055 381.590777 
L 656.246132 360.18768 
L 657.544208 376.062383 
L 658.842285 373.030765 
L 660.140362 367.480207 
L 661.438438 378.43561 
L 662.736515 381.303723 
L 664.034592 380.28505 
L 665.332668 391.670082 
L 666.630745 391.031078 
L 667.928822 365.613541 
L 669.226899 354.35908 
L 670.524975 351.312513 
L 671.823052 364.697052 
L 673.121129 368.944419 
L 674.419205 356.2317 
L 675.717282 357.915319 
L 677.015359 350.860188 
L 678.313436 351.317842 
L 679.611512 339.168504 
L 680.909589 354.900927 
L 682.207666 354.726973 
L 683.505742 346.154712 
L 684.803819 353.976475 
L 686.101896 354.060198 
L 687.399973 362.542796 
L 688.698049 359.477034 
L 689.996126 349.284267 
L 691.294203 345.142157 
L 692.592279 348.775452 
L 693.890356 343.43383 
L 696.48651 368.756977 
L 697.784586 353.744979 
L 699.082663 352.363602 
L 700.38074 353.457693 
L 701.678816 351.979206 
L 702.976893 377.758331 
L 704.27497 388.634474 
L 705.573047 390.25488 
L 706.871123 384.063745 
L 708.1692 374.953656 
L 709.467277 375.719709 
L 710.765353 374.149217 
L 712.06343 374.594458 
L 713.361507 389.616302 
L 714.659584 393.101625 
L 715.95766 390.24524 
L 717.255737 388.721138 
L 718.553814 387.372781 
L 719.85189 384.165171 
L 721.149967 386.912893 
L 722.448044 407.849153 
L 725.044197 417.906628 
L 726.342274 413.245293 
L 727.640351 419.376253 
L 728.938427 384.114451 
L 730.236504 367.048014 
L 731.534581 376.224084 
L 732.832658 355.029707 
L 734.130734 353.173364 
L 735.428811 357.841737 
L 738.024964 329.645517 
L 739.323041 325.827305 
L 740.621118 328.290081 
L 741.919195 332.706185 
L 743.217271 335.33391 
L 744.515348 341.845273 
L 745.813425 353.6919 
L 747.111501 340.079118 
L 748.409578 339.814582 
L 749.707655 344.704963 
L 751.005732 351.955275 
L 752.303808 375.369397 
L 753.601885 369.321551 
L 754.899962 367.947157 
L 756.198038 380.942217 
L 757.496115 380.909719 
L 758.794192 377.195432 
L 760.092268 374.902751 
L 761.390345 368.905638 
L 762.688422 375.939924 
L 763.986499 368.85099 
L 765.284575 364.649152 
L 766.582652 372.446251 
L 767.880729 368.784955 
L 769.178805 369.028701 
L 770.476882 344.897817 
L 771.774959 354.549265 
L 773.073036 365.821063 
L 774.371112 371.310995 
L 775.669189 360.440663 
L 776.967266 365.515634 
L 778.265342 348.910741 
L 779.563419 360.966469 
L 780.861496 347.32378 
L 782.159573 349.297459 
L 783.457649 356.894331 
L 784.755726 349.507426 
L 786.053803 350.645085 
L 787.351879 364.285622 
L 788.649956 354.732931 
L 789.948033 361.033933 
L 791.24611 356.738129 
L 792.544186 349.954977 
L 795.14034 382.261345 
L 796.438416 375.448329 
L 797.736493 374.067884 
L 799.03457 365.078531 
L 800.332647 339.794664 
L 801.630723 346.083571 
L 802.9288 351.261281 
L 804.226877 364.485797 
L 805.524953 374.263685 
L 806.82303 371.296679 
L 808.121107 371.363932 
L 809.419184 374.599316 
L 810.71726 379.03635 
L 812.015337 400.759815 
L 813.313414 417.38496 
L 814.61149 409.646461 
L 815.909567 380.202858 
L 818.505721 374.174105 
L 819.803797 378.989867 
L 822.399951 345.250711 
L 823.698027 357.161788 
L 824.996104 370.900502 
L 826.294181 363.239362 
L 827.592258 376.376557 
L 828.890334 384.366396 
L 830.188411 376.545227 
L 831.486488 372.589491 
L 832.784564 369.404604 
L 834.082641 373.154617 
L 835.380718 387.415442 
L 836.678795 375.467816 
L 837.976871 364.728757 
L 839.274948 351.929258 
L 840.573025 371.363009 
L 841.871101 375.244195 
L 843.169178 375.678237 
L 844.467255 379.650724 
L 845.765332 378.786725 
L 847.063408 375.770062 
L 848.361485 371.556726 
L 849.659562 364.55537 
L 850.957638 389.123575 
L 852.255715 397.460329 
L 853.553792 395.698017 
L 854.851868 370.644714 
L 856.149945 350.854361 
L 857.448022 341.83191 
L 858.746099 331.388643 
L 860.044175 326.063506 
L 861.342252 324.64489 
L 862.640329 334.622919 
L 863.938405 333.925899 
L 865.236482 325.964502 
L 866.534559 326.305791 
L 867.832636 328.033815 
L 869.130712 336.277074 
L 871.726866 358.893302 
L 873.024942 353.734142 
L 874.323019 353.818061 
L 875.621096 358.182564 
L 876.919173 358.927051 
L 878.217249 357.761811 
L 879.515326 357.116342 
L 880.813403 350.454441 
L 882.111479 346.171163 
L 883.409556 331.442334 
L 884.707633 319.455648 
L 887.303786 325.650748 
L 888.601863 329.432361 
L 889.89994 336.663321 
L 891.198016 356.561499 
L 892.496093 352.174303 
L 893.79417 363.790202 
L 895.092247 391.640022 
L 896.390323 400.403712 
L 897.6884 405.126325 
L 898.986477 406.900041 
L 900.284553 390.881185 
L 901.58263 392.097382 
L 902.880707 396.320994 
L 904.178784 391.458976 
L 905.47686 405.736062 
L 906.774937 408.661431 
L 908.073014 407.059191 
L 909.37109 404.444324 
L 910.669167 413.766692 
L 911.967244 414.787594 
L 913.265321 414.115549 
L 914.563397 400.711358 
L 915.861474 398.484189 
L 917.159551 395.081862 
L 918.457627 377.180732 
L 919.755704 364.00872 
L 921.053781 360.896172 
L 922.351858 359.377625 
L 923.649934 357.052475 
L 924.948011 347.222246 
L 926.246088 376.274768 
L 927.544164 350.835559 
L 928.842241 346.992275 
L 930.140318 339.951108 
L 931.438395 348.950692 
L 932.736471 364.368615 
L 934.034548 369.495444 
L 936.630701 358.359048 
L 939.226855 379.015162 
L 940.524932 377.554166 
L 941.823008 366.9847 
L 943.121085 367.042941 
L 944.419162 369.059952 
L 945.717238 366.292061 
L 947.015315 373.75827 
L 949.611468 369.556433 
L 950.909545 392.105517 
L 952.207622 389.886806 
L 953.505699 387.172461 
L 954.803775 388.472287 
L 956.101852 375.565487 
L 957.399929 367.228048 
L 958.698005 360.467084 
L 959.996082 371.250203 
L 961.294159 380.567923 
L 962.592236 380.183776 
L 963.890312 365.025294 
L 965.188389 352.439765 
L 966.486466 349.667995 
L 967.784542 366.394778 
L 969.082619 368.348182 
L 970.380696 366.093114 
L 971.678773 359.627423 
L 972.976849 359.610467 
L 974.274926 350.913562 
L 975.573003 346.937192 
L 976.871079 362.00789 
L 978.169156 386.735884 
L 979.467233 378.774253 
L 980.76531 375.095125 
L 982.063386 366.712015 
L 983.361463 384.77484 
L 984.65954 359.756578 
L 985.957616 343.657379 
L 987.255693 348.055921 
L 989.851847 325.101545 
L 991.149923 319.11796 
L 992.448 335.206424 
L 992.448 335.206424 
" clip-path="url(#pa9f97ff978)" style="fill: none; stroke: #55a868; stroke-width: 1.5; stroke-linecap: round"/>
   </g>
   <g id="patch_3">
    <path d="M 44.852 527.476 
L 44.852 15.552 
" style="fill: none; stroke: #cccccc; stroke-width: 1.25; stroke-linejoin: miter; stroke-linecap: square"/>
   </g>
   <g id="patch_4">
    <path d="M 992.448 527.476 
L 992.448 15.552 
" style="fill: none; stroke: #cccccc; stroke-width: 1.25; stroke-linejoin: miter; stroke-linecap: square"/>
   </g>
   <g id="patch_5">
    <path d="M 44.852 527.476 
L 992.448 527.476 
" style="fill: none; stroke: #cccccc; stroke-width: 1.25; stroke-linejoin: miter; stroke-linecap: square"/>
   </g>
   <g id="patch_6">
    <path d="M 44.852 15.552 
L 992.448 15.552 
" style="fill: none; stroke: #cccccc; stroke-width: 1.25; stroke-linejoin: miter; stroke-linecap: square"/>
   </g>
   <g id="legend_1">
    <g id="patch_7">
     <path d="M 874.968 520.876 
L 983.208 520.876 
Q 985.848 520.876 985.848 518.236 
L 985.848 463.0435 
Q 985.848 460.4035 983.208 460.4035 
L 874.968 460.4035 
Q 872.328 460.4035 872.328 463.0435 
L 872.328 518.236 
Q 872.328 520.876 874.968 520.876 
z
" style="fill: #ffffff; opacity: 0.8; stroke: #cccccc; stroke-linejoin: miter"/>
    </g>
    <g id="line2d_19">
     <path d="M 877.608 471.58225 
L 890.808 471.58225 
L 904.008 471.58225 
" style="fill: none; stroke: #4c72b0; stroke-width: 1.5; stroke-linecap: round"/>
    </g>
    <g id="text_15">
     <!--  -->
     <g style="fill: #262626" transform="translate(914.568 476.20225) scale(0.132 -0.132)">
      <defs>
       <path id="SimHei-539f" d="M 3850 4275 
Q 3675 4025 3600 3700 
L 5450 3700 
Q 5425 3475 5425 3000 
L 5425 2225 
Q 5425 1825 5450 1475 
L 4050 1475 
L 4050 -50 
Q 4050 -400 3825 -487 
Q 3600 -575 3100 -625 
Q 3050 -325 2925 -50 
Q 3400 -75 3475 -37 
Q 3550 0 3550 175 
L 3550 1475 
L 2125 1475 
Q 2150 1775 2150 2200 
L 2150 3025 
Q 2150 3425 2125 3700 
L 3150 3700 
Q 3300 4250 3300 4425 
L 3850 4275 
z
M 275 -325 
Q 725 275 875 1037 
Q 1025 1800 1025 2300 
L 1025 4125 
Q 1025 4650 1000 4900 
L 5025 4900 
Q 5575 4900 5800 4925 
L 5800 4475 
Q 5600 4500 5025 4500 
L 1525 4500 
L 1525 2375 
Q 1500 1650 1412 1112 
Q 1325 575 1137 125 
Q 950 -325 800 -575 
Q 550 -400 275 -325 
z
M 4925 2775 
L 4925 3325 
L 2625 3325 
L 2625 2775 
L 4925 2775 
z
M 4925 1875 
L 4925 2400 
L 2625 2400 
L 2625 1875 
L 4925 1875 
z
M 1475 -50 
Q 1800 150 2087 450 
Q 2375 750 2575 1100 
Q 2800 875 2975 750 
Q 2300 -50 1825 -400 
Q 1675 -225 1475 -50 
z
M 4825 1075 
Q 5700 300 5925 25 
Q 5750 -125 5575 -325 
Q 5250 75 4500 725 
Q 4675 925 4825 1075 
z
" transform="scale(0.015625)"/>
       <path id="SimHei-59cb" d="M 1750 5075 
Q 1650 4900 1587 4587 
Q 1525 4275 1475 3875 
L 2550 3875 
Q 2400 2150 1950 1100 
Q 2275 850 2725 425 
Q 2550 275 2375 50 
Q 2000 500 1750 675 
Q 1525 275 1250 -62 
Q 975 -400 700 -675 
Q 600 -525 250 -350 
Q 575 -125 862 200 
Q 1150 525 1375 975 
Q 800 1400 500 1550 
Q 875 2925 950 3425 
Q 650 3425 325 3400 
L 325 3900 
Q 675 3875 1025 3875 
Q 1175 4825 1175 5225 
Q 1550 5125 1750 5075 
z
M 5725 2050 
Q 5700 1650 5700 650 
Q 5700 -325 5725 -650 
L 5200 -650 
L 5200 -100 
L 3450 -100 
L 3450 -675 
L 2950 -675 
Q 2975 -300 2975 675 
Q 2975 1650 2950 2050 
L 5725 2050 
z
M 4400 4950 
Q 3750 3875 3250 3150 
Q 3875 3150 4250 3175 
Q 4625 3200 5200 3225 
Q 4875 3675 4625 3900 
Q 4825 4000 5025 4225 
Q 5750 3300 6125 2850 
Q 6000 2775 5725 2550 
Q 5575 2775 5450 2875 
Q 4575 2825 3937 2762 
Q 3300 2700 2825 2575 
Q 2775 2800 2600 3100 
Q 2875 3225 3237 3850 
Q 3600 4475 3825 5200 
Q 4025 5050 4400 4950 
z
M 5200 325 
L 5200 1600 
L 3450 1600 
L 3450 325 
L 5200 325 
z
M 1025 1775 
Q 1300 1550 1575 1400 
Q 1725 1725 1875 2337 
Q 2025 2950 2050 3425 
L 1400 3425 
Q 1300 2950 1025 1775 
z
" transform="scale(0.015625)"/>
       <path id="SimHei-6570" d="M 4525 4925 
Q 4475 4800 4400 4587 
Q 4325 4375 4175 3825 
L 5325 3825 
Q 5575 3825 5925 3850 
L 5925 3400 
Q 5650 3425 5500 3425 
Q 5500 3025 5362 2162 
Q 5225 1300 4875 675 
Q 5125 375 5437 137 
Q 5750 -100 6025 -200 
Q 5725 -425 5625 -625 
Q 5325 -450 5075 -225 
Q 4825 0 4575 325 
Q 4300 25 3987 -187 
Q 3675 -400 3200 -650 
Q 3075 -425 2850 -300 
Q 3225 -150 3650 125 
Q 4075 400 4300 675 
Q 4125 1025 3962 1425 
Q 3800 1825 3675 2475 
Q 3600 2275 3425 1950 
Q 3250 2050 3000 2150 
Q 3400 2850 3650 3675 
Q 3900 4500 3975 5100 
Q 4275 4975 4525 4925 
z
M 2100 2250 
Q 2000 2150 1875 1925 
L 3250 1925 
Q 3100 1300 2725 675 
Q 3125 525 3350 400 
Q 3225 225 3125 25 
Q 2900 175 2450 325 
Q 1950 -225 725 -650 
Q 600 -375 400 -275 
Q 1575 0 2000 475 
Q 1300 650 850 775 
Q 1000 1000 1250 1525 
Q 1000 1525 425 1500 
L 425 1950 
Q 900 1925 1400 1925 
Q 1500 2150 1550 2425 
Q 1825 2325 2100 2250 
z
M 1775 3950 
Q 1775 4550 1750 5100 
L 2250 5100 
Q 2225 4575 2225 3950 
Q 3075 3950 3425 3975 
L 3425 3525 
Q 3075 3550 2225 3550 
Q 2225 2825 2250 2425 
L 1750 2425 
Q 1775 2775 1775 3300 
Q 1650 3100 1300 2787 
Q 950 2475 650 2300 
Q 525 2525 275 2625 
Q 500 2700 875 2975 
Q 1250 3250 1450 3550 
Q 950 3550 500 3525 
L 500 3975 
Q 925 3950 1775 3950 
z
M 3975 3175 
Q 4200 1700 4600 1125 
Q 4850 1700 4937 2287 
Q 5025 2875 5050 3425 
L 4075 3425 
L 3975 3175 
z
M 1450 1000 
Q 1750 925 2275 800 
Q 2475 1050 2650 1525 
L 1725 1525 
Q 1600 1275 1450 1000 
z
M 3325 4825 
Q 3200 4625 3125 4450 
Q 3050 4275 2925 4025 
Q 2725 4125 2525 4175 
Q 2725 4500 2900 5000 
Q 3150 4875 3325 4825 
z
M 2575 3375 
Q 2900 3050 3200 2725 
Q 3050 2600 2875 2425 
Q 2525 2850 2300 3100 
Q 2450 3225 2575 3375 
z
M 925 5000 
Q 1275 4650 1500 4300 
L 1125 4075 
Q 950 4425 600 4725 
Q 825 4875 925 5000 
z
" transform="scale(0.015625)"/>
       <path id="SimHei-636e" d="M 5750 4775 
Q 5725 4550 5725 4225 
L 5725 3900 
Q 5725 3450 5750 3250 
L 3100 3250 
L 3100 2500 
L 4250 2500 
Q 4250 2725 4225 3175 
L 4700 3175 
Q 4675 2775 4675 2500 
L 5350 2500 
Q 5800 2500 6100 2525 
L 6100 2075 
Q 5800 2100 5375 2100 
L 4675 2100 
L 4675 1425 
L 5775 1425 
Q 5750 950 5750 800 
L 5750 175 
Q 5750 -225 5775 -575 
L 5325 -575 
L 5325 -225 
L 3675 -225 
L 3675 -600 
L 3225 -600 
Q 3250 -325 3250 100 
L 3250 825 
Q 3250 1075 3225 1425 
L 4250 1425 
L 4250 2100 
L 3075 2100 
Q 3050 1375 2887 737 
Q 2725 100 2425 -475 
Q 2200 -325 1950 -250 
Q 2250 150 2387 600 
Q 2525 1050 2600 1562 
Q 2675 2075 2675 2625 
L 2675 3575 
Q 2675 3975 2650 4775 
L 5750 4775 
z
M 1275 4425 
Q 1275 4775 1250 5075 
L 1750 5075 
Q 1725 4800 1725 4425 
L 1725 3775 
Q 1975 3775 2500 3800 
L 2500 3375 
Q 1975 3400 1725 3400 
L 1725 2450 
Q 2050 2625 2400 2850 
Q 2425 2650 2525 2475 
Q 2050 2200 1725 2000 
L 1725 175 
Q 1725 -300 1487 -400 
Q 1250 -500 775 -575 
Q 725 -325 600 -50 
Q 1025 -50 1150 -12 
Q 1275 25 1275 325 
L 1275 1800 
Q 900 1600 525 1325 
Q 450 1525 275 1800 
Q 775 1975 1275 2250 
L 1275 3400 
Q 800 3400 350 3375 
L 350 3800 
Q 800 3775 1275 3775 
L 1275 4425 
z
M 5300 3625 
L 5300 4400 
L 3100 4400 
L 3100 3625 
L 5300 3625 
z
M 5325 150 
L 5325 1075 
L 3675 1075 
L 3675 150 
L 5325 150 
z
" transform="scale(0.015625)"/>
      </defs>
      <use xlink:href="#SimHei-539f"/>
      <use xlink:href="#SimHei-59cb" x="100"/>
      <use xlink:href="#SimHei-6570" x="200"/>
      <use xlink:href="#SimHei-636e" x="300"/>
     </g>
    </g>
    <g id="line2d_20">
     <path d="M 877.608 490.454125 
L 890.808 490.454125 
L 904.008 490.454125 
" style="fill: none; stroke: #dd8452; stroke-width: 1.5; stroke-linecap: round"/>
    </g>
    <g id="text_16">
     <!--  -->
     <g style="fill: #262626" transform="translate(914.568 495.074125) scale(0.132 -0.132)">
      <defs>
       <path id="SimHei-6eda" d="M 4650 3100 
Q 4925 2875 5175 2625 
L 5675 2125 
Q 5475 1950 5325 1775 
Q 5225 1925 5075 2100 
Q 4500 2075 4000 2025 
Q 3725 1575 3400 1225 
L 3400 100 
Q 3550 175 3712 262 
Q 3875 350 4050 450 
Q 4100 225 4200 25 
Q 3900 -125 3550 -325 
Q 3200 -525 2975 -675 
Q 2875 -450 2725 -250 
Q 2975 -125 3000 150 
L 3000 900 
Q 2675 625 1975 250 
Q 1875 475 1675 700 
Q 2150 825 2637 1150 
Q 3125 1475 3475 2000 
L 2900 1925 
Q 2725 1900 2425 1825 
Q 2350 2075 2250 2300 
Q 2550 2350 2900 2712 
Q 3250 3075 3625 3675 
Q 3825 3550 4125 3400 
Q 3925 3225 3625 2912 
Q 3325 2600 3000 2325 
Q 3900 2350 4750 2425 
Q 4550 2650 4350 2825 
Q 4525 2950 4650 3100 
z
M 3550 5175 
Q 3775 5200 4050 5275 
Q 4225 4875 4300 4525 
L 5150 4525 
Q 5500 4525 6025 4550 
L 6025 4150 
Q 5500 4175 5150 4175 
L 2950 4175 
Q 2500 4175 2025 4150 
L 2025 4550 
Q 2475 4525 2925 4525 
L 3800 4525 
Q 3750 4800 3550 5175 
z
M 5900 1325 
Q 5700 1200 5450 1037 
Q 5200 875 4950 700 
Q 5050 525 5350 300 
Q 5650 75 6200 -75 
Q 5975 -250 5850 -500 
Q 5275 -250 4912 112 
Q 4550 475 4325 900 
Q 4100 1325 3950 1725 
L 4300 1850 
Q 4525 1250 4725 1000 
Q 4975 1150 5175 1325 
Q 5375 1500 5525 1675 
Q 5675 1475 5900 1325 
z
M 1700 1525 
Q 1575 1375 1237 587 
Q 900 -200 750 -525 
Q 550 -350 275 -200 
Q 525 100 812 675 
Q 1100 1250 1275 1775 
Q 1475 1625 1700 1525 
z
M 5775 2825 
Q 5550 3050 5250 3287 
Q 4950 3525 4450 3800 
Q 4600 3925 4775 4125 
L 5475 3650 
Q 5825 3425 6125 3200 
Q 5900 3025 5775 2825 
z
M 1800 3100 
Q 2125 3250 2450 3525 
Q 2775 3800 2950 4100 
Q 3150 3925 3375 3750 
Q 3175 3625 2862 3337 
Q 2550 3050 2200 2775 
Q 2025 2950 1800 3100 
z
M 575 3450 
Q 750 3350 1025 3150 
Q 1300 2950 1625 2725 
Q 1400 2500 1275 2275 
Q 1100 2475 837 2687 
Q 575 2900 275 3100 
Q 425 3250 575 3450 
z
M 1475 3850 
Q 1175 4150 937 4337 
Q 700 4525 550 4675 
Q 725 4850 825 5000 
Q 975 4900 1225 4700 
Q 1475 4500 1825 4250 
Q 1650 4075 1475 3850 
z
" transform="scale(0.015625)"/>
       <path id="SimHei-52a8" d="M 4125 5150 
Q 4425 5075 4700 5075 
Q 4650 4825 4637 4512 
Q 4625 4200 4625 3750 
L 6025 3750 
Q 6000 3425 5975 3025 
L 5850 175 
Q 5775 -325 5437 -437 
Q 5100 -550 4675 -600 
Q 4600 -300 4425 -50 
Q 4975 -75 5175 12 
Q 5375 100 5375 350 
L 5525 3325 
L 4625 3325 
Q 4575 2225 4462 1650 
Q 4350 1075 4112 587 
Q 3875 100 3150 -675 
Q 2900 -425 2700 -350 
Q 3175 25 3475 437 
Q 3775 850 3900 1287 
Q 4025 1725 4075 2200 
Q 4125 2675 4150 3325 
L 3725 3325 
Q 3450 3325 3075 3300 
L 3075 3775 
Q 3450 3750 3775 3750 
L 4150 3750 
L 4150 4450 
Q 4150 4800 4125 5150 
z
M 275 3025 
Q 650 3000 1175 3000 
L 2125 3000 
Q 2575 3000 3150 3025 
L 3150 2575 
Q 2575 2600 2150 2600 
L 1875 2600 
Q 1725 2200 1537 1750 
Q 1350 1300 1100 850 
Q 2075 950 2575 1050 
Q 2450 1350 2175 1800 
Q 2450 1950 2575 2050 
Q 2825 1600 3000 1287 
Q 3175 975 3375 525 
Q 3175 400 2925 275 
Q 2825 500 2750 650 
Q 1950 525 1462 450 
Q 975 375 625 250 
Q 525 500 375 725 
Q 700 925 962 1525 
Q 1225 2125 1350 2600 
L 1175 2600 
Q 650 2600 275 2575 
L 275 3025 
z
M 2000 4425 
Q 2425 4425 2950 4450 
L 2950 3975 
Q 2425 4000 2000 4000 
L 1400 4000 
Q 1000 4000 625 3975 
L 625 4450 
Q 975 4425 1375 4425 
L 2000 4425 
z
" transform="scale(0.015625)"/>
       <path id="SimHei-5e73" d="M 4525 4825 
Q 4900 4825 5450 4850 
L 5450 4375 
Q 4925 4400 4525 4400 
L 3475 4400 
L 3475 2025 
L 5000 2025 
Q 5550 2025 6025 2050 
L 6025 1575 
Q 5550 1600 5000 1600 
L 3475 1600 
L 3475 450 
Q 3475 -100 3500 -600 
L 2925 -600 
Q 2950 -100 2950 450 
L 2950 1600 
L 1125 1600 
Q 775 1600 375 1575 
L 375 2050 
Q 775 2025 1175 2025 
L 2950 2025 
L 2950 4400 
L 1775 4400 
Q 1400 4400 875 4375 
L 875 4850 
Q 1400 4825 1750 4825 
L 4525 4825 
z
M 3925 2600 
Q 4500 3300 4900 4125 
Q 5150 3950 5400 3825 
Q 4775 2850 4350 2300 
Q 4150 2475 3925 2600 
z
M 1975 2350 
Q 1600 3100 1050 3725 
Q 1250 3875 1450 4050 
Q 2075 3300 2450 2725 
Q 2150 2500 1975 2350 
z
" transform="scale(0.015625)"/>
       <path id="SimHei-5747" d="M 5775 275 
Q 5775 -325 5362 -450 
Q 4950 -575 4425 -600 
Q 4375 -275 4250 25 
Q 4950 -25 5125 62 
Q 5300 150 5300 500 
L 5375 3700 
L 3550 3700 
Q 3425 3375 3262 3037 
Q 3100 2700 2925 2400 
Q 2675 2550 2475 2625 
Q 3150 3625 3500 5200 
Q 3800 5100 4075 5025 
Q 3975 4875 3875 4650 
Q 3775 4425 3675 4125 
L 5900 4125 
L 5775 275 
z
M 1250 3625 
L 1250 4375 
Q 1250 4775 1225 5100 
L 1775 5100 
Q 1750 4725 1750 4375 
L 1750 3625 
L 1900 3625 
Q 2200 3625 2525 3650 
L 2525 3150 
Q 2200 3175 1900 3175 
L 1750 3175 
L 1750 1100 
L 2500 1375 
Q 2475 1125 2525 900 
Q 1225 475 962 362 
Q 700 250 475 150 
Q 375 475 250 750 
Q 575 800 800 850 
Q 1025 900 1250 975 
L 1250 3175 
L 1125 3175 
Q 850 3175 400 3150 
L 400 3650 
Q 850 3625 1100 3625 
L 1250 3625 
z
M 4950 1625 
Q 4675 1425 4137 1050 
Q 3600 675 3175 300 
Q 3000 575 2850 775 
Q 3350 1050 3762 1325 
Q 4175 1600 4775 2075 
Q 4825 1850 4950 1625 
z
M 3775 3150 
Q 4125 2800 4475 2300 
Q 4250 2125 4100 1975 
Q 3900 2325 3450 2825 
Q 3600 3000 3775 3150 
z
" transform="scale(0.015625)"/>
      </defs>
      <use xlink:href="#SimHei-6eda"/>
      <use xlink:href="#SimHei-52a8" x="100"/>
      <use xlink:href="#SimHei-5e73" x="200"/>
      <use xlink:href="#SimHei-5747" x="300"/>
     </g>
    </g>
    <g id="line2d_21">
     <path d="M 877.608 509.326 
L 890.808 509.326 
L 904.008 509.326 
" style="fill: none; stroke: #55a868; stroke-width: 1.5; stroke-linecap: round"/>
    </g>
    <g id="text_17">
     <!--  -->
     <g style="fill: #262626" transform="translate(914.568 513.946) scale(0.132 -0.132)">
      <defs>
       <path id="SimHei-6807" d="M 1275 4400 
Q 1275 4800 1250 5175 
L 1750 5175 
Q 1725 4825 1725 4400 
L 1725 3800 
Q 2125 3800 2575 3825 
L 2575 3350 
Q 2125 3375 1725 3375 
L 1725 2525 
Q 1900 2650 2075 2800 
Q 2400 2275 2650 1775 
Q 2375 1650 2175 1500 
Q 2025 2000 1725 2425 
L 1725 475 
Q 1725 -50 1750 -575 
L 1250 -575 
Q 1275 -25 1275 475 
L 1275 2100 
Q 1025 1400 500 750 
Q 350 950 125 1125 
Q 550 1550 812 2187 
Q 1075 2825 1150 3375 
Q 675 3375 325 3325 
L 325 3825 
Q 800 3800 1275 3800 
L 1275 4400 
z
M 5175 3125 
Q 5675 3125 6050 3150 
L 6050 2675 
Q 5675 2700 5275 2700 
L 4500 2700 
L 4500 175 
Q 4500 -225 4275 -350 
Q 4050 -475 3475 -550 
Q 3425 -250 3275 25 
Q 3775 25 3900 62 
Q 4025 100 4025 350 
L 4025 2700 
L 3400 2700 
Q 2775 2700 2500 2650 
L 2500 3150 
Q 2825 3125 3400 3125 
L 5175 3125 
z
M 4900 4775 
Q 5425 4775 5750 4800 
L 5750 4300 
Q 5275 4350 4750 4350 
L 3525 4350 
Q 3125 4350 2750 4300 
L 2750 4800 
Q 3100 4775 3525 4775 
L 4900 4775 
z
M 5275 2025 
Q 5825 1175 6200 500 
Q 5925 375 5650 200 
Q 5375 925 4825 1725 
Q 5075 1850 5275 2025 
z
M 3600 1775 
Q 3500 1625 3225 975 
Q 2950 325 2800 50 
Q 2575 175 2300 275 
Q 2625 775 2787 1187 
Q 2950 1600 3050 2000 
Q 3325 1875 3600 1775 
z
" transform="scale(0.015625)"/>
       <path id="SimHei-51c6" d="M 1600 2775 
Q 1900 3050 2275 3787 
Q 2650 4525 2800 5175 
Q 3075 5050 3400 4950 
Q 3250 4775 3000 4100 
L 4825 4100 
Q 5400 4100 5875 4125 
L 5875 3675 
Q 5375 3700 4825 3700 
L 4525 3700 
L 4525 2850 
Q 5250 2850 5700 2875 
L 5700 2425 
Q 5250 2450 4525 2450 
L 4525 1600 
Q 5275 1600 5700 1625 
L 5700 1200 
Q 5275 1225 4525 1225 
L 4525 375 
Q 5575 375 6050 400 
L 6050 -100 
Q 5575 -75 4975 -75 
L 2950 -75 
L 2950 -600 
L 2425 -600 
Q 2450 -150 2450 675 
L 2450 3050 
Q 2300 2775 2075 2400 
Q 1875 2650 1600 2775 
z
M 1675 2050 
Q 1425 1425 1200 850 
Q 975 275 775 -125 
Q 550 50 275 200 
Q 550 650 775 1112 
Q 1000 1575 1225 2300 
Q 1400 2125 1675 2050 
z
M 4025 1600 
L 4025 2450 
L 2950 2450 
L 2950 1600 
L 4025 1600 
z
M 4025 2850 
L 4025 3700 
L 2950 3700 
L 2950 2850 
L 4025 2850 
z
M 4025 375 
L 4025 1225 
L 2950 1225 
L 2950 375 
L 4025 375 
z
M 725 4775 
Q 850 4625 1162 4312 
Q 1475 4000 1750 3700 
Q 1525 3475 1375 3300 
Q 1100 3700 350 4450 
Q 550 4600 725 4775 
z
M 4150 5225 
Q 4600 4800 4800 4500 
Q 4625 4400 4400 4200 
Q 4225 4500 3775 4925 
Q 3925 5000 4150 5225 
z
" transform="scale(0.015625)"/>
       <path id="SimHei-5dee" d="M 4725 4975 
Q 4500 4725 4250 4275 
L 4850 4275 
Q 5450 4275 5825 4300 
L 5825 3850 
Q 5425 3875 4850 3875 
L 3275 3875 
Q 3225 3600 3150 3275 
L 4525 3275 
Q 5075 3275 5525 3300 
L 5525 2850 
Q 5075 2875 4500 2875 
L 3050 2875 
Q 2975 2650 2850 2325 
L 5125 2325 
Q 5675 2325 6025 2350 
L 6025 1900 
Q 5700 1925 5150 1925 
L 2650 1925 
Q 2425 1550 2250 1300 
Q 2650 1275 3100 1275 
L 4525 1275 
Q 4975 1275 5350 1300 
L 5350 850 
Q 4975 875 4575 875 
L 3925 875 
L 3925 -50 
L 5000 -50 
Q 5200 -50 5900 -25 
L 5900 -500 
Q 5275 -475 5025 -475 
L 2100 -475 
Q 1700 -475 1400 -500 
L 1400 -25 
Q 1775 -50 2125 -50 
L 3425 -50 
L 3425 875 
L 3100 875 
Q 2625 875 2175 850 
L 2175 1200 
Q 1925 875 1487 475 
Q 1050 75 625 -250 
Q 425 -25 200 150 
Q 750 475 1262 925 
Q 1775 1375 2100 1925 
L 1325 1925 
Q 750 1925 375 1900 
L 375 2350 
Q 750 2325 1350 2325 
L 2325 2325 
Q 2450 2575 2550 2875 
L 1725 2875 
Q 1375 2875 1000 2850 
L 1000 3300 
Q 1500 3275 1700 3275 
L 2650 3275 
Q 2725 3575 2775 3875 
L 1500 3875 
Q 1100 3875 650 3850 
L 650 4300 
Q 1025 4275 1425 4275 
L 2275 4275 
Q 2075 4675 1850 4950 
Q 2025 5050 2250 5225 
Q 2450 4975 2725 4550 
Q 2525 4450 2325 4275 
L 3750 4275 
Q 4000 4700 4150 5250 
Q 4400 5100 4725 4975 
z
" transform="scale(0.015625)"/>
      </defs>
      <use xlink:href="#SimHei-6eda"/>
      <use xlink:href="#SimHei-52a8" x="100"/>
      <use xlink:href="#SimHei-6807" x="200"/>
      <use xlink:href="#SimHei-51c6" x="300"/>
      <use xlink:href="#SimHei-5dee" x="400"/>
     </g>
    </g>
   </g>
  </g>
 </g>
 <defs>
  <clipPath id="pa9f97ff978">
   <rect x="44.852" y="15.552" width="947.596" height="511.924"/>
  </clipPath>
 </defs>
</svg>
