<?xml version="1.0" encoding="utf-8" standalone="no"?>
<!DOCTYPE svg PUBLIC "-//W3C//DTD SVG 1.1//EN"
  "http://www.w3.org/Graphics/SVG/1.1/DTD/svg11.dtd">
<svg xmlns:xlink="http://www.w3.org/1999/xlink" width="1008pt" height="288pt" viewBox="0 0 1008 288" xmlns="http://www.w3.org/2000/svg" version="1.1">
 <metadata>
  <rdf:RDF xmlns:dc="http://purl.org/dc/elements/1.1/" xmlns:cc="http://creativecommons.org/ns#" xmlns:rdf="http://www.w3.org/1999/02/22-rdf-syntax-ns#">
   <cc:Work>
    <dc:type rdf:resource="http://purl.org/dc/dcmitype/StillImage"/>
    <dc:date>2023-04-14T15:37:24.166861</dc:date>
    <dc:format>image/svg+xml</dc:format>
    <dc:creator>
     <cc:Agent>
      <dc:title>Matplotlib v3.7.1, https://matplotlib.org/</dc:title>
     </cc:Agent>
    </dc:creator>
   </cc:Work>
  </rdf:RDF>
 </metadata>
 <defs>
  <style type="text/css">*{stroke-linejoin: round; stroke-linecap: butt}</style>
 </defs>
 <g id="figure_1">
  <g id="patch_1">
   <path d="M 0 288 
L 1008 288 
L 1008 0 
L 0 0 
z
" style="fill: #ffffff"/>
  </g>
  <g id="axes_1">
   <g id="patch_2">
    <path d="M 126 256.32 
L 481.090909 256.32 
L 481.090909 34.56 
L 126 34.56 
z
" style="fill: #ffffff"/>
   </g>
   <g id="matplotlib.axis_1">
    <g id="xtick_1">
     <g id="line2d_1">
      <path d="M 142.140496 256.32 
L 142.140496 34.56 
" clip-path="url(#pcf19859448)" style="fill: none; stroke: #cccccc; stroke-linecap: round"/>
     </g>
     <g id="text_1">
      <!-- 0 -->
      <g style="fill: #262626" transform="translate(138.840496 274.895) scale(0.132 -0.132)">
       <defs>
        <path id="SimHei-30" d="M 225 2537 
Q 250 3200 412 3587 
Q 575 3975 875 4225 
Q 1175 4475 1612 4475 
Q 2050 4475 2375 4112 
Q 2700 3750 2800 3200 
Q 2900 2650 2862 1937 
Q 2825 1225 2612 775 
Q 2400 325 1975 150 
Q 1550 -25 1125 187 
Q 700 400 525 750 
Q 350 1100 275 1487 
Q 200 1875 225 2537 
z
M 750 2687 
Q 675 2000 800 1462 
Q 925 925 1212 700 
Q 1500 475 1800 612 
Q 2100 750 2237 1162 
Q 2375 1575 2375 2062 
Q 2375 2550 2337 2950 
Q 2300 3350 2112 3675 
Q 1925 4000 1612 4012 
Q 1300 4025 1062 3700 
Q 825 3375 750 2687 
z
" transform="scale(0.015625)"/>
       </defs>
       <use xlink:href="#SimHei-30"/>
      </g>
     </g>
    </g>
    <g id="xtick_2">
     <g id="line2d_2">
      <path d="M 203.048027 256.32 
L 203.048027 34.56 
" clip-path="url(#pcf19859448)" style="fill: none; stroke: #cccccc; stroke-linecap: round"/>
     </g>
     <g id="text_2">
      <!-- 5 -->
      <g style="fill: #262626" transform="translate(199.748027 274.895) scale(0.132 -0.132)">
       <defs>
        <path id="SimHei-35" d="M 550 1325 
Q 725 650 1150 575 
Q 1575 500 1837 662 
Q 2100 825 2212 1087 
Q 2325 1350 2312 1675 
Q 2300 2000 2137 2225 
Q 1975 2450 1725 2525 
Q 1475 2600 1162 2525 
Q 850 2450 650 2175 
L 225 2225 
Q 275 2375 700 4375 
L 2675 4375 
L 2675 3925 
L 1075 3925 
Q 950 3250 825 2850 
Q 1200 3025 1525 3012 
Q 1850 3000 2150 2862 
Q 2450 2725 2587 2487 
Q 2725 2250 2787 2012 
Q 2850 1775 2837 1500 
Q 2825 1225 2725 937 
Q 2625 650 2425 462 
Q 2225 275 1937 162 
Q 1650 50 1275 75 
Q 900 100 562 350 
Q 225 600 100 1200 
L 550 1325 
z
" transform="scale(0.015625)"/>
       </defs>
       <use xlink:href="#SimHei-35"/>
      </g>
     </g>
    </g>
    <g id="xtick_3">
     <g id="line2d_3">
      <path d="M 263.955559 256.32 
L 263.955559 34.56 
" clip-path="url(#pcf19859448)" style="fill: none; stroke: #cccccc; stroke-linecap: round"/>
     </g>
     <g id="text_3">
      <!-- 10 -->
      <g style="fill: #262626" transform="translate(257.355559 274.895) scale(0.132 -0.132)">
       <defs>
        <path id="SimHei-31" d="M 1400 3600 
Q 1075 3275 575 2975 
L 575 3450 
Q 1200 3875 1600 4450 
L 1900 4450 
L 1900 150 
L 1400 150 
L 1400 3600 
z
" transform="scale(0.015625)"/>
       </defs>
       <use xlink:href="#SimHei-31"/>
       <use xlink:href="#SimHei-30" x="50"/>
      </g>
     </g>
    </g>
    <g id="xtick_4">
     <g id="line2d_4">
      <path d="M 324.863091 256.32 
L 324.863091 34.56 
" clip-path="url(#pcf19859448)" style="fill: none; stroke: #cccccc; stroke-linecap: round"/>
     </g>
     <g id="text_4">
      <!-- 15 -->
      <g style="fill: #262626" transform="translate(318.263091 274.895) scale(0.132 -0.132)">
       <use xlink:href="#SimHei-31"/>
       <use xlink:href="#SimHei-35" x="50"/>
      </g>
     </g>
    </g>
    <g id="xtick_5">
     <g id="line2d_5">
      <path d="M 385.770622 256.32 
L 385.770622 34.56 
" clip-path="url(#pcf19859448)" style="fill: none; stroke: #cccccc; stroke-linecap: round"/>
     </g>
     <g id="text_5">
      <!-- 20 -->
      <g style="fill: #262626" transform="translate(379.170622 274.895) scale(0.132 -0.132)">
       <defs>
        <path id="SimHei-32" d="M 300 250 
Q 325 625 650 925 
Q 975 1225 1475 1862 
Q 1975 2500 2125 2850 
Q 2275 3200 2237 3450 
Q 2200 3700 2000 3862 
Q 1800 4025 1537 4000 
Q 1275 3975 1037 3800 
Q 800 3625 675 3275 
L 200 3350 
Q 400 3925 712 4187 
Q 1025 4450 1450 4475 
Q 1700 4500 1900 4462 
Q 2100 4425 2312 4287 
Q 2525 4150 2662 3875 
Q 2800 3600 2762 3212 
Q 2725 2825 2375 2287 
Q 2025 1750 1025 600 
L 2825 600 
L 2825 150 
L 300 150 
L 300 250 
z
" transform="scale(0.015625)"/>
       </defs>
       <use xlink:href="#SimHei-32"/>
       <use xlink:href="#SimHei-30" x="50"/>
      </g>
     </g>
    </g>
    <g id="xtick_6">
     <g id="line2d_6">
      <path d="M 446.678154 256.32 
L 446.678154 34.56 
" clip-path="url(#pcf19859448)" style="fill: none; stroke: #cccccc; stroke-linecap: round"/>
     </g>
     <g id="text_6">
      <!-- 25 -->
      <g style="fill: #262626" transform="translate(440.078154 274.895) scale(0.132 -0.132)">
       <use xlink:href="#SimHei-32"/>
       <use xlink:href="#SimHei-35" x="50"/>
      </g>
     </g>
    </g>
   </g>
   <g id="matplotlib.axis_2">
    <g id="ytick_1">
     <g id="line2d_7">
      <path d="M 126 256.32 
L 481.090909 256.32 
" clip-path="url(#pcf19859448)" style="fill: none; stroke: #cccccc; stroke-linecap: round"/>
     </g>
     <g id="text_7">
      <!-- -1.00 -->
      <g style="fill: #262626" transform="translate(83.5 260.8575) scale(0.132 -0.132)">
       <defs>
        <path id="SimHei-2d" d="M 2975 2125 
L 125 2125 
L 125 2525 
L 2975 2525 
L 2975 2125 
z
" transform="scale(0.015625)"/>
        <path id="SimHei-2e" d="M 1075 125 
L 500 125 
L 500 675 
L 1075 675 
L 1075 125 
z
" transform="scale(0.015625)"/>
       </defs>
       <use xlink:href="#SimHei-2d"/>
       <use xlink:href="#SimHei-31" x="50"/>
       <use xlink:href="#SimHei-2e" x="100"/>
       <use xlink:href="#SimHei-30" x="150"/>
       <use xlink:href="#SimHei-30" x="200"/>
      </g>
     </g>
    </g>
    <g id="ytick_2">
     <g id="line2d_8">
      <path d="M 126 228.6 
L 481.090909 228.6 
" clip-path="url(#pcf19859448)" style="fill: none; stroke: #cccccc; stroke-linecap: round"/>
     </g>
     <g id="text_8">
      <!-- -0.75 -->
      <g style="fill: #262626" transform="translate(83.5 233.1375) scale(0.132 -0.132)">
       <defs>
        <path id="SimHei-37" d="M 850 150 
Q 1300 2050 2425 3925 
L 275 3925 
L 275 4375 
L 2950 4375 
L 2950 3950 
Q 1775 2050 1400 150 
L 850 150 
z
" transform="scale(0.015625)"/>
       </defs>
       <use xlink:href="#SimHei-2d"/>
       <use xlink:href="#SimHei-30" x="50"/>
       <use xlink:href="#SimHei-2e" x="100"/>
       <use xlink:href="#SimHei-37" x="150"/>
       <use xlink:href="#SimHei-35" x="200"/>
      </g>
     </g>
    </g>
    <g id="ytick_3">
     <g id="line2d_9">
      <path d="M 126 200.88 
L 481.090909 200.88 
" clip-path="url(#pcf19859448)" style="fill: none; stroke: #cccccc; stroke-linecap: round"/>
     </g>
     <g id="text_9">
      <!-- -0.50 -->
      <g style="fill: #262626" transform="translate(83.5 205.4175) scale(0.132 -0.132)">
       <use xlink:href="#SimHei-2d"/>
       <use xlink:href="#SimHei-30" x="50"/>
       <use xlink:href="#SimHei-2e" x="100"/>
       <use xlink:href="#SimHei-35" x="150"/>
       <use xlink:href="#SimHei-30" x="200"/>
      </g>
     </g>
    </g>
    <g id="ytick_4">
     <g id="line2d_10">
      <path d="M 126 173.16 
L 481.090909 173.16 
" clip-path="url(#pcf19859448)" style="fill: none; stroke: #cccccc; stroke-linecap: round"/>
     </g>
     <g id="text_10">
      <!-- -0.25 -->
      <g style="fill: #262626" transform="translate(83.5 177.6975) scale(0.132 -0.132)">
       <use xlink:href="#SimHei-2d"/>
       <use xlink:href="#SimHei-30" x="50"/>
       <use xlink:href="#SimHei-2e" x="100"/>
       <use xlink:href="#SimHei-32" x="150"/>
       <use xlink:href="#SimHei-35" x="200"/>
      </g>
     </g>
    </g>
    <g id="ytick_5">
     <g id="line2d_11">
      <path d="M 126 145.44 
L 481.090909 145.44 
" clip-path="url(#pcf19859448)" style="fill: none; stroke: #cccccc; stroke-linecap: round"/>
     </g>
     <g id="text_11">
      <!-- 0.00 -->
      <g style="fill: #262626" transform="translate(90.1 149.9775) scale(0.132 -0.132)">
       <use xlink:href="#SimHei-30"/>
       <use xlink:href="#SimHei-2e" x="50"/>
       <use xlink:href="#SimHei-30" x="100"/>
       <use xlink:href="#SimHei-30" x="150"/>
      </g>
     </g>
    </g>
    <g id="ytick_6">
     <g id="line2d_12">
      <path d="M 126 117.72 
L 481.090909 117.72 
" clip-path="url(#pcf19859448)" style="fill: none; stroke: #cccccc; stroke-linecap: round"/>
     </g>
     <g id="text_12">
      <!-- 0.25 -->
      <g style="fill: #262626" transform="translate(90.1 122.2575) scale(0.132 -0.132)">
       <use xlink:href="#SimHei-30"/>
       <use xlink:href="#SimHei-2e" x="50"/>
       <use xlink:href="#SimHei-32" x="100"/>
       <use xlink:href="#SimHei-35" x="150"/>
      </g>
     </g>
    </g>
    <g id="ytick_7">
     <g id="line2d_13">
      <path d="M 126 90 
L 481.090909 90 
" clip-path="url(#pcf19859448)" style="fill: none; stroke: #cccccc; stroke-linecap: round"/>
     </g>
     <g id="text_13">
      <!-- 0.50 -->
      <g style="fill: #262626" transform="translate(90.1 94.5375) scale(0.132 -0.132)">
       <use xlink:href="#SimHei-30"/>
       <use xlink:href="#SimHei-2e" x="50"/>
       <use xlink:href="#SimHei-35" x="100"/>
       <use xlink:href="#SimHei-30" x="150"/>
      </g>
     </g>
    </g>
    <g id="ytick_8">
     <g id="line2d_14">
      <path d="M 126 62.28 
L 481.090909 62.28 
" clip-path="url(#pcf19859448)" style="fill: none; stroke: #cccccc; stroke-linecap: round"/>
     </g>
     <g id="text_14">
      <!-- 0.75 -->
      <g style="fill: #262626" transform="translate(90.1 66.8175) scale(0.132 -0.132)">
       <use xlink:href="#SimHei-30"/>
       <use xlink:href="#SimHei-2e" x="50"/>
       <use xlink:href="#SimHei-37" x="100"/>
       <use xlink:href="#SimHei-35" x="150"/>
      </g>
     </g>
    </g>
    <g id="ytick_9">
     <g id="line2d_15">
      <path d="M 126 34.56 
L 481.090909 34.56 
" clip-path="url(#pcf19859448)" style="fill: none; stroke: #cccccc; stroke-linecap: round"/>
     </g>
     <g id="text_15">
      <!-- 1.00 -->
      <g style="fill: #262626" transform="translate(90.1 39.0975) scale(0.132 -0.132)">
       <use xlink:href="#SimHei-31"/>
       <use xlink:href="#SimHei-2e" x="50"/>
       <use xlink:href="#SimHei-30" x="100"/>
       <use xlink:href="#SimHei-30" x="150"/>
      </g>
     </g>
    </g>
   </g>
   <g id="PolyCollection_1">
    <defs>
     <path id="m7f2485ba5b" d="M 148.231249 -153.857971 
L 148.231249 -131.262029 
L 166.503508 -130.533395 
L 178.685015 -130.135078 
L 190.866521 -129.999152 
L 203.048027 -129.906009 
L 215.229534 -129.823999 
L 227.41104 -129.529885 
L 239.592546 -129.041227 
L 251.774053 -128.888205 
L 263.955559 -128.886172 
L 276.137065 -128.874973 
L 288.318572 -128.7839 
L 300.500078 -128.782777 
L 312.681584 -128.779608 
L 324.863091 -128.716431 
L 337.044597 -128.715088 
L 349.226103 -128.555886 
L 361.40761 -128.432534 
L 373.589116 -128.331361 
L 385.770622 -128.208207 
L 397.952128 -128.195187 
L 410.133635 -128.194971 
L 422.315141 -128.187392 
L 434.496647 -128.079689 
L 446.678154 -128.013325 
L 464.950413 -127.946093 
L 464.950413 -157.173907 
L 464.950413 -157.173907 
L 446.678154 -157.106675 
L 434.496647 -157.040311 
L 422.315141 -156.932608 
L 410.133635 -156.925029 
L 397.952128 -156.924813 
L 385.770622 -156.911793 
L 373.589116 -156.788639 
L 361.40761 -156.687466 
L 349.226103 -156.564114 
L 337.044597 -156.404912 
L 324.863091 -156.403569 
L 312.681584 -156.340392 
L 300.500078 -156.337223 
L 288.318572 -156.3361 
L 276.137065 -156.245027 
L 263.955559 -156.233828 
L 251.774053 -156.231795 
L 239.592546 -156.078773 
L 227.41104 -155.590115 
L 215.229534 -155.296001 
L 203.048027 -155.213991 
L 190.866521 -155.120848 
L 178.685015 -154.984922 
L 166.503508 -154.586605 
L 148.231249 -153.857971 
z
" style="stroke: #ffffff; stroke-opacity: 0.25"/>
    </defs>
    <g clip-path="url(#pcf19859448)">
     <use xlink:href="#m7f2485ba5b" x="0" y="288" style="fill: #4c72b0; fill-opacity: 0.25; stroke: #ffffff; stroke-opacity: 0.25"/>
    </g>
   </g>
   <g id="LineCollection_1">
    <path d="M 142.140496 145.44 
L 142.140496 34.56 
" clip-path="url(#pcf19859448)" style="fill: none; stroke: #4c72b0; stroke-width: 1.5"/>
    <path d="M 154.322002 145.44 
L 154.322002 116.831205 
" clip-path="url(#pcf19859448)" style="fill: none; stroke: #4c72b0; stroke-width: 1.5"/>
    <path d="M 166.503508 145.44 
L 166.503508 123.782659 
" clip-path="url(#pcf19859448)" style="fill: none; stroke: #4c72b0; stroke-width: 1.5"/>
    <path d="M 178.685015 145.44 
L 178.685015 132.651053 
" clip-path="url(#pcf19859448)" style="fill: none; stroke: #4c72b0; stroke-width: 1.5"/>
    <path d="M 190.866521 145.44 
L 190.866521 134.804921 
" clip-path="url(#pcf19859448)" style="fill: none; stroke: #4c72b0; stroke-width: 1.5"/>
    <path d="M 203.048027 145.44 
L 203.048027 135.426108 
" clip-path="url(#pcf19859448)" style="fill: none; stroke: #4c72b0; stroke-width: 1.5"/>
    <path d="M 215.229534 145.44 
L 215.229534 126.336175 
" clip-path="url(#pcf19859448)" style="fill: none; stroke: #4c72b0; stroke-width: 1.5"/>
    <path d="M 227.41104 145.44 
L 227.41104 120.444415 
" clip-path="url(#pcf19859448)" style="fill: none; stroke: #4c72b0; stroke-width: 1.5"/>
    <path d="M 239.592546 145.44 
L 239.592546 131.284536 
" clip-path="url(#pcf19859448)" style="fill: none; stroke: #4c72b0; stroke-width: 1.5"/>
    <path d="M 251.774053 145.44 
L 251.774053 143.803715 
" clip-path="url(#pcf19859448)" style="fill: none; stroke: #4c72b0; stroke-width: 1.5"/>
    <path d="M 263.955559 145.44 
L 263.955559 149.281249 
" clip-path="url(#pcf19859448)" style="fill: none; stroke: #4c72b0; stroke-width: 1.5"/>
    <path d="M 276.137065 145.44 
L 276.137065 156.414665 
" clip-path="url(#pcf19859448)" style="fill: none; stroke: #4c72b0; stroke-width: 1.5"/>
    <path d="M 288.318572 145.44 
L 288.318572 146.66055 
" clip-path="url(#pcf19859448)" style="fill: none; stroke: #4c72b0; stroke-width: 1.5"/>
    <path d="M 300.500078 145.44 
L 300.500078 143.389183 
" clip-path="url(#pcf19859448)" style="fill: none; stroke: #4c72b0; stroke-width: 1.5"/>
    <path d="M 312.681584 145.44 
L 312.681584 136.272271 
" clip-path="url(#pcf19859448)" style="fill: none; stroke: #4c72b0; stroke-width: 1.5"/>
    <path d="M 324.863091 145.44 
L 324.863091 144.101944 
" clip-path="url(#pcf19859448)" style="fill: none; stroke: #4c72b0; stroke-width: 1.5"/>
    <path d="M 337.044597 145.44 
L 337.044597 160.052266 
" clip-path="url(#pcf19859448)" style="fill: none; stroke: #4c72b0; stroke-width: 1.5"/>
    <path d="M 349.226103 145.44 
L 349.226103 158.36727 
" clip-path="url(#pcf19859448)" style="fill: none; stroke: #4c72b0; stroke-width: 1.5"/>
    <path d="M 361.40761 145.44 
L 361.40761 157.194212 
" clip-path="url(#pcf19859448)" style="fill: none; stroke: #4c72b0; stroke-width: 1.5"/>
    <path d="M 373.589116 145.44 
L 373.589116 158.459563 
" clip-path="url(#pcf19859448)" style="fill: none; stroke: #4c72b0; stroke-width: 1.5"/>
    <path d="M 385.770622 145.44 
L 385.770622 141.196508 
" clip-path="url(#pcf19859448)" style="fill: none; stroke: #4c72b0; stroke-width: 1.5"/>
    <path d="M 397.952128 145.44 
L 397.952128 144.893584 
" clip-path="url(#pcf19859448)" style="fill: none; stroke: #4c72b0; stroke-width: 1.5"/>
    <path d="M 410.133635 145.44 
L 410.133635 148.678667 
" clip-path="url(#pcf19859448)" style="fill: none; stroke: #4c72b0; stroke-width: 1.5"/>
    <path d="M 422.315141 145.44 
L 422.315141 157.673369 
" clip-path="url(#pcf19859448)" style="fill: none; stroke: #4c72b0; stroke-width: 1.5"/>
    <path d="M 434.496647 145.44 
L 434.496647 155.071734 
" clip-path="url(#pcf19859448)" style="fill: none; stroke: #4c72b0; stroke-width: 1.5"/>
    <path d="M 446.678154 145.44 
L 446.678154 155.156864 
" clip-path="url(#pcf19859448)" style="fill: none; stroke: #4c72b0; stroke-width: 1.5"/>
    <path d="M 458.85966 145.44 
L 458.85966 157.489071 
" clip-path="url(#pcf19859448)" style="fill: none; stroke: #4c72b0; stroke-width: 1.5"/>
   </g>
   <g id="line2d_16">
    <path d="M 126 145.44 
L 481.090909 145.44 
" clip-path="url(#pcf19859448)" style="fill: none; stroke: #4c72b0; stroke-width: 1.5; stroke-linecap: round"/>
   </g>
   <g id="line2d_17">
    <defs>
     <path id="m5a4fb5b986" d="M 0 2.5 
C 0.663008 2.5 1.29895 2.236584 1.767767 1.767767 
C 2.236584 1.29895 2.5 0.663008 2.5 0 
C 2.5 -0.663008 2.236584 -1.29895 1.767767 -1.767767 
C 1.29895 -2.236584 0.663008 -2.5 0 -2.5 
C -0.663008 -2.5 -1.29895 -2.236584 -1.767767 -1.767767 
C -2.236584 -1.29895 -2.5 -0.663008 -2.5 0 
C -2.5 0.663008 -2.236584 1.29895 -1.767767 1.767767 
C -1.29895 2.236584 -0.663008 2.5 0 2.5 
z
" style="stroke: #4c72b0"/>
    </defs>
    <g clip-path="url(#pcf19859448)">
     <use xlink:href="#m5a4fb5b986" x="142.140496" y="34.56" style="fill: #4c72b0; stroke: #4c72b0"/>
     <use xlink:href="#m5a4fb5b986" x="154.322002" y="116.831205" style="fill: #4c72b0; stroke: #4c72b0"/>
     <use xlink:href="#m5a4fb5b986" x="166.503508" y="123.782659" style="fill: #4c72b0; stroke: #4c72b0"/>
     <use xlink:href="#m5a4fb5b986" x="178.685015" y="132.651053" style="fill: #4c72b0; stroke: #4c72b0"/>
     <use xlink:href="#m5a4fb5b986" x="190.866521" y="134.804921" style="fill: #4c72b0; stroke: #4c72b0"/>
     <use xlink:href="#m5a4fb5b986" x="203.048027" y="135.426108" style="fill: #4c72b0; stroke: #4c72b0"/>
     <use xlink:href="#m5a4fb5b986" x="215.229534" y="126.336175" style="fill: #4c72b0; stroke: #4c72b0"/>
     <use xlink:href="#m5a4fb5b986" x="227.41104" y="120.444415" style="fill: #4c72b0; stroke: #4c72b0"/>
     <use xlink:href="#m5a4fb5b986" x="239.592546" y="131.284536" style="fill: #4c72b0; stroke: #4c72b0"/>
     <use xlink:href="#m5a4fb5b986" x="251.774053" y="143.803715" style="fill: #4c72b0; stroke: #4c72b0"/>
     <use xlink:href="#m5a4fb5b986" x="263.955559" y="149.281249" style="fill: #4c72b0; stroke: #4c72b0"/>
     <use xlink:href="#m5a4fb5b986" x="276.137065" y="156.414665" style="fill: #4c72b0; stroke: #4c72b0"/>
     <use xlink:href="#m5a4fb5b986" x="288.318572" y="146.66055" style="fill: #4c72b0; stroke: #4c72b0"/>
     <use xlink:href="#m5a4fb5b986" x="300.500078" y="143.389183" style="fill: #4c72b0; stroke: #4c72b0"/>
     <use xlink:href="#m5a4fb5b986" x="312.681584" y="136.272271" style="fill: #4c72b0; stroke: #4c72b0"/>
     <use xlink:href="#m5a4fb5b986" x="324.863091" y="144.101944" style="fill: #4c72b0; stroke: #4c72b0"/>
     <use xlink:href="#m5a4fb5b986" x="337.044597" y="160.052266" style="fill: #4c72b0; stroke: #4c72b0"/>
     <use xlink:href="#m5a4fb5b986" x="349.226103" y="158.36727" style="fill: #4c72b0; stroke: #4c72b0"/>
     <use xlink:href="#m5a4fb5b986" x="361.40761" y="157.194212" style="fill: #4c72b0; stroke: #4c72b0"/>
     <use xlink:href="#m5a4fb5b986" x="373.589116" y="158.459563" style="fill: #4c72b0; stroke: #4c72b0"/>
     <use xlink:href="#m5a4fb5b986" x="385.770622" y="141.196508" style="fill: #4c72b0; stroke: #4c72b0"/>
     <use xlink:href="#m5a4fb5b986" x="397.952128" y="144.893584" style="fill: #4c72b0; stroke: #4c72b0"/>
     <use xlink:href="#m5a4fb5b986" x="410.133635" y="148.678667" style="fill: #4c72b0; stroke: #4c72b0"/>
     <use xlink:href="#m5a4fb5b986" x="422.315141" y="157.673369" style="fill: #4c72b0; stroke: #4c72b0"/>
     <use xlink:href="#m5a4fb5b986" x="434.496647" y="155.071734" style="fill: #4c72b0; stroke: #4c72b0"/>
     <use xlink:href="#m5a4fb5b986" x="446.678154" y="155.156864" style="fill: #4c72b0; stroke: #4c72b0"/>
     <use xlink:href="#m5a4fb5b986" x="458.85966" y="157.489071" style="fill: #4c72b0; stroke: #4c72b0"/>
    </g>
   </g>
   <g id="patch_3">
    <path d="M 126 256.32 
L 126 34.56 
" style="fill: none; stroke: #cccccc; stroke-width: 1.25; stroke-linejoin: miter; stroke-linecap: square"/>
   </g>
   <g id="patch_4">
    <path d="M 481.090909 256.32 
L 481.090909 34.56 
" style="fill: none; stroke: #cccccc; stroke-width: 1.25; stroke-linejoin: miter; stroke-linecap: square"/>
   </g>
   <g id="patch_5">
    <path d="M 126 256.32 
L 481.090909 256.32 
" style="fill: none; stroke: #cccccc; stroke-width: 1.25; stroke-linejoin: miter; stroke-linecap: square"/>
   </g>
   <g id="patch_6">
    <path d="M 126 34.56 
L 481.090909 34.56 
" style="fill: none; stroke: #cccccc; stroke-width: 1.25; stroke-linejoin: miter; stroke-linecap: square"/>
   </g>
   <g id="text_16">
    <!-- ACF -->
    <g style="fill: #262626" transform="translate(292.745455 28.56) scale(0.144 -0.144)">
     <defs>
      <path id="SimHei-41" d="M 3075 125 
L 2475 125 
L 2125 1450 
L 1025 1450 
L 675 125 
L 75 125 
L 1325 4450 
L 1825 4450 
L 3075 125 
z
M 2000 1925 
L 1600 3450 
L 1550 3450 
L 1150 1925 
L 2000 1925 
z
" transform="scale(0.015625)"/>
      <path id="SimHei-43" d="M 2975 1825 
Q 2950 875 2575 475 
Q 2200 75 1675 75 
Q 1075 75 650 562 
Q 225 1050 225 2125 
Q 225 3300 637 3875 
Q 1050 4450 1700 4450 
Q 2250 4450 2612 4037 
Q 2975 3625 2950 2875 
L 2400 2875 
Q 2400 3425 2225 3700 
Q 2050 3975 1700 3975 
Q 1300 3975 1062 3562 
Q 825 3150 825 2175 
Q 825 1275 1062 912 
Q 1300 550 1675 550 
Q 1950 550 2175 812 
Q 2400 1075 2400 1825 
L 2975 1825 
z
" transform="scale(0.015625)"/>
      <path id="SimHei-46" d="M 2925 3925 
L 875 3925 
L 875 2525 
L 2425 2525 
L 2425 2050 
L 875 2050 
L 875 125 
L 300 125 
L 300 4400 
L 2925 4400 
L 2925 3925 
z
" transform="scale(0.015625)"/>
     </defs>
     <use xlink:href="#SimHei-41"/>
     <use xlink:href="#SimHei-43" x="50"/>
     <use xlink:href="#SimHei-46" x="100"/>
    </g>
   </g>
  </g>
  <g id="axes_2">
   <g id="patch_7">
    <path d="M 552.109091 256.32 
L 907.2 256.32 
L 907.2 34.56 
L 552.109091 34.56 
z
" style="fill: #ffffff"/>
   </g>
   <g id="matplotlib.axis_3">
    <g id="xtick_7">
     <g id="line2d_18">
      <path d="M 568.249587 256.32 
L 568.249587 34.56 
" clip-path="url(#p3322d930fc)" style="fill: none; stroke: #cccccc; stroke-linecap: round"/>
     </g>
     <g id="text_17">
      <!-- 0 -->
      <g style="fill: #262626" transform="translate(564.949587 274.895) scale(0.132 -0.132)">
       <use xlink:href="#SimHei-30"/>
      </g>
     </g>
    </g>
    <g id="xtick_8">
     <g id="line2d_19">
      <path d="M 629.157118 256.32 
L 629.157118 34.56 
" clip-path="url(#p3322d930fc)" style="fill: none; stroke: #cccccc; stroke-linecap: round"/>
     </g>
     <g id="text_18">
      <!-- 5 -->
      <g style="fill: #262626" transform="translate(625.857118 274.895) scale(0.132 -0.132)">
       <use xlink:href="#SimHei-35"/>
      </g>
     </g>
    </g>
    <g id="xtick_9">
     <g id="line2d_20">
      <path d="M 690.06465 256.32 
L 690.06465 34.56 
" clip-path="url(#p3322d930fc)" style="fill: none; stroke: #cccccc; stroke-linecap: round"/>
     </g>
     <g id="text_19">
      <!-- 10 -->
      <g style="fill: #262626" transform="translate(683.46465 274.895) scale(0.132 -0.132)">
       <use xlink:href="#SimHei-31"/>
       <use xlink:href="#SimHei-30" x="50"/>
      </g>
     </g>
    </g>
    <g id="xtick_10">
     <g id="line2d_21">
      <path d="M 750.972182 256.32 
L 750.972182 34.56 
" clip-path="url(#p3322d930fc)" style="fill: none; stroke: #cccccc; stroke-linecap: round"/>
     </g>
     <g id="text_20">
      <!-- 15 -->
      <g style="fill: #262626" transform="translate(744.372182 274.895) scale(0.132 -0.132)">
       <use xlink:href="#SimHei-31"/>
       <use xlink:href="#SimHei-35" x="50"/>
      </g>
     </g>
    </g>
    <g id="xtick_11">
     <g id="line2d_22">
      <path d="M 811.879713 256.32 
L 811.879713 34.56 
" clip-path="url(#p3322d930fc)" style="fill: none; stroke: #cccccc; stroke-linecap: round"/>
     </g>
     <g id="text_21">
      <!-- 20 -->
      <g style="fill: #262626" transform="translate(805.279713 274.895) scale(0.132 -0.132)">
       <use xlink:href="#SimHei-32"/>
       <use xlink:href="#SimHei-30" x="50"/>
      </g>
     </g>
    </g>
    <g id="xtick_12">
     <g id="line2d_23">
      <path d="M 872.787245 256.32 
L 872.787245 34.56 
" clip-path="url(#p3322d930fc)" style="fill: none; stroke: #cccccc; stroke-linecap: round"/>
     </g>
     <g id="text_22">
      <!-- 25 -->
      <g style="fill: #262626" transform="translate(866.187245 274.895) scale(0.132 -0.132)">
       <use xlink:href="#SimHei-32"/>
       <use xlink:href="#SimHei-35" x="50"/>
      </g>
     </g>
    </g>
   </g>
   <g id="matplotlib.axis_4">
    <g id="ytick_10">
     <g id="line2d_24">
      <path d="M 552.109091 256.32 
L 907.2 256.32 
" clip-path="url(#p3322d930fc)" style="fill: none; stroke: #cccccc; stroke-linecap: round"/>
     </g>
     <g id="text_23">
      <!-- -1.00 -->
      <g style="fill: #262626" transform="translate(509.609091 260.8575) scale(0.132 -0.132)">
       <use xlink:href="#SimHei-2d"/>
       <use xlink:href="#SimHei-31" x="50"/>
       <use xlink:href="#SimHei-2e" x="100"/>
       <use xlink:href="#SimHei-30" x="150"/>
       <use xlink:href="#SimHei-30" x="200"/>
      </g>
     </g>
    </g>
    <g id="ytick_11">
     <g id="line2d_25">
      <path d="M 552.109091 228.6 
L 907.2 228.6 
" clip-path="url(#p3322d930fc)" style="fill: none; stroke: #cccccc; stroke-linecap: round"/>
     </g>
     <g id="text_24">
      <!-- -0.75 -->
      <g style="fill: #262626" transform="translate(509.609091 233.1375) scale(0.132 -0.132)">
       <use xlink:href="#SimHei-2d"/>
       <use xlink:href="#SimHei-30" x="50"/>
       <use xlink:href="#SimHei-2e" x="100"/>
       <use xlink:href="#SimHei-37" x="150"/>
       <use xlink:href="#SimHei-35" x="200"/>
      </g>
     </g>
    </g>
    <g id="ytick_12">
     <g id="line2d_26">
      <path d="M 552.109091 200.88 
L 907.2 200.88 
" clip-path="url(#p3322d930fc)" style="fill: none; stroke: #cccccc; stroke-linecap: round"/>
     </g>
     <g id="text_25">
      <!-- -0.50 -->
      <g style="fill: #262626" transform="translate(509.609091 205.4175) scale(0.132 -0.132)">
       <use xlink:href="#SimHei-2d"/>
       <use xlink:href="#SimHei-30" x="50"/>
       <use xlink:href="#SimHei-2e" x="100"/>
       <use xlink:href="#SimHei-35" x="150"/>
       <use xlink:href="#SimHei-30" x="200"/>
      </g>
     </g>
    </g>
    <g id="ytick_13">
     <g id="line2d_27">
      <path d="M 552.109091 173.16 
L 907.2 173.16 
" clip-path="url(#p3322d930fc)" style="fill: none; stroke: #cccccc; stroke-linecap: round"/>
     </g>
     <g id="text_26">
      <!-- -0.25 -->
      <g style="fill: #262626" transform="translate(509.609091 177.6975) scale(0.132 -0.132)">
       <use xlink:href="#SimHei-2d"/>
       <use xlink:href="#SimHei-30" x="50"/>
       <use xlink:href="#SimHei-2e" x="100"/>
       <use xlink:href="#SimHei-32" x="150"/>
       <use xlink:href="#SimHei-35" x="200"/>
      </g>
     </g>
    </g>
    <g id="ytick_14">
     <g id="line2d_28">
      <path d="M 552.109091 145.44 
L 907.2 145.44 
" clip-path="url(#p3322d930fc)" style="fill: none; stroke: #cccccc; stroke-linecap: round"/>
     </g>
     <g id="text_27">
      <!-- 0.00 -->
      <g style="fill: #262626" transform="translate(516.209091 149.9775) scale(0.132 -0.132)">
       <use xlink:href="#SimHei-30"/>
       <use xlink:href="#SimHei-2e" x="50"/>
       <use xlink:href="#SimHei-30" x="100"/>
       <use xlink:href="#SimHei-30" x="150"/>
      </g>
     </g>
    </g>
    <g id="ytick_15">
     <g id="line2d_29">
      <path d="M 552.109091 117.72 
L 907.2 117.72 
" clip-path="url(#p3322d930fc)" style="fill: none; stroke: #cccccc; stroke-linecap: round"/>
     </g>
     <g id="text_28">
      <!-- 0.25 -->
      <g style="fill: #262626" transform="translate(516.209091 122.2575) scale(0.132 -0.132)">
       <use xlink:href="#SimHei-30"/>
       <use xlink:href="#SimHei-2e" x="50"/>
       <use xlink:href="#SimHei-32" x="100"/>
       <use xlink:href="#SimHei-35" x="150"/>
      </g>
     </g>
    </g>
    <g id="ytick_16">
     <g id="line2d_30">
      <path d="M 552.109091 90 
L 907.2 90 
" clip-path="url(#p3322d930fc)" style="fill: none; stroke: #cccccc; stroke-linecap: round"/>
     </g>
     <g id="text_29">
      <!-- 0.50 -->
      <g style="fill: #262626" transform="translate(516.209091 94.5375) scale(0.132 -0.132)">
       <use xlink:href="#SimHei-30"/>
       <use xlink:href="#SimHei-2e" x="50"/>
       <use xlink:href="#SimHei-35" x="100"/>
       <use xlink:href="#SimHei-30" x="150"/>
      </g>
     </g>
    </g>
    <g id="ytick_17">
     <g id="line2d_31">
      <path d="M 552.109091 62.28 
L 907.2 62.28 
" clip-path="url(#p3322d930fc)" style="fill: none; stroke: #cccccc; stroke-linecap: round"/>
     </g>
     <g id="text_30">
      <!-- 0.75 -->
      <g style="fill: #262626" transform="translate(516.209091 66.8175) scale(0.132 -0.132)">
       <use xlink:href="#SimHei-30"/>
       <use xlink:href="#SimHei-2e" x="50"/>
       <use xlink:href="#SimHei-37" x="100"/>
       <use xlink:href="#SimHei-35" x="150"/>
      </g>
     </g>
    </g>
    <g id="ytick_18">
     <g id="line2d_32">
      <path d="M 552.109091 34.56 
L 907.2 34.56 
" clip-path="url(#p3322d930fc)" style="fill: none; stroke: #cccccc; stroke-linecap: round"/>
     </g>
     <g id="text_31">
      <!-- 1.00 -->
      <g style="fill: #262626" transform="translate(516.209091 39.0975) scale(0.132 -0.132)">
       <use xlink:href="#SimHei-31"/>
       <use xlink:href="#SimHei-2e" x="50"/>
       <use xlink:href="#SimHei-30" x="100"/>
       <use xlink:href="#SimHei-30" x="150"/>
      </g>
     </g>
    </g>
   </g>
   <g id="PolyCollection_2">
    <defs>
     <path id="m8cc6d21168" d="M 574.34034 -153.857971 
L 574.34034 -131.262029 
L 592.612599 -131.262029 
L 604.794106 -131.262029 
L 616.975612 -131.262029 
L 629.157118 -131.262029 
L 641.338625 -131.262029 
L 653.520131 -131.262029 
L 665.701637 -131.262029 
L 677.883144 -131.262029 
L 690.06465 -131.262029 
L 702.246156 -131.262029 
L 714.427663 -131.262029 
L 726.609169 -131.262029 
L 738.790675 -131.262029 
L 750.972182 -131.262029 
L 763.153688 -131.262029 
L 775.335194 -131.262029 
L 787.5167 -131.262029 
L 799.698207 -131.262029 
L 811.879713 -131.262029 
L 824.061219 -131.262029 
L 836.242726 -131.262029 
L 848.424232 -131.262029 
L 860.605738 -131.262029 
L 872.787245 -131.262029 
L 891.059504 -131.262029 
L 891.059504 -153.857971 
L 891.059504 -153.857971 
L 872.787245 -153.857971 
L 860.605738 -153.857971 
L 848.424232 -153.857971 
L 836.242726 -153.857971 
L 824.061219 -153.857971 
L 811.879713 -153.857971 
L 799.698207 -153.857971 
L 787.5167 -153.857971 
L 775.335194 -153.857971 
L 763.153688 -153.857971 
L 750.972182 -153.857971 
L 738.790675 -153.857971 
L 726.609169 -153.857971 
L 714.427663 -153.857971 
L 702.246156 -153.857971 
L 690.06465 -153.857971 
L 677.883144 -153.857971 
L 665.701637 -153.857971 
L 653.520131 -153.857971 
L 641.338625 -153.857971 
L 629.157118 -153.857971 
L 616.975612 -153.857971 
L 604.794106 -153.857971 
L 592.612599 -153.857971 
L 574.34034 -153.857971 
z
" style="stroke: #ffffff; stroke-opacity: 0.25"/>
    </defs>
    <g clip-path="url(#p3322d930fc)">
     <use xlink:href="#m8cc6d21168" x="0" y="288" style="fill: #4c72b0; fill-opacity: 0.25; stroke: #ffffff; stroke-opacity: 0.25"/>
    </g>
   </g>
   <g id="LineCollection_2">
    <path d="M 568.249587 145.44 
L 568.249587 34.56 
" clip-path="url(#p3322d930fc)" style="fill: none; stroke: #4c72b0; stroke-width: 1.5"/>
    <path d="M 580.431093 145.44 
L 580.431093 116.753674 
" clip-path="url(#p3322d930fc)" style="fill: none; stroke: #4c72b0; stroke-width: 1.5"/>
    <path d="M 592.612599 145.44 
L 592.612599 130.056895 
" clip-path="url(#p3322d930fc)" style="fill: none; stroke: #4c72b0; stroke-width: 1.5"/>
    <path d="M 604.794106 145.44 
L 604.794106 141.001511 
" clip-path="url(#p3322d930fc)" style="fill: none; stroke: #4c72b0; stroke-width: 1.5"/>
    <path d="M 616.975612 145.44 
L 616.975612 141.089397 
" clip-path="url(#p3322d930fc)" style="fill: none; stroke: #4c72b0; stroke-width: 1.5"/>
    <path d="M 629.157118 145.44 
L 629.157118 140.603155 
" clip-path="url(#p3322d930fc)" style="fill: none; stroke: #4c72b0; stroke-width: 1.5"/>
    <path d="M 641.338625 145.44 
L 641.338625 130.411469 
" clip-path="url(#p3322d930fc)" style="fill: none; stroke: #4c72b0; stroke-width: 1.5"/>
    <path d="M 653.520131 145.44 
L 653.520131 127.976607 
" clip-path="url(#p3322d930fc)" style="fill: none; stroke: #4c72b0; stroke-width: 1.5"/>
    <path d="M 665.701637 145.44 
L 665.701637 144.95088 
" clip-path="url(#p3322d930fc)" style="fill: none; stroke: #4c72b0; stroke-width: 1.5"/>
    <path d="M 677.883144 145.44 
L 677.883144 156.097621 
" clip-path="url(#p3322d930fc)" style="fill: none; stroke: #4c72b0; stroke-width: 1.5"/>
    <path d="M 690.06465 145.44 
L 690.06465 154.8122 
" clip-path="url(#p3322d930fc)" style="fill: none; stroke: #4c72b0; stroke-width: 1.5"/>
    <path d="M 702.246156 145.44 
L 702.246156 158.287798 
" clip-path="url(#p3322d930fc)" style="fill: none; stroke: #4c72b0; stroke-width: 1.5"/>
    <path d="M 714.427663 145.44 
L 714.427663 143.493811 
" clip-path="url(#p3322d930fc)" style="fill: none; stroke: #4c72b0; stroke-width: 1.5"/>
    <path d="M 726.609169 145.44 
L 726.609169 144.133653 
" clip-path="url(#p3322d930fc)" style="fill: none; stroke: #4c72b0; stroke-width: 1.5"/>
    <path d="M 738.790675 145.44 
L 738.790675 138.644207 
" clip-path="url(#p3322d930fc)" style="fill: none; stroke: #4c72b0; stroke-width: 1.5"/>
    <path d="M 750.972182 145.44 
L 750.972182 147.545836 
" clip-path="url(#p3322d930fc)" style="fill: none; stroke: #4c72b0; stroke-width: 1.5"/>
    <path d="M 763.153688 145.44 
L 763.153688 161.901939 
" clip-path="url(#p3322d930fc)" style="fill: none; stroke: #4c72b0; stroke-width: 1.5"/>
    <path d="M 775.335194 145.44 
L 775.335194 149.346828 
" clip-path="url(#p3322d930fc)" style="fill: none; stroke: #4c72b0; stroke-width: 1.5"/>
    <path d="M 787.5167 145.44 
L 787.5167 145.634849 
" clip-path="url(#p3322d930fc)" style="fill: none; stroke: #4c72b0; stroke-width: 1.5"/>
    <path d="M 799.698207 145.44 
L 799.698207 152.495608 
" clip-path="url(#p3322d930fc)" style="fill: none; stroke: #4c72b0; stroke-width: 1.5"/>
    <path d="M 811.879713 145.44 
L 811.879713 134.449335 
" clip-path="url(#p3322d930fc)" style="fill: none; stroke: #4c72b0; stroke-width: 1.5"/>
    <path d="M 824.061219 145.44 
L 824.061219 146.897245 
" clip-path="url(#p3322d930fc)" style="fill: none; stroke: #4c72b0; stroke-width: 1.5"/>
    <path d="M 836.242726 145.44 
L 836.242726 148.571628 
" clip-path="url(#p3322d930fc)" style="fill: none; stroke: #4c72b0; stroke-width: 1.5"/>
    <path d="M 848.424232 145.44 
L 848.424232 150.59537 
" clip-path="url(#p3322d930fc)" style="fill: none; stroke: #4c72b0; stroke-width: 1.5"/>
    <path d="M 860.605738 145.44 
L 860.605738 144.960768 
" clip-path="url(#p3322d930fc)" style="fill: none; stroke: #4c72b0; stroke-width: 1.5"/>
    <path d="M 872.787245 145.44 
L 872.787245 144.978257 
" clip-path="url(#p3322d930fc)" style="fill: none; stroke: #4c72b0; stroke-width: 1.5"/>
    <path d="M 884.968751 145.44 
L 884.968751 154.72086 
" clip-path="url(#p3322d930fc)" style="fill: none; stroke: #4c72b0; stroke-width: 1.5"/>
   </g>
   <g id="line2d_33">
    <path d="M 552.109091 145.44 
L 907.2 145.44 
" clip-path="url(#p3322d930fc)" style="fill: none; stroke: #4c72b0; stroke-width: 1.5; stroke-linecap: round"/>
   </g>
   <g id="line2d_34">
    <g clip-path="url(#p3322d930fc)">
     <use xlink:href="#m5a4fb5b986" x="568.249587" y="34.56" style="fill: #4c72b0; stroke: #4c72b0"/>
     <use xlink:href="#m5a4fb5b986" x="580.431093" y="116.753674" style="fill: #4c72b0; stroke: #4c72b0"/>
     <use xlink:href="#m5a4fb5b986" x="592.612599" y="130.056895" style="fill: #4c72b0; stroke: #4c72b0"/>
     <use xlink:href="#m5a4fb5b986" x="604.794106" y="141.001511" style="fill: #4c72b0; stroke: #4c72b0"/>
     <use xlink:href="#m5a4fb5b986" x="616.975612" y="141.089397" style="fill: #4c72b0; stroke: #4c72b0"/>
     <use xlink:href="#m5a4fb5b986" x="629.157118" y="140.603155" style="fill: #4c72b0; stroke: #4c72b0"/>
     <use xlink:href="#m5a4fb5b986" x="641.338625" y="130.411469" style="fill: #4c72b0; stroke: #4c72b0"/>
     <use xlink:href="#m5a4fb5b986" x="653.520131" y="127.976607" style="fill: #4c72b0; stroke: #4c72b0"/>
     <use xlink:href="#m5a4fb5b986" x="665.701637" y="144.95088" style="fill: #4c72b0; stroke: #4c72b0"/>
     <use xlink:href="#m5a4fb5b986" x="677.883144" y="156.097621" style="fill: #4c72b0; stroke: #4c72b0"/>
     <use xlink:href="#m5a4fb5b986" x="690.06465" y="154.8122" style="fill: #4c72b0; stroke: #4c72b0"/>
     <use xlink:href="#m5a4fb5b986" x="702.246156" y="158.287798" style="fill: #4c72b0; stroke: #4c72b0"/>
     <use xlink:href="#m5a4fb5b986" x="714.427663" y="143.493811" style="fill: #4c72b0; stroke: #4c72b0"/>
     <use xlink:href="#m5a4fb5b986" x="726.609169" y="144.133653" style="fill: #4c72b0; stroke: #4c72b0"/>
     <use xlink:href="#m5a4fb5b986" x="738.790675" y="138.644207" style="fill: #4c72b0; stroke: #4c72b0"/>
     <use xlink:href="#m5a4fb5b986" x="750.972182" y="147.545836" style="fill: #4c72b0; stroke: #4c72b0"/>
     <use xlink:href="#m5a4fb5b986" x="763.153688" y="161.901939" style="fill: #4c72b0; stroke: #4c72b0"/>
     <use xlink:href="#m5a4fb5b986" x="775.335194" y="149.346828" style="fill: #4c72b0; stroke: #4c72b0"/>
     <use xlink:href="#m5a4fb5b986" x="787.5167" y="145.634849" style="fill: #4c72b0; stroke: #4c72b0"/>
     <use xlink:href="#m5a4fb5b986" x="799.698207" y="152.495608" style="fill: #4c72b0; stroke: #4c72b0"/>
     <use xlink:href="#m5a4fb5b986" x="811.879713" y="134.449335" style="fill: #4c72b0; stroke: #4c72b0"/>
     <use xlink:href="#m5a4fb5b986" x="824.061219" y="146.897245" style="fill: #4c72b0; stroke: #4c72b0"/>
     <use xlink:href="#m5a4fb5b986" x="836.242726" y="148.571628" style="fill: #4c72b0; stroke: #4c72b0"/>
     <use xlink:href="#m5a4fb5b986" x="848.424232" y="150.59537" style="fill: #4c72b0; stroke: #4c72b0"/>
     <use xlink:href="#m5a4fb5b986" x="860.605738" y="144.960768" style="fill: #4c72b0; stroke: #4c72b0"/>
     <use xlink:href="#m5a4fb5b986" x="872.787245" y="144.978257" style="fill: #4c72b0; stroke: #4c72b0"/>
     <use xlink:href="#m5a4fb5b986" x="884.968751" y="154.72086" style="fill: #4c72b0; stroke: #4c72b0"/>
    </g>
   </g>
   <g id="patch_8">
    <path d="M 552.109091 256.32 
L 552.109091 34.56 
" style="fill: none; stroke: #cccccc; stroke-width: 1.25; stroke-linejoin: miter; stroke-linecap: square"/>
   </g>
   <g id="patch_9">
    <path d="M 907.2 256.32 
L 907.2 34.56 
" style="fill: none; stroke: #cccccc; stroke-width: 1.25; stroke-linejoin: miter; stroke-linecap: square"/>
   </g>
   <g id="patch_10">
    <path d="M 552.109091 256.32 
L 907.2 256.32 
" style="fill: none; stroke: #cccccc; stroke-width: 1.25; stroke-linejoin: miter; stroke-linecap: square"/>
   </g>
   <g id="patch_11">
    <path d="M 552.109091 34.56 
L 907.2 34.56 
" style="fill: none; stroke: #cccccc; stroke-width: 1.25; stroke-linejoin: miter; stroke-linecap: square"/>
   </g>
   <g id="text_32">
    <!-- PACF -->
    <g style="fill: #262626" transform="translate(715.254545 28.56) scale(0.144 -0.144)">
     <defs>
      <path id="SimHei-50" d="M 2950 3100 
Q 2950 2500 2600 2150 
Q 2250 1800 1625 1800 
L 900 1800 
L 900 125 
L 325 125 
L 325 4400 
L 1625 4400 
Q 2250 4400 2600 4050 
Q 2950 3700 2950 3100 
z
M 2375 3100 
Q 2375 3575 2150 3750 
Q 1925 3925 1475 3925 
L 900 3925 
L 900 2275 
L 1475 2275 
Q 1925 2275 2150 2450 
Q 2375 2625 2375 3100 
z
" transform="scale(0.015625)"/>
     </defs>
     <use xlink:href="#SimHei-50"/>
     <use xlink:href="#SimHei-41" x="50"/>
     <use xlink:href="#SimHei-43" x="100"/>
     <use xlink:href="#SimHei-46" x="150"/>
    </g>
   </g>
  </g>
 </g>
 <defs>
  <clipPath id="pcf19859448">
   <rect x="126" y="34.56" width="355.090909" height="221.76"/>
  </clipPath>
  <clipPath id="p3322d930fc">
   <rect x="552.109091" y="34.56" width="355.090909" height="221.76"/>
  </clipPath>
 </defs>
</svg>
