<?xml version="1.0" encoding="utf-8" standalone="no"?>
<!DOCTYPE svg PUBLIC "-//W3C//DTD SVG 1.1//EN"
  "http://www.w3.org/Graphics/SVG/1.1/DTD/svg11.dtd">
<svg xmlns:xlink="http://www.w3.org/1999/xlink" width="1008pt" height="576pt" viewBox="0 0 1008 576" xmlns="http://www.w3.org/2000/svg" version="1.1">
 <metadata>
  <rdf:RDF xmlns:dc="http://purl.org/dc/elements/1.1/" xmlns:cc="http://creativecommons.org/ns#" xmlns:rdf="http://www.w3.org/1999/02/22-rdf-syntax-ns#">
   <cc:Work>
    <dc:type rdf:resource="http://purl.org/dc/dcmitype/StillImage"/>
    <dc:date>2023-04-14T15:37:27.527258</dc:date>
    <dc:format>image/svg+xml</dc:format>
    <dc:creator>
     <cc:Agent>
      <dc:title>Matplotlib v3.7.1, https://matplotlib.org/</dc:title>
     </cc:Agent>
    </dc:creator>
   </cc:Work>
  </rdf:RDF>
 </metadata>
 <defs>
  <style type="text/css">*{stroke-linejoin: round; stroke-linecap: butt}</style>
 </defs>
 <g id="figure_1">
  <g id="patch_1">
   <path d="M 0 576 
L 1008 576 
L 1008 0 
L 0 0 
z
" style="fill: #ffffff"/>
  </g>
  <g id="axes_1">
   <g id="patch_2">
    <path d="M 58.352 540.148 
L 992.448 540.148 
L 992.448 15.552 
L 58.352 15.552 
z
" style="fill: #ffffff"/>
   </g>
   <g id="matplotlib.axis_1">
    <g id="xtick_1">
     <g id="line2d_1">
      <path d="M 100.810909 540.148 
L 100.810909 15.552 
" clip-path="url(#p3d1fb490d4)" style="fill: none; stroke: #cccccc; stroke-linecap: round"/>
     </g>
     <g id="text_1">
      <!-- 0 -->
      <g style="fill: #262626" transform="translate(97.510909 558.723) scale(0.132 -0.132)">
       <defs>
        <path id="SimHei-30" d="M 225 2537 
Q 250 3200 412 3587 
Q 575 3975 875 4225 
Q 1175 4475 1612 4475 
Q 2050 4475 2375 4112 
Q 2700 3750 2800 3200 
Q 2900 2650 2862 1937 
Q 2825 1225 2612 775 
Q 2400 325 1975 150 
Q 1550 -25 1125 187 
Q 700 400 525 750 
Q 350 1100 275 1487 
Q 200 1875 225 2537 
z
M 750 2687 
Q 675 2000 800 1462 
Q 925 925 1212 700 
Q 1500 475 1800 612 
Q 2100 750 2237 1162 
Q 2375 1575 2375 2062 
Q 2375 2550 2337 2950 
Q 2300 3350 2112 3675 
Q 1925 4000 1612 4012 
Q 1300 4025 1062 3700 
Q 825 3375 750 2687 
z
" transform="scale(0.015625)"/>
       </defs>
       <use xlink:href="#SimHei-30"/>
      </g>
     </g>
    </g>
    <g id="xtick_2">
     <g id="line2d_2">
      <path d="M 215.875703 540.148 
L 215.875703 15.552 
" clip-path="url(#p3d1fb490d4)" style="fill: none; stroke: #cccccc; stroke-linecap: round"/>
     </g>
     <g id="text_2">
      <!-- 50 -->
      <g style="fill: #262626" transform="translate(209.275703 558.723) scale(0.132 -0.132)">
       <defs>
        <path id="SimHei-35" d="M 550 1325 
Q 725 650 1150 575 
Q 1575 500 1837 662 
Q 2100 825 2212 1087 
Q 2325 1350 2312 1675 
Q 2300 2000 2137 2225 
Q 1975 2450 1725 2525 
Q 1475 2600 1162 2525 
Q 850 2450 650 2175 
L 225 2225 
Q 275 2375 700 4375 
L 2675 4375 
L 2675 3925 
L 1075 3925 
Q 950 3250 825 2850 
Q 1200 3025 1525 3012 
Q 1850 3000 2150 2862 
Q 2450 2725 2587 2487 
Q 2725 2250 2787 2012 
Q 2850 1775 2837 1500 
Q 2825 1225 2725 937 
Q 2625 650 2425 462 
Q 2225 275 1937 162 
Q 1650 50 1275 75 
Q 900 100 562 350 
Q 225 600 100 1200 
L 550 1325 
z
" transform="scale(0.015625)"/>
       </defs>
       <use xlink:href="#SimHei-35"/>
       <use xlink:href="#SimHei-30" x="50"/>
      </g>
     </g>
    </g>
    <g id="xtick_3">
     <g id="line2d_3">
      <path d="M 330.940498 540.148 
L 330.940498 15.552 
" clip-path="url(#p3d1fb490d4)" style="fill: none; stroke: #cccccc; stroke-linecap: round"/>
     </g>
     <g id="text_3">
      <!-- 100 -->
      <g style="fill: #262626" transform="translate(321.040498 558.723) scale(0.132 -0.132)">
       <defs>
        <path id="SimHei-31" d="M 1400 3600 
Q 1075 3275 575 2975 
L 575 3450 
Q 1200 3875 1600 4450 
L 1900 4450 
L 1900 150 
L 1400 150 
L 1400 3600 
z
" transform="scale(0.015625)"/>
       </defs>
       <use xlink:href="#SimHei-31"/>
       <use xlink:href="#SimHei-30" x="50"/>
       <use xlink:href="#SimHei-30" x="100"/>
      </g>
     </g>
    </g>
    <g id="xtick_4">
     <g id="line2d_4">
      <path d="M 446.005292 540.148 
L 446.005292 15.552 
" clip-path="url(#p3d1fb490d4)" style="fill: none; stroke: #cccccc; stroke-linecap: round"/>
     </g>
     <g id="text_4">
      <!-- 150 -->
      <g style="fill: #262626" transform="translate(436.105292 558.723) scale(0.132 -0.132)">
       <use xlink:href="#SimHei-31"/>
       <use xlink:href="#SimHei-35" x="50"/>
       <use xlink:href="#SimHei-30" x="100"/>
      </g>
     </g>
    </g>
    <g id="xtick_5">
     <g id="line2d_5">
      <path d="M 561.070086 540.148 
L 561.070086 15.552 
" clip-path="url(#p3d1fb490d4)" style="fill: none; stroke: #cccccc; stroke-linecap: round"/>
     </g>
     <g id="text_5">
      <!-- 200 -->
      <g style="fill: #262626" transform="translate(551.170086 558.723) scale(0.132 -0.132)">
       <defs>
        <path id="SimHei-32" d="M 300 250 
Q 325 625 650 925 
Q 975 1225 1475 1862 
Q 1975 2500 2125 2850 
Q 2275 3200 2237 3450 
Q 2200 3700 2000 3862 
Q 1800 4025 1537 4000 
Q 1275 3975 1037 3800 
Q 800 3625 675 3275 
L 200 3350 
Q 400 3925 712 4187 
Q 1025 4450 1450 4475 
Q 1700 4500 1900 4462 
Q 2100 4425 2312 4287 
Q 2525 4150 2662 3875 
Q 2800 3600 2762 3212 
Q 2725 2825 2375 2287 
Q 2025 1750 1025 600 
L 2825 600 
L 2825 150 
L 300 150 
L 300 250 
z
" transform="scale(0.015625)"/>
       </defs>
       <use xlink:href="#SimHei-32"/>
       <use xlink:href="#SimHei-30" x="50"/>
       <use xlink:href="#SimHei-30" x="100"/>
      </g>
     </g>
    </g>
    <g id="xtick_6">
     <g id="line2d_6">
      <path d="M 676.134881 540.148 
L 676.134881 15.552 
" clip-path="url(#p3d1fb490d4)" style="fill: none; stroke: #cccccc; stroke-linecap: round"/>
     </g>
     <g id="text_6">
      <!-- 250 -->
      <g style="fill: #262626" transform="translate(666.234881 558.723) scale(0.132 -0.132)">
       <use xlink:href="#SimHei-32"/>
       <use xlink:href="#SimHei-35" x="50"/>
       <use xlink:href="#SimHei-30" x="100"/>
      </g>
     </g>
    </g>
    <g id="xtick_7">
     <g id="line2d_7">
      <path d="M 791.199675 540.148 
L 791.199675 15.552 
" clip-path="url(#p3d1fb490d4)" style="fill: none; stroke: #cccccc; stroke-linecap: round"/>
     </g>
     <g id="text_7">
      <!-- 300 -->
      <g style="fill: #262626" transform="translate(781.299675 558.723) scale(0.132 -0.132)">
       <defs>
        <path id="SimHei-33" d="M 250 1225 
L 700 1300 
Q 800 975 1025 762 
Q 1250 550 1587 562 
Q 1925 575 2125 837 
Q 2325 1100 2300 1437 
Q 2275 1775 2037 1962 
Q 1800 2150 1275 2225 
L 1275 2550 
Q 1800 2600 2037 2825 
Q 2275 3050 2250 3412 
Q 2225 3775 1925 3937 
Q 1625 4100 1287 3975 
Q 950 3850 750 3275 
L 300 3350 
Q 450 3800 712 4100 
Q 975 4400 1425 4450 
Q 1875 4500 2212 4337 
Q 2550 4175 2687 3837 
Q 2825 3500 2725 3100 
Q 2625 2700 2150 2400 
Q 2500 2250 2687 1950 
Q 2875 1650 2812 1162 
Q 2750 675 2375 375 
Q 2000 75 1525 87 
Q 1050 100 700 387 
Q 350 675 250 1225 
z
" transform="scale(0.015625)"/>
       </defs>
       <use xlink:href="#SimHei-33"/>
       <use xlink:href="#SimHei-30" x="50"/>
       <use xlink:href="#SimHei-30" x="100"/>
      </g>
     </g>
    </g>
    <g id="xtick_8">
     <g id="line2d_8">
      <path d="M 906.264469 540.148 
L 906.264469 15.552 
" clip-path="url(#p3d1fb490d4)" style="fill: none; stroke: #cccccc; stroke-linecap: round"/>
     </g>
     <g id="text_8">
      <!-- 350 -->
      <g style="fill: #262626" transform="translate(896.364469 558.723) scale(0.132 -0.132)">
       <use xlink:href="#SimHei-33"/>
       <use xlink:href="#SimHei-35" x="50"/>
       <use xlink:href="#SimHei-30" x="100"/>
      </g>
     </g>
    </g>
   </g>
   <g id="matplotlib.axis_2">
    <g id="ytick_1">
     <g id="line2d_9">
      <path d="M 58.352 516.349578 
L 992.448 516.349578 
" clip-path="url(#p3d1fb490d4)" style="fill: none; stroke: #cccccc; stroke-linecap: round"/>
     </g>
     <g id="text_9">
      <!-- 0 -->
      <g style="fill: #262626" transform="translate(42.252 520.887078) scale(0.132 -0.132)">
       <use xlink:href="#SimHei-30"/>
      </g>
     </g>
    </g>
    <g id="ytick_2">
     <g id="line2d_10">
      <path d="M 58.352 438.26564 
L 992.448 438.26564 
" clip-path="url(#p3d1fb490d4)" style="fill: none; stroke: #cccccc; stroke-linecap: round"/>
     </g>
     <g id="text_10">
      <!-- 5000 -->
      <g style="fill: #262626" transform="translate(22.452 442.80314) scale(0.132 -0.132)">
       <use xlink:href="#SimHei-35"/>
       <use xlink:href="#SimHei-30" x="50"/>
       <use xlink:href="#SimHei-30" x="100"/>
       <use xlink:href="#SimHei-30" x="150"/>
      </g>
     </g>
    </g>
    <g id="ytick_3">
     <g id="line2d_11">
      <path d="M 58.352 360.181703 
L 992.448 360.181703 
" clip-path="url(#p3d1fb490d4)" style="fill: none; stroke: #cccccc; stroke-linecap: round"/>
     </g>
     <g id="text_11">
      <!-- 10000 -->
      <g style="fill: #262626" transform="translate(15.852 364.719203) scale(0.132 -0.132)">
       <use xlink:href="#SimHei-31"/>
       <use xlink:href="#SimHei-30" x="50"/>
       <use xlink:href="#SimHei-30" x="100"/>
       <use xlink:href="#SimHei-30" x="150"/>
       <use xlink:href="#SimHei-30" x="200"/>
      </g>
     </g>
    </g>
    <g id="ytick_4">
     <g id="line2d_12">
      <path d="M 58.352 282.097766 
L 992.448 282.097766 
" clip-path="url(#p3d1fb490d4)" style="fill: none; stroke: #cccccc; stroke-linecap: round"/>
     </g>
     <g id="text_12">
      <!-- 15000 -->
      <g style="fill: #262626" transform="translate(15.852 286.635266) scale(0.132 -0.132)">
       <use xlink:href="#SimHei-31"/>
       <use xlink:href="#SimHei-35" x="50"/>
       <use xlink:href="#SimHei-30" x="100"/>
       <use xlink:href="#SimHei-30" x="150"/>
       <use xlink:href="#SimHei-30" x="200"/>
      </g>
     </g>
    </g>
    <g id="ytick_5">
     <g id="line2d_13">
      <path d="M 58.352 204.013829 
L 992.448 204.013829 
" clip-path="url(#p3d1fb490d4)" style="fill: none; stroke: #cccccc; stroke-linecap: round"/>
     </g>
     <g id="text_13">
      <!-- 20000 -->
      <g style="fill: #262626" transform="translate(15.852 208.551329) scale(0.132 -0.132)">
       <use xlink:href="#SimHei-32"/>
       <use xlink:href="#SimHei-30" x="50"/>
       <use xlink:href="#SimHei-30" x="100"/>
       <use xlink:href="#SimHei-30" x="150"/>
       <use xlink:href="#SimHei-30" x="200"/>
      </g>
     </g>
    </g>
    <g id="ytick_6">
     <g id="line2d_14">
      <path d="M 58.352 125.929892 
L 992.448 125.929892 
" clip-path="url(#p3d1fb490d4)" style="fill: none; stroke: #cccccc; stroke-linecap: round"/>
     </g>
     <g id="text_14">
      <!-- 25000 -->
      <g style="fill: #262626" transform="translate(15.852 130.467392) scale(0.132 -0.132)">
       <use xlink:href="#SimHei-32"/>
       <use xlink:href="#SimHei-35" x="50"/>
       <use xlink:href="#SimHei-30" x="100"/>
       <use xlink:href="#SimHei-30" x="150"/>
       <use xlink:href="#SimHei-30" x="200"/>
      </g>
     </g>
    </g>
    <g id="ytick_7">
     <g id="line2d_15">
      <path d="M 58.352 47.845955 
L 992.448 47.845955 
" clip-path="url(#p3d1fb490d4)" style="fill: none; stroke: #cccccc; stroke-linecap: round"/>
     </g>
     <g id="text_15">
      <!-- 30000 -->
      <g style="fill: #262626" transform="translate(15.852 52.383455) scale(0.132 -0.132)">
       <use xlink:href="#SimHei-33"/>
       <use xlink:href="#SimHei-30" x="50"/>
       <use xlink:href="#SimHei-30" x="100"/>
       <use xlink:href="#SimHei-30" x="150"/>
       <use xlink:href="#SimHei-30" x="200"/>
      </g>
     </g>
    </g>
   </g>
   <g id="line2d_16">
    <path d="M 100.810909 515.75614 
L 103.112205 515.506271 
L 105.413501 516.224643 
L 112.317389 516.28711 
L 114.618684 516.068475 
L 116.91998 515.240786 
L 119.221276 516.302727 
L 121.522572 516.006008 
L 126.125164 355.184331 
L 128.42646 395.038373 
L 130.727756 439.561834 
L 133.029051 279.927033 
L 135.330347 361.89955 
L 137.631643 289.656291 
L 139.932939 295.10655 
L 142.234235 363.102043 
L 144.535531 368.989571 
L 146.836827 435.923122 
L 149.138123 284.049865 
L 151.439419 285.939496 
L 153.740714 369.255057 
L 156.04201 307.334495 
L 158.343306 140.984475 
L 160.644602 320.358895 
L 162.945898 344.908485 
L 165.247194 385.199797 
L 167.54849 379.265418 
L 169.849786 297.745787 
L 172.151082 317.376089 
L 174.452377 333.149044 
L 176.753673 419.572346 
L 179.054969 468.452891 
L 181.356265 506.963888 
L 183.657561 477.760496 
L 185.958857 430.316696 
L 188.260153 446.589388 
L 190.561449 410.405292 
L 192.862745 396.069081 
L 195.16404 404.689548 
L 197.465336 420.821689 
L 202.067928 321.733173 
L 204.369224 308.786856 
L 208.971816 451.53991 
L 211.273112 424.41355 
L 213.574407 371.347706 
L 215.875703 332.14957 
L 218.176999 359.447714 
L 220.478295 385.028012 
L 222.779591 298.60471 
L 225.080887 358.666875 
L 227.382183 439.905403 
L 229.683479 241.837688 
L 231.984775 357.604933 
L 234.28607 39.397273 
L 236.587366 213.24335 
L 238.888662 312.675436 
L 241.189958 360.19732 
L 243.491254 430.582181 
L 245.79255 441.420232 
L 248.093846 309.755097 
L 250.395142 317.001286 
L 252.696438 356.839711 
L 254.997733 188.006622 
L 257.299029 431.769057 
L 259.600325 320.202728 
L 261.901621 327.339599 
L 264.202917 401.050836 
L 266.504213 385.62145 
L 268.805509 300.431875 
L 271.106805 333.570698 
L 273.408101 423.882579 
L 275.709396 429.457772 
L 278.010692 384.996779 
L 280.311988 296.027941 
L 282.613284 417.323529 
L 284.91458 370.129597 
L 287.215876 273.898953 
L 289.517172 372.30033 
L 291.818468 403.955558 
L 294.119763 449.40041 
L 296.421059 300.228856 
L 298.722355 441.904352 
L 301.023651 432.643597 
L 303.324947 320.905483 
L 305.626243 433.799239 
L 307.927539 479.603277 
L 310.228835 388.947826 
L 312.530131 434.939265 
L 314.831426 308.989874 
L 317.132722 354.372258 
L 319.434018 305.944601 
L 321.735314 413.263164 
L 324.03661 416.995576 
L 326.337906 403.736923 
L 328.639202 453.273373 
L 333.241794 404.923799 
L 335.543089 348.687748 
L 337.844385 420.946623 
L 340.145681 434.158425 
L 342.446977 350.749164 
L 344.748273 447.760647 
L 347.049569 331.431198 
L 349.350865 373.986943 
L 351.652161 293.576105 
L 353.953457 418.38547 
L 356.254752 459.910508 
L 358.556048 382.341925 
L 360.857344 265.950008 
L 363.15864 298.261141 
L 365.459936 204.919603 
L 367.761232 360.166087 
L 370.062528 346.766883 
L 372.363824 408.734295 
L 374.665119 293.74789 
L 376.966415 387.448614 
L 379.267711 293.295003 
L 381.569007 274.320606 
L 383.870303 451.040173 
L 386.171599 449.150541 
L 388.472895 430.472864 
L 390.774191 419.010142 
L 393.075487 419.69728 
L 395.376782 308.03725 
L 397.678078 321.530154 
L 399.979374 346.251529 
L 402.28067 319.874775 
L 404.581966 407.875372 
L 406.883262 309.520845 
L 409.184558 296.918097 
L 411.485854 409.593219 
L 413.78715 329.244847 
L 416.088445 333.617548 
L 418.389741 450.649753 
L 420.691037 444.059469 
L 422.992333 269.057749 
L 425.293629 398.083646 
L 427.594925 451.180724 
L 429.896221 336.975157 
L 432.197517 412.576025 
L 434.498813 441.576399 
L 436.800108 445.371279 
L 439.101404 356.246273 
L 441.4027 298.448543 
L 443.703996 310.770188 
L 446.005292 335.147993 
L 448.306588 324.46611 
L 450.607884 463.970873 
L 452.90918 452.227048 
L 455.210475 361.196795 
L 457.511771 350.389978 
L 459.813067 271.587668 
L 462.114363 277.568898 
L 464.415659 418.010667 
L 466.716955 455.397256 
L 469.018251 438.796611 
L 471.319547 332.992876 
L 473.620843 352.248375 
L 475.922138 333.180278 
L 478.223434 261.561691 
L 480.52473 358.510707 
L 482.826026 368.380517 
L 485.127322 450.899622 
L 487.428618 450.087549 
L 489.729914 315.736326 
L 492.03121 368.208732 
L 494.332506 66.976519 
L 496.633801 385.418432 
L 498.935097 271.212865 
L 501.236393 421.930481 
L 503.537689 216.023139 
L 505.838985 294.013375 
L 508.140281 273.13373 
L 510.441577 309.598929 
L 512.742873 335.179227 
L 515.044169 446.745556 
L 517.345464 428.864334 
L 519.64676 423.273525 
L 521.948056 302.914944 
L 524.249352 306.77229 
L 526.550648 366.881305 
L 528.851944 379.390352 
L 531.15324 449.509727 
L 533.454536 394.460552 
L 535.755831 285.018105 
L 538.057127 379.421585 
L 540.358423 323.747738 
L 542.659719 383.232082 
L 544.961015 273.617851 
L 547.262311 278.365354 
L 549.563607 299.854053 
L 551.864903 318.110078 
L 554.166199 322.998132 
L 556.467494 318.188162 
L 558.76879 384.387724 
L 561.070086 366.896922 
L 563.371382 287.391857 
L 565.672678 301.993553 
L 567.973974 378.265943 
L 570.27527 315.970578 
L 572.576566 279.630314 
L 574.877862 378.187859 
L 577.179157 311.644728 
L 579.480453 444.121936 
L 581.781749 418.82274 
L 584.083045 280.301836 
L 586.384341 386.261738 
L 588.685637 420.509353 
L 590.986933 377.531954 
L 593.288229 312.566118 
L 595.589525 436.610261 
L 597.89082 445.667998 
L 600.192116 441.435848 
L 602.493412 358.635641 
L 604.794708 341.488409 
L 607.096004 438.952779 
L 609.3973 364.819889 
L 611.698596 397.958712 
L 613.999892 438.437425 
L 616.301187 300.400641 
L 618.602483 347.032368 
L 620.903779 309.099192 
L 623.205075 373.596524 
L 625.506371 338.817938 
L 627.807667 398.286665 
L 630.108963 405.517237 
L 632.410259 377.610038 
L 634.711555 319.047085 
L 637.01285 338.552453 
L 639.314146 300.041455 
L 641.615442 387.432997 
L 643.916738 431.035068 
L 646.218034 433.783622 
L 648.51933 363.820415 
L 650.820626 314.721235 
L 653.121922 388.463705 
L 655.423218 96.804583 
L 657.724513 282.706821 
L 660.025809 402.534431 
L 662.327105 292.623481 
L 664.628401 373.549673 
L 666.929697 232.420765 
L 669.230993 272.415358 
L 671.532289 277.131628 
L 673.833585 188.006622 
L 676.134881 369.130123 
L 678.436176 329.5728 
L 680.737472 323.950756 
L 683.038768 289.375189 
L 685.340064 366.27225 
L 687.64136 292.982667 
L 689.942656 112.686856 
L 692.243952 440.061571 
L 694.545248 392.711472 
L 696.846543 338.786705 
L 699.147839 356.324357 
L 701.449135 351.733021 
L 703.750431 373.95571 
L 706.051727 381.201899 
L 708.353023 332.336971 
L 710.654319 397.67761 
L 712.955615 278.443438 
L 715.256911 350.811631 
L 717.558206 265.825074 
L 719.859502 352.560711 
L 722.160798 286.439233 
L 724.462094 431.581655 
L 726.76339 393.507928 
L 729.064686 347.485255 
L 731.365982 334.070435 
L 733.667278 421.055941 
L 735.968574 312.581735 
L 738.269869 264.060377 
L 740.571165 443.138078 
L 742.872461 451.617994 
L 745.173757 373.877626 
L 747.475053 402.768683 
L 749.776349 416.402138 
L 752.077645 404.002409 
L 754.378941 360.275404 
L 756.680237 333.992351 
L 758.981532 332.867942 
L 761.282828 345.751792 
L 763.584124 385.168563 
L 765.88542 331.025161 
L 768.186716 450.884005 
L 770.488012 352.591945 
L 772.789308 421.88363 
L 775.090604 449.462877 
L 777.391899 345.330138 
L 779.693195 356.917795 
L 781.994491 316.142363 
L 784.295787 158.038007 
L 786.597083 375.080119 
L 788.898379 421.39951 
L 791.199675 432.175093 
L 793.500971 272.555909 
L 795.802267 384.215939 
L 798.103562 270.307092 
L 800.404858 365.210309 
L 802.706154 331.571749 
L 805.00745 412.622876 
L 807.308746 390.119085 
L 809.610042 370.160831 
L 811.911338 56.950542 
L 814.212634 317.594724 
L 816.51393 381.73287 
L 818.815225 264.747515 
L 821.116521 417.042426 
L 823.417817 263.748041 
L 825.719113 357.776718 
L 828.020409 129.115717 
L 830.321705 307.131476 
L 832.623001 283.643828 
L 834.924297 226.798722 
L 837.225593 406.32931 
L 839.526888 184.836414 
L 841.828184 160.224357 
L 844.12948 358.042203 
L 846.430776 440.967345 
L 848.732072 341.082372 
L 851.033368 320.593147 
L 853.334664 353.794437 
L 855.63596 428.833101 
L 857.937255 349.999558 
L 860.238551 397.896245 
L 862.539847 290.952485 
L 864.841143 324.044457 
L 867.142439 459.941741 
L 869.443735 506.3236 
L 871.745031 485.319021 
L 874.046327 483.47624 
L 876.347623 485.553273 
L 878.648918 385.871319 
L 880.950214 345.376989 
L 883.25151 459.504471 
L 885.552806 268.151975 
L 887.854102 456.084395 
L 890.155398 382.451242 
L 892.456694 337.959015 
L 894.75799 346.251529 
L 897.059286 409.046631 
L 899.360581 300.338174 
L 901.661877 424.960138 
L 903.963173 423.632711 
L 906.264469 318.641049 
L 908.565765 260.6403 
L 910.867061 438.796611 
L 913.168357 429.61394 
L 915.469653 442.154221 
L 917.770949 271.759453 
L 920.072244 480.602751 
L 922.37354 442.326005 
L 924.674836 450.477968 
L 926.976132 348.765832 
L 929.277428 426.11578 
L 931.578724 285.377292 
L 933.88002 449.525344 
L 936.181316 446.105268 
L 938.482611 304.039353 
L 940.783907 291.202353 
L 943.085203 301.040929 
L 945.386499 443.059994 
L 947.687795 304.835809 
L 949.989091 417.651481 
L 949.989091 417.651481 
" clip-path="url(#p3d1fb490d4)" style="fill: none; stroke: #4c72b0; stroke-width: 1.5; stroke-linecap: round"/>
   </g>
   <g id="line2d_17">
    <path d="M 121.522572 515.98883 
L 123.823868 507.786893 
L 126.125164 491.754699 
L 128.42646 479.636072 
L 130.727756 471.968229 
L 133.029051 448.335345 
L 135.330347 432.896589 
L 139.932939 388.241947 
L 144.535531 358.220235 
L 146.836827 358.43887 
L 149.138123 351.325423 
L 151.439419 340.415535 
L 153.740714 333.384858 
L 156.04201 336.125604 
L 158.343306 314.034096 
L 160.644602 317.104357 
L 162.945898 322.08455 
L 165.247194 324.294326 
L 167.54849 325.32191 
L 169.849786 311.504177 
L 172.151082 314.836799 
L 174.452377 319.557754 
L 176.753673 324.589483 
L 179.054969 340.701323 
L 181.356265 377.299264 
L 183.657561 393.039424 
L 185.958857 401.580245 
L 188.260153 407.719204 
L 190.561449 410.833192 
L 192.862745 420.665521 
L 197.465336 438.164131 
L 199.766632 433.28857 
L 202.067928 418.616599 
L 204.369224 398.798895 
L 206.67052 388.947826 
L 208.971816 391.070147 
L 211.273112 388.852563 
L 213.574407 384.946805 
L 215.875703 378.554854 
L 218.176999 374.03067 
L 220.478295 370.451303 
L 222.779591 363.2301 
L 225.080887 366.92347 
L 227.382183 380.035325 
L 229.683479 366.294114 
L 231.984775 356.900616 
L 234.28607 318.398989 
L 236.587366 302.588553 
L 238.888662 300.64114 
L 241.189958 300.7161 
L 243.491254 305.271517 
L 245.79255 319.553069 
L 248.093846 314.661891 
L 250.395142 302.37148 
L 252.696438 313.871682 
L 254.997733 296.911851 
L 257.299029 336.149029 
L 259.600325 346.844967 
L 261.901621 348.311383 
L 264.202917 352.396735 
L 266.504213 347.900662 
L 268.805509 333.801826 
L 271.106805 336.183386 
L 273.408101 346.871515 
L 275.709396 354.133322 
L 278.010692 373.832337 
L 280.311988 360.258226 
L 282.613284 369.970306 
L 284.91458 374.249305 
L 287.215876 361.534117 
L 289.517172 360.202005 
L 291.818468 370.554374 
L 294.119763 382.137345 
L 296.421059 369.771972 
L 298.722355 371.01663 
L 301.023651 375.781312 
L 303.324947 378.269067 
L 305.626243 379.916638 
L 307.927539 390.864006 
L 310.228835 402.368893 
L 312.530131 408.632786 
L 317.132722 389.633403 
L 319.434018 390.204977 
L 321.735314 387.340858 
L 324.03661 385.776056 
L 326.337906 394.0592 
L 328.639202 396.006614 
L 330.940498 390.962391 
L 333.241794 392.559989 
L 335.543089 383.934837 
L 337.844385 395.130512 
L 340.145681 403.109129 
L 342.446977 407.589585 
L 344.748273 411.039333 
L 347.049569 402.482895 
L 349.350865 399.507897 
L 351.652161 383.538171 
L 353.953457 382.460612 
L 356.254752 387.959283 
L 358.556048 391.324701 
L 360.857344 375.825039 
L 363.15864 362.235311 
L 365.459936 347.652355 
L 367.761232 338.892899 
L 370.062528 340.426467 
L 372.363824 343.901202 
L 374.665119 343.918381 
L 376.966415 340.824695 
L 379.267711 324.163145 
L 381.569007 313.361013 
L 383.870303 331.870029 
L 386.171599 346.958969 
L 388.472895 369.514296 
L 390.774191 375.398701 
L 393.075487 382.691741 
L 395.376782 372.622036 
L 397.678078 375.400263 
L 399.979374 371.280554 
L 402.28067 373.938531 
L 404.581966 387.294008 
L 406.883262 373.142075 
L 409.184558 357.918831 
L 411.485854 355.830866 
L 416.088445 338.246364 
L 418.389741 352.507614 
L 420.691037 364.760545 
L 422.992333 357.041167 
L 425.293629 364.862055 
L 427.594925 369.19259 
L 429.896221 371.938021 
L 432.197517 383.503814 
L 434.498813 386.702132 
L 436.800108 398.314775 
L 439.101404 400.577647 
L 441.4027 385.357526 
L 443.703996 372.028598 
L 446.005292 378.637623 
L 448.306588 371.275869 
L 450.607884 372.554884 
L 452.90918 384.080073 
L 455.210475 378.94215 
L 457.511771 369.823508 
L 459.813067 352.445147 
L 462.114363 344.577409 
L 464.415659 356.533622 
L 466.716955 370.996329 
L 469.018251 381.36119 
L 471.319547 382.213867 
L 473.620843 371.041617 
L 475.922138 359.13694 
L 478.223434 349.17343 
L 480.52473 349.985503 
L 482.826026 359.664788 
L 485.127322 376.99786 
L 487.428618 380.205548 
L 489.729914 366.239455 
L 492.03121 359.180667 
L 494.332506 332.579032 
L 496.633801 335.896037 
L 498.935097 329.699296 
L 501.236393 345.736175 
L 503.537689 331.487418 
L 505.838985 324.050704 
L 508.140281 306.274115 
L 510.441577 292.225253 
L 512.742873 294.169543 
L 515.044169 302.023225 
L 517.345464 338.212007 
L 519.64676 341.997516 
L 521.948056 345.167724 
L 524.249352 333.651905 
L 526.550648 348.737722 
L 528.851944 357.275419 
L 531.15324 374.913019 
L 533.454536 383.399181 
L 535.755831 378.383069 
L 538.057127 371.650672 
L 540.358423 361.139012 
L 542.659719 357.134868 
L 547.262311 351.364465 
L 549.563607 344.66174 
L 551.864903 338.533713 
L 554.166199 325.882553 
L 556.467494 318.255314 
L 558.76879 328.192276 
L 561.070086 326.93981 
L 563.371382 323.304221 
L 565.672678 315.180369 
L 567.973974 325.645178 
L 570.27527 329.4057 
L 572.576566 327.383326 
L 574.877862 333.391104 
L 577.179157 332.255764 
L 579.480453 344.849141 
L 581.781749 348.292643 
L 584.083045 339.633134 
L 586.384341 349.520123 
L 588.685637 361.371703 
L 590.986933 361.298304 
L 593.288229 360.957858 
L 595.589525 376.655852 
L 597.89082 383.403866 
L 600.192116 396.382978 
L 602.493412 387.834349 
L 604.794708 380.100916 
L 607.096004 395.96601 
L 611.698596 391.566761 
L 613.999892 397.657308 
L 616.301187 396.44076 
L 618.602483 387.482971 
L 620.903779 373.826091 
L 623.205075 367.042158 
L 625.506371 365.060388 
L 627.807667 370.740213 
L 630.108963 367.396659 
L 632.410259 368.675674 
L 634.711555 360.784511 
L 637.01285 350.796014 
L 639.314146 350.760095 
L 641.615442 354.800158 
L 643.916738 366.993746 
L 646.218034 373.012456 
L 648.51933 375.512704 
L 650.820626 367.156161 
L 653.121922 365.450807 
L 655.423218 337.370262 
L 657.724513 333.736235 
L 660.025809 340.134433 
L 662.327105 339.392636 
L 664.628401 338.004304 
L 666.929697 318.142873 
L 669.230993 302.006047 
L 671.532289 293.337168 
L 673.833585 280.665707 
L 676.134881 278.732348 
L 678.436176 302.00917 
L 680.737472 306.133564 
L 683.038768 294.81764 
L 685.340064 302.182516 
L 687.64136 294.125816 
L 689.942656 282.152425 
L 692.243952 298.917046 
L 694.545248 310.475031 
L 696.846543 325.553039 
L 699.147839 324.272462 
L 701.449135 326.488484 
L 703.750431 331.48898 
L 706.051727 340.671651 
L 708.353023 337.278123 
L 710.654319 347.747617 
L 712.955615 364.323275 
L 715.256911 355.398281 
L 717.558206 342.709642 
L 719.859502 344.087042 
L 722.160798 337.09853 
L 724.462094 345.083393 
L 726.76339 347.038615 
L 729.064686 343.666951 
L 731.365982 343.840297 
L 733.667278 346.17813 
L 735.968574 349.59196 
L 738.269869 340.916834 
L 740.571165 358.648135 
L 742.872461 368.553863 
L 745.173757 377.297702 
L 747.475053 374.416405 
L 749.776349 376.705826 
L 752.077645 382.357541 
L 754.378941 384.978038 
L 756.680237 376.271679 
L 758.981532 378.3003 
L 761.282828 386.469442 
L 763.584124 380.67249 
L 765.88542 368.613207 
L 768.186716 376.313845 
L 770.488012 371.296171 
L 772.789308 371.84432 
L 775.090604 376.390367 
L 777.391899 374.89584 
L 779.693195 377.188385 
L 781.994491 375.515827 
L 784.295787 356.744448 
L 786.597083 355.735604 
L 788.898379 364.773039 
L 791.199675 362.902148 
L 793.500971 354.898544 
L 795.802267 351.131775 
L 798.103562 333.216196 
L 800.404858 335.204214 
L 802.706154 332.669609 
L 805.00745 342.31766 
L 807.308746 365.525768 
L 809.610042 365.033839 
L 811.911338 328.588942 
L 814.212634 317.130905 
L 816.51393 328.048602 
L 818.815225 316.101759 
L 821.116521 330.775293 
L 823.417817 320.629066 
L 825.719113 323.249563 
L 828.020409 294.898847 
L 832.623001 277.948386 
L 834.924297 294.933204 
L 837.225593 303.806662 
L 839.526888 284.117017 
L 841.828184 273.664701 
L 844.12948 267.764679 
L 846.430776 285.486609 
L 848.732072 283.817174 
L 851.033368 302.964918 
L 853.334664 307.631214 
L 855.63596 322.150141 
L 857.937255 334.470225 
L 860.238551 333.626918 
L 862.539847 344.238525 
L 864.841143 360.620535 
L 867.142439 370.810489 
L 869.443735 377.346114 
L 871.745031 391.769779 
L 874.046327 408.058089 
L 876.347623 421.233972 
L 878.648918 416.937794 
L 880.950214 416.475537 
L 883.25151 422.63636 
L 885.552806 420.356309 
L 887.854102 433.560302 
L 890.155398 425.811253 
L 892.456694 408.974794 
L 894.75799 395.068045 
L 897.059286 387.625084 
L 899.360581 369.103574 
L 901.661877 373.012456 
L 903.963173 380.838028 
L 906.264469 366.751686 
L 908.565765 366.000518 
L 910.867061 364.27174 
L 913.168357 368.98801 
L 915.469653 379.40753 
L 917.770949 371.958323 
L 920.072244 379.113935 
L 922.37354 393.312718 
L 924.674836 395.864501 
L 926.976132 388.377813 
L 929.277428 399.125286 
L 931.578724 401.598985 
L 933.88002 402.671859 
L 936.181316 404.320991 
L 938.482611 390.509505 
L 940.783907 392.453795 
L 943.085203 374.497612 
L 945.386499 374.571011 
L 947.687795 360.006795 
L 949.989091 366.89536 
L 949.989091 366.89536 
" clip-path="url(#p3d1fb490d4)" style="fill: none; stroke: #dd8452; stroke-width: 1.5; stroke-linecap: round"/>
   </g>
   <g id="line2d_18">
    <path d="M 121.522572 515.979764 
L 123.823868 490.328518 
L 126.125164 461.829958 
L 128.42646 454.851467 
L 130.727756 455.142934 
L 133.029051 432.650665 
L 135.330347 432.339178 
L 137.631643 426.910774 
L 139.932939 428.546071 
L 142.234235 440.872938 
L 144.535531 459.927045 
L 146.836827 459.598627 
L 149.138123 454.883097 
L 151.439419 453.830785 
L 153.740714 462.927963 
L 156.04201 465.326069 
L 158.343306 437.492461 
L 160.644602 437.950695 
L 162.945898 437.921545 
L 165.247194 436.342026 
L 167.54849 435.641275 
L 169.849786 445.448247 
L 174.452377 446.675675 
L 176.753673 441.094464 
L 179.054969 428.934209 
L 181.356265 447.119407 
L 183.657561 443.695086 
L 185.958857 444.972934 
L 188.260153 443.906295 
L 190.561449 444.599323 
L 195.16404 467.337649 
L 197.465336 480.354572 
L 199.766632 474.698821 
L 202.067928 463.995569 
L 204.369224 463.646642 
L 206.67052 471.411111 
L 208.971816 468.81417 
L 211.273112 471.236442 
L 213.574407 471.620635 
L 215.875703 468.902089 
L 218.176999 469.518017 
L 220.478295 472.200613 
L 222.779591 466.703585 
L 225.080887 468.804349 
L 227.382183 468.539504 
L 229.683479 451.557612 
L 231.984775 458.895956 
L 234.28607 405.226577 
L 236.587366 402.38597 
L 238.888662 402.781536 
L 241.189958 402.738169 
L 243.491254 398.160862 
L 245.79255 390.664985 
L 248.093846 391.406735 
L 250.395142 399.300006 
L 252.696438 400.262771 
L 254.997733 395.088437 
L 257.299029 428.9072 
L 259.600325 439.740924 
L 261.901621 440.329572 
L 264.202917 438.543091 
L 266.504213 442.357524 
L 268.805509 449.025305 
L 271.106805 449.551283 
L 273.408101 444.594637 
L 275.709396 439.949512 
L 278.010692 466.900736 
L 280.311988 465.950077 
L 282.613284 465.174771 
L 284.91458 467.394613 
L 287.215876 459.287809 
L 289.517172 459.759065 
L 291.818468 462.505601 
L 294.119763 459.000919 
L 296.421059 455.762515 
L 298.722355 454.290177 
L 301.023651 451.33869 
L 303.324947 454.322158 
L 305.626243 452.965553 
L 307.927539 445.79542 
L 310.228835 458.807105 
L 312.530131 459.035072 
L 314.831426 450.885798 
L 317.132722 452.107115 
L 319.434018 452.971329 
L 321.735314 454.951021 
L 324.03661 456.044222 
L 326.337906 460.414179 
L 328.639202 458.56834 
L 330.940498 464.812734 
L 333.241794 464.634809 
L 335.543089 465.299936 
L 337.844385 471.685042 
L 340.145681 472.659194 
L 342.446977 482.553585 
L 344.748273 480.229348 
L 347.049569 472.491358 
L 349.350865 471.58621 
L 351.652161 464.909938 
L 353.953457 465.867894 
L 356.254752 460.44575 
L 358.556048 462.083584 
L 360.857344 450.570366 
L 363.15864 449.926096 
L 365.459936 433.217565 
L 367.761232 440.65573 
L 370.062528 440.668352 
L 372.363824 438.198906 
L 374.665119 438.211179 
L 376.966415 440.921681 
L 379.267711 452.661207 
L 381.569007 454.490846 
L 383.870303 443.532886 
L 386.171599 436.024657 
L 388.472895 449.865831 
L 390.774191 448.201875 
L 393.075487 447.705825 
L 395.376782 444.633493 
L 397.678078 447.549678 
L 399.979374 447.119204 
L 402.28067 449.99551 
L 404.581966 459.516438 
L 406.883262 459.533724 
L 409.184558 461.813446 
L 411.485854 464.569845 
L 413.78715 469.162384 
L 416.088445 476.673351 
L 418.389741 464.865032 
L 420.691037 458.829802 
L 422.992333 451.373278 
L 425.293629 451.637603 
L 427.594925 447.146183 
L 429.896221 449.264341 
L 432.197517 453.819902 
L 434.498813 451.560073 
L 436.800108 452.604152 
L 439.101404 454.791894 
L 441.4027 449.924388 
L 443.703996 449.640006 
L 446.005292 458.257798 
L 450.607884 454.3661 
L 452.90918 451.088563 
L 455.210475 451.560481 
L 457.511771 455.031351 
L 459.813067 454.200953 
L 462.114363 449.904065 
L 464.415659 448.387075 
L 466.716955 443.963158 
L 469.018251 442.26583 
L 471.319547 442.947497 
L 475.922138 454.094267 
L 478.223434 446.902968 
L 480.52473 446.839711 
L 482.826026 452.457425 
L 485.127322 453.704572 
L 487.428618 450.625635 
L 489.729914 453.607867 
L 492.03121 458.933192 
L 494.332506 407.165347 
L 496.633801 406.003728 
L 498.935097 404.110546 
L 501.236393 403.472829 
L 503.537689 396.487408 
L 505.838985 396.723952 
L 508.140281 404.727979 
L 510.441577 416.633605 
L 512.742873 415.937124 
L 515.044169 406.843219 
L 517.345464 437.701121 
L 519.64676 434.33743 
L 521.948056 436.801961 
L 524.249352 440.920466 
L 526.550648 452.930508 
L 528.851944 455.418185 
L 531.15324 456.972996 
L 533.454536 461.449433 
L 535.755831 454.679946 
L 538.057127 459.484544 
L 540.358423 461.558027 
L 542.659719 465.265659 
L 544.961015 461.1373 
L 547.262311 457.796027 
L 549.563607 455.961988 
L 551.864903 456.773915 
L 554.166199 471.295911 
L 556.467494 478.280911 
L 558.76879 475.085709 
L 561.070086 476.653115 
L 563.371382 474.710976 
L 565.672678 480.129901 
L 567.973974 478.396376 
L 570.27527 481.900242 
L 572.576566 479.465074 
L 574.877862 476.379626 
L 577.179157 475.893327 
L 579.480453 463.161666 
L 581.781749 459.340025 
L 584.083045 456.000996 
L 586.384341 457.428621 
L 588.685637 456.145103 
L 590.986933 456.167545 
L 593.288229 455.873726 
L 595.589525 459.038725 
L 597.89082 455.00739 
L 600.192116 458.231365 
L 602.493412 459.766696 
L 604.794708 459.190727 
L 607.096004 468.750696 
L 609.3973 467.791692 
L 611.698596 468.652791 
L 613.999892 466.79177 
L 616.301187 464.380211 
L 618.602483 464.3533 
L 620.903779 463.407333 
L 623.205075 468.98024 
L 625.506371 468.181642 
L 627.807667 467.921976 
L 630.108963 472.188525 
L 632.410259 472.086348 
L 634.711555 470.869548 
L 637.01285 479.709456 
L 639.314146 479.654429 
L 641.615442 477.927087 
L 643.916738 474.819218 
L 646.218034 469.709133 
L 648.51933 471.096345 
L 650.820626 468.149385 
L 653.121922 469.371233 
L 655.423218 419.740135 
L 657.724513 418.301544 
L 660.025809 415.894293 
L 662.327105 415.538578 
L 664.628401 416.180126 
L 666.929697 416.98847 
L 669.230993 425.082011 
L 671.532289 427.521313 
L 673.833585 422.04173 
L 676.134881 424.326696 
L 678.436176 449.447633 
L 680.737472 449.498517 
L 683.038768 458.68311 
L 685.340064 454.447032 
L 687.64136 459.751984 
L 689.942656 437.111154 
L 692.243952 422.933833 
L 694.545248 418.867139 
L 696.846543 428.755179 
L 699.147839 429.371597 
L 701.449135 428.940321 
L 703.750431 427.680373 
L 706.051727 427.771527 
L 708.353023 428.212339 
L 710.654319 427.841284 
L 712.955615 472.499522 
L 715.256911 481.460601 
L 717.558206 474.217199 
L 719.859502 474.134628 
L 722.160798 470.737637 
L 724.462094 461.781216 
L 726.76339 460.301532 
L 729.064686 461.5856 
L 731.365982 461.622717 
L 733.667278 458.648809 
L 735.968574 462.201022 
L 738.269869 455.842295 
L 740.571165 454.331121 
L 742.872461 447.840288 
L 745.173757 454.200396 
L 747.475053 456.366532 
L 749.776349 455.132666 
L 752.077645 455.522468 
L 754.378941 457.295232 
L 756.680237 456.789468 
L 758.981532 458.891397 
L 761.282828 472.8189 
L 763.584124 477.607424 
L 765.88542 483.884348 
L 768.186716 474.671323 
L 770.488012 475.192978 
L 772.789308 474.494896 
L 775.090604 468.565152 
L 777.391899 467.777899 
L 779.693195 469.409393 
L 781.994491 467.399751 
L 784.295787 431.72503 
L 786.597083 432.041995 
L 788.898379 430.162245 
L 791.199675 432.056938 
L 793.500971 427.303517 
L 795.802267 429.687122 
L 798.103562 433.855554 
L 800.404858 433.293553 
L 802.706154 433.643806 
L 805.00745 430.229037 
L 807.308746 458.913091 
L 809.610042 458.98299 
L 811.911338 406.767415 
L 814.212634 412.9882 
L 816.51393 412.455031 
L 818.815225 412.762964 
L 821.116521 409.625416 
L 823.417817 408.44641 
L 825.719113 407.834664 
L 828.020409 397.259458 
L 830.321705 401.828275 
L 832.623001 405.637749 
L 834.924297 433.88384 
L 837.225593 426.712317 
L 839.526888 424.143196 
L 841.828184 416.127682 
L 844.12948 424.085378 
L 846.430776 409.13406 
L 848.732072 410.260692 
L 851.033368 425.033743 
L 853.334664 423.615926 
L 855.63596 416.682196 
L 857.937255 422.323497 
L 860.238551 423.004248 
L 862.539847 436.783682 
L 864.841143 468.22997 
L 867.142439 458.943449 
L 869.443735 447.490747 
L 871.745031 441.119179 
L 874.046327 440.610708 
L 876.347623 439.645016 
L 878.648918 438.918241 
L 880.950214 438.461773 
L 883.25151 437.662198 
L 885.552806 433.217735 
L 887.854102 440.005912 
L 890.155398 439.054418 
L 892.456694 440.212282 
L 894.75799 443.058847 
L 897.059286 449.542063 
L 899.360581 454.19582 
L 901.661877 451.83962 
L 903.963173 450.825954 
L 906.264469 454.583072 
L 908.565765 453.220088 
L 910.867061 455.77614 
L 913.168357 452.458221 
L 915.469653 449.646437 
L 917.770949 441.83063 
L 920.072244 434.772278 
L 922.37354 437.702833 
L 924.674836 436.163 
L 926.976132 435.551 
L 929.277428 438.774133 
L 931.578724 443.42582 
L 933.88002 442.742036 
L 936.181316 441.89152 
L 938.482611 437.037604 
L 940.783907 440.092676 
L 943.085203 442.039518 
L 945.386499 441.964753 
L 947.687795 444.255589 
L 949.989091 442.187656 
L 949.989091 442.187656 
" clip-path="url(#p3d1fb490d4)" style="fill: none; stroke: #55a868; stroke-width: 1.5; stroke-linecap: round"/>
   </g>
   <g id="patch_3">
    <path d="M 58.352 540.148 
L 58.352 15.552 
" style="fill: none; stroke: #cccccc; stroke-width: 1.25; stroke-linejoin: miter; stroke-linecap: square"/>
   </g>
   <g id="patch_4">
    <path d="M 992.448 540.148 
L 992.448 15.552 
" style="fill: none; stroke: #cccccc; stroke-width: 1.25; stroke-linejoin: miter; stroke-linecap: square"/>
   </g>
   <g id="patch_5">
    <path d="M 58.352 540.148 
L 992.448 540.148 
" style="fill: none; stroke: #cccccc; stroke-width: 1.25; stroke-linejoin: miter; stroke-linecap: square"/>
   </g>
   <g id="patch_6">
    <path d="M 58.352 15.552 
L 992.448 15.552 
" style="fill: none; stroke: #cccccc; stroke-width: 1.25; stroke-linejoin: miter; stroke-linecap: square"/>
   </g>
   <g id="legend_1">
    <g id="patch_7">
     <path d="M 874.968 82.6245 
L 983.208 82.6245 
Q 985.848 82.6245 985.848 79.9845 
L 985.848 24.792 
Q 985.848 22.152 983.208 22.152 
L 874.968 22.152 
Q 872.328 22.152 872.328 24.792 
L 872.328 79.9845 
Q 872.328 82.6245 874.968 82.6245 
z
" style="fill: #ffffff; opacity: 0.8; stroke: #cccccc; stroke-linejoin: miter"/>
    </g>
    <g id="line2d_19">
     <path d="M 877.608 33.33075 
L 890.808 33.33075 
L 904.008 33.33075 
" style="fill: none; stroke: #4c72b0; stroke-width: 1.5; stroke-linecap: round"/>
    </g>
    <g id="text_16">
     <!-- 原始数据 -->
     <g style="fill: #262626" transform="translate(914.568 37.95075) scale(0.132 -0.132)">
      <defs>
       <path id="SimHei-539f" d="M 3850 4275 
Q 3675 4025 3600 3700 
L 5450 3700 
Q 5425 3475 5425 3000 
L 5425 2225 
Q 5425 1825 5450 1475 
L 4050 1475 
L 4050 -50 
Q 4050 -400 3825 -487 
Q 3600 -575 3100 -625 
Q 3050 -325 2925 -50 
Q 3400 -75 3475 -37 
Q 3550 0 3550 175 
L 3550 1475 
L 2125 1475 
Q 2150 1775 2150 2200 
L 2150 3025 
Q 2150 3425 2125 3700 
L 3150 3700 
Q 3300 4250 3300 4425 
L 3850 4275 
z
M 275 -325 
Q 725 275 875 1037 
Q 1025 1800 1025 2300 
L 1025 4125 
Q 1025 4650 1000 4900 
L 5025 4900 
Q 5575 4900 5800 4925 
L 5800 4475 
Q 5600 4500 5025 4500 
L 1525 4500 
L 1525 2375 
Q 1500 1650 1412 1112 
Q 1325 575 1137 125 
Q 950 -325 800 -575 
Q 550 -400 275 -325 
z
M 4925 2775 
L 4925 3325 
L 2625 3325 
L 2625 2775 
L 4925 2775 
z
M 4925 1875 
L 4925 2400 
L 2625 2400 
L 2625 1875 
L 4925 1875 
z
M 1475 -50 
Q 1800 150 2087 450 
Q 2375 750 2575 1100 
Q 2800 875 2975 750 
Q 2300 -50 1825 -400 
Q 1675 -225 1475 -50 
z
M 4825 1075 
Q 5700 300 5925 25 
Q 5750 -125 5575 -325 
Q 5250 75 4500 725 
Q 4675 925 4825 1075 
z
" transform="scale(0.015625)"/>
       <path id="SimHei-59cb" d="M 1750 5075 
Q 1650 4900 1587 4587 
Q 1525 4275 1475 3875 
L 2550 3875 
Q 2400 2150 1950 1100 
Q 2275 850 2725 425 
Q 2550 275 2375 50 
Q 2000 500 1750 675 
Q 1525 275 1250 -62 
Q 975 -400 700 -675 
Q 600 -525 250 -350 
Q 575 -125 862 200 
Q 1150 525 1375 975 
Q 800 1400 500 1550 
Q 875 2925 950 3425 
Q 650 3425 325 3400 
L 325 3900 
Q 675 3875 1025 3875 
Q 1175 4825 1175 5225 
Q 1550 5125 1750 5075 
z
M 5725 2050 
Q 5700 1650 5700 650 
Q 5700 -325 5725 -650 
L 5200 -650 
L 5200 -100 
L 3450 -100 
L 3450 -675 
L 2950 -675 
Q 2975 -300 2975 675 
Q 2975 1650 2950 2050 
L 5725 2050 
z
M 4400 4950 
Q 3750 3875 3250 3150 
Q 3875 3150 4250 3175 
Q 4625 3200 5200 3225 
Q 4875 3675 4625 3900 
Q 4825 4000 5025 4225 
Q 5750 3300 6125 2850 
Q 6000 2775 5725 2550 
Q 5575 2775 5450 2875 
Q 4575 2825 3937 2762 
Q 3300 2700 2825 2575 
Q 2775 2800 2600 3100 
Q 2875 3225 3237 3850 
Q 3600 4475 3825 5200 
Q 4025 5050 4400 4950 
z
M 5200 325 
L 5200 1600 
L 3450 1600 
L 3450 325 
L 5200 325 
z
M 1025 1775 
Q 1300 1550 1575 1400 
Q 1725 1725 1875 2337 
Q 2025 2950 2050 3425 
L 1400 3425 
Q 1300 2950 1025 1775 
z
" transform="scale(0.015625)"/>
       <path id="SimHei-6570" d="M 4525 4925 
Q 4475 4800 4400 4587 
Q 4325 4375 4175 3825 
L 5325 3825 
Q 5575 3825 5925 3850 
L 5925 3400 
Q 5650 3425 5500 3425 
Q 5500 3025 5362 2162 
Q 5225 1300 4875 675 
Q 5125 375 5437 137 
Q 5750 -100 6025 -200 
Q 5725 -425 5625 -625 
Q 5325 -450 5075 -225 
Q 4825 0 4575 325 
Q 4300 25 3987 -187 
Q 3675 -400 3200 -650 
Q 3075 -425 2850 -300 
Q 3225 -150 3650 125 
Q 4075 400 4300 675 
Q 4125 1025 3962 1425 
Q 3800 1825 3675 2475 
Q 3600 2275 3425 1950 
Q 3250 2050 3000 2150 
Q 3400 2850 3650 3675 
Q 3900 4500 3975 5100 
Q 4275 4975 4525 4925 
z
M 2100 2250 
Q 2000 2150 1875 1925 
L 3250 1925 
Q 3100 1300 2725 675 
Q 3125 525 3350 400 
Q 3225 225 3125 25 
Q 2900 175 2450 325 
Q 1950 -225 725 -650 
Q 600 -375 400 -275 
Q 1575 0 2000 475 
Q 1300 650 850 775 
Q 1000 1000 1250 1525 
Q 1000 1525 425 1500 
L 425 1950 
Q 900 1925 1400 1925 
Q 1500 2150 1550 2425 
Q 1825 2325 2100 2250 
z
M 1775 3950 
Q 1775 4550 1750 5100 
L 2250 5100 
Q 2225 4575 2225 3950 
Q 3075 3950 3425 3975 
L 3425 3525 
Q 3075 3550 2225 3550 
Q 2225 2825 2250 2425 
L 1750 2425 
Q 1775 2775 1775 3300 
Q 1650 3100 1300 2787 
Q 950 2475 650 2300 
Q 525 2525 275 2625 
Q 500 2700 875 2975 
Q 1250 3250 1450 3550 
Q 950 3550 500 3525 
L 500 3975 
Q 925 3950 1775 3950 
z
M 3975 3175 
Q 4200 1700 4600 1125 
Q 4850 1700 4937 2287 
Q 5025 2875 5050 3425 
L 4075 3425 
L 3975 3175 
z
M 1450 1000 
Q 1750 925 2275 800 
Q 2475 1050 2650 1525 
L 1725 1525 
Q 1600 1275 1450 1000 
z
M 3325 4825 
Q 3200 4625 3125 4450 
Q 3050 4275 2925 4025 
Q 2725 4125 2525 4175 
Q 2725 4500 2900 5000 
Q 3150 4875 3325 4825 
z
M 2575 3375 
Q 2900 3050 3200 2725 
Q 3050 2600 2875 2425 
Q 2525 2850 2300 3100 
Q 2450 3225 2575 3375 
z
M 925 5000 
Q 1275 4650 1500 4300 
L 1125 4075 
Q 950 4425 600 4725 
Q 825 4875 925 5000 
z
" transform="scale(0.015625)"/>
       <path id="SimHei-636e" d="M 5750 4775 
Q 5725 4550 5725 4225 
L 5725 3900 
Q 5725 3450 5750 3250 
L 3100 3250 
L 3100 2500 
L 4250 2500 
Q 4250 2725 4225 3175 
L 4700 3175 
Q 4675 2775 4675 2500 
L 5350 2500 
Q 5800 2500 6100 2525 
L 6100 2075 
Q 5800 2100 5375 2100 
L 4675 2100 
L 4675 1425 
L 5775 1425 
Q 5750 950 5750 800 
L 5750 175 
Q 5750 -225 5775 -575 
L 5325 -575 
L 5325 -225 
L 3675 -225 
L 3675 -600 
L 3225 -600 
Q 3250 -325 3250 100 
L 3250 825 
Q 3250 1075 3225 1425 
L 4250 1425 
L 4250 2100 
L 3075 2100 
Q 3050 1375 2887 737 
Q 2725 100 2425 -475 
Q 2200 -325 1950 -250 
Q 2250 150 2387 600 
Q 2525 1050 2600 1562 
Q 2675 2075 2675 2625 
L 2675 3575 
Q 2675 3975 2650 4775 
L 5750 4775 
z
M 1275 4425 
Q 1275 4775 1250 5075 
L 1750 5075 
Q 1725 4800 1725 4425 
L 1725 3775 
Q 1975 3775 2500 3800 
L 2500 3375 
Q 1975 3400 1725 3400 
L 1725 2450 
Q 2050 2625 2400 2850 
Q 2425 2650 2525 2475 
Q 2050 2200 1725 2000 
L 1725 175 
Q 1725 -300 1487 -400 
Q 1250 -500 775 -575 
Q 725 -325 600 -50 
Q 1025 -50 1150 -12 
Q 1275 25 1275 325 
L 1275 1800 
Q 900 1600 525 1325 
Q 450 1525 275 1800 
Q 775 1975 1275 2250 
L 1275 3400 
Q 800 3400 350 3375 
L 350 3800 
Q 800 3775 1275 3775 
L 1275 4425 
z
M 5300 3625 
L 5300 4400 
L 3100 4400 
L 3100 3625 
L 5300 3625 
z
M 5325 150 
L 5325 1075 
L 3675 1075 
L 3675 150 
L 5325 150 
z
" transform="scale(0.015625)"/>
      </defs>
      <use xlink:href="#SimHei-539f"/>
      <use xlink:href="#SimHei-59cb" x="100"/>
      <use xlink:href="#SimHei-6570" x="200"/>
      <use xlink:href="#SimHei-636e" x="300"/>
     </g>
    </g>
    <g id="line2d_20">
     <path d="M 877.608 52.202625 
L 890.808 52.202625 
L 904.008 52.202625 
" style="fill: none; stroke: #dd8452; stroke-width: 1.5; stroke-linecap: round"/>
    </g>
    <g id="text_17">
     <!-- 滚动平均 -->
     <g style="fill: #262626" transform="translate(914.568 56.822625) scale(0.132 -0.132)">
      <defs>
       <path id="SimHei-6eda" d="M 4650 3100 
Q 4925 2875 5175 2625 
L 5675 2125 
Q 5475 1950 5325 1775 
Q 5225 1925 5075 2100 
Q 4500 2075 4000 2025 
Q 3725 1575 3400 1225 
L 3400 100 
Q 3550 175 3712 262 
Q 3875 350 4050 450 
Q 4100 225 4200 25 
Q 3900 -125 3550 -325 
Q 3200 -525 2975 -675 
Q 2875 -450 2725 -250 
Q 2975 -125 3000 150 
L 3000 900 
Q 2675 625 1975 250 
Q 1875 475 1675 700 
Q 2150 825 2637 1150 
Q 3125 1475 3475 2000 
L 2900 1925 
Q 2725 1900 2425 1825 
Q 2350 2075 2250 2300 
Q 2550 2350 2900 2712 
Q 3250 3075 3625 3675 
Q 3825 3550 4125 3400 
Q 3925 3225 3625 2912 
Q 3325 2600 3000 2325 
Q 3900 2350 4750 2425 
Q 4550 2650 4350 2825 
Q 4525 2950 4650 3100 
z
M 3550 5175 
Q 3775 5200 4050 5275 
Q 4225 4875 4300 4525 
L 5150 4525 
Q 5500 4525 6025 4550 
L 6025 4150 
Q 5500 4175 5150 4175 
L 2950 4175 
Q 2500 4175 2025 4150 
L 2025 4550 
Q 2475 4525 2925 4525 
L 3800 4525 
Q 3750 4800 3550 5175 
z
M 5900 1325 
Q 5700 1200 5450 1037 
Q 5200 875 4950 700 
Q 5050 525 5350 300 
Q 5650 75 6200 -75 
Q 5975 -250 5850 -500 
Q 5275 -250 4912 112 
Q 4550 475 4325 900 
Q 4100 1325 3950 1725 
L 4300 1850 
Q 4525 1250 4725 1000 
Q 4975 1150 5175 1325 
Q 5375 1500 5525 1675 
Q 5675 1475 5900 1325 
z
M 1700 1525 
Q 1575 1375 1237 587 
Q 900 -200 750 -525 
Q 550 -350 275 -200 
Q 525 100 812 675 
Q 1100 1250 1275 1775 
Q 1475 1625 1700 1525 
z
M 5775 2825 
Q 5550 3050 5250 3287 
Q 4950 3525 4450 3800 
Q 4600 3925 4775 4125 
L 5475 3650 
Q 5825 3425 6125 3200 
Q 5900 3025 5775 2825 
z
M 1800 3100 
Q 2125 3250 2450 3525 
Q 2775 3800 2950 4100 
Q 3150 3925 3375 3750 
Q 3175 3625 2862 3337 
Q 2550 3050 2200 2775 
Q 2025 2950 1800 3100 
z
M 575 3450 
Q 750 3350 1025 3150 
Q 1300 2950 1625 2725 
Q 1400 2500 1275 2275 
Q 1100 2475 837 2687 
Q 575 2900 275 3100 
Q 425 3250 575 3450 
z
M 1475 3850 
Q 1175 4150 937 4337 
Q 700 4525 550 4675 
Q 725 4850 825 5000 
Q 975 4900 1225 4700 
Q 1475 4500 1825 4250 
Q 1650 4075 1475 3850 
z
" transform="scale(0.015625)"/>
       <path id="SimHei-52a8" d="M 4125 5150 
Q 4425 5075 4700 5075 
Q 4650 4825 4637 4512 
Q 4625 4200 4625 3750 
L 6025 3750 
Q 6000 3425 5975 3025 
L 5850 175 
Q 5775 -325 5437 -437 
Q 5100 -550 4675 -600 
Q 4600 -300 4425 -50 
Q 4975 -75 5175 12 
Q 5375 100 5375 350 
L 5525 3325 
L 4625 3325 
Q 4575 2225 4462 1650 
Q 4350 1075 4112 587 
Q 3875 100 3150 -675 
Q 2900 -425 2700 -350 
Q 3175 25 3475 437 
Q 3775 850 3900 1287 
Q 4025 1725 4075 2200 
Q 4125 2675 4150 3325 
L 3725 3325 
Q 3450 3325 3075 3300 
L 3075 3775 
Q 3450 3750 3775 3750 
L 4150 3750 
L 4150 4450 
Q 4150 4800 4125 5150 
z
M 275 3025 
Q 650 3000 1175 3000 
L 2125 3000 
Q 2575 3000 3150 3025 
L 3150 2575 
Q 2575 2600 2150 2600 
L 1875 2600 
Q 1725 2200 1537 1750 
Q 1350 1300 1100 850 
Q 2075 950 2575 1050 
Q 2450 1350 2175 1800 
Q 2450 1950 2575 2050 
Q 2825 1600 3000 1287 
Q 3175 975 3375 525 
Q 3175 400 2925 275 
Q 2825 500 2750 650 
Q 1950 525 1462 450 
Q 975 375 625 250 
Q 525 500 375 725 
Q 700 925 962 1525 
Q 1225 2125 1350 2600 
L 1175 2600 
Q 650 2600 275 2575 
L 275 3025 
z
M 2000 4425 
Q 2425 4425 2950 4450 
L 2950 3975 
Q 2425 4000 2000 4000 
L 1400 4000 
Q 1000 4000 625 3975 
L 625 4450 
Q 975 4425 1375 4425 
L 2000 4425 
z
" transform="scale(0.015625)"/>
       <path id="SimHei-5e73" d="M 4525 4825 
Q 4900 4825 5450 4850 
L 5450 4375 
Q 4925 4400 4525 4400 
L 3475 4400 
L 3475 2025 
L 5000 2025 
Q 5550 2025 6025 2050 
L 6025 1575 
Q 5550 1600 5000 1600 
L 3475 1600 
L 3475 450 
Q 3475 -100 3500 -600 
L 2925 -600 
Q 2950 -100 2950 450 
L 2950 1600 
L 1125 1600 
Q 775 1600 375 1575 
L 375 2050 
Q 775 2025 1175 2025 
L 2950 2025 
L 2950 4400 
L 1775 4400 
Q 1400 4400 875 4375 
L 875 4850 
Q 1400 4825 1750 4825 
L 4525 4825 
z
M 3925 2600 
Q 4500 3300 4900 4125 
Q 5150 3950 5400 3825 
Q 4775 2850 4350 2300 
Q 4150 2475 3925 2600 
z
M 1975 2350 
Q 1600 3100 1050 3725 
Q 1250 3875 1450 4050 
Q 2075 3300 2450 2725 
Q 2150 2500 1975 2350 
z
" transform="scale(0.015625)"/>
       <path id="SimHei-5747" d="M 5775 275 
Q 5775 -325 5362 -450 
Q 4950 -575 4425 -600 
Q 4375 -275 4250 25 
Q 4950 -25 5125 62 
Q 5300 150 5300 500 
L 5375 3700 
L 3550 3700 
Q 3425 3375 3262 3037 
Q 3100 2700 2925 2400 
Q 2675 2550 2475 2625 
Q 3150 3625 3500 5200 
Q 3800 5100 4075 5025 
Q 3975 4875 3875 4650 
Q 3775 4425 3675 4125 
L 5900 4125 
L 5775 275 
z
M 1250 3625 
L 1250 4375 
Q 1250 4775 1225 5100 
L 1775 5100 
Q 1750 4725 1750 4375 
L 1750 3625 
L 1900 3625 
Q 2200 3625 2525 3650 
L 2525 3150 
Q 2200 3175 1900 3175 
L 1750 3175 
L 1750 1100 
L 2500 1375 
Q 2475 1125 2525 900 
Q 1225 475 962 362 
Q 700 250 475 150 
Q 375 475 250 750 
Q 575 800 800 850 
Q 1025 900 1250 975 
L 1250 3175 
L 1125 3175 
Q 850 3175 400 3150 
L 400 3650 
Q 850 3625 1100 3625 
L 1250 3625 
z
M 4950 1625 
Q 4675 1425 4137 1050 
Q 3600 675 3175 300 
Q 3000 575 2850 775 
Q 3350 1050 3762 1325 
Q 4175 1600 4775 2075 
Q 4825 1850 4950 1625 
z
M 3775 3150 
Q 4125 2800 4475 2300 
Q 4250 2125 4100 1975 
Q 3900 2325 3450 2825 
Q 3600 3000 3775 3150 
z
" transform="scale(0.015625)"/>
      </defs>
      <use xlink:href="#SimHei-6eda"/>
      <use xlink:href="#SimHei-52a8" x="100"/>
      <use xlink:href="#SimHei-5e73" x="200"/>
      <use xlink:href="#SimHei-5747" x="300"/>
     </g>
    </g>
    <g id="line2d_21">
     <path d="M 877.608 71.0745 
L 890.808 71.0745 
L 904.008 71.0745 
" style="fill: none; stroke: #55a868; stroke-width: 1.5; stroke-linecap: round"/>
    </g>
    <g id="text_18">
     <!-- 滚动标准差 -->
     <g style="fill: #262626" transform="translate(914.568 75.6945) scale(0.132 -0.132)">
      <defs>
       <path id="SimHei-6807" d="M 1275 4400 
Q 1275 4800 1250 5175 
L 1750 5175 
Q 1725 4825 1725 4400 
L 1725 3800 
Q 2125 3800 2575 3825 
L 2575 3350 
Q 2125 3375 1725 3375 
L 1725 2525 
Q 1900 2650 2075 2800 
Q 2400 2275 2650 1775 
Q 2375 1650 2175 1500 
Q 2025 2000 1725 2425 
L 1725 475 
Q 1725 -50 1750 -575 
L 1250 -575 
Q 1275 -25 1275 475 
L 1275 2100 
Q 1025 1400 500 750 
Q 350 950 125 1125 
Q 550 1550 812 2187 
Q 1075 2825 1150 3375 
Q 675 3375 325 3325 
L 325 3825 
Q 800 3800 1275 3800 
L 1275 4400 
z
M 5175 3125 
Q 5675 3125 6050 3150 
L 6050 2675 
Q 5675 2700 5275 2700 
L 4500 2700 
L 4500 175 
Q 4500 -225 4275 -350 
Q 4050 -475 3475 -550 
Q 3425 -250 3275 25 
Q 3775 25 3900 62 
Q 4025 100 4025 350 
L 4025 2700 
L 3400 2700 
Q 2775 2700 2500 2650 
L 2500 3150 
Q 2825 3125 3400 3125 
L 5175 3125 
z
M 4900 4775 
Q 5425 4775 5750 4800 
L 5750 4300 
Q 5275 4350 4750 4350 
L 3525 4350 
Q 3125 4350 2750 4300 
L 2750 4800 
Q 3100 4775 3525 4775 
L 4900 4775 
z
M 5275 2025 
Q 5825 1175 6200 500 
Q 5925 375 5650 200 
Q 5375 925 4825 1725 
Q 5075 1850 5275 2025 
z
M 3600 1775 
Q 3500 1625 3225 975 
Q 2950 325 2800 50 
Q 2575 175 2300 275 
Q 2625 775 2787 1187 
Q 2950 1600 3050 2000 
Q 3325 1875 3600 1775 
z
" transform="scale(0.015625)"/>
       <path id="SimHei-51c6" d="M 1600 2775 
Q 1900 3050 2275 3787 
Q 2650 4525 2800 5175 
Q 3075 5050 3400 4950 
Q 3250 4775 3000 4100 
L 4825 4100 
Q 5400 4100 5875 4125 
L 5875 3675 
Q 5375 3700 4825 3700 
L 4525 3700 
L 4525 2850 
Q 5250 2850 5700 2875 
L 5700 2425 
Q 5250 2450 4525 2450 
L 4525 1600 
Q 5275 1600 5700 1625 
L 5700 1200 
Q 5275 1225 4525 1225 
L 4525 375 
Q 5575 375 6050 400 
L 6050 -100 
Q 5575 -75 4975 -75 
L 2950 -75 
L 2950 -600 
L 2425 -600 
Q 2450 -150 2450 675 
L 2450 3050 
Q 2300 2775 2075 2400 
Q 1875 2650 1600 2775 
z
M 1675 2050 
Q 1425 1425 1200 850 
Q 975 275 775 -125 
Q 550 50 275 200 
Q 550 650 775 1112 
Q 1000 1575 1225 2300 
Q 1400 2125 1675 2050 
z
M 4025 1600 
L 4025 2450 
L 2950 2450 
L 2950 1600 
L 4025 1600 
z
M 4025 2850 
L 4025 3700 
L 2950 3700 
L 2950 2850 
L 4025 2850 
z
M 4025 375 
L 4025 1225 
L 2950 1225 
L 2950 375 
L 4025 375 
z
M 725 4775 
Q 850 4625 1162 4312 
Q 1475 4000 1750 3700 
Q 1525 3475 1375 3300 
Q 1100 3700 350 4450 
Q 550 4600 725 4775 
z
M 4150 5225 
Q 4600 4800 4800 4500 
Q 4625 4400 4400 4200 
Q 4225 4500 3775 4925 
Q 3925 5000 4150 5225 
z
" transform="scale(0.015625)"/>
       <path id="SimHei-5dee" d="M 4725 4975 
Q 4500 4725 4250 4275 
L 4850 4275 
Q 5450 4275 5825 4300 
L 5825 3850 
Q 5425 3875 4850 3875 
L 3275 3875 
Q 3225 3600 3150 3275 
L 4525 3275 
Q 5075 3275 5525 3300 
L 5525 2850 
Q 5075 2875 4500 2875 
L 3050 2875 
Q 2975 2650 2850 2325 
L 5125 2325 
Q 5675 2325 6025 2350 
L 6025 1900 
Q 5700 1925 5150 1925 
L 2650 1925 
Q 2425 1550 2250 1300 
Q 2650 1275 3100 1275 
L 4525 1275 
Q 4975 1275 5350 1300 
L 5350 850 
Q 4975 875 4575 875 
L 3925 875 
L 3925 -50 
L 5000 -50 
Q 5200 -50 5900 -25 
L 5900 -500 
Q 5275 -475 5025 -475 
L 2100 -475 
Q 1700 -475 1400 -500 
L 1400 -25 
Q 1775 -50 2125 -50 
L 3425 -50 
L 3425 875 
L 3100 875 
Q 2625 875 2175 850 
L 2175 1200 
Q 1925 875 1487 475 
Q 1050 75 625 -250 
Q 425 -25 200 150 
Q 750 475 1262 925 
Q 1775 1375 2100 1925 
L 1325 1925 
Q 750 1925 375 1900 
L 375 2350 
Q 750 2325 1350 2325 
L 2325 2325 
Q 2450 2575 2550 2875 
L 1725 2875 
Q 1375 2875 1000 2850 
L 1000 3300 
Q 1500 3275 1700 3275 
L 2650 3275 
Q 2725 3575 2775 3875 
L 1500 3875 
Q 1100 3875 650 3850 
L 650 4300 
Q 1025 4275 1425 4275 
L 2275 4275 
Q 2075 4675 1850 4950 
Q 2025 5050 2250 5225 
Q 2450 4975 2725 4550 
Q 2525 4450 2325 4275 
L 3750 4275 
Q 4000 4700 4150 5250 
Q 4400 5100 4725 4975 
z
" transform="scale(0.015625)"/>
      </defs>
      <use xlink:href="#SimHei-6eda"/>
      <use xlink:href="#SimHei-52a8" x="100"/>
      <use xlink:href="#SimHei-6807" x="200"/>
      <use xlink:href="#SimHei-51c6" x="300"/>
      <use xlink:href="#SimHei-5dee" x="400"/>
     </g>
    </g>
   </g>
  </g>
 </g>
 <defs>
  <clipPath id="p3d1fb490d4">
   <rect x="58.352" y="15.552" width="934.096" height="524.596"/>
  </clipPath>
 </defs>
</svg>
