<?xml version="1.0" encoding="utf-8" standalone="no"?>
<!DOCTYPE svg PUBLIC "-//W3C//DTD SVG 1.1//EN"
  "http://www.w3.org/Graphics/SVG/1.1/DTD/svg11.dtd">
<svg xmlns:xlink="http://www.w3.org/1999/xlink" width="460.8pt" height="345.6pt" viewBox="0 0 460.8 345.6" xmlns="http://www.w3.org/2000/svg" version="1.1">
 <metadata>
  <rdf:RDF xmlns:dc="http://purl.org/dc/elements/1.1/" xmlns:cc="http://creativecommons.org/ns#" xmlns:rdf="http://www.w3.org/1999/02/22-rdf-syntax-ns#">
   <cc:Work>
    <dc:type rdf:resource="http://purl.org/dc/dcmitype/StillImage"/>
    <dc:date>2023-04-16T10:40:47.039665</dc:date>
    <dc:format>image/svg+xml</dc:format>
    <dc:creator>
     <cc:Agent>
      <dc:title>Matplotlib v3.7.1, https://matplotlib.org/</dc:title>
     </cc:Agent>
    </dc:creator>
   </cc:Work>
  </rdf:RDF>
 </metadata>
 <defs>
  <style type="text/css">*{stroke-linejoin: round; stroke-linecap: butt}</style>
 </defs>
 <g id="figure_1">
  <g id="patch_1">
   <path d="M 0 345.6 
L 460.8 345.6 
L 460.8 0 
L 0 0 
z
" style="fill: #ffffff"/>
  </g>
  <g id="axes_1">
   <g id="patch_2">
    <path d="M 59.652 294.948 
L 366.71622 294.948 
L 366.71622 45.085814 
L 59.652 45.085814 
z
" style="fill: #ffffff"/>
   </g>
   <g id="matplotlib.axis_1">
    <g id="xtick_1">
     <g id="line2d_1">
      <path d="M 73.609465 294.948 
L 73.609465 45.085814 
" clip-path="url(#p431c2572dc)" style="fill: none; stroke: #cccccc; stroke-linecap: round"/>
     </g>
     <g id="text_1">
      <!-- 0 -->
      <g style="fill: #262626" transform="translate(70.309465 313.523) scale(0.132 -0.132)">
       <defs>
        <path id="SimHei-30" d="M 225 2537 
Q 250 3200 412 3587 
Q 575 3975 875 4225 
Q 1175 4475 1612 4475 
Q 2050 4475 2375 4112 
Q 2700 3750 2800 3200 
Q 2900 2650 2862 1937 
Q 2825 1225 2612 775 
Q 2400 325 1975 150 
Q 1550 -25 1125 187 
Q 700 400 525 750 
Q 350 1100 275 1487 
Q 200 1875 225 2537 
z
M 750 2687 
Q 675 2000 800 1462 
Q 925 925 1212 700 
Q 1500 475 1800 612 
Q 2100 750 2237 1162 
Q 2375 1575 2375 2062 
Q 2375 2550 2337 2950 
Q 2300 3350 2112 3675 
Q 1925 4000 1612 4012 
Q 1300 4025 1062 3700 
Q 825 3375 750 2687 
z
" transform="scale(0.015625)"/>
       </defs>
       <use xlink:href="#SimHei-30"/>
      </g>
     </g>
    </g>
    <g id="xtick_2">
     <g id="line2d_2">
      <path d="M 129.551206 294.948 
L 129.551206 45.085814 
" clip-path="url(#p431c2572dc)" style="fill: none; stroke: #cccccc; stroke-linecap: round"/>
     </g>
     <g id="text_2">
      <!-- 100 -->
      <g style="fill: #262626" transform="translate(119.651206 313.523) scale(0.132 -0.132)">
       <defs>
        <path id="SimHei-31" d="M 1400 3600 
Q 1075 3275 575 2975 
L 575 3450 
Q 1200 3875 1600 4450 
L 1900 4450 
L 1900 150 
L 1400 150 
L 1400 3600 
z
" transform="scale(0.015625)"/>
       </defs>
       <use xlink:href="#SimHei-31"/>
       <use xlink:href="#SimHei-30" x="50"/>
       <use xlink:href="#SimHei-30" x="100"/>
      </g>
     </g>
    </g>
    <g id="xtick_3">
     <g id="line2d_3">
      <path d="M 185.492948 294.948 
L 185.492948 45.085814 
" clip-path="url(#p431c2572dc)" style="fill: none; stroke: #cccccc; stroke-linecap: round"/>
     </g>
     <g id="text_3">
      <!-- 200 -->
      <g style="fill: #262626" transform="translate(175.592948 313.523) scale(0.132 -0.132)">
       <defs>
        <path id="SimHei-32" d="M 300 250 
Q 325 625 650 925 
Q 975 1225 1475 1862 
Q 1975 2500 2125 2850 
Q 2275 3200 2237 3450 
Q 2200 3700 2000 3862 
Q 1800 4025 1537 4000 
Q 1275 3975 1037 3800 
Q 800 3625 675 3275 
L 200 3350 
Q 400 3925 712 4187 
Q 1025 4450 1450 4475 
Q 1700 4500 1900 4462 
Q 2100 4425 2312 4287 
Q 2525 4150 2662 3875 
Q 2800 3600 2762 3212 
Q 2725 2825 2375 2287 
Q 2025 1750 1025 600 
L 2825 600 
L 2825 150 
L 300 150 
L 300 250 
z
" transform="scale(0.015625)"/>
       </defs>
       <use xlink:href="#SimHei-32"/>
       <use xlink:href="#SimHei-30" x="50"/>
       <use xlink:href="#SimHei-30" x="100"/>
      </g>
     </g>
    </g>
    <g id="xtick_4">
     <g id="line2d_4">
      <path d="M 241.43469 294.948 
L 241.43469 45.085814 
" clip-path="url(#p431c2572dc)" style="fill: none; stroke: #cccccc; stroke-linecap: round"/>
     </g>
     <g id="text_4">
      <!-- 300 -->
      <g style="fill: #262626" transform="translate(231.53469 313.523) scale(0.132 -0.132)">
       <defs>
        <path id="SimHei-33" d="M 250 1225 
L 700 1300 
Q 800 975 1025 762 
Q 1250 550 1587 562 
Q 1925 575 2125 837 
Q 2325 1100 2300 1437 
Q 2275 1775 2037 1962 
Q 1800 2150 1275 2225 
L 1275 2550 
Q 1800 2600 2037 2825 
Q 2275 3050 2250 3412 
Q 2225 3775 1925 3937 
Q 1625 4100 1287 3975 
Q 950 3850 750 3275 
L 300 3350 
Q 450 3800 712 4100 
Q 975 4400 1425 4450 
Q 1875 4500 2212 4337 
Q 2550 4175 2687 3837 
Q 2825 3500 2725 3100 
Q 2625 2700 2150 2400 
Q 2500 2250 2687 1950 
Q 2875 1650 2812 1162 
Q 2750 675 2375 375 
Q 2000 75 1525 87 
Q 1050 100 700 387 
Q 350 675 250 1225 
z
" transform="scale(0.015625)"/>
       </defs>
       <use xlink:href="#SimHei-33"/>
       <use xlink:href="#SimHei-30" x="50"/>
       <use xlink:href="#SimHei-30" x="100"/>
      </g>
     </g>
    </g>
    <g id="xtick_5">
     <g id="line2d_5">
      <path d="M 297.376431 294.948 
L 297.376431 45.085814 
" clip-path="url(#p431c2572dc)" style="fill: none; stroke: #cccccc; stroke-linecap: round"/>
     </g>
     <g id="text_5">
      <!-- 400 -->
      <g style="fill: #262626" transform="translate(287.476431 313.523) scale(0.132 -0.132)">
       <defs>
        <path id="SimHei-34" d="M 2000 1100 
L 75 1100 
L 75 1525 
L 2100 4450 
L 2475 4450 
L 2475 1525 
L 3075 1525 
L 3075 1100 
L 2475 1100 
L 2475 150 
L 2000 150 
L 2000 1100 
z
M 2000 1525 
L 2000 3500 
L 600 1525 
L 2000 1525 
z
" transform="scale(0.015625)"/>
       </defs>
       <use xlink:href="#SimHei-34"/>
       <use xlink:href="#SimHei-30" x="50"/>
       <use xlink:href="#SimHei-30" x="100"/>
      </g>
     </g>
    </g>
    <g id="xtick_6">
     <g id="line2d_6">
      <path d="M 353.318173 294.948 
L 353.318173 45.085814 
" clip-path="url(#p431c2572dc)" style="fill: none; stroke: #cccccc; stroke-linecap: round"/>
     </g>
     <g id="text_6">
      <!-- 500 -->
      <g style="fill: #262626" transform="translate(343.418173 313.523) scale(0.132 -0.132)">
       <defs>
        <path id="SimHei-35" d="M 550 1325 
Q 725 650 1150 575 
Q 1575 500 1837 662 
Q 2100 825 2212 1087 
Q 2325 1350 2312 1675 
Q 2300 2000 2137 2225 
Q 1975 2450 1725 2525 
Q 1475 2600 1162 2525 
Q 850 2450 650 2175 
L 225 2225 
Q 275 2375 700 4375 
L 2675 4375 
L 2675 3925 
L 1075 3925 
Q 950 3250 825 2850 
Q 1200 3025 1525 3012 
Q 1850 3000 2150 2862 
Q 2450 2725 2587 2487 
Q 2725 2250 2787 2012 
Q 2850 1775 2837 1500 
Q 2825 1225 2725 937 
Q 2625 650 2425 462 
Q 2225 275 1937 162 
Q 1650 50 1275 75 
Q 900 100 562 350 
Q 225 600 100 1200 
L 550 1325 
z
" transform="scale(0.015625)"/>
       </defs>
       <use xlink:href="#SimHei-35"/>
       <use xlink:href="#SimHei-30" x="50"/>
       <use xlink:href="#SimHei-30" x="100"/>
      </g>
     </g>
    </g>
    <g id="text_7">
     <!-- Epochs -->
     <g style="fill: #262626" transform="translate(191.58411 329.073) scale(0.144 -0.144)">
      <defs>
       <path id="SimHei-45" d="M 2900 125 
L 350 125 
L 350 4400 
L 2775 4400 
L 2775 3925 
L 925 3925 
L 925 2600 
L 2625 2600 
L 2625 2125 
L 925 2125 
L 925 600 
L 2900 600 
L 2900 125 
z
" transform="scale(0.015625)"/>
       <path id="SimHei-70" d="M 2825 1525 
Q 2825 800 2475 425 
Q 2125 50 1625 50 
Q 1350 50 1150 162 
Q 950 275 800 500 
L 800 -800 
L 300 -800 
L 300 2925 
L 800 2925 
L 800 2550 
Q 950 2775 1150 2875 
Q 1350 2975 1625 2975 
Q 2125 2975 2475 2612 
Q 2825 2250 2825 1525 
z
M 2275 1525 
Q 2275 2000 2087 2262 
Q 1900 2525 1525 2525 
Q 1225 2525 1012 2262 
Q 800 2000 800 1525 
Q 800 1050 1012 775 
Q 1225 500 1525 500 
Q 1900 500 2087 775 
Q 2275 1050 2275 1525 
z
" transform="scale(0.015625)"/>
       <path id="SimHei-6f" d="M 2925 1525 
Q 2925 875 2525 475 
Q 2125 75 1575 75 
Q 1025 75 625 475 
Q 225 875 225 1525 
Q 225 2175 625 2575 
Q 1025 2975 1575 2975 
Q 2125 2975 2525 2575 
Q 2925 2175 2925 1525 
z
M 2375 1525 
Q 2375 2025 2125 2275 
Q 1875 2525 1575 2525 
Q 1275 2525 1025 2275 
Q 775 2025 775 1525 
Q 775 1025 1025 775 
Q 1275 525 1575 525 
Q 1875 525 2125 775 
Q 2375 1025 2375 1525 
z
" transform="scale(0.015625)"/>
       <path id="SimHei-63" d="M 2850 1250 
Q 2850 725 2487 400 
Q 2125 75 1575 75 
Q 1025 75 625 462 
Q 225 850 225 1525 
Q 225 2200 625 2587 
Q 1025 2975 1575 2975 
Q 2125 2975 2450 2687 
Q 2775 2400 2775 2000 
L 2225 2000 
Q 2200 2300 2012 2412 
Q 1825 2525 1575 2525 
Q 1275 2525 1025 2287 
Q 775 2050 775 1525 
Q 775 1000 1025 762 
Q 1275 525 1575 525 
Q 1900 525 2100 700 
Q 2300 875 2300 1250 
L 2850 1250 
z
" transform="scale(0.015625)"/>
       <path id="SimHei-68" d="M 2800 125 
L 2300 125 
L 2300 1925 
Q 2300 2225 2150 2400 
Q 2000 2575 1750 2575 
Q 1425 2575 1137 2237 
Q 850 1900 850 1400 
L 850 125 
L 350 125 
L 350 4400 
L 850 4400 
L 850 2400 
Q 1050 2675 1287 2825 
Q 1525 2975 1900 2975 
Q 2350 2975 2575 2725 
Q 2800 2475 2800 2100 
L 2800 125 
z
" transform="scale(0.015625)"/>
       <path id="SimHei-73" d="M 2750 900 
Q 2750 500 2437 287 
Q 2125 75 1650 75 
Q 1050 75 725 312 
Q 400 550 400 1000 
L 900 1000 
Q 900 700 1112 600 
Q 1325 500 1625 500 
Q 1925 500 2075 612 
Q 2225 725 2225 900 
Q 2225 1025 2100 1150 
Q 1975 1275 1475 1350 
Q 900 1425 687 1637 
Q 475 1850 475 2200 
Q 475 2500 762 2737 
Q 1050 2975 1600 2975 
Q 2100 2975 2387 2750 
Q 2675 2525 2675 2150 
L 2175 2150 
Q 2175 2375 2012 2462 
Q 1850 2550 1600 2550 
Q 1275 2550 1137 2437 
Q 1000 2325 1000 2175 
Q 1000 2000 1125 1900 
Q 1250 1800 1650 1750 
Q 2300 1650 2525 1437 
Q 2750 1225 2750 900 
z
" transform="scale(0.015625)"/>
      </defs>
      <use xlink:href="#SimHei-45"/>
      <use xlink:href="#SimHei-70" x="50"/>
      <use xlink:href="#SimHei-6f" x="100"/>
      <use xlink:href="#SimHei-63" x="150"/>
      <use xlink:href="#SimHei-68" x="200"/>
      <use xlink:href="#SimHei-73" x="250"/>
     </g>
    </g>
   </g>
   <g id="matplotlib.axis_2">
    <g id="ytick_1">
     <g id="line2d_7">
      <path d="M 59.652 294.948 
L 366.71622 294.948 
" clip-path="url(#p431c2572dc)" style="fill: none; stroke: #cccccc; stroke-linecap: round"/>
     </g>
     <g id="text_8">
      <!-- 0.0 -->
      <g style="fill: #262626" transform="translate(30.352 299.4855) scale(0.132 -0.132)">
       <defs>
        <path id="SimHei-2e" d="M 1075 125 
L 500 125 
L 500 675 
L 1075 675 
L 1075 125 
z
" transform="scale(0.015625)"/>
       </defs>
       <use xlink:href="#SimHei-30"/>
       <use xlink:href="#SimHei-2e" x="50"/>
       <use xlink:href="#SimHei-30" x="100"/>
      </g>
     </g>
    </g>
    <g id="ytick_2">
     <g id="line2d_8">
      <path d="M 59.652 244.975563 
L 366.71622 244.975563 
" clip-path="url(#p431c2572dc)" style="fill: none; stroke: #cccccc; stroke-linecap: round"/>
     </g>
     <g id="text_9">
      <!-- 0.2 -->
      <g style="fill: #262626" transform="translate(30.352 249.513063) scale(0.132 -0.132)">
       <use xlink:href="#SimHei-30"/>
       <use xlink:href="#SimHei-2e" x="50"/>
       <use xlink:href="#SimHei-32" x="100"/>
      </g>
     </g>
    </g>
    <g id="ytick_3">
     <g id="line2d_9">
      <path d="M 59.652 195.003126 
L 366.71622 195.003126 
" clip-path="url(#p431c2572dc)" style="fill: none; stroke: #cccccc; stroke-linecap: round"/>
     </g>
     <g id="text_10">
      <!-- 0.4 -->
      <g style="fill: #262626" transform="translate(30.352 199.540626) scale(0.132 -0.132)">
       <use xlink:href="#SimHei-30"/>
       <use xlink:href="#SimHei-2e" x="50"/>
       <use xlink:href="#SimHei-34" x="100"/>
      </g>
     </g>
    </g>
    <g id="ytick_4">
     <g id="line2d_10">
      <path d="M 59.652 145.030688 
L 366.71622 145.030688 
" clip-path="url(#p431c2572dc)" style="fill: none; stroke: #cccccc; stroke-linecap: round"/>
     </g>
     <g id="text_11">
      <!-- 0.6 -->
      <g style="fill: #262626" transform="translate(30.352 149.568188) scale(0.132 -0.132)">
       <defs>
        <path id="SimHei-36" d="M 250 1612 
Q 275 1975 387 2225 
Q 500 2475 725 2850 
L 1750 4450 
L 2325 4450 
L 1275 2800 
Q 1950 2975 2350 2750 
Q 2750 2525 2887 2237 
Q 3025 1950 3037 1612 
Q 3050 1275 2937 950 
Q 2825 625 2537 362 
Q 2250 100 1737 75 
Q 1225 50 862 262 
Q 500 475 362 862 
Q 225 1250 250 1612 
z
M 1025 787 
Q 1250 550 1625 525 
Q 2000 500 2250 775 
Q 2500 1050 2500 1575 
Q 2500 2100 2187 2300 
Q 1875 2500 1487 2450 
Q 1100 2400 925 2075 
Q 750 1750 775 1387 
Q 800 1025 1025 787 
z
" transform="scale(0.015625)"/>
       </defs>
       <use xlink:href="#SimHei-30"/>
       <use xlink:href="#SimHei-2e" x="50"/>
       <use xlink:href="#SimHei-36" x="100"/>
      </g>
     </g>
    </g>
    <g id="ytick_5">
     <g id="line2d_11">
      <path d="M 59.652 95.058251 
L 366.71622 95.058251 
" clip-path="url(#p431c2572dc)" style="fill: none; stroke: #cccccc; stroke-linecap: round"/>
     </g>
     <g id="text_12">
      <!-- 0.8 -->
      <g style="fill: #262626" transform="translate(30.352 99.595751) scale(0.132 -0.132)">
       <defs>
        <path id="SimHei-38" d="M 175 1375 
Q 175 1675 325 1962 
Q 475 2250 825 2425 
Q 525 2600 425 2812 
Q 325 3025 312 3300 
Q 300 3575 387 3775 
Q 475 3975 650 4150 
Q 825 4325 1037 4387 
Q 1250 4450 1500 4450 
Q 1750 4450 1950 4400 
Q 2150 4350 2375 4187 
Q 2600 4025 2700 3725 
Q 2800 3425 2687 3025 
Q 2575 2625 2100 2400 
Q 2525 2275 2700 2012 
Q 2875 1750 2875 1375 
Q 2875 1000 2762 775 
Q 2650 550 2512 400 
Q 2375 250 2137 162 
Q 1900 75 1537 75 
Q 1175 75 912 162 
Q 650 250 475 425 
Q 300 600 237 837 
Q 175 1075 175 1375 
z
M 687 1400 
Q 675 1100 787 875 
Q 900 650 1200 587 
Q 1500 525 1825 600 
Q 2150 675 2275 950 
Q 2400 1225 2362 1500 
Q 2325 1775 2050 1962 
Q 1775 2150 1450 2125 
Q 1125 2100 912 1900 
Q 700 1700 687 1400 
z
M 775 3350 
Q 775 3100 950 2875 
Q 1125 2650 1500 2650 
Q 1875 2650 2062 2875 
Q 2250 3100 2237 3412 
Q 2225 3725 2012 3875 
Q 1800 4025 1437 4000 
Q 1075 3975 925 3787 
Q 775 3600 775 3350 
z
" transform="scale(0.015625)"/>
       </defs>
       <use xlink:href="#SimHei-30"/>
       <use xlink:href="#SimHei-2e" x="50"/>
       <use xlink:href="#SimHei-38" x="100"/>
      </g>
     </g>
    </g>
    <g id="ytick_6">
     <g id="line2d_12">
      <path d="M 59.652 45.085814 
L 366.71622 45.085814 
" clip-path="url(#p431c2572dc)" style="fill: none; stroke: #cccccc; stroke-linecap: round"/>
     </g>
     <g id="text_13">
      <!-- 1.0 -->
      <g style="fill: #262626" transform="translate(30.352 49.623314) scale(0.132 -0.132)">
       <use xlink:href="#SimHei-31"/>
       <use xlink:href="#SimHei-2e" x="50"/>
       <use xlink:href="#SimHei-30" x="100"/>
      </g>
     </g>
    </g>
    <g id="text_14">
     <!-- R2 -->
     <g style="fill: #262626" transform="translate(24.552 177.216907) rotate(-90) scale(0.144 -0.144)">
      <defs>
       <path id="SimHei-52" d="M 3000 125 
L 2400 125 
L 1500 1975 
L 850 1975 
L 850 125 
L 275 125 
L 275 4400 
L 1525 4400 
Q 2125 4400 2500 4112 
Q 2875 3825 2875 3175 
Q 2875 2675 2625 2400 
Q 2375 2125 2050 2050 
L 3000 125 
z
M 2300 3175 
Q 2300 3525 2087 3725 
Q 1875 3925 1400 3925 
L 850 3925 
L 850 2450 
L 1550 2450 
Q 1850 2450 2075 2612 
Q 2300 2775 2300 3175 
z
" transform="scale(0.015625)"/>
      </defs>
      <use xlink:href="#SimHei-52"/>
      <use xlink:href="#SimHei-32" x="50"/>
     </g>
    </g>
   </g>
   <g id="PolyCollection_1"/>
   <g id="PolyCollection_2"/>
   <g id="line2d_13">
    <path d="M 73.980921 346.6 
L 74.168882 302.757889 
L 75.287717 256.677617 
L 75.847134 204.737474 
L 76.406552 114.291163 
L 76.965969 69.671314 
L 77.525386 60.698537 
L 78.084804 57.928538 
L 78.644221 56.743402 
L 79.203639 56.100265 
L 80.322474 55.488016 
L 81.441308 55.138627 
L 82.560143 54.979466 
L 83.678978 54.676827 
L 84.238395 54.705675 
L 84.797813 54.622929 
L 85.35723 54.425493 
L 86.476065 54.40372 
L 87.035483 54.450573 
L 88.154317 54.172269 
L 89.273152 54.287972 
L 90.951404 54.045143 
L 91.510822 54.08449 
L 92.070239 53.983694 
L 92.629657 54.078309 
L 93.189074 54.34674 
L 93.748492 53.960238 
L 95.986161 53.887322 
L 96.545579 54.355824 
L 97.104996 54.107157 
L 98.223831 53.923929 
L 99.342666 53.95918 
L 100.461501 53.916393 
L 101.020918 53.945345 
L 101.580335 54.117895 
L 102.139753 54.003681 
L 102.69917 54.130003 
L 103.258588 53.907323 
L 104.377422 53.827929 
L 106.055675 53.856479 
L 106.615092 54.046766 
L 107.733927 53.853992 
L 108.852762 53.874827 
L 109.412179 54.011812 
L 109.971597 53.796743 
L 112.209266 53.997247 
L 112.768684 53.780897 
L 113.328101 53.896049 
L 113.887519 53.842792 
L 114.446936 53.94119 
L 117.244023 53.80833 
L 117.80344 53.879771 
L 118.922275 53.876599 
L 123.957032 53.774984 
L 124.516449 53.909155 
L 126.194702 53.76791 
L 126.754119 53.857834 
L 127.313537 53.760017 
L 127.872954 54.015863 
L 128.991789 53.792365 
L 129.551206 53.836656 
L 130.110624 53.712806 
L 130.670041 53.728087 
L 131.229458 53.910704 
L 131.788876 53.783682 
L 133.467128 53.769563 
L 134.026546 53.755147 
L 134.585963 53.861423 
L 135.704798 53.723142 
L 137.38305 53.865385 
L 138.501885 53.70956 
L 139.061302 53.814004 
L 140.180137 53.688203 
L 140.739555 53.700564 
L 141.298972 53.83119 
L 142.977224 53.705688 
L 143.536642 54.009802 
L 144.655476 53.985764 
L 145.214894 53.799766 
L 147.452564 53.721653 
L 148.011981 53.775744 
L 149.130816 53.6671 
L 153.046738 53.714474 
L 153.606155 53.653577 
L 154.72499 53.77972 
L 155.284407 53.705717 
L 155.843825 53.748177 
L 156.96266 53.663213 
L 157.522077 53.817593 
L 158.081494 53.697139 
L 160.319164 53.781418 
L 160.878582 53.645207 
L 162.556834 53.734997 
L 163.116251 54.076045 
L 164.235086 53.72761 
L 165.913338 53.641142 
L 167.591591 53.630553 
L 168.151008 53.957825 
L 168.710425 53.670421 
L 169.82926 53.630702 
L 173.185765 53.756517 
L 174.3046 53.619457 
L 179.898774 53.750634 
L 180.458191 53.860142 
L 181.017609 53.713819 
L 182.136443 53.667815 
L 183.814696 53.615511 
L 187.1712 53.708339 
L 188.290035 53.62817 
L 188.849452 53.697482 
L 189.968287 53.631104 
L 193.884209 53.572143 
L 194.443627 53.68865 
L 195.003044 53.617953 
L 195.562461 53.860381 
L 196.121879 53.637299 
L 198.918966 53.647992 
L 199.478383 53.601631 
L 200.037801 53.715457 
L 201.716053 53.565277 
L 203.394305 53.594795 
L 204.51314 53.627678 
L 205.072557 53.679431 
L 205.631975 53.547256 
L 207.310227 53.703335 
L 207.869645 53.570906 
L 208.988479 53.608288 
L 209.547897 53.573513 
L 211.226149 53.736367 
L 212.344984 53.521507 
L 212.904401 53.620172 
L 214.023236 53.530085 
L 215.142071 53.663779 
L 216.820323 53.508282 
L 219.057993 53.541582 
L 220.736245 53.513479 
L 222.414497 53.678806 
L 223.533332 53.506777 
L 224.09275 53.714668 
L 226.889837 53.55168 
L 228.008672 53.515371 
L 228.568089 53.616568 
L 229.686924 53.517739 
L 230.805759 53.576447 
L 231.365176 53.569909 
L 231.924594 53.806006 
L 232.484011 53.609554 
L 233.043428 53.538544 
L 233.602846 53.62464 
L 234.721681 53.517709 
L 238.637603 53.497231 
L 240.315855 53.512258 
L 248.147699 53.580914 
L 248.707116 53.451137 
L 252.063621 53.565962 
L 252.623038 53.464124 
L 253.182455 53.601809 
L 254.30129 53.471005 
L 255.979542 53.579902 
L 257.098377 53.464228 
L 267.727308 53.513747 
L 268.846143 53.641871 
L 272.762065 53.429066 
L 274.999735 53.444361 
L 277.237404 53.487268 
L 277.796822 53.425656 
L 278.915657 53.445538 
L 286.7475 53.494386 
L 288.425753 53.423288 
L 288.98517 53.537785 
L 290.104005 53.383047 
L 291.782257 53.457095 
L 292.901092 53.483664 
L 293.460509 53.529042 
L 294.579344 53.416943 
L 295.138762 53.459552 
L 296.257596 53.414665 
L 297.935849 53.3896 
L 299.054684 53.449365 
L 299.614101 53.639608 
L 301.851771 53.376911 
L 302.970605 53.414858 
L 306.32711 53.394544 
L 308.005362 53.490365 
L 309.683614 53.430168 
L 311.361867 53.577251 
L 311.921284 53.435559 
L 315.277789 53.375139 
L 315.837206 53.466 
L 317.515458 53.343893 
L 319.193711 53.430019 
L 320.871963 53.366605 
L 326.466137 53.352382 
L 329.263224 53.408156 
L 330.382059 53.537725 
L 331.500894 53.341883 
L 333.179146 53.347214 
L 337.654485 53.411597 
L 339.332738 53.335121 
L 345.486329 53.326126 
L 352.758756 53.390598 
L 352.758756 53.390598 
" clip-path="url(#p431c2572dc)" style="fill: none; stroke: #4c72b0; stroke-width: 1.5; stroke-linecap: round"/>
   </g>
   <g id="line2d_14">
    <path d="M 73.609465 315.838649 
L 74.057258 346.6 
M 74.275059 346.6 
L 74.728299 313.867024 
L 75.287717 337.428388 
L 76.406552 96.260213 
L 76.965969 74.143949 
L 77.525386 66.570677 
L 78.644221 62.38418 
L 79.203639 61.953089 
L 79.763056 61.174128 
L 80.881891 60.803324 
L 81.441308 60.206772 
L 82.000726 60.510796 
L 82.560143 59.574 
L 83.119561 59.401808 
L 83.678978 59.079659 
L 84.238395 59.098528 
L 84.797813 58.981171 
L 85.35723 58.639051 
L 85.916648 58.553506 
L 86.476065 58.769036 
L 87.035483 58.708109 
L 87.5949 58.297764 
L 88.713735 58.339137 
L 89.273152 58.750644 
L 89.83257 58.569992 
L 90.391987 58.208228 
L 90.951404 58.210253 
L 91.510822 57.989242 
L 92.070239 57.990284 
L 92.629657 59.162702 
L 93.748492 57.723775 
L 94.307909 57.822456 
L 95.426744 57.659705 
L 95.986161 58.558465 
L 96.545579 58.985848 
L 97.104996 57.7696 
L 98.223831 57.861728 
L 98.783248 57.898127 
L 99.342666 57.687659 
L 99.902083 57.859882 
L 100.461501 58.185352 
L 101.020918 58.32822 
L 101.580335 58.163102 
L 102.139753 59.47663 
L 102.69917 57.77529 
L 103.258588 57.520084 
L 103.818005 57.525326 
L 104.377422 57.761231 
L 105.496257 57.483775 
L 106.055675 57.588502 
L 106.615092 57.475643 
L 107.733927 57.673839 
L 108.293344 57.484639 
L 108.852762 57.607684 
L 109.412179 57.465844 
L 109.971597 57.45661 
L 110.531014 57.741929 
L 111.090431 57.504923 
L 111.649849 58.546685 
L 112.209266 57.455746 
L 113.328101 57.558835 
L 113.887519 57.832985 
L 114.446936 57.432335 
L 115.006353 57.656637 
L 115.565771 58.162864 
L 116.125188 57.478488 
L 116.684606 57.478801 
L 117.244023 57.763569 
L 117.80344 57.496643 
L 118.362858 57.9728 
L 118.922275 57.585643 
L 119.481693 58.407942 
L 120.04111 57.477937 
L 121.159945 57.437101 
L 121.719362 57.877872 
L 122.27878 57.761439 
L 122.838197 57.775453 
L 123.397615 57.447883 
L 124.516449 57.868192 
L 125.075867 57.363202 
L 126.194702 57.755869 
L 126.754119 57.450385 
L 127.313537 58.117142 
L 127.872954 57.848891 
L 128.432371 57.441851 
L 128.991789 57.768975 
L 129.551206 57.419303 
L 130.110624 57.502168 
L 130.670041 57.41001 
L 131.229458 57.612063 
L 131.788876 57.451055 
L 132.348293 58.863681 
L 132.907711 57.654284 
L 133.467128 57.490745 
L 134.585963 57.657099 
L 135.14538 57.706097 
L 135.704798 57.390069 
L 136.264215 57.495466 
L 137.38305 58.336203 
L 137.942467 57.56515 
L 138.501885 57.417948 
L 139.061302 57.841548 
L 139.62072 57.535766 
L 140.180137 57.430637 
L 141.298972 57.806684 
L 141.858389 57.751431 
L 142.417807 57.574845 
L 142.977224 57.741691 
L 143.536642 57.752146 
L 144.096059 57.584958 
L 144.655476 58.165663 
L 145.214894 57.678813 
L 145.774311 57.526131 
L 146.333729 58.175255 
L 146.893146 57.511923 
L 147.452564 57.782379 
L 148.011981 57.429252 
L 149.130816 57.527516 
L 149.690233 57.353789 
L 150.249651 57.393643 
L 150.809068 57.592985 
L 151.368485 57.443668 
L 151.927903 57.586209 
L 152.48732 57.464593 
L 153.046738 57.579954 
L 153.606155 57.392988 
L 154.165573 57.779906 
L 154.72499 57.419974 
L 155.284407 57.959634 
L 155.843825 57.454793 
L 156.403242 57.368697 
L 156.96266 57.866896 
L 158.081494 57.366285 
L 159.200329 57.368593 
L 159.759747 57.638662 
L 160.319164 57.450742 
L 160.878582 57.540413 
L 161.437999 57.350587 
L 161.997416 57.470684 
L 162.556834 58.021604 
L 163.116251 57.536094 
L 163.675669 57.689834 
L 164.235086 57.388728 
L 164.794503 57.635564 
L 165.353921 57.663265 
L 165.913338 57.44976 
L 167.591591 57.532177 
L 168.151008 57.597185 
L 168.710425 57.387954 
L 169.269843 57.372391 
L 169.82926 57.491534 
L 170.388678 58.245117 
L 170.948095 57.460259 
L 171.507512 57.62633 
L 172.06693 57.525624 
L 172.626347 57.595517 
L 173.185765 57.339522 
L 174.3046 57.516242 
L 174.864017 57.346224 
L 175.423434 57.492711 
L 177.101687 57.348473 
L 177.661104 58.371127 
L 178.220521 57.329305 
L 178.779939 57.410189 
L 179.339356 58.612452 
L 179.898774 58.19956 
L 180.458191 58.159423 
L 181.017609 57.34673 
L 181.577026 57.601072 
L 182.136443 57.396115 
L 182.695861 57.858065 
L 183.255278 57.440764 
L 184.374113 57.540279 
L 184.93353 57.325195 
L 187.730618 57.39269 
L 188.290035 57.712575 
L 188.849452 57.414746 
L 189.40887 57.833908 
L 189.968287 57.507604 
L 190.527705 57.586983 
L 191.087122 57.324257 
L 192.205957 57.397843 
L 192.765374 57.763643 
L 193.324792 57.341845 
L 194.443627 57.311761 
L 195.003044 58.048113 
L 195.562461 57.307532 
L 196.121879 57.484669 
L 196.681296 58.141999 
L 197.240714 57.338658 
L 197.800131 57.645915 
L 198.918966 57.328412 
L 201.716053 57.320936 
L 202.27547 57.436043 
L 203.394305 57.296154 
L 204.51314 57.852882 
L 205.072557 57.296481 
L 205.631975 57.5054 
L 206.75081 57.35784 
L 207.310227 57.588324 
L 209.547897 57.311791 
L 210.107314 57.624156 
L 210.666732 58.472577 
L 211.226149 57.407851 
L 211.785566 57.272146 
L 212.344984 57.413272 
L 213.463819 57.423578 
L 214.023236 57.287337 
L 214.582654 57.783838 
L 215.142071 57.276495 
L 217.939158 57.539117 
L 218.498575 57.319327 
L 219.057993 57.386271 
L 220.736245 57.299802 
L 221.295663 58.31501 
L 221.85508 57.328203 
L 228.008672 57.376993 
L 228.568089 57.64721 
L 230.246341 57.340267 
L 230.805759 57.536228 
L 231.365176 57.284775 
L 231.924594 57.835427 
L 232.484011 57.281559 
L 233.043428 57.62776 
L 233.602846 57.705784 
L 234.162263 57.23749 
L 234.721681 57.596351 
L 235.281098 57.619956 
L 235.840515 57.260887 
L 236.399933 57.27864 
L 236.95935 57.568873 
L 237.518768 57.317331 
L 238.637603 57.291418 
L 239.19702 57.245681 
L 240.315855 57.509808 
L 241.43469 57.322127 
L 241.994107 57.249271 
L 242.553524 57.329767 
L 243.672359 57.296869 
L 244.231777 57.4052 
L 245.350612 57.32037 
L 245.910029 57.439692 
L 248.707116 57.271491 
L 249.266533 57.337794 
L 249.825951 57.240886 
L 251.504203 57.595978 
L 252.063621 57.307994 
L 252.623038 57.307472 
L 253.182455 58.344721 
L 253.741873 57.229463 
L 254.860708 57.323735 
L 255.420125 57.699872 
L 255.979542 57.461882 
L 257.657795 57.281142 
L 258.77663 57.512623 
L 259.336047 57.25639 
L 259.895464 57.536407 
L 260.454882 57.259115 
L 261.014299 57.294098 
L 261.573717 57.450847 
L 262.133134 57.259309 
L 263.251969 57.386852 
L 263.811386 57.251445 
L 264.930221 57.53599 
L 265.489639 57.262079 
L 266.049056 57.271357 
L 266.608473 57.427003 
L 267.167891 57.288722 
L 267.727308 57.425841 
L 268.286726 58.348102 
L 268.846143 57.626956 
L 269.40556 58.004998 
L 269.964978 57.290584 
L 272.202648 57.241839 
L 274.440317 57.270657 
L 274.999735 57.731087 
L 275.559152 57.394581 
L 276.118569 57.362159 
L 276.677987 57.505012 
L 277.796822 57.363068 
L 278.356239 57.535185 
L 278.915657 57.470431 
L 279.475074 57.284001 
L 280.034491 57.271268 
L 280.593909 57.823066 
L 281.153326 57.356172 
L 283.950413 57.282005 
L 284.509831 57.752593 
L 285.069248 57.345345 
L 285.628666 57.417055 
L 287.866335 57.300234 
L 288.425753 57.83638 
L 288.98517 57.249986 
L 289.544587 57.248079 
L 290.663422 57.412944 
L 291.22284 57.27298 
L 291.782257 57.698531 
L 292.341675 57.404708 
L 292.901092 57.962941 
L 293.460509 57.303809 
L 294.019927 57.27447 
L 294.579344 57.772713 
L 295.138762 57.248139 
L 297.376431 57.264923 
L 297.935849 57.444458 
L 298.495266 57.302751 
L 299.054684 57.689879 
L 299.614101 58.964536 
L 300.173518 57.52832 
L 300.732936 57.458502 
L 301.292353 57.249092 
L 302.411188 57.369397 
L 302.970605 57.619748 
L 304.08944 57.265325 
L 305.208275 57.318195 
L 305.767693 57.36341 
L 306.32711 57.252264 
L 306.886527 57.451785 
L 307.445945 57.272206 
L 308.005362 57.381997 
L 310.243032 57.295662 
L 310.802449 58.469375 
L 311.361867 58.071332 
L 311.921284 57.424978 
L 312.480702 57.288856 
L 313.599536 57.249181 
L 314.158954 57.435969 
L 314.718371 57.275363 
L 315.277789 57.2689 
L 315.837206 57.752444 
L 316.396623 57.327399 
L 317.515458 57.276018 
L 318.074876 57.484549 
L 319.193711 57.25636 
L 319.753128 57.371229 
L 320.312545 57.268572 
L 320.871963 57.560444 
L 321.43138 57.322514 
L 323.66905 57.24723 
L 324.228467 57.325165 
L 324.787885 57.571256 
L 325.347302 57.679826 
L 325.90672 57.586775 
L 327.025554 57.25703 
L 327.584972 57.284686 
L 328.144389 57.489017 
L 328.703807 57.427569 
L 329.263224 57.248779 
L 329.822641 58.489749 
L 330.382059 57.472456 
L 331.500894 57.289422 
L 332.060311 57.531418 
L 332.619729 57.394983 
L 333.738563 57.320206 
L 334.857398 57.339433 
L 335.416816 57.545432 
L 336.53565 57.351883 
L 337.095068 57.492383 
L 338.213903 57.252279 
L 338.77332 57.365168 
L 339.892155 57.272608 
L 341.01099 57.311047 
L 341.570407 57.267291 
L 342.129825 57.388088 
L 342.689242 57.329216 
L 343.808077 57.4872 
L 344.926912 57.270121 
L 345.486329 57.309796 
L 346.045747 57.496896 
L 348.283416 57.312655 
L 348.842834 57.337258 
L 349.402251 57.627015 
L 349.961668 57.751818 
L 350.521086 57.42739 
L 351.080503 57.314338 
L 351.639921 57.331986 
L 352.199338 57.627492 
L 352.758756 57.406674 
L 352.758756 57.406674 
" clip-path="url(#p431c2572dc)" style="fill: none; stroke-dasharray: 6,2.25; stroke-dashoffset: 0; stroke: #dd8452; stroke-width: 1.5"/>
   </g>
   <g id="line2d_15"/>
   <g id="line2d_16"/>
   <g id="line2d_17">
    <path d="M 352.758756 53.390598 
" clip-path="url(#p431c2572dc)" style="fill: none; stroke: #8b0000; stroke-width: 1.5; stroke-linecap: round"/>
    <defs>
     <path id="md712d59fd1" d="M 0 3 
C 0.795609 3 1.55874 2.683901 2.12132 2.12132 
C 2.683901 1.55874 3 0.795609 3 0 
C 3 -0.795609 2.683901 -1.55874 2.12132 -2.12132 
C 1.55874 -2.683901 0.795609 -3 0 -3 
C -0.795609 -3 -1.55874 -2.683901 -2.12132 -2.12132 
C -2.683901 -1.55874 -3 -0.795609 -3 0 
C -3 0.795609 -2.683901 1.55874 -2.12132 2.12132 
C -1.55874 2.683901 -0.795609 3 0 3 
z
" style="stroke: #8b0000"/>
    </defs>
    <g clip-path="url(#p431c2572dc)">
     <use xlink:href="#md712d59fd1" x="352.758756" y="53.390598" style="fill: #8b0000; stroke: #8b0000"/>
    </g>
   </g>
   <g id="line2d_18">
    <path d="M 59.652 53.390598 
L 366.71622 53.390598 
" clip-path="url(#p431c2572dc)" style="fill: none; stroke-dasharray: 5.55,2.4; stroke-dashoffset: 0; stroke: #8b0000; stroke-width: 1.5"/>
   </g>
   <g id="line2d_19">
    <path d="M 352.758756 57.406674 
" clip-path="url(#p431c2572dc)" style="fill: none; stroke: #8b0000; stroke-width: 1.5; stroke-linecap: round"/>
    <g clip-path="url(#p431c2572dc)">
     <use xlink:href="#md712d59fd1" x="352.758756" y="57.406674" style="fill: #8b0000; stroke: #8b0000"/>
    </g>
   </g>
   <g id="line2d_20">
    <path d="M 59.652 57.406674 
L 366.71622 57.406674 
" clip-path="url(#p431c2572dc)" style="fill: none; stroke-dasharray: 5.55,2.4; stroke-dashoffset: 0; stroke: #8b0000; stroke-width: 1.5"/>
   </g>
   <g id="patch_3">
    <path d="M 59.652 294.948 
L 59.652 45.085814 
" style="fill: none; stroke: #cccccc; stroke-width: 1.25; stroke-linejoin: miter; stroke-linecap: square"/>
   </g>
   <g id="patch_4">
    <path d="M 366.71622 294.948 
L 366.71622 45.085814 
" style="fill: none; stroke: #cccccc; stroke-width: 1.25; stroke-linejoin: miter; stroke-linecap: square"/>
   </g>
   <g id="patch_5">
    <path d="M 59.652 294.948 
L 366.71622 294.948 
" style="fill: none; stroke: #cccccc; stroke-width: 1.25; stroke-linejoin: miter; stroke-linecap: square"/>
   </g>
   <g id="patch_6">
    <path d="M 59.652 45.085814 
L 366.71622 45.085814 
" style="fill: none; stroke: #cccccc; stroke-width: 1.25; stroke-linejoin: miter; stroke-linecap: square"/>
   </g>
   <g id="text_15">
    <!-- 训练集y=0.9668 -->
    <g style="fill: #8b0000" transform="translate(347.723999 28.404379) scale(0.144 -0.144)">
     <defs>
      <path id="SimHei-8bad" d="M 1650 3300 
Q 1625 2725 1625 2225 
L 1625 675 
Q 1950 1125 2050 1275 
Q 2175 1125 2350 900 
Q 2025 500 1800 212 
Q 1575 -75 1325 -425 
Q 1150 -200 950 -50 
Q 1150 225 1150 625 
L 1150 2875 
L 975 2875 
Q 600 2875 300 2850 
L 300 3325 
Q 600 3300 975 3300 
L 1650 3300 
z
M 3425 4600 
Q 3375 4350 3387 3362 
Q 3400 2375 3337 1887 
Q 3275 1400 3087 837 
Q 2900 275 2450 -375 
Q 2225 -200 1975 -125 
Q 2550 500 2762 1362 
Q 2975 2225 2950 3337 
Q 2925 4450 2900 4675 
Q 3150 4625 3425 4600 
z
M 5875 4700 
Q 5850 4500 5850 3975 
L 5850 625 
Q 5850 125 5875 -400 
L 5400 -400 
Q 5425 125 5425 600 
L 5425 3975 
Q 5425 4500 5400 4700 
L 5875 4700 
z
M 4600 175 
L 4125 175 
Q 4150 725 4150 1150 
L 4150 3600 
Q 4150 4050 4125 4350 
L 4600 4350 
L 4600 175 
z
M 1000 5150 
Q 1650 4600 2100 4100 
Q 1875 3925 1750 3750 
Q 1050 4550 700 4800 
Q 850 4950 1000 5150 
z
" transform="scale(0.015625)"/>
      <path id="SimHei-7ec3" d="M 3300 3825 
Q 2950 3825 2400 3800 
L 2400 4250 
Q 2950 4225 3325 4225 
L 3625 4225 
Q 3875 4950 3900 5175 
Q 4200 5025 4450 4925 
Q 4350 4825 4262 4612 
Q 4175 4400 4100 4225 
L 5025 4225 
Q 5425 4225 5900 4250 
L 5900 3800 
Q 5550 3825 5025 3825 
L 3975 3825 
Q 3850 3525 3700 3150 
L 4675 3150 
Q 4650 2875 4650 2475 
L 4650 1975 
L 4975 1975 
Q 5350 1975 5800 2000 
L 5800 1550 
Q 5350 1575 4975 1575 
L 4650 1575 
L 4650 125 
Q 4650 -300 4462 -425 
Q 4275 -550 3650 -625 
Q 3625 -375 3450 -100 
Q 4075 -125 4137 -25 
Q 4200 75 4200 325 
L 4200 1575 
L 3425 1575 
Q 3250 1575 3100 1562 
Q 2950 1550 2750 1475 
Q 2650 1725 2550 1950 
Q 2800 2025 3125 2775 
Q 2950 2775 2450 2750 
L 2450 3175 
Q 3025 3150 3250 3150 
Q 3400 3525 3500 3825 
L 3300 3825 
z
M 1650 2950 
Q 1875 3300 2100 3900 
Q 2325 3725 2575 3600 
Q 2325 3275 2025 2750 
Q 1725 2225 1075 1350 
Q 1300 1400 2400 1575 
Q 2350 1300 2375 1150 
Q 1825 1100 650 825 
Q 525 1075 400 1275 
Q 625 1400 887 1737 
Q 1150 2075 1450 2575 
Q 1300 2600 1012 2562 
Q 725 2525 450 2450 
Q 350 2675 250 2925 
Q 500 3075 812 3725 
Q 1125 4375 1325 5000 
Q 1600 4825 1850 4750 
Q 1600 4375 1387 3962 
Q 1175 3550 800 2925 
Q 1375 2925 1650 2950 
z
M 2425 700 
Q 2400 425 2425 250 
Q 2000 150 1462 -25 
Q 925 -200 475 -425 
Q 400 -150 300 125 
Q 950 275 1187 337 
Q 1425 400 2425 700 
z
M 3725 875 
Q 3650 800 3287 400 
Q 2925 0 2475 -475 
Q 2300 -250 2150 -125 
Q 2425 100 2750 462 
Q 3075 825 3325 1225 
Q 3475 1050 3725 875 
z
M 5275 1225 
Q 5925 375 6200 -100 
Q 5950 -200 5750 -375 
Q 5475 175 4900 950 
Q 5075 1050 5275 1225 
z
M 4200 1975 
L 4200 2775 
L 3575 2775 
Q 3325 2250 3175 1975 
L 4200 1975 
z
" transform="scale(0.015625)"/>
      <path id="SimHei-96c6" d="M 2275 4925 
Q 2125 4800 2025 4662 
Q 1925 4525 1850 4350 
L 4925 4350 
Q 5300 4350 5750 4375 
L 5750 3975 
L 3650 3975 
L 3650 3575 
L 4625 3575 
Q 4925 3575 5325 3600 
L 5325 3175 
Q 4925 3200 4625 3200 
L 3650 3200 
L 3650 2800 
L 4675 2800 
Q 5000 2800 5425 2825 
L 5425 2400 
Q 5000 2425 4675 2425 
L 3650 2425 
L 3650 2075 
L 4875 2075 
Q 5275 2075 5675 2100 
L 5675 1675 
Q 5300 1700 4900 1700 
L 1650 1700 
L 1650 1500 
L 1150 1500 
Q 1200 1950 1200 2325 
L 1200 3475 
Q 1050 3250 937 3125 
Q 825 3000 675 2825 
Q 500 3000 300 3125 
Q 475 3325 875 3825 
Q 1275 4325 1462 4650 
Q 1650 4975 1725 5225 
Q 1950 5100 2275 4925 
z
M 2975 1200 
Q 2975 1300 2950 1625 
L 3475 1625 
Q 3450 1275 3450 1200 
L 5050 1200 
Q 5500 1200 5925 1225 
L 5925 825 
L 4150 825 
Q 4500 525 4925 362 
Q 5350 200 6100 25 
Q 5875 -225 5775 -475 
Q 5275 -300 4962 -162 
Q 4650 -25 4387 137 
Q 4125 300 3950 462 
Q 3775 625 3575 825 
L 3450 825 
L 3450 250 
Q 3450 -275 3500 -650 
L 2950 -650 
Q 2975 -300 2975 250 
L 2975 825 
L 2875 825 
Q 2700 575 2475 375 
Q 2250 175 1987 12 
Q 1725 -150 1425 -300 
Q 1125 -450 700 -575 
Q 600 -325 400 -75 
Q 925 50 1475 262 
Q 2025 475 2300 825 
L 500 825 
L 500 1225 
Q 800 1200 1400 1200 
L 2975 1200 
z
M 3150 2800 
L 3150 3200 
L 1650 3200 
L 1650 2800 
L 3150 2800 
z
M 3150 3575 
L 3150 3975 
L 1650 3975 
L 1650 3575 
L 3150 3575 
z
M 3150 2075 
L 3150 2425 
L 1650 2425 
L 1650 2075 
L 3150 2075 
z
M 3450 5250 
Q 3575 5150 3712 5000 
Q 3850 4850 4000 4650 
Q 3850 4525 3575 4375 
Q 3425 4575 3325 4700 
Q 3225 4825 3075 4950 
Q 3275 5075 3450 5250 
z
" transform="scale(0.015625)"/>
      <path id="SimHei-79" d="M 2900 2925 
L 1750 -100 
Q 1650 -450 1450 -625 
Q 1250 -800 950 -800 
Q 825 -800 712 -787 
Q 600 -775 500 -725 
L 500 -225 
Q 600 -275 700 -300 
Q 800 -325 875 -325 
Q 1075 -325 1150 -262 
Q 1225 -200 1300 25 
L 200 2925 
L 750 2925 
L 1550 725 
L 1575 725 
L 2350 2925 
L 2900 2925 
z
" transform="scale(0.015625)"/>
      <path id="SimHei-3d" d="M 2975 2900 
L 125 2900 
L 125 3300 
L 2975 3300 
L 2975 2900 
z
M 2975 1375 
L 125 1375 
L 125 1775 
L 2975 1775 
L 2975 1375 
z
" transform="scale(0.015625)"/>
      <path id="SimHei-39" d="M 800 75 
Q 1350 1000 1700 1750 
Q 1075 1650 662 1912 
Q 250 2175 162 2625 
Q 75 3075 175 3437 
Q 275 3800 487 4037 
Q 700 4275 1000 4375 
Q 1300 4475 1537 4475 
Q 1775 4475 2025 4375 
Q 2275 4275 2475 4075 
Q 2675 3875 2750 3662 
Q 2825 3450 2825 3112 
Q 2825 2775 2575 2250 
Q 2325 1725 1350 75 
L 800 75 
z
M 662 2875 
Q 700 2550 937 2337 
Q 1175 2125 1450 2150 
Q 1725 2175 1887 2300 
Q 2050 2425 2200 2725 
Q 2300 3100 2250 3362 
Q 2200 3625 1987 3800 
Q 1775 3975 1525 3975 
Q 1375 4000 1137 3900 
Q 900 3800 762 3500 
Q 625 3200 662 2875 
z
" transform="scale(0.015625)"/>
     </defs>
     <use xlink:href="#SimHei-8bad"/>
     <use xlink:href="#SimHei-7ec3" x="100"/>
     <use xlink:href="#SimHei-96c6" x="200"/>
     <use xlink:href="#SimHei-79" x="300"/>
     <use xlink:href="#SimHei-3d" x="350"/>
     <use xlink:href="#SimHei-30" x="400"/>
     <use xlink:href="#SimHei-2e" x="450"/>
     <use xlink:href="#SimHei-39" x="500"/>
     <use xlink:href="#SimHei-36" x="550"/>
     <use xlink:href="#SimHei-36" x="600"/>
     <use xlink:href="#SimHei-38" x="650"/>
    </g>
   </g>
   <g id="text_16">
    <!-- 测试集y=0.9507 -->
    <g style="fill: #8b0000" transform="translate(347.723999 82.392893) scale(0.144 -0.144)">
     <defs>
      <path id="SimHei-6d4b" d="M 4025 4725 
Q 4000 4475 4000 4000 
L 4000 2225 
Q 4000 1775 4025 1350 
L 3550 1350 
L 3550 4325 
L 2350 4325 
L 2350 1325 
L 1900 1325 
Q 1925 1775 1925 2225 
L 1925 4000 
Q 1925 4200 1900 4725 
L 4025 4725 
z
M 5900 5075 
Q 5875 4800 5875 4375 
L 5875 0 
Q 5875 -325 5650 -425 
Q 5425 -525 4975 -600 
Q 4925 -325 4775 -50 
Q 5125 -50 5262 -25 
Q 5400 0 5400 250 
L 5400 4375 
Q 5400 4775 5375 5075 
L 5900 5075 
z
M 3275 3725 
Q 3225 3400 3200 2325 
Q 3175 1250 2837 550 
Q 2500 -150 2075 -600 
Q 1850 -400 1600 -325 
Q 2200 250 2475 962 
Q 2750 1675 2762 2475 
Q 2775 3275 2725 3800 
Q 3000 3750 3275 3725 
z
M 4950 4275 
Q 4925 4000 4925 3575 
L 4925 1825 
Q 4925 1300 4950 850 
L 4450 850 
Q 4475 1150 4475 1825 
L 4475 3575 
Q 4475 4000 4450 4275 
L 4950 4275 
z
M 1700 1675 
Q 1375 1075 1112 487 
Q 850 -100 725 -400 
Q 500 -200 200 -25 
Q 475 300 762 850 
Q 1050 1400 1250 2000 
Q 1475 1825 1700 1675 
z
M 3400 1050 
Q 3800 650 4300 -125 
Q 4100 -225 3875 -450 
Q 3475 275 3025 750 
Q 3225 875 3400 1050 
z
M 600 3525 
Q 1125 3125 1500 2775 
Q 1300 2575 1150 2375 
Q 825 2775 300 3150 
Q 450 3300 600 3525 
z
M 1350 4000 
Q 950 4375 475 4675 
Q 625 4850 775 5050 
Q 1300 4700 1675 4375 
Q 1500 4250 1350 4000 
z
" transform="scale(0.015625)"/>
      <path id="SimHei-8bd5" d="M 3950 3825 
Q 3925 4325 3925 4550 
Q 3925 4800 3900 5225 
Q 4200 5150 4450 5125 
Q 4425 4825 4425 4600 
L 4425 3825 
L 5150 3825 
Q 5500 3825 5875 3850 
L 5875 3400 
Q 5525 3425 5125 3425 
L 4450 3425 
Q 4500 2750 4587 2212 
Q 4675 1675 4837 1112 
Q 5000 550 5212 225 
Q 5425 -100 5500 200 
Q 5575 500 5600 900 
Q 5800 625 6100 525 
Q 5975 -275 5750 -487 
Q 5525 -700 5250 -537 
Q 4975 -375 4737 62 
Q 4500 500 4337 1075 
Q 4175 1650 4100 2262 
Q 4025 2875 3975 3425 
L 2800 3425 
Q 2300 3425 1875 3400 
L 1875 3850 
Q 2275 3825 2775 3825 
L 3950 3825 
z
M 1500 3175 
Q 1475 2675 1475 2175 
L 1475 625 
Q 1825 950 2125 1225 
Q 2225 1000 2375 800 
Q 1900 425 1125 -350 
Q 1000 -125 825 50 
Q 1025 175 1025 525 
L 1025 2725 
Q 625 2725 300 2700 
L 300 3200 
Q 625 3175 825 3175 
L 1500 3175 
z
M 3775 2175 
Q 3500 2200 3250 2200 
L 3250 575 
Q 3575 675 3900 800 
Q 3900 525 3950 325 
Q 3575 250 3150 125 
Q 2725 0 2275 -175 
Q 2200 100 2025 300 
Q 2425 350 2800 475 
L 2800 2200 
Q 2525 2200 2225 2175 
L 2225 2650 
Q 2600 2625 3000 2625 
Q 3425 2625 3775 2650 
L 3775 2175 
z
M 925 4975 
Q 1275 4650 1700 4100 
Q 1525 3925 1325 3775 
Q 1175 4050 575 4650 
Q 775 4825 925 4975 
z
M 5150 5150 
Q 5325 5000 5850 4375 
Q 5575 4200 5425 4050 
Q 5125 4525 4775 4875 
Q 4925 4975 5150 5150 
z
" transform="scale(0.015625)"/>
      <path id="SimHei-37" d="M 850 150 
Q 1300 2050 2425 3925 
L 275 3925 
L 275 4375 
L 2950 4375 
L 2950 3950 
Q 1775 2050 1400 150 
L 850 150 
z
" transform="scale(0.015625)"/>
     </defs>
     <use xlink:href="#SimHei-6d4b"/>
     <use xlink:href="#SimHei-8bd5" x="100"/>
     <use xlink:href="#SimHei-96c6" x="200"/>
     <use xlink:href="#SimHei-79" x="300"/>
     <use xlink:href="#SimHei-3d" x="350"/>
     <use xlink:href="#SimHei-30" x="400"/>
     <use xlink:href="#SimHei-2e" x="450"/>
     <use xlink:href="#SimHei-39" x="500"/>
     <use xlink:href="#SimHei-35" x="550"/>
     <use xlink:href="#SimHei-30" x="600"/>
     <use xlink:href="#SimHei-37" x="650"/>
    </g>
   </g>
   <g id="legend_1">
    <g id="patch_7">
     <path d="M 236.03622 288.348 
L 357.47622 288.348 
Q 360.11622 288.348 360.11622 285.708 
L 360.11622 249.129562 
Q 360.11622 246.489562 357.47622 246.489562 
L 236.03622 246.489562 
Q 233.39622 246.489562 233.39622 249.129562 
L 233.39622 285.708 
Q 233.39622 288.348 236.03622 288.348 
z
" style="fill: #ffffff; opacity: 0.8; stroke: #cccccc; stroke-linejoin: miter"/>
    </g>
    <g id="line2d_21">
     <path d="M 238.67622 257.823 
L 251.87622 257.823 
L 265.07622 257.823 
" style="fill: none; stroke: #4c72b0; stroke-width: 1.5; stroke-linecap: round"/>
    </g>
    <g id="text_17">
     <!-- 训练集准确率 -->
     <g style="fill: #262626" transform="translate(275.63622 262.443) scale(0.132 -0.132)">
      <defs>
       <path id="SimHei-51c6" d="M 1600 2775 
Q 1900 3050 2275 3787 
Q 2650 4525 2800 5175 
Q 3075 5050 3400 4950 
Q 3250 4775 3000 4100 
L 4825 4100 
Q 5400 4100 5875 4125 
L 5875 3675 
Q 5375 3700 4825 3700 
L 4525 3700 
L 4525 2850 
Q 5250 2850 5700 2875 
L 5700 2425 
Q 5250 2450 4525 2450 
L 4525 1600 
Q 5275 1600 5700 1625 
L 5700 1200 
Q 5275 1225 4525 1225 
L 4525 375 
Q 5575 375 6050 400 
L 6050 -100 
Q 5575 -75 4975 -75 
L 2950 -75 
L 2950 -600 
L 2425 -600 
Q 2450 -150 2450 675 
L 2450 3050 
Q 2300 2775 2075 2400 
Q 1875 2650 1600 2775 
z
M 1675 2050 
Q 1425 1425 1200 850 
Q 975 275 775 -125 
Q 550 50 275 200 
Q 550 650 775 1112 
Q 1000 1575 1225 2300 
Q 1400 2125 1675 2050 
z
M 4025 1600 
L 4025 2450 
L 2950 2450 
L 2950 1600 
L 4025 1600 
z
M 4025 2850 
L 4025 3700 
L 2950 3700 
L 2950 2850 
L 4025 2850 
z
M 4025 375 
L 4025 1225 
L 2950 1225 
L 2950 375 
L 4025 375 
z
M 725 4775 
Q 850 4625 1162 4312 
Q 1475 4000 1750 3700 
Q 1525 3475 1375 3300 
Q 1100 3700 350 4450 
Q 550 4600 725 4775 
z
M 4150 5225 
Q 4600 4800 4800 4500 
Q 4625 4400 4400 4200 
Q 4225 4500 3775 4925 
Q 3925 5000 4150 5225 
z
" transform="scale(0.015625)"/>
       <path id="SimHei-786e" d="M 4975 -200 
Q 5250 -175 5362 -125 
Q 5475 -75 5475 125 
L 5475 975 
L 4625 975 
L 4625 -400 
L 4200 -400 
L 4200 975 
L 3500 975 
Q 3475 625 3325 237 
Q 3175 -150 2800 -600 
Q 2625 -350 2325 -325 
Q 2650 -50 2812 262 
Q 2975 575 3025 1000 
Q 3075 1425 3087 2187 
Q 3100 2950 3075 3425 
L 4250 3425 
Q 4475 3825 4650 4225 
L 3625 4225 
Q 3325 3875 2850 3250 
Q 2650 3425 2425 3500 
Q 2875 3975 3175 4425 
Q 3475 4875 3625 5300 
Q 3900 5175 4200 5100 
Q 4075 5025 3825 4575 
L 5350 4575 
Q 4900 3775 4750 3425 
L 5950 3425 
Q 5925 2975 5925 2450 
L 5925 -50 
Q 5950 -350 5775 -462 
Q 5600 -575 5175 -675 
Q 5150 -425 4975 -200 
z
M 200 1975 
Q 550 2300 850 2837 
Q 1150 3375 1300 4225 
Q 825 4225 525 4200 
L 525 4650 
Q 875 4625 1200 4625 
L 1900 4625 
Q 2325 4625 2625 4650 
L 2625 4200 
Q 2325 4225 1800 4225 
Q 1650 3525 1400 2925 
L 2525 2925 
Q 2500 2500 2500 2125 
L 2500 1075 
Q 2500 650 2525 125 
L 2075 125 
L 2075 600 
L 1350 600 
L 1350 -300 
L 900 -300 
Q 925 225 925 600 
L 925 2100 
Q 800 1900 625 1625 
Q 475 1825 200 1975 
z
M 2075 975 
L 2075 2575 
L 1350 2575 
L 1350 975 
L 2075 975 
z
M 5475 2350 
L 5475 3075 
L 4625 3075 
L 4625 2350 
L 5475 2350 
z
M 5475 1325 
L 5475 2000 
L 4625 2000 
L 4625 1325 
L 5475 1325 
z
M 4200 2350 
L 4200 3075 
L 3500 3075 
L 3500 2350 
L 4200 2350 
z
M 4200 1325 
L 4200 2000 
L 3500 2000 
L 3500 1325 
L 4200 1325 
z
" transform="scale(0.015625)"/>
       <path id="SimHei-7387" d="M 3325 5150 
Q 3425 4900 3550 4525 
L 4800 4525 
Q 5250 4525 5800 4550 
L 5800 4125 
Q 5250 4175 4775 4175 
L 2800 4175 
Q 2975 4050 3300 3900 
Q 3075 3750 2875 3537 
Q 2675 3325 2475 3125 
L 3275 3125 
Q 3575 3425 3775 3775 
Q 4000 3600 4275 3425 
Q 3950 3250 3600 2875 
Q 3250 2500 2625 2000 
L 3850 2100 
Q 3725 2250 3600 2425 
Q 3750 2475 4000 2650 
Q 4250 2350 4700 1700 
Q 4475 1625 4225 1450 
Q 4175 1600 4025 1775 
Q 3700 1750 3425 1750 
L 3425 1050 
L 5150 1050 
Q 5675 1050 6100 1075 
L 6100 650 
Q 5700 675 5125 675 
L 3425 675 
L 3425 175 
Q 3425 -300 3450 -625 
L 2900 -625 
Q 2925 -300 2925 175 
L 2925 675 
L 1325 675 
Q 825 675 325 650 
L 325 1075 
Q 825 1050 1350 1050 
L 2925 1050 
L 2925 1700 
Q 2700 1675 2475 1637 
Q 2250 1600 2025 1525 
Q 1950 1775 1850 2000 
Q 2075 2025 2325 2200 
Q 2575 2375 2975 2800 
Q 2300 2725 2025 2625 
Q 1975 2875 1850 3175 
Q 2075 3175 2325 3487 
Q 2575 3800 2750 4175 
L 1700 4175 
Q 1150 4175 650 4125 
L 650 4550 
Q 1150 4525 1550 4525 
L 2975 4525 
Q 2900 4825 2800 5025 
Q 3025 5075 3325 5150 
z
M 1625 2575 
Q 1725 2400 1825 2200 
Q 1575 2050 1325 1862 
Q 1075 1675 800 1425 
Q 625 1675 475 1875 
Q 800 2025 1100 2212 
Q 1400 2400 1625 2575 
z
M 4850 2650 
Q 5125 2475 5337 2337 
Q 5550 2200 5875 1950 
Q 5675 1800 5500 1600 
Q 5300 1775 5062 1975 
Q 4825 2175 4575 2325 
Q 4725 2475 4850 2650 
z
M 5725 3525 
Q 5550 3450 5300 3262 
Q 5050 3075 4800 2825 
Q 4625 3050 4475 3175 
Q 4700 3325 4875 3487 
Q 5050 3650 5300 3925 
Q 5525 3700 5725 3525 
z
M 1050 3850 
Q 1425 3600 1775 3275 
Q 1575 3100 1425 2925 
Q 1075 3300 675 3525 
Q 875 3700 1050 3850 
z
" transform="scale(0.015625)"/>
      </defs>
      <use xlink:href="#SimHei-8bad"/>
      <use xlink:href="#SimHei-7ec3" x="100"/>
      <use xlink:href="#SimHei-96c6" x="200"/>
      <use xlink:href="#SimHei-51c6" x="300"/>
      <use xlink:href="#SimHei-786e" x="400"/>
      <use xlink:href="#SimHei-7387" x="500"/>
     </g>
    </g>
    <g id="line2d_22">
     <path d="M 238.67622 276.798 
L 251.87622 276.798 
L 265.07622 276.798 
" style="fill: none; stroke-dasharray: 6,2.25; stroke-dashoffset: 0; stroke: #dd8452; stroke-width: 1.5"/>
    </g>
    <g id="text_18">
     <!-- 测试集准确率 -->
     <g style="fill: #262626" transform="translate(275.63622 281.418) scale(0.132 -0.132)">
      <use xlink:href="#SimHei-6d4b"/>
      <use xlink:href="#SimHei-8bd5" x="100"/>
      <use xlink:href="#SimHei-96c6" x="200"/>
      <use xlink:href="#SimHei-51c6" x="300"/>
      <use xlink:href="#SimHei-786e" x="400"/>
      <use xlink:href="#SimHei-7387" x="500"/>
     </g>
    </g>
   </g>
  </g>
 </g>
 <defs>
  <clipPath id="p431c2572dc">
   <rect x="59.652" y="45.085814" width="307.06422" height="249.862186"/>
  </clipPath>
 </defs>
</svg>
