<?xml version="1.0" encoding="utf-8" standalone="no"?>
<!DOCTYPE svg PUBLIC "-//W3C//DTD SVG 1.1//EN"
  "http://www.w3.org/Graphics/SVG/1.1/DTD/svg11.dtd">
<svg xmlns:xlink="http://www.w3.org/1999/xlink" width="460.8pt" height="345.6pt" viewBox="0 0 460.8 345.6" xmlns="http://www.w3.org/2000/svg" version="1.1">
 <metadata>
  <rdf:RDF xmlns:dc="http://purl.org/dc/elements/1.1/" xmlns:cc="http://creativecommons.org/ns#" xmlns:rdf="http://www.w3.org/1999/02/22-rdf-syntax-ns#">
   <cc:Work>
    <dc:type rdf:resource="http://purl.org/dc/dcmitype/StillImage"/>
    <dc:date>2023-04-15T21:52:09.366467</dc:date>
    <dc:format>image/svg+xml</dc:format>
    <dc:creator>
     <cc:Agent>
      <dc:title>Matplotlib v3.7.1, https://matplotlib.org/</dc:title>
     </cc:Agent>
    </dc:creator>
   </cc:Work>
  </rdf:RDF>
 </metadata>
 <defs>
  <style type="text/css">*{stroke-linejoin: round; stroke-linecap: butt}</style>
 </defs>
 <g id="figure_1">
  <g id="patch_1">
   <path d="M 0 345.6 
L 460.8 345.6 
L 460.8 0 
L 0 0 
z
" style="fill: #ffffff"/>
  </g>
  <g id="axes_1">
   <g id="patch_2">
    <path d="M 53.172 294.948 
L 362.196287 294.948 
L 362.196287 15.552 
L 53.172 15.552 
z
" style="fill: #ffffff"/>
   </g>
   <g id="matplotlib.axis_1">
    <g id="xtick_1">
     <g id="line2d_1">
      <path d="M 67.218559 294.948 
L 67.218559 15.552 
" clip-path="url(#p6bd7b582ba)" style="fill: none; stroke: #cccccc; stroke-linecap: round"/>
     </g>
     <g id="text_1">
      <!-- 0 -->
      <g style="fill: #262626" transform="translate(63.918559 313.523) scale(0.132 -0.132)">
       <defs>
        <path id="SimHei-30" d="M 225 2537 
Q 250 3200 412 3587 
Q 575 3975 875 4225 
Q 1175 4475 1612 4475 
Q 2050 4475 2375 4112 
Q 2700 3750 2800 3200 
Q 2900 2650 2862 1937 
Q 2825 1225 2612 775 
Q 2400 325 1975 150 
Q 1550 -25 1125 187 
Q 700 400 525 750 
Q 350 1100 275 1487 
Q 200 1875 225 2537 
z
M 750 2687 
Q 675 2000 800 1462 
Q 925 925 1212 700 
Q 1500 475 1800 612 
Q 2100 750 2237 1162 
Q 2375 1575 2375 2062 
Q 2375 2550 2337 2950 
Q 2300 3350 2112 3675 
Q 1925 4000 1612 4012 
Q 1300 4025 1062 3700 
Q 825 3375 750 2687 
z
" transform="scale(0.015625)"/>
       </defs>
       <use xlink:href="#SimHei-30"/>
      </g>
     </g>
    </g>
    <g id="xtick_2">
     <g id="line2d_2">
      <path d="M 114.056033 294.948 
L 114.056033 15.552 
" clip-path="url(#p6bd7b582ba)" style="fill: none; stroke: #cccccc; stroke-linecap: round"/>
     </g>
     <g id="text_2">
      <!-- 500 -->
      <g style="fill: #262626" transform="translate(104.156033 313.523) scale(0.132 -0.132)">
       <defs>
        <path id="SimHei-35" d="M 550 1325 
Q 725 650 1150 575 
Q 1575 500 1837 662 
Q 2100 825 2212 1087 
Q 2325 1350 2312 1675 
Q 2300 2000 2137 2225 
Q 1975 2450 1725 2525 
Q 1475 2600 1162 2525 
Q 850 2450 650 2175 
L 225 2225 
Q 275 2375 700 4375 
L 2675 4375 
L 2675 3925 
L 1075 3925 
Q 950 3250 825 2850 
Q 1200 3025 1525 3012 
Q 1850 3000 2150 2862 
Q 2450 2725 2587 2487 
Q 2725 2250 2787 2012 
Q 2850 1775 2837 1500 
Q 2825 1225 2725 937 
Q 2625 650 2425 462 
Q 2225 275 1937 162 
Q 1650 50 1275 75 
Q 900 100 562 350 
Q 225 600 100 1200 
L 550 1325 
z
" transform="scale(0.015625)"/>
       </defs>
       <use xlink:href="#SimHei-35"/>
       <use xlink:href="#SimHei-30" x="50"/>
       <use xlink:href="#SimHei-30" x="100"/>
      </g>
     </g>
    </g>
    <g id="xtick_3">
     <g id="line2d_3">
      <path d="M 160.893507 294.948 
L 160.893507 15.552 
" clip-path="url(#p6bd7b582ba)" style="fill: none; stroke: #cccccc; stroke-linecap: round"/>
     </g>
     <g id="text_3">
      <!-- 1000 -->
      <g style="fill: #262626" transform="translate(147.693507 313.523) scale(0.132 -0.132)">
       <defs>
        <path id="SimHei-31" d="M 1400 3600 
Q 1075 3275 575 2975 
L 575 3450 
Q 1200 3875 1600 4450 
L 1900 4450 
L 1900 150 
L 1400 150 
L 1400 3600 
z
" transform="scale(0.015625)"/>
       </defs>
       <use xlink:href="#SimHei-31"/>
       <use xlink:href="#SimHei-30" x="50"/>
       <use xlink:href="#SimHei-30" x="100"/>
       <use xlink:href="#SimHei-30" x="150"/>
      </g>
     </g>
    </g>
    <g id="xtick_4">
     <g id="line2d_4">
      <path d="M 207.730981 294.948 
L 207.730981 15.552 
" clip-path="url(#p6bd7b582ba)" style="fill: none; stroke: #cccccc; stroke-linecap: round"/>
     </g>
     <g id="text_4">
      <!-- 1500 -->
      <g style="fill: #262626" transform="translate(194.530981 313.523) scale(0.132 -0.132)">
       <use xlink:href="#SimHei-31"/>
       <use xlink:href="#SimHei-35" x="50"/>
       <use xlink:href="#SimHei-30" x="100"/>
       <use xlink:href="#SimHei-30" x="150"/>
      </g>
     </g>
    </g>
    <g id="xtick_5">
     <g id="line2d_5">
      <path d="M 254.568455 294.948 
L 254.568455 15.552 
" clip-path="url(#p6bd7b582ba)" style="fill: none; stroke: #cccccc; stroke-linecap: round"/>
     </g>
     <g id="text_5">
      <!-- 2000 -->
      <g style="fill: #262626" transform="translate(241.368455 313.523) scale(0.132 -0.132)">
       <defs>
        <path id="SimHei-32" d="M 300 250 
Q 325 625 650 925 
Q 975 1225 1475 1862 
Q 1975 2500 2125 2850 
Q 2275 3200 2237 3450 
Q 2200 3700 2000 3862 
Q 1800 4025 1537 4000 
Q 1275 3975 1037 3800 
Q 800 3625 675 3275 
L 200 3350 
Q 400 3925 712 4187 
Q 1025 4450 1450 4475 
Q 1700 4500 1900 4462 
Q 2100 4425 2312 4287 
Q 2525 4150 2662 3875 
Q 2800 3600 2762 3212 
Q 2725 2825 2375 2287 
Q 2025 1750 1025 600 
L 2825 600 
L 2825 150 
L 300 150 
L 300 250 
z
" transform="scale(0.015625)"/>
       </defs>
       <use xlink:href="#SimHei-32"/>
       <use xlink:href="#SimHei-30" x="50"/>
       <use xlink:href="#SimHei-30" x="100"/>
       <use xlink:href="#SimHei-30" x="150"/>
      </g>
     </g>
    </g>
    <g id="xtick_6">
     <g id="line2d_6">
      <path d="M 301.405929 294.948 
L 301.405929 15.552 
" clip-path="url(#p6bd7b582ba)" style="fill: none; stroke: #cccccc; stroke-linecap: round"/>
     </g>
     <g id="text_6">
      <!-- 2500 -->
      <g style="fill: #262626" transform="translate(288.205929 313.523) scale(0.132 -0.132)">
       <use xlink:href="#SimHei-32"/>
       <use xlink:href="#SimHei-35" x="50"/>
       <use xlink:href="#SimHei-30" x="100"/>
       <use xlink:href="#SimHei-30" x="150"/>
      </g>
     </g>
    </g>
    <g id="xtick_7">
     <g id="line2d_7">
      <path d="M 348.243403 294.948 
L 348.243403 15.552 
" clip-path="url(#p6bd7b582ba)" style="fill: none; stroke: #cccccc; stroke-linecap: round"/>
     </g>
     <g id="text_7">
      <!-- 3000 -->
      <g style="fill: #262626" transform="translate(335.043403 313.523) scale(0.132 -0.132)">
       <defs>
        <path id="SimHei-33" d="M 250 1225 
L 700 1300 
Q 800 975 1025 762 
Q 1250 550 1587 562 
Q 1925 575 2125 837 
Q 2325 1100 2300 1437 
Q 2275 1775 2037 1962 
Q 1800 2150 1275 2225 
L 1275 2550 
Q 1800 2600 2037 2825 
Q 2275 3050 2250 3412 
Q 2225 3775 1925 3937 
Q 1625 4100 1287 3975 
Q 950 3850 750 3275 
L 300 3350 
Q 450 3800 712 4100 
Q 975 4400 1425 4450 
Q 1875 4500 2212 4337 
Q 2550 4175 2687 3837 
Q 2825 3500 2725 3100 
Q 2625 2700 2150 2400 
Q 2500 2250 2687 1950 
Q 2875 1650 2812 1162 
Q 2750 675 2375 375 
Q 2000 75 1525 87 
Q 1050 100 700 387 
Q 350 675 250 1225 
z
" transform="scale(0.015625)"/>
       </defs>
       <use xlink:href="#SimHei-33"/>
       <use xlink:href="#SimHei-30" x="50"/>
       <use xlink:href="#SimHei-30" x="100"/>
       <use xlink:href="#SimHei-30" x="150"/>
      </g>
     </g>
    </g>
    <g id="text_8">
     <!-- Epochs -->
     <g style="fill: #262626" transform="translate(186.084144 329.073) scale(0.144 -0.144)">
      <defs>
       <path id="SimHei-45" d="M 2900 125 
L 350 125 
L 350 4400 
L 2775 4400 
L 2775 3925 
L 925 3925 
L 925 2600 
L 2625 2600 
L 2625 2125 
L 925 2125 
L 925 600 
L 2900 600 
L 2900 125 
z
" transform="scale(0.015625)"/>
       <path id="SimHei-70" d="M 2825 1525 
Q 2825 800 2475 425 
Q 2125 50 1625 50 
Q 1350 50 1150 162 
Q 950 275 800 500 
L 800 -800 
L 300 -800 
L 300 2925 
L 800 2925 
L 800 2550 
Q 950 2775 1150 2875 
Q 1350 2975 1625 2975 
Q 2125 2975 2475 2612 
Q 2825 2250 2825 1525 
z
M 2275 1525 
Q 2275 2000 2087 2262 
Q 1900 2525 1525 2525 
Q 1225 2525 1012 2262 
Q 800 2000 800 1525 
Q 800 1050 1012 775 
Q 1225 500 1525 500 
Q 1900 500 2087 775 
Q 2275 1050 2275 1525 
z
" transform="scale(0.015625)"/>
       <path id="SimHei-6f" d="M 2925 1525 
Q 2925 875 2525 475 
Q 2125 75 1575 75 
Q 1025 75 625 475 
Q 225 875 225 1525 
Q 225 2175 625 2575 
Q 1025 2975 1575 2975 
Q 2125 2975 2525 2575 
Q 2925 2175 2925 1525 
z
M 2375 1525 
Q 2375 2025 2125 2275 
Q 1875 2525 1575 2525 
Q 1275 2525 1025 2275 
Q 775 2025 775 1525 
Q 775 1025 1025 775 
Q 1275 525 1575 525 
Q 1875 525 2125 775 
Q 2375 1025 2375 1525 
z
" transform="scale(0.015625)"/>
       <path id="SimHei-63" d="M 2850 1250 
Q 2850 725 2487 400 
Q 2125 75 1575 75 
Q 1025 75 625 462 
Q 225 850 225 1525 
Q 225 2200 625 2587 
Q 1025 2975 1575 2975 
Q 2125 2975 2450 2687 
Q 2775 2400 2775 2000 
L 2225 2000 
Q 2200 2300 2012 2412 
Q 1825 2525 1575 2525 
Q 1275 2525 1025 2287 
Q 775 2050 775 1525 
Q 775 1000 1025 762 
Q 1275 525 1575 525 
Q 1900 525 2100 700 
Q 2300 875 2300 1250 
L 2850 1250 
z
" transform="scale(0.015625)"/>
       <path id="SimHei-68" d="M 2800 125 
L 2300 125 
L 2300 1925 
Q 2300 2225 2150 2400 
Q 2000 2575 1750 2575 
Q 1425 2575 1137 2237 
Q 850 1900 850 1400 
L 850 125 
L 350 125 
L 350 4400 
L 850 4400 
L 850 2400 
Q 1050 2675 1287 2825 
Q 1525 2975 1900 2975 
Q 2350 2975 2575 2725 
Q 2800 2475 2800 2100 
L 2800 125 
z
" transform="scale(0.015625)"/>
       <path id="SimHei-73" d="M 2750 900 
Q 2750 500 2437 287 
Q 2125 75 1650 75 
Q 1050 75 725 312 
Q 400 550 400 1000 
L 900 1000 
Q 900 700 1112 600 
Q 1325 500 1625 500 
Q 1925 500 2075 612 
Q 2225 725 2225 900 
Q 2225 1025 2100 1150 
Q 1975 1275 1475 1350 
Q 900 1425 687 1637 
Q 475 1850 475 2200 
Q 475 2500 762 2737 
Q 1050 2975 1600 2975 
Q 2100 2975 2387 2750 
Q 2675 2525 2675 2150 
L 2175 2150 
Q 2175 2375 2012 2462 
Q 1850 2550 1600 2550 
Q 1275 2550 1137 2437 
Q 1000 2325 1000 2175 
Q 1000 2000 1125 1900 
Q 1250 1800 1650 1750 
Q 2300 1650 2525 1437 
Q 2750 1225 2750 900 
z
" transform="scale(0.015625)"/>
      </defs>
      <use xlink:href="#SimHei-45"/>
      <use xlink:href="#SimHei-70" x="50"/>
      <use xlink:href="#SimHei-6f" x="100"/>
      <use xlink:href="#SimHei-63" x="150"/>
      <use xlink:href="#SimHei-68" x="200"/>
      <use xlink:href="#SimHei-73" x="250"/>
     </g>
    </g>
   </g>
   <g id="matplotlib.axis_2">
    <g id="ytick_1">
     <g id="line2d_8">
      <path d="M 53.172 287.910231 
L 362.196287 287.910231 
" clip-path="url(#p6bd7b582ba)" style="fill: none; stroke: #cccccc; stroke-linecap: round"/>
     </g>
     <g id="text_9">
      <!-- 0 -->
      <g style="fill: #262626" transform="translate(37.072 292.447731) scale(0.132 -0.132)">
       <use xlink:href="#SimHei-30"/>
      </g>
     </g>
    </g>
    <g id="ytick_2">
     <g id="line2d_9">
      <path d="M 53.172 245.733082 
L 362.196287 245.733082 
" clip-path="url(#p6bd7b582ba)" style="fill: none; stroke: #cccccc; stroke-linecap: round"/>
     </g>
     <g id="text_10">
      <!-- 5 -->
      <g style="fill: #262626" transform="translate(37.072 250.270582) scale(0.132 -0.132)">
       <use xlink:href="#SimHei-35"/>
      </g>
     </g>
    </g>
    <g id="ytick_3">
     <g id="line2d_10">
      <path d="M 53.172 203.555934 
L 362.196287 203.555934 
" clip-path="url(#p6bd7b582ba)" style="fill: none; stroke: #cccccc; stroke-linecap: round"/>
     </g>
     <g id="text_11">
      <!-- 10 -->
      <g style="fill: #262626" transform="translate(30.472 208.093434) scale(0.132 -0.132)">
       <use xlink:href="#SimHei-31"/>
       <use xlink:href="#SimHei-30" x="50"/>
      </g>
     </g>
    </g>
    <g id="ytick_4">
     <g id="line2d_11">
      <path d="M 53.172 161.378785 
L 362.196287 161.378785 
" clip-path="url(#p6bd7b582ba)" style="fill: none; stroke: #cccccc; stroke-linecap: round"/>
     </g>
     <g id="text_12">
      <!-- 15 -->
      <g style="fill: #262626" transform="translate(30.472 165.916285) scale(0.132 -0.132)">
       <use xlink:href="#SimHei-31"/>
       <use xlink:href="#SimHei-35" x="50"/>
      </g>
     </g>
    </g>
    <g id="ytick_5">
     <g id="line2d_12">
      <path d="M 53.172 119.201637 
L 362.196287 119.201637 
" clip-path="url(#p6bd7b582ba)" style="fill: none; stroke: #cccccc; stroke-linecap: round"/>
     </g>
     <g id="text_13">
      <!-- 20 -->
      <g style="fill: #262626" transform="translate(30.472 123.739137) scale(0.132 -0.132)">
       <use xlink:href="#SimHei-32"/>
       <use xlink:href="#SimHei-30" x="50"/>
      </g>
     </g>
    </g>
    <g id="ytick_6">
     <g id="line2d_13">
      <path d="M 53.172 77.024488 
L 362.196287 77.024488 
" clip-path="url(#p6bd7b582ba)" style="fill: none; stroke: #cccccc; stroke-linecap: round"/>
     </g>
     <g id="text_14">
      <!-- 25 -->
      <g style="fill: #262626" transform="translate(30.472 81.561988) scale(0.132 -0.132)">
       <use xlink:href="#SimHei-32"/>
       <use xlink:href="#SimHei-35" x="50"/>
      </g>
     </g>
    </g>
    <g id="ytick_7">
     <g id="line2d_14">
      <path d="M 53.172 34.847339 
L 362.196287 34.847339 
" clip-path="url(#p6bd7b582ba)" style="fill: none; stroke: #cccccc; stroke-linecap: round"/>
     </g>
     <g id="text_15">
      <!-- 30 -->
      <g style="fill: #262626" transform="translate(30.472 39.384839) scale(0.132 -0.132)">
       <use xlink:href="#SimHei-33"/>
       <use xlink:href="#SimHei-30" x="50"/>
      </g>
     </g>
    </g>
    <g id="text_16">
     <!-- MSE -->
     <g style="fill: #262626" transform="translate(24.672 166.05) rotate(-90) scale(0.144 -0.144)">
      <defs>
       <path id="SimHei-4d" d="M 2925 125 
L 2425 125 
L 2425 3175 
L 2375 3175 
L 1775 125 
L 1375 125 
L 775 3175 
L 725 3175 
L 725 125 
L 225 125 
L 225 4400 
L 1000 4400 
L 1550 1575 
L 1600 1575 
L 2150 4400 
L 2925 4400 
L 2925 125 
z
" transform="scale(0.015625)"/>
       <path id="SimHei-53" d="M 2900 1325 
Q 2900 750 2537 412 
Q 2175 75 1550 75 
Q 925 75 575 425 
Q 225 775 225 1300 
L 225 1475 
L 800 1475 
L 800 1325 
Q 800 950 1025 750 
Q 1250 550 1550 550 
Q 1950 550 2137 762 
Q 2325 975 2325 1275 
Q 2325 1525 2100 1737 
Q 1875 1950 1450 2125 
Q 850 2350 587 2625 
Q 325 2900 325 3275 
Q 325 3800 687 4125 
Q 1050 4450 1550 4450 
Q 2200 4450 2487 4062 
Q 2775 3675 2775 3225 
L 2200 3225 
Q 2225 3500 2050 3725 
Q 1875 3950 1550 3950 
Q 1250 3950 1075 3787 
Q 900 3625 900 3350 
Q 900 3125 1037 2962 
Q 1175 2800 1750 2575 
Q 2300 2350 2600 2037 
Q 2900 1725 2900 1325 
z
" transform="scale(0.015625)"/>
      </defs>
      <use xlink:href="#SimHei-4d"/>
      <use xlink:href="#SimHei-53" x="50"/>
      <use xlink:href="#SimHei-45" x="100"/>
     </g>
    </g>
   </g>
   <g id="PolyCollection_1"/>
   <g id="PolyCollection_2"/>
   <g id="line2d_15">
    <path d="M 67.218559 28.251818 
L 67.405908 229.711746 
L 67.686933 278.067217 
L 67.874283 279.32282 
L 68.155308 279.705877 
L 69.279407 280.036859 
L 69.373082 279.98348 
L 69.654107 280.07086 
L 69.935132 280.099266 
L 70.216157 280.089708 
L 70.403507 280.117767 
L 70.497182 280.077684 
L 70.684532 280.14268 
L 71.152906 280.169961 
L 71.621281 280.195796 
L 71.714956 280.144482 
L 71.902306 280.195389 
L 72.089656 280.249003 
L 72.277006 280.180524 
L 72.558031 280.237536 
L 73.588455 280.281899 
L 74.24418 280.314626 
L 74.618879 280.293711 
L 74.712554 280.239717 
L 74.899904 280.282778 
L 75.555629 280.383881 
L 75.742979 280.361287 
L 76.117679 280.393787 
L 76.305028 280.262082 
L 76.492378 280.424189 
L 79.583652 280.441765 
L 79.677327 280.524824 
L 79.864677 280.425378 
L 80.145701 280.543031 
L 80.801426 280.539254 
L 81.83185 280.578401 
L 82.0192 280.548188 
L 82.3939 280.586244 
L 82.95595 280.592327 
L 83.1433 280.556329 
L 83.33065 280.608895 
L 83.611674 280.60525 
L 84.548424 280.634568 
L 85.672523 280.64474 
L 85.766198 280.562122 
L 85.953548 280.652044 
L 86.421923 280.664307 
L 86.796623 280.703475 
L 86.983973 280.658859 
L 88.014397 280.719456 
L 88.389097 280.67416 
L 89.887896 280.746905 
L 90.075246 280.737319 
L 90.449946 280.747685 
L 90.824645 280.783805 
L 91.948745 280.783597 
L 92.979169 280.774902 
L 93.166519 280.758961 
L 93.541219 280.798738 
L 94.103269 280.828631 
L 94.665318 280.827957 
L 95.040018 280.811183 
L 95.321043 280.851337 
L 97.194542 280.892986 
L 97.850267 280.896431 
L 98.224966 280.89951 
L 98.412316 280.877661 
L 98.693341 280.875571 
L 98.974366 280.92273 
L 100.19214 280.900701 
L 100.660515 280.948235 
L 100.847865 280.952456 
L 103.658113 280.960639 
L 103.845463 280.940948 
L 104.220163 281.001036 
L 104.407513 280.963443 
L 105.344262 281.003953 
L 105.999987 281.032067 
L 108.248186 281.049712 
L 108.903911 281.049625 
L 109.84066 281.091263 
L 110.496385 281.08193 
L 110.871084 281.084242 
L 111.152109 281.049083 
L 111.433134 281.085889 
L 111.714159 281.109735 
L 111.901509 281.049022 
L 112.182534 281.091934 
L 122.112078 281.220905 
L 122.580453 281.207186 
L 123.048828 281.229649 
L 123.798227 281.231153 
L 124.266602 281.232919 
L 124.453952 281.237919 
L 124.734977 281.190834 
L 125.109677 281.251893 
L 125.390701 281.250499 
L 126.233776 281.241961 
L 128.20095 281.26314 
L 128.950349 281.255622 
L 129.512399 281.308447 
L 130.449149 281.29942 
L 132.791022 281.306284 
L 133.072047 281.276364 
L 133.353072 281.324421 
L 133.634097 281.332952 
L 134.196147 281.320161 
L 134.664521 281.295979 
L 134.945546 281.366475 
L 136.16332 281.333215 
L 137.47477 281.379001 
L 137.84947 281.378475 
L 138.786219 281.344492 
L 138.973569 281.385062 
L 139.629294 281.368355 
L 140.097668 281.390213 
L 140.378693 281.378254 
L 140.847068 281.415018 
L 141.034418 281.378426 
L 141.502793 281.40794 
L 142.064842 281.398073 
L 142.626892 281.402206 
L 145.156116 281.42264 
L 145.718165 281.42856 
L 146.280215 281.406575 
L 146.842265 281.454128 
L 147.779014 281.407994 
L 148.247389 281.429575 
L 149.090463 281.459011 
L 149.277813 281.460502 
L 150.870287 281.451525 
L 151.244987 281.48403 
L 151.619687 281.464588 
L 155.64771 281.524159 
L 155.928735 281.494217 
L 162.298631 281.544157 
L 162.579656 281.529165 
L 163.048031 281.548246 
L 164.54683 281.574167 
L 166.607679 281.54876 
L 168.012803 281.5981 
L 175.319449 281.612102 
L 175.600474 281.632445 
L 177.286623 281.646706 
L 177.754998 281.62963 
L 178.223372 281.641673 
L 181.314646 281.657416 
L 181.876695 281.645996 
L 182.251395 281.650056 
L 182.90712 281.671432 
L 183.188145 281.681872 
L 185.904718 281.690295 
L 186.373093 281.685643 
L 186.935142 281.704223 
L 187.216167 281.701 
L 187.403517 281.682069 
L 187.965567 281.707266 
L 188.808641 281.705866 
L 189.183341 281.684081 
L 189.839066 281.683866 
L 194.803838 281.749531 
L 194.991188 281.734947 
L 196.021612 281.720465 
L 196.864687 281.746769 
L 197.707762 281.737598 
L 198.082461 281.77166 
L 198.269811 281.717523 
L 198.925536 281.764079 
L 199.300236 281.744734 
L 199.76861 281.761183 
L 214.100877 281.821588 
L 214.475577 281.842045 
L 215.224977 281.8142 
L 215.599677 281.835916 
L 218.5036 281.816199 
L 218.69095 281.856574 
L 219.534024 281.850529 
L 220.283424 281.841081 
L 220.658124 281.863385 
L 220.845474 281.878939 
L 221.688548 281.843814 
L 222.250598 281.871007 
L 223.374697 281.859568 
L 223.655722 281.853649 
L 224.217772 281.874841 
L 224.686147 281.833073 
L 224.967171 281.82863 
L 225.341871 281.892684 
L 225.810246 281.874999 
L 226.184946 281.874208 
L 226.559646 281.857221 
L 230.025619 281.883369 
L 230.400318 281.904422 
L 231.618093 281.894691 
L 233.866292 281.908843 
L 234.615691 281.888483 
L 235.833465 281.870803 
L 236.11449 281.916611 
L 236.30184 281.884755 
L 236.770215 281.904443 
L 236.957565 281.889829 
L 237.613289 281.928953 
L 237.800639 281.923714 
L 238.175339 281.93858 
L 238.831064 281.902477 
L 239.112089 281.925937 
L 239.486788 281.902018 
L 239.955163 281.934673 
L 240.798238 281.932882 
L 243.046436 281.954874 
L 243.421136 281.937991 
L 243.889511 281.926358 
L 245.856685 281.951861 
L 247.168134 281.949654 
L 248.292234 281.950089 
L 248.760608 281.955902 
L 255.317855 281.954455 
L 255.505205 281.958264 
L 255.59888 281.87598 
L 255.786229 281.992076 
L 261.500401 282.016087 
L 261.968776 282.026059 
L 262.811851 281.999301 
L 263.280225 281.992002 
L 263.654925 281.999112 
L 269.275422 282.008606 
L 269.462772 282.034436 
L 269.743797 282.009461 
L 270.212172 282.037878 
L 270.493196 282.031987 
L 271.523621 282.044002 
L 272.46037 282.005074 
L 272.83507 282.052237 
L 276.394718 282.035744 
L 276.769418 282.052917 
L 278.268217 282.044366 
L 279.017617 282.027734 
L 279.392316 282.066772 
L 279.860691 282.04515 
L 281.73419 282.062723 
L 281.92154 282.037938 
L 282.389915 282.058389 
L 283.888714 282.083049 
L 284.169739 282.077206 
L 288.759811 282.092142 
L 288.947161 282.068248 
L 289.415536 282.058779 
L 289.977586 282.097279 
L 291.663735 282.056056 
L 291.851085 282.043881 
L 318.08007 282.145656 
L 318.26742 282.14988 
L 318.64212 282.158094 
L 319.297844 282.153437 
L 319.859894 282.137785 
L 320.609294 282.172797 
L 321.452368 282.179353 
L 322.201768 282.150262 
L 322.576468 282.17644 
L 327.072865 282.16523 
L 327.35389 282.156704 
L 329.508414 282.167574 
L 330.351488 282.104176 
L 330.632513 282.172557 
L 334.285836 282.206352 
L 334.566861 282.138644 
L 334.941561 282.204982 
L 339.156933 282.152098 
L 339.437958 282.197665 
L 345.995205 282.222434 
L 346.08888 282.137437 
L 346.369904 282.220326 
L 346.838279 282.198157 
L 347.025629 282.243262 
L 347.494004 282.192284 
L 348.149729 282.224745 
L 348.149729 282.224745 
" clip-path="url(#p6bd7b582ba)" style="fill: none; stroke: #4c72b0; stroke-width: 1.5; stroke-linecap: round"/>
   </g>
   <g id="line2d_16">
    <path d="M 67.218559 210.476813 
L 67.405908 234.379467 
L 67.593258 274.938535 
L 67.967958 278.078365 
L 68.155308 278.179887 
L 68.248983 278.513034 
L 68.530008 278.161306 
L 68.811033 278.852655 
L 69.092057 278.830531 
L 69.185732 278.911038 
L 69.279407 278.67171 
L 69.560432 278.878342 
L 69.654107 278.820767 
L 69.747782 278.483091 
L 69.841457 278.859899 
L 69.935132 278.753277 
L 70.122482 278.935238 
L 70.216157 278.891094 
L 70.403507 278.959343 
L 70.497182 278.849627 
L 70.590857 279.036237 
L 70.778207 278.900225 
L 70.871881 278.951237 
L 70.965556 278.829928 
L 71.059231 279.018467 
L 71.152906 278.78283 
L 71.433931 279.014558 
L 71.527606 278.789536 
L 71.714956 278.934886 
L 71.995981 278.845033 
L 72.089656 279.008827 
L 72.183331 278.677427 
L 72.370681 279.024355 
L 72.464356 278.660761 
L 72.651706 279.044066 
L 72.74538 278.800335 
L 72.93273 279.009218 
L 73.026405 278.974349 
L 73.213755 279.079663 
L 73.30743 279.089851 
L 73.401105 278.967482 
L 73.588455 279.027465 
L 73.68213 279.002993 
L 73.775805 279.112828 
L 73.86948 278.720801 
L 73.963155 279.061829 
L 74.05683 279.033315 
L 74.618879 279.09848 
L 74.712554 278.736668 
L 74.806229 279.133558 
L 74.993579 278.755888 
L 75.180929 279.079889 
L 75.274604 278.905179 
L 75.461954 279.124008 
L 75.649304 278.823023 
L 75.742979 279.108626 
L 75.836654 279.049952 
L 76.024004 279.040365 
L 76.117679 278.970255 
L 76.305028 279.125582 
L 76.492378 279.104384 
L 76.773403 279.169985 
L 76.960753 279.054532 
L 77.148103 279.079756 
L 77.991178 279.072747 
L 78.084853 279.162021 
L 78.178527 278.832211 
L 78.365877 279.075805 
L 78.553227 279.149764 
L 78.740577 279.141314 
L 78.834252 279.100655 
L 78.927927 279.18273 
L 79.115277 279.079775 
L 79.208952 279.212188 
L 79.396302 278.991741 
L 79.489977 278.894162 
L 79.677327 279.209136 
L 79.771002 278.967747 
L 80.145701 279.211786 
L 80.520401 279.137907 
L 80.614076 279.195264 
L 80.707751 278.954084 
L 80.895101 279.110979 
L 81.363476 279.12974 
L 81.457151 279.211097 
L 81.644501 279.139898 
L 81.83185 279.116634 
L 81.925525 279.015909 
L 82.112875 279.181827 
L 82.300225 279.129286 
L 82.3939 279.236871 
L 82.58125 279.001352 
L 82.674925 279.228639 
L 82.862275 279.082492 
L 83.049625 279.125683 
L 83.236975 279.20685 
L 83.33065 278.774974 
L 83.424325 279.162018 
L 83.705349 279.009206 
L 83.892699 279.21642 
L 83.986374 279.159158 
L 84.080049 278.842651 
L 84.173724 279.138378 
L 84.267399 278.97499 
L 84.361074 279.161419 
L 84.454749 278.865984 
L 84.548424 279.203486 
L 84.642099 279.169617 
L 84.829449 278.933513 
L 84.923124 279.245681 
L 85.110474 279.119252 
L 85.766198 279.126246 
L 85.859873 279.153277 
L 85.953548 279.063894 
L 86.047223 279.18526 
L 86.140898 278.799475 
L 86.234573 279.073617 
L 86.328248 278.771714 
L 86.421923 279.229732 
L 86.515598 279.045974 
L 86.702948 279.171147 
L 86.890298 279.063158 
L 86.983973 279.168301 
L 87.077648 278.915052 
L 87.264997 279.096279 
L 87.639697 279.052452 
L 87.733372 278.937831 
L 87.920722 279.146928 
L 88.108072 278.855573 
L 88.201747 279.063517 
L 88.295422 278.759641 
L 88.482772 279.123434 
L 88.576447 278.642264 
L 88.763797 279.127088 
L 88.857472 278.993186 
L 89.044821 279.128976 
L 89.138496 278.92178 
L 89.325846 279.118606 
L 89.419521 279.015562 
L 89.700546 279.118077 
L 89.887896 278.925475 
L 90.075246 278.917105 
L 90.168921 279.094293 
L 90.262596 278.906738 
L 90.449946 279.011163 
L 90.543621 278.875618 
L 90.730971 279.120917 
L 90.91832 279.049273 
L 91.011995 279.134906 
L 91.199345 278.935213 
L 91.29302 279.116329 
L 91.574045 279.005823 
L 91.761395 279.060381 
L 92.510795 278.837359 
L 92.698144 279.077599 
L 92.885494 278.962164 
L 93.447544 278.990768 
L 93.541219 278.726372 
L 93.634894 279.023524 
L 93.728569 278.904621 
L 94.009594 279.045793 
L 94.477968 278.959472 
L 94.852668 279.007241 
L 95.414718 278.874207 
L 95.602068 279.030681 
L 95.695743 278.767767 
L 95.883093 278.989905 
L 96.070443 279.013885 
L 96.538817 278.80852 
L 96.726167 278.970275 
L 96.913517 279.065552 
L 97.007192 278.835682 
L 97.194542 278.896692 
L 97.381892 278.94971 
L 97.569242 278.652804 
L 97.756592 278.938681 
L 97.850267 278.64323 
L 97.943942 278.978016 
L 98.037616 278.9499 
L 98.131291 278.993412 
L 98.224966 278.813318 
L 98.318641 278.980727 
L 98.599666 278.780103 
L 98.787016 278.938141 
L 98.880691 278.86417 
L 99.068041 278.929803 
L 99.255391 278.744173 
L 99.349066 278.935743 
L 99.536416 278.835871 
L 99.911115 278.931173 
L 100.00479 278.870834 
L 100.098465 278.649535 
L 100.37949 278.895977 
L 100.75419 278.812566 
L 100.847865 278.951357 
L 101.035215 278.738986 
L 101.12889 278.914694 
L 101.31624 278.686734 
L 101.50359 278.863873 
L 101.690939 278.72121 
L 101.878289 278.743783 
L 102.159314 278.810818 
L 102.346664 278.900681 
L 102.440339 278.680773 
L 102.627689 278.856357 
L 102.815039 278.867554 
L 102.908714 278.514454 
L 103.096064 278.787247 
L 103.189739 278.519864 
L 103.283414 278.797255 
L 103.470763 278.769509 
L 103.564438 278.729969 
L 103.751788 278.250306 
L 103.845463 278.791218 
L 103.939138 278.687542 
L 104.126488 278.789851 
L 104.313838 278.634895 
L 104.501188 278.776242 
L 105.250588 278.656109 
L 105.437937 278.840032 
L 105.625287 278.676371 
L 105.812637 278.820411 
L 105.999987 278.667064 
L 106.093662 278.580962 
L 106.281012 278.788443 
L 106.655712 278.635988 
L 106.843062 278.696674 
L 106.936737 278.561086 
L 107.124086 278.704064 
L 107.405111 278.64101 
L 107.498786 278.753661 
L 107.592461 278.629162 
L 107.779811 278.743849 
L 107.873486 278.533474 
L 107.967161 278.588784 
L 108.529211 278.753903 
L 108.716561 278.608017 
L 108.997585 278.664851 
L 109.184935 278.597476 
L 109.372285 278.678636 
L 109.46596 278.505749 
L 109.559635 278.646104 
L 109.65331 278.476746 
L 109.934335 278.753558 
L 110.02801 278.589868 
L 110.121685 278.647579 
L 110.21536 278.622022 
L 110.309035 278.470308 
L 110.59006 278.665739 
L 110.777409 278.576747 
L 110.871084 278.506661 
L 110.964759 278.609941 
L 111.058434 278.37608 
L 111.433134 278.690021 
L 111.714159 278.635069 
L 111.807834 278.401837 
L 111.995184 278.618115 
L 112.369884 278.61908 
L 112.463559 278.535479 
L 112.650908 278.652388 
L 112.838258 278.528018 
L 112.931933 278.303989 
L 113.025608 278.564661 
L 113.119283 278.460504 
L 113.306633 278.668875 
L 113.493983 278.604779 
L 113.681333 278.661401 
L 113.962358 278.480685 
L 114.149708 278.538879 
L 114.243383 278.270369 
L 114.524407 278.534115 
L 114.899107 278.4386 
L 115.086457 278.530465 
L 115.180132 278.303594 
L 115.367482 278.550387 
L 115.461157 278.372267 
L 115.929532 278.59442 
L 116.210556 278.481415 
L 116.304231 278.653194 
L 116.585256 278.419889 
L 116.678931 278.576502 
L 116.866281 278.395975 
L 117.053631 278.414878 
L 117.147306 278.320962 
L 117.334656 278.48163 
L 117.615681 278.5365 
L 117.709356 278.208377 
L 117.803031 278.553646 
L 117.896706 278.489177 
L 118.271405 278.397317 
L 118.36508 278.381241 
L 118.55243 278.597741 
L 118.646105 278.414135 
L 118.73978 278.470832 
L 118.92713 278.466479 
L 119.11448 278.38434 
L 119.395505 278.465539 
L 119.863879 278.495614 
L 119.957554 278.270819 
L 120.051229 278.563544 
L 120.238579 278.47779 
L 120.332254 278.357606 
L 120.519604 278.505202 
L 120.800629 278.485768 
L 120.894304 278.359665 
L 121.081654 278.497348 
L 121.269004 278.272424 
L 121.550029 278.47644 
L 121.737378 278.344047 
L 121.831053 278.441299 
L 121.924728 278.217398 
L 122.018403 278.27492 
L 122.205753 278.377826 
L 122.299428 278.305521 
L 122.393103 278.467339 
L 122.580453 278.26717 
L 122.767803 278.525408 
L 122.955153 278.343973 
L 123.329853 278.459034 
L 123.423527 278.230909 
L 123.704552 278.347524 
L 123.891902 278.217751 
L 123.985577 278.382019 
L 124.079252 278.322679 
L 124.172927 278.433681 
L 124.266602 278.35447 
L 124.453952 278.448615 
L 124.547627 278.36061 
L 124.641302 278.458278 
L 124.922327 278.262359 
L 125.109677 278.316688 
L 125.484376 278.335841 
L 125.578051 278.054521 
L 125.671726 278.432348 
L 125.765401 278.379513 
L 125.859076 278.460495 
L 126.046426 278.295574 
L 126.140101 278.170538 
L 126.327451 278.363734 
L 126.514801 278.324022 
L 126.983176 278.374284 
L 127.07685 278.255656 
L 127.2642 278.324564 
L 127.357875 278.228062 
L 127.545225 278.410427 
L 127.732575 278.343036 
L 127.919925 278.271222 
L 128.20095 278.321994 
L 128.3883 278.402803 
L 128.57565 278.323402 
L 128.763 278.39547 
L 128.950349 278.195783 
L 129.044024 278.374249 
L 129.137699 278.301893 
L 129.231374 278.059259 
L 129.325049 278.362427 
L 129.418724 278.184186 
L 129.606074 278.370182 
L 130.168124 278.222257 
L 130.355474 278.313831 
L 130.449149 278.245041 
L 130.542824 278.333191 
L 130.636499 278.051774 
L 130.730173 278.313358 
L 130.823848 278.256102 
L 130.917523 278.152625 
L 131.104873 278.342435 
L 131.198548 278.21285 
L 131.292223 278.332981 
L 131.479573 278.186794 
L 131.666923 278.179798 
L 131.854273 278.303464 
L 132.041623 278.2183 
L 132.135298 278.166613 
L 132.322648 278.265573 
L 132.416323 278.107703 
L 132.509997 278.28471 
L 132.697347 278.264144 
L 132.884697 278.330599 
L 133.072047 278.052356 
L 133.259397 278.329861 
L 133.446747 278.206573 
L 133.634097 278.329581 
L 133.727772 278.30987 
L 133.821447 278.064319 
L 134.008797 278.239114 
L 134.196147 278.071025 
L 134.383496 278.27206 
L 134.477171 278.064853 
L 134.664521 278.231409 
L 134.758196 278.11168 
L 134.851871 278.198435 
L 134.945546 278.109352 
L 135.132896 278.151065 
L 135.226571 278.13408 
L 135.507596 278.269292 
L 135.694946 278.331816 
L 135.788621 278.208928 
L 135.882296 278.290187 
L 136.069646 278.197377 
L 136.16332 278.259182 
L 136.256995 278.152929 
L 136.444345 278.266474 
L 136.53802 278.130444 
L 136.631695 278.212828 
L 136.819045 278.12148 
L 137.193745 278.132184 
L 137.755795 278.280554 
L 137.943144 278.114229 
L 138.036819 278.186322 
L 138.130494 277.84136 
L 138.317844 278.180901 
L 138.505194 278.091827 
L 138.598869 278.221249 
L 138.692544 278.062467 
L 138.879894 278.212729 
L 139.160919 278.030327 
L 139.254594 278.098994 
L 139.535619 277.896208 
L 139.629294 278.199256 
L 139.722968 278.156003 
L 139.816643 278.004737 
L 139.910318 278.180564 
L 140.003993 278.017387 
L 140.191343 278.092769 
L 140.285018 277.81773 
L 140.472368 278.154532 
L 140.659718 278.09225 
L 140.753393 278.006186 
L 140.847068 278.121008 
L 140.940743 277.880527 
L 141.128093 277.991242 
L 141.409118 278.123565 
L 141.690142 277.94376 
L 141.877492 278.199339 
L 142.064842 278.05287 
L 142.252192 278.176628 
L 142.345867 277.895885 
L 142.533217 278.06205 
L 142.907917 278.167645 
L 143.095267 277.894337 
L 143.376291 278.135449 
L 143.469966 277.868957 
L 143.657316 278.147873 
L 143.750991 277.939519 
L 143.938341 278.076715 
L 144.032016 277.798695 
L 144.125691 277.859916 
L 144.313041 278.189376 
L 144.500391 277.897522 
L 144.594066 277.973166 
L 144.781416 277.879849 
L 144.875091 278.105598 
L 144.968766 277.828452 
L 145.343465 278.07315 
L 145.43714 277.80901 
L 145.530815 277.873395 
L 145.62449 278.084442 
L 145.718165 278.00405 
L 145.81184 278.122815 
L 145.99919 278.01592 
L 146.092865 278.088407 
L 146.18654 277.983177 
L 146.280215 278.093457 
L 146.467565 277.976206 
L 146.56124 278.151021 
L 146.654915 277.968998 
L 146.74859 278.02394 
L 147.029614 278.078754 
L 147.404314 278.068888 
L 147.591664 277.824041 
L 147.779014 277.91588 
L 147.966364 278.002487 
L 148.060039 277.776412 
L 148.153714 278.143727 
L 148.247389 278.08089 
L 148.434739 278.049957 
L 148.528414 277.795173 
L 148.622089 277.974139 
L 148.809438 277.885718 
L 149.371488 278.041002 
L 149.465163 277.661379 
L 149.652513 277.963258 
L 149.746188 277.979346 
L 149.839863 277.803343 
L 149.933538 278.038496 
L 150.214563 277.740238 
L 150.308238 277.963213 
L 150.589263 277.743514 
L 150.682937 278.064121 
L 150.776612 278.003074 
L 151.057637 277.837055 
L 151.244987 277.949605 
L 151.338662 277.871642 
L 151.432337 277.943421 
L 151.619687 277.685516 
L 151.713362 277.99393 
L 151.807037 277.804979 
L 151.994387 277.999344 
L 152.181737 277.877457 
L 152.275412 278.079401 
L 152.462761 277.915714 
L 152.743786 277.880794 
L 152.931136 278.008543 
L 153.024811 277.803613 
L 153.118486 277.988037 
L 153.212161 277.920155 
L 153.305836 278.024989 
L 153.586861 277.779405 
L 153.680536 277.888175 
L 153.867886 277.710799 
L 153.961561 277.801417 
L 154.148911 277.712516 
L 154.33626 277.972684 
L 154.71096 277.774094 
L 154.89831 277.822458 
L 155.08566 277.911951 
L 155.46036 277.960685 
L 155.64771 277.672729 
L 155.928735 277.893497 
L 156.02241 277.626881 
L 156.209759 277.839637 
L 156.303434 277.894405 
L 156.490784 277.866721 
L 156.584459 277.938376 
L 156.678134 277.746028 
L 156.771809 277.889816 
L 156.959159 277.719125 
L 157.146509 277.797239 
L 157.240184 277.830733 
L 157.333859 277.688634 
L 157.427534 277.918946 
L 157.521209 277.806532 
L 157.708559 277.890523 
L 157.895908 277.77186 
L 158.270608 277.70965 
L 158.364283 277.991814 
L 158.551633 277.735965 
L 158.738983 277.799558 
L 158.832658 277.546946 
L 159.020008 277.851962 
L 159.394708 277.625839 
L 159.582058 277.850437 
L 159.769407 277.682681 
L 160.050432 277.744954 
L 160.144107 277.613796 
L 160.237782 277.750889 
L 160.331457 277.535914 
L 160.425132 277.588379 
L 160.612482 277.758395 
L 160.706157 277.54313 
L 160.987182 277.662006 
L 161.080857 277.542996 
L 161.455557 277.827986 
L 161.642906 277.664035 
L 161.736581 277.269998 
L 161.923931 277.72974 
L 162.111281 277.740221 
L 162.485981 277.659672 
L 162.673331 277.613506 
L 162.860681 277.723439 
L 162.954356 277.790774 
L 163.141706 277.686741 
L 163.703755 277.499388 
L 163.891105 277.707037 
L 164.265805 277.644534 
L 164.453155 277.725382 
L 164.54683 277.663781 
L 164.73418 277.750954 
L 165.015205 277.58211 
L 165.108879 277.538719 
L 165.296229 277.85761 
L 165.389904 277.794315 
L 165.483579 277.574943 
L 165.577254 277.621261 
L 165.670929 277.767588 
L 165.858279 277.641347 
L 166.045629 277.77796 
L 166.326654 277.363571 
L 166.420329 277.78346 
L 166.514004 277.609008 
L 166.795029 277.721447 
L 167.076053 277.469261 
L 167.263403 277.502753 
L 167.357078 277.511913 
L 167.544428 277.770209 
L 167.731778 277.463632 
L 167.825453 277.732694 
L 167.919128 277.534419 
L 168.012803 277.726765 
L 168.106478 277.398821 
L 168.293828 277.687363 
L 168.387503 277.574965 
L 168.481178 277.683043 
L 168.668528 277.560189 
L 168.762202 277.732667 
L 168.949552 277.457958 
L 169.136902 277.635932 
L 169.230577 277.66191 
L 169.324252 277.499849 
L 169.605277 277.735484 
L 169.698952 277.516861 
L 169.792627 277.578777 
L 169.886302 277.394913 
L 170.073652 277.686466 
L 170.261002 277.397713 
L 170.542026 277.696381 
L 170.635701 277.538952 
L 170.729376 277.415016 
L 171.104076 277.698054 
L 171.291426 277.567125 
L 171.478776 277.644303 
L 171.572451 277.459896 
L 171.666126 277.512404 
L 171.853476 277.497961 
L 171.947151 277.518258 
L 172.134501 277.658336 
L 172.321851 277.499912 
L 172.415525 277.513766 
L 172.5092 277.179973 
L 172.69655 277.628985 
L 173.2586 277.541448 
L 173.44595 277.545143 
L 173.539625 277.598427 
L 173.726975 277.398783 
L 173.914325 277.529278 
L 174.195349 277.362209 
L 174.382699 277.622463 
L 174.476374 277.514581 
L 174.663724 277.585432 
L 174.851074 277.560534 
L 174.944749 277.614912 
L 175.038424 277.376565 
L 175.319449 277.662158 
L 175.413124 277.501036 
L 175.600474 277.578961 
L 175.694149 277.357543 
L 175.787824 277.614295 
L 175.881499 277.480573 
L 175.975173 277.648253 
L 176.162523 277.487959 
L 176.256198 277.451372 
L 176.443548 277.588035 
L 176.537223 277.456143 
L 176.724573 277.592044 
L 177.099273 277.32038 
L 177.286623 277.556505 
L 177.473973 277.472904 
L 177.848672 277.462154 
L 177.942347 277.346382 
L 178.223372 277.680419 
L 178.317047 277.534373 
L 178.504397 277.483502 
L 178.879097 277.399166 
L 179.066447 277.617189 
L 179.160122 277.463739 
L 179.253797 277.540696 
L 179.441147 277.416038 
L 179.628496 277.480714 
L 179.722171 277.515046 
L 179.815846 277.303332 
L 180.003196 277.4237 
L 180.377896 277.490883 
L 180.471571 277.538931 
L 180.565246 277.451943 
L 180.658921 277.141434 
L 180.939946 277.459209 
L 181.40832 277.461715 
L 181.501995 277.217656 
L 181.689345 277.505789 
L 181.78302 277.322495 
L 181.876695 277.498706 
L 182.251395 277.277593 
L 182.34507 277.526909 
L 182.53242 277.233042 
L 182.71977 277.480147 
L 182.813445 277.168158 
L 183.09447 277.347848 
L 183.188145 277.186216 
L 183.281819 277.366476 
L 183.469169 277.239764 
L 183.562844 277.431314 
L 183.656519 277.275863 
L 183.843869 277.345462 
L 183.937544 277.261196 
L 184.031219 277.346895 
L 184.124894 277.261989 
L 184.312244 277.356041 
L 184.499594 277.323441 
L 184.780619 277.368017 
L 184.874294 277.540447 
L 184.967969 277.033539 
L 185.248993 277.446294 
L 185.342668 277.312955 
L 185.436343 277.415107 
L 185.623693 277.1803 
L 185.904718 277.352128 
L 186.092068 277.416907 
L 186.373093 277.156511 
L 186.466768 277.256033 
L 186.560443 277.170811 
L 186.654118 277.394776 
L 186.747793 277.198751 
L 186.841468 277.256545 
L 187.216167 277.315273 
L 187.403517 277.183238 
L 187.497192 277.270271 
L 187.590867 277.069902 
L 187.684542 277.305278 
L 187.871892 277.195976 
L 188.059242 277.332464 
L 188.152917 277.212351 
L 188.340267 277.49758 
L 188.433942 277.291659 
L 188.621292 277.389978 
L 188.808641 277.368122 
L 188.902316 277.37309 
L 188.995991 277.205352 
L 189.089666 277.395918 
L 189.183341 277.255786 
L 189.277016 277.350268 
L 189.370691 277.044689 
L 189.839066 277.348495 
L 189.932741 277.25129 
L 190.026416 276.937771 
L 190.401116 277.423048 
L 190.588465 277.26323 
L 190.68214 277.370151 
L 190.775815 277.235874 
L 190.86949 277.307185 
L 191.05684 277.158007 
L 191.150515 277.087049 
L 191.337865 277.360131 
L 191.525215 277.061174 
L 191.712565 277.279787 
L 191.80624 277.195176 
L 191.899915 277.343636 
L 191.99359 277.132179 
L 192.087265 277.216248 
L 192.18094 277.144438 
L 192.368289 277.22258 
L 192.649314 277.258861 
L 192.742989 276.940655 
L 192.836664 277.222242 
L 193.117689 277.05075 
L 193.211364 277.014348 
L 193.305039 277.327368 
L 193.398714 277.031616 
L 193.586064 277.246559 
L 193.773414 277.197254 
L 194.148113 277.119237 
L 194.241788 277.310699 
L 194.335463 277.135888 
L 194.522813 277.173724 
L 194.710163 277.028197 
L 195.178538 277.18585 
L 195.459563 277.151132 
L 195.553238 276.745438 
L 195.740588 277.291303 
L 195.834263 276.80235 
L 195.927937 277.318657 
L 196.115287 277.132549 
L 196.302637 277.275163 
L 196.489987 277.175229 
L 196.771012 276.931048 
L 196.864687 277.211839 
L 196.958362 277.175198 
L 197.052037 277.083447 
L 197.239387 277.271536 
L 197.333062 276.835321 
L 197.520412 277.049461 
L 197.614087 277.032651 
L 197.707762 277.202101 
L 197.801436 277.025425 
L 197.988786 277.161513 
L 198.082461 277.163534 
L 198.176136 276.981389 
L 198.269811 277.141212 
L 198.363486 276.905966 
L 198.457161 277.126763 
L 198.550836 276.952609 
L 198.644511 277.201067 
L 198.738186 276.960381 
L 198.831861 277.007466 
L 198.925536 277.290344 
L 199.206561 276.913311 
L 199.300236 277.132332 
L 199.674935 276.940417 
L 199.862285 277.147215 
L 200.049635 276.959486 
L 200.14331 277.079334 
L 200.33066 276.964141 
L 200.51801 277.145236 
L 200.611685 277.068714 
L 200.70536 276.833948 
L 200.799035 277.092743 
L 200.89271 276.669008 
L 200.986385 277.092514 
L 201.08006 277.065533 
L 201.173735 277.22365 
L 201.26741 276.874264 
L 201.361084 277.113035 
L 201.454759 276.867222 
L 201.642109 277.22002 
L 201.735784 276.890818 
L 201.829459 277.096953 
L 201.923134 276.893393 
L 202.110484 277.132332 
L 202.204159 276.946844 
L 202.297834 277.042524 
L 202.391509 276.979289 
L 202.485184 277.131031 
L 202.578859 276.946266 
L 202.672534 277.063942 
L 202.766209 276.995407 
L 202.859884 277.212983 
L 203.047234 276.677274 
L 203.140909 276.744219 
L 203.234583 276.673845 
L 203.515608 277.133121 
L 203.702958 276.67606 
L 203.796633 276.82301 
L 204.077658 277.216605 
L 204.358683 276.761017 
L 204.452358 277.275213 
L 204.546033 276.859939 
L 204.639708 276.931478 
L 204.827058 277.157279 
L 205.014407 277.017538 
L 205.201757 276.939718 
L 205.389107 276.988199 
L 205.576457 276.915272 
L 205.670132 277.016113 
L 205.857482 276.907153 
L 205.951157 277.176245 
L 206.044832 276.93841 
L 206.138507 277.104186 
L 206.325857 276.895904 
L 206.700557 277.095682 
L 206.794231 276.729523 
L 206.981581 276.984828 
L 207.075256 276.795021 
L 207.168931 276.920119 
L 207.356281 276.834129 
L 207.543631 276.840925 
L 207.730981 276.925584 
L 208.012006 276.881355 
L 208.105681 276.855445 
L 208.199356 276.682366 
L 208.293031 276.910448 
L 208.386706 276.857929 
L 208.480381 276.714278 
L 208.574056 276.904979 
L 208.66773 276.840198 
L 208.761405 276.982365 
L 208.948755 276.56104 
L 209.04243 276.740292 
L 209.136105 276.941326 
L 209.323455 276.860833 
L 209.510805 276.828731 
L 209.60448 277.043024 
L 209.698155 276.705093 
L 209.885505 276.827539 
L 210.16653 276.900166 
L 210.447554 276.848407 
L 210.541229 277.026249 
L 210.728579 276.852898 
L 210.822254 276.35073 
L 211.009604 276.972439 
L 211.290629 276.925666 
L 211.477979 276.91077 
L 211.571654 276.731261 
L 211.665329 276.848775 
L 211.852679 276.747105 
L 211.946354 277.01255 
L 212.133704 276.781953 
L 212.227378 276.9777 
L 212.321053 276.803306 
L 212.414728 277.005243 
L 212.602078 276.901479 
L 213.070453 276.737337 
L 213.257803 276.799059 
L 213.351478 276.548309 
L 213.538828 276.898636 
L 213.632503 277.00775 
L 213.819853 276.722841 
L 214.007203 277.013268 
L 214.194552 276.760117 
L 214.381902 276.670202 
L 214.569252 277.00496 
L 214.662927 277.027485 
L 214.756602 276.781651 
L 214.850277 276.907279 
L 214.943952 276.622328 
L 215.037627 276.827825 
L 215.131302 276.687984 
L 215.318652 276.866856 
L 215.412327 276.75169 
L 215.599677 276.887937 
L 215.787027 276.313311 
L 215.880701 276.770858 
L 215.974376 276.676097 
L 216.068051 276.582066 
L 216.442751 276.777345 
L 216.630101 276.528924 
L 216.817451 276.808206 
L 217.004801 276.638668 
L 217.098476 276.660764 
L 217.192151 276.492374 
L 217.379501 277.010055 
L 217.566851 276.50381 
L 217.7542 276.809286 
L 217.94155 276.525049 
L 218.1289 276.900114 
L 218.31625 276.560729 
L 218.5036 276.742656 
L 218.597275 276.636981 
L 218.784625 276.774054 
L 218.8783 276.576593 
L 219.06565 276.76242 
L 219.159325 276.528424 
L 219.346675 276.727263 
L 219.44035 276.447375 
L 219.627699 276.814588 
L 219.721374 276.501 
L 219.908724 276.827579 
L 220.189749 276.526592 
L 220.283424 276.761406 
L 220.377099 276.714308 
L 220.845474 276.678963 
L 221.032824 276.777237 
L 221.126499 276.529746 
L 221.220174 276.769942 
L 221.407523 276.555009 
L 221.501198 276.864999 
L 221.688548 276.60673 
L 221.782223 276.886142 
L 221.969573 276.683896 
L 222.063248 276.802192 
L 222.344273 276.624457 
L 222.531623 276.698977 
L 222.718973 276.68031 
L 222.999998 276.629395 
L 223.187347 276.577566 
L 223.374697 276.753475 
L 223.468372 276.738719 
L 223.562047 276.521185 
L 223.749397 276.676677 
L 223.843072 276.622052 
L 223.936747 276.701175 
L 224.124097 276.475863 
L 224.217772 276.536505 
L 224.311447 276.819542 
L 224.498797 276.626173 
L 224.686147 276.705692 
L 224.779822 276.590218 
L 224.967171 276.71645 
L 225.060846 276.179152 
L 225.248196 276.815052 
L 225.435546 276.715548 
L 225.529221 276.541803 
L 225.716571 276.733508 
L 225.810246 276.552792 
L 225.903921 276.707066 
L 225.997596 276.574589 
L 226.184946 276.635358 
L 226.278621 276.629019 
L 226.372296 276.328764 
L 226.653321 276.746659 
L 226.746995 276.564275 
L 226.934345 276.408097 
L 227.121695 276.676301 
L 227.21537 276.474572 
L 227.40272 276.645211 
L 227.496395 276.548384 
L 227.59007 276.747156 
L 227.96477 276.233073 
L 228.058445 276.676422 
L 228.15212 276.497022 
L 228.245795 276.609593 
L 228.52682 276.18173 
L 228.620494 276.737277 
L 228.714169 276.275728 
L 228.901519 276.688048 
L 229.182544 276.246255 
L 229.276219 276.603522 
L 229.369894 276.533969 
L 229.463569 276.698747 
L 229.557244 276.558401 
L 229.744594 276.591458 
L 229.838269 276.306204 
L 229.931944 276.485937 
L 230.025619 276.403319 
L 230.119294 276.595857 
L 230.212969 276.53754 
L 230.493993 276.670542 
L 230.681343 276.266149 
L 230.868693 276.643512 
L 231.056043 276.291448 
L 231.243393 276.379757 
L 231.430743 276.301599 
L 231.524418 276.661672 
L 231.618093 276.555695 
L 231.711768 276.635133 
L 231.992793 276.350322 
L 232.180142 276.553309 
L 232.273817 276.404911 
L 232.367492 276.57649 
L 232.461167 276.274076 
L 232.554842 276.629223 
L 232.648517 276.586202 
L 232.742192 276.090001 
L 233.116892 276.647548 
L 233.210567 276.559454 
L 233.304242 276.237795 
L 233.397917 276.279252 
L 233.491592 276.646909 
L 233.678942 276.470748 
L 234.053641 276.279096 
L 234.147316 276.548045 
L 234.240991 276.483811 
L 234.428341 276.587812 
L 234.615691 276.359824 
L 234.803041 276.399937 
L 234.896716 276.638787 
L 235.177741 276.298024 
L 235.271416 276.661857 
L 235.458766 276.338852 
L 235.552441 276.643571 
L 235.646116 276.405153 
L 235.833465 276.689403 
L 235.92714 276.598035 
L 236.11449 276.462837 
L 236.208165 276.693289 
L 236.30184 276.502999 
L 236.395515 276.703402 
L 236.770215 276.157586 
L 236.86389 276.422289 
L 236.957565 276.386274 
L 237.05124 276.387843 
L 237.144915 276.501456 
L 237.332265 276.231684 
L 237.519615 276.514449 
L 237.706964 276.50943 
L 237.800639 276.661541 
L 237.894314 276.363266 
L 238.081664 276.67447 
L 238.175339 276.288818 
L 238.269014 276.334032 
L 238.362689 276.366694 
L 238.456364 276.689479 
L 238.643714 276.402845 
L 239.018414 276.422447 
L 239.112089 276.109735 
L 239.299439 276.571495 
L 239.393114 276.408763 
L 239.580463 276.545001 
L 239.767813 276.345235 
L 239.955163 276.519998 
L 240.048838 276.467123 
L 240.142513 276.1204 
L 240.329863 276.509121 
L 240.423538 276.43971 
L 240.517213 276.697696 
L 240.610888 276.447623 
L 240.704563 276.588423 
L 240.798238 276.22014 
L 240.985588 276.442539 
L 241.172938 276.461622 
L 241.266612 276.643102 
L 241.453962 276.190955 
L 241.734987 276.574581 
L 241.828662 276.346851 
L 241.922337 276.456425 
L 242.016012 276.238527 
L 242.203362 276.343947 
L 242.578062 276.308082 
L 242.671737 276.559033 
L 242.765412 276.13321 
L 242.859087 276.536946 
L 242.952762 276.202416 
L 243.233786 276.379822 
L 243.327461 276.429293 
L 243.421136 276.296566 
L 243.514811 276.473076 
L 243.608486 276.389652 
L 243.702161 276.660612 
L 244.076861 276.002765 
L 244.264211 276.413751 
L 244.357886 276.339838 
L 244.451561 276.035974 
L 244.732586 276.341516 
L 244.826261 276.199356 
L 245.01361 276.446792 
L 245.107285 276.514441 
L 245.20096 276.289252 
L 245.294635 276.666654 
L 245.38831 276.58853 
L 245.481985 276.244061 
L 245.57566 276.395346 
L 245.669335 276.297215 
L 245.856685 276.500841 
L 245.95036 276.13049 
L 246.044035 276.390144 
L 246.13771 276.216327 
L 246.32506 276.440793 
L 246.418735 276.308753 
L 246.51241 276.497424 
L 246.606085 276.445382 
L 246.793434 276.27034 
L 246.887109 276.412955 
L 246.980784 276.196743 
L 247.074459 276.376255 
L 247.168134 276.203184 
L 247.355484 276.35278 
L 247.449159 276.225925 
L 247.542834 276.525381 
L 247.636509 275.975535 
L 247.823859 276.454774 
L 247.917534 276.139091 
L 248.011209 276.556664 
L 248.198559 276.222499 
L 248.385909 276.320492 
L 248.479583 276.257089 
L 248.573258 276.509285 
L 248.666933 276.197365 
L 248.854283 276.411109 
L 249.041633 276.235018 
L 249.135308 276.255322 
L 249.228983 276.084868 
L 249.322658 276.1433 
L 249.416333 276.237661 
L 249.510008 276.117579 
L 249.697358 276.310733 
L 249.791033 276.257741 
L 249.978383 276.353542 
L 250.165733 276.087109 
L 250.353082 276.392954 
L 250.446757 276.3091 
L 250.727782 276.407672 
L 250.821457 276.201913 
L 251.102482 276.51569 
L 251.196157 276.205271 
L 251.289832 276.53577 
L 251.383507 276.193814 
L 251.477182 276.270342 
L 251.664532 276.512468 
L 251.758207 276.151908 
L 251.851882 276.245012 
L 251.945557 276.014339 
L 252.132906 276.394451 
L 252.320256 276.119927 
L 252.507606 276.350011 
L 252.694956 276.243287 
L 252.788631 276.409092 
L 252.975981 276.048075 
L 253.163331 276.512449 
L 253.350681 276.230564 
L 253.444356 276.375205 
L 253.538031 276.181916 
L 253.631706 276.454599 
L 253.725381 276.140852 
L 253.91273 276.203594 
L 254.28743 276.300345 
L 254.381105 276.15033 
L 254.47478 276.323586 
L 254.568455 276.205393 
L 254.66213 276.277626 
L 254.84948 276.135064 
L 254.943155 276.594007 
L 255.22418 275.81482 
L 255.41153 276.398525 
L 255.59888 276.372299 
L 255.692555 276.011676 
L 255.879904 276.268656 
L 255.973579 276.167038 
L 256.067254 276.448015 
L 256.160929 276.206829 
L 256.254604 276.374968 
L 256.348279 276.17048 
L 256.441954 276.374948 
L 256.535629 276.247075 
L 256.722979 276.379086 
L 257.191354 276.20367 
L 257.285029 275.971409 
L 257.378704 276.396193 
L 257.472379 276.358728 
L 257.566053 276.460837 
L 257.847078 276.154154 
L 258.221778 276.18093 
L 258.315453 276.014263 
L 258.409128 276.108548 
L 258.502803 276.464615 
L 258.596478 276.395486 
L 258.783828 276.076792 
L 258.877503 276.193606 
L 259.064853 276.289731 
L 259.158528 276.121839 
L 259.345877 276.50769 
L 259.439552 276.179686 
L 259.626902 276.323978 
L 259.814252 276.333621 
L 259.907927 276.422696 
L 260.188952 276.239702 
L 260.376302 276.463142 
L 260.469977 276.16174 
L 260.657327 276.471282 
L 260.751002 276.226007 
L 260.844677 276.435947 
L 260.938352 276.184279 
L 261.032027 276.309331 
L 261.219376 276.242558 
L 261.313051 275.868116 
L 261.500401 276.208426 
L 261.594076 276.285519 
L 261.781426 276.251683 
L 261.875101 276.383341 
L 262.062451 276.240754 
L 262.343476 276.419149 
L 262.437151 276.017569 
L 262.624501 276.36974 
L 262.811851 276.327726 
L 262.9992 276.26926 
L 263.092875 276.272127 
L 263.280225 276.368846 
L 263.3739 276.127764 
L 263.467575 276.490871 
L 263.56125 276.429223 
L 263.654925 276.223863 
L 263.7486 276.364085 
L 263.842275 276.005394 
L 263.93595 276.397786 
L 264.216975 276.231027 
L 264.31065 276.214764 
L 264.404325 276.342623 
L 264.498 275.90848 
L 264.68535 276.307602 
L 264.872699 276.385221 
L 265.060049 276.122616 
L 265.153724 276.447933 
L 265.247399 276.291616 
L 265.434749 276.32937 
L 265.528424 276.018633 
L 265.715774 276.180878 
L 265.809449 276.274127 
L 265.903124 276.207665 
L 265.996799 276.354847 
L 266.184149 276.168597 
L 266.277824 276.448937 
L 266.371499 276.213811 
L 266.465174 276.411917 
L 266.839873 276.009871 
L 266.933548 276.322834 
L 267.120898 276.162318 
L 267.495598 276.270497 
L 267.589273 276.122093 
L 267.682948 276.226811 
L 267.776623 276.106669 
L 267.963973 276.429986 
L 268.151323 275.98642 
L 268.244998 276.443982 
L 268.338673 276.127378 
L 268.432347 276.249377 
L 268.526022 276.050102 
L 268.713372 276.397252 
L 268.807047 276.317687 
L 269.181747 275.990727 
L 269.369097 276.145359 
L 269.462772 276.107416 
L 269.556447 276.355296 
L 269.743797 276.118359 
L 269.837472 276.105185 
L 270.024822 275.939714 
L 270.212172 276.332222 
L 270.305846 276.152207 
L 270.399521 276.212378 
L 270.586871 276.253969 
L 270.680546 276.202107 
L 270.867896 276.303988 
L 271.336271 276.262868 
L 271.429946 276.359661 
L 271.710971 276.020411 
L 272.08567 276.289693 
L 272.179345 276.07772 
L 272.27302 276.328575 
L 272.46037 275.919 
L 272.554045 276.318208 
L 272.64772 276.291106 
L 272.741395 276.096305 
L 272.83507 276.188104 
L 273.02242 276.013687 
L 273.20977 276.240471 
L 273.865494 276.206571 
L 274.052844 276.251766 
L 274.146519 276.14876 
L 274.240194 276.230541 
L 274.333869 275.964667 
L 274.427544 276.337831 
L 274.521219 275.976116 
L 274.708569 276.208194 
L 275.176944 276.143155 
L 275.270619 276.299886 
L 275.551644 276.185048 
L 276.020018 276.059638 
L 276.113693 276.194881 
L 276.207368 276.102031 
L 276.301043 276.353219 
L 276.488393 276.147115 
L 276.582068 276.228756 
L 276.769418 275.864009 
L 277.050443 276.24223 
L 277.144118 276.160125 
L 277.237793 276.27464 
L 277.331468 276.105613 
L 277.518817 276.316755 
L 277.799842 276.060407 
L 278.174542 276.196587 
L 278.268217 276.144728 
L 278.361892 276.235534 
L 278.455567 275.996225 
L 278.642917 276.278015 
L 278.736592 276.038108 
L 279.017617 276.260474 
L 279.204967 276.008016 
L 279.392316 276.230868 
L 279.485991 276.280175 
L 279.673341 276.038812 
L 279.954366 276.261449 
L 280.048041 275.961984 
L 280.141716 276.22113 
L 280.329066 276.118478 
L 280.422741 276.211759 
L 280.516416 276.050204 
L 280.703766 276.151642 
L 280.797441 276.069601 
L 280.891116 276.261382 
L 280.984791 276.127149 
L 281.17214 276.195802 
L 281.73419 276.057975 
L 281.827865 275.851413 
L 282.10889 276.278684 
L 282.202565 276.354531 
L 282.389915 275.885607 
L 282.577265 276.104554 
L 282.67094 276.003079 
L 282.85829 276.193453 
L 282.951964 275.991521 
L 283.139314 276.312781 
L 283.232989 276.049491 
L 283.514014 276.190188 
L 283.701364 276.162982 
L 283.888714 276.287618 
L 284.357089 275.981226 
L 284.544439 276.257271 
L 284.638114 276.117494 
L 284.731788 276.33459 
L 284.919138 276.134003 
L 285.012813 276.123887 
L 285.200163 275.998954 
L 285.293838 276.261758 
L 285.387513 276.071456 
L 285.481188 276.164253 
L 285.574863 275.853829 
L 285.762213 276.352831 
L 285.949563 276.007655 
L 286.324263 276.282229 
L 286.511613 275.960184 
L 286.605287 276.075268 
L 286.792637 275.909942 
L 287.073662 276.192612 
L 287.167337 276.009495 
L 287.261012 276.19349 
L 287.448362 275.990646 
L 287.542037 276.282131 
L 287.635712 276.235781 
L 287.823062 275.99283 
L 287.916737 276.215243 
L 288.104087 275.884903 
L 288.197762 276.163898 
L 288.291437 276.005487 
L 288.478786 276.195453 
L 288.572461 275.911138 
L 288.666136 276.078443 
L 288.759811 275.98409 
L 288.853486 276.287365 
L 288.947161 276.020997 
L 289.040836 276.055309 
L 289.134511 276.27679 
L 289.321861 275.801286 
L 289.415536 276.087295 
L 289.509211 275.945418 
L 289.696561 276.244932 
L 289.790236 276.07631 
L 289.883911 275.898764 
L 290.071261 276.232146 
L 290.164935 276.164127 
L 290.25861 275.770632 
L 290.352285 276.173705 
L 290.44596 275.984545 
L 290.539635 276.278892 
L 290.726985 275.981628 
L 290.914335 276.094747 
L 291.289035 275.943531 
L 291.57006 275.90802 
L 291.75741 276.297427 
L 291.851085 275.937253 
L 291.94476 276.175223 
L 292.319459 275.968504 
L 292.506809 276.20466 
L 292.881509 276.014416 
L 292.975184 276.202196 
L 293.068859 275.983085 
L 293.162534 276.093004 
L 293.349884 275.929172 
L 293.443559 276.158319 
L 293.537234 275.968374 
L 293.630909 276.022777 
L 293.818258 275.897039 
L 294.005608 276.0892 
L 294.192958 276.053321 
L 294.286633 276.121634 
L 294.380308 275.995702 
L 294.567658 276.088368 
L 294.661333 276.147481 
L 294.755008 275.84883 
L 294.848683 276.158943 
L 294.942358 276.130197 
L 295.036033 276.101708 
L 295.129708 275.831864 
L 295.223383 276.081831 
L 295.317058 275.837935 
L 295.410733 276.127632 
L 295.598082 275.835281 
L 295.691757 276.271417 
L 295.785432 276.177167 
L 295.879107 275.886487 
L 295.972782 276.232676 
L 296.066457 275.973418 
L 296.160132 276.028794 
L 296.347482 275.735412 
L 296.441157 276.056068 
L 296.534832 275.887963 
L 296.628507 276.140138 
L 296.815857 276.005261 
L 296.909532 276.206583 
L 297.096882 276.069758 
L 297.190557 276.269864 
L 297.284232 276.000468 
L 297.377907 276.043316 
L 297.471581 275.951537 
L 297.658931 276.027537 
L 297.752606 276.043346 
L 297.846281 275.777714 
L 298.033631 276.12143 
L 298.127306 276.029501 
L 298.220981 276.112062 
L 298.502006 275.982886 
L 298.689356 276.168477 
L 298.876706 276.050067 
L 299.34508 276.053559 
L 299.438755 275.896783 
L 299.53243 276.207857 
L 299.71978 275.96343 
L 300.000805 276.088643 
L 300.09448 275.990971 
L 300.188155 276.060215 
L 300.375505 275.896045 
L 300.46918 276.130805 
L 300.562855 275.890172 
L 300.65653 276.031669 
L 300.750205 275.933424 
L 300.937555 276.16463 
L 301.124904 275.658977 
L 301.312254 276.008706 
L 301.593279 275.72135 
L 301.686954 275.875199 
L 301.780629 276.294165 
L 302.155329 275.845202 
L 302.249004 276.214275 
L 302.342679 275.983685 
L 302.436354 276.060917 
L 302.530029 275.963698 
L 302.623704 276.21931 
L 302.717379 275.839672 
L 302.811054 276.027117 
L 302.904728 275.890825 
L 302.998403 276.052589 
L 303.092078 275.912018 
L 303.279428 276.234254 
L 303.466778 275.911114 
L 303.560453 276.04205 
L 303.654128 275.961373 
L 303.841478 276.05182 
L 304.122503 275.985676 
L 304.309853 276.270626 
L 304.590878 275.765964 
L 304.684552 275.944508 
L 304.871902 276.096925 
L 305.152927 275.787098 
L 305.340277 275.933653 
L 305.433952 275.704992 
L 305.527627 276.123562 
L 305.621302 275.993697 
L 305.714977 276.137171 
L 305.996002 275.916611 
L 306.183352 276.144865 
L 306.370702 275.805778 
L 306.932751 276.097175 
L 307.213776 275.854566 
L 307.307451 276.005342 
L 307.401126 275.913815 
L 307.494801 276.08394 
L 307.682151 275.992954 
L 307.869501 276.115633 
L 308.150526 276.072874 
L 308.244201 276.127957 
L 308.337875 275.840393 
L 308.525225 276.123771 
L 308.6189 276.079754 
L 308.712575 275.889945 
L 308.80625 275.985003 
L 308.899925 275.920376 
L 308.9936 276.280886 
L 309.087275 276.029524 
L 309.18095 276.064752 
L 309.274625 275.901773 
L 309.461975 276.186882 
L 309.55565 275.842813 
L 309.649325 276.057432 
L 309.743 275.942419 
L 309.93035 276.002368 
L 310.117699 275.819799 
L 310.211374 276.101447 
L 310.398724 275.915604 
L 310.492399 276.140988 
L 310.679749 276.009865 
L 310.773424 276.015715 
L 310.867099 275.869885 
L 311.054449 275.996287 
L 311.429149 276.127753 
L 311.522824 275.772958 
L 311.616499 276.171075 
L 311.897524 275.979016 
L 312.272223 276.009846 
L 312.365898 275.840048 
L 312.553248 276.216443 
L 312.646923 276.105049 
L 312.740598 276.053147 
L 312.834273 275.826813 
L 313.021623 276.014258 
L 313.115298 276.108437 
L 313.208973 275.855787 
L 313.396323 276.024776 
L 313.489998 275.917126 
L 313.583673 276.172949 
L 313.677348 275.908616 
L 313.771022 276.099991 
L 313.958372 275.829035 
L 314.052047 276.115622 
L 314.239397 275.843378 
L 314.333072 276.115715 
L 314.426747 276.027237 
L 314.520422 275.722855 
L 314.614097 276.094595 
L 314.707772 275.832826 
L 314.895122 276.151158 
L 314.988797 275.854372 
L 315.082472 276.150651 
L 315.176147 275.888026 
L 315.363497 276.139013 
L 315.550846 275.888226 
L 315.644521 276.049465 
L 315.738196 275.746382 
L 315.925546 276.019326 
L 316.019221 275.980557 
L 316.112896 276.120998 
L 316.393921 276.007955 
L 316.487596 276.168743 
L 316.768621 275.93094 
L 316.862296 275.914322 
L 316.955971 276.105978 
L 317.049646 276.04452 
L 317.143321 275.838183 
L 317.236996 276.105771 
L 317.330671 275.764534 
L 317.51802 276.101626 
L 317.611695 275.729777 
L 317.70537 276.033595 
L 317.799045 275.974096 
L 317.986395 276.127689 
L 318.08007 275.892463 
L 318.173745 276.102551 
L 318.361095 276.057394 
L 318.45477 276.151486 
L 318.64212 275.932614 
L 318.82947 276.047645 
L 318.923145 275.765916 
L 319.110495 275.969253 
L 319.204169 276.116463 
L 319.297844 275.75184 
L 319.391519 276.111246 
L 319.672544 275.864624 
L 319.859894 276.037875 
L 320.047244 276.01739 
L 320.328269 275.851631 
L 320.421944 276.140527 
L 320.515619 275.726874 
L 320.702969 276.08421 
L 320.890319 275.863447 
L 321.077668 276.062894 
L 321.171343 275.860757 
L 321.265018 276.023185 
L 321.452368 275.788535 
L 321.546043 275.921107 
L 321.639718 275.789826 
L 321.827068 275.995843 
L 322.201768 276.050546 
L 322.389118 275.797556 
L 322.576468 276.149015 
L 322.763818 275.98401 
L 322.951167 275.950845 
L 323.044842 275.846515 
L 323.138517 276.09807 
L 323.232192 275.872647 
L 323.325867 275.967822 
L 323.419542 275.810014 
L 323.794242 276.0241 
L 323.887917 275.856545 
L 323.981592 276.006027 
L 324.075267 275.852458 
L 324.262617 276.017758 
L 324.356292 275.789901 
L 324.637316 276.019193 
L 324.824666 275.664459 
L 325.012016 276.03679 
L 325.199366 275.922542 
L 325.386716 276.083348 
L 325.480391 275.76381 
L 325.574066 275.804883 
L 325.761416 276.079237 
L 325.948766 275.820253 
L 326.042441 275.981327 
L 326.136116 275.780027 
L 326.229791 275.844869 
L 326.323466 276.087548 
L 326.41714 275.936403 
L 326.510815 276.027204 
L 326.60449 275.838496 
L 326.698165 276.055036 
L 326.79184 275.866101 
L 327.072865 276.005455 
L 327.260215 275.822997 
L 327.447565 275.958188 
L 327.54124 275.942085 
L 327.634915 276.134086 
L 327.822265 275.777442 
L 327.91594 275.720537 
L 328.196965 276.078695 
L 328.759014 275.903192 
L 328.946364 275.996847 
L 329.040039 275.895378 
L 329.133714 275.963884 
L 329.227389 275.857293 
L 329.414739 275.986466 
L 329.508414 276.033488 
L 329.695764 275.842575 
L 329.789439 276.066308 
L 329.883114 275.953122 
L 330.070463 276.017703 
L 330.257813 275.734035 
L 330.351488 276.071305 
L 330.538838 275.900309 
L 330.726188 275.902839 
L 330.913538 276.047592 
L 331.007213 275.692818 
L 331.194563 276.065331 
L 331.381913 275.872209 
L 331.662938 275.550843 
L 331.850287 276.083422 
L 332.037637 275.813255 
L 332.131312 275.947696 
L 332.224987 276.10558 
L 332.318662 275.976228 
L 332.412337 275.653422 
L 332.787037 275.995253 
L 332.880712 275.758113 
L 332.974387 275.961123 
L 333.068062 275.776928 
L 333.255412 276.011928 
L 333.536437 275.898808 
L 333.723786 275.998433 
L 333.817461 275.976171 
L 334.004811 275.766358 
L 334.285836 276.041996 
L 334.473186 275.92523 
L 334.660536 276.090325 
L 334.847886 275.637972 
L 334.941561 276.057515 
L 335.128911 275.77806 
L 335.316261 275.873202 
L 335.50361 275.720778 
L 335.597285 276.024848 
L 335.784635 275.770336 
L 335.87831 276.064074 
L 335.971985 275.901201 
L 336.06566 276.162 
L 336.25301 276.00516 
L 336.346685 275.60611 
L 336.534035 275.895342 
L 336.721385 275.979221 
L 336.81506 276.024511 
L 337.00241 275.958212 
L 337.096085 275.991575 
L 337.18976 275.79969 
L 337.470784 276.139355 
L 337.564459 275.944679 
L 337.751809 276.073628 
L 337.939159 275.84453 
L 338.126509 275.985982 
L 338.220184 275.846919 
L 338.313859 275.934642 
L 338.501209 275.826707 
L 338.594884 276.037912 
L 338.688559 275.866468 
L 338.782234 276.092291 
L 338.875909 275.77672 
L 339.063259 276.004409 
L 339.156933 275.66257 
L 339.250608 275.903797 
L 339.344283 275.777996 
L 339.531633 276.026723 
L 339.812658 275.779377 
L 339.906333 275.923534 
L 340.000008 275.684836 
L 340.093683 275.93224 
L 340.187358 275.872156 
L 340.374708 275.910941 
L 340.468383 275.741186 
L 340.562058 275.990331 
L 340.655733 275.815358 
L 340.843083 275.992424 
L 340.936757 275.860772 
L 341.030432 275.953194 
L 341.124107 275.837139 
L 341.311457 275.942395 
L 341.405132 275.987702 
L 341.498807 275.860453 
L 341.592482 275.959235 
L 341.779832 275.647871 
L 341.873507 276.035721 
L 341.967182 275.85095 
L 342.060857 276.044377 
L 342.154532 275.828818 
L 342.435557 276.021577 
L 342.529232 275.935428 
L 342.716582 275.995395 
L 342.997606 275.784804 
L 343.278631 276.029434 
L 343.465981 275.783058 
L 343.559656 275.97148 
L 343.747006 275.824981 
L 344.309056 275.887877 
L 344.402731 275.768235 
L 344.59008 275.884716 
L 344.96478 275.721472 
L 345.058455 275.971324 
L 345.245805 275.863255 
L 345.433155 275.710978 
L 345.620505 275.480621 
L 345.807855 275.847494 
L 345.90153 275.560117 
L 346.08888 275.916013 
L 346.27623 275.961997 
L 346.369904 275.890028 
L 346.463579 276.06225 
L 346.744604 275.698929 
L 346.931954 276.069278 
L 347.025629 276.001599 
L 347.119304 275.782304 
L 347.306654 275.954567 
L 347.400329 275.609608 
L 347.587679 276.0456 
L 347.775029 276.045871 
L 347.868704 275.627543 
L 348.056054 275.963639 
L 348.149729 275.829611 
L 348.149729 275.829611 
" clip-path="url(#p6bd7b582ba)" style="fill: none; stroke-dasharray: 6,2.25; stroke-dashoffset: 0; stroke: #dd8452; stroke-width: 1.5"/>
   </g>
   <g id="line2d_17"/>
   <g id="line2d_18"/>
   <g id="line2d_19">
    <path d="M 348.149729 282.224745 
" clip-path="url(#p6bd7b582ba)" style="fill: none; stroke: #8b0000; stroke-width: 1.5; stroke-linecap: round"/>
    <defs>
     <path id="mf35e8f61f8" d="M 0 3 
C 0.795609 3 1.55874 2.683901 2.12132 2.12132 
C 2.683901 1.55874 3 0.795609 3 0 
C 3 -0.795609 2.683901 -1.55874 2.12132 -2.12132 
C 1.55874 -2.683901 0.795609 -3 0 -3 
C -0.795609 -3 -1.55874 -2.683901 -2.12132 -2.12132 
C -2.683901 -1.55874 -3 -0.795609 -3 0 
C -3 0.795609 -2.683901 1.55874 -2.12132 2.12132 
C -1.55874 2.683901 -0.795609 3 0 3 
z
" style="stroke: #8b0000"/>
    </defs>
    <g clip-path="url(#p6bd7b582ba)">
     <use xlink:href="#mf35e8f61f8" x="348.149729" y="282.224745" style="fill: #8b0000; stroke: #8b0000"/>
    </g>
   </g>
   <g id="line2d_20">
    <path d="M 53.172 282.224745 
L 362.196287 282.224745 
" clip-path="url(#p6bd7b582ba)" style="fill: none; stroke-dasharray: 5.55,2.4; stroke-dashoffset: 0; stroke: #8b0000; stroke-width: 1.5"/>
   </g>
   <g id="line2d_21">
    <path d="M 348.149729 275.829611 
" clip-path="url(#p6bd7b582ba)" style="fill: none; stroke: #8b0000; stroke-width: 1.5; stroke-linecap: round"/>
    <g clip-path="url(#p6bd7b582ba)">
     <use xlink:href="#mf35e8f61f8" x="348.149729" y="275.829611" style="fill: #8b0000; stroke: #8b0000"/>
    </g>
   </g>
   <g id="line2d_22">
    <path d="M 53.172 275.829611 
L 362.196287 275.829611 
" clip-path="url(#p6bd7b582ba)" style="fill: none; stroke-dasharray: 5.55,2.4; stroke-dashoffset: 0; stroke: #8b0000; stroke-width: 1.5"/>
   </g>
   <g id="patch_3">
    <path d="M 53.172 294.948 
L 53.172 15.552 
" style="fill: none; stroke: #cccccc; stroke-width: 1.25; stroke-linejoin: miter; stroke-linecap: square"/>
   </g>
   <g id="patch_4">
    <path d="M 362.196287 294.948 
L 362.196287 15.552 
" style="fill: none; stroke: #cccccc; stroke-width: 1.25; stroke-linejoin: miter; stroke-linecap: square"/>
   </g>
   <g id="patch_5">
    <path d="M 53.172 294.948 
L 362.196287 294.948 
" style="fill: none; stroke: #cccccc; stroke-width: 1.25; stroke-linejoin: miter; stroke-linecap: square"/>
   </g>
   <g id="patch_6">
    <path d="M 53.172 15.552 
L 362.196287 15.552 
" style="fill: none; stroke: #cccccc; stroke-width: 1.25; stroke-linejoin: miter; stroke-linecap: square"/>
   </g>
   <g id="text_17">
    <!-- y=0.6740 -->
    <g style="fill: #8b0000" transform="translate(346.838279 273.789315) scale(0.144 -0.144)">
     <defs>
      <path id="SimHei-8bad" d="M 1650 3300 
Q 1625 2725 1625 2225 
L 1625 675 
Q 1950 1125 2050 1275 
Q 2175 1125 2350 900 
Q 2025 500 1800 212 
Q 1575 -75 1325 -425 
Q 1150 -200 950 -50 
Q 1150 225 1150 625 
L 1150 2875 
L 975 2875 
Q 600 2875 300 2850 
L 300 3325 
Q 600 3300 975 3300 
L 1650 3300 
z
M 3425 4600 
Q 3375 4350 3387 3362 
Q 3400 2375 3337 1887 
Q 3275 1400 3087 837 
Q 2900 275 2450 -375 
Q 2225 -200 1975 -125 
Q 2550 500 2762 1362 
Q 2975 2225 2950 3337 
Q 2925 4450 2900 4675 
Q 3150 4625 3425 4600 
z
M 5875 4700 
Q 5850 4500 5850 3975 
L 5850 625 
Q 5850 125 5875 -400 
L 5400 -400 
Q 5425 125 5425 600 
L 5425 3975 
Q 5425 4500 5400 4700 
L 5875 4700 
z
M 4600 175 
L 4125 175 
Q 4150 725 4150 1150 
L 4150 3600 
Q 4150 4050 4125 4350 
L 4600 4350 
L 4600 175 
z
M 1000 5150 
Q 1650 4600 2100 4100 
Q 1875 3925 1750 3750 
Q 1050 4550 700 4800 
Q 850 4950 1000 5150 
z
" transform="scale(0.015625)"/>
      <path id="SimHei-7ec3" d="M 3300 3825 
Q 2950 3825 2400 3800 
L 2400 4250 
Q 2950 4225 3325 4225 
L 3625 4225 
Q 3875 4950 3900 5175 
Q 4200 5025 4450 4925 
Q 4350 4825 4262 4612 
Q 4175 4400 4100 4225 
L 5025 4225 
Q 5425 4225 5900 4250 
L 5900 3800 
Q 5550 3825 5025 3825 
L 3975 3825 
Q 3850 3525 3700 3150 
L 4675 3150 
Q 4650 2875 4650 2475 
L 4650 1975 
L 4975 1975 
Q 5350 1975 5800 2000 
L 5800 1550 
Q 5350 1575 4975 1575 
L 4650 1575 
L 4650 125 
Q 4650 -300 4462 -425 
Q 4275 -550 3650 -625 
Q 3625 -375 3450 -100 
Q 4075 -125 4137 -25 
Q 4200 75 4200 325 
L 4200 1575 
L 3425 1575 
Q 3250 1575 3100 1562 
Q 2950 1550 2750 1475 
Q 2650 1725 2550 1950 
Q 2800 2025 3125 2775 
Q 2950 2775 2450 2750 
L 2450 3175 
Q 3025 3150 3250 3150 
Q 3400 3525 3500 3825 
L 3300 3825 
z
M 1650 2950 
Q 1875 3300 2100 3900 
Q 2325 3725 2575 3600 
Q 2325 3275 2025 2750 
Q 1725 2225 1075 1350 
Q 1300 1400 2400 1575 
Q 2350 1300 2375 1150 
Q 1825 1100 650 825 
Q 525 1075 400 1275 
Q 625 1400 887 1737 
Q 1150 2075 1450 2575 
Q 1300 2600 1012 2562 
Q 725 2525 450 2450 
Q 350 2675 250 2925 
Q 500 3075 812 3725 
Q 1125 4375 1325 5000 
Q 1600 4825 1850 4750 
Q 1600 4375 1387 3962 
Q 1175 3550 800 2925 
Q 1375 2925 1650 2950 
z
M 2425 700 
Q 2400 425 2425 250 
Q 2000 150 1462 -25 
Q 925 -200 475 -425 
Q 400 -150 300 125 
Q 950 275 1187 337 
Q 1425 400 2425 700 
z
M 3725 875 
Q 3650 800 3287 400 
Q 2925 0 2475 -475 
Q 2300 -250 2150 -125 
Q 2425 100 2750 462 
Q 3075 825 3325 1225 
Q 3475 1050 3725 875 
z
M 5275 1225 
Q 5925 375 6200 -100 
Q 5950 -200 5750 -375 
Q 5475 175 4900 950 
Q 5075 1050 5275 1225 
z
M 4200 1975 
L 4200 2775 
L 3575 2775 
Q 3325 2250 3175 1975 
L 4200 1975 
z
" transform="scale(0.015625)"/>
      <path id="SimHei-96c6" d="M 2275 4925 
Q 2125 4800 2025 4662 
Q 1925 4525 1850 4350 
L 4925 4350 
Q 5300 4350 5750 4375 
L 5750 3975 
L 3650 3975 
L 3650 3575 
L 4625 3575 
Q 4925 3575 5325 3600 
L 5325 3175 
Q 4925 3200 4625 3200 
L 3650 3200 
L 3650 2800 
L 4675 2800 
Q 5000 2800 5425 2825 
L 5425 2400 
Q 5000 2425 4675 2425 
L 3650 2425 
L 3650 2075 
L 4875 2075 
Q 5275 2075 5675 2100 
L 5675 1675 
Q 5300 1700 4900 1700 
L 1650 1700 
L 1650 1500 
L 1150 1500 
Q 1200 1950 1200 2325 
L 1200 3475 
Q 1050 3250 937 3125 
Q 825 3000 675 2825 
Q 500 3000 300 3125 
Q 475 3325 875 3825 
Q 1275 4325 1462 4650 
Q 1650 4975 1725 5225 
Q 1950 5100 2275 4925 
z
M 2975 1200 
Q 2975 1300 2950 1625 
L 3475 1625 
Q 3450 1275 3450 1200 
L 5050 1200 
Q 5500 1200 5925 1225 
L 5925 825 
L 4150 825 
Q 4500 525 4925 362 
Q 5350 200 6100 25 
Q 5875 -225 5775 -475 
Q 5275 -300 4962 -162 
Q 4650 -25 4387 137 
Q 4125 300 3950 462 
Q 3775 625 3575 825 
L 3450 825 
L 3450 250 
Q 3450 -275 3500 -650 
L 2950 -650 
Q 2975 -300 2975 250 
L 2975 825 
L 2875 825 
Q 2700 575 2475 375 
Q 2250 175 1987 12 
Q 1725 -150 1425 -300 
Q 1125 -450 700 -575 
Q 600 -325 400 -75 
Q 925 50 1475 262 
Q 2025 475 2300 825 
L 500 825 
L 500 1225 
Q 800 1200 1400 1200 
L 2975 1200 
z
M 3150 2800 
L 3150 3200 
L 1650 3200 
L 1650 2800 
L 3150 2800 
z
M 3150 3575 
L 3150 3975 
L 1650 3975 
L 1650 3575 
L 3150 3575 
z
M 3150 2075 
L 3150 2425 
L 1650 2425 
L 1650 2075 
L 3150 2075 
z
M 3450 5250 
Q 3575 5150 3712 5000 
Q 3850 4850 4000 4650 
Q 3850 4525 3575 4375 
Q 3425 4575 3325 4700 
Q 3225 4825 3075 4950 
Q 3275 5075 3450 5250 
z
" transform="scale(0.015625)"/>
      <path id="SimHei-79" d="M 2900 2925 
L 1750 -100 
Q 1650 -450 1450 -625 
Q 1250 -800 950 -800 
Q 825 -800 712 -787 
Q 600 -775 500 -725 
L 500 -225 
Q 600 -275 700 -300 
Q 800 -325 875 -325 
Q 1075 -325 1150 -262 
Q 1225 -200 1300 25 
L 200 2925 
L 750 2925 
L 1550 725 
L 1575 725 
L 2350 2925 
L 2900 2925 
z
" transform="scale(0.015625)"/>
      <path id="SimHei-3d" d="M 2975 2900 
L 125 2900 
L 125 3300 
L 2975 3300 
L 2975 2900 
z
M 2975 1375 
L 125 1375 
L 125 1775 
L 2975 1775 
L 2975 1375 
z
" transform="scale(0.015625)"/>
      <path id="SimHei-2e" d="M 1075 125 
L 500 125 
L 500 675 
L 1075 675 
L 1075 125 
z
" transform="scale(0.015625)"/>
      <path id="SimHei-36" d="M 250 1612 
Q 275 1975 387 2225 
Q 500 2475 725 2850 
L 1750 4450 
L 2325 4450 
L 1275 2800 
Q 1950 2975 2350 2750 
Q 2750 2525 2887 2237 
Q 3025 1950 3037 1612 
Q 3050 1275 2937 950 
Q 2825 625 2537 362 
Q 2250 100 1737 75 
Q 1225 50 862 262 
Q 500 475 362 862 
Q 225 1250 250 1612 
z
M 1025 787 
Q 1250 550 1625 525 
Q 2000 500 2250 775 
Q 2500 1050 2500 1575 
Q 2500 2100 2187 2300 
Q 1875 2500 1487 2450 
Q 1100 2400 925 2075 
Q 750 1750 775 1387 
Q 800 1025 1025 787 
z
" transform="scale(0.015625)"/>
      <path id="SimHei-37" d="M 850 150 
Q 1300 2050 2425 3925 
L 275 3925 
L 275 4375 
L 2950 4375 
L 2950 3950 
Q 1775 2050 1400 150 
L 850 150 
z
" transform="scale(0.015625)"/>
      <path id="SimHei-34" d="M 2000 1100 
L 75 1100 
L 75 1525 
L 2100 4450 
L 2475 4450 
L 2475 1525 
L 3075 1525 
L 3075 1100 
L 2475 1100 
L 2475 150 
L 2000 150 
L 2000 1100 
z
M 2000 1525 
L 2000 3500 
L 600 1525 
L 2000 1525 
z
" transform="scale(0.015625)"/>
     </defs>
     <use xlink:href="#SimHei-8bad"/>
     <use xlink:href="#SimHei-7ec3" x="100"/>
     <use xlink:href="#SimHei-96c6" x="200"/>
     <use xlink:href="#SimHei-79" x="300"/>
     <use xlink:href="#SimHei-3d" x="350"/>
     <use xlink:href="#SimHei-30" x="400"/>
     <use xlink:href="#SimHei-2e" x="450"/>
     <use xlink:href="#SimHei-36" x="500"/>
     <use xlink:href="#SimHei-37" x="550"/>
     <use xlink:href="#SimHei-34" x="600"/>
     <use xlink:href="#SimHei-30" x="650"/>
    </g>
   </g>
   <g id="text_18">
    <!-- y=1.4321 -->
    <g style="fill: #8b0000" transform="translate(346.838279 233.652463) scale(0.144 -0.144)">
     <defs>
      <path id="SimHei-6d4b" d="M 4025 4725 
Q 4000 4475 4000 4000 
L 4000 2225 
Q 4000 1775 4025 1350 
L 3550 1350 
L 3550 4325 
L 2350 4325 
L 2350 1325 
L 1900 1325 
Q 1925 1775 1925 2225 
L 1925 4000 
Q 1925 4200 1900 4725 
L 4025 4725 
z
M 5900 5075 
Q 5875 4800 5875 4375 
L 5875 0 
Q 5875 -325 5650 -425 
Q 5425 -525 4975 -600 
Q 4925 -325 4775 -50 
Q 5125 -50 5262 -25 
Q 5400 0 5400 250 
L 5400 4375 
Q 5400 4775 5375 5075 
L 5900 5075 
z
M 3275 3725 
Q 3225 3400 3200 2325 
Q 3175 1250 2837 550 
Q 2500 -150 2075 -600 
Q 1850 -400 1600 -325 
Q 2200 250 2475 962 
Q 2750 1675 2762 2475 
Q 2775 3275 2725 3800 
Q 3000 3750 3275 3725 
z
M 4950 4275 
Q 4925 4000 4925 3575 
L 4925 1825 
Q 4925 1300 4950 850 
L 4450 850 
Q 4475 1150 4475 1825 
L 4475 3575 
Q 4475 4000 4450 4275 
L 4950 4275 
z
M 1700 1675 
Q 1375 1075 1112 487 
Q 850 -100 725 -400 
Q 500 -200 200 -25 
Q 475 300 762 850 
Q 1050 1400 1250 2000 
Q 1475 1825 1700 1675 
z
M 3400 1050 
Q 3800 650 4300 -125 
Q 4100 -225 3875 -450 
Q 3475 275 3025 750 
Q 3225 875 3400 1050 
z
M 600 3525 
Q 1125 3125 1500 2775 
Q 1300 2575 1150 2375 
Q 825 2775 300 3150 
Q 450 3300 600 3525 
z
M 1350 4000 
Q 950 4375 475 4675 
Q 625 4850 775 5050 
Q 1300 4700 1675 4375 
Q 1500 4250 1350 4000 
z
" transform="scale(0.015625)"/>
      <path id="SimHei-8bd5" d="M 3950 3825 
Q 3925 4325 3925 4550 
Q 3925 4800 3900 5225 
Q 4200 5150 4450 5125 
Q 4425 4825 4425 4600 
L 4425 3825 
L 5150 3825 
Q 5500 3825 5875 3850 
L 5875 3400 
Q 5525 3425 5125 3425 
L 4450 3425 
Q 4500 2750 4587 2212 
Q 4675 1675 4837 1112 
Q 5000 550 5212 225 
Q 5425 -100 5500 200 
Q 5575 500 5600 900 
Q 5800 625 6100 525 
Q 5975 -275 5750 -487 
Q 5525 -700 5250 -537 
Q 4975 -375 4737 62 
Q 4500 500 4337 1075 
Q 4175 1650 4100 2262 
Q 4025 2875 3975 3425 
L 2800 3425 
Q 2300 3425 1875 3400 
L 1875 3850 
Q 2275 3825 2775 3825 
L 3950 3825 
z
M 1500 3175 
Q 1475 2675 1475 2175 
L 1475 625 
Q 1825 950 2125 1225 
Q 2225 1000 2375 800 
Q 1900 425 1125 -350 
Q 1000 -125 825 50 
Q 1025 175 1025 525 
L 1025 2725 
Q 625 2725 300 2700 
L 300 3200 
Q 625 3175 825 3175 
L 1500 3175 
z
M 3775 2175 
Q 3500 2200 3250 2200 
L 3250 575 
Q 3575 675 3900 800 
Q 3900 525 3950 325 
Q 3575 250 3150 125 
Q 2725 0 2275 -175 
Q 2200 100 2025 300 
Q 2425 350 2800 475 
L 2800 2200 
Q 2525 2200 2225 2175 
L 2225 2650 
Q 2600 2625 3000 2625 
Q 3425 2625 3775 2650 
L 3775 2175 
z
M 925 4975 
Q 1275 4650 1700 4100 
Q 1525 3925 1325 3775 
Q 1175 4050 575 4650 
Q 775 4825 925 4975 
z
M 5150 5150 
Q 5325 5000 5850 4375 
Q 5575 4200 5425 4050 
Q 5125 4525 4775 4875 
Q 4925 4975 5150 5150 
z
" transform="scale(0.015625)"/>
     </defs>
     <use xlink:href="#SimHei-6d4b"/>
     <use xlink:href="#SimHei-8bd5" x="100"/>
     <use xlink:href="#SimHei-96c6" x="200"/>
     <use xlink:href="#SimHei-79" x="300"/>
     <use xlink:href="#SimHei-3d" x="350"/>
     <use xlink:href="#SimHei-31" x="400"/>
     <use xlink:href="#SimHei-2e" x="450"/>
     <use xlink:href="#SimHei-34" x="500"/>
     <use xlink:href="#SimHei-33" x="550"/>
     <use xlink:href="#SimHei-32" x="600"/>
     <use xlink:href="#SimHei-31" x="650"/>
    </g>
   </g>
   <g id="legend_1">
    <g id="patch_7">
     <path d="M 244.716287 63.752625 
L 352.956287 63.752625 
Q 355.596287 63.752625 355.596287 61.112625 
L 355.596287 24.792 
Q 355.596287 22.152 352.956287 22.152 
L 244.716287 22.152 
Q 242.076287 22.152 242.076287 24.792 
L 242.076287 61.112625 
Q 242.076287 63.752625 244.716287 63.752625 
z
" style="fill: #ffffff; opacity: 0.8; stroke: #cccccc; stroke-linejoin: miter"/>
    </g>
    <g id="line2d_23">
     <path d="M 247.356287 33.33075 
L 260.556287 33.33075 
L 273.756287 33.33075 
" style="fill: none; stroke: #4c72b0; stroke-width: 1.5; stroke-linecap: round"/>
    </g>
    <g id="text_19">
     <!--  -->
     <g style="fill: #262626" transform="translate(284.316287 37.95075) scale(0.132 -0.132)">
      <defs>
       <path id="SimHei-635f" d="M 1175 4600 
Q 1175 4950 1150 5250 
L 1675 5250 
Q 1650 4975 1650 4600 
L 1650 4075 
Q 1950 4075 2325 4100 
L 2325 3625 
Q 1950 3650 1650 3650 
L 1650 2500 
Q 1875 2550 2275 2750 
Q 2275 2550 2300 2300 
Q 2025 2200 1650 2025 
L 1650 175 
Q 1650 -225 1425 -325 
Q 1200 -425 625 -500 
Q 600 -250 450 50 
Q 800 25 987 37 
Q 1175 50 1175 350 
L 1175 1850 
Q 675 1675 400 1500 
Q 375 1800 250 2100 
Q 600 2150 1175 2350 
L 1175 3650 
Q 650 3650 325 3625 
L 325 4100 
Q 625 4075 1175 4075 
L 1175 4600 
z
M 5550 5025 
Q 5525 4650 5525 4275 
Q 5525 3925 5550 3525 
L 2900 3525 
Q 2925 3925 2925 4275 
Q 2925 4650 2900 5025 
L 5550 5025 
z
M 5775 3075 
Q 5750 2725 5750 2350 
L 5750 1725 
Q 5750 1350 5775 875 
L 5275 875 
L 5275 2650 
L 3150 2650 
L 3150 850 
L 2650 850 
Q 2675 1275 2675 1700 
L 2675 2325 
Q 2675 2600 2650 3075 
L 5775 3075 
z
M 4525 2200 
Q 4425 1825 4362 1337 
Q 4300 850 4125 537 
Q 3950 225 3600 -62 
Q 3250 -350 2425 -650 
Q 2325 -450 2050 -175 
Q 2750 -50 3137 200 
Q 3525 450 3700 762 
Q 3875 1075 3900 1462 
Q 3925 1850 3925 2275 
Q 4225 2225 4525 2200 
z
M 5100 3925 
L 5100 4650 
L 3375 4650 
L 3375 3925 
L 5100 3925 
z
M 4675 750 
Q 4975 575 5412 337 
Q 5850 100 6175 -125 
Q 5975 -325 5850 -550 
Q 5525 -300 5200 -87 
Q 4875 125 4375 350 
Q 4550 550 4675 750 
z
" transform="scale(0.015625)"/>
       <path id="SimHei-5931" d="M 2050 4450 
Q 1925 4325 1675 3750 
L 2950 3750 
Q 2950 4650 2925 5100 
Q 3175 5075 3500 5050 
Q 3450 4700 3437 4425 
Q 3425 4150 3425 3750 
L 4600 3750 
Q 5000 3750 5425 3775 
L 5425 3300 
Q 5025 3325 4600 3325 
L 3425 3325 
Q 3425 2775 3375 2200 
L 5050 2200 
Q 5425 2200 5875 2225 
L 5875 1750 
Q 5425 1775 5050 1775 
L 3575 1775 
Q 3875 1100 4600 675 
Q 5325 250 6025 100 
Q 5825 -150 5675 -475 
Q 4950 -200 4250 287 
Q 3550 775 3200 1475 
Q 2900 825 2325 300 
Q 1750 -225 775 -650 
Q 650 -400 400 -175 
Q 1250 50 1912 587 
Q 2575 1125 2775 1775 
L 1325 1775 
Q 925 1775 450 1750 
L 450 2225 
Q 925 2200 1325 2200 
L 2875 2200 
Q 2950 2725 2950 3325 
L 1500 3325 
Q 1200 2800 975 2450 
Q 775 2575 500 2675 
Q 950 3225 1187 3750 
Q 1425 4275 1500 4675 
Q 1800 4525 2050 4450 
z
" transform="scale(0.015625)"/>
      </defs>
      <use xlink:href="#SimHei-8bad"/>
      <use xlink:href="#SimHei-7ec3" x="100"/>
      <use xlink:href="#SimHei-96c6" x="200"/>
      <use xlink:href="#SimHei-635f" x="300"/>
      <use xlink:href="#SimHei-5931" x="400"/>
     </g>
    </g>
    <g id="line2d_24">
     <path d="M 247.356287 52.202625 
L 260.556287 52.202625 
L 273.756287 52.202625 
" style="fill: none; stroke-dasharray: 6,2.25; stroke-dashoffset: 0; stroke: #dd8452; stroke-width: 1.5"/>
    </g>
    <g id="text_20">
     <!--  -->
     <g style="fill: #262626" transform="translate(284.316287 56.822625) scale(0.132 -0.132)">
      <use xlink:href="#SimHei-6d4b"/>
      <use xlink:href="#SimHei-8bd5" x="100"/>
      <use xlink:href="#SimHei-96c6" x="200"/>
      <use xlink:href="#SimHei-635f" x="300"/>
      <use xlink:href="#SimHei-5931" x="400"/>
     </g>
    </g>
   </g>
  </g>
 </g>
 <defs>
  <clipPath id="p6bd7b582ba">
   <rect x="53.172" y="15.552" width="309.024287" height="279.396"/>
  </clipPath>
 </defs>
</svg>
