<?xml version="1.0" encoding="utf-8" standalone="no"?>
<!DOCTYPE svg PUBLIC "-//W3C//DTD SVG 1.1//EN"
  "http://www.w3.org/Graphics/SVG/1.1/DTD/svg11.dtd">
<svg xmlns:xlink="http://www.w3.org/1999/xlink" width="460.8pt" height="345.6pt" viewBox="0 0 460.8 345.6" xmlns="http://www.w3.org/2000/svg" version="1.1">
 <metadata>
  <rdf:RDF xmlns:dc="http://purl.org/dc/elements/1.1/" xmlns:cc="http://creativecommons.org/ns#" xmlns:rdf="http://www.w3.org/1999/02/22-rdf-syntax-ns#">
   <cc:Work>
    <dc:type rdf:resource="http://purl.org/dc/dcmitype/StillImage"/>
    <dc:date>2023-04-16T10:40:46.768666</dc:date>
    <dc:format>image/svg+xml</dc:format>
    <dc:creator>
     <cc:Agent>
      <dc:title>Matplotlib v3.7.1, https://matplotlib.org/</dc:title>
     </cc:Agent>
    </dc:creator>
   </cc:Work>
  </rdf:RDF>
 </metadata>
 <defs>
  <style type="text/css">*{stroke-linejoin: round; stroke-linecap: butt}</style>
 </defs>
 <g id="figure_1">
  <g id="patch_1">
   <path d="M 0 345.6 
L 460.8 345.6 
L 460.8 0 
L 0 0 
z
" style="fill: #ffffff"/>
  </g>
  <g id="axes_1">
   <g id="patch_2">
    <path d="M 53.082 294.948 
L 369.879272 294.948 
L 369.879272 15.552 
L 53.082 15.552 
z
" style="fill: #ffffff"/>
   </g>
   <g id="matplotlib.axis_1">
    <g id="xtick_1">
     <g id="line2d_1">
      <path d="M 67.481876 294.948 
L 67.481876 15.552 
" clip-path="url(#p30e311e261)" style="fill: none; stroke: #cccccc; stroke-linecap: round"/>
     </g>
     <g id="text_1">
      <!-- 0 -->
      <g style="fill: #262626" transform="translate(64.181876 313.523) scale(0.132 -0.132)">
       <defs>
        <path id="SimHei-30" d="M 225 2537 
Q 250 3200 412 3587 
Q 575 3975 875 4225 
Q 1175 4475 1612 4475 
Q 2050 4475 2375 4112 
Q 2700 3750 2800 3200 
Q 2900 2650 2862 1937 
Q 2825 1225 2612 775 
Q 2400 325 1975 150 
Q 1550 -25 1125 187 
Q 700 400 525 750 
Q 350 1100 275 1487 
Q 200 1875 225 2537 
z
M 750 2687 
Q 675 2000 800 1462 
Q 925 925 1212 700 
Q 1500 475 1800 612 
Q 2100 750 2237 1162 
Q 2375 1575 2375 2062 
Q 2375 2550 2337 2950 
Q 2300 3350 2112 3675 
Q 1925 4000 1612 4012 
Q 1300 4025 1062 3700 
Q 825 3375 750 2687 
z
" transform="scale(0.015625)"/>
       </defs>
       <use xlink:href="#SimHei-30"/>
      </g>
     </g>
    </g>
    <g id="xtick_2">
     <g id="line2d_2">
      <path d="M 125.19681 294.948 
L 125.19681 15.552 
" clip-path="url(#p30e311e261)" style="fill: none; stroke: #cccccc; stroke-linecap: round"/>
     </g>
     <g id="text_2">
      <!-- 100 -->
      <g style="fill: #262626" transform="translate(115.29681 313.523) scale(0.132 -0.132)">
       <defs>
        <path id="SimHei-31" d="M 1400 3600 
Q 1075 3275 575 2975 
L 575 3450 
Q 1200 3875 1600 4450 
L 1900 4450 
L 1900 150 
L 1400 150 
L 1400 3600 
z
" transform="scale(0.015625)"/>
       </defs>
       <use xlink:href="#SimHei-31"/>
       <use xlink:href="#SimHei-30" x="50"/>
       <use xlink:href="#SimHei-30" x="100"/>
      </g>
     </g>
    </g>
    <g id="xtick_3">
     <g id="line2d_3">
      <path d="M 182.911744 294.948 
L 182.911744 15.552 
" clip-path="url(#p30e311e261)" style="fill: none; stroke: #cccccc; stroke-linecap: round"/>
     </g>
     <g id="text_3">
      <!-- 200 -->
      <g style="fill: #262626" transform="translate(173.011744 313.523) scale(0.132 -0.132)">
       <defs>
        <path id="SimHei-32" d="M 300 250 
Q 325 625 650 925 
Q 975 1225 1475 1862 
Q 1975 2500 2125 2850 
Q 2275 3200 2237 3450 
Q 2200 3700 2000 3862 
Q 1800 4025 1537 4000 
Q 1275 3975 1037 3800 
Q 800 3625 675 3275 
L 200 3350 
Q 400 3925 712 4187 
Q 1025 4450 1450 4475 
Q 1700 4500 1900 4462 
Q 2100 4425 2312 4287 
Q 2525 4150 2662 3875 
Q 2800 3600 2762 3212 
Q 2725 2825 2375 2287 
Q 2025 1750 1025 600 
L 2825 600 
L 2825 150 
L 300 150 
L 300 250 
z
" transform="scale(0.015625)"/>
       </defs>
       <use xlink:href="#SimHei-32"/>
       <use xlink:href="#SimHei-30" x="50"/>
       <use xlink:href="#SimHei-30" x="100"/>
      </g>
     </g>
    </g>
    <g id="xtick_4">
     <g id="line2d_4">
      <path d="M 240.626677 294.948 
L 240.626677 15.552 
" clip-path="url(#p30e311e261)" style="fill: none; stroke: #cccccc; stroke-linecap: round"/>
     </g>
     <g id="text_4">
      <!-- 300 -->
      <g style="fill: #262626" transform="translate(230.726677 313.523) scale(0.132 -0.132)">
       <defs>
        <path id="SimHei-33" d="M 250 1225 
L 700 1300 
Q 800 975 1025 762 
Q 1250 550 1587 562 
Q 1925 575 2125 837 
Q 2325 1100 2300 1437 
Q 2275 1775 2037 1962 
Q 1800 2150 1275 2225 
L 1275 2550 
Q 1800 2600 2037 2825 
Q 2275 3050 2250 3412 
Q 2225 3775 1925 3937 
Q 1625 4100 1287 3975 
Q 950 3850 750 3275 
L 300 3350 
Q 450 3800 712 4100 
Q 975 4400 1425 4450 
Q 1875 4500 2212 4337 
Q 2550 4175 2687 3837 
Q 2825 3500 2725 3100 
Q 2625 2700 2150 2400 
Q 2500 2250 2687 1950 
Q 2875 1650 2812 1162 
Q 2750 675 2375 375 
Q 2000 75 1525 87 
Q 1050 100 700 387 
Q 350 675 250 1225 
z
" transform="scale(0.015625)"/>
       </defs>
       <use xlink:href="#SimHei-33"/>
       <use xlink:href="#SimHei-30" x="50"/>
       <use xlink:href="#SimHei-30" x="100"/>
      </g>
     </g>
    </g>
    <g id="xtick_5">
     <g id="line2d_5">
      <path d="M 298.341611 294.948 
L 298.341611 15.552 
" clip-path="url(#p30e311e261)" style="fill: none; stroke: #cccccc; stroke-linecap: round"/>
     </g>
     <g id="text_5">
      <!-- 400 -->
      <g style="fill: #262626" transform="translate(288.441611 313.523) scale(0.132 -0.132)">
       <defs>
        <path id="SimHei-34" d="M 2000 1100 
L 75 1100 
L 75 1525 
L 2100 4450 
L 2475 4450 
L 2475 1525 
L 3075 1525 
L 3075 1100 
L 2475 1100 
L 2475 150 
L 2000 150 
L 2000 1100 
z
M 2000 1525 
L 2000 3500 
L 600 1525 
L 2000 1525 
z
" transform="scale(0.015625)"/>
       </defs>
       <use xlink:href="#SimHei-34"/>
       <use xlink:href="#SimHei-30" x="50"/>
       <use xlink:href="#SimHei-30" x="100"/>
      </g>
     </g>
    </g>
    <g id="xtick_6">
     <g id="line2d_6">
      <path d="M 356.056545 294.948 
L 356.056545 15.552 
" clip-path="url(#p30e311e261)" style="fill: none; stroke: #cccccc; stroke-linecap: round"/>
     </g>
     <g id="text_6">
      <!-- 500 -->
      <g style="fill: #262626" transform="translate(346.156545 313.523) scale(0.132 -0.132)">
       <defs>
        <path id="SimHei-35" d="M 550 1325 
Q 725 650 1150 575 
Q 1575 500 1837 662 
Q 2100 825 2212 1087 
Q 2325 1350 2312 1675 
Q 2300 2000 2137 2225 
Q 1975 2450 1725 2525 
Q 1475 2600 1162 2525 
Q 850 2450 650 2175 
L 225 2225 
Q 275 2375 700 4375 
L 2675 4375 
L 2675 3925 
L 1075 3925 
Q 950 3250 825 2850 
Q 1200 3025 1525 3012 
Q 1850 3000 2150 2862 
Q 2450 2725 2587 2487 
Q 2725 2250 2787 2012 
Q 2850 1775 2837 1500 
Q 2825 1225 2725 937 
Q 2625 650 2425 462 
Q 2225 275 1937 162 
Q 1650 50 1275 75 
Q 900 100 562 350 
Q 225 600 100 1200 
L 550 1325 
z
" transform="scale(0.015625)"/>
       </defs>
       <use xlink:href="#SimHei-35"/>
       <use xlink:href="#SimHei-30" x="50"/>
       <use xlink:href="#SimHei-30" x="100"/>
      </g>
     </g>
    </g>
    <g id="text_7">
     <!-- Epochs -->
     <g style="fill: #262626" transform="translate(189.880636 329.073) scale(0.144 -0.144)">
      <defs>
       <path id="SimHei-45" d="M 2900 125 
L 350 125 
L 350 4400 
L 2775 4400 
L 2775 3925 
L 925 3925 
L 925 2600 
L 2625 2600 
L 2625 2125 
L 925 2125 
L 925 600 
L 2900 600 
L 2900 125 
z
" transform="scale(0.015625)"/>
       <path id="SimHei-70" d="M 2825 1525 
Q 2825 800 2475 425 
Q 2125 50 1625 50 
Q 1350 50 1150 162 
Q 950 275 800 500 
L 800 -800 
L 300 -800 
L 300 2925 
L 800 2925 
L 800 2550 
Q 950 2775 1150 2875 
Q 1350 2975 1625 2975 
Q 2125 2975 2475 2612 
Q 2825 2250 2825 1525 
z
M 2275 1525 
Q 2275 2000 2087 2262 
Q 1900 2525 1525 2525 
Q 1225 2525 1012 2262 
Q 800 2000 800 1525 
Q 800 1050 1012 775 
Q 1225 500 1525 500 
Q 1900 500 2087 775 
Q 2275 1050 2275 1525 
z
" transform="scale(0.015625)"/>
       <path id="SimHei-6f" d="M 2925 1525 
Q 2925 875 2525 475 
Q 2125 75 1575 75 
Q 1025 75 625 475 
Q 225 875 225 1525 
Q 225 2175 625 2575 
Q 1025 2975 1575 2975 
Q 2125 2975 2525 2575 
Q 2925 2175 2925 1525 
z
M 2375 1525 
Q 2375 2025 2125 2275 
Q 1875 2525 1575 2525 
Q 1275 2525 1025 2275 
Q 775 2025 775 1525 
Q 775 1025 1025 775 
Q 1275 525 1575 525 
Q 1875 525 2125 775 
Q 2375 1025 2375 1525 
z
" transform="scale(0.015625)"/>
       <path id="SimHei-63" d="M 2850 1250 
Q 2850 725 2487 400 
Q 2125 75 1575 75 
Q 1025 75 625 462 
Q 225 850 225 1525 
Q 225 2200 625 2587 
Q 1025 2975 1575 2975 
Q 2125 2975 2450 2687 
Q 2775 2400 2775 2000 
L 2225 2000 
Q 2200 2300 2012 2412 
Q 1825 2525 1575 2525 
Q 1275 2525 1025 2287 
Q 775 2050 775 1525 
Q 775 1000 1025 762 
Q 1275 525 1575 525 
Q 1900 525 2100 700 
Q 2300 875 2300 1250 
L 2850 1250 
z
" transform="scale(0.015625)"/>
       <path id="SimHei-68" d="M 2800 125 
L 2300 125 
L 2300 1925 
Q 2300 2225 2150 2400 
Q 2000 2575 1750 2575 
Q 1425 2575 1137 2237 
Q 850 1900 850 1400 
L 850 125 
L 350 125 
L 350 4400 
L 850 4400 
L 850 2400 
Q 1050 2675 1287 2825 
Q 1525 2975 1900 2975 
Q 2350 2975 2575 2725 
Q 2800 2475 2800 2100 
L 2800 125 
z
" transform="scale(0.015625)"/>
       <path id="SimHei-73" d="M 2750 900 
Q 2750 500 2437 287 
Q 2125 75 1650 75 
Q 1050 75 725 312 
Q 400 550 400 1000 
L 900 1000 
Q 900 700 1112 600 
Q 1325 500 1625 500 
Q 1925 500 2075 612 
Q 2225 725 2225 900 
Q 2225 1025 2100 1150 
Q 1975 1275 1475 1350 
Q 900 1425 687 1637 
Q 475 1850 475 2200 
Q 475 2500 762 2737 
Q 1050 2975 1600 2975 
Q 2100 2975 2387 2750 
Q 2675 2525 2675 2150 
L 2175 2150 
Q 2175 2375 2012 2462 
Q 1850 2550 1600 2550 
Q 1275 2550 1137 2437 
Q 1000 2325 1000 2175 
Q 1000 2000 1125 1900 
Q 1250 1800 1650 1750 
Q 2300 1650 2525 1437 
Q 2750 1225 2750 900 
z
" transform="scale(0.015625)"/>
      </defs>
      <use xlink:href="#SimHei-45"/>
      <use xlink:href="#SimHei-70" x="50"/>
      <use xlink:href="#SimHei-6f" x="100"/>
      <use xlink:href="#SimHei-63" x="150"/>
      <use xlink:href="#SimHei-68" x="200"/>
      <use xlink:href="#SimHei-73" x="250"/>
     </g>
    </g>
   </g>
   <g id="matplotlib.axis_2">
    <g id="ytick_1">
     <g id="line2d_7">
      <path d="M 53.082 286.467324 
L 369.879272 286.467324 
" clip-path="url(#p30e311e261)" style="fill: none; stroke: #cccccc; stroke-linecap: round"/>
     </g>
     <g id="text_8">
      <!-- 0 -->
      <g style="fill: #262626" transform="translate(36.982 291.004824) scale(0.132 -0.132)">
       <use xlink:href="#SimHei-30"/>
      </g>
     </g>
    </g>
    <g id="ytick_2">
     <g id="line2d_8">
      <path d="M 53.082 242.988024 
L 369.879272 242.988024 
" clip-path="url(#p30e311e261)" style="fill: none; stroke: #cccccc; stroke-linecap: round"/>
     </g>
     <g id="text_9">
      <!-- 2 -->
      <g style="fill: #262626" transform="translate(36.982 247.525524) scale(0.132 -0.132)">
       <use xlink:href="#SimHei-32"/>
      </g>
     </g>
    </g>
    <g id="ytick_3">
     <g id="line2d_9">
      <path d="M 53.082 199.508723 
L 369.879272 199.508723 
" clip-path="url(#p30e311e261)" style="fill: none; stroke: #cccccc; stroke-linecap: round"/>
     </g>
     <g id="text_10">
      <!-- 4 -->
      <g style="fill: #262626" transform="translate(36.982 204.046223) scale(0.132 -0.132)">
       <use xlink:href="#SimHei-34"/>
      </g>
     </g>
    </g>
    <g id="ytick_4">
     <g id="line2d_10">
      <path d="M 53.082 156.029423 
L 369.879272 156.029423 
" clip-path="url(#p30e311e261)" style="fill: none; stroke: #cccccc; stroke-linecap: round"/>
     </g>
     <g id="text_11">
      <!-- 6 -->
      <g style="fill: #262626" transform="translate(36.982 160.566923) scale(0.132 -0.132)">
       <defs>
        <path id="SimHei-36" d="M 250 1612 
Q 275 1975 387 2225 
Q 500 2475 725 2850 
L 1750 4450 
L 2325 4450 
L 1275 2800 
Q 1950 2975 2350 2750 
Q 2750 2525 2887 2237 
Q 3025 1950 3037 1612 
Q 3050 1275 2937 950 
Q 2825 625 2537 362 
Q 2250 100 1737 75 
Q 1225 50 862 262 
Q 500 475 362 862 
Q 225 1250 250 1612 
z
M 1025 787 
Q 1250 550 1625 525 
Q 2000 500 2250 775 
Q 2500 1050 2500 1575 
Q 2500 2100 2187 2300 
Q 1875 2500 1487 2450 
Q 1100 2400 925 2075 
Q 750 1750 775 1387 
Q 800 1025 1025 787 
z
" transform="scale(0.015625)"/>
       </defs>
       <use xlink:href="#SimHei-36"/>
      </g>
     </g>
    </g>
    <g id="ytick_5">
     <g id="line2d_11">
      <path d="M 53.082 112.550122 
L 369.879272 112.550122 
" clip-path="url(#p30e311e261)" style="fill: none; stroke: #cccccc; stroke-linecap: round"/>
     </g>
     <g id="text_12">
      <!-- 8 -->
      <g style="fill: #262626" transform="translate(36.982 117.087622) scale(0.132 -0.132)">
       <defs>
        <path id="SimHei-38" d="M 175 1375 
Q 175 1675 325 1962 
Q 475 2250 825 2425 
Q 525 2600 425 2812 
Q 325 3025 312 3300 
Q 300 3575 387 3775 
Q 475 3975 650 4150 
Q 825 4325 1037 4387 
Q 1250 4450 1500 4450 
Q 1750 4450 1950 4400 
Q 2150 4350 2375 4187 
Q 2600 4025 2700 3725 
Q 2800 3425 2687 3025 
Q 2575 2625 2100 2400 
Q 2525 2275 2700 2012 
Q 2875 1750 2875 1375 
Q 2875 1000 2762 775 
Q 2650 550 2512 400 
Q 2375 250 2137 162 
Q 1900 75 1537 75 
Q 1175 75 912 162 
Q 650 250 475 425 
Q 300 600 237 837 
Q 175 1075 175 1375 
z
M 687 1400 
Q 675 1100 787 875 
Q 900 650 1200 587 
Q 1500 525 1825 600 
Q 2150 675 2275 950 
Q 2400 1225 2362 1500 
Q 2325 1775 2050 1962 
Q 1775 2150 1450 2125 
Q 1125 2100 912 1900 
Q 700 1700 687 1400 
z
M 775 3350 
Q 775 3100 950 2875 
Q 1125 2650 1500 2650 
Q 1875 2650 2062 2875 
Q 2250 3100 2237 3412 
Q 2225 3725 2012 3875 
Q 1800 4025 1437 4000 
Q 1075 3975 925 3787 
Q 775 3600 775 3350 
z
" transform="scale(0.015625)"/>
       </defs>
       <use xlink:href="#SimHei-38"/>
      </g>
     </g>
    </g>
    <g id="ytick_6">
     <g id="line2d_12">
      <path d="M 53.082 69.070822 
L 369.879272 69.070822 
" clip-path="url(#p30e311e261)" style="fill: none; stroke: #cccccc; stroke-linecap: round"/>
     </g>
     <g id="text_13">
      <!-- 10 -->
      <g style="fill: #262626" transform="translate(30.382 73.608322) scale(0.132 -0.132)">
       <use xlink:href="#SimHei-31"/>
       <use xlink:href="#SimHei-30" x="50"/>
      </g>
     </g>
    </g>
    <g id="ytick_7">
     <g id="line2d_13">
      <path d="M 53.082 25.591522 
L 369.879272 25.591522 
" clip-path="url(#p30e311e261)" style="fill: none; stroke: #cccccc; stroke-linecap: round"/>
     </g>
     <g id="text_14">
      <!-- 12 -->
      <g style="fill: #262626" transform="translate(30.382 30.129022) scale(0.132 -0.132)">
       <use xlink:href="#SimHei-31"/>
       <use xlink:href="#SimHei-32" x="50"/>
      </g>
     </g>
    </g>
    <g id="text_15">
     <!-- MSE -->
     <g style="fill: #262626" transform="translate(24.582 166.05) rotate(-90) scale(0.144 -0.144)">
      <defs>
       <path id="SimHei-4d" d="M 2925 125 
L 2425 125 
L 2425 3175 
L 2375 3175 
L 1775 125 
L 1375 125 
L 775 3175 
L 725 3175 
L 725 125 
L 225 125 
L 225 4400 
L 1000 4400 
L 1550 1575 
L 1600 1575 
L 2150 4400 
L 2925 4400 
L 2925 125 
z
" transform="scale(0.015625)"/>
       <path id="SimHei-53" d="M 2900 1325 
Q 2900 750 2537 412 
Q 2175 75 1550 75 
Q 925 75 575 425 
Q 225 775 225 1300 
L 225 1475 
L 800 1475 
L 800 1325 
Q 800 950 1025 750 
Q 1250 550 1550 550 
Q 1950 550 2137 762 
Q 2325 975 2325 1275 
Q 2325 1525 2100 1737 
Q 1875 1950 1450 2125 
Q 850 2350 587 2625 
Q 325 2900 325 3275 
Q 325 3800 687 4125 
Q 1050 4450 1550 4450 
Q 2200 4450 2487 4062 
Q 2775 3675 2775 3225 
L 2200 3225 
Q 2225 3500 2050 3725 
Q 1875 3950 1550 3950 
Q 1250 3950 1075 3787 
Q 900 3625 900 3350 
Q 900 3125 1037 2962 
Q 1175 2800 1750 2575 
Q 2300 2350 2600 2037 
Q 2900 1725 2900 1325 
z
" transform="scale(0.015625)"/>
      </defs>
      <use xlink:href="#SimHei-4d"/>
      <use xlink:href="#SimHei-53" x="50"/>
      <use xlink:href="#SimHei-45" x="100"/>
     </g>
    </g>
   </g>
   <g id="PolyCollection_1"/>
   <g id="PolyCollection_2"/>
   <g id="line2d_14">
    <path d="M 67.481876 28.251818 
L 68.059025 115.566532 
L 69.213324 146.11626 
L 69.790473 180.167559 
L 70.367623 240.139973 
L 70.944772 270.126021 
L 71.521921 276.103561 
L 72.099071 277.953687 
L 72.67622 278.744656 
L 73.253369 279.169474 
L 74.984817 279.729029 
L 77.870564 280.114733 
L 79.024863 280.147162 
L 79.602012 280.284889 
L 87.104953 280.516644 
L 87.682103 280.32481 
L 88.259252 280.588214 
L 90.56785 280.639447 
L 91.144999 280.326739 
L 92.299298 280.569446 
L 93.453596 280.583167 
L 95.762194 280.592271 
L 96.339343 280.494146 
L 96.916492 280.570049 
L 97.493642 280.47767 
L 98.64794 280.678074 
L 100.956538 280.663946 
L 101.533687 280.528814 
L 103.265135 280.683029 
L 104.419434 280.55769 
L 104.996583 280.702 
L 107.30518 280.565169 
L 107.88233 280.7063 
L 109.613778 280.605853 
L 113.653823 280.68204 
L 115.385271 280.632451 
L 116.53957 280.666619 
L 119.425316 280.706806 
L 120.002466 280.618573 
L 122.888212 280.727507 
L 123.465362 280.555187 
L 124.61966 280.697799 
L 125.773959 280.75479 
L 126.351108 280.743506 
L 126.928258 280.620595 
L 127.505407 280.714998 
L 130.391154 280.6605 
L 132.122602 280.717839 
L 134.431199 280.758195 
L 135.008349 280.693556 
L 136.739797 280.762876 
L 137.894095 280.683754 
L 139.048394 280.763126 
L 139.625543 280.55575 
L 148.282783 280.78835 
L 148.859933 280.704552 
L 150.591381 280.749978 
L 152.322829 280.724677 
L 153.477127 280.792457 
L 154.054277 280.681892 
L 155.208575 280.750781 
L 156.362874 280.805456 
L 156.940023 280.711327 
L 158.094322 280.784052 
L 159.248621 280.739591 
L 159.82577 280.506042 
L 160.980069 280.745495 
L 163.288666 280.815433 
L 164.442965 280.813883 
L 165.020114 280.588863 
L 165.597263 280.781629 
L 167.905861 280.789985 
L 169.060159 280.76343 
L 170.214458 280.728938 
L 171.945906 280.815399 
L 174.254504 280.816007 
L 174.831653 280.729948 
L 176.563101 280.761531 
L 178.294549 280.752579 
L 180.603146 280.771465 
L 182.334594 280.80812 
L 186.37464 280.760811 
L 187.528938 280.806017 
L 191.568984 280.852472 
L 192.146133 280.773778 
L 192.723282 280.823035 
L 193.300432 280.653518 
L 193.877581 280.799742 
L 199.071925 280.835004 
L 202.534821 280.819441 
L 203.11197 280.780283 
L 203.68912 280.864868 
L 205.420568 280.756535 
L 205.997717 280.847024 
L 209.460613 280.733578 
L 210.614912 280.87985 
L 211.192061 280.80966 
L 212.34636 280.874546 
L 213.500659 280.783821 
L 215.232107 280.881823 
L 221.580749 280.869631 
L 222.157899 280.889902 
L 222.735048 280.745195 
L 225.620795 280.862599 
L 230.237989 280.846028 
L 230.815139 280.689299 
L 231.969437 280.87931 
L 232.546587 280.815754 
L 234.278035 280.875455 
L 247.552469 280.843427 
L 248.706768 280.910589 
L 255.63256 280.838906 
L 256.786859 280.918354 
L 268.329846 280.854525 
L 270.061294 280.810329 
L 270.638443 280.943263 
L 279.872832 280.923798 
L 281.027131 280.942411 
L 281.60428 280.846508 
L 282.18143 280.946078 
L 284.490027 280.926628 
L 290.26152 280.959605 
L 293.724416 280.911175 
L 294.878715 280.94292 
L 298.918761 280.97379 
L 301.804507 280.927016 
L 304.113105 280.95092 
L 311.616046 280.920476 
L 312.770345 280.849515 
L 313.924643 280.950565 
L 316.233241 280.995834 
L 321.427585 280.977239 
L 329.507675 280.983322 
L 331.239123 280.956043 
L 332.393422 280.87009 
L 333.547721 281.001457 
L 336.433467 280.992708 
L 355.479396 280.965702 
L 355.479396 280.965702 
" clip-path="url(#p30e311e261)" style="fill: none; stroke: #4c72b0; stroke-width: 1.5; stroke-linecap: round"/>
   </g>
   <g id="line2d_15">
    <path d="M 67.481876 187.978193 
L 68.059025 174.827571 
L 68.636175 189.092381 
L 69.213324 180.986806 
L 70.367623 268.081039 
L 70.944772 276.048793 
L 71.521921 278.847158 
L 72.67622 280.364969 
L 73.253369 280.516485 
L 73.830519 280.809571 
L 74.984817 280.947406 
L 75.561967 281.161218 
L 76.139116 281.066595 
L 76.716265 281.393154 
L 80.179161 281.765765 
L 81.33346 281.710759 
L 81.910609 281.856419 
L 83.064908 281.844024 
L 83.642057 281.700312 
L 86.527804 281.9682 
L 87.104953 281.556229 
L 88.259252 282.063985 
L 89.413551 282.073263 
L 89.9907 282.084682 
L 90.56785 281.774056 
L 91.144999 281.619149 
L 91.722148 282.048904 
L 93.453596 282.00161 
L 94.030746 282.075082 
L 96.339343 281.911651 
L 96.916492 281.4534 
L 97.493642 282.047247 
L 98.64794 282.132968 
L 99.22509 282.049245 
L 100.379388 282.149949 
L 102.687986 282.080165 
L 103.265135 282.149766 
L 104.419434 282.15715 
L 106.150882 282.140737 
L 106.728031 281.776393 
L 107.30518 282.158727 
L 110.190927 282.086528 
L 110.768076 281.908562 
L 111.345226 282.149853 
L 113.076674 282.142763 
L 113.653823 281.977751 
L 114.230972 282.111313 
L 114.808122 281.823102 
L 115.385271 282.151039 
L 116.53957 282.165888 
L 117.116719 282.010022 
L 119.425316 282.10227 
L 120.002466 282.017399 
L 120.579615 282.194722 
L 121.733914 282.057137 
L 122.311063 282.160535 
L 122.888212 281.925179 
L 124.042511 282.162312 
L 124.61966 282.048619 
L 125.19681 282.172577 
L 127.505407 282.159893 
L 128.082556 281.664731 
L 128.659706 282.091051 
L 129.814004 282.10169 
L 130.968303 282.074022 
L 131.545453 282.182536 
L 132.122602 282.147179 
L 133.276901 281.844256 
L 133.85405 282.122454 
L 134.431199 282.172608 
L 135.008349 282.022705 
L 136.162647 282.167205 
L 137.316946 282.035592 
L 140.202693 282.114141 
L 140.779842 281.906902 
L 141.356991 282.081707 
L 141.934141 282.134854 
L 142.51129 281.906142 
L 143.088439 282.14081 
L 143.665589 282.043526 
L 144.242738 282.166132 
L 148.282783 282.114698 
L 150.014231 282.18325 
L 150.591381 282.043723 
L 151.16853 282.172455 
L 151.745679 281.985265 
L 152.322829 282.161024 
L 152.899978 282.190923 
L 153.477127 282.019748 
L 155.208575 282.202928 
L 158.671471 282.153456 
L 159.248621 281.958457 
L 159.82577 282.128573 
L 160.402919 282.078534 
L 160.980069 282.184758 
L 162.134367 282.088546 
L 163.288666 282.164199 
L 164.442965 282.130557 
L 165.597263 282.185145 
L 166.751562 282.14713 
L 167.328711 281.884664 
L 167.905861 282.160962 
L 169.060159 282.137639 
L 169.637309 282.110473 
L 170.791607 282.187238 
L 172.523056 282.146718 
L 174.254504 282.199918 
L 174.831653 281.841345 
L 175.408802 282.207745 
L 175.985952 282.177616 
L 176.563101 281.756606 
L 177.14025 281.904817 
L 177.7174 281.916236 
L 178.294549 282.199892 
L 178.871698 282.107727 
L 179.448848 282.182826 
L 180.025997 282.02173 
L 180.603146 282.167545 
L 186.37464 282.177482 
L 186.951789 282.030553 
L 187.528938 282.143659 
L 188.106088 282.118203 
L 189.260386 282.191431 
L 189.837536 282.184003 
L 190.414685 282.053741 
L 190.991834 282.202648 
L 192.146133 282.213155 
L 192.723282 281.953446 
L 193.300432 282.215292 
L 193.877581 282.149885 
L 194.45473 281.916561 
L 195.03188 282.202693 
L 195.609029 282.097816 
L 197.340477 282.20855 
L 201.957672 282.130653 
L 202.534821 282.024133 
L 203.11197 282.21925 
L 204.266269 282.161527 
L 204.843418 282.195591 
L 205.997717 282.14674 
L 208.306314 282.104555 
L 208.883464 281.799619 
L 209.460613 282.178172 
L 210.614912 282.174923 
L 212.34636 282.222954 
L 212.923509 282.045494 
L 213.500659 282.227271 
L 218.695003 282.21392 
L 219.272152 282.220457 
L 219.849301 281.86213 
L 220.426451 282.208992 
L 226.775093 282.19251 
L 227.352243 282.095982 
L 229.083691 282.203022 
L 229.66084 282.133116 
L 230.237989 282.225502 
L 230.815139 282.034089 
L 231.392288 282.226596 
L 232.546587 282.078165 
L 233.123736 282.24308 
L 233.700885 282.112711 
L 234.278035 282.105777 
L 234.855184 282.233654 
L 246.398171 282.195275 
L 248.129619 282.229619 
L 251.015365 282.115477 
L 252.169664 282.218788 
L 252.746813 281.850891 
L 253.323963 282.245255 
L 254.478261 282.213929 
L 255.055411 282.08043 
L 256.20971 282.194248 
L 257.941158 282.201502 
L 258.518307 282.14346 
L 259.095456 282.235756 
L 259.672606 282.135538 
L 260.249755 282.236161 
L 264.86695 282.139037 
L 266.021248 282.229528 
L 267.752696 282.177249 
L 268.329846 281.855764 
L 268.906995 282.107911 
L 269.484144 281.970709 
L 270.061294 282.222651 
L 273.52419 282.24649 
L 276.987086 282.152402 
L 280.449982 282.231665 
L 281.027131 282.037952 
L 281.60428 282.201645 
L 284.490027 282.226912 
L 285.067176 282.062452 
L 285.644326 282.205634 
L 287.952923 282.199673 
L 288.530072 282.222036 
L 289.107222 282.036856 
L 289.684371 282.240139 
L 291.992968 282.232813 
L 292.570118 282.082578 
L 293.147267 282.186864 
L 293.724416 281.989496 
L 294.301566 282.221141 
L 294.878715 282.230615 
L 295.455864 282.055424 
L 296.033014 282.2421 
L 299.49591 282.221073 
L 300.073059 282.083939 
L 300.650209 281.637476 
L 301.227358 282.142882 
L 303.535955 282.197207 
L 304.113105 282.109771 
L 305.267403 282.23573 
L 306.998851 282.201554 
L 308.730299 282.230309 
L 310.461747 282.237927 
L 311.616046 282.224895 
L 312.193195 281.809111 
L 313.924643 282.226385 
L 316.81039 282.233523 
L 317.387539 282.063732 
L 317.964689 282.212634 
L 320.850435 282.238253 
L 322.581883 282.132511 
L 323.736182 282.223026 
L 326.044779 282.212636 
L 327.199078 282.088614 
L 331.239123 282.240091 
L 331.816273 281.802774 
L 332.393422 282.163315 
L 333.547721 282.226469 
L 334.12487 282.139678 
L 335.856318 282.214512 
L 345.090708 282.211675 
L 346.822156 282.201235 
L 347.976454 282.219624 
L 349.130753 282.175952 
L 351.43935 282.210056 
L 352.593649 282.066251 
L 353.747948 282.217593 
L 355.479396 282.186223 
L 355.479396 282.186223 
" clip-path="url(#p30e311e261)" style="fill: none; stroke-dasharray: 6,2.25; stroke-dashoffset: 0; stroke: #dd8452; stroke-width: 1.5"/>
   </g>
   <g id="line2d_16"/>
   <g id="line2d_17"/>
   <g id="line2d_18">
    <path d="M 355.479396 280.965702 
" clip-path="url(#p30e311e261)" style="fill: none; stroke: #8b0000; stroke-width: 1.5; stroke-linecap: round"/>
    <defs>
     <path id="m33f34e6594" d="M 0 3 
C 0.795609 3 1.55874 2.683901 2.12132 2.12132 
C 2.683901 1.55874 3 0.795609 3 0 
C 3 -0.795609 2.683901 -1.55874 2.12132 -2.12132 
C 1.55874 -2.683901 0.795609 -3 0 -3 
C -0.795609 -3 -1.55874 -2.683901 -2.12132 -2.12132 
C -2.683901 -1.55874 -3 -0.795609 -3 0 
C -3 0.795609 -2.683901 1.55874 -2.12132 2.12132 
C -1.55874 2.683901 -0.795609 3 0 3 
z
" style="stroke: #8b0000"/>
    </defs>
    <g clip-path="url(#p30e311e261)">
     <use xlink:href="#m33f34e6594" x="355.479396" y="280.965702" style="fill: #8b0000; stroke: #8b0000"/>
    </g>
   </g>
   <g id="line2d_19">
    <path d="M 53.082 280.965702 
L 369.879272 280.965702 
" clip-path="url(#p30e311e261)" style="fill: none; stroke-dasharray: 5.55,2.4; stroke-dashoffset: 0; stroke: #8b0000; stroke-width: 1.5"/>
   </g>
   <g id="line2d_20">
    <path d="M 355.479396 282.186223 
" clip-path="url(#p30e311e261)" style="fill: none; stroke: #8b0000; stroke-width: 1.5; stroke-linecap: round"/>
    <g clip-path="url(#p30e311e261)">
     <use xlink:href="#m33f34e6594" x="355.479396" y="282.186223" style="fill: #8b0000; stroke: #8b0000"/>
    </g>
   </g>
   <g id="line2d_21">
    <path d="M 53.082 282.186223 
L 369.879272 282.186223 
" clip-path="url(#p30e311e261)" style="fill: none; stroke-dasharray: 5.55,2.4; stroke-dashoffset: 0; stroke: #8b0000; stroke-width: 1.5"/>
   </g>
   <g id="patch_3">
    <path d="M 53.082 294.948 
L 53.082 15.552 
" style="fill: none; stroke: #cccccc; stroke-width: 1.25; stroke-linejoin: miter; stroke-linecap: square"/>
   </g>
   <g id="patch_4">
    <path d="M 369.879272 294.948 
L 369.879272 15.552 
" style="fill: none; stroke: #cccccc; stroke-width: 1.25; stroke-linejoin: miter; stroke-linecap: square"/>
   </g>
   <g id="patch_5">
    <path d="M 53.082 294.948 
L 369.879272 294.948 
" style="fill: none; stroke: #cccccc; stroke-width: 1.25; stroke-linejoin: miter; stroke-linecap: square"/>
   </g>
   <g id="patch_6">
    <path d="M 53.082 15.552 
L 369.879272 15.552 
" style="fill: none; stroke: #cccccc; stroke-width: 1.25; stroke-linejoin: miter; stroke-linecap: square"/>
   </g>
   <g id="text_16">
    <!-- 训练集y=0.2531 -->
    <g style="fill: #8b0000" transform="translate(347.399305 259.226051) scale(0.144 -0.144)">
     <defs>
      <path id="SimHei-8bad" d="M 1650 3300 
Q 1625 2725 1625 2225 
L 1625 675 
Q 1950 1125 2050 1275 
Q 2175 1125 2350 900 
Q 2025 500 1800 212 
Q 1575 -75 1325 -425 
Q 1150 -200 950 -50 
Q 1150 225 1150 625 
L 1150 2875 
L 975 2875 
Q 600 2875 300 2850 
L 300 3325 
Q 600 3300 975 3300 
L 1650 3300 
z
M 3425 4600 
Q 3375 4350 3387 3362 
Q 3400 2375 3337 1887 
Q 3275 1400 3087 837 
Q 2900 275 2450 -375 
Q 2225 -200 1975 -125 
Q 2550 500 2762 1362 
Q 2975 2225 2950 3337 
Q 2925 4450 2900 4675 
Q 3150 4625 3425 4600 
z
M 5875 4700 
Q 5850 4500 5850 3975 
L 5850 625 
Q 5850 125 5875 -400 
L 5400 -400 
Q 5425 125 5425 600 
L 5425 3975 
Q 5425 4500 5400 4700 
L 5875 4700 
z
M 4600 175 
L 4125 175 
Q 4150 725 4150 1150 
L 4150 3600 
Q 4150 4050 4125 4350 
L 4600 4350 
L 4600 175 
z
M 1000 5150 
Q 1650 4600 2100 4100 
Q 1875 3925 1750 3750 
Q 1050 4550 700 4800 
Q 850 4950 1000 5150 
z
" transform="scale(0.015625)"/>
      <path id="SimHei-7ec3" d="M 3300 3825 
Q 2950 3825 2400 3800 
L 2400 4250 
Q 2950 4225 3325 4225 
L 3625 4225 
Q 3875 4950 3900 5175 
Q 4200 5025 4450 4925 
Q 4350 4825 4262 4612 
Q 4175 4400 4100 4225 
L 5025 4225 
Q 5425 4225 5900 4250 
L 5900 3800 
Q 5550 3825 5025 3825 
L 3975 3825 
Q 3850 3525 3700 3150 
L 4675 3150 
Q 4650 2875 4650 2475 
L 4650 1975 
L 4975 1975 
Q 5350 1975 5800 2000 
L 5800 1550 
Q 5350 1575 4975 1575 
L 4650 1575 
L 4650 125 
Q 4650 -300 4462 -425 
Q 4275 -550 3650 -625 
Q 3625 -375 3450 -100 
Q 4075 -125 4137 -25 
Q 4200 75 4200 325 
L 4200 1575 
L 3425 1575 
Q 3250 1575 3100 1562 
Q 2950 1550 2750 1475 
Q 2650 1725 2550 1950 
Q 2800 2025 3125 2775 
Q 2950 2775 2450 2750 
L 2450 3175 
Q 3025 3150 3250 3150 
Q 3400 3525 3500 3825 
L 3300 3825 
z
M 1650 2950 
Q 1875 3300 2100 3900 
Q 2325 3725 2575 3600 
Q 2325 3275 2025 2750 
Q 1725 2225 1075 1350 
Q 1300 1400 2400 1575 
Q 2350 1300 2375 1150 
Q 1825 1100 650 825 
Q 525 1075 400 1275 
Q 625 1400 887 1737 
Q 1150 2075 1450 2575 
Q 1300 2600 1012 2562 
Q 725 2525 450 2450 
Q 350 2675 250 2925 
Q 500 3075 812 3725 
Q 1125 4375 1325 5000 
Q 1600 4825 1850 4750 
Q 1600 4375 1387 3962 
Q 1175 3550 800 2925 
Q 1375 2925 1650 2950 
z
M 2425 700 
Q 2400 425 2425 250 
Q 2000 150 1462 -25 
Q 925 -200 475 -425 
Q 400 -150 300 125 
Q 950 275 1187 337 
Q 1425 400 2425 700 
z
M 3725 875 
Q 3650 800 3287 400 
Q 2925 0 2475 -475 
Q 2300 -250 2150 -125 
Q 2425 100 2750 462 
Q 3075 825 3325 1225 
Q 3475 1050 3725 875 
z
M 5275 1225 
Q 5925 375 6200 -100 
Q 5950 -200 5750 -375 
Q 5475 175 4900 950 
Q 5075 1050 5275 1225 
z
M 4200 1975 
L 4200 2775 
L 3575 2775 
Q 3325 2250 3175 1975 
L 4200 1975 
z
" transform="scale(0.015625)"/>
      <path id="SimHei-96c6" d="M 2275 4925 
Q 2125 4800 2025 4662 
Q 1925 4525 1850 4350 
L 4925 4350 
Q 5300 4350 5750 4375 
L 5750 3975 
L 3650 3975 
L 3650 3575 
L 4625 3575 
Q 4925 3575 5325 3600 
L 5325 3175 
Q 4925 3200 4625 3200 
L 3650 3200 
L 3650 2800 
L 4675 2800 
Q 5000 2800 5425 2825 
L 5425 2400 
Q 5000 2425 4675 2425 
L 3650 2425 
L 3650 2075 
L 4875 2075 
Q 5275 2075 5675 2100 
L 5675 1675 
Q 5300 1700 4900 1700 
L 1650 1700 
L 1650 1500 
L 1150 1500 
Q 1200 1950 1200 2325 
L 1200 3475 
Q 1050 3250 937 3125 
Q 825 3000 675 2825 
Q 500 3000 300 3125 
Q 475 3325 875 3825 
Q 1275 4325 1462 4650 
Q 1650 4975 1725 5225 
Q 1950 5100 2275 4925 
z
M 2975 1200 
Q 2975 1300 2950 1625 
L 3475 1625 
Q 3450 1275 3450 1200 
L 5050 1200 
Q 5500 1200 5925 1225 
L 5925 825 
L 4150 825 
Q 4500 525 4925 362 
Q 5350 200 6100 25 
Q 5875 -225 5775 -475 
Q 5275 -300 4962 -162 
Q 4650 -25 4387 137 
Q 4125 300 3950 462 
Q 3775 625 3575 825 
L 3450 825 
L 3450 250 
Q 3450 -275 3500 -650 
L 2950 -650 
Q 2975 -300 2975 250 
L 2975 825 
L 2875 825 
Q 2700 575 2475 375 
Q 2250 175 1987 12 
Q 1725 -150 1425 -300 
Q 1125 -450 700 -575 
Q 600 -325 400 -75 
Q 925 50 1475 262 
Q 2025 475 2300 825 
L 500 825 
L 500 1225 
Q 800 1200 1400 1200 
L 2975 1200 
z
M 3150 2800 
L 3150 3200 
L 1650 3200 
L 1650 2800 
L 3150 2800 
z
M 3150 3575 
L 3150 3975 
L 1650 3975 
L 1650 3575 
L 3150 3575 
z
M 3150 2075 
L 3150 2425 
L 1650 2425 
L 1650 2075 
L 3150 2075 
z
M 3450 5250 
Q 3575 5150 3712 5000 
Q 3850 4850 4000 4650 
Q 3850 4525 3575 4375 
Q 3425 4575 3325 4700 
Q 3225 4825 3075 4950 
Q 3275 5075 3450 5250 
z
" transform="scale(0.015625)"/>
      <path id="SimHei-79" d="M 2900 2925 
L 1750 -100 
Q 1650 -450 1450 -625 
Q 1250 -800 950 -800 
Q 825 -800 712 -787 
Q 600 -775 500 -725 
L 500 -225 
Q 600 -275 700 -300 
Q 800 -325 875 -325 
Q 1075 -325 1150 -262 
Q 1225 -200 1300 25 
L 200 2925 
L 750 2925 
L 1550 725 
L 1575 725 
L 2350 2925 
L 2900 2925 
z
" transform="scale(0.015625)"/>
      <path id="SimHei-3d" d="M 2975 2900 
L 125 2900 
L 125 3300 
L 2975 3300 
L 2975 2900 
z
M 2975 1375 
L 125 1375 
L 125 1775 
L 2975 1775 
L 2975 1375 
z
" transform="scale(0.015625)"/>
      <path id="SimHei-2e" d="M 1075 125 
L 500 125 
L 500 675 
L 1075 675 
L 1075 125 
z
" transform="scale(0.015625)"/>
     </defs>
     <use xlink:href="#SimHei-8bad"/>
     <use xlink:href="#SimHei-7ec3" x="100"/>
     <use xlink:href="#SimHei-96c6" x="200"/>
     <use xlink:href="#SimHei-79" x="300"/>
     <use xlink:href="#SimHei-3d" x="350"/>
     <use xlink:href="#SimHei-30" x="400"/>
     <use xlink:href="#SimHei-2e" x="450"/>
     <use xlink:href="#SimHei-32" x="500"/>
     <use xlink:href="#SimHei-35" x="550"/>
     <use xlink:href="#SimHei-33" x="600"/>
     <use xlink:href="#SimHei-31" x="650"/>
    </g>
   </g>
   <g id="text_17">
    <!-- 测试集y=0.1969 -->
    <g style="fill: #8b0000" transform="translate(347.399305 173.487971) scale(0.144 -0.144)">
     <defs>
      <path id="SimHei-6d4b" d="M 4025 4725 
Q 4000 4475 4000 4000 
L 4000 2225 
Q 4000 1775 4025 1350 
L 3550 1350 
L 3550 4325 
L 2350 4325 
L 2350 1325 
L 1900 1325 
Q 1925 1775 1925 2225 
L 1925 4000 
Q 1925 4200 1900 4725 
L 4025 4725 
z
M 5900 5075 
Q 5875 4800 5875 4375 
L 5875 0 
Q 5875 -325 5650 -425 
Q 5425 -525 4975 -600 
Q 4925 -325 4775 -50 
Q 5125 -50 5262 -25 
Q 5400 0 5400 250 
L 5400 4375 
Q 5400 4775 5375 5075 
L 5900 5075 
z
M 3275 3725 
Q 3225 3400 3200 2325 
Q 3175 1250 2837 550 
Q 2500 -150 2075 -600 
Q 1850 -400 1600 -325 
Q 2200 250 2475 962 
Q 2750 1675 2762 2475 
Q 2775 3275 2725 3800 
Q 3000 3750 3275 3725 
z
M 4950 4275 
Q 4925 4000 4925 3575 
L 4925 1825 
Q 4925 1300 4950 850 
L 4450 850 
Q 4475 1150 4475 1825 
L 4475 3575 
Q 4475 4000 4450 4275 
L 4950 4275 
z
M 1700 1675 
Q 1375 1075 1112 487 
Q 850 -100 725 -400 
Q 500 -200 200 -25 
Q 475 300 762 850 
Q 1050 1400 1250 2000 
Q 1475 1825 1700 1675 
z
M 3400 1050 
Q 3800 650 4300 -125 
Q 4100 -225 3875 -450 
Q 3475 275 3025 750 
Q 3225 875 3400 1050 
z
M 600 3525 
Q 1125 3125 1500 2775 
Q 1300 2575 1150 2375 
Q 825 2775 300 3150 
Q 450 3300 600 3525 
z
M 1350 4000 
Q 950 4375 475 4675 
Q 625 4850 775 5050 
Q 1300 4700 1675 4375 
Q 1500 4250 1350 4000 
z
" transform="scale(0.015625)"/>
      <path id="SimHei-8bd5" d="M 3950 3825 
Q 3925 4325 3925 4550 
Q 3925 4800 3900 5225 
Q 4200 5150 4450 5125 
Q 4425 4825 4425 4600 
L 4425 3825 
L 5150 3825 
Q 5500 3825 5875 3850 
L 5875 3400 
Q 5525 3425 5125 3425 
L 4450 3425 
Q 4500 2750 4587 2212 
Q 4675 1675 4837 1112 
Q 5000 550 5212 225 
Q 5425 -100 5500 200 
Q 5575 500 5600 900 
Q 5800 625 6100 525 
Q 5975 -275 5750 -487 
Q 5525 -700 5250 -537 
Q 4975 -375 4737 62 
Q 4500 500 4337 1075 
Q 4175 1650 4100 2262 
Q 4025 2875 3975 3425 
L 2800 3425 
Q 2300 3425 1875 3400 
L 1875 3850 
Q 2275 3825 2775 3825 
L 3950 3825 
z
M 1500 3175 
Q 1475 2675 1475 2175 
L 1475 625 
Q 1825 950 2125 1225 
Q 2225 1000 2375 800 
Q 1900 425 1125 -350 
Q 1000 -125 825 50 
Q 1025 175 1025 525 
L 1025 2725 
Q 625 2725 300 2700 
L 300 3200 
Q 625 3175 825 3175 
L 1500 3175 
z
M 3775 2175 
Q 3500 2200 3250 2200 
L 3250 575 
Q 3575 675 3900 800 
Q 3900 525 3950 325 
Q 3575 250 3150 125 
Q 2725 0 2275 -175 
Q 2200 100 2025 300 
Q 2425 350 2800 475 
L 2800 2200 
Q 2525 2200 2225 2175 
L 2225 2650 
Q 2600 2625 3000 2625 
Q 3425 2625 3775 2650 
L 3775 2175 
z
M 925 4975 
Q 1275 4650 1700 4100 
Q 1525 3925 1325 3775 
Q 1175 4050 575 4650 
Q 775 4825 925 4975 
z
M 5150 5150 
Q 5325 5000 5850 4375 
Q 5575 4200 5425 4050 
Q 5125 4525 4775 4875 
Q 4925 4975 5150 5150 
z
" transform="scale(0.015625)"/>
      <path id="SimHei-39" d="M 800 75 
Q 1350 1000 1700 1750 
Q 1075 1650 662 1912 
Q 250 2175 162 2625 
Q 75 3075 175 3437 
Q 275 3800 487 4037 
Q 700 4275 1000 4375 
Q 1300 4475 1537 4475 
Q 1775 4475 2025 4375 
Q 2275 4275 2475 4075 
Q 2675 3875 2750 3662 
Q 2825 3450 2825 3112 
Q 2825 2775 2575 2250 
Q 2325 1725 1350 75 
L 800 75 
z
M 662 2875 
Q 700 2550 937 2337 
Q 1175 2125 1450 2150 
Q 1725 2175 1887 2300 
Q 2050 2425 2200 2725 
Q 2300 3100 2250 3362 
Q 2200 3625 1987 3800 
Q 1775 3975 1525 3975 
Q 1375 4000 1137 3900 
Q 900 3800 762 3500 
Q 625 3200 662 2875 
z
" transform="scale(0.015625)"/>
     </defs>
     <use xlink:href="#SimHei-6d4b"/>
     <use xlink:href="#SimHei-8bd5" x="100"/>
     <use xlink:href="#SimHei-96c6" x="200"/>
     <use xlink:href="#SimHei-79" x="300"/>
     <use xlink:href="#SimHei-3d" x="350"/>
     <use xlink:href="#SimHei-30" x="400"/>
     <use xlink:href="#SimHei-2e" x="450"/>
     <use xlink:href="#SimHei-31" x="500"/>
     <use xlink:href="#SimHei-39" x="550"/>
     <use xlink:href="#SimHei-36" x="600"/>
     <use xlink:href="#SimHei-39" x="650"/>
    </g>
   </g>
   <g id="legend_1">
    <g id="patch_7">
     <path d="M 252.399272 63.752625 
L 360.639272 63.752625 
Q 363.279272 63.752625 363.279272 61.112625 
L 363.279272 24.792 
Q 363.279272 22.152 360.639272 22.152 
L 252.399272 22.152 
Q 249.759272 22.152 249.759272 24.792 
L 249.759272 61.112625 
Q 249.759272 63.752625 252.399272 63.752625 
z
" style="fill: #ffffff; opacity: 0.8; stroke: #cccccc; stroke-linejoin: miter"/>
    </g>
    <g id="line2d_22">
     <path d="M 255.039272 33.33075 
L 268.239272 33.33075 
L 281.439272 33.33075 
" style="fill: none; stroke: #4c72b0; stroke-width: 1.5; stroke-linecap: round"/>
    </g>
    <g id="text_18">
     <!-- 训练集损失 -->
     <g style="fill: #262626" transform="translate(291.999272 37.95075) scale(0.132 -0.132)">
      <defs>
       <path id="SimHei-635f" d="M 1175 4600 
Q 1175 4950 1150 5250 
L 1675 5250 
Q 1650 4975 1650 4600 
L 1650 4075 
Q 1950 4075 2325 4100 
L 2325 3625 
Q 1950 3650 1650 3650 
L 1650 2500 
Q 1875 2550 2275 2750 
Q 2275 2550 2300 2300 
Q 2025 2200 1650 2025 
L 1650 175 
Q 1650 -225 1425 -325 
Q 1200 -425 625 -500 
Q 600 -250 450 50 
Q 800 25 987 37 
Q 1175 50 1175 350 
L 1175 1850 
Q 675 1675 400 1500 
Q 375 1800 250 2100 
Q 600 2150 1175 2350 
L 1175 3650 
Q 650 3650 325 3625 
L 325 4100 
Q 625 4075 1175 4075 
L 1175 4600 
z
M 5550 5025 
Q 5525 4650 5525 4275 
Q 5525 3925 5550 3525 
L 2900 3525 
Q 2925 3925 2925 4275 
Q 2925 4650 2900 5025 
L 5550 5025 
z
M 5775 3075 
Q 5750 2725 5750 2350 
L 5750 1725 
Q 5750 1350 5775 875 
L 5275 875 
L 5275 2650 
L 3150 2650 
L 3150 850 
L 2650 850 
Q 2675 1275 2675 1700 
L 2675 2325 
Q 2675 2600 2650 3075 
L 5775 3075 
z
M 4525 2200 
Q 4425 1825 4362 1337 
Q 4300 850 4125 537 
Q 3950 225 3600 -62 
Q 3250 -350 2425 -650 
Q 2325 -450 2050 -175 
Q 2750 -50 3137 200 
Q 3525 450 3700 762 
Q 3875 1075 3900 1462 
Q 3925 1850 3925 2275 
Q 4225 2225 4525 2200 
z
M 5100 3925 
L 5100 4650 
L 3375 4650 
L 3375 3925 
L 5100 3925 
z
M 4675 750 
Q 4975 575 5412 337 
Q 5850 100 6175 -125 
Q 5975 -325 5850 -550 
Q 5525 -300 5200 -87 
Q 4875 125 4375 350 
Q 4550 550 4675 750 
z
" transform="scale(0.015625)"/>
       <path id="SimHei-5931" d="M 2050 4450 
Q 1925 4325 1675 3750 
L 2950 3750 
Q 2950 4650 2925 5100 
Q 3175 5075 3500 5050 
Q 3450 4700 3437 4425 
Q 3425 4150 3425 3750 
L 4600 3750 
Q 5000 3750 5425 3775 
L 5425 3300 
Q 5025 3325 4600 3325 
L 3425 3325 
Q 3425 2775 3375 2200 
L 5050 2200 
Q 5425 2200 5875 2225 
L 5875 1750 
Q 5425 1775 5050 1775 
L 3575 1775 
Q 3875 1100 4600 675 
Q 5325 250 6025 100 
Q 5825 -150 5675 -475 
Q 4950 -200 4250 287 
Q 3550 775 3200 1475 
Q 2900 825 2325 300 
Q 1750 -225 775 -650 
Q 650 -400 400 -175 
Q 1250 50 1912 587 
Q 2575 1125 2775 1775 
L 1325 1775 
Q 925 1775 450 1750 
L 450 2225 
Q 925 2200 1325 2200 
L 2875 2200 
Q 2950 2725 2950 3325 
L 1500 3325 
Q 1200 2800 975 2450 
Q 775 2575 500 2675 
Q 950 3225 1187 3750 
Q 1425 4275 1500 4675 
Q 1800 4525 2050 4450 
z
" transform="scale(0.015625)"/>
      </defs>
      <use xlink:href="#SimHei-8bad"/>
      <use xlink:href="#SimHei-7ec3" x="100"/>
      <use xlink:href="#SimHei-96c6" x="200"/>
      <use xlink:href="#SimHei-635f" x="300"/>
      <use xlink:href="#SimHei-5931" x="400"/>
     </g>
    </g>
    <g id="line2d_23">
     <path d="M 255.039272 52.202625 
L 268.239272 52.202625 
L 281.439272 52.202625 
" style="fill: none; stroke-dasharray: 6,2.25; stroke-dashoffset: 0; stroke: #dd8452; stroke-width: 1.5"/>
    </g>
    <g id="text_19">
     <!-- 测试集损失 -->
     <g style="fill: #262626" transform="translate(291.999272 56.822625) scale(0.132 -0.132)">
      <use xlink:href="#SimHei-6d4b"/>
      <use xlink:href="#SimHei-8bd5" x="100"/>
      <use xlink:href="#SimHei-96c6" x="200"/>
      <use xlink:href="#SimHei-635f" x="300"/>
      <use xlink:href="#SimHei-5931" x="400"/>
     </g>
    </g>
   </g>
  </g>
 </g>
 <defs>
  <clipPath id="p30e311e261">
   <rect x="53.082" y="15.552" width="316.797272" height="279.396"/>
  </clipPath>
 </defs>
</svg>
