<?xml version="1.0" encoding="utf-8" standalone="no"?>
<!DOCTYPE svg PUBLIC "-//W3C//DTD SVG 1.1//EN"
  "http://www.w3.org/Graphics/SVG/1.1/DTD/svg11.dtd">
<svg xmlns:xlink="http://www.w3.org/1999/xlink" width="1008pt" height="576pt" viewBox="0 0 1008 576" xmlns="http://www.w3.org/2000/svg" version="1.1">
 <metadata>
  <rdf:RDF xmlns:dc="http://purl.org/dc/elements/1.1/" xmlns:cc="http://creativecommons.org/ns#" xmlns:rdf="http://www.w3.org/1999/02/22-rdf-syntax-ns#">
   <cc:Work>
    <dc:type rdf:resource="http://purl.org/dc/dcmitype/StillImage"/>
    <dc:date>2023-04-17T06:37:12.573272</dc:date>
    <dc:format>image/svg+xml</dc:format>
    <dc:creator>
     <cc:Agent>
      <dc:title>Matplotlib v3.7.1, https://matplotlib.org/</dc:title>
     </cc:Agent>
    </dc:creator>
   </cc:Work>
  </rdf:RDF>
 </metadata>
 <defs>
  <style type="text/css">*{stroke-linejoin: round; stroke-linecap: butt}</style>
 </defs>
 <g id="figure_1">
  <g id="patch_1">
   <path d="M 0 576 
L 1008 576 
L 1008 0 
L 0 0 
z
" style="fill: #ffffff"/>
  </g>
  <g id="axes_1">
   <g id="patch_2">
    <path d="M 51.602 540.148 
L 992.448 540.148 
L 992.448 15.552 
L 51.602 15.552 
z
" style="fill: #ffffff"/>
   </g>
   <g id="matplotlib.axis_1">
    <g id="xtick_1">
     <g id="line2d_1">
      <path d="M 94.367727 540.148 
L 94.367727 15.552 
" clip-path="url(#p47a72e4cad)" style="fill: none; stroke: #cccccc; stroke-linecap: round"/>
     </g>
     <g id="text_1">
      <!-- 0 -->
      <g style="fill: #262626" transform="translate(91.067727 558.723) scale(0.132 -0.132)">
       <defs>
        <path id="SimHei-30" d="M 225 2537 
Q 250 3200 412 3587 
Q 575 3975 875 4225 
Q 1175 4475 1612 4475 
Q 2050 4475 2375 4112 
Q 2700 3750 2800 3200 
Q 2900 2650 2862 1937 
Q 2825 1225 2612 775 
Q 2400 325 1975 150 
Q 1550 -25 1125 187 
Q 700 400 525 750 
Q 350 1100 275 1487 
Q 200 1875 225 2537 
z
M 750 2687 
Q 675 2000 800 1462 
Q 925 925 1212 700 
Q 1500 475 1800 612 
Q 2100 750 2237 1162 
Q 2375 1575 2375 2062 
Q 2375 2550 2337 2950 
Q 2300 3350 2112 3675 
Q 1925 4000 1612 4012 
Q 1300 4025 1062 3700 
Q 825 3375 750 2687 
z
" transform="scale(0.015625)"/>
       </defs>
       <use xlink:href="#SimHei-30"/>
      </g>
     </g>
    </g>
    <g id="xtick_2">
     <g id="line2d_2">
      <path d="M 267.158545 540.148 
L 267.158545 15.552 
" clip-path="url(#p47a72e4cad)" style="fill: none; stroke: #cccccc; stroke-linecap: round"/>
     </g>
     <g id="text_2">
      <!-- 20 -->
      <g style="fill: #262626" transform="translate(260.558545 558.723) scale(0.132 -0.132)">
       <defs>
        <path id="SimHei-32" d="M 300 250 
Q 325 625 650 925 
Q 975 1225 1475 1862 
Q 1975 2500 2125 2850 
Q 2275 3200 2237 3450 
Q 2200 3700 2000 3862 
Q 1800 4025 1537 4000 
Q 1275 3975 1037 3800 
Q 800 3625 675 3275 
L 200 3350 
Q 400 3925 712 4187 
Q 1025 4450 1450 4475 
Q 1700 4500 1900 4462 
Q 2100 4425 2312 4287 
Q 2525 4150 2662 3875 
Q 2800 3600 2762 3212 
Q 2725 2825 2375 2287 
Q 2025 1750 1025 600 
L 2825 600 
L 2825 150 
L 300 150 
L 300 250 
z
" transform="scale(0.015625)"/>
       </defs>
       <use xlink:href="#SimHei-32"/>
       <use xlink:href="#SimHei-30" x="50"/>
      </g>
     </g>
    </g>
    <g id="xtick_3">
     <g id="line2d_3">
      <path d="M 439.949362 540.148 
L 439.949362 15.552 
" clip-path="url(#p47a72e4cad)" style="fill: none; stroke: #cccccc; stroke-linecap: round"/>
     </g>
     <g id="text_3">
      <!-- 40 -->
      <g style="fill: #262626" transform="translate(433.349362 558.723) scale(0.132 -0.132)">
       <defs>
        <path id="SimHei-34" d="M 2000 1100 
L 75 1100 
L 75 1525 
L 2100 4450 
L 2475 4450 
L 2475 1525 
L 3075 1525 
L 3075 1100 
L 2475 1100 
L 2475 150 
L 2000 150 
L 2000 1100 
z
M 2000 1525 
L 2000 3500 
L 600 1525 
L 2000 1525 
z
" transform="scale(0.015625)"/>
       </defs>
       <use xlink:href="#SimHei-34"/>
       <use xlink:href="#SimHei-30" x="50"/>
      </g>
     </g>
    </g>
    <g id="xtick_4">
     <g id="line2d_4">
      <path d="M 612.740179 540.148 
L 612.740179 15.552 
" clip-path="url(#p47a72e4cad)" style="fill: none; stroke: #cccccc; stroke-linecap: round"/>
     </g>
     <g id="text_4">
      <!-- 60 -->
      <g style="fill: #262626" transform="translate(606.140179 558.723) scale(0.132 -0.132)">
       <defs>
        <path id="SimHei-36" d="M 250 1612 
Q 275 1975 387 2225 
Q 500 2475 725 2850 
L 1750 4450 
L 2325 4450 
L 1275 2800 
Q 1950 2975 2350 2750 
Q 2750 2525 2887 2237 
Q 3025 1950 3037 1612 
Q 3050 1275 2937 950 
Q 2825 625 2537 362 
Q 2250 100 1737 75 
Q 1225 50 862 262 
Q 500 475 362 862 
Q 225 1250 250 1612 
z
M 1025 787 
Q 1250 550 1625 525 
Q 2000 500 2250 775 
Q 2500 1050 2500 1575 
Q 2500 2100 2187 2300 
Q 1875 2500 1487 2450 
Q 1100 2400 925 2075 
Q 750 1750 775 1387 
Q 800 1025 1025 787 
z
" transform="scale(0.015625)"/>
       </defs>
       <use xlink:href="#SimHei-36"/>
       <use xlink:href="#SimHei-30" x="50"/>
      </g>
     </g>
    </g>
    <g id="xtick_5">
     <g id="line2d_5">
      <path d="M 785.530996 540.148 
L 785.530996 15.552 
" clip-path="url(#p47a72e4cad)" style="fill: none; stroke: #cccccc; stroke-linecap: round"/>
     </g>
     <g id="text_5">
      <!-- 80 -->
      <g style="fill: #262626" transform="translate(778.930996 558.723) scale(0.132 -0.132)">
       <defs>
        <path id="SimHei-38" d="M 175 1375 
Q 175 1675 325 1962 
Q 475 2250 825 2425 
Q 525 2600 425 2812 
Q 325 3025 312 3300 
Q 300 3575 387 3775 
Q 475 3975 650 4150 
Q 825 4325 1037 4387 
Q 1250 4450 1500 4450 
Q 1750 4450 1950 4400 
Q 2150 4350 2375 4187 
Q 2600 4025 2700 3725 
Q 2800 3425 2687 3025 
Q 2575 2625 2100 2400 
Q 2525 2275 2700 2012 
Q 2875 1750 2875 1375 
Q 2875 1000 2762 775 
Q 2650 550 2512 400 
Q 2375 250 2137 162 
Q 1900 75 1537 75 
Q 1175 75 912 162 
Q 650 250 475 425 
Q 300 600 237 837 
Q 175 1075 175 1375 
z
M 687 1400 
Q 675 1100 787 875 
Q 900 650 1200 587 
Q 1500 525 1825 600 
Q 2150 675 2275 950 
Q 2400 1225 2362 1500 
Q 2325 1775 2050 1962 
Q 1775 2150 1450 2125 
Q 1125 2100 912 1900 
Q 700 1700 687 1400 
z
M 775 3350 
Q 775 3100 950 2875 
Q 1125 2650 1500 2650 
Q 1875 2650 2062 2875 
Q 2250 3100 2237 3412 
Q 2225 3725 2012 3875 
Q 1800 4025 1437 4000 
Q 1075 3975 925 3787 
Q 775 3600 775 3350 
z
" transform="scale(0.015625)"/>
       </defs>
       <use xlink:href="#SimHei-38"/>
       <use xlink:href="#SimHei-30" x="50"/>
      </g>
     </g>
    </g>
    <g id="xtick_6">
     <g id="line2d_6">
      <path d="M 958.321814 540.148 
L 958.321814 15.552 
" clip-path="url(#p47a72e4cad)" style="fill: none; stroke: #cccccc; stroke-linecap: round"/>
     </g>
     <g id="text_6">
      <!-- 100 -->
      <g style="fill: #262626" transform="translate(948.421814 558.723) scale(0.132 -0.132)">
       <defs>
        <path id="SimHei-31" d="M 1400 3600 
Q 1075 3275 575 2975 
L 575 3450 
Q 1200 3875 1600 4450 
L 1900 4450 
L 1900 150 
L 1400 150 
L 1400 3600 
z
" transform="scale(0.015625)"/>
       </defs>
       <use xlink:href="#SimHei-31"/>
       <use xlink:href="#SimHei-30" x="50"/>
       <use xlink:href="#SimHei-30" x="100"/>
      </g>
     </g>
    </g>
   </g>
   <g id="matplotlib.axis_2">
    <g id="ytick_1">
     <g id="line2d_7">
      <path d="M 51.602 474.73183 
L 992.448 474.73183 
" clip-path="url(#p47a72e4cad)" style="fill: none; stroke: #cccccc; stroke-linecap: round"/>
     </g>
     <g id="text_7">
      <!-- 8000 -->
      <g style="fill: #262626" transform="translate(15.702 479.26933) scale(0.132 -0.132)">
       <use xlink:href="#SimHei-38"/>
       <use xlink:href="#SimHei-30" x="50"/>
       <use xlink:href="#SimHei-30" x="100"/>
       <use xlink:href="#SimHei-30" x="150"/>
      </g>
     </g>
    </g>
    <g id="ytick_2">
     <g id="line2d_8">
      <path d="M 51.602 373.575995 
L 992.448 373.575995 
" clip-path="url(#p47a72e4cad)" style="fill: none; stroke: #cccccc; stroke-linecap: round"/>
     </g>
     <g id="text_8">
      <!-- 8200 -->
      <g style="fill: #262626" transform="translate(15.702 378.113495) scale(0.132 -0.132)">
       <use xlink:href="#SimHei-38"/>
       <use xlink:href="#SimHei-32" x="50"/>
       <use xlink:href="#SimHei-30" x="100"/>
       <use xlink:href="#SimHei-30" x="150"/>
      </g>
     </g>
    </g>
    <g id="ytick_3">
     <g id="line2d_9">
      <path d="M 51.602 272.420161 
L 992.448 272.420161 
" clip-path="url(#p47a72e4cad)" style="fill: none; stroke: #cccccc; stroke-linecap: round"/>
     </g>
     <g id="text_9">
      <!-- 8400 -->
      <g style="fill: #262626" transform="translate(15.702 276.957661) scale(0.132 -0.132)">
       <use xlink:href="#SimHei-38"/>
       <use xlink:href="#SimHei-34" x="50"/>
       <use xlink:href="#SimHei-30" x="100"/>
       <use xlink:href="#SimHei-30" x="150"/>
      </g>
     </g>
    </g>
    <g id="ytick_4">
     <g id="line2d_10">
      <path d="M 51.602 171.264326 
L 992.448 171.264326 
" clip-path="url(#p47a72e4cad)" style="fill: none; stroke: #cccccc; stroke-linecap: round"/>
     </g>
     <g id="text_10">
      <!-- 8600 -->
      <g style="fill: #262626" transform="translate(15.702 175.801826) scale(0.132 -0.132)">
       <use xlink:href="#SimHei-38"/>
       <use xlink:href="#SimHei-36" x="50"/>
       <use xlink:href="#SimHei-30" x="100"/>
       <use xlink:href="#SimHei-30" x="150"/>
      </g>
     </g>
    </g>
    <g id="ytick_5">
     <g id="line2d_11">
      <path d="M 51.602 70.108492 
L 992.448 70.108492 
" clip-path="url(#p47a72e4cad)" style="fill: none; stroke: #cccccc; stroke-linecap: round"/>
     </g>
     <g id="text_11">
      <!-- 8800 -->
      <g style="fill: #262626" transform="translate(15.702 74.645992) scale(0.132 -0.132)">
       <use xlink:href="#SimHei-38"/>
       <use xlink:href="#SimHei-38" x="50"/>
       <use xlink:href="#SimHei-30" x="100"/>
       <use xlink:href="#SimHei-30" x="150"/>
      </g>
     </g>
    </g>
   </g>
   <g id="PolyCollection_1">
    <defs>
     <path id="me740461266" d="M 94.367727 -97.33169 
L 94.367727 -59.697273 
L 103.007268 -65.929767 
L 111.646809 -73.120485 
L 120.28635 -76.462997 
L 128.925891 -86.002811 
L 137.565432 -85.776441 
L 146.204972 -100.23267 
L 154.844513 -102.809356 
L 163.484054 -106.336641 
L 172.123595 -109.877304 
L 180.763136 -116.531302 
L 189.402677 -120.211284 
L 198.042218 -126.72257 
L 206.681758 -126.442588 
L 215.321299 -140.452448 
L 223.96084 -139.028832 
L 232.600381 -139.315869 
L 241.239922 -143.954265 
L 249.879463 -148.228656 
L 258.519004 -152.536626 
L 267.158545 -163.418782 
L 275.798085 -162.915387 
L 284.437626 -162.626489 
L 293.077167 -177.834651 
L 301.716708 -172.885163 
L 310.356249 -175.408508 
L 318.99579 -179.253641 
L 327.635331 -181.926481 
L 336.274871 -187.106286 
L 344.914412 -189.472946 
L 353.553953 -190.013381 
L 362.193494 -194.787916 
L 370.833035 -201.849761 
L 379.472576 -200.241577 
L 388.112117 -214.238945 
L 396.751657 -213.684319 
L 405.391198 -219.178883 
L 414.030739 -216.537609 
L 422.67028 -223.5235 
L 431.309821 -228.47769 
L 439.949362 -234.097289 
L 448.588903 -231.669004 
L 457.228444 -232.973293 
L 465.867984 -245.582077 
L 474.507525 -238.051555 
L 483.147066 -247.102764 
L 491.786607 -250.674569 
L 500.426148 -252.010186 
L 509.065689 -256.566436 
L 517.70523 -262.452652 
L 526.34477 -265.273519 
L 534.984311 -279.077091 
L 543.623852 -269.93904 
L 552.263393 -277.482817 
L 560.902934 -277.363241 
L 569.542475 -283.767543 
L 578.182016 -285.83679 
L 586.821556 -290.767518 
L 595.461097 -298.70715 
L 604.100638 -300.741964 
L 612.740179 -304.126195 
L 621.37972 -315.126688 
L 630.019261 -315.910352 
L 638.658802 -316.548923 
L 647.298343 -319.9094 
L 655.937883 -322.276952 
L 664.577424 -336.554654 
L 673.216965 -333.383317 
L 681.856506 -336.706609 
L 690.496047 -340.707674 
L 699.135588 -344.326996 
L 707.775129 -347.014756 
L 716.414669 -349.995526 
L 725.05421 -356.987046 
L 733.693751 -365.968181 
L 742.333292 -368.762481 
L 750.972833 -366.830669 
L 759.612374 -374.382073 
L 768.251915 -378.245171 
L 776.891455 -378.22594 
L 785.530996 -382.861484 
L 794.170537 -389.452092 
L 802.810078 -394.072961 
L 811.449619 -400.559919 
L 820.08916 -408.123096 
L 828.728701 -407.135014 
L 837.368242 -412.341937 
L 846.007782 -418.300108 
L 854.647323 -418.293329 
L 863.286864 -425.585278 
L 871.926405 -421.891324 
L 880.565946 -438.582888 
L 889.205487 -439.594979 
L 897.845028 -434.893273 
L 906.484568 -435.385098 
L 915.124109 -446.635834 
L 923.76365 -446.67862 
L 932.403191 -456.642669 
L 941.042732 -455.163727 
L 949.682273 -461.846204 
L 949.682273 -520.344947 
L 949.682273 -520.344947 
L 941.042732 -521.667715 
L 932.403191 -534.948244 
L 923.76365 -536.602727 
L 915.124109 -494.095819 
L 906.484568 -497.873266 
L 897.845028 -510.793306 
L 889.205487 -524.81467 
L 880.565946 -509.828215 
L 871.926405 -460.701473 
L 863.286864 -521.568168 
L 854.647323 -493.606472 
L 846.007782 -468.631586 
L 837.368242 -518.589504 
L 828.728701 -496.63071 
L 820.08916 -450.299223 
L 811.449619 -435.734511 
L 802.810078 -424.296741 
L 794.170537 -432.133374 
L 785.530996 -414.999169 
L 776.891455 -391.579918 
L 768.251915 -425.522855 
L 759.612374 -426.709333 
L 750.972833 -380.109242 
L 742.333292 -437.126322 
L 733.693751 -454.130359 
L 725.05421 -419.028095 
L 716.414669 -385.902411 
L 707.775129 -373.999271 
L 699.135588 -423.381298 
L 690.496047 -350.715481 
L 681.856506 -476.930548 
L 673.216965 -370.186798 
L 664.577424 -392.011716 
L 655.937883 -399.015867 
L 647.298343 -337.921206 
L 638.658802 -369.431273 
L 630.019261 -410.034468 
L 621.37972 -440.082568 
L 612.740179 -413.002428 
L 604.100638 -361.139761 
L 595.461097 -367.52682 
L 586.821556 -345.358277 
L 578.182016 -382.422267 
L 569.542475 -333.728172 
L 560.902934 -329.045003 
L 552.263393 -380.168226 
L 543.623852 -359.430563 
L 534.984311 -324.004611 
L 526.34477 -295.077954 
L 517.70523 -282.396129 
L 509.065689 -279.998599 
L 500.426148 -268.807507 
L 491.786607 -350.679211 
L 483.147066 -266.355337 
L 474.507525 -245.38177 
L 465.867984 -327.228866 
L 457.228444 -290.031813 
L 448.588903 -292.044232 
L 439.949362 -334.104027 
L 431.309821 -315.241509 
L 422.67028 -271.391902 
L 414.030739 -338.336651 
L 405.391198 -351.039798 
L 396.751657 -265.314267 
L 388.112117 -254.795389 
L 379.472576 -239.799517 
L 370.833035 -289.503293 
L 362.193494 -255.813236 
L 353.553953 -256.351037 
L 344.914412 -265.834728 
L 336.274871 -268.775066 
L 327.635331 -230.182965 
L 318.99579 -292.092784 
L 310.356249 -238.046009 
L 301.716708 -223.825357 
L 293.077167 -252.29653 
L 284.437626 -225.273315 
L 275.798085 -192.851345 
L 267.158545 -260.303482 
L 258.519004 -258.52719 
L 249.879463 -241.930605 
L 241.239922 -229.005145 
L 232.600381 -183.306938 
L 223.96084 -212.05562 
L 215.321299 -185.504333 
L 206.681758 -162.256957 
L 198.042218 -209.838411 
L 189.402677 -218.428334 
L 180.763136 -195.252389 
L 172.123595 -138.786699 
L 163.484054 -187.000668 
L 154.844513 -153.661208 
L 146.204972 -178.232686 
L 137.565432 -144.473924 
L 128.925891 -158.239514 
L 120.28635 -120.281257 
L 111.646809 -176.15244 
L 103.007268 -183.075977 
L 94.367727 -97.33169 
z
" style="stroke: #4c72b0; stroke-opacity: 0.2"/>
    </defs>
    <g clip-path="url(#p47a72e4cad)">
     <use xlink:href="#me740461266" x="0" y="576" style="fill: #4c72b0; fill-opacity: 0.2; stroke: #4c72b0; stroke-opacity: 0.2"/>
    </g>
   </g>
   <g id="line2d_12">
    <path d="M 94.367727 501.656903 
L 103.007268 453.605032 
L 111.646809 465.325697 
L 120.28635 484.155493 
L 128.925891 459.246616 
L 137.565432 465.558753 
L 146.204972 440.30221 
L 154.844513 448.496805 
L 163.484054 429.331346 
L 172.123595 454.07366 
L 180.763136 428.635233 
L 189.402677 421.569649 
L 198.042218 412.343455 
L 206.681758 432.14152 
L 215.321299 413.02161 
L 223.96084 405.053392 
L 232.600381 417.370384 
L 241.239922 401.718202 
L 249.879463 383.639945 
L 258.519004 373.763413 
L 267.158545 372.516369 
L 275.798085 398.102622 
L 284.437626 382.187298 
L 293.077167 363.711176 
L 301.716708 380.905949 
L 310.356249 372.691826 
L 318.99579 344.399852 
L 327.635331 373.951613 
L 336.274871 357.267958 
L 344.914412 355.187194 
L 353.553953 354.494869 
L 362.193494 351.789288 
L 370.833035 338.901779 
L 379.472576 356.89071 
L 388.112117 342.00447 
L 396.751657 338.506509 
L 405.391198 292.441588 
L 414.030739 316.563475 
L 422.67028 331.343472 
L 431.309821 309.15724 
L 439.949362 297.816592 
L 448.588903 317.350809 
L 457.228444 318.092859 
L 465.867984 295.702235 
L 474.507525 334.682464 
L 483.147066 319.934171 
L 491.786607 284.215376 
L 500.426148 317.068128 
L 509.065689 310.452099 
L 517.70523 304.466557 
L 526.34477 295.824263 
L 534.984311 274.266759 
L 543.623852 274.547876 
L 552.263393 247.174478 
L 560.902934 276.191555 
L 569.542475 267.13488 
L 578.182016 254.881886 
L 586.821556 257.937102 
L 595.461097 247.655494 
L 604.100638 249.788883 
L 612.740179 221.089077 
L 621.37972 212.856726 
L 630.019261 213.02759 
L 638.658802 237.611743 
L 647.298343 247.696658 
L 655.937883 227.41178 
L 664.577424 211.483193 
L 673.216965 227.672344 
L 681.856506 188.163818 
L 690.496047 230.288422 
L 699.135588 204.175393 
L 707.775129 216.244565 
L 716.414669 208.842221 
L 725.05421 193.82561 
L 733.693751 173.366085 
L 742.333292 174.974266 
L 750.972833 202.939195 
L 759.612374 176.66661 
L 768.251915 179.443239 
L 776.891455 193.048925 
L 785.530996 179.477347 
L 794.170537 169.476128 
L 802.810078 166.815149 
L 811.449619 159.602946 
L 820.08916 146.788841 
L 828.728701 128.959618 
L 837.368242 114.232832 
L 846.007782 135.19872 
L 854.647323 131.457488 
L 863.286864 106.537968 
L 871.926405 136.960064 
L 880.565946 102.46413 
L 889.205487 98.640977 
L 897.845028 103.468379 
L 906.484568 110.490197 
L 915.124109 105.636087 
L 923.76365 85.240643 
L 932.403191 85.015421 
L 941.042732 89.051075 
L 949.682273 84.819427 
" clip-path="url(#p47a72e4cad)" style="fill: none; stroke: #4c72b0; stroke-width: 1.5; stroke-linecap: round"/>
   </g>
   <g id="patch_3">
    <path d="M 51.602 540.148 
L 51.602 15.552 
" style="fill: none; stroke: #cccccc; stroke-width: 1.25; stroke-linejoin: miter; stroke-linecap: square"/>
   </g>
   <g id="patch_4">
    <path d="M 992.448 540.148 
L 992.448 15.552 
" style="fill: none; stroke: #cccccc; stroke-width: 1.25; stroke-linejoin: miter; stroke-linecap: square"/>
   </g>
   <g id="patch_5">
    <path d="M 51.602 540.148 
L 992.448 540.148 
" style="fill: none; stroke: #cccccc; stroke-width: 1.25; stroke-linejoin: miter; stroke-linecap: square"/>
   </g>
   <g id="patch_6">
    <path d="M 51.602 15.552 
L 992.448 15.552 
" style="fill: none; stroke: #cccccc; stroke-width: 1.25; stroke-linejoin: miter; stroke-linecap: square"/>
   </g>
  </g>
 </g>
 <defs>
  <clipPath id="p47a72e4cad">
   <rect x="51.602" y="15.552" width="940.846" height="524.596"/>
  </clipPath>
 </defs>
</svg>
