<?xml version="1.0" encoding="utf-8" standalone="no"?>
<!DOCTYPE svg PUBLIC "-//W3C//DTD SVG 1.1//EN"
  "http://www.w3.org/Graphics/SVG/1.1/DTD/svg11.dtd">
<svg xmlns:xlink="http://www.w3.org/1999/xlink" width="1008pt" height="576pt" viewBox="0 0 1008 576" xmlns="http://www.w3.org/2000/svg" version="1.1">
 <metadata>
  <rdf:RDF xmlns:dc="http://purl.org/dc/elements/1.1/" xmlns:cc="http://creativecommons.org/ns#" xmlns:rdf="http://www.w3.org/1999/02/22-rdf-syntax-ns#">
   <cc:Work>
    <dc:type rdf:resource="http://purl.org/dc/dcmitype/StillImage"/>
    <dc:date>2023-04-17T06:10:42.669819</dc:date>
    <dc:format>image/svg+xml</dc:format>
    <dc:creator>
     <cc:Agent>
      <dc:title>Matplotlib v3.7.1, https://matplotlib.org/</dc:title>
     </cc:Agent>
    </dc:creator>
   </cc:Work>
  </rdf:RDF>
 </metadata>
 <defs>
  <style type="text/css">*{stroke-linejoin: round; stroke-linecap: butt}</style>
 </defs>
 <g id="figure_1">
  <g id="patch_1">
   <path d="M 0 576 
L 1008 576 
L 1008 0 
L 0 0 
z
" style="fill: #ffffff"/>
  </g>
  <g id="axes_1">
   <g id="patch_2">
    <path d="M 68.562 522.81675 
L 992.448 522.81675 
L 992.448 15.552 
L 68.562 15.552 
z
" style="fill: #ffffff"/>
   </g>
   <g id="matplotlib.axis_1">
    <g id="xtick_1">
     <g id="line2d_1">
      <path d="M 110.556818 522.81675 
L 110.556818 15.552 
" clip-path="url(#pb75286f179)" style="fill: none; stroke: #cccccc; stroke-linecap: round"/>
     </g>
     <g id="text_1">
      <!-- 0 -->
      <g style="fill: #262626" transform="translate(107.256818 541.39175) scale(0.132 -0.132)">
       <defs>
        <path id="SimHei-30" d="M 225 2537 
Q 250 3200 412 3587 
Q 575 3975 875 4225 
Q 1175 4475 1612 4475 
Q 2050 4475 2375 4112 
Q 2700 3750 2800 3200 
Q 2900 2650 2862 1937 
Q 2825 1225 2612 775 
Q 2400 325 1975 150 
Q 1550 -25 1125 187 
Q 700 400 525 750 
Q 350 1100 275 1487 
Q 200 1875 225 2537 
z
M 750 2687 
Q 675 2000 800 1462 
Q 925 925 1212 700 
Q 1500 475 1800 612 
Q 2100 750 2237 1162 
Q 2375 1575 2375 2062 
Q 2375 2550 2337 2950 
Q 2300 3350 2112 3675 
Q 1925 4000 1612 4012 
Q 1300 4025 1062 3700 
Q 825 3375 750 2687 
z
" transform="scale(0.015625)"/>
       </defs>
       <use xlink:href="#SimHei-30"/>
      </g>
     </g>
    </g>
    <g id="xtick_2">
     <g id="line2d_2">
      <path d="M 232.280929 522.81675 
L 232.280929 15.552 
" clip-path="url(#pb75286f179)" style="fill: none; stroke: #cccccc; stroke-linecap: round"/>
     </g>
     <g id="text_2">
      <!-- 10 -->
      <g style="fill: #262626" transform="translate(225.680929 541.39175) scale(0.132 -0.132)">
       <defs>
        <path id="SimHei-31" d="M 1400 3600 
Q 1075 3275 575 2975 
L 575 3450 
Q 1200 3875 1600 4450 
L 1900 4450 
L 1900 150 
L 1400 150 
L 1400 3600 
z
" transform="scale(0.015625)"/>
       </defs>
       <use xlink:href="#SimHei-31"/>
       <use xlink:href="#SimHei-30" x="50"/>
      </g>
     </g>
    </g>
    <g id="xtick_3">
     <g id="line2d_3">
      <path d="M 354.00504 522.81675 
L 354.00504 15.552 
" clip-path="url(#pb75286f179)" style="fill: none; stroke: #cccccc; stroke-linecap: round"/>
     </g>
     <g id="text_3">
      <!-- 20 -->
      <g style="fill: #262626" transform="translate(347.40504 541.39175) scale(0.132 -0.132)">
       <defs>
        <path id="SimHei-32" d="M 300 250 
Q 325 625 650 925 
Q 975 1225 1475 1862 
Q 1975 2500 2125 2850 
Q 2275 3200 2237 3450 
Q 2200 3700 2000 3862 
Q 1800 4025 1537 4000 
Q 1275 3975 1037 3800 
Q 800 3625 675 3275 
L 200 3350 
Q 400 3925 712 4187 
Q 1025 4450 1450 4475 
Q 1700 4500 1900 4462 
Q 2100 4425 2312 4287 
Q 2525 4150 2662 3875 
Q 2800 3600 2762 3212 
Q 2725 2825 2375 2287 
Q 2025 1750 1025 600 
L 2825 600 
L 2825 150 
L 300 150 
L 300 250 
z
" transform="scale(0.015625)"/>
       </defs>
       <use xlink:href="#SimHei-32"/>
       <use xlink:href="#SimHei-30" x="50"/>
      </g>
     </g>
    </g>
    <g id="xtick_4">
     <g id="line2d_4">
      <path d="M 475.72915 522.81675 
L 475.72915 15.552 
" clip-path="url(#pb75286f179)" style="fill: none; stroke: #cccccc; stroke-linecap: round"/>
     </g>
     <g id="text_4">
      <!-- 30 -->
      <g style="fill: #262626" transform="translate(469.12915 541.39175) scale(0.132 -0.132)">
       <defs>
        <path id="SimHei-33" d="M 250 1225 
L 700 1300 
Q 800 975 1025 762 
Q 1250 550 1587 562 
Q 1925 575 2125 837 
Q 2325 1100 2300 1437 
Q 2275 1775 2037 1962 
Q 1800 2150 1275 2225 
L 1275 2550 
Q 1800 2600 2037 2825 
Q 2275 3050 2250 3412 
Q 2225 3775 1925 3937 
Q 1625 4100 1287 3975 
Q 950 3850 750 3275 
L 300 3350 
Q 450 3800 712 4100 
Q 975 4400 1425 4450 
Q 1875 4500 2212 4337 
Q 2550 4175 2687 3837 
Q 2825 3500 2725 3100 
Q 2625 2700 2150 2400 
Q 2500 2250 2687 1950 
Q 2875 1650 2812 1162 
Q 2750 675 2375 375 
Q 2000 75 1525 87 
Q 1050 100 700 387 
Q 350 675 250 1225 
z
" transform="scale(0.015625)"/>
       </defs>
       <use xlink:href="#SimHei-33"/>
       <use xlink:href="#SimHei-30" x="50"/>
      </g>
     </g>
    </g>
    <g id="xtick_5">
     <g id="line2d_5">
      <path d="M 597.453261 522.81675 
L 597.453261 15.552 
" clip-path="url(#pb75286f179)" style="fill: none; stroke: #cccccc; stroke-linecap: round"/>
     </g>
     <g id="text_5">
      <!-- 40 -->
      <g style="fill: #262626" transform="translate(590.853261 541.39175) scale(0.132 -0.132)">
       <defs>
        <path id="SimHei-34" d="M 2000 1100 
L 75 1100 
L 75 1525 
L 2100 4450 
L 2475 4450 
L 2475 1525 
L 3075 1525 
L 3075 1100 
L 2475 1100 
L 2475 150 
L 2000 150 
L 2000 1100 
z
M 2000 1525 
L 2000 3500 
L 600 1525 
L 2000 1525 
z
" transform="scale(0.015625)"/>
       </defs>
       <use xlink:href="#SimHei-34"/>
       <use xlink:href="#SimHei-30" x="50"/>
      </g>
     </g>
    </g>
    <g id="xtick_6">
     <g id="line2d_6">
      <path d="M 719.177372 522.81675 
L 719.177372 15.552 
" clip-path="url(#pb75286f179)" style="fill: none; stroke: #cccccc; stroke-linecap: round"/>
     </g>
     <g id="text_6">
      <!-- 50 -->
      <g style="fill: #262626" transform="translate(712.577372 541.39175) scale(0.132 -0.132)">
       <defs>
        <path id="SimHei-35" d="M 550 1325 
Q 725 650 1150 575 
Q 1575 500 1837 662 
Q 2100 825 2212 1087 
Q 2325 1350 2312 1675 
Q 2300 2000 2137 2225 
Q 1975 2450 1725 2525 
Q 1475 2600 1162 2525 
Q 850 2450 650 2175 
L 225 2225 
Q 275 2375 700 4375 
L 2675 4375 
L 2675 3925 
L 1075 3925 
Q 950 3250 825 2850 
Q 1200 3025 1525 3012 
Q 1850 3000 2150 2862 
Q 2450 2725 2587 2487 
Q 2725 2250 2787 2012 
Q 2850 1775 2837 1500 
Q 2825 1225 2725 937 
Q 2625 650 2425 462 
Q 2225 275 1937 162 
Q 1650 50 1275 75 
Q 900 100 562 350 
Q 225 600 100 1200 
L 550 1325 
z
" transform="scale(0.015625)"/>
       </defs>
       <use xlink:href="#SimHei-35"/>
       <use xlink:href="#SimHei-30" x="50"/>
      </g>
     </g>
    </g>
    <g id="xtick_7">
     <g id="line2d_7">
      <path d="M 840.901482 522.81675 
L 840.901482 15.552 
" clip-path="url(#pb75286f179)" style="fill: none; stroke: #cccccc; stroke-linecap: round"/>
     </g>
     <g id="text_7">
      <!-- 60 -->
      <g style="fill: #262626" transform="translate(834.301482 541.39175) scale(0.132 -0.132)">
       <defs>
        <path id="SimHei-36" d="M 250 1612 
Q 275 1975 387 2225 
Q 500 2475 725 2850 
L 1750 4450 
L 2325 4450 
L 1275 2800 
Q 1950 2975 2350 2750 
Q 2750 2525 2887 2237 
Q 3025 1950 3037 1612 
Q 3050 1275 2937 950 
Q 2825 625 2537 362 
Q 2250 100 1737 75 
Q 1225 50 862 262 
Q 500 475 362 862 
Q 225 1250 250 1612 
z
M 1025 787 
Q 1250 550 1625 525 
Q 2000 500 2250 775 
Q 2500 1050 2500 1575 
Q 2500 2100 2187 2300 
Q 1875 2500 1487 2450 
Q 1100 2400 925 2075 
Q 750 1750 775 1387 
Q 800 1025 1025 787 
z
" transform="scale(0.015625)"/>
       </defs>
       <use xlink:href="#SimHei-36"/>
       <use xlink:href="#SimHei-30" x="50"/>
      </g>
     </g>
    </g>
    <g id="xtick_8">
     <g id="line2d_8">
      <path d="M 962.625593 522.81675 
L 962.625593 15.552 
" clip-path="url(#pb75286f179)" style="fill: none; stroke: #cccccc; stroke-linecap: round"/>
     </g>
     <g id="text_8">
      <!-- 70 -->
      <g style="fill: #262626" transform="translate(956.025593 541.39175) scale(0.132 -0.132)">
       <defs>
        <path id="SimHei-37" d="M 850 150 
Q 1300 2050 2425 3925 
L 275 3925 
L 275 4375 
L 2950 4375 
L 2950 3950 
Q 1775 2050 1400 150 
L 850 150 
z
" transform="scale(0.015625)"/>
       </defs>
       <use xlink:href="#SimHei-37"/>
       <use xlink:href="#SimHei-30" x="50"/>
      </g>
     </g>
    </g>
    <g id="text_9">
     <!-- 数据序号 -->
     <g style="fill: #262626" transform="translate(501.705 558.573) scale(0.144 -0.144)">
      <defs>
       <path id="SimHei-6570" d="M 4525 4925 
Q 4475 4800 4400 4587 
Q 4325 4375 4175 3825 
L 5325 3825 
Q 5575 3825 5925 3850 
L 5925 3400 
Q 5650 3425 5500 3425 
Q 5500 3025 5362 2162 
Q 5225 1300 4875 675 
Q 5125 375 5437 137 
Q 5750 -100 6025 -200 
Q 5725 -425 5625 -625 
Q 5325 -450 5075 -225 
Q 4825 0 4575 325 
Q 4300 25 3987 -187 
Q 3675 -400 3200 -650 
Q 3075 -425 2850 -300 
Q 3225 -150 3650 125 
Q 4075 400 4300 675 
Q 4125 1025 3962 1425 
Q 3800 1825 3675 2475 
Q 3600 2275 3425 1950 
Q 3250 2050 3000 2150 
Q 3400 2850 3650 3675 
Q 3900 4500 3975 5100 
Q 4275 4975 4525 4925 
z
M 2100 2250 
Q 2000 2150 1875 1925 
L 3250 1925 
Q 3100 1300 2725 675 
Q 3125 525 3350 400 
Q 3225 225 3125 25 
Q 2900 175 2450 325 
Q 1950 -225 725 -650 
Q 600 -375 400 -275 
Q 1575 0 2000 475 
Q 1300 650 850 775 
Q 1000 1000 1250 1525 
Q 1000 1525 425 1500 
L 425 1950 
Q 900 1925 1400 1925 
Q 1500 2150 1550 2425 
Q 1825 2325 2100 2250 
z
M 1775 3950 
Q 1775 4550 1750 5100 
L 2250 5100 
Q 2225 4575 2225 3950 
Q 3075 3950 3425 3975 
L 3425 3525 
Q 3075 3550 2225 3550 
Q 2225 2825 2250 2425 
L 1750 2425 
Q 1775 2775 1775 3300 
Q 1650 3100 1300 2787 
Q 950 2475 650 2300 
Q 525 2525 275 2625 
Q 500 2700 875 2975 
Q 1250 3250 1450 3550 
Q 950 3550 500 3525 
L 500 3975 
Q 925 3950 1775 3950 
z
M 3975 3175 
Q 4200 1700 4600 1125 
Q 4850 1700 4937 2287 
Q 5025 2875 5050 3425 
L 4075 3425 
L 3975 3175 
z
M 1450 1000 
Q 1750 925 2275 800 
Q 2475 1050 2650 1525 
L 1725 1525 
Q 1600 1275 1450 1000 
z
M 3325 4825 
Q 3200 4625 3125 4450 
Q 3050 4275 2925 4025 
Q 2725 4125 2525 4175 
Q 2725 4500 2900 5000 
Q 3150 4875 3325 4825 
z
M 2575 3375 
Q 2900 3050 3200 2725 
Q 3050 2600 2875 2425 
Q 2525 2850 2300 3100 
Q 2450 3225 2575 3375 
z
M 925 5000 
Q 1275 4650 1500 4300 
L 1125 4075 
Q 950 4425 600 4725 
Q 825 4875 925 5000 
z
" transform="scale(0.015625)"/>
       <path id="SimHei-636e" d="M 5750 4775 
Q 5725 4550 5725 4225 
L 5725 3900 
Q 5725 3450 5750 3250 
L 3100 3250 
L 3100 2500 
L 4250 2500 
Q 4250 2725 4225 3175 
L 4700 3175 
Q 4675 2775 4675 2500 
L 5350 2500 
Q 5800 2500 6100 2525 
L 6100 2075 
Q 5800 2100 5375 2100 
L 4675 2100 
L 4675 1425 
L 5775 1425 
Q 5750 950 5750 800 
L 5750 175 
Q 5750 -225 5775 -575 
L 5325 -575 
L 5325 -225 
L 3675 -225 
L 3675 -600 
L 3225 -600 
Q 3250 -325 3250 100 
L 3250 825 
Q 3250 1075 3225 1425 
L 4250 1425 
L 4250 2100 
L 3075 2100 
Q 3050 1375 2887 737 
Q 2725 100 2425 -475 
Q 2200 -325 1950 -250 
Q 2250 150 2387 600 
Q 2525 1050 2600 1562 
Q 2675 2075 2675 2625 
L 2675 3575 
Q 2675 3975 2650 4775 
L 5750 4775 
z
M 1275 4425 
Q 1275 4775 1250 5075 
L 1750 5075 
Q 1725 4800 1725 4425 
L 1725 3775 
Q 1975 3775 2500 3800 
L 2500 3375 
Q 1975 3400 1725 3400 
L 1725 2450 
Q 2050 2625 2400 2850 
Q 2425 2650 2525 2475 
Q 2050 2200 1725 2000 
L 1725 175 
Q 1725 -300 1487 -400 
Q 1250 -500 775 -575 
Q 725 -325 600 -50 
Q 1025 -50 1150 -12 
Q 1275 25 1275 325 
L 1275 1800 
Q 900 1600 525 1325 
Q 450 1525 275 1800 
Q 775 1975 1275 2250 
L 1275 3400 
Q 800 3400 350 3375 
L 350 3800 
Q 800 3775 1275 3775 
L 1275 4425 
z
M 5300 3625 
L 5300 4400 
L 3100 4400 
L 3100 3625 
L 5300 3625 
z
M 5325 150 
L 5325 1075 
L 3675 1075 
L 3675 150 
L 5325 150 
z
" transform="scale(0.015625)"/>
       <path id="SimHei-5e8f" d="M 4000 2075 
L 5975 2075 
Q 5750 1525 5575 1025 
Q 5325 1100 5050 1150 
Q 5175 1450 5275 1700 
L 4050 1700 
L 4050 150 
Q 4050 -375 3762 -462 
Q 3475 -550 2950 -575 
Q 2875 -300 2750 0 
Q 3350 -75 3475 25 
Q 3600 125 3575 375 
L 3575 1700 
L 2450 1700 
Q 2050 1700 1675 1675 
L 1675 2100 
Q 2100 2075 2425 2075 
L 3675 2075 
Q 3325 2400 2875 2775 
Q 2975 2875 3250 3100 
Q 3400 2975 3725 2725 
L 4575 3275 
L 3000 3275 
Q 2400 3275 1950 3250 
L 1950 3700 
Q 2400 3675 3000 3675 
L 5400 3675 
L 5400 3250 
Q 4700 2875 4025 2450 
L 4275 2250 
L 4000 2075 
z
M 3725 5275 
Q 3825 4925 3925 4525 
L 4850 4525 
Q 5425 4525 6000 4550 
L 6000 4125 
Q 5425 4150 4850 4150 
L 1400 4150 
Q 1400 2750 1362 2137 
Q 1325 1525 1200 887 
Q 1075 250 775 -350 
Q 625 -250 250 -125 
Q 475 300 600 700 
Q 725 1100 800 1637 
Q 875 2175 875 2825 
Q 875 3500 850 4525 
L 3350 4525 
Q 3275 4825 3150 5150 
Q 3425 5200 3725 5275 
z
" transform="scale(0.015625)"/>
       <path id="SimHei-53f7" d="M 5025 4925 
Q 5000 4550 5000 4075 
Q 5000 3600 5025 3175 
L 1400 3175 
Q 1425 3525 1425 4000 
Q 1425 4500 1400 4925 
L 5025 4925 
z
M 5175 2625 
Q 5650 2625 6025 2650 
L 6025 2200 
Q 5650 2225 5175 2225 
L 2450 2225 
Q 2350 1875 2225 1450 
L 5175 1450 
Q 5100 1050 5062 775 
Q 5025 500 4950 112 
Q 4875 -275 4650 -412 
Q 4425 -550 3225 -625 
Q 3125 -350 2975 -50 
Q 3875 -75 4112 -50 
Q 4350 -25 4425 212 
Q 4500 450 4575 1025 
L 1600 1025 
Q 1825 1625 1950 2225 
L 1350 2225 
Q 825 2225 375 2200 
L 375 2650 
Q 825 2625 1350 2625 
L 5175 2625 
z
M 4525 3575 
L 4525 4525 
L 1900 4525 
L 1900 3575 
L 4525 3575 
z
" transform="scale(0.015625)"/>
      </defs>
      <use xlink:href="#SimHei-6570"/>
      <use xlink:href="#SimHei-636e" x="100"/>
      <use xlink:href="#SimHei-5e8f" x="200"/>
      <use xlink:href="#SimHei-53f7" x="300"/>
     </g>
    </g>
   </g>
   <g id="matplotlib.axis_2">
    <g id="ytick_1">
     <g id="line2d_9">
      <path d="M 68.562 500.256915 
L 992.448 500.256915 
" clip-path="url(#pb75286f179)" style="fill: none; stroke: #cccccc; stroke-linecap: round"/>
     </g>
     <g id="text_10">
      <!-- 0 -->
      <g style="fill: #262626" transform="translate(52.462 504.794415) scale(0.132 -0.132)">
       <use xlink:href="#SimHei-30"/>
      </g>
     </g>
    </g>
    <g id="ytick_2">
     <g id="line2d_10">
      <path d="M 68.562 422.157506 
L 992.448 422.157506 
" clip-path="url(#pb75286f179)" style="fill: none; stroke: #cccccc; stroke-linecap: round"/>
     </g>
     <g id="text_11">
      <!-- 500 -->
      <g style="fill: #262626" transform="translate(39.262 426.695006) scale(0.132 -0.132)">
       <use xlink:href="#SimHei-35"/>
       <use xlink:href="#SimHei-30" x="50"/>
       <use xlink:href="#SimHei-30" x="100"/>
      </g>
     </g>
    </g>
    <g id="ytick_3">
     <g id="line2d_11">
      <path d="M 68.562 344.058096 
L 992.448 344.058096 
" clip-path="url(#pb75286f179)" style="fill: none; stroke: #cccccc; stroke-linecap: round"/>
     </g>
     <g id="text_12">
      <!-- 1000 -->
      <g style="fill: #262626" transform="translate(32.662 348.595596) scale(0.132 -0.132)">
       <use xlink:href="#SimHei-31"/>
       <use xlink:href="#SimHei-30" x="50"/>
       <use xlink:href="#SimHei-30" x="100"/>
       <use xlink:href="#SimHei-30" x="150"/>
      </g>
     </g>
    </g>
    <g id="ytick_4">
     <g id="line2d_12">
      <path d="M 68.562 265.958686 
L 992.448 265.958686 
" clip-path="url(#pb75286f179)" style="fill: none; stroke: #cccccc; stroke-linecap: round"/>
     </g>
     <g id="text_13">
      <!-- 1500 -->
      <g style="fill: #262626" transform="translate(32.662 270.496186) scale(0.132 -0.132)">
       <use xlink:href="#SimHei-31"/>
       <use xlink:href="#SimHei-35" x="50"/>
       <use xlink:href="#SimHei-30" x="100"/>
       <use xlink:href="#SimHei-30" x="150"/>
      </g>
     </g>
    </g>
    <g id="ytick_5">
     <g id="line2d_13">
      <path d="M 68.562 187.859276 
L 992.448 187.859276 
" clip-path="url(#pb75286f179)" style="fill: none; stroke: #cccccc; stroke-linecap: round"/>
     </g>
     <g id="text_14">
      <!-- 2000 -->
      <g style="fill: #262626" transform="translate(32.662 192.396776) scale(0.132 -0.132)">
       <use xlink:href="#SimHei-32"/>
       <use xlink:href="#SimHei-30" x="50"/>
       <use xlink:href="#SimHei-30" x="100"/>
       <use xlink:href="#SimHei-30" x="150"/>
      </g>
     </g>
    </g>
    <g id="ytick_6">
     <g id="line2d_14">
      <path d="M 68.562 109.759866 
L 992.448 109.759866 
" clip-path="url(#pb75286f179)" style="fill: none; stroke: #cccccc; stroke-linecap: round"/>
     </g>
     <g id="text_15">
      <!-- 2500 -->
      <g style="fill: #262626" transform="translate(32.662 114.297366) scale(0.132 -0.132)">
       <use xlink:href="#SimHei-32"/>
       <use xlink:href="#SimHei-35" x="50"/>
       <use xlink:href="#SimHei-30" x="100"/>
       <use xlink:href="#SimHei-30" x="150"/>
      </g>
     </g>
    </g>
    <g id="ytick_7">
     <g id="line2d_15">
      <path d="M 68.562 31.660456 
L 992.448 31.660456 
" clip-path="url(#pb75286f179)" style="fill: none; stroke: #cccccc; stroke-linecap: round"/>
     </g>
     <g id="text_16">
      <!-- 3000 -->
      <g style="fill: #262626" transform="translate(32.662 36.197956) scale(0.132 -0.132)">
       <use xlink:href="#SimHei-33"/>
       <use xlink:href="#SimHei-30" x="50"/>
       <use xlink:href="#SimHei-30" x="100"/>
       <use xlink:href="#SimHei-30" x="150"/>
      </g>
     </g>
    </g>
    <g id="text_17">
     <!-- 货量 -->
     <g style="fill: #262626" transform="translate(26.862 283.584375) rotate(-90) scale(0.144 -0.144)">
      <defs>
       <path id="SimHei-8d27" d="M 3975 5075 
Q 3950 4750 3950 4100 
Q 4075 4175 4525 4375 
Q 4975 4575 5375 4900 
Q 5550 4625 5700 4400 
Q 5425 4325 4987 4112 
Q 4550 3900 3950 3650 
L 3950 3225 
Q 3950 3025 4300 3025 
L 5125 3025 
Q 5425 3025 5487 3150 
Q 5550 3275 5575 3625 
Q 5850 3450 6125 3375 
Q 5975 2875 5825 2750 
Q 5675 2625 5475 2625 
L 4000 2625 
Q 3425 2625 3425 3125 
L 3425 3525 
Q 2900 3325 2575 3225 
Q 2425 3500 2350 3650 
Q 2750 3750 3425 3925 
Q 3425 4750 3400 5075 
L 3975 5075 
z
M 5200 2200 
Q 5175 1825 5175 1425 
Q 5175 1050 5200 600 
L 4625 600 
L 4625 1775 
L 1950 1775 
L 1950 625 
L 1400 625 
Q 1425 1025 1425 1400 
Q 1425 1800 1400 2200 
L 5200 2200 
z
M 2625 4850 
Q 2425 4700 2050 4300 
Q 2050 2900 2075 2450 
L 1500 2450 
Q 1525 2900 1525 3825 
Q 1300 3625 1100 3425 
Q 900 3225 700 3050 
Q 475 3250 325 3400 
Q 850 3725 1325 4237 
Q 1800 4750 2050 5175 
Q 2325 4925 2625 4850 
z
M 3550 1325 
Q 3425 975 3312 687 
Q 3200 400 2925 137 
Q 2650 -125 2150 -325 
Q 1650 -525 800 -675 
Q 725 -400 475 -100 
Q 1200 -75 1675 25 
Q 2150 125 2412 325 
Q 2675 525 2787 775 
Q 2900 1025 2975 1400 
Q 3250 1350 3550 1325 
z
M 5575 -675 
Q 5125 -400 4650 -187 
Q 4175 25 3575 250 
Q 3725 500 3825 725 
Q 4350 500 4800 300 
Q 5250 100 5875 -175 
Q 5700 -400 5575 -675 
z
" transform="scale(0.015625)"/>
       <path id="SimHei-91cf" d="M 5250 2500 
Q 5225 2200 5225 1700 
Q 5225 1225 5250 950 
L 3425 950 
L 3425 625 
L 4575 625 
Q 5000 625 5375 650 
L 5375 275 
Q 5025 300 4575 300 
L 3425 300 
L 3425 -75 
L 5125 -75 
Q 5525 -75 5925 -50 
L 5925 -425 
Q 5525 -400 5125 -400 
L 1275 -400 
Q 900 -400 475 -425 
L 475 -50 
Q 925 -50 1275 -75 
L 2975 -75 
L 2975 300 
L 1725 300 
Q 1350 300 975 250 
L 975 650 
Q 1375 625 1725 625 
L 2975 625 
L 2975 950 
L 1150 950 
Q 1175 1375 1175 1775 
Q 1175 2175 1150 2500 
L 5250 2500 
z
M 5200 4950 
Q 5175 4575 5175 4250 
Q 5175 3925 5200 3400 
L 1200 3400 
Q 1225 3925 1225 4250 
Q 1225 4575 1200 4950 
L 5200 4950 
z
M 4900 3100 
Q 5500 3125 6000 3150 
L 6000 2750 
Q 5500 2775 4925 2775 
L 1650 2775 
Q 975 2775 325 2750 
L 325 3150 
Q 975 3125 1650 3100 
L 4900 3100 
z
M 4725 3700 
L 4725 4025 
L 1675 4025 
L 1675 3700 
L 4725 3700 
z
M 4725 4350 
L 4725 4650 
L 1675 4650 
L 1675 4350 
L 4725 4350 
z
M 4750 1875 
L 4750 2175 
L 3425 2175 
L 3425 1875 
L 4750 1875 
z
M 2975 1875 
L 2975 2175 
L 1650 2175 
L 1650 1875 
L 2975 1875 
z
M 2975 1275 
L 2975 1550 
L 1650 1550 
L 1650 1275 
L 2975 1275 
z
M 4750 1275 
L 4750 1550 
L 3425 1550 
L 3425 1275 
L 4750 1275 
z
" transform="scale(0.015625)"/>
      </defs>
      <use xlink:href="#SimHei-8d27"/>
      <use xlink:href="#SimHei-91cf" x="100"/>
     </g>
    </g>
   </g>
   <g id="line2d_16">
    <path d="M 110.556818 499.480815 
L 122.729229 499.671356 
L 134.90164 499.743295 
L 147.074051 499.723976 
L 159.246462 499.721698 
L 171.418874 499.736402 
L 183.591285 499.758935 
L 195.763696 499.759261 
L 207.936107 438.972088 
L 220.108518 316.475085 
L 232.280929 230.086517 
L 244.45334 76.645068 
L 256.625751 328.625454 
L 268.798162 131.250436 
L 280.970573 208.817737 
L 293.142984 240.981766 
L 305.315395 242.773762 
L 317.487806 296.362733 
L 329.660217 263.453746 
L 341.832628 315.69268 
L 354.00504 335.642369 
L 366.177451 229.803083 
L 378.349862 160.467967 
L 390.522273 267.587676 
L 402.694684 209.537144 
L 414.867095 199.520132 
L 427.039506 263.055603 
L 439.211917 260.151854 
L 451.384328 257.717635 
L 463.556739 267.133151 
L 475.72915 272.266719 
L 487.901561 213.60123 
L 500.073972 292.319563 
L 512.246383 319.715715 
L 524.418794 309.328112 
L 536.591206 378.974557 
L 548.763617 359.876582 
L 560.936028 390.770419 
L 573.108439 379.542275 
L 585.28085 392.812844 
L 597.453261 354.002767 
L 609.625672 360.529311 
L 621.798083 380.088389 
L 633.970494 386.739328 
L 646.142905 407.32613 
L 658.315316 385.527281 
L 670.487727 402.261014 
L 682.660138 408.559723 
L 694.832549 414.887978 
L 707.00496 439.139213 
L 719.177372 438.358924 
L 731.349783 468.628492 
L 743.522194 478.765859 
L 755.694605 461.952454 
L 767.867016 460.354984 
L 780.039427 475.509465 
L 792.211838 494.296719 
L 804.384249 477.971015 
L 816.55666 470.151976 
L 828.729071 466.449171 
L 840.901482 475.574139 
L 853.073893 497.006904 
L 865.246304 498.073482 
L 877.418715 498.460666 
L 889.591126 499.170842 
L 901.763538 499.557072 
L 913.935949 499.669541 
L 926.10836 499.732153 
L 938.280771 499.750856 
L 950.453182 499.42373 
" clip-path="url(#pb75286f179)" style="fill: none; stroke: #4c72b0; stroke-width: 1.5; stroke-linecap: round"/>
   </g>
   <g id="line2d_17">
    <path d="M 110.556818 499.33713 
L 122.729229 498.487881 
L 134.90164 497.659528 
L 147.074051 499.635594 
L 159.246462 497.570616 
L 171.418874 497.630982 
L 183.591285 499.498629 
L 195.763696 497.781189 
L 207.936107 438.104051 
L 220.108518 315.980667 
L 232.280929 229.455015 
L 244.45334 75.92359 
L 256.625751 328.621129 
L 268.798162 130.904187 
L 280.970573 208.751275 
L 293.142984 240.655272 
L 305.315395 242.08443 
L 317.487806 293.769801 
L 329.660217 262.994227 
L 341.832628 315.063725 
L 354.00504 333.659765 
L 366.177451 228.253675 
L 378.349862 157.671007 
L 390.522273 266.931006 
L 402.694684 208.207153 
L 414.867095 196.254137 
L 427.039506 262.771157 
L 439.211917 259.256819 
L 451.384328 255.872981 
L 463.556739 266.704009 
L 475.72915 271.307588 
L 487.901561 212.646147 
L 500.073972 289.667863 
L 512.246383 319.351105 
L 524.418794 308.734629 
L 536.591206 377.73321 
L 548.763617 359.247423 
L 560.936028 390.301492 
L 573.108439 378.917436 
L 585.28085 392.184362 
L 597.453261 352.409052 
L 609.625672 359.820056 
L 621.798083 379.27408 
L 633.970494 386.627154 
L 646.142905 406.19771 
L 658.315316 384.018639 
L 670.487727 399.894605 
L 682.660138 407.866775 
L 694.832549 414.423663 
L 707.00496 439.06786 
L 719.177372 437.763558 
L 731.349783 468.23738 
L 743.522194 477.982548 
L 755.694605 458.438707 
L 767.867016 457.620745 
L 780.039427 472.074952 
L 792.211838 491.376016 
L 804.384249 476.603239 
L 816.55666 468.880265 
L 828.729071 466.249428 
L 840.901482 474.101837 
L 853.073893 496.926356 
L 865.246304 496.596138 
L 877.418715 494.853069 
L 889.591126 497.275744 
L 901.763538 498.789346 
L 913.935949 496.373941 
L 926.10836 495.883972 
L 938.280771 498.583464 
L 950.453182 499.343476 
" clip-path="url(#pb75286f179)" style="fill: none; stroke: #dd8452; stroke-width: 1.5; stroke-linecap: round"/>
   </g>
   <g id="line2d_18">
    <path d="M 110.556818 486.174829 
L 122.729229 487.928256 
L 134.90164 485.188701 
L 147.074051 488.617844 
L 159.246462 499.551981 
L 171.418874 496.424588 
L 183.591285 497.114165 
L 195.763696 483.77823 
L 207.936107 435.326916 
L 220.108518 311.071835 
L 232.280929 216.8934 
L 244.45334 72.080378 
L 256.625751 320.262462 
L 268.798162 130.390448 
L 280.970573 208.360221 
L 293.142984 237.940443 
L 305.315395 240.128016 
L 317.487806 295.302668 
L 329.660217 259.538888 
L 341.832628 308.958021 
L 354.00504 331.89256 
L 366.177451 225.38207 
L 378.349862 151.585737 
L 390.522273 260.566213 
L 402.694684 204.324029 
L 414.867095 195.024172 
L 427.039506 259.549684 
L 439.211917 259.859234 
L 451.384328 242.2326 
L 463.556739 265.531961 
L 475.72915 265.490341 
L 487.901561 209.69314 
L 500.073972 291.317197 
L 512.246383 317.370931 
L 524.418794 301.593333 
L 536.591206 363.891126 
L 548.763617 356.686697 
L 560.936028 385.452963 
L 573.108439 371.494185 
L 585.28085 388.669145 
L 597.453261 348.535014 
L 609.625672 355.876644 
L 621.798083 372.653573 
L 633.970494 380.829557 
L 646.142905 407.251531 
L 658.315316 382.182996 
L 670.487727 393.40866 
L 682.660138 408.448443 
L 694.832549 408.474566 
L 707.00496 428.229263 
L 719.177372 425.502115 
L 731.349783 468.337067 
L 743.522194 476.543598 
L 755.694605 452.470788 
L 767.867016 460.347004 
L 780.039427 472.253289 
L 792.211838 481.02045 
L 804.384249 472.568521 
L 816.55666 460.523722 
L 828.729071 451.727084 
L 840.901482 475.199067 
L 853.073893 494.693362 
L 865.246304 492.400627 
L 877.418715 484.429484 
L 889.591126 490.374135 
L 901.763538 494.992914 
L 913.935949 489.882558 
L 926.10836 496.958976 
L 938.280771 495.80835 
L 950.453182 494.667852 
" clip-path="url(#pb75286f179)" style="fill: none; stroke: #55a868; stroke-width: 1.5; stroke-linecap: round"/>
   </g>
   <g id="line2d_19">
    <path d="M 110.556818 497.10638 
L 122.729229 486.551508 
L 134.90164 495.530246 
L 147.074051 494.688289 
L 159.246462 465.023897 
L 171.418874 481.926052 
L 183.591285 495.904712 
L 195.763696 455.108015 
L 207.936107 431.317625 
L 220.108518 282.491866 
L 232.280929 224.869959 
L 244.45334 38.748599 
L 256.625751 305.567836 
L 268.798162 102.397729 
L 280.970573 197.458599 
L 293.142984 221.984458 
L 305.315395 234.203797 
L 317.487806 295.273572 
L 329.660217 257.698724 
L 341.832628 311.25409 
L 354.00504 312.381615 
L 366.177451 204.989871 
L 378.349862 141.455509 
L 390.522273 265.908822 
L 402.694684 171.203837 
L 414.867095 173.137843 
L 427.039506 258.041077 
L 439.211917 248.482023 
L 451.384328 218.678663 
L 463.556739 261.302757 
L 475.72915 272.126884 
L 487.901561 200.008185 
L 500.073972 281.693722 
L 512.246383 308.398079 
L 524.418794 263.037285 
L 536.591206 376.161143 
L 548.763617 344.246649 
L 560.936028 385.782906 
L 573.108439 330.604582 
L 585.28085 351.817647 
L 597.453261 351.406841 
L 609.625672 357.321818 
L 621.798083 362.734131 
L 633.970494 341.350522 
L 646.142905 390.504972 
L 658.315316 366.706628 
L 670.487727 386.100976 
L 682.660138 407.839037 
L 694.832549 408.430474 
L 707.00496 426.530484 
L 719.177372 427.416571 
L 731.349783 448.283207 
L 743.522194 458.980073 
L 755.694605 456.272802 
L 767.867016 425.272631 
L 780.039427 465.695178 
L 792.211838 452.415073 
L 804.384249 473.483086 
L 816.55666 437.69203 
L 828.729071 446.60603 
L 840.901482 459.337331 
L 853.073893 467.670855 
L 865.246304 480.91114 
L 877.418715 494.023254 
L 889.591126 495.193852 
L 901.763538 476.835543 
L 913.935949 451.893608 
L 926.10836 492.673241 
L 938.280771 474.446622 
L 950.453182 495.540463 
" clip-path="url(#pb75286f179)" style="fill: none; stroke: #c44e52; stroke-width: 1.5; stroke-linecap: round"/>
   </g>
   <g id="line2d_20">
    <path d="M 110.556818 492.376929 
L 122.729229 466.526051 
L 134.90164 437.989822 
L 147.074051 482.121453 
L 159.246462 439.456627 
L 171.418874 480.32827 
L 183.591285 476.601668 
L 195.763696 494.4518 
L 207.936107 408.29797 
L 220.108518 290.743659 
L 232.280929 222.177221 
L 244.45334 38.609489 
L 256.625751 284.777583 
L 268.798162 83.157484 
L 280.970573 177.4551 
L 293.142984 210.166117 
L 305.315395 214.764361 
L 317.487806 246.306136 
L 329.660217 245.240781 
L 341.832628 307.588847 
L 354.00504 320.197029 
L 366.177451 139.62068 
L 378.349862 140.415931 
L 390.522273 250.466159 
L 402.694684 206.535993 
L 414.867095 186.276165 
L 427.039506 244.892972 
L 439.211917 258.978156 
L 451.384328 246.038124 
L 463.556739 246.950433 
L 475.72915 264.925164 
L 487.901561 164.834534 
L 500.073972 272.387419 
L 512.246383 288.312955 
L 524.418794 296.298701 
L 536.591206 352.531979 
L 548.763617 317.447099 
L 560.936028 369.339783 
L 573.108439 368.775892 
L 585.28085 382.097678 
L 597.453261 348.41705 
L 609.625672 302.746432 
L 621.798083 358.180137 
L 633.970494 372.410758 
L 646.142905 388.889499 
L 658.315316 366.888928 
L 670.487727 398.646937 
L 682.660138 378.940269 
L 694.832549 384.559279 
L 707.00496 427.532178 
L 719.177372 434.090502 
L 731.349783 455.589 
L 743.522194 424.187553 
L 755.694605 363.519991 
L 767.867016 413.809275 
L 780.039427 426.676268 
L 792.211838 486.287776 
L 804.384249 404.72652 
L 816.55666 446.528181 
L 828.729071 434.157666 
L 840.901482 461.959812 
L 853.073893 447.767512 
L 865.246304 449.553186 
L 877.418715 489.412446 
L 889.591126 435.406674 
L 901.763538 432.748831 
L 913.935949 455.499769 
L 926.10836 452.177134 
L 938.280771 474.183953 
L 950.453182 471.43832 
" clip-path="url(#pb75286f179)" style="fill: none; stroke: #8172b3; stroke-width: 1.5; stroke-linecap: round"/>
   </g>
   <g id="patch_3">
    <path d="M 68.562 522.81675 
L 68.562 15.552 
" style="fill: none; stroke: #cccccc; stroke-width: 1.25; stroke-linejoin: miter; stroke-linecap: square"/>
   </g>
   <g id="patch_4">
    <path d="M 992.448 522.81675 
L 992.448 15.552 
" style="fill: none; stroke: #cccccc; stroke-width: 1.25; stroke-linejoin: miter; stroke-linecap: square"/>
   </g>
   <g id="patch_5">
    <path d="M 68.562 522.81675 
L 992.448 522.81675 
" style="fill: none; stroke: #cccccc; stroke-width: 1.25; stroke-linejoin: miter; stroke-linecap: square"/>
   </g>
   <g id="patch_6">
    <path d="M 68.562 15.552 
L 992.448 15.552 
" style="fill: none; stroke: #cccccc; stroke-width: 1.25; stroke-linejoin: miter; stroke-linecap: square"/>
   </g>
   <g id="legend_1">
    <g id="patch_7">
     <path d="M 894.768 119.182313 
L 983.208 119.182313 
Q 985.848 119.182313 985.848 116.542313 
L 985.848 24.792 
Q 985.848 22.152 983.208 22.152 
L 894.768 22.152 
Q 892.128 22.152 892.128 24.792 
L 892.128 116.542313 
Q 892.128 119.182313 894.768 119.182313 
z
" style="fill: #ffffff; opacity: 0.8; stroke: #cccccc; stroke-linejoin: miter"/>
    </g>
    <g id="line2d_21">
     <path d="M 897.408 33.176063 
L 910.608 33.176063 
L 923.808 33.176063 
" style="fill: none; stroke: #4c72b0; stroke-width: 1.5; stroke-linecap: round"/>
    </g>
    <g id="text_18">
     <!-- 预测值 -->
     <g style="fill: #262626" transform="translate(934.368 37.796063) scale(0.132 -0.132)">
      <defs>
       <path id="SimHei-9884" d="M 5200 4800 
Q 5575 4800 5950 4825 
L 5950 4400 
Q 5575 4425 5200 4425 
L 4500 4425 
Q 4425 4050 4350 3600 
L 5725 3600 
Q 5700 3225 5700 2800 
L 5700 1725 
Q 5700 1300 5725 850 
L 5250 850 
L 5250 3225 
L 3550 3225 
L 3550 800 
L 3075 800 
Q 3100 1375 3100 1725 
L 3100 2775 
Q 3100 3175 3075 3600 
L 3900 3600 
Q 4000 4150 4000 4425 
L 3725 4425 
Q 3300 4425 2850 4400 
L 2850 4825 
Q 3325 4800 3725 4800 
L 5200 4800 
z
M 2600 1775 
Q 2350 1825 2150 1825 
Q 2250 2250 2300 2450 
L 1750 2450 
L 1750 125 
Q 1725 -300 1425 -400 
Q 1125 -500 750 -500 
Q 700 -225 575 25 
Q 1125 -25 1212 37 
Q 1300 100 1300 350 
L 1300 2450 
L 1025 2450 
Q 700 2450 350 2425 
L 350 2850 
Q 700 2825 1000 2825 
L 2850 2825 
Q 2725 2325 2600 1775 
z
M 4725 2875 
Q 4625 2575 4600 2100 
Q 4575 1625 4462 1037 
Q 4350 450 3962 62 
Q 3575 -325 2925 -675 
Q 2700 -500 2475 -350 
Q 3075 -125 3437 200 
Q 3800 525 3950 937 
Q 4100 1350 4137 1850 
Q 4175 2350 4175 2925 
L 4725 2875 
z
M 1625 2900 
Q 1275 3275 800 3650 
Q 925 3775 1075 3950 
Q 1250 3825 1425 3675 
Q 1750 4150 1950 4375 
L 1400 4375 
Q 900 4375 450 4350 
L 450 4775 
Q 900 4750 1375 4750 
L 2575 4750 
L 2575 4375 
Q 2200 4100 1725 3400 
L 1950 3200 
Q 1750 3025 1625 2900 
z
M 4775 725 
Q 5725 0 6075 -325 
Q 5850 -500 5725 -650 
Q 5400 -325 5137 -87 
Q 4875 150 4525 350 
Q 4650 525 4775 725 
z
" transform="scale(0.015625)"/>
       <path id="SimHei-6d4b" d="M 4025 4725 
Q 4000 4475 4000 4000 
L 4000 2225 
Q 4000 1775 4025 1350 
L 3550 1350 
L 3550 4325 
L 2350 4325 
L 2350 1325 
L 1900 1325 
Q 1925 1775 1925 2225 
L 1925 4000 
Q 1925 4200 1900 4725 
L 4025 4725 
z
M 5900 5075 
Q 5875 4800 5875 4375 
L 5875 0 
Q 5875 -325 5650 -425 
Q 5425 -525 4975 -600 
Q 4925 -325 4775 -50 
Q 5125 -50 5262 -25 
Q 5400 0 5400 250 
L 5400 4375 
Q 5400 4775 5375 5075 
L 5900 5075 
z
M 3275 3725 
Q 3225 3400 3200 2325 
Q 3175 1250 2837 550 
Q 2500 -150 2075 -600 
Q 1850 -400 1600 -325 
Q 2200 250 2475 962 
Q 2750 1675 2762 2475 
Q 2775 3275 2725 3800 
Q 3000 3750 3275 3725 
z
M 4950 4275 
Q 4925 4000 4925 3575 
L 4925 1825 
Q 4925 1300 4950 850 
L 4450 850 
Q 4475 1150 4475 1825 
L 4475 3575 
Q 4475 4000 4450 4275 
L 4950 4275 
z
M 1700 1675 
Q 1375 1075 1112 487 
Q 850 -100 725 -400 
Q 500 -200 200 -25 
Q 475 300 762 850 
Q 1050 1400 1250 2000 
Q 1475 1825 1700 1675 
z
M 3400 1050 
Q 3800 650 4300 -125 
Q 4100 -225 3875 -450 
Q 3475 275 3025 750 
Q 3225 875 3400 1050 
z
M 600 3525 
Q 1125 3125 1500 2775 
Q 1300 2575 1150 2375 
Q 825 2775 300 3150 
Q 450 3300 600 3525 
z
M 1350 4000 
Q 950 4375 475 4675 
Q 625 4850 775 5050 
Q 1300 4700 1675 4375 
Q 1500 4250 1350 4000 
z
" transform="scale(0.015625)"/>
       <path id="SimHei-503c" d="M 3675 4450 
L 3675 5100 
Q 3975 5075 4350 5050 
Q 4225 4875 4200 4450 
L 5125 4450 
Q 5550 4450 5875 4475 
L 5875 4025 
Q 5525 4050 5125 4050 
L 4175 4050 
L 4125 3500 
L 5400 3500 
Q 5375 3200 5375 2700 
L 5375 150 
Q 5875 150 6100 175 
L 6100 -275 
Q 5775 -250 5200 -250 
L 2850 -250 
Q 2275 -250 1900 -275 
L 1900 175 
Q 2125 150 2600 150 
L 2600 2700 
Q 2600 3175 2575 3500 
L 3600 3500 
L 3650 4050 
L 3200 4050 
Q 2575 4050 2225 4025 
L 2225 4475 
Q 2550 4450 3200 4450 
L 3675 4450 
z
M 2225 4900 
Q 2025 4675 1650 3750 
L 1650 450 
Q 1650 -75 1675 -550 
L 1150 -550 
Q 1175 -125 1175 375 
L 1175 2950 
Q 875 2450 625 2150 
Q 425 2425 250 2575 
Q 500 2825 937 3537 
Q 1375 4250 1625 5150 
Q 1975 4975 2225 4900 
z
M 4925 2650 
L 4925 3150 
L 3075 3150 
L 3075 2650 
L 4925 2650 
z
M 4925 150 
L 4925 625 
L 3075 625 
L 3075 150 
L 4925 150 
z
M 4925 1000 
L 4925 1450 
L 3075 1450 
L 3075 1000 
L 4925 1000 
z
M 4925 1825 
L 4925 2275 
L 3075 2275 
L 3075 1825 
L 4925 1825 
z
" transform="scale(0.015625)"/>
      </defs>
      <use xlink:href="#SimHei-9884"/>
      <use xlink:href="#SimHei-6d4b" x="100"/>
      <use xlink:href="#SimHei-503c" x="200"/>
     </g>
    </g>
    <g id="line2d_22">
     <path d="M 897.408 51.790125 
L 910.608 51.790125 
L 923.808 51.790125 
" style="fill: none; stroke: #dd8452; stroke-width: 1.5; stroke-linecap: round"/>
    </g>
    <g id="text_19">
     <!-- 1%扰动 -->
     <g style="fill: #262626" transform="translate(934.368 56.410125) scale(0.132 -0.132)">
      <defs>
       <path id="SimHei-25" d="M 1400 3325 
Q 1400 2600 1187 2400 
Q 975 2200 775 2200 
Q 575 2200 362 2400 
Q 150 2600 150 3325 
Q 150 4050 362 4250 
Q 575 4450 775 4450 
Q 975 4450 1187 4250 
Q 1400 4050 1400 3325 
z
M 2625 4375 
L 700 75 
L 500 150 
L 2425 4450 
L 2625 4375 
z
M 2975 1200 
Q 2975 475 2762 275 
Q 2550 75 2350 75 
Q 2150 75 1937 275 
Q 1725 475 1725 1200 
Q 1725 1925 1937 2125 
Q 2150 2325 2350 2325 
Q 2550 2325 2762 2125 
Q 2975 1925 2975 1200 
z
M 1000 3325 
Q 1000 3775 950 3925 
Q 900 4075 775 4075 
Q 650 4075 600 3925 
Q 550 3775 550 3325 
Q 550 2875 600 2725 
Q 650 2575 775 2575 
Q 900 2575 950 2725 
Q 1000 2875 1000 3325 
z
M 2575 1200 
Q 2575 1650 2525 1800 
Q 2475 1950 2350 1950 
Q 2225 1950 2175 1800 
Q 2125 1650 2125 1200 
Q 2125 750 2175 600 
Q 2225 450 2350 450 
Q 2475 450 2525 600 
Q 2575 750 2575 1200 
z
" transform="scale(0.015625)"/>
       <path id="SimHei-6270" d="M 4575 425 
Q 4575 0 4950 0 
L 5250 0 
Q 5400 0 5450 150 
Q 5500 300 5500 575 
Q 5750 425 6025 375 
Q 5950 50 5862 -175 
Q 5775 -400 5500 -425 
L 4825 -425 
Q 4125 -425 4125 300 
L 4125 3075 
L 3875 3075 
Q 3800 1550 3375 725 
Q 2950 -100 2425 -575 
Q 2275 -375 1950 -275 
Q 2375 25 2687 487 
Q 3000 950 3187 1537 
Q 3375 2125 3400 3075 
Q 3000 3075 2650 3050 
L 2650 3500 
Q 2975 3475 3400 3475 
Q 3425 4225 3375 5125 
Q 3700 5100 3950 5075 
Q 3900 4925 3887 4550 
Q 3875 4175 3875 3475 
L 5050 3475 
Q 5575 3475 5850 3500 
L 5850 3050 
Q 5550 3075 5100 3075 
L 4575 3075 
L 4575 425 
z
M 1775 5150 
Q 1750 4750 1750 3675 
Q 2000 3675 2425 3700 
L 2425 3250 
Q 2000 3275 1750 3275 
L 1750 2275 
Q 2025 2400 2350 2575 
Q 2325 2400 2375 2125 
Q 2175 2050 1750 1825 
L 1750 0 
Q 1750 -325 1512 -450 
Q 1275 -575 825 -650 
Q 800 -350 600 -125 
Q 1275 -125 1275 100 
L 1275 1650 
Q 850 1425 575 1275 
Q 475 1525 325 1750 
Q 675 1850 1275 2100 
L 1275 3275 
Q 725 3275 450 3250 
L 450 3700 
Q 800 3675 1275 3675 
Q 1275 4675 1250 5150 
L 1775 5150 
z
M 5200 3750 
Q 4825 4300 4450 4675 
Q 4650 4800 4800 4975 
Q 5175 4550 5600 4025 
Q 5450 3950 5200 3750 
z
" transform="scale(0.015625)"/>
       <path id="SimHei-52a8" d="M 4125 5150 
Q 4425 5075 4700 5075 
Q 4650 4825 4637 4512 
Q 4625 4200 4625 3750 
L 6025 3750 
Q 6000 3425 5975 3025 
L 5850 175 
Q 5775 -325 5437 -437 
Q 5100 -550 4675 -600 
Q 4600 -300 4425 -50 
Q 4975 -75 5175 12 
Q 5375 100 5375 350 
L 5525 3325 
L 4625 3325 
Q 4575 2225 4462 1650 
Q 4350 1075 4112 587 
Q 3875 100 3150 -675 
Q 2900 -425 2700 -350 
Q 3175 25 3475 437 
Q 3775 850 3900 1287 
Q 4025 1725 4075 2200 
Q 4125 2675 4150 3325 
L 3725 3325 
Q 3450 3325 3075 3300 
L 3075 3775 
Q 3450 3750 3775 3750 
L 4150 3750 
L 4150 4450 
Q 4150 4800 4125 5150 
z
M 275 3025 
Q 650 3000 1175 3000 
L 2125 3000 
Q 2575 3000 3150 3025 
L 3150 2575 
Q 2575 2600 2150 2600 
L 1875 2600 
Q 1725 2200 1537 1750 
Q 1350 1300 1100 850 
Q 2075 950 2575 1050 
Q 2450 1350 2175 1800 
Q 2450 1950 2575 2050 
Q 2825 1600 3000 1287 
Q 3175 975 3375 525 
Q 3175 400 2925 275 
Q 2825 500 2750 650 
Q 1950 525 1462 450 
Q 975 375 625 250 
Q 525 500 375 725 
Q 700 925 962 1525 
Q 1225 2125 1350 2600 
L 1175 2600 
Q 650 2600 275 2575 
L 275 3025 
z
M 2000 4425 
Q 2425 4425 2950 4450 
L 2950 3975 
Q 2425 4000 2000 4000 
L 1400 4000 
Q 1000 4000 625 3975 
L 625 4450 
Q 975 4425 1375 4425 
L 2000 4425 
z
" transform="scale(0.015625)"/>
      </defs>
      <use xlink:href="#SimHei-31"/>
      <use xlink:href="#SimHei-25" x="50"/>
      <use xlink:href="#SimHei-6270" x="100"/>
      <use xlink:href="#SimHei-52a8" x="200"/>
     </g>
    </g>
    <g id="line2d_23">
     <path d="M 897.408 70.404188 
L 910.608 70.404188 
L 923.808 70.404188 
" style="fill: none; stroke: #55a868; stroke-width: 1.5; stroke-linecap: round"/>
    </g>
    <g id="text_20">
     <!-- 5%扰动 -->
     <g style="fill: #262626" transform="translate(934.368 75.024188) scale(0.132 -0.132)">
      <use xlink:href="#SimHei-35"/>
      <use xlink:href="#SimHei-25" x="50"/>
      <use xlink:href="#SimHei-6270" x="100"/>
      <use xlink:href="#SimHei-52a8" x="200"/>
     </g>
    </g>
    <g id="line2d_24">
     <path d="M 897.408 89.01825 
L 910.608 89.01825 
L 923.808 89.01825 
" style="fill: none; stroke: #c44e52; stroke-width: 1.5; stroke-linecap: round"/>
    </g>
    <g id="text_21">
     <!-- 10%扰动 -->
     <g style="fill: #262626" transform="translate(934.368 93.63825) scale(0.132 -0.132)">
      <use xlink:href="#SimHei-31"/>
      <use xlink:href="#SimHei-30" x="50"/>
      <use xlink:href="#SimHei-25" x="100"/>
      <use xlink:href="#SimHei-6270" x="150"/>
      <use xlink:href="#SimHei-52a8" x="250"/>
     </g>
    </g>
    <g id="line2d_25">
     <path d="M 897.408 107.632313 
L 910.608 107.632313 
L 923.808 107.632313 
" style="fill: none; stroke: #8172b3; stroke-width: 1.5; stroke-linecap: round"/>
    </g>
    <g id="text_22">
     <!-- 20%扰动 -->
     <g style="fill: #262626" transform="translate(934.368 112.252313) scale(0.132 -0.132)">
      <use xlink:href="#SimHei-32"/>
      <use xlink:href="#SimHei-30" x="50"/>
      <use xlink:href="#SimHei-25" x="100"/>
      <use xlink:href="#SimHei-6270" x="150"/>
      <use xlink:href="#SimHei-52a8" x="250"/>
     </g>
    </g>
   </g>
  </g>
 </g>
 <defs>
  <clipPath id="pb75286f179">
   <rect x="68.562" y="15.552" width="923.886" height="507.26475"/>
  </clipPath>
 </defs>
</svg>
