<?xml version="1.0" encoding="utf-8" standalone="no"?>
<!DOCTYPE svg PUBLIC "-//W3C//DTD SVG 1.1//EN"
  "http://www.w3.org/Graphics/SVG/1.1/DTD/svg11.dtd">
<svg xmlns:xlink="http://www.w3.org/1999/xlink" width="1008pt" height="576pt" viewBox="0 0 1008 576" xmlns="http://www.w3.org/2000/svg" version="1.1">
 <metadata>
  <rdf:RDF xmlns:dc="http://purl.org/dc/elements/1.1/" xmlns:cc="http://creativecommons.org/ns#" xmlns:rdf="http://www.w3.org/1999/02/22-rdf-syntax-ns#">
   <cc:Work>
    <dc:type rdf:resource="http://purl.org/dc/dcmitype/StillImage"/>
    <dc:date>2023-04-17T06:24:43.705324</dc:date>
    <dc:format>image/svg+xml</dc:format>
    <dc:creator>
     <cc:Agent>
      <dc:title>Matplotlib v3.7.1, https://matplotlib.org/</dc:title>
     </cc:Agent>
    </dc:creator>
   </cc:Work>
  </rdf:RDF>
 </metadata>
 <defs>
  <style type="text/css">*{stroke-linejoin: round; stroke-linecap: butt}</style>
 </defs>
 <g id="figure_1">
  <g id="patch_1">
   <path d="M 0 576 
L 1008 576 
L 1008 0 
L 0 0 
z
" style="fill: #ffffff"/>
  </g>
  <g id="axes_1">
   <g id="patch_2">
    <path d="M 51.602 540.148 
L 992.448 540.148 
L 992.448 15.552 
L 51.602 15.552 
z
" style="fill: #ffffff"/>
   </g>
   <g id="matplotlib.axis_1">
    <g id="xtick_1">
     <g id="line2d_1">
      <path d="M 94.367727 540.148 
L 94.367727 15.552 
" clip-path="url(#pf0bc554b7e)" style="fill: none; stroke: #cccccc; stroke-linecap: round"/>
     </g>
     <g id="text_1">
      <!-- 0 -->
      <g style="fill: #262626" transform="translate(91.067727 558.723) scale(0.132 -0.132)">
       <defs>
        <path id="SimHei-30" d="M 225 2537 
Q 250 3200 412 3587 
Q 575 3975 875 4225 
Q 1175 4475 1612 4475 
Q 2050 4475 2375 4112 
Q 2700 3750 2800 3200 
Q 2900 2650 2862 1937 
Q 2825 1225 2612 775 
Q 2400 325 1975 150 
Q 1550 -25 1125 187 
Q 700 400 525 750 
Q 350 1100 275 1487 
Q 200 1875 225 2537 
z
M 750 2687 
Q 675 2000 800 1462 
Q 925 925 1212 700 
Q 1500 475 1800 612 
Q 2100 750 2237 1162 
Q 2375 1575 2375 2062 
Q 2375 2550 2337 2950 
Q 2300 3350 2112 3675 
Q 1925 4000 1612 4012 
Q 1300 4025 1062 3700 
Q 825 3375 750 2687 
z
" transform="scale(0.015625)"/>
       </defs>
       <use xlink:href="#SimHei-30"/>
      </g>
     </g>
    </g>
    <g id="xtick_2">
     <g id="line2d_2">
      <path d="M 267.158545 540.148 
L 267.158545 15.552 
" clip-path="url(#pf0bc554b7e)" style="fill: none; stroke: #cccccc; stroke-linecap: round"/>
     </g>
     <g id="text_2">
      <!-- 20 -->
      <g style="fill: #262626" transform="translate(260.558545 558.723) scale(0.132 -0.132)">
       <defs>
        <path id="SimHei-32" d="M 300 250 
Q 325 625 650 925 
Q 975 1225 1475 1862 
Q 1975 2500 2125 2850 
Q 2275 3200 2237 3450 
Q 2200 3700 2000 3862 
Q 1800 4025 1537 4000 
Q 1275 3975 1037 3800 
Q 800 3625 675 3275 
L 200 3350 
Q 400 3925 712 4187 
Q 1025 4450 1450 4475 
Q 1700 4500 1900 4462 
Q 2100 4425 2312 4287 
Q 2525 4150 2662 3875 
Q 2800 3600 2762 3212 
Q 2725 2825 2375 2287 
Q 2025 1750 1025 600 
L 2825 600 
L 2825 150 
L 300 150 
L 300 250 
z
" transform="scale(0.015625)"/>
       </defs>
       <use xlink:href="#SimHei-32"/>
       <use xlink:href="#SimHei-30" x="50"/>
      </g>
     </g>
    </g>
    <g id="xtick_3">
     <g id="line2d_3">
      <path d="M 439.949362 540.148 
L 439.949362 15.552 
" clip-path="url(#pf0bc554b7e)" style="fill: none; stroke: #cccccc; stroke-linecap: round"/>
     </g>
     <g id="text_3">
      <!-- 40 -->
      <g style="fill: #262626" transform="translate(433.349362 558.723) scale(0.132 -0.132)">
       <defs>
        <path id="SimHei-34" d="M 2000 1100 
L 75 1100 
L 75 1525 
L 2100 4450 
L 2475 4450 
L 2475 1525 
L 3075 1525 
L 3075 1100 
L 2475 1100 
L 2475 150 
L 2000 150 
L 2000 1100 
z
M 2000 1525 
L 2000 3500 
L 600 1525 
L 2000 1525 
z
" transform="scale(0.015625)"/>
       </defs>
       <use xlink:href="#SimHei-34"/>
       <use xlink:href="#SimHei-30" x="50"/>
      </g>
     </g>
    </g>
    <g id="xtick_4">
     <g id="line2d_4">
      <path d="M 612.740179 540.148 
L 612.740179 15.552 
" clip-path="url(#pf0bc554b7e)" style="fill: none; stroke: #cccccc; stroke-linecap: round"/>
     </g>
     <g id="text_4">
      <!-- 60 -->
      <g style="fill: #262626" transform="translate(606.140179 558.723) scale(0.132 -0.132)">
       <defs>
        <path id="SimHei-36" d="M 250 1612 
Q 275 1975 387 2225 
Q 500 2475 725 2850 
L 1750 4450 
L 2325 4450 
L 1275 2800 
Q 1950 2975 2350 2750 
Q 2750 2525 2887 2237 
Q 3025 1950 3037 1612 
Q 3050 1275 2937 950 
Q 2825 625 2537 362 
Q 2250 100 1737 75 
Q 1225 50 862 262 
Q 500 475 362 862 
Q 225 1250 250 1612 
z
M 1025 787 
Q 1250 550 1625 525 
Q 2000 500 2250 775 
Q 2500 1050 2500 1575 
Q 2500 2100 2187 2300 
Q 1875 2500 1487 2450 
Q 1100 2400 925 2075 
Q 750 1750 775 1387 
Q 800 1025 1025 787 
z
" transform="scale(0.015625)"/>
       </defs>
       <use xlink:href="#SimHei-36"/>
       <use xlink:href="#SimHei-30" x="50"/>
      </g>
     </g>
    </g>
    <g id="xtick_5">
     <g id="line2d_5">
      <path d="M 785.530996 540.148 
L 785.530996 15.552 
" clip-path="url(#pf0bc554b7e)" style="fill: none; stroke: #cccccc; stroke-linecap: round"/>
     </g>
     <g id="text_5">
      <!-- 80 -->
      <g style="fill: #262626" transform="translate(778.930996 558.723) scale(0.132 -0.132)">
       <defs>
        <path id="SimHei-38" d="M 175 1375 
Q 175 1675 325 1962 
Q 475 2250 825 2425 
Q 525 2600 425 2812 
Q 325 3025 312 3300 
Q 300 3575 387 3775 
Q 475 3975 650 4150 
Q 825 4325 1037 4387 
Q 1250 4450 1500 4450 
Q 1750 4450 1950 4400 
Q 2150 4350 2375 4187 
Q 2600 4025 2700 3725 
Q 2800 3425 2687 3025 
Q 2575 2625 2100 2400 
Q 2525 2275 2700 2012 
Q 2875 1750 2875 1375 
Q 2875 1000 2762 775 
Q 2650 550 2512 400 
Q 2375 250 2137 162 
Q 1900 75 1537 75 
Q 1175 75 912 162 
Q 650 250 475 425 
Q 300 600 237 837 
Q 175 1075 175 1375 
z
M 687 1400 
Q 675 1100 787 875 
Q 900 650 1200 587 
Q 1500 525 1825 600 
Q 2150 675 2275 950 
Q 2400 1225 2362 1500 
Q 2325 1775 2050 1962 
Q 1775 2150 1450 2125 
Q 1125 2100 912 1900 
Q 700 1700 687 1400 
z
M 775 3350 
Q 775 3100 950 2875 
Q 1125 2650 1500 2650 
Q 1875 2650 2062 2875 
Q 2250 3100 2237 3412 
Q 2225 3725 2012 3875 
Q 1800 4025 1437 4000 
Q 1075 3975 925 3787 
Q 775 3600 775 3350 
z
" transform="scale(0.015625)"/>
       </defs>
       <use xlink:href="#SimHei-38"/>
       <use xlink:href="#SimHei-30" x="50"/>
      </g>
     </g>
    </g>
    <g id="xtick_6">
     <g id="line2d_6">
      <path d="M 958.321814 540.148 
L 958.321814 15.552 
" clip-path="url(#pf0bc554b7e)" style="fill: none; stroke: #cccccc; stroke-linecap: round"/>
     </g>
     <g id="text_6">
      <!-- 100 -->
      <g style="fill: #262626" transform="translate(948.421814 558.723) scale(0.132 -0.132)">
       <defs>
        <path id="SimHei-31" d="M 1400 3600 
Q 1075 3275 575 2975 
L 575 3450 
Q 1200 3875 1600 4450 
L 1900 4450 
L 1900 150 
L 1400 150 
L 1400 3600 
z
" transform="scale(0.015625)"/>
       </defs>
       <use xlink:href="#SimHei-31"/>
       <use xlink:href="#SimHei-30" x="50"/>
       <use xlink:href="#SimHei-30" x="100"/>
      </g>
     </g>
    </g>
   </g>
   <g id="matplotlib.axis_2">
    <g id="ytick_1">
     <g id="line2d_7">
      <path d="M 51.602 432.967173 
L 992.448 432.967173 
" clip-path="url(#pf0bc554b7e)" style="fill: none; stroke: #cccccc; stroke-linecap: round"/>
     </g>
     <g id="text_7">
      <!-- 8000 -->
      <g style="fill: #262626" transform="translate(15.702 437.504673) scale(0.132 -0.132)">
       <use xlink:href="#SimHei-38"/>
       <use xlink:href="#SimHei-30" x="50"/>
       <use xlink:href="#SimHei-30" x="100"/>
       <use xlink:href="#SimHei-30" x="150"/>
      </g>
     </g>
    </g>
    <g id="ytick_2">
     <g id="line2d_8">
      <path d="M 51.602 322.639377 
L 992.448 322.639377 
" clip-path="url(#pf0bc554b7e)" style="fill: none; stroke: #cccccc; stroke-linecap: round"/>
     </g>
     <g id="text_8">
      <!-- 8200 -->
      <g style="fill: #262626" transform="translate(15.702 327.176877) scale(0.132 -0.132)">
       <use xlink:href="#SimHei-38"/>
       <use xlink:href="#SimHei-32" x="50"/>
       <use xlink:href="#SimHei-30" x="100"/>
       <use xlink:href="#SimHei-30" x="150"/>
      </g>
     </g>
    </g>
    <g id="ytick_3">
     <g id="line2d_9">
      <path d="M 51.602 212.311581 
L 992.448 212.311581 
" clip-path="url(#pf0bc554b7e)" style="fill: none; stroke: #cccccc; stroke-linecap: round"/>
     </g>
     <g id="text_9">
      <!-- 8400 -->
      <g style="fill: #262626" transform="translate(15.702 216.849081) scale(0.132 -0.132)">
       <use xlink:href="#SimHei-38"/>
       <use xlink:href="#SimHei-34" x="50"/>
       <use xlink:href="#SimHei-30" x="100"/>
       <use xlink:href="#SimHei-30" x="150"/>
      </g>
     </g>
    </g>
    <g id="ytick_4">
     <g id="line2d_10">
      <path d="M 51.602 101.983785 
L 992.448 101.983785 
" clip-path="url(#pf0bc554b7e)" style="fill: none; stroke: #cccccc; stroke-linecap: round"/>
     </g>
     <g id="text_10">
      <!-- 8600 -->
      <g style="fill: #262626" transform="translate(15.702 106.521285) scale(0.132 -0.132)">
       <use xlink:href="#SimHei-38"/>
       <use xlink:href="#SimHei-36" x="50"/>
       <use xlink:href="#SimHei-30" x="100"/>
       <use xlink:href="#SimHei-30" x="150"/>
      </g>
     </g>
    </g>
   </g>
   <g id="PolyCollection_1"/>
   <g id="PolyCollection_2"/>
   <g id="PolyCollection_3"/>
   <g id="PolyCollection_4"/>
   <g id="PolyCollection_5"/>
   <g id="line2d_11">
    <path d="M 94.367727 483.798765 
L 103.007268 478.236854 
L 111.646809 468.884042 
L 120.28635 462.780997 
L 128.925891 456.719702 
L 137.565432 450.397941 
L 146.204972 444.802091 
L 154.844513 440.460628 
L 163.484054 432.436813 
L 172.123595 427.113012 
L 180.763136 421.964291 
L 189.402677 415.339237 
L 198.042218 411.225917 
L 206.681758 409.131951 
L 215.321299 403.66189 
L 223.96084 400.160815 
L 232.600381 394.959301 
L 241.239922 390.325857 
L 249.879463 383.100409 
L 258.519004 378.948572 
L 267.158545 376.238322 
L 275.798085 372.724587 
L 284.437626 367.806973 
L 293.077167 362.974475 
L 301.716708 358.791123 
L 310.356249 355.901483 
L 318.99579 351.943043 
L 327.635331 347.904065 
L 336.274871 345.556906 
L 344.914412 342.375015 
L 353.553953 338.607278 
L 362.193494 333.828382 
L 370.833035 329.062146 
L 379.472576 326.261124 
L 388.112117 321.573808 
L 396.751657 317.127297 
L 405.391198 312.892498 
L 414.030739 309.735119 
L 422.67028 306.112833 
L 431.309821 302.895119 
L 439.949362 298.182484 
L 448.588903 293.982701 
L 457.228444 292.658014 
L 465.867984 287.774608 
L 474.507525 285.64401 
L 483.147066 277.469087 
L 491.786607 273.27954 
L 500.426148 271.805629 
L 509.065689 266.449775 
L 517.70523 262.727289 
L 526.34477 258.043745 
L 534.984311 251.725216 
L 543.623852 251.843732 
L 552.263393 247.863743 
L 560.902934 243.199593 
L 569.542475 236.272321 
L 578.182016 233.057839 
L 586.821556 230.817345 
L 595.461097 224.686287 
L 604.100638 220.956798 
L 612.740179 215.90747 
L 621.37972 209.588941 
L 630.019261 204.8289 
L 638.658802 201.082172 
L 647.298343 197.705538 
L 655.937883 193.430336 
L 664.577424 188.89386 
L 673.216965 184.570174 
L 681.856506 180.286891 
L 690.496047 174.570101 
L 699.135588 169.538011 
L 707.775129 166.441507 
L 716.414669 162.883327 
L 725.05421 157.985915 
L 733.693751 152.107512 
L 742.333292 148.591891 
L 750.972833 144.190631 
L 759.612374 139.829774 
L 768.251915 134.961991 
L 776.891455 131.67209 
L 785.530996 126.296303 
L 794.170537 121.644543 
L 802.810078 118.764599 
L 811.449619 114.154858 
L 820.08916 108.745672 
L 828.728701 103.298237 
L 837.368242 98.886741 
L 846.007782 94.959546 
L 854.647323 90.521653 
L 863.286864 87.227981 
L 871.926405 83.663876 
L 880.565946 77.405682 
L 889.205487 76.077224 
L 897.845028 70.902376 
L 906.484568 68.907533 
L 915.124109 64.299408 
L 923.76365 58.795947 
L 932.403191 54.73192 
L 941.042732 51.262089 
L 949.682273 48.47642 
" clip-path="url(#pf0bc554b7e)" style="fill: none; stroke: #4c72b0; stroke-width: 1.5; stroke-linecap: round"/>
   </g>
   <g id="line2d_12">
    <path d="M 94.367727 484.266264 
L 103.007268 477.518238 
L 111.646809 468.207746 
L 120.28635 462.860048 
L 128.925891 456.225902 
L 137.565432 448.720168 
L 146.204972 445.29296 
L 154.844513 440.956955 
L 163.484054 431.531297 
L 172.123595 426.852654 
L 180.763136 422.757822 
L 189.402677 415.431201 
L 198.042218 410.58498 
L 206.681758 409.882222 
L 215.321299 403.353766 
L 223.96084 399.173971 
L 232.600381 396.131909 
L 241.239922 390.966213 
L 249.879463 383.634462 
L 258.519004 378.779762 
L 267.158545 376.842674 
L 275.798085 373.4949 
L 284.437626 368.118385 
L 293.077167 362.514716 
L 301.716708 359.224623 
L 310.356249 354.655478 
L 318.99579 351.014334 
L 327.635331 348.510216 
L 336.274871 344.546333 
L 344.914412 342.109373 
L 353.553953 339.831396 
L 362.193494 333.777855 
L 370.833035 328.870532 
L 379.472576 325.956712 
L 388.112117 321.677205 
L 396.751657 317.260345 
L 405.391198 312.963106 
L 414.030739 309.07499 
L 422.67028 305.867635 
L 431.309821 302.759334 
L 439.949362 299.218517 
L 448.588903 293.662248 
L 457.228444 293.04568 
L 465.867984 287.555515 
L 474.507525 285.51308 
L 483.147066 277.710233 
L 491.786607 272.875455 
L 500.426148 271.463119 
L 509.065689 266.318364 
L 517.70523 262.442034 
L 526.34477 257.268559 
L 534.984311 250.736297 
L 543.623852 251.834958 
L 552.263393 247.885289 
L 560.902934 243.011243 
L 569.542475 237.109767 
L 578.182016 233.10466 
L 586.821556 231.141319 
L 595.461097 224.062193 
L 604.100638 220.309628 
L 612.740179 215.587532 
L 621.37972 209.653207 
L 630.019261 204.512656 
L 638.658802 200.472673 
L 647.298343 197.645575 
L 655.937883 194.309954 
L 664.577424 188.035233 
L 673.216965 185.30801 
L 681.856506 180.694194 
L 690.496047 173.727849 
L 699.135588 169.923311 
L 707.775129 167.243603 
L 716.414669 162.555485 
L 725.05421 157.968171 
L 733.693751 151.754722 
L 742.333292 148.678946 
L 750.972833 144.029517 
L 759.612374 140.800524 
L 768.251915 134.936236 
L 776.891455 131.544337 
L 785.530996 126.198355 
L 794.170537 121.184123 
L 802.810078 118.623434 
L 811.449619 113.937016 
L 820.08916 107.41351 
L 828.728701 103.477428 
L 837.368242 97.583378 
L 846.007782 95.171971 
L 854.647323 90.293731 
L 863.286864 87.497677 
L 871.926405 84.018691 
L 880.565946 77.793258 
L 889.205487 76.11973 
L 897.845028 70.048287 
L 906.484568 69.267258 
L 915.124109 64.569418 
L 923.76365 58.665452 
L 932.403191 54.493093 
L 941.042732 50.699361 
L 949.682273 48.796584 
" clip-path="url(#pf0bc554b7e)" style="fill: none; stroke-dasharray: 6,2.25; stroke-dashoffset: 0; stroke: #dd8452; stroke-width: 1.5"/>
   </g>
   <g id="line2d_13">
    <path d="M 94.367727 486.335226 
L 103.007268 478.435551 
L 111.646809 474.66568 
L 120.28635 463.024351 
L 128.925891 455.246597 
L 137.565432 450.549668 
L 146.204972 442.181462 
L 154.844513 441.311389 
L 163.484054 432.226521 
L 172.123595 431.214242 
L 180.763136 420.588588 
L 189.402677 416.108466 
L 198.042218 411.77007 
L 206.681758 407.860391 
L 215.321299 403.448304 
L 223.96084 398.936462 
L 232.600381 394.53666 
L 241.239922 391.052511 
L 249.879463 382.338188 
L 258.519004 384.586392 
L 267.158545 375.431216 
L 275.798085 370.805796 
L 284.437626 365.33284 
L 293.077167 366.154048 
L 301.716708 356.988112 
L 310.356249 354.641703 
L 318.99579 347.231848 
L 327.635331 349.996946 
L 336.274871 348.247049 
L 344.914412 342.91023 
L 353.553953 333.41186 
L 362.193494 331.787871 
L 370.833035 329.129205 
L 379.472576 325.452597 
L 388.112117 321.494156 
L 396.751657 316.811687 
L 405.391198 310.660598 
L 414.030739 308.203257 
L 422.67028 306.737795 
L 431.309821 297.197869 
L 439.949362 301.217697 
L 448.588903 295.44284 
L 457.228444 290.577525 
L 465.867984 289.97306 
L 474.507525 283.881041 
L 483.147066 271.508104 
L 491.786607 272.03516 
L 500.426148 278.318327 
L 509.065689 267.93707 
L 517.70523 263.890643 
L 526.34477 254.309662 
L 534.984311 248.789863 
L 543.623852 256.162407 
L 552.263393 248.357268 
L 560.902934 247.394234 
L 569.542475 236.339512 
L 578.182016 234.18984 
L 586.821556 231.620195 
L 595.461097 225.380774 
L 604.100638 220.366307 
L 612.740179 212.436869 
L 621.37972 209.021704 
L 630.019261 204.350835 
L 638.658802 199.889631 
L 647.298343 202.402556 
L 655.937883 198.43502 
L 664.577424 188.135672 
L 673.216965 185.225553 
L 681.856506 180.445982 
L 690.496047 177.566629 
L 699.135588 169.217728 
L 707.775129 167.768764 
L 716.414669 162.173779 
L 725.05421 156.256664 
L 733.693751 151.099089 
L 742.333292 145.49375 
L 750.972833 140.194467 
L 759.612374 142.523585 
L 768.251915 132.873688 
L 776.891455 127.216336 
L 785.530996 127.096465 
L 794.170537 123.442571 
L 802.810078 120.999271 
L 811.449619 116.987867 
L 820.08916 108.423698 
L 828.728701 100.774336 
L 837.368242 96.928426 
L 846.007782 94.138672 
L 854.647323 91.670744 
L 863.286864 89.911073 
L 871.926405 88.360585 
L 880.565946 78.21126 
L 889.205487 81.451444 
L 897.845028 74.399218 
L 906.484568 71.884785 
L 915.124109 66.834062 
L 923.76365 59.166397 
L 932.403191 57.976438 
L 941.042732 46.309642 
L 949.682273 50.526268 
" clip-path="url(#pf0bc554b7e)" style="fill: none; stroke-dasharray: 1.5,1.5; stroke-dashoffset: 0; stroke: #55a868; stroke-width: 1.5"/>
   </g>
   <g id="line2d_14">
    <path d="M 94.367727 496.478973 
L 103.007268 473.542933 
L 111.646809 467.750111 
L 120.28635 451.710983 
L 128.925891 458.005881 
L 137.565432 459.475267 
L 146.204972 450.404051 
L 154.844513 442.061633 
L 163.484054 441.901905 
L 172.123595 438.747296 
L 180.763136 411.679651 
L 189.402677 420.018867 
L 198.042218 411.743594 
L 206.681758 405.156435 
L 215.321299 393.526051 
L 223.96084 404.807789 
L 232.600381 404.33362 
L 241.239922 389.311615 
L 249.879463 382.179477 
L 258.519004 379.390369 
L 267.158545 376.740953 
L 275.798085 371.720478 
L 284.437626 373.019164 
L 293.077167 360.826525 
L 301.716708 357.42638 
L 310.356249 356.442369 
L 318.99579 343.096181 
L 327.635331 352.598496 
L 336.274871 339.549273 
L 344.914412 331.393079 
L 353.553953 344.651802 
L 362.193494 330.620081 
L 370.833035 320.310972 
L 379.472576 332.182885 
L 388.112117 314.454242 
L 396.751657 322.676919 
L 405.391198 316.618011 
L 414.030739 321.462201 
L 422.67028 303.337141 
L 431.309821 293.447225 
L 439.949362 305.9589 
L 448.588903 295.667848 
L 457.228444 285.560802 
L 465.867984 298.934361 
L 474.507525 285.13689 
L 483.147066 272.369661 
L 491.786607 261.513376 
L 500.426148 269.754066 
L 509.065689 263.194459 
L 517.70523 263.084566 
L 526.34477 252.743045 
L 534.984311 244.62919 
L 543.623852 263.500759 
L 552.263393 242.996569 
L 560.902934 249.300692 
L 569.542475 244.424198 
L 578.182016 241.722164 
L 586.821556 230.860207 
L 595.461097 233.007544 
L 604.100638 217.885465 
L 612.740179 213.587677 
L 621.37972 191.694453 
L 630.019261 197.546679 
L 638.658802 204.056395 
L 647.298343 198.201706 
L 655.937883 189.565017 
L 664.577424 182.909231 
L 673.216965 196.86745 
L 681.856506 177.327182 
L 690.496047 181.429147 
L 699.135588 161.951294 
L 707.775129 179.45929 
L 716.414669 153.96141 
L 725.05421 152.421192 
L 733.693751 156.523104 
L 742.333292 143.332614 
L 750.972833 145.742169 
L 759.612374 140.04157 
L 768.251915 150.121677 
L 776.891455 131.461366 
L 785.530996 122.907126 
L 794.170537 117.485036 
L 802.810078 129.351169 
L 811.449619 126.75447 
L 820.08916 108.245867 
L 828.728701 102.138811 
L 837.368242 97.793759 
L 846.007782 106.684423 
L 854.647323 85.879522 
L 863.286864 82.650961 
L 871.926405 89.044651 
L 880.565946 85.798229 
L 889.205487 74.481296 
L 897.845028 64.066377 
L 906.484568 69.328721 
L 915.124109 66.533228 
L 923.76365 63.992429 
L 932.403191 54.022097 
L 941.042732 50.79761 
L 949.682273 49.194269 
" clip-path="url(#pf0bc554b7e)" style="fill: none; stroke-dasharray: 4.5,1.875,2.25,1.875; stroke-dashoffset: 0; stroke: #c44e52; stroke-width: 1.5"/>
   </g>
   <g id="line2d_15">
    <path d="M 94.367727 463.787675 
L 103.007268 516.302727 
L 111.646809 457.546648 
L 120.28635 454.503693 
L 128.925891 479.601583 
L 137.565432 456.855932 
L 146.204972 464.519423 
L 154.844513 428.296681 
L 163.484054 401.327598 
L 172.123595 420.384558 
L 180.763136 400.872738 
L 189.402677 406.807504 
L 198.042218 393.387179 
L 206.681758 414.376546 
L 215.321299 432.136337 
L 223.96084 392.198499 
L 232.600381 422.618668 
L 241.239922 388.176134 
L 249.879463 392.3826 
L 258.519004 366.524014 
L 267.158545 355.402899 
L 275.798085 388.61781 
L 284.437626 346.808248 
L 293.077167 375.035718 
L 301.716708 340.828624 
L 310.356249 356.06103 
L 318.99579 366.274345 
L 327.635331 367.230335 
L 336.274871 348.054315 
L 344.914412 353.338627 
L 353.553953 331.785037 
L 362.193494 323.22916 
L 370.833035 353.68223 
L 379.472576 356.510474 
L 388.112117 300.520362 
L 396.751657 304.89266 
L 405.391198 330.397015 
L 414.030739 311.991163 
L 422.67028 317.608936 
L 431.309821 296.532464 
L 439.949362 306.412178 
L 448.588903 291.894355 
L 457.228444 300.837145 
L 465.867984 307.096616 
L 474.507525 295.635488 
L 483.147066 246.511085 
L 491.786607 299.808302 
L 500.426148 274.609138 
L 509.065689 273.147243 
L 517.70523 259.878305 
L 526.34477 257.861283 
L 534.984311 251.946387 
L 543.623852 266.482392 
L 552.263393 257.767198 
L 560.902934 236.444514 
L 569.542475 253.762835 
L 578.182016 236.619816 
L 586.821556 226.086388 
L 595.461097 256.976564 
L 604.100638 219.792619 
L 612.740179 225.490975 
L 621.37972 220.261603 
L 630.019261 208.768131 
L 638.658802 212.661781 
L 647.298343 192.954257 
L 655.937883 203.623633 
L 664.577424 162.86704 
L 673.216965 182.931536 
L 681.856506 194.914901 
L 690.496047 158.821418 
L 699.135588 187.886792 
L 707.775129 143.561749 
L 716.414669 165.301496 
L 725.05421 168.399252 
L 733.693751 146.101977 
L 742.333292 129.73676 
L 750.972833 168.497582 
L 759.612374 115.386182 
L 768.251915 117.745706 
L 776.891455 100.029246 
L 785.530996 135.498342 
L 794.170537 126.199568 
L 802.810078 137.312399 
L 811.449619 108.920879 
L 820.08916 91.061761 
L 828.728701 113.430077 
L 837.368242 85.995534 
L 846.007782 127.193183 
L 854.647323 94.973129 
L 863.286864 102.623254 
L 871.926405 71.748436 
L 880.565946 76.750266 
L 889.205487 103.961215 
L 897.845028 40.266808 
L 906.484568 45.193577 
L 915.124109 93.895163 
L 923.76365 39.397273 
L 932.403191 42.716977 
L 941.042732 43.543924 
L 949.682273 50.999759 
" clip-path="url(#pf0bc554b7e)" style="fill: none; stroke-dasharray: 7.5,1.5,1.5,1.5; stroke-dashoffset: 0; stroke: #8172b3; stroke-width: 1.5"/>
   </g>
   <g id="patch_3">
    <path d="M 51.602 540.148 
L 51.602 15.552 
" style="fill: none; stroke: #cccccc; stroke-width: 1.25; stroke-linejoin: miter; stroke-linecap: square"/>
   </g>
   <g id="patch_4">
    <path d="M 992.448 540.148 
L 992.448 15.552 
" style="fill: none; stroke: #cccccc; stroke-width: 1.25; stroke-linejoin: miter; stroke-linecap: square"/>
   </g>
   <g id="patch_5">
    <path d="M 51.602 540.148 
L 992.448 540.148 
" style="fill: none; stroke: #cccccc; stroke-width: 1.25; stroke-linejoin: miter; stroke-linecap: square"/>
   </g>
   <g id="patch_6">
    <path d="M 51.602 15.552 
L 992.448 15.552 
" style="fill: none; stroke: #cccccc; stroke-width: 1.25; stroke-linejoin: miter; stroke-linecap: square"/>
   </g>
  </g>
 </g>
 <defs>
  <clipPath id="pf0bc554b7e">
   <rect x="51.602" y="15.552" width="940.846" height="524.596"/>
  </clipPath>
 </defs>
</svg>
