<?xml version="1.0" encoding="utf-8" standalone="no"?>
<!DOCTYPE svg PUBLIC "-//W3C//DTD SVG 1.1//EN"
  "http://www.w3.org/Graphics/SVG/1.1/DTD/svg11.dtd">
<svg xmlns:xlink="http://www.w3.org/1999/xlink" width="460.8pt" height="345.6pt" viewBox="0 0 460.8 345.6" xmlns="http://www.w3.org/2000/svg" version="1.1">
 <metadata>
  <rdf:RDF xmlns:dc="http://purl.org/dc/elements/1.1/" xmlns:cc="http://creativecommons.org/ns#" xmlns:rdf="http://www.w3.org/1999/02/22-rdf-syntax-ns#">
   <cc:Work>
    <dc:type rdf:resource="http://purl.org/dc/dcmitype/StillImage"/>
    <dc:date>2023-04-15T08:58:26.710692</dc:date>
    <dc:format>image/svg+xml</dc:format>
    <dc:creator>
     <cc:Agent>
      <dc:title>Matplotlib v3.7.1, https://matplotlib.org/</dc:title>
     </cc:Agent>
    </dc:creator>
   </cc:Work>
  </rdf:RDF>
 </metadata>
 <defs>
  <style type="text/css">*{stroke-linejoin: round; stroke-linecap: butt}</style>
 </defs>
 <g id="figure_1">
  <g id="patch_1">
   <path d="M 0 345.6 
L 460.8 345.6 
L 460.8 0 
L 0 0 
z
" style="fill: #ffffff"/>
  </g>
  <g id="axes_1">
   <g id="patch_2">
    <path d="M 57.6 307.584 
L 414.72 307.584 
L 414.72 41.472 
L 57.6 41.472 
z
" style="fill: #ffffff"/>
   </g>
   <g id="matplotlib.axis_1">
    <g id="xtick_1">
     <g id="line2d_1">
      <defs>
       <path id="m0da36306aa" d="M 0 0 
L 0 3.5 
" style="stroke: #000000; stroke-width: 0.8"/>
      </defs>
      <g>
       <use xlink:href="#m0da36306aa" x="73.832727" y="307.584" style="stroke: #000000; stroke-width: 0.8"/>
      </g>
     </g>
     <g id="text_1">
      <!-- 0 -->
      <g transform="translate(70.651477 322.182437) scale(0.1 -0.1)">
       <defs>
        <path id="DejaVuSans-30" d="M 2034 4250 
Q 1547 4250 1301 3770 
Q 1056 3291 1056 2328 
Q 1056 1369 1301 889 
Q 1547 409 2034 409 
Q 2525 409 2770 889 
Q 3016 1369 3016 2328 
Q 3016 3291 2770 3770 
Q 2525 4250 2034 4250 
z
M 2034 4750 
Q 2819 4750 3233 4129 
Q 3647 3509 3647 2328 
Q 3647 1150 3233 529 
Q 2819 -91 2034 -91 
Q 1250 -91 836 529 
Q 422 1150 422 2328 
Q 422 3509 836 4129 
Q 1250 4750 2034 4750 
z
" transform="scale(0.015625)"/>
       </defs>
       <use xlink:href="#DejaVuSans-30"/>
      </g>
     </g>
    </g>
    <g id="xtick_2">
     <g id="line2d_2">
      <g>
       <use xlink:href="#m0da36306aa" x="138.828632" y="307.584" style="stroke: #000000; stroke-width: 0.8"/>
      </g>
     </g>
     <g id="text_2">
      <!-- 200 -->
      <g transform="translate(129.284882 322.182437) scale(0.1 -0.1)">
       <defs>
        <path id="DejaVuSans-32" d="M 1228 531 
L 3431 531 
L 3431 0 
L 469 0 
L 469 531 
Q 828 903 1448 1529 
Q 2069 2156 2228 2338 
Q 2531 2678 2651 2914 
Q 2772 3150 2772 3378 
Q 2772 3750 2511 3984 
Q 2250 4219 1831 4219 
Q 1534 4219 1204 4116 
Q 875 4013 500 3803 
L 500 4441 
Q 881 4594 1212 4672 
Q 1544 4750 1819 4750 
Q 2544 4750 2975 4387 
Q 3406 4025 3406 3419 
Q 3406 3131 3298 2873 
Q 3191 2616 2906 2266 
Q 2828 2175 2409 1742 
Q 1991 1309 1228 531 
z
" transform="scale(0.015625)"/>
       </defs>
       <use xlink:href="#DejaVuSans-32"/>
       <use xlink:href="#DejaVuSans-30" x="63.623047"/>
       <use xlink:href="#DejaVuSans-30" x="127.246094"/>
      </g>
     </g>
    </g>
    <g id="xtick_3">
     <g id="line2d_3">
      <g>
       <use xlink:href="#m0da36306aa" x="203.824537" y="307.584" style="stroke: #000000; stroke-width: 0.8"/>
      </g>
     </g>
     <g id="text_3">
      <!-- 400 -->
      <g transform="translate(194.280787 322.182437) scale(0.1 -0.1)">
       <defs>
        <path id="DejaVuSans-34" d="M 2419 4116 
L 825 1625 
L 2419 1625 
L 2419 4116 
z
M 2253 4666 
L 3047 4666 
L 3047 1625 
L 3713 1625 
L 3713 1100 
L 3047 1100 
L 3047 0 
L 2419 0 
L 2419 1100 
L 313 1100 
L 313 1709 
L 2253 4666 
z
" transform="scale(0.015625)"/>
       </defs>
       <use xlink:href="#DejaVuSans-34"/>
       <use xlink:href="#DejaVuSans-30" x="63.623047"/>
       <use xlink:href="#DejaVuSans-30" x="127.246094"/>
      </g>
     </g>
    </g>
    <g id="xtick_4">
     <g id="line2d_4">
      <g>
       <use xlink:href="#m0da36306aa" x="268.820442" y="307.584" style="stroke: #000000; stroke-width: 0.8"/>
      </g>
     </g>
     <g id="text_4">
      <!-- 600 -->
      <g transform="translate(259.276692 322.182437) scale(0.1 -0.1)">
       <defs>
        <path id="DejaVuSans-36" d="M 2113 2584 
Q 1688 2584 1439 2293 
Q 1191 2003 1191 1497 
Q 1191 994 1439 701 
Q 1688 409 2113 409 
Q 2538 409 2786 701 
Q 3034 994 3034 1497 
Q 3034 2003 2786 2293 
Q 2538 2584 2113 2584 
z
M 3366 4563 
L 3366 3988 
Q 3128 4100 2886 4159 
Q 2644 4219 2406 4219 
Q 1781 4219 1451 3797 
Q 1122 3375 1075 2522 
Q 1259 2794 1537 2939 
Q 1816 3084 2150 3084 
Q 2853 3084 3261 2657 
Q 3669 2231 3669 1497 
Q 3669 778 3244 343 
Q 2819 -91 2113 -91 
Q 1303 -91 875 529 
Q 447 1150 447 2328 
Q 447 3434 972 4092 
Q 1497 4750 2381 4750 
Q 2619 4750 2861 4703 
Q 3103 4656 3366 4563 
z
" transform="scale(0.015625)"/>
       </defs>
       <use xlink:href="#DejaVuSans-36"/>
       <use xlink:href="#DejaVuSans-30" x="63.623047"/>
       <use xlink:href="#DejaVuSans-30" x="127.246094"/>
      </g>
     </g>
    </g>
    <g id="xtick_5">
     <g id="line2d_5">
      <g>
       <use xlink:href="#m0da36306aa" x="333.816347" y="307.584" style="stroke: #000000; stroke-width: 0.8"/>
      </g>
     </g>
     <g id="text_5">
      <!-- 800 -->
      <g transform="translate(324.272597 322.182437) scale(0.1 -0.1)">
       <defs>
        <path id="DejaVuSans-38" d="M 2034 2216 
Q 1584 2216 1326 1975 
Q 1069 1734 1069 1313 
Q 1069 891 1326 650 
Q 1584 409 2034 409 
Q 2484 409 2743 651 
Q 3003 894 3003 1313 
Q 3003 1734 2745 1975 
Q 2488 2216 2034 2216 
z
M 1403 2484 
Q 997 2584 770 2862 
Q 544 3141 544 3541 
Q 544 4100 942 4425 
Q 1341 4750 2034 4750 
Q 2731 4750 3128 4425 
Q 3525 4100 3525 3541 
Q 3525 3141 3298 2862 
Q 3072 2584 2669 2484 
Q 3125 2378 3379 2068 
Q 3634 1759 3634 1313 
Q 3634 634 3220 271 
Q 2806 -91 2034 -91 
Q 1263 -91 848 271 
Q 434 634 434 1313 
Q 434 1759 690 2068 
Q 947 2378 1403 2484 
z
M 1172 3481 
Q 1172 3119 1398 2916 
Q 1625 2713 2034 2713 
Q 2441 2713 2670 2916 
Q 2900 3119 2900 3481 
Q 2900 3844 2670 4047 
Q 2441 4250 2034 4250 
Q 1625 4250 1398 4047 
Q 1172 3844 1172 3481 
z
" transform="scale(0.015625)"/>
       </defs>
       <use xlink:href="#DejaVuSans-38"/>
       <use xlink:href="#DejaVuSans-30" x="63.623047"/>
       <use xlink:href="#DejaVuSans-30" x="127.246094"/>
      </g>
     </g>
    </g>
    <g id="xtick_6">
     <g id="line2d_6">
      <g>
       <use xlink:href="#m0da36306aa" x="398.812252" y="307.584" style="stroke: #000000; stroke-width: 0.8"/>
      </g>
     </g>
     <g id="text_6">
      <!-- 1000 -->
      <g transform="translate(386.087252 322.182437) scale(0.1 -0.1)">
       <defs>
        <path id="DejaVuSans-31" d="M 794 531 
L 1825 531 
L 1825 4091 
L 703 3866 
L 703 4441 
L 1819 4666 
L 2450 4666 
L 2450 531 
L 3481 531 
L 3481 0 
L 794 0 
L 794 531 
z
" transform="scale(0.015625)"/>
       </defs>
       <use xlink:href="#DejaVuSans-31"/>
       <use xlink:href="#DejaVuSans-30" x="63.623047"/>
       <use xlink:href="#DejaVuSans-30" x="127.246094"/>
       <use xlink:href="#DejaVuSans-30" x="190.869141"/>
      </g>
     </g>
    </g>
    <g id="text_7">
     <!-- Epoch -->
     <g transform="translate(220.849063 335.860562) scale(0.1 -0.1)">
      <defs>
       <path id="DejaVuSans-45" d="M 628 4666 
L 3578 4666 
L 3578 4134 
L 1259 4134 
L 1259 2753 
L 3481 2753 
L 3481 2222 
L 1259 2222 
L 1259 531 
L 3634 531 
L 3634 0 
L 628 0 
L 628 4666 
z
" transform="scale(0.015625)"/>
       <path id="DejaVuSans-70" d="M 1159 525 
L 1159 -1331 
L 581 -1331 
L 581 3500 
L 1159 3500 
L 1159 2969 
Q 1341 3281 1617 3432 
Q 1894 3584 2278 3584 
Q 2916 3584 3314 3078 
Q 3713 2572 3713 1747 
Q 3713 922 3314 415 
Q 2916 -91 2278 -91 
Q 1894 -91 1617 61 
Q 1341 213 1159 525 
z
M 3116 1747 
Q 3116 2381 2855 2742 
Q 2594 3103 2138 3103 
Q 1681 3103 1420 2742 
Q 1159 2381 1159 1747 
Q 1159 1113 1420 752 
Q 1681 391 2138 391 
Q 2594 391 2855 752 
Q 3116 1113 3116 1747 
z
" transform="scale(0.015625)"/>
       <path id="DejaVuSans-6f" d="M 1959 3097 
Q 1497 3097 1228 2736 
Q 959 2375 959 1747 
Q 959 1119 1226 758 
Q 1494 397 1959 397 
Q 2419 397 2687 759 
Q 2956 1122 2956 1747 
Q 2956 2369 2687 2733 
Q 2419 3097 1959 3097 
z
M 1959 3584 
Q 2709 3584 3137 3096 
Q 3566 2609 3566 1747 
Q 3566 888 3137 398 
Q 2709 -91 1959 -91 
Q 1206 -91 779 398 
Q 353 888 353 1747 
Q 353 2609 779 3096 
Q 1206 3584 1959 3584 
z
" transform="scale(0.015625)"/>
       <path id="DejaVuSans-63" d="M 3122 3366 
L 3122 2828 
Q 2878 2963 2633 3030 
Q 2388 3097 2138 3097 
Q 1578 3097 1268 2742 
Q 959 2388 959 1747 
Q 959 1106 1268 751 
Q 1578 397 2138 397 
Q 2388 397 2633 464 
Q 2878 531 3122 666 
L 3122 134 
Q 2881 22 2623 -34 
Q 2366 -91 2075 -91 
Q 1284 -91 818 406 
Q 353 903 353 1747 
Q 353 2603 823 3093 
Q 1294 3584 2113 3584 
Q 2378 3584 2631 3529 
Q 2884 3475 3122 3366 
z
" transform="scale(0.015625)"/>
       <path id="DejaVuSans-68" d="M 3513 2113 
L 3513 0 
L 2938 0 
L 2938 2094 
Q 2938 2591 2744 2837 
Q 2550 3084 2163 3084 
Q 1697 3084 1428 2787 
Q 1159 2491 1159 1978 
L 1159 0 
L 581 0 
L 581 4863 
L 1159 4863 
L 1159 2956 
Q 1366 3272 1645 3428 
Q 1925 3584 2291 3584 
Q 2894 3584 3203 3211 
Q 3513 2838 3513 2113 
z
" transform="scale(0.015625)"/>
      </defs>
      <use xlink:href="#DejaVuSans-45"/>
      <use xlink:href="#DejaVuSans-70" x="63.183594"/>
      <use xlink:href="#DejaVuSans-6f" x="126.660156"/>
      <use xlink:href="#DejaVuSans-63" x="187.841797"/>
      <use xlink:href="#DejaVuSans-68" x="242.822266"/>
     </g>
    </g>
   </g>
   <g id="matplotlib.axis_2">
    <g id="ytick_1">
     <g id="line2d_7">
      <defs>
       <path id="m932f68e952" d="M 0 0 
L -3.5 0 
" style="stroke: #000000; stroke-width: 0.8"/>
      </defs>
      <g>
       <use xlink:href="#m932f68e952" x="57.6" y="261.869274" style="stroke: #000000; stroke-width: 0.8"/>
      </g>
     </g>
     <g id="text_8">
      <!-- 1.0 -->
      <g transform="translate(34.696875 265.668492) scale(0.1 -0.1)">
       <defs>
        <path id="DejaVuSans-2e" d="M 684 794 
L 1344 794 
L 1344 0 
L 684 0 
L 684 794 
z
" transform="scale(0.015625)"/>
       </defs>
       <use xlink:href="#DejaVuSans-31"/>
       <use xlink:href="#DejaVuSans-2e" x="63.623047"/>
       <use xlink:href="#DejaVuSans-30" x="95.410156"/>
      </g>
     </g>
    </g>
    <g id="ytick_2">
     <g id="line2d_8">
      <g>
       <use xlink:href="#m932f68e952" x="57.6" y="210.912118" style="stroke: #000000; stroke-width: 0.8"/>
      </g>
     </g>
     <g id="text_9">
      <!-- 1.5 -->
      <g transform="translate(34.696875 214.711337) scale(0.1 -0.1)">
       <defs>
        <path id="DejaVuSans-35" d="M 691 4666 
L 3169 4666 
L 3169 4134 
L 1269 4134 
L 1269 2991 
Q 1406 3038 1543 3061 
Q 1681 3084 1819 3084 
Q 2600 3084 3056 2656 
Q 3513 2228 3513 1497 
Q 3513 744 3044 326 
Q 2575 -91 1722 -91 
Q 1428 -91 1123 -41 
Q 819 9 494 109 
L 494 744 
Q 775 591 1075 516 
Q 1375 441 1709 441 
Q 2250 441 2565 725 
Q 2881 1009 2881 1497 
Q 2881 1984 2565 2268 
Q 2250 2553 1709 2553 
Q 1456 2553 1204 2497 
Q 953 2441 691 2322 
L 691 4666 
z
" transform="scale(0.015625)"/>
       </defs>
       <use xlink:href="#DejaVuSans-31"/>
       <use xlink:href="#DejaVuSans-2e" x="63.623047"/>
       <use xlink:href="#DejaVuSans-35" x="95.410156"/>
      </g>
     </g>
    </g>
    <g id="ytick_3">
     <g id="line2d_9">
      <g>
       <use xlink:href="#m932f68e952" x="57.6" y="159.954963" style="stroke: #000000; stroke-width: 0.8"/>
      </g>
     </g>
     <g id="text_10">
      <!-- 2.0 -->
      <g transform="translate(34.696875 163.754182) scale(0.1 -0.1)">
       <use xlink:href="#DejaVuSans-32"/>
       <use xlink:href="#DejaVuSans-2e" x="63.623047"/>
       <use xlink:href="#DejaVuSans-30" x="95.410156"/>
      </g>
     </g>
    </g>
    <g id="ytick_4">
     <g id="line2d_10">
      <g>
       <use xlink:href="#m932f68e952" x="57.6" y="108.997808" style="stroke: #000000; stroke-width: 0.8"/>
      </g>
     </g>
     <g id="text_11">
      <!-- 2.5 -->
      <g transform="translate(34.696875 112.797026) scale(0.1 -0.1)">
       <use xlink:href="#DejaVuSans-32"/>
       <use xlink:href="#DejaVuSans-2e" x="63.623047"/>
       <use xlink:href="#DejaVuSans-35" x="95.410156"/>
      </g>
     </g>
    </g>
    <g id="ytick_5">
     <g id="line2d_11">
      <g>
       <use xlink:href="#m932f68e952" x="57.6" y="58.040652" style="stroke: #000000; stroke-width: 0.8"/>
      </g>
     </g>
     <g id="text_12">
      <!-- 3.0 -->
      <g transform="translate(34.696875 61.839871) scale(0.1 -0.1)">
       <defs>
        <path id="DejaVuSans-33" d="M 2597 2516 
Q 3050 2419 3304 2112 
Q 3559 1806 3559 1356 
Q 3559 666 3084 287 
Q 2609 -91 1734 -91 
Q 1441 -91 1130 -33 
Q 819 25 488 141 
L 488 750 
Q 750 597 1062 519 
Q 1375 441 1716 441 
Q 2309 441 2620 675 
Q 2931 909 2931 1356 
Q 2931 1769 2642 2001 
Q 2353 2234 1838 2234 
L 1294 2234 
L 1294 2753 
L 1863 2753 
Q 2328 2753 2575 2939 
Q 2822 3125 2822 3475 
Q 2822 3834 2567 4026 
Q 2313 4219 1838 4219 
Q 1578 4219 1281 4162 
Q 984 4106 628 3988 
L 628 4550 
Q 988 4650 1302 4700 
Q 1616 4750 1894 4750 
Q 2613 4750 3031 4423 
Q 3450 4097 3450 3541 
Q 3450 3153 3228 2886 
Q 3006 2619 2597 2516 
z
" transform="scale(0.015625)"/>
       </defs>
       <use xlink:href="#DejaVuSans-33"/>
       <use xlink:href="#DejaVuSans-2e" x="63.623047"/>
       <use xlink:href="#DejaVuSans-30" x="95.410156"/>
      </g>
     </g>
    </g>
    <g id="text_13">
     <!-- Loss -->
     <g transform="translate(28.617188 185.495187) rotate(-90) scale(0.1 -0.1)">
      <defs>
       <path id="DejaVuSans-4c" d="M 628 4666 
L 1259 4666 
L 1259 531 
L 3531 531 
L 3531 0 
L 628 0 
L 628 4666 
z
" transform="scale(0.015625)"/>
       <path id="DejaVuSans-73" d="M 2834 3397 
L 2834 2853 
Q 2591 2978 2328 3040 
Q 2066 3103 1784 3103 
Q 1356 3103 1142 2972 
Q 928 2841 928 2578 
Q 928 2378 1081 2264 
Q 1234 2150 1697 2047 
L 1894 2003 
Q 2506 1872 2764 1633 
Q 3022 1394 3022 966 
Q 3022 478 2636 193 
Q 2250 -91 1575 -91 
Q 1294 -91 989 -36 
Q 684 19 347 128 
L 347 722 
Q 666 556 975 473 
Q 1284 391 1588 391 
Q 1994 391 2212 530 
Q 2431 669 2431 922 
Q 2431 1156 2273 1281 
Q 2116 1406 1581 1522 
L 1381 1569 
Q 847 1681 609 1914 
Q 372 2147 372 2553 
Q 372 3047 722 3315 
Q 1072 3584 1716 3584 
Q 2034 3584 2315 3537 
Q 2597 3491 2834 3397 
z
" transform="scale(0.015625)"/>
      </defs>
      <use xlink:href="#DejaVuSans-4c"/>
      <use xlink:href="#DejaVuSans-6f" x="53.962891"/>
      <use xlink:href="#DejaVuSans-73" x="115.144531"/>
      <use xlink:href="#DejaVuSans-73" x="167.244141"/>
     </g>
    </g>
    <g id="text_14">
     <!-- 1e8 -->
     <g transform="translate(57.6 38.472) scale(0.1 -0.1)">
      <defs>
       <path id="DejaVuSans-65" d="M 3597 1894 
L 3597 1613 
L 953 1613 
Q 991 1019 1311 708 
Q 1631 397 2203 397 
Q 2534 397 2845 478 
Q 3156 559 3463 722 
L 3463 178 
Q 3153 47 2828 -22 
Q 2503 -91 2169 -91 
Q 1331 -91 842 396 
Q 353 884 353 1716 
Q 353 2575 817 3079 
Q 1281 3584 2069 3584 
Q 2775 3584 3186 3129 
Q 3597 2675 3597 1894 
z
M 3022 2063 
Q 3016 2534 2758 2815 
Q 2500 3097 2075 3097 
Q 1594 3097 1305 2825 
Q 1016 2553 972 2059 
L 3022 2063 
z
" transform="scale(0.015625)"/>
      </defs>
      <use xlink:href="#DejaVuSans-31"/>
      <use xlink:href="#DejaVuSans-65" x="63.623047"/>
      <use xlink:href="#DejaVuSans-38" x="125.146484"/>
     </g>
    </g>
   </g>
   <g id="line2d_12">
    <path d="M 73.832727 124.784872 
L 74.157707 135.521488 
L 76.432563 157.750385 
L 76.757543 160.074048 
L 77.082523 161.462887 
L 77.732482 165.879478 
L 78.057461 166.989121 
L 78.382441 168.822698 
L 78.70742 168.515227 
L 79.357379 172.744035 
L 79.682359 174.36563 
L 80.007338 174.771673 
L 80.332318 176.42032 
L 80.657297 176.73738 
L 80.982277 177.307627 
L 81.307256 179.245988 
L 81.632236 180.133947 
L 82.282195 182.50454 
L 82.607174 183.392499 
L 82.932154 185.897862 
L 83.257133 185.732125 
L 83.907093 189.601069 
L 84.232072 189.255882 
L 84.557052 191.812659 
L 84.882031 192.599486 
L 85.207011 194.648959 
L 85.53199 194.779605 
L 85.85697 192.327155 
L 86.181949 195.632163 
L 86.506929 196.039608 
L 86.831908 195.90738 
L 87.481867 198.462005 
L 87.806847 199.985339 
L 88.131826 199.312867 
L 88.456806 199.686803 
L 88.781785 200.943268 
L 89.106765 203.057003 
L 89.431744 201.453035 
L 89.756724 203.216756 
L 90.081704 202.455546 
L 90.731663 205.9055 
L 91.056642 206.260668 
L 91.381622 208.097066 
L 91.706601 207.240708 
L 92.031581 207.0367 
L 92.35656 208.107061 
L 92.68154 209.766357 
L 93.006519 208.895699 
L 93.331499 210.066344 
L 93.656478 207.803552 
L 93.981458 212.378266 
L 94.306437 212.706348 
L 94.631417 214.683355 
L 94.956396 213.139688 
L 95.281376 214.38557 
L 95.606355 214.396463 
L 95.931335 213.281602 
L 96.256314 214.845668 
L 96.581294 217.194149 
L 96.906274 216.531364 
L 97.231253 216.892907 
L 97.556233 216.777083 
L 97.881212 218.585124 
L 98.206192 216.949832 
L 98.531171 220.478497 
L 98.856151 219.061692 
L 99.18113 220.068198 
L 99.50611 217.89258 
L 99.831089 220.734668 
L 100.481048 222.47093 
L 100.806028 222.151261 
L 101.131007 225.337543 
L 101.455987 223.468027 
L 101.780966 224.700065 
L 102.105946 224.237423 
L 102.430925 224.000688 
L 102.755905 227.827586 
L 103.405864 225.850962 
L 103.730844 228.916838 
L 104.055823 229.378543 
L 104.380803 229.346485 
L 104.705782 227.672881 
L 105.030762 228.049311 
L 105.355741 230.205533 
L 106.0057 228.625168 
L 106.655659 231.577674 
L 106.980639 231.908415 
L 107.305618 233.839055 
L 107.630598 234.061791 
L 107.955577 233.377734 
L 108.280557 233.062354 
L 108.605536 234.375548 
L 108.930516 234.633122 
L 109.255495 235.548892 
L 109.580475 236.00837 
L 109.905455 236.890761 
L 110.230434 237.133089 
L 110.555414 236.056523 
L 110.880393 237.927898 
L 111.205373 238.37774 
L 111.855332 238.464791 
L 112.180311 240.105024 
L 112.505291 238.769172 
L 112.83027 240.615998 
L 113.15525 240.771536 
L 113.480229 238.640858 
L 113.805209 240.548172 
L 114.130188 240.402377 
L 114.455168 239.756877 
L 114.780147 240.993448 
L 115.105127 243.652938 
L 115.755086 243.304913 
L 116.080066 240.817552 
L 116.405045 242.902213 
L 116.730025 243.815202 
L 117.055004 242.703521 
L 117.379984 243.322361 
L 118.029943 247.27547 
L 118.354922 243.221123 
L 118.679902 244.278097 
L 119.004881 245.838682 
L 119.329861 246.240404 
L 119.65484 247.940889 
L 119.97982 247.821421 
L 120.304799 247.148216 
L 120.629779 249.634069 
L 120.954758 244.80475 
L 121.604717 249.174566 
L 122.254676 247.031357 
L 122.579656 249.663926 
L 122.904636 250.549349 
L 123.229615 250.385822 
L 123.554595 250.064727 
L 124.204554 250.718739 
L 124.529533 248.841999 
L 124.854513 250.476411 
L 125.179492 251.223231 
L 125.504472 252.646518 
L 125.829451 253.363554 
L 126.154431 255.315034 
L 126.47941 253.138796 
L 126.80439 252.938188 
L 127.129369 253.769222 
L 127.454349 252.540339 
L 127.779328 254.134426 
L 128.104308 254.699846 
L 128.429287 252.198356 
L 128.754267 254.559898 
L 129.079247 254.687185 
L 129.404226 252.932497 
L 129.729206 254.885746 
L 130.054185 254.64999 
L 130.379165 251.749117 
L 130.704144 255.105253 
L 131.029124 256.611726 
L 131.354103 257.238646 
L 131.679083 256.681313 
L 132.004062 258.590829 
L 132.329042 255.212068 
L 132.979001 256.707395 
L 133.30398 258.480297 
L 133.62896 258.067169 
L 133.953939 258.485547 
L 134.278919 257.377013 
L 134.603898 257.127193 
L 134.928878 257.991247 
L 135.253857 259.588448 
L 135.578837 259.096878 
L 135.903817 259.728413 
L 136.553776 260.24423 
L 137.528714 260.043254 
L 137.853694 260.377061 
L 138.178673 261.599869 
L 138.503653 260.721425 
L 138.828632 258.7207 
L 139.478591 264.123439 
L 139.803571 260.69977 
L 140.12855 262.382278 
L 140.45353 262.17734 
L 140.778509 262.996136 
L 141.103489 261.657373 
L 141.753448 263.466801 
L 142.403407 262.392061 
L 142.728387 264.494497 
L 143.053366 262.320844 
L 143.378346 266.070589 
L 144.028305 263.016666 
L 144.353284 264.296921 
L 144.678264 264.386459 
L 145.003243 266.395492 
L 145.328223 267.175707 
L 145.978182 264.490265 
L 146.303161 266.635145 
L 146.628141 266.698104 
L 146.95312 265.001655 
L 147.2781 268.429751 
L 147.603079 269.204625 
L 147.928059 267.532505 
L 148.253038 265.066953 
L 148.578018 267.753708 
L 148.902998 266.469009 
L 149.227977 267.038938 
L 149.552957 267.268156 
L 149.877936 266.859797 
L 150.202916 268.629413 
L 150.527895 268.089927 
L 151.177854 269.90004 
L 151.502834 264.556257 
L 151.827813 268.240043 
L 152.152793 268.877888 
L 152.477772 268.723655 
L 152.802752 268.827176 
L 153.127731 267.292746 
L 153.77769 270.442395 
L 154.10267 268.481352 
L 154.427649 269.847582 
L 154.752629 269.777596 
L 155.077609 269.183762 
L 155.402588 270.903847 
L 155.727568 267.683656 
L 156.052547 271.76967 
L 156.377527 270.676464 
L 156.702506 268.934006 
L 157.027486 271.50329 
L 157.352465 270.997616 
L 157.677445 268.928495 
L 158.002424 271.351634 
L 158.327404 272.383422 
L 158.652383 271.222056 
L 158.977363 272.244028 
L 159.302342 270.027563 
L 159.627322 270.393142 
L 159.952301 272.928819 
L 160.277281 270.362543 
L 160.60226 273.944562 
L 160.92724 270.676831 
L 161.252219 272.022931 
L 161.577199 271.83302 
L 161.902179 271.874528 
L 162.227158 272.273869 
L 162.552138 273.354209 
L 162.877117 272.688317 
L 163.202097 272.921457 
L 163.527076 271.883439 
L 163.852056 271.5798 
L 164.177035 274.702038 
L 164.502015 271.938228 
L 164.826994 274.300471 
L 165.151974 274.709808 
L 165.476953 270.786009 
L 165.801933 273.086615 
L 166.126912 274.156495 
L 166.451892 272.959018 
L 166.776871 275.92364 
L 167.101851 274.175867 
L 167.42683 274.101086 
L 167.75181 274.249946 
L 168.07679 276.30202 
L 168.401769 274.565742 
L 168.726749 275.684272 
L 169.051728 275.237178 
L 169.376708 274.469649 
L 169.701687 274.504463 
L 170.026667 274.158794 
L 170.351646 274.540769 
L 170.676626 275.26644 
L 171.001605 274.790076 
L 171.326585 275.45 
L 171.651564 276.909926 
L 172.301523 275.573821 
L 172.626503 275.621843 
L 172.951482 276.032656 
L 173.276462 277.332479 
L 173.601441 278.040686 
L 174.2514 273.895774 
L 174.57638 276.859654 
L 175.226339 277.329577 
L 175.551319 276.783398 
L 175.876298 275.376581 
L 176.201278 276.29694 
L 176.526257 274.935952 
L 176.851237 277.170778 
L 177.176216 278.5178 
L 177.501196 276.719028 
L 178.151155 278.326551 
L 178.476134 277.837118 
L 178.801114 276.823413 
L 179.126093 278.06305 
L 179.451073 276.948809 
L 179.776052 277.701213 
L 180.101032 276.651741 
L 180.426011 278.287025 
L 180.750991 275.868737 
L 181.075971 276.917085 
L 181.40095 279.152392 
L 181.72593 276.843087 
L 182.375889 279.510111 
L 182.700868 278.48681 
L 183.350827 279.249708 
L 183.675807 276.638557 
L 184.000786 279.823363 
L 184.650745 277.113192 
L 184.975725 279.8752 
L 185.300704 279.063905 
L 185.625684 280.077439 
L 185.950663 278.900867 
L 186.275643 280.434099 
L 186.600622 276.873906 
L 186.925602 279.205363 
L 187.250581 279.876627 
L 187.900541 279.486988 
L 188.22552 278.108398 
L 188.5505 279.742761 
L 188.875479 280.138922 
L 189.200459 278.306283 
L 189.525438 277.618524 
L 189.850418 279.608748 
L 190.175397 279.991424 
L 190.500377 279.71729 
L 190.825356 281.32187 
L 191.150336 280.499903 
L 191.475315 280.270106 
L 191.800295 280.803583 
L 192.125274 276.258229 
L 192.450254 279.904218 
L 192.775233 281.114772 
L 193.100213 281.552498 
L 193.425192 279.463646 
L 193.750172 281.048063 
L 194.075152 281.686617 
L 194.400131 280.920238 
L 194.725111 280.538834 
L 195.05009 280.354809 
L 195.37507 281.139729 
L 195.700049 280.303787 
L 196.025029 281.996494 
L 196.350008 280.560847 
L 196.674988 280.627238 
L 196.999967 281.75724 
L 197.324947 280.828719 
L 197.649926 280.714118 
L 197.974906 280.22568 
L 198.299885 281.80964 
L 198.624865 282.065388 
L 198.949844 281.151265 
L 199.274824 281.985088 
L 199.599803 279.326078 
L 199.924783 281.07205 
L 200.249762 282.0803 
L 200.574742 281.549938 
L 200.899722 281.409688 
L 201.224701 280.760811 
L 201.549681 282.711386 
L 201.87466 281.218235 
L 202.19964 281.518181 
L 202.524619 281.986686 
L 202.849599 280.908285 
L 203.174578 282.516958 
L 203.499558 280.55664 
L 203.824537 281.606961 
L 204.149517 281.928546 
L 204.474496 282.483261 
L 204.799476 281.099787 
L 205.124455 282.251125 
L 205.449435 282.180902 
L 205.774414 280.593411 
L 206.099394 283.929417 
L 206.424373 282.605469 
L 206.749353 282.987623 
L 207.074333 282.423792 
L 207.399312 283.372068 
L 208.049271 283.204146 
L 208.374251 282.834148 
L 208.69923 282.897539 
L 209.02421 283.444411 
L 209.349189 282.636695 
L 209.674169 282.441533 
L 209.999148 283.06763 
L 210.324128 281.637274 
L 210.649107 281.863614 
L 210.974087 283.687733 
L 211.299066 282.365293 
L 211.624046 283.556036 
L 211.949025 283.481785 
L 212.598984 280.718056 
L 213.248943 285.095145 
L 213.573923 283.731728 
L 213.898903 284.627864 
L 214.223882 283.743256 
L 214.548862 283.206828 
L 214.873841 282.095082 
L 215.198821 282.875868 
L 215.5238 284.553964 
L 215.84878 283.157167 
L 216.173759 284.754148 
L 216.498739 283.985274 
L 216.823718 281.497872 
L 217.148698 284.706183 
L 217.473677 284.096695 
L 217.798657 284.196954 
L 218.123636 283.849956 
L 218.448616 282.534601 
L 218.773595 284.547784 
L 219.098575 285.065085 
L 219.423554 283.333871 
L 219.748534 284.06895 
L 220.073514 285.646673 
L 220.398493 283.707333 
L 220.723473 283.520455 
L 221.048452 285.023373 
L 221.373432 284.264723 
L 221.698411 282.86579 
L 222.023391 284.177509 
L 222.34837 282.375501 
L 222.67335 285.390363 
L 222.998329 282.72095 
L 223.323309 285.637003 
L 223.648288 283.87113 
L 223.973268 284.158471 
L 224.298247 285.462453 
L 224.623227 285.125524 
L 224.948206 285.148826 
L 225.273186 284.866409 
L 225.598165 285.195617 
L 225.923145 284.95099 
L 226.248124 284.859308 
L 226.573104 285.474153 
L 226.898084 283.406931 
L 227.223063 284.33056 
L 227.548043 284.901378 
L 227.873022 285.093988 
L 228.198002 286.487466 
L 228.522981 285.112349 
L 228.847961 284.229045 
L 229.17294 285.848684 
L 229.822899 284.741364 
L 230.147879 286.337954 
L 230.797838 284.756757 
L 231.122817 284.847445 
L 231.447797 285.680321 
L 231.772776 285.825496 
L 232.097756 285.086911 
L 232.422735 283.671003 
L 232.747715 285.897651 
L 233.072695 284.418345 
L 233.397674 285.684985 
L 233.722654 284.848929 
L 234.047633 285.739676 
L 234.372613 284.002078 
L 234.697592 286.043185 
L 235.022572 285.475123 
L 235.347551 286.126266 
L 235.672531 285.0957 
L 235.99751 287.771766 
L 236.32249 283.677444 
L 236.647469 286.53641 
L 236.972449 284.550907 
L 237.297428 284.115007 
L 237.622408 286.117949 
L 237.947387 285.728392 
L 238.272367 286.505085 
L 238.597346 284.107245 
L 239.247305 286.172078 
L 239.572285 285.921149 
L 240.222244 286.814848 
L 240.547224 286.168246 
L 240.872203 284.520235 
L 241.197183 286.60342 
L 241.522162 285.816642 
L 241.847142 285.9015 
L 242.172121 287.391169 
L 242.497101 285.708303 
L 242.82208 287.583249 
L 243.14706 285.844982 
L 243.472039 287.18134 
L 243.797019 285.425886 
L 244.121998 286.082907 
L 244.446978 287.101235 
L 244.771957 285.936892 
L 245.421916 288.197792 
L 246.071876 286.783711 
L 246.396855 286.906791 
L 246.721835 288.16584 
L 247.046814 286.253854 
L 247.371794 287.712011 
L 247.696773 286.55614 
L 248.021753 287.125906 
L 248.346732 287.065655 
L 248.996691 286.675127 
L 249.321671 286.766891 
L 249.64665 287.076898 
L 249.97163 286.346294 
L 250.621589 287.789189 
L 250.946568 287.094965 
L 251.271548 286.756765 
L 251.596527 288.176358 
L 251.921507 288.009055 
L 252.246486 287.508232 
L 252.571466 287.308985 
L 252.896446 288.229051 
L 253.221425 286.722823 
L 253.546405 286.65101 
L 253.871384 287.511795 
L 254.196364 287.995961 
L 254.521343 287.273323 
L 254.846323 286.037494 
L 255.171302 288.77987 
L 255.496282 283.391962 
L 255.821261 287.371292 
L 256.146241 287.320726 
L 256.47122 288.533245 
L 256.7962 287.490442 
L 257.121179 287.302764 
L 257.446159 286.626061 
L 257.771138 288.000331 
L 258.421097 287.849734 
L 258.746077 287.806979 
L 259.071057 286.753071 
L 259.396036 286.990026 
L 260.045995 288.549617 
L 260.370975 286.974527 
L 260.695954 288.146917 
L 261.020934 287.931625 
L 261.670893 288.467082 
L 261.995872 287.935595 
L 262.320852 288.737106 
L 262.645831 287.171181 
L 262.970811 289.333215 
L 263.62077 286.140746 
L 263.945749 288.852865 
L 264.270729 288.103428 
L 264.595708 288.305772 
L 264.920688 288.077264 
L 265.245667 288.375677 
L 265.570647 288.28256 
L 265.895627 287.699072 
L 266.220606 288.726564 
L 266.870565 288.274049 
L 267.195545 287.985704 
L 267.520524 288.918432 
L 267.845504 288.7389 
L 268.170483 289.764655 
L 268.495463 288.418791 
L 269.145422 288.859754 
L 269.795381 288.113546 
L 270.12036 288.584219 
L 270.44534 288.778418 
L 270.770319 289.309343 
L 271.095299 287.947303 
L 271.420278 289.06536 
L 271.745258 288.151971 
L 272.070238 289.22795 
L 272.395217 287.650284 
L 272.720197 289.364687 
L 273.045176 289.77223 
L 273.370156 289.020012 
L 273.695135 287.352971 
L 274.020115 289.086591 
L 274.345094 287.760841 
L 274.670074 288.50903 
L 274.995053 288.533653 
L 275.645012 290.004847 
L 275.969992 286.626428 
L 276.294971 289.115632 
L 276.94493 288.757987 
L 277.26991 289.009544 
L 277.594889 288.185742 
L 277.919869 289.8007 
L 278.244848 287.784338 
L 278.569828 290.333557 
L 278.894808 288.727722 
L 279.219787 290.078299 
L 279.544767 289.048173 
L 279.869746 290.526811 
L 280.194726 289.366798 
L 280.519705 289.1699 
L 280.844685 288.673952 
L 281.169664 290.188228 
L 281.494644 289.279103 
L 281.819623 289.582278 
L 282.144603 289.705406 
L 282.469582 289.333313 
L 282.794562 289.300195 
L 283.119541 290.676674 
L 283.444521 289.239079 
L 283.7695 288.786139 
L 284.09448 288.568883 
L 284.419459 289.089159 
L 284.744439 287.553792 
L 285.069419 289.779551 
L 285.394398 289.118551 
L 285.719378 288.897275 
L 286.044357 290.071735 
L 286.369337 289.41032 
L 286.694316 289.716788 
L 287.019296 288.885428 
L 287.344275 290.859517 
L 287.669255 288.198893 
L 287.994234 289.306196 
L 288.319214 288.70654 
L 288.644193 290.224754 
L 288.969173 290.426691 
L 289.294152 290.167535 
L 289.619132 289.688538 
L 289.944111 290.214945 
L 290.59407 288.767037 
L 290.91905 291.340593 
L 291.244029 289.310468 
L 291.569009 289.856256 
L 291.893989 291.295327 
L 292.218968 290.528067 
L 292.543948 290.376565 
L 292.868927 290.013864 
L 293.193907 290.218916 
L 293.518886 289.365111 
L 293.843866 291.246489 
L 294.493825 288.885339 
L 294.818804 290.000567 
L 295.143784 290.164706 
L 295.468763 289.530081 
L 296.118722 291.430522 
L 296.443702 290.143108 
L 296.768681 289.602938 
L 297.093661 287.89805 
L 297.41864 289.211016 
L 297.74362 289.08876 
L 298.0686 290.078617 
L 298.393579 289.391755 
L 298.718559 289.5055 
L 299.043538 290.22892 
L 299.368518 290.388355 
L 299.693497 289.157695 
L 300.018477 290.454265 
L 300.343456 290.900731 
L 300.668436 289.363276 
L 300.993415 290.736934 
L 301.318395 290.025287 
L 301.643374 289.871519 
L 301.968354 289.577769 
L 302.293333 290.518145 
L 302.618313 289.731823 
L 302.943292 290.101535 
L 303.268272 291.198525 
L 303.593251 290.221753 
L 303.918231 291.255287 
L 304.24321 291.221737 
L 304.56819 289.97936 
L 304.89317 291.132133 
L 305.218149 289.829294 
L 305.543129 290.626908 
L 305.868108 291.024708 
L 306.193088 291.117572 
L 306.518067 290.791903 
L 306.843047 290.275026 
L 307.168026 290.647674 
L 307.493006 291.451215 
L 307.817985 288.911135 
L 308.142965 290.842314 
L 308.467944 290.16981 
L 308.792924 290.891974 
L 309.117903 290.514826 
L 309.442883 291.150747 
L 309.767862 290.851608 
L 310.417821 291.014198 
L 311.067781 290.363365 
L 311.39276 291.887278 
L 311.71774 290.985752 
L 312.042719 291.011565 
L 312.367699 291.627307 
L 313.342637 290.60884 
L 313.667617 291.117132 
L 313.992596 291.12897 
L 314.317576 286.995635 
L 314.642555 289.859452 
L 314.967535 291.612134 
L 315.292514 290.93327 
L 315.617494 289.498602 
L 315.942473 290.997476 
L 316.267453 290.954721 
L 316.592432 291.16888 
L 316.917412 291.842647 
L 317.242391 289.835343 
L 317.567371 291.194831 
L 317.892351 292.039252 
L 318.21733 291.648505 
L 318.54231 289.892081 
L 318.867289 290.48245 
L 319.192269 292.361913 
L 319.517248 290.829464 
L 319.842228 291.221989 
L 320.167207 291.106475 
L 320.492187 290.408958 
L 320.817166 290.791674 
L 321.142146 291.439898 
L 321.467125 291.451052 
L 321.792105 290.723033 
L 322.442064 290.458146 
L 322.767043 291.089998 
L 323.092023 292.188683 
L 323.417002 292.758776 
L 323.741982 290.608987 
L 324.066962 291.943967 
L 324.716921 291.371591 
L 325.0419 291.905671 
L 325.36688 291.130943 
L 325.691859 291.997076 
L 326.016839 290.508964 
L 326.341818 292.103784 
L 326.666798 291.086924 
L 326.991777 292.489624 
L 327.641736 290.220449 
L 327.966716 291.413107 
L 328.291695 291.156144 
L 328.616675 291.906429 
L 329.266634 290.764997 
L 329.591613 292.485074 
L 329.916593 292.487325 
L 330.241572 292.044144 
L 330.566552 291.39292 
L 330.891532 292.90223 
L 331.216511 292.627135 
L 331.541491 291.454501 
L 331.86647 292.375154 
L 332.19145 292.713248 
L 332.516429 291.258858 
L 332.841409 291.509518 
L 333.166388 290.645692 
L 333.491368 292.895341 
L 333.816347 292.629882 
L 334.141327 290.781507 
L 334.466306 292.268421 
L 334.791286 291.520411 
L 335.116265 291.728022 
L 335.441245 291.77412 
L 335.766224 292.151097 
L 336.091204 293.395724 
L 336.416183 291.425166 
L 336.741163 292.578713 
L 338.366061 292.067536 
L 339.01602 291.638998 
L 339.340999 293.762102 
L 339.665979 291.977729 
L 339.990958 292.794731 
L 340.315938 292.552827 
L 340.965897 293.091424 
L 341.290876 292.515575 
L 341.940835 293.226954 
L 342.265815 292.133234 
L 342.590794 291.972918 
L 342.915774 292.50699 
L 343.240753 292.604738 
L 343.565733 292.018348 
L 343.890713 293.453228 
L 344.215692 293.179078 
L 344.540672 291.980974 
L 344.865651 292.165887 
L 345.190631 292.691667 
L 345.51561 292.474337 
L 345.84059 292.710028 
L 346.165569 293.14883 
L 346.490549 292.042383 
L 346.815528 292.005409 
L 347.140508 291.67744 
L 347.465487 291.706074 
L 347.790467 293.289081 
L 348.115446 293.822557 
L 348.440426 293.767197 
L 348.765405 292.296875 
L 349.090385 292.615574 
L 349.415364 292.369137 
L 350.065324 293.492477 
L 350.390303 292.731772 
L 350.715283 292.256566 
L 351.040262 292.719037 
L 351.365242 292.850246 
L 351.690221 292.203179 
L 352.015201 292.397681 
L 352.34018 293.402972 
L 352.66516 293.196078 
L 352.990139 293.429258 
L 353.315119 292.864285 
L 353.640098 292.664101 
L 353.965078 293.271258 
L 354.290057 292.218524 
L 354.615037 292.571237 
L 354.940016 292.003607 
L 355.264996 293.981698 
L 355.589975 292.835488 
L 355.914955 293.094816 
L 356.239934 292.573715 
L 356.564914 292.328958 
L 356.889894 292.433522 
L 357.214873 292.810809 
L 357.539853 291.946747 
L 357.864832 293.140408 
L 358.189812 292.469184 
L 358.514791 293.327751 
L 358.839771 293.609695 
L 359.16475 293.346136 
L 359.48973 292.006036 
L 359.814709 293.22035 
L 360.139689 293.324318 
L 360.464668 292.93662 
L 360.789648 293.228788 
L 361.114627 292.882377 
L 361.439607 292.719771 
L 361.764586 294.173949 
L 362.089566 293.506566 
L 362.414545 293.58923 
L 362.739525 292.488311 
L 363.064505 293.712294 
L 363.389484 292.689955 
L 363.714464 294.091921 
L 364.039443 293.919196 
L 364.364423 293.282958 
L 364.689402 292.90444 
L 365.014382 293.544176 
L 365.664341 292.835391 
L 365.98932 293.511767 
L 366.3143 293.748975 
L 366.639279 292.435487 
L 366.964259 293.776647 
L 367.289238 293.257161 
L 367.614218 293.646612 
L 367.939197 293.144908 
L 368.264177 293.288314 
L 368.589156 292.349732 
L 369.239115 293.946338 
L 369.564095 293.55846 
L 369.889075 292.416507 
L 370.214054 293.021706 
L 370.864013 293.547747 
L 371.188993 293.362108 
L 371.513972 292.931655 
L 371.838952 293.94549 
L 372.163931 293.537564 
L 372.488911 293.44355 
L 373.13887 293.910293 
L 373.463849 293.131635 
L 373.788829 292.827531 
L 374.113808 292.161949 
L 374.438788 293.474271 
L 374.763767 293.824261 
L 375.088747 293.366323 
L 375.413726 293.178581 
L 375.738706 293.585366 
L 376.063686 292.995306 
L 376.388665 293.46112 
L 376.713645 293.376702 
L 377.038624 294.480818 
L 377.363604 292.964569 
L 378.013563 293.946159 
L 378.338542 293.745909 
L 378.988501 293.636356 
L 379.313481 294.36607 
L 379.63846 293.139087 
L 379.96344 293.575248 
L 380.288419 293.569133 
L 380.613399 293.736444 
L 380.938378 294.056667 
L 381.263358 294.590697 
L 381.913317 293.600457 
L 382.238296 292.854412 
L 382.563276 294.246684 
L 382.888256 294.36391 
L 383.213235 294.223936 
L 383.538215 293.929632 
L 383.863194 294.106792 
L 384.513153 293.263961 
L 384.838133 293.263186 
L 385.163112 294.433798 
L 385.488092 293.717023 
L 385.813071 293.424415 
L 386.138051 294.054653 
L 386.46303 293.251927 
L 386.78801 293.586524 
L 387.112989 294.153192 
L 387.437969 292.662723 
L 387.762948 294.620399 
L 388.087928 294.365198 
L 388.412907 293.402638 
L 388.737887 294.083841 
L 389.062867 293.361717 
L 389.387846 294.838178 
L 389.712826 293.17024 
L 390.362785 293.700994 
L 390.687764 294.540849 
L 391.012744 293.806593 
L 391.337723 295.488 
L 391.662703 292.549427 
L 391.987682 294.435029 
L 392.312662 295.041868 
L 392.637641 294.179494 
L 392.962621 294.509998 
L 393.2876 293.653746 
L 393.61258 294.811387 
L 393.937559 294.752016 
L 394.262539 293.304767 
L 394.587518 294.614195 
L 394.912498 294.998656 
L 395.237477 294.836164 
L 395.562457 294.93538 
L 395.887437 294.369283 
L 396.212416 293.486444 
L 396.537396 294.513365 
L 396.862375 294.193949 
L 397.187355 293.517336 
L 397.512334 294.062186 
L 397.837314 294.33552 
L 398.162293 295.185111 
L 398.487273 293.781123 
L 398.487273 293.781123 
" clip-path="url(#p886d399d4d)" style="fill: none; stroke: #1f77b4; stroke-width: 1.5; stroke-linecap: square"/>
   </g>
   <g id="line2d_13">
    <path d="M 73.832727 205.222365 
L 74.157707 186.378947 
L 74.482686 211.825727 
L 74.807666 215.540447 
L 75.132645 217.06577 
L 75.457625 181.215756 
L 75.782604 225.040882 
L 76.107584 207.285241 
L 76.432563 218.919061 
L 76.757543 224.951067 
L 77.082523 219.522345 
L 77.407502 225.442653 
L 77.732482 161.362179 
L 78.382441 215.527695 
L 78.70742 205.571466 
L 79.0324 150.68213 
L 79.357379 211.514717 
L 79.682359 202.24314 
L 80.007338 230.883483 
L 80.332318 204.297423 
L 80.657297 235.855784 
L 80.982277 220.507163 
L 81.307256 174.311819 
L 81.632236 226.312398 
L 81.957215 204.957925 
L 82.282195 214.05403 
L 82.607174 198.145321 
L 82.932154 206.712156 
L 83.257133 227.039805 
L 83.582113 231.612284 
L 83.907093 193.076723 
L 84.232072 233.221699 
L 84.557052 209.289496 
L 84.882031 219.004033 
L 85.207011 224.672719 
L 85.53199 215.225523 
L 85.85697 210.852258 
L 86.181949 209.213574 
L 86.506929 223.425092 
L 86.831908 212.463319 
L 87.156888 197.428089 
L 87.481867 163.684961 
L 87.806847 231.650572 
L 88.131826 242.310866 
L 88.456806 220.580525 
L 88.781785 237.601992 
L 89.106765 216.5018 
L 89.431744 234.030605 
L 89.756724 210.679949 
L 90.406683 185.853998 
L 90.731663 228.30338 
L 91.056642 201.532838 
L 91.381622 160.472117 
L 91.706601 237.087374 
L 92.031581 191.863323 
L 92.35656 236.450988 
L 92.68154 104.041397 
L 93.006519 152.591157 
L 93.331499 222.76459 
L 93.656478 219.700784 
L 93.981458 155.543378 
L 94.306437 230.642207 
L 94.956396 94.039624 
L 95.281376 228.126106 
L 95.606355 237.394495 
L 95.931335 221.072567 
L 96.256314 218.450418 
L 96.581294 237.077215 
L 96.906274 236.414609 
L 97.231253 228.552556 
L 97.556233 238.292482 
L 97.881212 222.857454 
L 98.206192 229.147393 
L 98.531171 239.188863 
L 98.856151 214.188329 
L 99.18113 203.03724 
L 99.50611 238.920103 
L 99.831089 167.212191 
L 100.156069 227.609832 
L 100.481048 159.416285 
L 100.806028 220.942753 
L 101.131007 201.005672 
L 101.455987 202.707918 
L 101.780966 228.047852 
L 102.105946 199.582769 
L 102.755905 236.830729 
L 103.080885 237.031297 
L 103.730844 204.196585 
L 104.055823 215.207244 
L 104.380803 241.556912 
L 104.705782 231.197143 
L 105.030762 129.777532 
L 105.355741 212.027159 
L 105.680721 226.702167 
L 106.0057 185.523796 
L 106.33068 222.71629 
L 106.655659 232.274907 
L 106.980639 224.687786 
L 107.305618 238.687453 
L 107.630598 195.504599 
L 107.955577 235.252476 
L 108.280557 219.365967 
L 108.605536 165.62042 
L 108.930516 224.377885 
L 109.255495 215.867714 
L 109.580475 231.639125 
L 109.905455 237.826033 
L 110.230434 187.778515 
L 110.555414 235.052887 
L 110.880393 233.753863 
L 111.205373 212.164539 
L 111.530352 213.371433 
L 111.855332 232.711002 
L 112.180311 188.698957 
L 112.505291 225.013602 
L 112.83027 244.427822 
L 113.15525 237.878702 
L 113.480229 245.913153 
L 113.805209 215.083773 
L 114.130188 144.518597 
L 114.455168 241.534303 
L 114.780147 225.899441 
L 115.105127 166.078855 
L 115.430106 241.721238 
L 115.755086 198.913983 
L 116.080066 224.767785 
L 116.405045 208.919131 
L 116.730025 244.580701 
L 117.055004 215.70333 
L 117.379984 217.046235 
L 117.704963 204.382265 
L 118.029943 229.091838 
L 118.354922 229.65385 
L 119.004881 224.18958 
L 119.329861 213.378885 
L 119.65484 237.177548 
L 119.97982 228.453079 
L 120.304799 203.150748 
L 120.629779 217.627244 
L 120.954758 166.326368 
L 121.279738 216.247341 
L 121.604717 208.553642 
L 121.929697 233.538767 
L 122.254676 215.986587 
L 122.579656 168.833281 
L 122.904636 214.952833 
L 123.229615 210.651283 
L 123.554595 236.610969 
L 123.879574 53.568 
L 124.204554 230.048047 
L 124.529533 251.75308 
L 124.854513 225.964764 
L 125.179492 212.729112 
L 125.504472 212.65919 
L 125.829451 232.290789 
L 126.154431 208.854656 
L 126.47941 219.214009 
L 126.80439 235.408014 
L 127.129369 228.660732 
L 127.454349 234.287176 
L 127.779328 172.840242 
L 128.104308 225.417297 
L 128.429287 183.824697 
L 128.754267 223.559717 
L 129.079247 210.16392 
L 129.404226 240.306121 
L 129.729206 255.162317 
L 130.054185 204.65409 
L 130.379165 203.850794 
L 130.704144 247.760843 
L 131.354103 201.043601 
L 131.679083 248.381779 
L 132.004062 244.441617 
L 132.329042 246.483311 
L 132.654021 234.56815 
L 132.979001 191.81411 
L 133.30398 250.207725 
L 133.62896 242.307091 
L 133.953939 238.63087 
L 134.278919 157.004258 
L 134.603898 222.30591 
L 134.928878 197.588282 
L 135.253857 232.391097 
L 135.578837 246.763314 
L 135.903817 172.974687 
L 136.553776 242.981388 
L 136.878755 236.477519 
L 137.528714 202.723458 
L 137.853694 249.493754 
L 138.178673 223.443111 
L 138.503653 171.399467 
L 138.828632 227.324725 
L 139.153612 232.573133 
L 139.478591 252.253137 
L 139.803571 207.964332 
L 140.12855 231.271124 
L 140.45353 231.970762 
L 140.778509 181.687562 
L 141.103489 244.303592 
L 141.428468 238.317537 
L 141.753448 200.007385 
L 142.078428 247.651534 
L 142.403407 196.773081 
L 142.728387 220.658045 
L 143.053366 224.004536 
L 143.378346 212.137813 
L 143.703325 113.901174 
L 144.028305 243.411255 
L 144.353284 246.828923 
L 144.678264 223.767426 
L 145.003243 245.739149 
L 145.328223 223.457167 
L 145.653202 251.894586 
L 145.978182 155.046802 
L 146.303161 257.431329 
L 146.628141 234.499419 
L 146.95312 232.978001 
L 147.2781 225.745249 
L 147.603079 256.534565 
L 147.928059 249.383678 
L 148.253038 217.529276 
L 148.578018 215.98163 
L 148.902998 244.066996 
L 149.227977 250.459216 
L 149.552957 242.636812 
L 149.877936 248.497162 
L 150.202916 204.770811 
L 150.527895 256.919744 
L 150.852875 254.845698 
L 151.177854 223.518119 
L 151.502834 247.917588 
L 151.827813 260.894321 
L 152.152793 254.177042 
L 152.802752 246.320052 
L 153.127731 217.108003 
L 153.452711 228.632685 
L 153.77769 199.583927 
L 154.10267 203.486071 
L 154.427649 244.662917 
L 154.752629 258.367963 
L 155.077609 251.915278 
L 155.402588 230.553876 
L 155.727568 248.136092 
L 156.052547 201.252484 
L 156.377527 223.19351 
L 156.702506 262.154479 
L 157.027486 251.335883 
L 157.352465 202.431951 
L 157.677445 231.506962 
L 158.002424 218.726369 
L 158.327404 238.95274 
L 158.652383 236.93553 
L 158.977363 240.379752 
L 159.302342 253.819364 
L 159.627322 205.453702 
L 159.952301 234.359226 
L 160.277281 218.880252 
L 160.60226 224.093878 
L 160.92724 258.571954 
L 161.252219 182.016639 
L 161.577199 236.922314 
L 161.902179 258.400681 
L 162.227158 236.990678 
L 162.552138 256.335155 
L 162.877117 246.11306 
L 163.202097 230.007044 
L 163.527076 260.878406 
L 163.852056 107.822466 
L 164.502015 232.58961 
L 164.826994 232.665426 
L 165.151974 242.807914 
L 165.476953 243.99948 
L 165.801933 237.796869 
L 166.126912 179.637372 
L 166.451892 228.660846 
L 166.776871 233.330413 
L 167.101851 232.823997 
L 167.42683 206.547675 
L 167.75181 257.774283 
L 168.07679 236.04731 
L 168.726749 256.14769 
L 169.051728 201.335728 
L 169.376708 245.220992 
L 169.701687 254.229883 
L 170.026667 259.126262 
L 170.351646 225.913986 
L 170.676626 259.302028 
L 171.001605 227.058492 
L 171.326585 239.584014 
L 171.651564 207.228984 
L 171.976544 234.431479 
L 172.301523 251.520079 
L 172.626503 241.224133 
L 173.276462 254.707722 
L 173.601441 255.523037 
L 173.926421 251.499541 
L 174.2514 256.193095 
L 174.57638 253.868364 
L 174.90136 216.427965 
L 175.226339 249.376634 
L 175.551319 244.888678 
L 175.876298 234.225669 
L 176.201278 259.582912 
L 176.526257 244.133509 
L 176.851237 259.163163 
L 177.176216 226.204776 
L 177.501196 238.975365 
L 177.826175 241.367588 
L 178.151155 259.296883 
L 178.476134 199.877277 
L 178.801114 264.963661 
L 179.126093 250.223843 
L 179.451073 253.588883 
L 179.776052 258.306732 
L 180.101032 237.55159 
L 180.426011 224.008759 
L 180.750991 231.616475 
L 181.075971 250.044605 
L 181.40095 240.431753 
L 181.72593 250.265074 
L 182.050909 218.951396 
L 182.375889 257.485507 
L 182.700868 257.225992 
L 183.025848 214.024141 
L 183.350827 221.094222 
L 183.675807 223.875455 
L 184.000786 249.241675 
L 184.325766 217.263712 
L 184.650745 254.492651 
L 184.975725 240.754072 
L 185.300704 255.534076 
L 185.625684 249.625802 
L 185.950663 181.095171 
L 186.275643 231.870959 
L 186.600622 240.985229 
L 186.925602 257.224476 
L 187.250581 250.75414 
L 187.575561 249.965609 
L 187.900541 249.714231 
L 188.22552 237.545597 
L 188.5505 260.845239 
L 188.875479 218.79784 
L 189.200459 255.063387 
L 189.525438 254.613203 
L 189.850418 248.513656 
L 190.175397 232.375509 
L 190.500377 234.314628 
L 190.825356 241.886543 
L 191.150336 254.342641 
L 191.475315 256.075575 
L 191.800295 237.469333 
L 192.125274 254.253266 
L 192.450254 229.121792 
L 192.775233 255.602416 
L 193.100213 233.180844 
L 193.425192 258.950399 
L 193.750172 247.72373 
L 194.075152 250.067711 
L 194.400131 250.615545 
L 194.725111 261.322589 
L 195.05009 248.148452 
L 195.37507 257.210844 
L 195.700049 255.160377 
L 196.025029 256.706066 
L 196.350008 220.876403 
L 196.674988 264.106611 
L 196.999967 236.712028 
L 197.324947 240.125798 
L 197.649926 223.548253 
L 197.974906 249.795502 
L 198.299885 256.525458 
L 198.624865 256.711015 
L 198.949844 224.362753 
L 199.274824 244.504649 
L 199.599803 240.24569 
L 199.924783 209.903395 
L 200.249762 253.556506 
L 200.574742 222.297382 
L 200.899722 243.150273 
L 201.224701 254.587154 
L 201.549681 258.08809 
L 202.19964 249.433689 
L 202.524619 253.084741 
L 202.849599 263.80205 
L 203.174578 248.740101 
L 203.499558 244.873391 
L 203.824537 248.168908 
L 204.149517 241.218589 
L 204.474496 258.255653 
L 204.799476 232.3118 
L 205.124455 260.058052 
L 205.449435 237.980714 
L 205.774414 175.964152 
L 206.099394 242.81932 
L 206.424373 243.381846 
L 206.749353 264.815372 
L 207.074333 254.097272 
L 207.399312 257.715833 
L 207.724292 256.207885 
L 208.049271 243.148528 
L 208.374251 262.57302 
L 209.02421 231.205434 
L 209.349189 247.874384 
L 209.674169 256.337732 
L 209.999148 260.603302 
L 210.324128 239.82043 
L 210.649107 229.725174 
L 210.974087 253.29378 
L 211.299066 254.138584 
L 211.624046 247.828743 
L 211.949025 249.4106 
L 212.274005 263.454897 
L 212.598984 132.531029 
L 212.923964 256.871616 
L 213.248943 257.751781 
L 213.573923 250.472074 
L 213.898903 221.884865 
L 214.223882 252.423317 
L 214.548862 237.324614 
L 214.873841 202.960633 
L 215.198821 255.004097 
L 215.5238 249.029636 
L 215.84878 227.405718 
L 216.173759 254.207462 
L 216.498739 103.790622 
L 216.823718 268.084489 
L 217.148698 259.051408 
L 217.473677 257.614384 
L 218.123636 246.631771 
L 218.448616 247.203478 
L 218.773595 211.003107 
L 219.098575 256.350646 
L 219.423554 252.059035 
L 219.748534 253.12183 
L 220.073514 239.335261 
L 220.398493 250.198414 
L 221.048452 232.497887 
L 221.373432 257.0997 
L 221.698411 205.481423 
L 222.023391 210.434637 
L 222.34837 186.637842 
L 222.67335 263.396447 
L 222.998329 212.613272 
L 223.323309 264.468089 
L 223.648288 239.145114 
L 223.973268 131.085394 
L 224.298247 257.140604 
L 224.623227 257.19104 
L 224.948206 259.218751 
L 225.273186 248.226576 
L 225.598165 244.870439 
L 225.923145 249.846646 
L 226.248124 249.621734 
L 226.573104 257.202895 
L 226.898084 251.187203 
L 227.223063 249.409572 
L 227.548043 257.367352 
L 227.873022 253.779764 
L 228.198002 246.317256 
L 228.522981 246.641262 
L 228.847961 248.783036 
L 229.49792 222.94978 
L 229.822899 173.21845 
L 230.147879 252.612226 
L 230.797838 247.737093 
L 231.122817 254.826098 
L 231.447797 223.306904 
L 231.772776 236.161266 
L 232.422735 251.634288 
L 232.747715 246.403418 
L 233.072695 205.84352 
L 233.397674 251.181707 
L 233.722654 255.899777 
L 234.047633 263.013567 
L 234.372613 236.509349 
L 234.697592 253.730984 
L 235.022572 260.351468 
L 235.347551 239.980061 
L 235.672531 242.973317 
L 235.99751 231.653474 
L 236.32249 259.578998 
L 236.972449 227.050469 
L 237.297428 235.225726 
L 237.622408 233.984809 
L 237.947387 262.612669 
L 238.272367 219.294578 
L 238.597346 235.280613 
L 238.922326 258.166971 
L 239.247305 235.662196 
L 239.572285 241.7011 
L 239.897265 255.304639 
L 240.222244 256.89729 
L 240.547224 257.241182 
L 240.872203 250.716693 
L 241.197183 248.562192 
L 241.522162 242.234332 
L 241.847142 217.895352 
L 242.172121 257.97388 
L 242.497101 245.889746 
L 242.82208 210.131096 
L 243.14706 252.837464 
L 243.472039 233.420155 
L 243.797019 239.083606 
L 244.121998 239.67506 
L 244.446978 245.644181 
L 244.771957 244.042349 
L 245.096937 260.230263 
L 245.746896 236.650374 
L 246.071876 243.630811 
L 246.396855 219.74173 
L 246.721835 235.408348 
L 247.046814 224.942278 
L 247.371794 230.308499 
L 247.696773 242.813018 
L 248.021753 205.624005 
L 248.346732 247.686666 
L 248.671712 245.116028 
L 248.996691 247.596411 
L 249.321671 247.444485 
L 249.64665 259.071131 
L 249.97163 239.560435 
L 250.296609 210.821814 
L 250.621589 247.867658 
L 250.946568 248.669414 
L 251.271548 256.25095 
L 251.596527 236.802935 
L 251.921507 253.686362 
L 252.246486 242.755766 
L 252.571466 248.842831 
L 252.896446 195.996951 
L 253.221425 224.053406 
L 253.546405 242.278791 
L 253.871384 251.7989 
L 254.196364 233.785269 
L 254.846323 258.849732 
L 255.496282 237.545597 
L 255.821261 252.603037 
L 256.146241 256.80816 
L 256.47122 250.778575 
L 256.7962 257.871134 
L 257.121179 259.164867 
L 257.446159 256.284263 
L 257.771138 208.032476 
L 258.096118 255.740652 
L 258.421097 262.802303 
L 258.746077 232.085738 
L 259.071057 257.97079 
L 259.396036 257.789513 
L 259.721016 251.890004 
L 260.045995 236.534705 
L 260.370975 256.329106 
L 260.695954 230.700959 
L 261.020934 221.261851 
L 261.345913 228.424095 
L 261.670893 247.73172 
L 261.995872 252.691882 
L 262.320852 237.212264 
L 262.645831 257.647697 
L 263.29579 239.914436 
L 263.945749 238.208643 
L 264.270729 246.596746 
L 264.595708 235.843807 
L 264.920688 164.158007 
L 265.245667 235.923007 
L 265.570647 225.64141 
L 265.895627 247.958924 
L 266.220606 259.820494 
L 266.545586 255.10222 
L 266.870565 240.147575 
L 267.195545 259.838717 
L 267.520524 254.955301 
L 267.845504 258.762159 
L 268.170483 241.341481 
L 268.495463 249.393079 
L 268.820442 216.689779 
L 269.145422 247.507501 
L 269.470401 241.20534 
L 269.795381 248.233139 
L 270.12036 235.949611 
L 270.44534 242.414158 
L 270.770319 237.534737 
L 271.095299 256.860096 
L 271.420278 257.014956 
L 271.745258 203.289792 
L 272.070238 255.730779 
L 272.395217 220.905526 
L 272.720197 265.630548 
L 273.045176 243.827726 
L 273.370156 254.285903 
L 273.695135 204.295988 
L 274.020115 210.918885 
L 274.345094 239.465035 
L 274.670074 248.630515 
L 275.320033 232.27922 
L 275.645012 238.641681 
L 275.969992 193.335552 
L 276.294971 255.161005 
L 276.619951 255.249425 
L 276.94493 237.450963 
L 277.26991 248.968732 
L 277.594889 250.741054 
L 277.919869 253.4305 
L 278.244848 246.692945 
L 278.569828 242.80078 
L 278.894808 253.42145 
L 279.219787 234.550678 
L 279.544767 238.485769 
L 279.869746 258.453277 
L 280.194726 258.560964 
L 280.519705 261.705249 
L 280.844685 185.512659 
L 281.169664 252.581415 
L 281.494644 260.504299 
L 281.819623 235.005403 
L 282.144603 222.229221 
L 282.469582 251.201625 
L 282.794562 208.967234 
L 283.119541 249.203143 
L 283.444521 256.471101 
L 283.7695 254.817268 
L 284.09448 252.221894 
L 284.419459 259.692099 
L 284.744439 250.950484 
L 285.069419 234.102875 
L 285.394398 248.83109 
L 286.044357 234.143934 
L 286.369337 233.835223 
L 286.694316 206.279452 
L 287.019296 247.020228 
L 287.344275 254.714962 
L 287.669255 240.473033 
L 287.994234 244.389208 
L 288.319214 236.354447 
L 288.644193 255.470196 
L 288.969173 257.150266 
L 289.294152 251.038832 
L 289.619132 255.874446 
L 289.944111 243.261498 
L 290.269091 245.106424 
L 290.59407 212.78046 
L 291.244029 256.576986 
L 291.569009 217.137452 
L 291.893989 250.290308 
L 292.218968 258.705054 
L 292.543948 252.738852 
L 292.868927 230.287032 
L 293.193907 243.294714 
L 293.518886 249.069293 
L 293.843866 215.866344 
L 294.168845 243.632988 
L 294.493825 259.751225 
L 294.818804 238.890091 
L 295.143784 227.452901 
L 295.468763 252.144757 
L 295.793743 225.386674 
L 296.118722 250.152732 
L 296.443702 261.481184 
L 296.768681 245.023148 
L 297.093661 252.495717 
L 297.41864 241.831298 
L 297.74362 252.196717 
L 298.0686 249.337678 
L 298.718559 258.450057 
L 299.043538 242.301775 
L 299.368518 253.257262 
L 299.693497 155.706881 
L 300.018477 227.075271 
L 300.343456 256.637327 
L 300.668436 213.584051 
L 300.993415 246.45656 
L 301.318395 245.107223 
L 301.643374 246.733718 
L 301.968354 244.254657 
L 302.293333 259.79173 
L 302.618313 250.841118 
L 302.943292 212.276661 
L 303.268272 261.519544 
L 303.593251 219.939786 
L 303.918231 244.073559 
L 304.56819 248.987867 
L 304.89317 247.709715 
L 305.218149 249.79105 
L 305.543129 236.491567 
L 305.868108 249.94887 
L 306.193088 244.257934 
L 306.518067 248.683282 
L 306.843047 244.973617 
L 307.168026 238.605661 
L 307.817985 249.044532 
L 308.142965 218.186876 
L 308.467944 245.542169 
L 308.792924 259.668601 
L 309.117903 207.07259 
L 309.442883 240.586793 
L 309.767862 234.924255 
L 310.092842 248.142264 
L 310.417821 238.032413 
L 310.742801 246.315845 
L 311.067781 251.658373 
L 311.39276 241.140066 
L 311.71774 247.565877 
L 312.042719 247.933348 
L 312.367699 252.829825 
L 312.692678 249.723468 
L 313.017658 258.034572 
L 313.342637 256.159732 
L 313.667617 242.811664 
L 313.992596 254.0647 
L 314.317576 245.184686 
L 314.642555 250.705816 
L 314.967535 249.532497 
L 315.292514 232.726852 
L 315.617494 232.689527 
L 315.942473 251.875304 
L 316.267453 250.889662 
L 316.592432 245.334802 
L 316.917412 248.379455 
L 317.242391 230.681081 
L 317.567371 244.762182 
L 318.21733 259.492355 
L 318.54231 244.403729 
L 318.867289 240.838946 
L 319.192269 244.861618 
L 319.517248 263.677837 
L 319.842228 258.773582 
L 320.167207 226.639404 
L 320.817166 259.518494 
L 321.142146 257.400201 
L 321.467125 247.106333 
L 321.792105 255.465631 
L 322.117084 247.905105 
L 322.442064 255.178265 
L 322.767043 248.331156 
L 323.092023 227.451474 
L 323.417002 245.601768 
L 323.741982 240.620955 
L 324.066962 196.337345 
L 324.391941 240.211684 
L 324.716921 259.572582 
L 325.0419 256.752572 
L 325.36688 243.457548 
L 325.691859 258.146034 
L 326.016839 248.769216 
L 326.341818 256.317732 
L 326.666798 216.823279 
L 326.991777 254.045875 
L 327.316757 247.566831 
L 327.641736 222.372684 
L 327.966716 251.859446 
L 328.291695 252.539141 
L 328.616675 201.759382 
L 328.941654 252.318769 
L 329.266634 233.965176 
L 329.591613 237.290632 
L 329.916593 253.704299 
L 330.241572 234.044172 
L 330.566552 249.009889 
L 330.891532 236.026878 
L 331.216511 257.082725 
L 331.541491 244.412934 
L 331.86647 244.829551 
L 332.19145 248.073296 
L 332.516429 236.214352 
L 332.841409 238.759119 
L 333.166388 261.266389 
L 333.491368 253.450141 
L 333.816347 251.981735 
L 334.141327 249.723738 
L 334.466306 255.745822 
L 334.791286 251.661667 
L 335.116265 260.141842 
L 335.766224 238.62478 
L 336.091204 234.893762 
L 336.416183 250.586039 
L 336.741163 236.809833 
L 337.066143 233.914447 
L 337.391122 252.798117 
L 337.716102 250.493884 
L 338.041081 255.20336 
L 338.366061 251.298061 
L 338.69104 258.007594 
L 339.01602 229.72559 
L 339.340999 243.806112 
L 339.665979 247.029841 
L 339.990958 211.705109 
L 340.640917 260.747866 
L 340.965897 242.432747 
L 341.290876 251.265073 
L 341.615856 248.979217 
L 341.940835 245.58331 
L 342.265815 246.733425 
L 342.590794 238.132036 
L 342.915774 245.250743 
L 343.240753 227.888727 
L 343.565733 226.672017 
L 344.215692 248.209079 
L 344.540672 243.862026 
L 344.865651 253.281061 
L 345.190631 242.901031 
L 345.51561 240.482955 
L 345.84059 250.849442 
L 346.165569 248.4087 
L 346.490549 244.264742 
L 346.815528 259.025791 
L 347.140508 190.315008 
L 347.465487 254.30662 
L 347.790467 253.167235 
L 348.115446 260.012908 
L 348.440426 252.929122 
L 348.765405 237.623843 
L 349.090385 234.865936 
L 349.415364 241.58226 
L 349.740344 232.802717 
L 350.065324 252.097632 
L 350.390303 253.414846 
L 350.715283 260.629449 
L 351.040262 255.037933 
L 351.365242 259.635508 
L 352.015201 249.940138 
L 352.34018 257.927212 
L 352.990139 243.464487 
L 353.315119 258.047642 
L 353.640098 227.935347 
L 353.965078 258.956245 
L 354.290057 247.47766 
L 354.615037 244.257201 
L 354.940016 247.049645 
L 355.264996 257.973888 
L 355.589975 235.843538 
L 355.914955 231.840646 
L 356.564914 262.033739 
L 356.889894 247.822318 
L 357.214873 249.814898 
L 357.539853 249.75498 
L 357.864832 253.618813 
L 358.189812 248.967175 
L 358.514791 253.201249 
L 358.839771 260.087689 
L 359.16475 230.910837 
L 359.48973 258.314902 
L 359.814709 259.42258 
L 360.139689 247.939226 
L 360.464668 248.188517 
L 360.789648 240.867506 
L 361.114627 261.069303 
L 361.439607 249.808644 
L 361.764586 233.624839 
L 362.089566 248.526505 
L 362.414545 253.402061 
L 362.739525 255.586248 
L 363.064505 242.018453 
L 363.389484 258.361978 
L 363.714464 238.126892 
L 364.039443 259.417835 
L 364.364423 258.560948 
L 364.689402 244.352976 
L 365.014382 235.409832 
L 365.339361 255.394763 
L 365.664341 247.862676 
L 365.98932 265.411032 
L 366.3143 260.195963 
L 366.639279 233.583935 
L 366.964259 249.461271 
L 367.289238 257.570487 
L 367.614218 258.090128 
L 367.939197 208.381398 
L 368.589156 259.231185 
L 368.914136 254.581634 
L 369.239115 253.69807 
L 369.564095 248.633882 
L 370.214054 257.587283 
L 370.539034 255.669981 
L 370.864013 238.455537 
L 371.188993 255.786938 
L 371.513972 243.406493 
L 371.838952 249.828522 
L 372.163931 221.798752 
L 372.488911 264.870593 
L 372.81389 220.014485 
L 373.13887 250.025404 
L 373.463849 249.68179 
L 373.788829 257.282127 
L 374.113808 257.538812 
L 374.438788 239.914314 
L 374.763767 243.504364 
L 375.088747 255.47883 
L 375.413726 234.243794 
L 375.738706 259.866307 
L 376.063686 248.56838 
L 376.388665 247.368441 
L 377.038624 253.508876 
L 377.363604 252.787404 
L 377.688583 258.346063 
L 378.013563 255.802779 
L 378.338542 239.660865 
L 378.663522 244.234828 
L 378.988501 218.944857 
L 379.313481 256.668065 
L 379.63846 254.791178 
L 379.96344 261.193419 
L 380.288419 262.051733 
L 380.613399 261.62512 
L 380.938378 232.310626 
L 381.263358 231.324527 
L 381.588337 242.380404 
L 381.913317 258.406152 
L 382.238296 246.408612 
L 382.563276 251.037356 
L 382.888256 253.949097 
L 383.213235 258.192548 
L 383.538215 216.604726 
L 383.863194 252.878597 
L 384.188174 249.550124 
L 384.513153 261.408548 
L 384.838133 261.168633 
L 385.163112 252.175674 
L 385.813071 253.863538 
L 386.138051 262.422644 
L 386.46303 243.535778 
L 387.112989 262.848955 
L 387.437969 253.749972 
L 387.762948 239.829505 
L 388.087928 268.639564 
L 388.412907 259.276525 
L 388.737887 226.999545 
L 389.062867 260.630517 
L 389.387846 249.091053 
L 389.712826 259.608855 
L 390.037805 253.382698 
L 390.362785 240.869406 
L 390.687764 256.667045 
L 391.012744 229.261121 
L 391.337723 179.317198 
L 391.662703 259.399637 
L 391.987682 254.941318 
L 392.312662 258.862508 
L 392.637641 248.920506 
L 392.962621 233.101342 
L 393.2876 257.288087 
L 393.61258 239.065987 
L 393.937559 238.436459 
L 394.262539 239.553089 
L 394.912498 256.559595 
L 395.237477 242.961829 
L 395.562457 251.521115 
L 395.887437 246.437197 
L 396.212416 255.458937 
L 396.537396 245.9035 
L 397.187355 265.721626 
L 397.512334 251.265522 
L 397.837314 254.637989 
L 398.162293 264.655855 
L 398.487273 262.117129 
L 398.487273 262.117129 
" clip-path="url(#p886d399d4d)" style="fill: none; stroke: #ff7f0e; stroke-width: 1.5; stroke-linecap: square"/>
   </g>
   <g id="patch_3">
    <path d="M 57.6 307.584 
L 57.6 41.472 
" style="fill: none; stroke: #000000; stroke-width: 0.8; stroke-linejoin: miter; stroke-linecap: square"/>
   </g>
   <g id="patch_4">
    <path d="M 414.72 307.584 
L 414.72 41.472 
" style="fill: none; stroke: #000000; stroke-width: 0.8; stroke-linejoin: miter; stroke-linecap: square"/>
   </g>
   <g id="patch_5">
    <path d="M 57.6 307.584 
L 414.72 307.584 
" style="fill: none; stroke: #000000; stroke-width: 0.8; stroke-linejoin: miter; stroke-linecap: square"/>
   </g>
   <g id="patch_6">
    <path d="M 57.6 41.472 
L 414.72 41.472 
" style="fill: none; stroke: #000000; stroke-width: 0.8; stroke-linejoin: miter; stroke-linecap: square"/>
   </g>
   <g id="text_15">
    <!-- Model loss -->
    <g transform="translate(204.647812 35.472) scale(0.12 -0.12)">
     <defs>
      <path id="DejaVuSans-4d" d="M 628 4666 
L 1569 4666 
L 2759 1491 
L 3956 4666 
L 4897 4666 
L 4897 0 
L 4281 0 
L 4281 4097 
L 3078 897 
L 2444 897 
L 1241 4097 
L 1241 0 
L 628 0 
L 628 4666 
z
" transform="scale(0.015625)"/>
      <path id="DejaVuSans-64" d="M 2906 2969 
L 2906 4863 
L 3481 4863 
L 3481 0 
L 2906 0 
L 2906 525 
Q 2725 213 2448 61 
Q 2172 -91 1784 -91 
Q 1150 -91 751 415 
Q 353 922 353 1747 
Q 353 2572 751 3078 
Q 1150 3584 1784 3584 
Q 2172 3584 2448 3432 
Q 2725 3281 2906 2969 
z
M 947 1747 
Q 947 1113 1208 752 
Q 1469 391 1925 391 
Q 2381 391 2643 752 
Q 2906 1113 2906 1747 
Q 2906 2381 2643 2742 
Q 2381 3103 1925 3103 
Q 1469 3103 1208 2742 
Q 947 2381 947 1747 
z
" transform="scale(0.015625)"/>
      <path id="DejaVuSans-6c" d="M 603 4863 
L 1178 4863 
L 1178 0 
L 603 0 
L 603 4863 
z
" transform="scale(0.015625)"/>
      <path id="DejaVuSans-20" transform="scale(0.015625)"/>
     </defs>
     <use xlink:href="#DejaVuSans-4d"/>
     <use xlink:href="#DejaVuSans-6f" x="86.279297"/>
     <use xlink:href="#DejaVuSans-64" x="147.460938"/>
     <use xlink:href="#DejaVuSans-65" x="210.9375"/>
     <use xlink:href="#DejaVuSans-6c" x="272.460938"/>
     <use xlink:href="#DejaVuSans-20" x="300.244141"/>
     <use xlink:href="#DejaVuSans-6c" x="332.03125"/>
     <use xlink:href="#DejaVuSans-6f" x="359.814453"/>
     <use xlink:href="#DejaVuSans-73" x="420.996094"/>
     <use xlink:href="#DejaVuSans-73" x="473.095703"/>
    </g>
   </g>
   <g id="legend_1">
    <g id="patch_7">
     <path d="M 351.7325 78.82825 
L 407.72 78.82825 
Q 409.72 78.82825 409.72 76.82825 
L 409.72 48.472 
Q 409.72 46.472 407.72 46.472 
L 351.7325 46.472 
Q 349.7325 46.472 349.7325 48.472 
L 349.7325 76.82825 
Q 349.7325 78.82825 351.7325 78.82825 
z
" style="fill: #ffffff; opacity: 0.8; stroke: #cccccc; stroke-linejoin: miter"/>
    </g>
    <g id="line2d_14">
     <path d="M 353.7325 54.570437 
L 363.7325 54.570437 
L 373.7325 54.570437 
" style="fill: none; stroke: #1f77b4; stroke-width: 1.5; stroke-linecap: square"/>
    </g>
    <g id="text_16">
     <!-- Train -->
     <g transform="translate(381.7325 58.070437) scale(0.1 -0.1)">
      <defs>
       <path id="DejaVuSans-54" d="M -19 4666 
L 3928 4666 
L 3928 4134 
L 2272 4134 
L 2272 0 
L 1638 0 
L 1638 4134 
L -19 4134 
L -19 4666 
z
" transform="scale(0.015625)"/>
       <path id="DejaVuSans-72" d="M 2631 2963 
Q 2534 3019 2420 3045 
Q 2306 3072 2169 3072 
Q 1681 3072 1420 2755 
Q 1159 2438 1159 1844 
L 1159 0 
L 581 0 
L 581 3500 
L 1159 3500 
L 1159 2956 
Q 1341 3275 1631 3429 
Q 1922 3584 2338 3584 
Q 2397 3584 2469 3576 
Q 2541 3569 2628 3553 
L 2631 2963 
z
" transform="scale(0.015625)"/>
       <path id="DejaVuSans-61" d="M 2194 1759 
Q 1497 1759 1228 1600 
Q 959 1441 959 1056 
Q 959 750 1161 570 
Q 1363 391 1709 391 
Q 2188 391 2477 730 
Q 2766 1069 2766 1631 
L 2766 1759 
L 2194 1759 
z
M 3341 1997 
L 3341 0 
L 2766 0 
L 2766 531 
Q 2569 213 2275 61 
Q 1981 -91 1556 -91 
Q 1019 -91 701 211 
Q 384 513 384 1019 
Q 384 1609 779 1909 
Q 1175 2209 1959 2209 
L 2766 2209 
L 2766 2266 
Q 2766 2663 2505 2880 
Q 2244 3097 1772 3097 
Q 1472 3097 1187 3025 
Q 903 2953 641 2809 
L 641 3341 
Q 956 3463 1253 3523 
Q 1550 3584 1831 3584 
Q 2591 3584 2966 3190 
Q 3341 2797 3341 1997 
z
" transform="scale(0.015625)"/>
       <path id="DejaVuSans-69" d="M 603 3500 
L 1178 3500 
L 1178 0 
L 603 0 
L 603 3500 
z
M 603 4863 
L 1178 4863 
L 1178 4134 
L 603 4134 
L 603 4863 
z
" transform="scale(0.015625)"/>
       <path id="DejaVuSans-6e" d="M 3513 2113 
L 3513 0 
L 2938 0 
L 2938 2094 
Q 2938 2591 2744 2837 
Q 2550 3084 2163 3084 
Q 1697 3084 1428 2787 
Q 1159 2491 1159 1978 
L 1159 0 
L 581 0 
L 581 3500 
L 1159 3500 
L 1159 2956 
Q 1366 3272 1645 3428 
Q 1925 3584 2291 3584 
Q 2894 3584 3203 3211 
Q 3513 2838 3513 2113 
z
" transform="scale(0.015625)"/>
      </defs>
      <use xlink:href="#DejaVuSans-54"/>
      <use xlink:href="#DejaVuSans-72" x="46.333984"/>
      <use xlink:href="#DejaVuSans-61" x="87.447266"/>
      <use xlink:href="#DejaVuSans-69" x="148.726562"/>
      <use xlink:href="#DejaVuSans-6e" x="176.509766"/>
     </g>
    </g>
    <g id="line2d_15">
     <path d="M 353.7325 69.248562 
L 363.7325 69.248562 
L 373.7325 69.248562 
" style="fill: none; stroke: #ff7f0e; stroke-width: 1.5; stroke-linecap: square"/>
    </g>
    <g id="text_17">
     <!-- Test -->
     <g transform="translate(381.7325 72.748562) scale(0.1 -0.1)">
      <defs>
       <path id="DejaVuSans-74" d="M 1172 4494 
L 1172 3500 
L 2356 3500 
L 2356 3053 
L 1172 3053 
L 1172 1153 
Q 1172 725 1289 603 
Q 1406 481 1766 481 
L 2356 481 
L 2356 0 
L 1766 0 
Q 1100 0 847 248 
Q 594 497 594 1153 
L 594 3053 
L 172 3053 
L 172 3500 
L 594 3500 
L 594 4494 
L 1172 4494 
z
" transform="scale(0.015625)"/>
      </defs>
      <use xlink:href="#DejaVuSans-54"/>
      <use xlink:href="#DejaVuSans-65" x="44.083984"/>
      <use xlink:href="#DejaVuSans-73" x="105.607422"/>
      <use xlink:href="#DejaVuSans-74" x="157.707031"/>
     </g>
    </g>
   </g>
  </g>
 </g>
 <defs>
  <clipPath id="p886d399d4d">
   <rect x="57.6" y="41.472" width="357.12" height="266.112"/>
  </clipPath>
 </defs>
</svg>
