<?xml version="1.0" encoding="utf-8" standalone="no"?>
<!DOCTYPE svg PUBLIC "-//W3C//DTD SVG 1.1//EN"
  "http://www.w3.org/Graphics/SVG/1.1/DTD/svg11.dtd">
<svg xmlns:xlink="http://www.w3.org/1999/xlink" width="1008pt" height="576pt" viewBox="0 0 1008 576" xmlns="http://www.w3.org/2000/svg" version="1.1">
 <metadata>
  <rdf:RDF xmlns:dc="http://purl.org/dc/elements/1.1/" xmlns:cc="http://creativecommons.org/ns#" xmlns:rdf="http://www.w3.org/1999/02/22-rdf-syntax-ns#">
   <cc:Work>
    <dc:type rdf:resource="http://purl.org/dc/dcmitype/StillImage"/>
    <dc:date>2023-04-16T17:39:29.476272</dc:date>
    <dc:format>image/svg+xml</dc:format>
    <dc:creator>
     <cc:Agent>
      <dc:title>Matplotlib v3.7.1, https://matplotlib.org/</dc:title>
     </cc:Agent>
    </dc:creator>
   </cc:Work>
  </rdf:RDF>
 </metadata>
 <defs>
  <style type="text/css">*{stroke-linejoin: round; stroke-linecap: butt}</style>
 </defs>
 <g id="figure_1">
  <g id="patch_1">
   <path d="M 0 576 
L 1008 576 
L 1008 0 
L 0 0 
z
" style="fill: #ffffff"/>
  </g>
  <g id="axes_1">
   <g id="patch_2">
    <path d="M 68.562 501.03675 
L 992.448 501.03675 
L 992.448 15.552 
L 68.562 15.552 
z
" style="fill: #ffffff"/>
   </g>
   <g id="matplotlib.axis_1">
    <g id="xtick_1">
     <g id="text_1">
      <!-- 01-01 -->
      <g style="fill: #262626" transform="translate(114.269318 543.53675) rotate(-90) scale(0.132 -0.132)">
       <defs>
        <path id="SimHei-30" d="M 225 2537 
Q 250 3200 412 3587 
Q 575 3975 875 4225 
Q 1175 4475 1612 4475 
Q 2050 4475 2375 4112 
Q 2700 3750 2800 3200 
Q 2900 2650 2862 1937 
Q 2825 1225 2612 775 
Q 2400 325 1975 150 
Q 1550 -25 1125 187 
Q 700 400 525 750 
Q 350 1100 275 1487 
Q 200 1875 225 2537 
z
M 750 2687 
Q 675 2000 800 1462 
Q 925 925 1212 700 
Q 1500 475 1800 612 
Q 2100 750 2237 1162 
Q 2375 1575 2375 2062 
Q 2375 2550 2337 2950 
Q 2300 3350 2112 3675 
Q 1925 4000 1612 4012 
Q 1300 4025 1062 3700 
Q 825 3375 750 2687 
z
" transform="scale(0.015625)"/>
        <path id="SimHei-31" d="M 1400 3600 
Q 1075 3275 575 2975 
L 575 3450 
Q 1200 3875 1600 4450 
L 1900 4450 
L 1900 150 
L 1400 150 
L 1400 3600 
z
" transform="scale(0.015625)"/>
        <path id="SimHei-2d" d="M 2975 2125 
L 125 2125 
L 125 2525 
L 2975 2525 
L 2975 2125 
z
" transform="scale(0.015625)"/>
       </defs>
       <use xlink:href="#SimHei-30"/>
       <use xlink:href="#SimHei-31" x="50"/>
       <use xlink:href="#SimHei-2d" x="100"/>
       <use xlink:href="#SimHei-30" x="150"/>
       <use xlink:href="#SimHei-31" x="200"/>
      </g>
     </g>
    </g>
    <g id="xtick_2">
     <g id="text_2">
      <!-- 01-11 -->
      <g style="fill: #262626" transform="translate(137.343394 543.53675) rotate(-90) scale(0.132 -0.132)">
       <use xlink:href="#SimHei-30"/>
       <use xlink:href="#SimHei-31" x="50"/>
       <use xlink:href="#SimHei-2d" x="100"/>
       <use xlink:href="#SimHei-31" x="150"/>
       <use xlink:href="#SimHei-31" x="200"/>
      </g>
     </g>
    </g>
    <g id="xtick_3">
     <g id="text_3">
      <!-- 01-21 -->
      <g style="fill: #262626" transform="translate(160.41747 543.53675) rotate(-90) scale(0.132 -0.132)">
       <defs>
        <path id="SimHei-32" d="M 300 250 
Q 325 625 650 925 
Q 975 1225 1475 1862 
Q 1975 2500 2125 2850 
Q 2275 3200 2237 3450 
Q 2200 3700 2000 3862 
Q 1800 4025 1537 4000 
Q 1275 3975 1037 3800 
Q 800 3625 675 3275 
L 200 3350 
Q 400 3925 712 4187 
Q 1025 4450 1450 4475 
Q 1700 4500 1900 4462 
Q 2100 4425 2312 4287 
Q 2525 4150 2662 3875 
Q 2800 3600 2762 3212 
Q 2725 2825 2375 2287 
Q 2025 1750 1025 600 
L 2825 600 
L 2825 150 
L 300 150 
L 300 250 
z
" transform="scale(0.015625)"/>
       </defs>
       <use xlink:href="#SimHei-30"/>
       <use xlink:href="#SimHei-31" x="50"/>
       <use xlink:href="#SimHei-2d" x="100"/>
       <use xlink:href="#SimHei-32" x="150"/>
       <use xlink:href="#SimHei-31" x="200"/>
      </g>
     </g>
    </g>
    <g id="xtick_4">
     <g id="text_4">
      <!-- 01-31 -->
      <g style="fill: #262626" transform="translate(183.491546 543.53675) rotate(-90) scale(0.132 -0.132)">
       <defs>
        <path id="SimHei-33" d="M 250 1225 
L 700 1300 
Q 800 975 1025 762 
Q 1250 550 1587 562 
Q 1925 575 2125 837 
Q 2325 1100 2300 1437 
Q 2275 1775 2037 1962 
Q 1800 2150 1275 2225 
L 1275 2550 
Q 1800 2600 2037 2825 
Q 2275 3050 2250 3412 
Q 2225 3775 1925 3937 
Q 1625 4100 1287 3975 
Q 950 3850 750 3275 
L 300 3350 
Q 450 3800 712 4100 
Q 975 4400 1425 4450 
Q 1875 4500 2212 4337 
Q 2550 4175 2687 3837 
Q 2825 3500 2725 3100 
Q 2625 2700 2150 2400 
Q 2500 2250 2687 1950 
Q 2875 1650 2812 1162 
Q 2750 675 2375 375 
Q 2000 75 1525 87 
Q 1050 100 700 387 
Q 350 675 250 1225 
z
" transform="scale(0.015625)"/>
       </defs>
       <use xlink:href="#SimHei-30"/>
       <use xlink:href="#SimHei-31" x="50"/>
       <use xlink:href="#SimHei-2d" x="100"/>
       <use xlink:href="#SimHei-33" x="150"/>
       <use xlink:href="#SimHei-31" x="200"/>
      </g>
     </g>
    </g>
    <g id="xtick_5">
     <g id="text_5">
      <!-- 02-10 -->
      <g style="fill: #262626" transform="translate(206.565622 543.53675) rotate(-90) scale(0.132 -0.132)">
       <use xlink:href="#SimHei-30"/>
       <use xlink:href="#SimHei-32" x="50"/>
       <use xlink:href="#SimHei-2d" x="100"/>
       <use xlink:href="#SimHei-31" x="150"/>
       <use xlink:href="#SimHei-30" x="200"/>
      </g>
     </g>
    </g>
    <g id="xtick_6">
     <g id="text_6">
      <!-- 02-20 -->
      <g style="fill: #262626" transform="translate(229.639698 543.53675) rotate(-90) scale(0.132 -0.132)">
       <use xlink:href="#SimHei-30"/>
       <use xlink:href="#SimHei-32" x="50"/>
       <use xlink:href="#SimHei-2d" x="100"/>
       <use xlink:href="#SimHei-32" x="150"/>
       <use xlink:href="#SimHei-30" x="200"/>
      </g>
     </g>
    </g>
    <g id="xtick_7">
     <g id="text_7">
      <!-- 03-02 -->
      <g style="fill: #262626" transform="translate(252.713774 543.53675) rotate(-90) scale(0.132 -0.132)">
       <use xlink:href="#SimHei-30"/>
       <use xlink:href="#SimHei-33" x="50"/>
       <use xlink:href="#SimHei-2d" x="100"/>
       <use xlink:href="#SimHei-30" x="150"/>
       <use xlink:href="#SimHei-32" x="200"/>
      </g>
     </g>
    </g>
    <g id="xtick_8">
     <g id="text_8">
      <!-- 03-12 -->
      <g style="fill: #262626" transform="translate(275.78785 543.53675) rotate(-90) scale(0.132 -0.132)">
       <use xlink:href="#SimHei-30"/>
       <use xlink:href="#SimHei-33" x="50"/>
       <use xlink:href="#SimHei-2d" x="100"/>
       <use xlink:href="#SimHei-31" x="150"/>
       <use xlink:href="#SimHei-32" x="200"/>
      </g>
     </g>
    </g>
    <g id="xtick_9">
     <g id="text_9">
      <!-- 03-22 -->
      <g style="fill: #262626" transform="translate(298.861926 543.53675) rotate(-90) scale(0.132 -0.132)">
       <use xlink:href="#SimHei-30"/>
       <use xlink:href="#SimHei-33" x="50"/>
       <use xlink:href="#SimHei-2d" x="100"/>
       <use xlink:href="#SimHei-32" x="150"/>
       <use xlink:href="#SimHei-32" x="200"/>
      </g>
     </g>
    </g>
    <g id="xtick_10">
     <g id="text_10">
      <!-- 04-01 -->
      <g style="fill: #262626" transform="translate(321.936001 543.53675) rotate(-90) scale(0.132 -0.132)">
       <defs>
        <path id="SimHei-34" d="M 2000 1100 
L 75 1100 
L 75 1525 
L 2100 4450 
L 2475 4450 
L 2475 1525 
L 3075 1525 
L 3075 1100 
L 2475 1100 
L 2475 150 
L 2000 150 
L 2000 1100 
z
M 2000 1525 
L 2000 3500 
L 600 1525 
L 2000 1525 
z
" transform="scale(0.015625)"/>
       </defs>
       <use xlink:href="#SimHei-30"/>
       <use xlink:href="#SimHei-34" x="50"/>
       <use xlink:href="#SimHei-2d" x="100"/>
       <use xlink:href="#SimHei-30" x="150"/>
       <use xlink:href="#SimHei-31" x="200"/>
      </g>
     </g>
    </g>
    <g id="xtick_11">
     <g id="text_11">
      <!-- 04-11 -->
      <g style="fill: #262626" transform="translate(345.010077 543.53675) rotate(-90) scale(0.132 -0.132)">
       <use xlink:href="#SimHei-30"/>
       <use xlink:href="#SimHei-34" x="50"/>
       <use xlink:href="#SimHei-2d" x="100"/>
       <use xlink:href="#SimHei-31" x="150"/>
       <use xlink:href="#SimHei-31" x="200"/>
      </g>
     </g>
    </g>
    <g id="xtick_12">
     <g id="text_12">
      <!-- 04-21 -->
      <g style="fill: #262626" transform="translate(368.084153 543.53675) rotate(-90) scale(0.132 -0.132)">
       <use xlink:href="#SimHei-30"/>
       <use xlink:href="#SimHei-34" x="50"/>
       <use xlink:href="#SimHei-2d" x="100"/>
       <use xlink:href="#SimHei-32" x="150"/>
       <use xlink:href="#SimHei-31" x="200"/>
      </g>
     </g>
    </g>
    <g id="xtick_13">
     <g id="text_13">
      <!-- 05-01 -->
      <g style="fill: #262626" transform="translate(391.158229 543.53675) rotate(-90) scale(0.132 -0.132)">
       <defs>
        <path id="SimHei-35" d="M 550 1325 
Q 725 650 1150 575 
Q 1575 500 1837 662 
Q 2100 825 2212 1087 
Q 2325 1350 2312 1675 
Q 2300 2000 2137 2225 
Q 1975 2450 1725 2525 
Q 1475 2600 1162 2525 
Q 850 2450 650 2175 
L 225 2225 
Q 275 2375 700 4375 
L 2675 4375 
L 2675 3925 
L 1075 3925 
Q 950 3250 825 2850 
Q 1200 3025 1525 3012 
Q 1850 3000 2150 2862 
Q 2450 2725 2587 2487 
Q 2725 2250 2787 2012 
Q 2850 1775 2837 1500 
Q 2825 1225 2725 937 
Q 2625 650 2425 462 
Q 2225 275 1937 162 
Q 1650 50 1275 75 
Q 900 100 562 350 
Q 225 600 100 1200 
L 550 1325 
z
" transform="scale(0.015625)"/>
       </defs>
       <use xlink:href="#SimHei-30"/>
       <use xlink:href="#SimHei-35" x="50"/>
       <use xlink:href="#SimHei-2d" x="100"/>
       <use xlink:href="#SimHei-30" x="150"/>
       <use xlink:href="#SimHei-31" x="200"/>
      </g>
     </g>
    </g>
    <g id="xtick_14">
     <g id="text_14">
      <!-- 05-11 -->
      <g style="fill: #262626" transform="translate(414.232305 543.53675) rotate(-90) scale(0.132 -0.132)">
       <use xlink:href="#SimHei-30"/>
       <use xlink:href="#SimHei-35" x="50"/>
       <use xlink:href="#SimHei-2d" x="100"/>
       <use xlink:href="#SimHei-31" x="150"/>
       <use xlink:href="#SimHei-31" x="200"/>
      </g>
     </g>
    </g>
    <g id="xtick_15">
     <g id="text_15">
      <!-- 05-21 -->
      <g style="fill: #262626" transform="translate(437.306381 543.53675) rotate(-90) scale(0.132 -0.132)">
       <use xlink:href="#SimHei-30"/>
       <use xlink:href="#SimHei-35" x="50"/>
       <use xlink:href="#SimHei-2d" x="100"/>
       <use xlink:href="#SimHei-32" x="150"/>
       <use xlink:href="#SimHei-31" x="200"/>
      </g>
     </g>
    </g>
    <g id="xtick_16">
     <g id="text_16">
      <!-- 05-31 -->
      <g style="fill: #262626" transform="translate(460.380457 543.53675) rotate(-90) scale(0.132 -0.132)">
       <use xlink:href="#SimHei-30"/>
       <use xlink:href="#SimHei-35" x="50"/>
       <use xlink:href="#SimHei-2d" x="100"/>
       <use xlink:href="#SimHei-33" x="150"/>
       <use xlink:href="#SimHei-31" x="200"/>
      </g>
     </g>
    </g>
    <g id="xtick_17">
     <g id="text_17">
      <!-- 06-10 -->
      <g style="fill: #262626" transform="translate(483.454533 543.53675) rotate(-90) scale(0.132 -0.132)">
       <defs>
        <path id="SimHei-36" d="M 250 1612 
Q 275 1975 387 2225 
Q 500 2475 725 2850 
L 1750 4450 
L 2325 4450 
L 1275 2800 
Q 1950 2975 2350 2750 
Q 2750 2525 2887 2237 
Q 3025 1950 3037 1612 
Q 3050 1275 2937 950 
Q 2825 625 2537 362 
Q 2250 100 1737 75 
Q 1225 50 862 262 
Q 500 475 362 862 
Q 225 1250 250 1612 
z
M 1025 787 
Q 1250 550 1625 525 
Q 2000 500 2250 775 
Q 2500 1050 2500 1575 
Q 2500 2100 2187 2300 
Q 1875 2500 1487 2450 
Q 1100 2400 925 2075 
Q 750 1750 775 1387 
Q 800 1025 1025 787 
z
" transform="scale(0.015625)"/>
       </defs>
       <use xlink:href="#SimHei-30"/>
       <use xlink:href="#SimHei-36" x="50"/>
       <use xlink:href="#SimHei-2d" x="100"/>
       <use xlink:href="#SimHei-31" x="150"/>
       <use xlink:href="#SimHei-30" x="200"/>
      </g>
     </g>
    </g>
    <g id="xtick_18">
     <g id="text_18">
      <!-- 06-20 -->
      <g style="fill: #262626" transform="translate(506.528609 543.53675) rotate(-90) scale(0.132 -0.132)">
       <use xlink:href="#SimHei-30"/>
       <use xlink:href="#SimHei-36" x="50"/>
       <use xlink:href="#SimHei-2d" x="100"/>
       <use xlink:href="#SimHei-32" x="150"/>
       <use xlink:href="#SimHei-30" x="200"/>
      </g>
     </g>
    </g>
    <g id="xtick_19">
     <g id="text_19">
      <!-- 06-30 -->
      <g style="fill: #262626" transform="translate(529.602685 543.53675) rotate(-90) scale(0.132 -0.132)">
       <use xlink:href="#SimHei-30"/>
       <use xlink:href="#SimHei-36" x="50"/>
       <use xlink:href="#SimHei-2d" x="100"/>
       <use xlink:href="#SimHei-33" x="150"/>
       <use xlink:href="#SimHei-30" x="200"/>
      </g>
     </g>
    </g>
    <g id="xtick_20">
     <g id="text_20">
      <!-- 07-10 -->
      <g style="fill: #262626" transform="translate(552.676761 543.53675) rotate(-90) scale(0.132 -0.132)">
       <defs>
        <path id="SimHei-37" d="M 850 150 
Q 1300 2050 2425 3925 
L 275 3925 
L 275 4375 
L 2950 4375 
L 2950 3950 
Q 1775 2050 1400 150 
L 850 150 
z
" transform="scale(0.015625)"/>
       </defs>
       <use xlink:href="#SimHei-30"/>
       <use xlink:href="#SimHei-37" x="50"/>
       <use xlink:href="#SimHei-2d" x="100"/>
       <use xlink:href="#SimHei-31" x="150"/>
       <use xlink:href="#SimHei-30" x="200"/>
      </g>
     </g>
    </g>
    <g id="xtick_21">
     <g id="text_21">
      <!-- 07-20 -->
      <g style="fill: #262626" transform="translate(575.750837 543.53675) rotate(-90) scale(0.132 -0.132)">
       <use xlink:href="#SimHei-30"/>
       <use xlink:href="#SimHei-37" x="50"/>
       <use xlink:href="#SimHei-2d" x="100"/>
       <use xlink:href="#SimHei-32" x="150"/>
       <use xlink:href="#SimHei-30" x="200"/>
      </g>
     </g>
    </g>
    <g id="xtick_22">
     <g id="text_22">
      <!-- 07-30 -->
      <g style="fill: #262626" transform="translate(598.824913 543.53675) rotate(-90) scale(0.132 -0.132)">
       <use xlink:href="#SimHei-30"/>
       <use xlink:href="#SimHei-37" x="50"/>
       <use xlink:href="#SimHei-2d" x="100"/>
       <use xlink:href="#SimHei-33" x="150"/>
       <use xlink:href="#SimHei-30" x="200"/>
      </g>
     </g>
    </g>
    <g id="xtick_23">
     <g id="text_23">
      <!-- 08-09 -->
      <g style="fill: #262626" transform="translate(621.898989 543.53675) rotate(-90) scale(0.132 -0.132)">
       <defs>
        <path id="SimHei-38" d="M 175 1375 
Q 175 1675 325 1962 
Q 475 2250 825 2425 
Q 525 2600 425 2812 
Q 325 3025 312 3300 
Q 300 3575 387 3775 
Q 475 3975 650 4150 
Q 825 4325 1037 4387 
Q 1250 4450 1500 4450 
Q 1750 4450 1950 4400 
Q 2150 4350 2375 4187 
Q 2600 4025 2700 3725 
Q 2800 3425 2687 3025 
Q 2575 2625 2100 2400 
Q 2525 2275 2700 2012 
Q 2875 1750 2875 1375 
Q 2875 1000 2762 775 
Q 2650 550 2512 400 
Q 2375 250 2137 162 
Q 1900 75 1537 75 
Q 1175 75 912 162 
Q 650 250 475 425 
Q 300 600 237 837 
Q 175 1075 175 1375 
z
M 687 1400 
Q 675 1100 787 875 
Q 900 650 1200 587 
Q 1500 525 1825 600 
Q 2150 675 2275 950 
Q 2400 1225 2362 1500 
Q 2325 1775 2050 1962 
Q 1775 2150 1450 2125 
Q 1125 2100 912 1900 
Q 700 1700 687 1400 
z
M 775 3350 
Q 775 3100 950 2875 
Q 1125 2650 1500 2650 
Q 1875 2650 2062 2875 
Q 2250 3100 2237 3412 
Q 2225 3725 2012 3875 
Q 1800 4025 1437 4000 
Q 1075 3975 925 3787 
Q 775 3600 775 3350 
z
" transform="scale(0.015625)"/>
        <path id="SimHei-39" d="M 800 75 
Q 1350 1000 1700 1750 
Q 1075 1650 662 1912 
Q 250 2175 162 2625 
Q 75 3075 175 3437 
Q 275 3800 487 4037 
Q 700 4275 1000 4375 
Q 1300 4475 1537 4475 
Q 1775 4475 2025 4375 
Q 2275 4275 2475 4075 
Q 2675 3875 2750 3662 
Q 2825 3450 2825 3112 
Q 2825 2775 2575 2250 
Q 2325 1725 1350 75 
L 800 75 
z
M 662 2875 
Q 700 2550 937 2337 
Q 1175 2125 1450 2150 
Q 1725 2175 1887 2300 
Q 2050 2425 2200 2725 
Q 2300 3100 2250 3362 
Q 2200 3625 1987 3800 
Q 1775 3975 1525 3975 
Q 1375 4000 1137 3900 
Q 900 3800 762 3500 
Q 625 3200 662 2875 
z
" transform="scale(0.015625)"/>
       </defs>
       <use xlink:href="#SimHei-30"/>
       <use xlink:href="#SimHei-38" x="50"/>
       <use xlink:href="#SimHei-2d" x="100"/>
       <use xlink:href="#SimHei-30" x="150"/>
       <use xlink:href="#SimHei-39" x="200"/>
      </g>
     </g>
    </g>
    <g id="xtick_24">
     <g id="text_24">
      <!-- 08-19 -->
      <g style="fill: #262626" transform="translate(644.973064 543.53675) rotate(-90) scale(0.132 -0.132)">
       <use xlink:href="#SimHei-30"/>
       <use xlink:href="#SimHei-38" x="50"/>
       <use xlink:href="#SimHei-2d" x="100"/>
       <use xlink:href="#SimHei-31" x="150"/>
       <use xlink:href="#SimHei-39" x="200"/>
      </g>
     </g>
    </g>
    <g id="xtick_25">
     <g id="text_25">
      <!-- 08-29 -->
      <g style="fill: #262626" transform="translate(668.04714 543.53675) rotate(-90) scale(0.132 -0.132)">
       <use xlink:href="#SimHei-30"/>
       <use xlink:href="#SimHei-38" x="50"/>
       <use xlink:href="#SimHei-2d" x="100"/>
       <use xlink:href="#SimHei-32" x="150"/>
       <use xlink:href="#SimHei-39" x="200"/>
      </g>
     </g>
    </g>
    <g id="xtick_26">
     <g id="text_26">
      <!-- 09-08 -->
      <g style="fill: #262626" transform="translate(691.121216 543.53675) rotate(-90) scale(0.132 -0.132)">
       <use xlink:href="#SimHei-30"/>
       <use xlink:href="#SimHei-39" x="50"/>
       <use xlink:href="#SimHei-2d" x="100"/>
       <use xlink:href="#SimHei-30" x="150"/>
       <use xlink:href="#SimHei-38" x="200"/>
      </g>
     </g>
    </g>
    <g id="xtick_27">
     <g id="text_27">
      <!-- 09-18 -->
      <g style="fill: #262626" transform="translate(714.195292 543.53675) rotate(-90) scale(0.132 -0.132)">
       <use xlink:href="#SimHei-30"/>
       <use xlink:href="#SimHei-39" x="50"/>
       <use xlink:href="#SimHei-2d" x="100"/>
       <use xlink:href="#SimHei-31" x="150"/>
       <use xlink:href="#SimHei-38" x="200"/>
      </g>
     </g>
    </g>
    <g id="xtick_28">
     <g id="text_28">
      <!-- 09-28 -->
      <g style="fill: #262626" transform="translate(737.269368 543.53675) rotate(-90) scale(0.132 -0.132)">
       <use xlink:href="#SimHei-30"/>
       <use xlink:href="#SimHei-39" x="50"/>
       <use xlink:href="#SimHei-2d" x="100"/>
       <use xlink:href="#SimHei-32" x="150"/>
       <use xlink:href="#SimHei-38" x="200"/>
      </g>
     </g>
    </g>
    <g id="xtick_29">
     <g id="text_29">
      <!-- 10-08 -->
      <g style="fill: #262626" transform="translate(760.343444 543.53675) rotate(-90) scale(0.132 -0.132)">
       <use xlink:href="#SimHei-31"/>
       <use xlink:href="#SimHei-30" x="50"/>
       <use xlink:href="#SimHei-2d" x="100"/>
       <use xlink:href="#SimHei-30" x="150"/>
       <use xlink:href="#SimHei-38" x="200"/>
      </g>
     </g>
    </g>
    <g id="xtick_30">
     <g id="text_30">
      <!-- 10-18 -->
      <g style="fill: #262626" transform="translate(783.41752 543.53675) rotate(-90) scale(0.132 -0.132)">
       <use xlink:href="#SimHei-31"/>
       <use xlink:href="#SimHei-30" x="50"/>
       <use xlink:href="#SimHei-2d" x="100"/>
       <use xlink:href="#SimHei-31" x="150"/>
       <use xlink:href="#SimHei-38" x="200"/>
      </g>
     </g>
    </g>
    <g id="xtick_31">
     <g id="text_31">
      <!-- 10-28 -->
      <g style="fill: #262626" transform="translate(806.491596 543.53675) rotate(-90) scale(0.132 -0.132)">
       <use xlink:href="#SimHei-31"/>
       <use xlink:href="#SimHei-30" x="50"/>
       <use xlink:href="#SimHei-2d" x="100"/>
       <use xlink:href="#SimHei-32" x="150"/>
       <use xlink:href="#SimHei-38" x="200"/>
      </g>
     </g>
    </g>
    <g id="xtick_32">
     <g id="text_32">
      <!-- 11-07 -->
      <g style="fill: #262626" transform="translate(829.565672 543.53675) rotate(-90) scale(0.132 -0.132)">
       <use xlink:href="#SimHei-31"/>
       <use xlink:href="#SimHei-31" x="50"/>
       <use xlink:href="#SimHei-2d" x="100"/>
       <use xlink:href="#SimHei-30" x="150"/>
       <use xlink:href="#SimHei-37" x="200"/>
      </g>
     </g>
    </g>
    <g id="xtick_33">
     <g id="text_33">
      <!-- 11-17 -->
      <g style="fill: #262626" transform="translate(852.639748 543.53675) rotate(-90) scale(0.132 -0.132)">
       <use xlink:href="#SimHei-31"/>
       <use xlink:href="#SimHei-31" x="50"/>
       <use xlink:href="#SimHei-2d" x="100"/>
       <use xlink:href="#SimHei-31" x="150"/>
       <use xlink:href="#SimHei-37" x="200"/>
      </g>
     </g>
    </g>
    <g id="xtick_34">
     <g id="text_34">
      <!-- 11-27 -->
      <g style="fill: #262626" transform="translate(875.713824 543.53675) rotate(-90) scale(0.132 -0.132)">
       <use xlink:href="#SimHei-31"/>
       <use xlink:href="#SimHei-31" x="50"/>
       <use xlink:href="#SimHei-2d" x="100"/>
       <use xlink:href="#SimHei-32" x="150"/>
       <use xlink:href="#SimHei-37" x="200"/>
      </g>
     </g>
    </g>
    <g id="xtick_35">
     <g id="text_35">
      <!-- 12-07 -->
      <g style="fill: #262626" transform="translate(898.7879 543.53675) rotate(-90) scale(0.132 -0.132)">
       <use xlink:href="#SimHei-31"/>
       <use xlink:href="#SimHei-32" x="50"/>
       <use xlink:href="#SimHei-2d" x="100"/>
       <use xlink:href="#SimHei-30" x="150"/>
       <use xlink:href="#SimHei-37" x="200"/>
      </g>
     </g>
    </g>
    <g id="xtick_36">
     <g id="text_36">
      <!-- 12-17 -->
      <g style="fill: #262626" transform="translate(921.861976 543.53675) rotate(-90) scale(0.132 -0.132)">
       <use xlink:href="#SimHei-31"/>
       <use xlink:href="#SimHei-32" x="50"/>
       <use xlink:href="#SimHei-2d" x="100"/>
       <use xlink:href="#SimHei-31" x="150"/>
       <use xlink:href="#SimHei-37" x="200"/>
      </g>
     </g>
    </g>
    <g id="xtick_37">
     <g id="text_37">
      <!-- 12-27 -->
      <g style="fill: #262626" transform="translate(944.936051 543.53675) rotate(-90) scale(0.132 -0.132)">
       <use xlink:href="#SimHei-31"/>
       <use xlink:href="#SimHei-32" x="50"/>
       <use xlink:href="#SimHei-2d" x="100"/>
       <use xlink:href="#SimHei-32" x="150"/>
       <use xlink:href="#SimHei-37" x="200"/>
      </g>
     </g>
    </g>
    <g id="text_38">
     <!-- 月日 -->
     <g style="fill: #262626" transform="translate(516.105 558.2805) scale(0.144 -0.144)">
      <defs>
       <path id="SimHei-6708" d="M 5250 4825 
Q 5200 4225 5200 3750 
L 5200 200 
Q 5200 -275 4950 -375 
Q 4700 -475 3975 -525 
Q 3925 -225 3750 50 
Q 4300 25 4512 50 
Q 4725 75 4725 400 
L 4725 1600 
L 1850 1600 
Q 1725 775 1450 225 
Q 1175 -325 900 -575 
Q 700 -400 400 -325 
Q 800 25 1037 512 
Q 1275 1000 1337 1475 
Q 1400 1950 1400 2525 
L 1400 3625 
Q 1400 4175 1375 4825 
L 5250 4825 
z
M 4725 3400 
L 4725 4450 
L 1875 4450 
L 1875 3400 
L 4725 3400 
z
M 4725 2000 
L 4725 3025 
L 1875 3025 
L 1875 2000 
L 4725 2000 
z
" transform="scale(0.015625)"/>
       <path id="SimHei-65e5" d="M 5375 5000 
Q 5350 3775 5350 2275 
Q 5350 775 5375 -450 
L 4800 -450 
L 4800 175 
L 1800 175 
L 1800 -575 
L 1250 -575 
Q 1275 575 1275 2125 
Q 1275 3675 1250 5000 
L 5375 5000 
z
M 4800 600 
L 4800 2375 
L 1800 2375 
L 1800 600 
L 4800 600 
z
M 4800 2800 
L 4800 4550 
L 1800 4550 
L 1800 2800 
L 4800 2800 
z
" transform="scale(0.015625)"/>
      </defs>
      <use xlink:href="#SimHei-6708"/>
      <use xlink:href="#SimHei-65e5" x="100"/>
     </g>
    </g>
   </g>
   <g id="matplotlib.axis_2">
    <g id="ytick_1">
     <g id="text_39">
      <!-- 1000 -->
      <g style="fill: #262626" transform="translate(32.662 413.728441) scale(0.132 -0.132)">
       <use xlink:href="#SimHei-31"/>
       <use xlink:href="#SimHei-30" x="50"/>
       <use xlink:href="#SimHei-30" x="100"/>
       <use xlink:href="#SimHei-30" x="150"/>
      </g>
     </g>
    </g>
    <g id="ytick_2">
     <g id="text_40">
      <!-- 2000 -->
      <g style="fill: #262626" transform="translate(32.662 321.478138) scale(0.132 -0.132)">
       <use xlink:href="#SimHei-32"/>
       <use xlink:href="#SimHei-30" x="50"/>
       <use xlink:href="#SimHei-30" x="100"/>
       <use xlink:href="#SimHei-30" x="150"/>
      </g>
     </g>
    </g>
    <g id="ytick_3">
     <g id="text_41">
      <!-- 3000 -->
      <g style="fill: #262626" transform="translate(32.662 229.227834) scale(0.132 -0.132)">
       <use xlink:href="#SimHei-33"/>
       <use xlink:href="#SimHei-30" x="50"/>
       <use xlink:href="#SimHei-30" x="100"/>
       <use xlink:href="#SimHei-30" x="150"/>
      </g>
     </g>
    </g>
    <g id="ytick_4">
     <g id="text_42">
      <!-- 4000 -->
      <g style="fill: #262626" transform="translate(32.662 136.977531) scale(0.132 -0.132)">
       <use xlink:href="#SimHei-34"/>
       <use xlink:href="#SimHei-30" x="50"/>
       <use xlink:href="#SimHei-30" x="100"/>
       <use xlink:href="#SimHei-30" x="150"/>
      </g>
     </g>
    </g>
    <g id="ytick_5">
     <g id="text_43">
      <!-- 5000 -->
      <g style="fill: #262626" transform="translate(32.662 44.727228) scale(0.132 -0.132)">
       <use xlink:href="#SimHei-35"/>
       <use xlink:href="#SimHei-30" x="50"/>
       <use xlink:href="#SimHei-30" x="100"/>
       <use xlink:href="#SimHei-30" x="150"/>
      </g>
     </g>
    </g>
    <g id="text_44">
     <!-- 货量 -->
     <g style="fill: #262626" transform="translate(26.862 272.694375) rotate(-90) scale(0.144 -0.144)">
      <defs>
       <path id="SimHei-8d27" d="M 3975 5075 
Q 3950 4750 3950 4100 
Q 4075 4175 4525 4375 
Q 4975 4575 5375 4900 
Q 5550 4625 5700 4400 
Q 5425 4325 4987 4112 
Q 4550 3900 3950 3650 
L 3950 3225 
Q 3950 3025 4300 3025 
L 5125 3025 
Q 5425 3025 5487 3150 
Q 5550 3275 5575 3625 
Q 5850 3450 6125 3375 
Q 5975 2875 5825 2750 
Q 5675 2625 5475 2625 
L 4000 2625 
Q 3425 2625 3425 3125 
L 3425 3525 
Q 2900 3325 2575 3225 
Q 2425 3500 2350 3650 
Q 2750 3750 3425 3925 
Q 3425 4750 3400 5075 
L 3975 5075 
z
M 5200 2200 
Q 5175 1825 5175 1425 
Q 5175 1050 5200 600 
L 4625 600 
L 4625 1775 
L 1950 1775 
L 1950 625 
L 1400 625 
Q 1425 1025 1425 1400 
Q 1425 1800 1400 2200 
L 5200 2200 
z
M 2625 4850 
Q 2425 4700 2050 4300 
Q 2050 2900 2075 2450 
L 1500 2450 
Q 1525 2900 1525 3825 
Q 1300 3625 1100 3425 
Q 900 3225 700 3050 
Q 475 3250 325 3400 
Q 850 3725 1325 4237 
Q 1800 4750 2050 5175 
Q 2325 4925 2625 4850 
z
M 3550 1325 
Q 3425 975 3312 687 
Q 3200 400 2925 137 
Q 2650 -125 2150 -325 
Q 1650 -525 800 -675 
Q 725 -400 475 -100 
Q 1200 -75 1675 25 
Q 2150 125 2412 325 
Q 2675 525 2787 775 
Q 2900 1025 2975 1400 
Q 3250 1350 3550 1325 
z
M 5575 -675 
Q 5125 -400 4650 -187 
Q 4175 25 3575 250 
Q 3725 500 3825 725 
Q 4350 500 4800 300 
Q 5250 100 5875 -175 
Q 5700 -400 5575 -675 
z
" transform="scale(0.015625)"/>
       <path id="SimHei-91cf" d="M 5250 2500 
Q 5225 2200 5225 1700 
Q 5225 1225 5250 950 
L 3425 950 
L 3425 625 
L 4575 625 
Q 5000 625 5375 650 
L 5375 275 
Q 5025 300 4575 300 
L 3425 300 
L 3425 -75 
L 5125 -75 
Q 5525 -75 5925 -50 
L 5925 -425 
Q 5525 -400 5125 -400 
L 1275 -400 
Q 900 -400 475 -425 
L 475 -50 
Q 925 -50 1275 -75 
L 2975 -75 
L 2975 300 
L 1725 300 
Q 1350 300 975 250 
L 975 650 
Q 1375 625 1725 625 
L 2975 625 
L 2975 950 
L 1150 950 
Q 1175 1375 1175 1775 
Q 1175 2175 1150 2500 
L 5250 2500 
z
M 5200 4950 
Q 5175 4575 5175 4250 
Q 5175 3925 5200 3400 
L 1200 3400 
Q 1225 3925 1225 4250 
Q 1225 4575 1200 4950 
L 5200 4950 
z
M 4900 3100 
Q 5500 3125 6000 3150 
L 6000 2750 
Q 5500 2775 4925 2775 
L 1650 2775 
Q 975 2775 325 2750 
L 325 3150 
Q 975 3125 1650 3100 
L 4900 3100 
z
M 4725 3700 
L 4725 4025 
L 1675 4025 
L 1675 3700 
L 4725 3700 
z
M 4725 4350 
L 4725 4650 
L 1675 4650 
L 1675 4350 
L 4725 4350 
z
M 4750 1875 
L 4750 2175 
L 3425 2175 
L 3425 1875 
L 4750 1875 
z
M 2975 1875 
L 2975 2175 
L 1650 2175 
L 1650 1875 
L 2975 1875 
z
M 2975 1275 
L 2975 1550 
L 1650 1550 
L 1650 1275 
L 2975 1275 
z
M 4750 1275 
L 4750 1550 
L 3425 1550 
L 3425 1275 
L 4750 1275 
z
" transform="scale(0.015625)"/>
      </defs>
      <use xlink:href="#SimHei-8d27"/>
      <use xlink:href="#SimHei-91cf" x="100"/>
     </g>
    </g>
   </g>
   <g id="PolyCollection_1">
    <defs>
     <path id="m7a9a08017f" d="M 110.556818 -246.514088 
L 110.556818 -168.724517 
L 112.864226 -163.61761 
L 115.171633 -141.187538 
L 117.479041 -144.314713 
L 119.786449 -144.199468 
L 122.093856 -154.652364 
L 124.401264 -143.946895 
L 126.708671 -163.336501 
L 129.016079 -148.513124 
L 131.323487 -148.250835 
L 133.630894 -147.526422 
L 135.938302 -152.162154 
L 138.245709 -142.293108 
L 140.553117 -154.764434 
L 142.860524 -154.291263 
L 145.167932 -155.010674 
L 147.47534 -141.994187 
L 149.782747 -152.300953 
L 152.090155 -142.884983 
L 154.397562 -172.990392 
L 156.70497 -158.603131 
L 159.012378 -167.876656 
L 161.319785 -161.593914 
L 163.627193 -172.07317 
L 165.9346 -162.412299 
L 168.242008 -159.578555 
L 170.549416 -157.612476 
L 172.856823 -157.569035 
L 175.164231 -164.348768 
L 177.471638 -160.336368 
L 179.779046 -159.162518 
L 182.086454 -159.907657 
L 184.393861 -171.521572 
L 186.701269 -170.636983 
L 189.008676 -164.611499 
L 191.316084 -171.800423 
L 193.623492 -169.381776 
L 195.930899 -174.795376 
L 198.238307 -165.855961 
L 200.545714 -160.991207 
L 202.853122 -140.765708 
L 205.160529 -97.030739 
L 207.467937 -122.764763 
L 209.775345 -125.049238 
L 212.082752 -132.078418 
L 214.39016 -143.976768 
L 216.697567 -137.499249 
L 219.004975 -132.385929 
L 221.312383 -144.190721 
L 223.61979 -146.748257 
L 225.927198 -147.312406 
L 228.234605 -142.017234 
L 230.542013 -142.96849 
L 232.849421 -149.079589 
L 235.156828 -145.992053 
L 237.464236 -146.392201 
L 239.771643 -137.69899 
L 242.079051 -147.511855 
L 244.386459 -142.992669 
L 246.693866 -148.112783 
L 249.001274 -150.156356 
L 251.308681 -146.531209 
L 253.616089 -147.10758 
L 255.923497 -154.488438 
L 258.230904 -142.609934 
L 260.538312 -139.996581 
L 262.845719 -157.545761 
L 265.153127 -146.273361 
L 267.460534 -139.036472 
L 269.767942 -139.228784 
L 272.07535 -143.835174 
L 274.382757 -137.726118 
L 276.690165 -137.727507 
L 278.997572 -140.839926 
L 281.30498 -142.565479 
L 283.612388 -145.156563 
L 285.919795 -147.211828 
L 288.227203 -144.772271 
L 290.53461 -150.22703 
L 292.842018 -137.64351 
L 295.149426 -142.630057 
L 297.456833 -148.89819 
L 299.764241 -142.504149 
L 302.071648 -148.960996 
L 304.379056 -143.511606 
L 306.686464 -140.171916 
L 308.993871 -144.955917 
L 311.301279 -145.012203 
L 313.608686 -144.022227 
L 315.916094 -143.27471 
L 318.223501 -145.088121 
L 320.530909 -145.435563 
L 322.838317 -135.28759 
L 325.145724 -132.701932 
L 327.453132 -138.694592 
L 329.760539 -147.064766 
L 332.067947 -151.592543 
L 334.375355 -146.280735 
L 336.682762 -147.598677 
L 338.99017 -142.564936 
L 341.297577 -137.540857 
L 343.604985 -145.453846 
L 345.912393 -148.075311 
L 348.2198 -145.389546 
L 350.527208 -142.660109 
L 352.834615 -147.016249 
L 355.142023 -144.368008 
L 357.449431 -140.064751 
L 359.756838 -146.604598 
L 362.064246 -157.608428 
L 364.371653 -150.348488 
L 366.679061 -149.642608 
L 368.986469 -149.962384 
L 371.293876 -149.28948 
L 373.601284 -159.951388 
L 375.908691 -150.112972 
L 378.216099 -149.675419 
L 380.523506 -152.284497 
L 382.830914 -147.642115 
L 385.138322 -138.148904 
L 387.445729 -139.901429 
L 389.753137 -132.4072 
L 392.060544 -130.834952 
L 394.367952 -137.59212 
L 396.67536 -139.496543 
L 398.982767 -156.873209 
L 401.290175 -156.739171 
L 403.597582 -154.312395 
L 405.90499 -149.609753 
L 408.212398 -163.072185 
L 410.519805 -158.632316 
L 412.827213 -146.342841 
L 415.13462 -150.030857 
L 417.442028 -151.599077 
L 419.749436 -153.996457 
L 422.056843 -142.266932 
L 424.364251 -158.947218 
L 426.671658 -159.324348 
L 428.979066 -158.157959 
L 431.286474 -152.802383 
L 433.593881 -149.148825 
L 435.901289 -149.732829 
L 438.208696 -150.869201 
L 440.516104 -165.779235 
L 442.823511 -163.233824 
L 445.130919 -153.951163 
L 447.438327 -148.88062 
L 449.745734 -148.418104 
L 452.053142 -148.298658 
L 454.360549 -140.93394 
L 456.667957 -147.568502 
L 458.975365 -271.938021 
L 461.282772 -196.922447 
L 463.59018 -181.423776 
L 465.897587 -169.138039 
L 468.204995 -168.130217 
L 470.512403 -167.344326 
L 472.81981 -174.579443 
L 475.127218 -181.422472 
L 477.434625 -167.526747 
L 479.742033 -162.528129 
L 482.049441 -157.308177 
L 484.356848 -157.999701 
L 486.664256 -160.250082 
L 488.971663 -149.882391 
L 491.279071 -155.354087 
L 493.586479 -204.047963 
L 495.893886 -181.981745 
L 498.201294 -312.313605 
L 500.508701 -207.383227 
L 502.816109 -165.210293 
L 505.123516 -160.126617 
L 507.430924 -151.993267 
L 509.738332 -141.816533 
L 512.045739 -149.539712 
L 514.353147 -142.081774 
L 516.660554 -140.184454 
L 518.967962 -146.245627 
L 521.27537 -148.257446 
L 523.582777 -145.571054 
L 525.890185 -154.279004 
L 528.197592 -150.225306 
L 530.505 -154.180435 
L 532.812408 -149.967779 
L 535.119815 -153.145582 
L 537.427223 -152.616715 
L 539.73463 -149.800643 
L 542.042038 -154.525839 
L 544.349446 -151.28199 
L 546.656853 -145.250768 
L 548.964261 -150.667595 
L 551.271668 -149.186949 
L 553.579076 -143.480321 
L 555.886484 -155.897469 
L 558.193891 -151.765192 
L 560.501299 -156.554618 
L 562.808706 -157.093955 
L 565.116114 -149.828859 
L 567.423521 -144.856141 
L 569.730929 -151.8007 
L 572.038337 -152.083286 
L 574.345744 -157.95848 
L 576.653152 -148.962383 
L 578.960559 -150.279133 
L 581.267967 -147.009352 
L 583.575375 -145.557298 
L 585.882782 -153.407876 
L 588.19019 -158.651395 
L 590.497597 -152.101303 
L 592.805005 -152.742106 
L 595.112413 -154.370632 
L 597.41982 -154.078476 
L 599.727228 -150.764041 
L 602.034635 -158.663733 
L 604.342043 -163.41697 
L 606.649451 -162.759403 
L 608.956858 -161.261936 
L 611.264266 -155.365455 
L 613.571673 -157.14247 
L 615.879081 -157.643042 
L 618.186489 -158.406666 
L 620.493896 -161.81548 
L 622.801304 -159.319832 
L 625.108711 -164.107106 
L 627.416119 -170.683955 
L 629.723526 -154.100522 
L 632.030934 -163.59635 
L 634.338342 -157.995875 
L 636.645749 -159.763827 
L 638.953157 -164.144899 
L 641.260564 -156.136042 
L 643.567972 -153.805352 
L 645.87538 -152.849289 
L 648.182787 -151.474152 
L 650.490195 -161.538878 
L 652.797602 -160.600253 
L 655.10501 -171.883925 
L 657.412418 -166.893654 
L 659.719825 -164.739482 
L 662.027233 -164.930273 
L 664.33464 -162.424804 
L 666.642048 -167.889245 
L 668.949456 -167.574919 
L 671.256863 -176.431256 
L 673.564271 -173.248689 
L 675.871678 -165.692281 
L 678.179086 -162.386732 
L 680.486494 -157.531957 
L 682.793901 -170.40293 
L 685.101309 -167.140252 
L 687.408716 -167.147923 
L 689.716124 -189.066701 
L 692.023531 -165.83047 
L 694.330939 -153.832458 
L 696.638347 -152.892006 
L 698.945754 -170.175892 
L 701.253162 -169.297414 
L 703.560569 -161.414545 
L 705.867977 -171.913876 
L 708.175385 -164.48278 
L 710.482792 -166.270477 
L 712.7902 -164.512328 
L 715.097607 -152.690995 
L 717.405015 -145.167175 
L 719.712423 -158.825464 
L 722.01983 -166.142678 
L 724.327238 -163.560591 
L 726.634645 -156.107558 
L 728.942053 -162.793135 
L 731.249461 -161.446131 
L 733.556868 -170.939257 
L 735.864276 -160.676619 
L 738.171683 -148.584462 
L 740.479091 -147.951191 
L 742.786499 -137.569655 
L 745.093906 -137.790763 
L 747.401314 -134.575996 
L 749.708721 -133.456208 
L 752.016129 -148.371526 
L 754.323536 -140.788454 
L 756.630944 -157.367698 
L 758.938352 -155.454399 
L 761.245759 -149.953262 
L 763.553167 -156.261545 
L 765.860574 -150.295044 
L 768.167982 -149.909874 
L 770.47539 -153.966258 
L 772.782797 -161.041465 
L 775.090205 -147.724987 
L 777.397612 -145.696507 
L 779.70502 -158.740178 
L 782.012428 -153.123511 
L 784.319835 -166.817464 
L 786.627243 -164.276406 
L 788.93465 -166.355379 
L 791.242058 -155.193882 
L 793.549466 -148.326926 
L 795.856873 -152.578977 
L 798.164281 -150.910839 
L 800.471688 -156.87131 
L 802.779096 -154.99962 
L 805.086503 -145.368119 
L 807.393911 -147.335825 
L 809.701319 -168.01333 
L 812.008726 -249.584902 
L 814.316134 -222.874821 
L 816.623541 -226.944455 
L 818.930949 -222.6351 
L 821.238357 -192.654437 
L 823.545764 -176.789836 
L 825.853172 -161.44089 
L 828.160579 -177.650717 
L 830.467987 -173.211624 
L 832.775395 -168.455749 
L 835.082802 -285.214863 
L 837.39021 -216.303286 
L 839.697617 -175.413843 
L 842.005025 -166.191547 
L 844.312433 -151.502219 
L 846.61984 -145.743881 
L 848.927248 -150.67183 
L 851.234655 -154.915581 
L 853.542063 -156.032373 
L 855.849471 -150.326696 
L 858.156878 -147.39763 
L 860.464286 -159.377715 
L 862.771693 -149.581084 
L 865.079101 -149.140721 
L 867.386508 -143.867906 
L 869.693916 -143.718597 
L 872.001324 -150.367804 
L 874.308731 -145.265892 
L 876.616139 -146.429052 
L 878.923546 -148.295116 
L 881.230954 -149.725684 
L 883.538362 -149.08266 
L 885.845769 -147.680378 
L 888.153177 -147.273077 
L 890.460584 -143.814737 
L 892.767992 -146.019563 
L 895.0754 -150.696453 
L 897.382807 -145.501381 
L 899.690215 -149.835815 
L 901.997622 -162.228563 
L 904.30503 -164.738658 
L 906.612438 -214.688679 
L 908.919845 -170.137251 
L 911.227253 -152.695238 
L 913.53466 -148.236932 
L 915.842068 -147.531085 
L 918.149476 -145.14417 
L 920.456883 -153.153279 
L 922.764291 -146.221949 
L 925.071698 -148.494428 
L 927.379106 -150.688475 
L 929.686513 -151.07265 
L 931.993921 -153.249327 
L 934.301329 -155.970862 
L 936.608736 -148.11304 
L 938.916144 -150.578491 
L 941.223551 -147.576421 
L 943.530959 -157.149701 
L 945.838367 -155.769382 
L 948.145774 -152.179814 
L 950.453182 -153.971583 
L 950.453182 -249.681088 
L 950.453182 -249.681088 
L 948.145774 -241.40283 
L 945.838367 -245.307083 
L 943.530959 -235.6341 
L 941.223551 -214.001958 
L 938.916144 -225.882532 
L 936.608736 -211.386743 
L 934.301329 -247.934704 
L 931.993921 -234.942174 
L 929.686513 -236.208969 
L 927.379106 -257.740176 
L 925.071698 -220.80181 
L 922.764291 -224.69632 
L 920.456883 -232.577622 
L 918.149476 -211.030337 
L 915.842068 -239.329087 
L 913.53466 -220.7235 
L 911.227253 -234.945344 
L 908.919845 -268.156383 
L 906.612438 -419.367074 
L 904.30503 -278.721736 
L 901.997622 -244.173804 
L 899.690215 -226.942074 
L 897.382807 -216.801229 
L 895.0754 -228.331787 
L 892.767992 -215.938699 
L 890.460584 -217.68954 
L 888.153177 -229.440266 
L 885.845769 -234.371653 
L 883.538362 -214.337673 
L 881.230954 -240.027413 
L 878.923546 -222.079791 
L 876.616139 -247.9328 
L 874.308731 -220.182928 
L 872.001324 -212.806052 
L 869.693916 -209.996544 
L 867.386508 -204.096707 
L 865.079101 -234.410908 
L 862.771693 -230.107528 
L 860.464286 -250.736562 
L 858.156878 -222.125511 
L 855.849471 -225.391047 
L 853.542063 -230.043573 
L 851.234655 -230.755855 
L 848.927248 -228.299726 
L 846.61984 -197.752359 
L 844.312433 -227.046069 
L 842.005025 -265.85287 
L 839.697617 -360.187258 
L 837.39021 -386.181397 
L 835.082802 -530.649272 
L 832.775395 -262.835223 
L 830.467987 -292.393137 
L 828.160579 -339.955995 
L 825.853172 -252.543976 
L 823.545764 -283.243039 
L 821.238357 -318.61558 
L 818.930949 -397.167252 
L 816.623541 -393.377409 
L 814.316134 -370.555842 
L 812.008726 -419.295444 
L 809.701319 -271.098012 
L 807.393911 -243.122226 
L 805.086503 -228.622747 
L 802.779096 -244.981032 
L 800.471688 -244.456979 
L 798.164281 -242.319312 
L 795.856873 -237.954463 
L 793.549466 -232.686647 
L 791.242058 -255.086888 
L 788.93465 -275.464129 
L 786.627243 -251.875706 
L 784.319835 -269.798628 
L 782.012428 -251.188228 
L 779.70502 -246.553093 
L 777.397612 -212.260867 
L 775.090205 -235.10687 
L 772.782797 -249.273061 
L 770.47539 -220.431986 
L 768.167982 -232.62663 
L 765.860574 -232.8088 
L 763.553167 -246.69215 
L 761.245759 -225.809295 
L 758.938352 -237.794678 
L 756.630944 -251.539472 
L 754.323536 -200.190445 
L 752.016129 -220.448178 
L 749.708721 -197.710072 
L 747.401314 -189.167314 
L 745.093906 -214.654138 
L 742.786499 -205.014201 
L 740.479091 -231.387004 
L 738.171683 -217.93795 
L 735.864276 -248.924668 
L 733.556868 -269.212421 
L 731.249461 -238.148156 
L 728.942053 -261.405277 
L 726.634645 -247.332005 
L 724.327238 -264.898875 
L 722.01983 -263.918832 
L 719.712423 -247.605623 
L 717.405015 -210.556022 
L 715.097607 -244.153991 
L 712.7902 -252.191541 
L 710.482792 -252.714421 
L 708.175385 -264.72946 
L 705.867977 -281.748311 
L 703.560569 -263.895171 
L 701.253162 -256.264932 
L 698.945754 -266.457555 
L 696.638347 -253.591989 
L 694.330939 -240.548765 
L 692.023531 -260.914148 
L 689.716124 -331.703757 
L 687.408716 -273.331632 
L 685.101309 -245.236252 
L 682.793901 -282.883872 
L 680.486494 -235.935135 
L 678.179086 -266.380385 
L 675.871678 -262.114463 
L 673.564271 -300.641908 
L 671.256863 -293.794477 
L 668.949456 -257.497461 
L 666.642048 -261.207064 
L 664.33464 -274.92506 
L 662.027233 -268.290061 
L 659.719825 -245.35979 
L 657.412418 -249.778868 
L 655.10501 -264.027257 
L 652.797602 -231.12915 
L 650.490195 -239.289837 
L 648.182787 -212.246627 
L 645.87538 -227.027489 
L 643.567972 -232.278062 
L 641.260564 -221.349197 
L 638.953157 -243.664526 
L 636.645749 -233.608616 
L 634.338342 -229.010807 
L 632.030934 -248.031843 
L 629.723526 -232.794773 
L 627.416119 -255.215148 
L 625.108711 -245.626151 
L 622.801304 -228.972122 
L 620.493896 -250.578099 
L 618.186489 -219.772295 
L 615.879081 -227.381769 
L 613.571673 -229.683014 
L 611.264266 -225.137007 
L 608.956858 -246.385791 
L 606.649451 -257.662434 
L 604.342043 -232.67817 
L 602.034635 -223.769453 
L 599.727228 -210.221322 
L 597.41982 -222.672418 
L 595.112413 -223.125385 
L 592.805005 -212.081135 
L 590.497597 -224.598261 
L 588.19019 -224.540765 
L 585.882782 -223.494076 
L 583.575375 -200.918947 
L 581.267967 -213.150896 
L 578.960559 -222.074389 
L 576.653152 -208.549129 
L 574.345744 -225.251236 
L 572.038337 -212.931131 
L 569.730929 -221.289747 
L 567.423521 -196.337621 
L 565.116114 -216.088243 
L 562.808706 -224.249957 
L 560.501299 -240.35376 
L 558.193891 -235.759664 
L 555.886484 -261.542905 
L 553.579076 -226.860291 
L 551.271668 -221.773091 
L 548.964261 -219.233695 
L 546.656853 -217.210657 
L 544.349446 -224.364276 
L 542.042038 -230.368219 
L 539.73463 -230.767296 
L 537.427223 -236.513931 
L 535.119815 -232.299273 
L 532.812408 -231.313371 
L 530.505 -242.07921 
L 528.197592 -226.81875 
L 525.890185 -219.543908 
L 523.582777 -207.951336 
L 521.27537 -226.557105 
L 518.967962 -215.436546 
L 516.660554 -187.889359 
L 514.353147 -205.031803 
L 512.045739 -218.756907 
L 509.738332 -221.989275 
L 507.430924 -209.578984 
L 505.123516 -232.737414 
L 502.816109 -257.494431 
L 500.508701 -383.735111 
L 498.201294 -538.380511 
L 495.893886 -277.118892 
L 493.586479 -319.555535 
L 491.279071 -243.921193 
L 488.971663 -243.693681 
L 486.664256 -262.255026 
L 484.356848 -251.743889 
L 482.049441 -238.987442 
L 479.742033 -251.547877 
L 477.434625 -275.362222 
L 475.127218 -303.289663 
L 472.81981 -268.263803 
L 470.512403 -283.684216 
L 468.204995 -271.031363 
L 465.897587 -251.083444 
L 463.59018 -351.376485 
L 461.282772 -313.237699 
L 458.975365 -490.741835 
L 456.667957 -232.145216 
L 454.360549 -196.557401 
L 452.053142 -221.437772 
L 449.745734 -209.033212 
L 447.438327 -207.691478 
L 445.130919 -235.707665 
L 442.823511 -268.529606 
L 440.516104 -259.471985 
L 438.208696 -243.730246 
L 435.901289 -236.925707 
L 433.593881 -244.156605 
L 431.286474 -238.417867 
L 428.979066 -250.851411 
L 426.671658 -266.85953 
L 424.364251 -242.019412 
L 422.056843 -206.752814 
L 419.749436 -232.782701 
L 417.442028 -214.796328 
L 415.13462 -222.138113 
L 412.827213 -226.050531 
L 410.519805 -259.836483 
L 408.212398 -272.623974 
L 405.90499 -220.735487 
L 403.597582 -222.057744 
L 401.290175 -244.361981 
L 398.982767 -236.187001 
L 396.67536 -186.148836 
L 394.367952 -199.925856 
L 392.060544 -184.203045 
L 389.753137 -179.717532 
L 387.445729 -209.382106 
L 385.138322 -218.698089 
L 382.830914 -204.677222 
L 380.523506 -256.591071 
L 378.216099 -220.848412 
L 375.908691 -233.128103 
L 373.601284 -237.920496 
L 371.293876 -220.259314 
L 368.986469 -216.031409 
L 366.679061 -241.515039 
L 364.371653 -218.835695 
L 362.064246 -226.950875 
L 359.756838 -209.704375 
L 357.449431 -219.699739 
L 355.142023 -222.199199 
L 352.834615 -242.020052 
L 350.527208 -216.113894 
L 348.2198 -228.341819 
L 345.912393 -205.300478 
L 343.604985 -201.914987 
L 341.297577 -220.252133 
L 338.99017 -231.243915 
L 336.682762 -228.927184 
L 334.375355 -248.140906 
L 332.067947 -218.699729 
L 329.760539 -215.277949 
L 327.453132 -207.389385 
L 325.145724 -189.30857 
L 322.838317 -228.815125 
L 320.530909 -197.644537 
L 318.223501 -199.311536 
L 315.916094 -210.558163 
L 313.608686 -217.788122 
L 311.301279 -228.31016 
L 308.993871 -220.558307 
L 306.686464 -188.756868 
L 304.379056 -213.769263 
L 302.071648 -218.115033 
L 299.764241 -202.075926 
L 297.456833 -229.277706 
L 295.149426 -231.53395 
L 292.842018 -191.222686 
L 290.53461 -213.155121 
L 288.227203 -217.072534 
L 285.919795 -232.757836 
L 283.612388 -203.133405 
L 281.30498 -213.720047 
L 278.997572 -192.478284 
L 276.690165 -201.646839 
L 274.382757 -193.147209 
L 272.07535 -228.580229 
L 269.767942 -186.552277 
L 267.460534 -195.211305 
L 265.153127 -244.537149 
L 262.845719 -254.801661 
L 260.538312 -205.967827 
L 258.230904 -226.389984 
L 255.923497 -220.960486 
L 253.616089 -218.607846 
L 251.308681 -209.033821 
L 249.001274 -205.99187 
L 246.693866 -229.732081 
L 244.386459 -201.899078 
L 242.079051 -210.313199 
L 239.771643 -197.159886 
L 237.464236 -212.368756 
L 235.156828 -210.955695 
L 232.849421 -241.384978 
L 230.542013 -197.747173 
L 228.234605 -235.201242 
L 225.927198 -240.282341 
L 223.61979 -245.838568 
L 221.312383 -216.813574 
L 219.004975 -219.510066 
L 216.697567 -235.75751 
L 214.39016 -220.72629 
L 212.082752 -212.920635 
L 209.775345 -182.814894 
L 207.467937 -174.099518 
L 205.160529 -117.164644 
L 202.853122 -231.537779 
L 200.545714 -249.613576 
L 198.238307 -271.144968 
L 195.930899 -256.65812 
L 193.623492 -259.196001 
L 191.316084 -271.223024 
L 189.008676 -270.09187 
L 186.701269 -273.038392 
L 184.393861 -268.923395 
L 182.086454 -236.199025 
L 179.779046 -253.775641 
L 177.471638 -246.063335 
L 175.164231 -247.284029 
L 172.856823 -253.631021 
L 170.549416 -230.850488 
L 168.242008 -236.877856 
L 165.9346 -247.568631 
L 163.627193 -267.72167 
L 161.319785 -232.689398 
L 159.012378 -246.324351 
L 156.70497 -251.784153 
L 154.397562 -280.706204 
L 152.090155 -192.619045 
L 149.782747 -244.855359 
L 147.47534 -209.013689 
L 145.167932 -213.804582 
L 142.860524 -233.869138 
L 140.553117 -237.580185 
L 138.245709 -212.395534 
L 135.938302 -262.80186 
L 133.630894 -206.256428 
L 131.323487 -212.590499 
L 129.016079 -225.247327 
L 126.708671 -270.599363 
L 124.401264 -229.703139 
L 122.093856 -234.387557 
L 119.786449 -237.489129 
L 117.479041 -228.313345 
L 115.171633 -202.586092 
L 112.864226 -248.622744 
L 110.556818 -246.514088 
z
" style="stroke: #db5f57; stroke-opacity: 0.2"/>
    </defs>
    <g clip-path="url(#p503faf416e)">
     <use xlink:href="#m7a9a08017f" x="0" y="576" style="fill: #db5f57; fill-opacity: 0.2; stroke: #db5f57; stroke-opacity: 0.2"/>
    </g>
   </g>
   <g id="line2d_1">
    <path d="M 110.556818 371.244319 
L 112.864226 374.725471 
L 115.171633 406.553936 
L 117.479041 392.188304 
L 119.786449 395.323759 
L 122.093856 384.762462 
L 124.401264 395.639556 
L 126.708671 362.84277 
L 129.016079 394.210951 
L 131.323487 396.59574 
L 133.630894 400.962372 
L 135.938302 374.047181 
L 138.245709 401.214411 
L 140.553117 383.982248 
L 142.860524 385.141401 
L 147.47534 403.681777 
L 149.782747 384.293208 
L 152.090155 410.50531 
L 154.397562 355.18151 
L 156.70497 375.545699 
L 159.012378 374.672619 
L 161.319785 381.629206 
L 163.627193 359.680757 
L 165.9346 375.049886 
L 168.242008 381.532207 
L 170.549416 384.412896 
L 172.856823 377.384549 
L 175.164231 374.128526 
L 177.471638 377.744492 
L 179.779046 374.994923 
L 182.086454 379.554937 
L 184.393861 360.787233 
L 186.701269 360.353331 
L 189.008676 367.313788 
L 191.316084 359.076249 
L 193.623492 366.232199 
L 198.238307 362.1162 
L 200.545714 376.693947 
L 202.853122 396.107051 
L 205.160529 469.9882 
L 207.467937 428.847554 
L 209.775345 424.698929 
L 212.082752 410.597296 
L 214.39016 398.540296 
L 216.697567 398.271196 
L 219.004975 411.36898 
L 221.312383 399.595326 
L 223.61979 388.760357 
L 225.927198 387.92342 
L 228.234605 394.024252 
L 230.542013 407.399227 
L 232.849421 389.591665 
L 235.156828 400.436308 
L 237.464236 398.719168 
L 239.771643 411.62656 
L 242.079051 399.718532 
L 244.386459 406.6563 
L 246.693866 391.868286 
L 249.001274 398.70158 
L 251.308681 399.687401 
L 253.616089 397.704239 
L 255.923497 390.077276 
L 258.230904 396.208623 
L 260.538312 407.491917 
L 262.845719 376.171312 
L 265.153127 388.925774 
L 267.460534 409.820951 
L 269.767942 413.395057 
L 272.07535 397.405943 
L 274.382757 412.372125 
L 276.690165 409.974673 
L 278.997572 410.919073 
L 281.30498 402.480149 
L 283.612388 405.849 
L 285.919795 391.601473 
L 288.227203 398.217288 
L 290.53461 396.248812 
L 292.842018 414.030608 
L 295.149426 398.46238 
L 297.456833 391.062217 
L 299.764241 406.4645 
L 302.071648 394.650481 
L 304.379056 402.399683 
L 306.686464 413.074511 
L 308.993871 396.787188 
L 311.301279 394.782393 
L 313.608686 397.716111 
L 315.916094 400.894833 
L 318.223501 406.514099 
L 320.530909 406.41323 
L 322.838317 402.870256 
L 325.145724 416.222014 
L 327.453132 405.461795 
L 329.760539 398.43248 
L 332.067947 394.344006 
L 334.375355 387.644823 
L 336.682762 394.472313 
L 338.99017 396.162366 
L 341.297577 404.558639 
L 343.604985 403.394561 
L 345.912393 400.283554 
L 348.2198 394.166893 
L 350.527208 401.485886 
L 352.834615 390.117993 
L 355.142023 397.041602 
L 357.449431 404.755012 
L 359.756838 401.239826 
L 362.064246 386.428684 
L 364.371653 392.962714 
L 366.679061 385.209204 
L 368.986469 396.1293 
L 371.293876 395.78334 
L 373.601284 377.403544 
L 375.908691 389.250805 
L 378.216099 392.532594 
L 380.523506 383.012521 
L 382.830914 400.111629 
L 385.138322 401.487029 
L 387.445729 405.572952 
L 389.753137 421.447919 
L 392.060544 421.667508 
L 394.367952 410.485523 
L 396.67536 414.505227 
L 398.982767 384.306312 
L 401.290175 379.798271 
L 403.597582 391.199405 
L 405.90499 393.612951 
L 408.212398 364.669309 
L 410.519805 375.073718 
L 412.827213 394.088977 
L 415.13462 394.645908 
L 417.442028 394.322549 
L 419.749436 387.10759 
L 422.056843 405.950484 
L 424.364251 379.558807 
L 426.671658 372.306209 
L 428.979066 378.525937 
L 431.286474 385.826199 
L 433.593881 386.19564 
L 435.901289 389.180716 
L 438.208696 385.063661 
L 440.516104 368.61136 
L 442.823511 368.420088 
L 445.130919 385.70783 
L 447.438327 399.32737 
L 449.745734 398.414716 
L 452.053142 395.340204 
L 454.360549 410.951435 
L 456.667957 390.213937 
L 458.975365 207.808353 
L 461.282772 324.906262 
L 463.59018 319.73321 
L 465.897587 369.382605 
L 468.204995 362.811815 
L 470.512403 359.145195 
L 472.81981 361.271261 
L 475.127218 341.63505 
L 477.434625 362.123851 
L 479.742033 376.496343 
L 482.049441 382.406518 
L 484.356848 377.144557 
L 486.664256 370.465073 
L 488.971663 384.210544 
L 491.279071 381.585763 
L 493.586479 320.156383 
L 495.893886 350.089364 
L 498.201294 161.401966 
L 500.508701 288.443209 
L 502.816109 369.524542 
L 505.123516 382.164768 
L 507.430924 397.356608 
L 509.738332 397.974131 
L 512.045739 394.216668 
L 514.353147 406.480857 
L 516.660554 413.704522 
L 518.967962 399.264755 
L 521.27537 394.386042 
L 523.582777 401.970266 
L 525.890185 392.460658 
L 528.197592 392.109773 
L 530.505 380.923918 
L 532.812408 389.719179 
L 535.119815 387.199752 
L 537.427223 388.229016 
L 539.73463 390.521467 
L 542.042038 388.243966 
L 544.349446 391.034252 
L 546.656853 399.250421 
L 551.271668 392.312301 
L 553.579076 393.55148 
L 555.886484 374.830649 
L 558.193891 386.886946 
L 560.501299 382.822304 
L 562.808706 387.153232 
L 565.116114 395.697685 
L 567.423521 408.903197 
L 569.730929 394.019767 
L 572.038337 395.763905 
L 574.345744 387.037677 
L 576.653152 399.684675 
L 578.960559 393.742225 
L 581.267967 398.689444 
L 583.575375 404.618527 
L 585.882782 390.079562 
L 588.19019 386.733576 
L 590.497597 391.236868 
L 592.805005 395.348207 
L 595.112413 389.294424 
L 597.41982 390.019235 
L 599.727228 398.588312 
L 602.034635 386.712822 
L 604.342043 378.528312 
L 606.649451 368.477866 
L 608.956858 376.371818 
L 611.264266 389.216156 
L 613.571673 386.896092 
L 615.879081 384.799837 
L 618.186489 388.198149 
L 620.493896 373.575552 
L 622.801304 384.805114 
L 625.108711 375.372279 
L 627.416119 367.83484 
L 629.723526 383.665924 
L 632.030934 376.823132 
L 634.338342 385.043083 
L 636.645749 381.289313 
L 638.953157 374.086754 
L 641.260564 388.257157 
L 643.567972 384.8745 
L 645.87538 388.185661 
L 648.182787 395.802511 
L 650.490195 375.208532 
L 652.797602 384.31537 
L 655.10501 364.387193 
L 657.412418 371.261996 
L 659.719825 373.103572 
L 662.027233 365.933112 
L 664.33464 368.086967 
L 666.642048 364.321325 
L 668.949456 366.706115 
L 671.256863 348.004894 
L 673.564271 348.387614 
L 675.871678 367.611733 
L 678.179086 365.930737 
L 680.486494 382.97541 
L 682.793901 354.719907 
L 685.101309 373.446279 
L 687.408716 362.153575 
L 689.716124 326.125039 
L 692.023531 369.090992 
L 694.330939 384.655966 
L 696.638347 375.507444 
L 698.945754 360.133566 
L 701.253162 366.78148 
L 703.560569 370.1017 
L 705.867977 353.74631 
L 708.175385 367.619999 
L 710.482792 368.700621 
L 712.7902 373.324128 
L 715.097607 380.550344 
L 717.405015 400.799945 
L 719.712423 378.26141 
L 722.01983 368.01635 
L 724.327238 369.196345 
L 726.634645 379.759664 
L 728.942053 365.746324 
L 731.249461 379.213725 
L 733.556868 360.924245 
L 735.864276 377.308919 
L 738.171683 394.971643 
L 740.479091 392.632143 
L 742.786499 407.788015 
L 745.093906 406.848012 
L 747.401314 415.345417 
L 749.708721 413.575073 
L 752.016129 394.95124 
L 754.323536 408.383553 
L 756.630944 377.472402 
L 758.938352 383.87153 
L 761.245759 391.668748 
L 763.553167 378.383912 
L 765.860574 390.190368 
L 768.167982 388.90203 
L 770.47539 391.288314 
L 772.782797 376.426342 
L 775.090205 390.472835 
L 777.397612 399.275396 
L 779.70502 379.972746 
L 782.012428 379.633908 
L 784.319835 365.66665 
L 786.627243 373.867077 
L 788.93465 360.880451 
L 791.242058 375.645248 
L 793.549466 388.299193 
L 795.856873 384.576115 
L 798.164281 381.707122 
L 802.779096 380.376836 
L 805.086503 393.905708 
L 807.393911 384.649898 
L 809.701319 362.840132 
L 812.008726 250.861191 
L 814.316134 281.902143 
L 816.623541 273.447654 
L 818.930949 273.769255 
L 821.238357 325.568195 
L 823.545764 348.23741 
L 825.853172 373.398087 
L 828.160579 325.413771 
L 830.467987 348.917635 
L 832.775395 368.010722 
L 835.082802 176.711998 
L 837.39021 282.975641 
L 839.697617 326.818807 
L 842.005025 364.913346 
L 844.312433 391.201428 
L 846.61984 406.706163 
L 848.927248 390.540462 
L 851.234655 387.88842 
L 853.542063 386.0705 
L 855.849471 391.851401 
L 858.156878 394.961617 
L 860.464286 375.335695 
L 862.771693 391.727228 
L 865.079101 391.237396 
L 867.386508 405.510514 
L 869.693916 400.841541 
L 872.001324 398.121784 
L 874.308731 394.69111 
L 876.616139 385.033937 
L 878.923546 393.959967 
L 881.230954 386.489715 
L 883.538362 396.707162 
L 885.845769 390.001471 
L 888.153177 390.603604 
L 890.460584 398.903229 
L 892.767992 398.012649 
L 895.0754 389.416486 
L 897.382807 397.448066 
L 899.690215 391.158161 
L 901.997622 376.187933 
L 904.30503 362.984795 
L 906.612438 282.181357 
L 908.919845 361.278297 
L 911.227253 386.490946 
L 913.53466 393.841862 
L 915.842068 387.739272 
L 918.149476 402.219491 
L 920.456883 386.464916 
L 922.764291 394.32633 
L 925.071698 394.124857 
L 927.379106 380.863942 
L 929.686513 386.994849 
L 931.993921 384.781985 
L 934.301329 378.027135 
L 936.608736 397.646901 
L 938.916144 392.503837 
L 941.223551 399.491732 
L 943.530959 382.213575 
L 945.838367 379.814276 
L 948.145774 383.480456 
L 950.453182 379.922531 
L 950.453182 379.922531 
" clip-path="url(#p503faf416e)" style="fill: none; stroke: #db5f57; stroke-width: 1.5; stroke-linecap: round"/>
   </g>
   <g id="line2d_2"/>
   <g id="patch_3">
    <path d="M 68.562 501.03675 
L 68.562 15.552 
" style="fill: none; stroke: #262626; stroke-width: 1.25; stroke-linejoin: miter; stroke-linecap: square"/>
   </g>
   <g id="patch_4">
    <path d="M 992.448 501.03675 
L 992.448 15.552 
" style="fill: none; stroke: #262626; stroke-width: 1.25; stroke-linejoin: miter; stroke-linecap: square"/>
   </g>
   <g id="patch_5">
    <path d="M 68.562 501.03675 
L 992.448 501.03675 
" style="fill: none; stroke: #262626; stroke-width: 1.25; stroke-linejoin: miter; stroke-linecap: square"/>
   </g>
   <g id="patch_6">
    <path d="M 68.562 15.552 
L 992.448 15.552 
" style="fill: none; stroke: #262626; stroke-width: 1.25; stroke-linejoin: miter; stroke-linecap: square"/>
   </g>
   <g id="legend_1">
    <g id="patch_7">
     <path d="M 914.568 63.477 
L 983.208 63.477 
Q 985.848 63.477 985.848 60.837 
L 985.848 24.792 
Q 985.848 22.152 983.208 22.152 
L 914.568 22.152 
Q 911.928 22.152 911.928 24.792 
L 911.928 60.837 
Q 911.928 63.477 914.568 63.477 
z
" style="fill: #ffffff; opacity: 0.8; stroke: #cccccc; stroke-linejoin: miter"/>
    </g>
    <g id="text_45">
     <!-- 年份 -->
     <g style="fill: #262626" transform="translate(934.488 38.907) scale(0.144 -0.144)">
      <defs>
       <path id="SimHei-5e74" d="M 350 2925 
Q 900 3450 1375 4200 
Q 1850 4950 1900 5275 
Q 2275 5125 2600 5050 
Q 2375 4825 2100 4325 
L 4625 4325 
Q 5175 4325 5750 4350 
L 5750 3925 
Q 5225 3950 4625 3950 
L 3800 3950 
L 3800 2925 
Q 4750 2925 5475 2950 
L 5475 2525 
Q 4725 2550 3800 2550 
L 3800 1375 
L 5075 1375 
Q 5625 1375 6100 1400 
L 6100 975 
Q 5650 1000 5075 1000 
L 3800 1000 
L 3800 425 
Q 3800 -150 3825 -625 
L 3275 -625 
Q 3300 -150 3300 375 
L 3300 1000 
L 1600 1000 
Q 900 1000 275 975 
L 275 1400 
Q 875 1375 1450 1375 
Q 1450 2350 1425 2925 
L 3300 2925 
L 3300 3950 
L 1875 3950 
Q 1350 3150 925 2650 
Q 650 2875 350 2925 
z
M 3300 1375 
L 3300 2550 
L 1925 2550 
L 1925 1375 
L 3300 1375 
z
" transform="scale(0.015625)"/>
       <path id="SimHei-4efd" d="M 4750 5100 
Q 4875 4375 5250 3650 
Q 5625 2925 6200 2450 
Q 6025 2375 5775 2075 
Q 5600 2275 5350 2575 
Q 5300 2275 5275 1312 
Q 5250 350 5187 25 
Q 5125 -300 4850 -400 
Q 4575 -500 4075 -550 
Q 4000 -250 3875 0 
Q 4400 -25 4575 25 
Q 4750 75 4775 587 
Q 4800 1100 4825 2250 
L 3700 2250 
Q 3675 1300 3425 650 
Q 3175 0 2375 -625 
Q 2175 -350 2000 -225 
Q 2750 225 2987 800 
Q 3225 1375 3225 2250 
Q 3000 2250 2675 2225 
L 2675 2575 
Q 2475 2300 2150 1950 
Q 2000 2150 1750 2300 
Q 2875 3275 3225 4875 
Q 3450 4775 3750 4675 
Q 3625 4400 3425 3887 
Q 3225 3375 2775 2700 
Q 3050 2675 3400 2675 
L 5300 2675 
Q 4575 3625 4275 4975 
Q 4575 5025 4750 5100 
z
M 225 2525 
Q 575 2875 1025 3687 
Q 1475 4500 1650 5225 
Q 1975 5075 2200 4975 
Q 2050 4750 1600 3775 
L 1600 625 
Q 1600 75 1625 -575 
L 1100 -575 
Q 1125 50 1125 625 
L 1125 2925 
Q 775 2400 575 2175 
Q 425 2350 225 2525 
z
" transform="scale(0.015625)"/>
      </defs>
      <use xlink:href="#SimHei-5e74"/>
      <use xlink:href="#SimHei-4efd" x="100"/>
     </g>
    </g>
    <g id="line2d_3">
     <path d="M 917.208 51.927 
L 930.408 51.927 
L 943.608 51.927 
" style="fill: none; stroke: #db5f57; stroke-width: 1.5; stroke-linecap: round"/>
    </g>
    <g id="text_46">
     <!-- 2021 -->
     <g style="fill: #262626" transform="translate(954.168 56.547) scale(0.132 -0.132)">
      <use xlink:href="#SimHei-32"/>
      <use xlink:href="#SimHei-30" x="50"/>
      <use xlink:href="#SimHei-32" x="100"/>
      <use xlink:href="#SimHei-31" x="150"/>
     </g>
    </g>
   </g>
  </g>
 </g>
 <defs>
  <clipPath id="p503faf416e">
   <rect x="68.562" y="15.552" width="923.886" height="485.48475"/>
  </clipPath>
 </defs>
</svg>
