<?xml version="1.0" encoding="utf-8" standalone="no"?>
<!DOCTYPE svg PUBLIC "-//W3C//DTD SVG 1.1//EN"
  "http://www.w3.org/Graphics/SVG/1.1/DTD/svg11.dtd">
<svg xmlns:xlink="http://www.w3.org/1999/xlink" width="1008pt" height="576pt" viewBox="0 0 1008 576" xmlns="http://www.w3.org/2000/svg" version="1.1">
 <metadata>
  <rdf:RDF xmlns:dc="http://purl.org/dc/elements/1.1/" xmlns:cc="http://creativecommons.org/ns#" xmlns:rdf="http://www.w3.org/1999/02/22-rdf-syntax-ns#">
   <cc:Work>
    <dc:type rdf:resource="http://purl.org/dc/dcmitype/StillImage"/>
    <dc:date>2023-04-16T17:40:03.791232</dc:date>
    <dc:format>image/svg+xml</dc:format>
    <dc:creator>
     <cc:Agent>
      <dc:title>Matplotlib v3.7.1, https://matplotlib.org/</dc:title>
     </cc:Agent>
    </dc:creator>
   </cc:Work>
  </rdf:RDF>
 </metadata>
 <defs>
  <style type="text/css">*{stroke-linejoin: round; stroke-linecap: butt}</style>
 </defs>
 <g id="figure_1">
  <g id="patch_1">
   <path d="M 0 576 
L 1008 576 
L 1008 0 
L 0 0 
z
" style="fill: #ffffff"/>
  </g>
  <g id="axes_1">
   <g id="patch_2">
    <path d="M 68.562 501.03675 
L 992.448 501.03675 
L 992.448 17.399402 
L 68.562 17.399402 
z
" style="fill: #ffffff"/>
   </g>
   <g id="matplotlib.axis_1">
    <g id="xtick_1">
     <g id="text_1">
      <!-- 01-01 -->
      <g style="fill: #262626" transform="translate(114.269318 543.53675) rotate(-90) scale(0.132 -0.132)">
       <defs>
        <path id="SimHei-30" d="M 225 2537 
Q 250 3200 412 3587 
Q 575 3975 875 4225 
Q 1175 4475 1612 4475 
Q 2050 4475 2375 4112 
Q 2700 3750 2800 3200 
Q 2900 2650 2862 1937 
Q 2825 1225 2612 775 
Q 2400 325 1975 150 
Q 1550 -25 1125 187 
Q 700 400 525 750 
Q 350 1100 275 1487 
Q 200 1875 225 2537 
z
M 750 2687 
Q 675 2000 800 1462 
Q 925 925 1212 700 
Q 1500 475 1800 612 
Q 2100 750 2237 1162 
Q 2375 1575 2375 2062 
Q 2375 2550 2337 2950 
Q 2300 3350 2112 3675 
Q 1925 4000 1612 4012 
Q 1300 4025 1062 3700 
Q 825 3375 750 2687 
z
" transform="scale(0.015625)"/>
        <path id="SimHei-31" d="M 1400 3600 
Q 1075 3275 575 2975 
L 575 3450 
Q 1200 3875 1600 4450 
L 1900 4450 
L 1900 150 
L 1400 150 
L 1400 3600 
z
" transform="scale(0.015625)"/>
        <path id="SimHei-2d" d="M 2975 2125 
L 125 2125 
L 125 2525 
L 2975 2525 
L 2975 2125 
z
" transform="scale(0.015625)"/>
       </defs>
       <use xlink:href="#SimHei-30"/>
       <use xlink:href="#SimHei-31" x="50"/>
       <use xlink:href="#SimHei-2d" x="100"/>
       <use xlink:href="#SimHei-30" x="150"/>
       <use xlink:href="#SimHei-31" x="200"/>
      </g>
     </g>
    </g>
    <g id="xtick_2">
     <g id="text_2">
      <!-- 01-11 -->
      <g style="fill: #262626" transform="translate(137.343394 543.53675) rotate(-90) scale(0.132 -0.132)">
       <use xlink:href="#SimHei-30"/>
       <use xlink:href="#SimHei-31" x="50"/>
       <use xlink:href="#SimHei-2d" x="100"/>
       <use xlink:href="#SimHei-31" x="150"/>
       <use xlink:href="#SimHei-31" x="200"/>
      </g>
     </g>
    </g>
    <g id="xtick_3">
     <g id="text_3">
      <!-- 01-21 -->
      <g style="fill: #262626" transform="translate(160.41747 543.53675) rotate(-90) scale(0.132 -0.132)">
       <defs>
        <path id="SimHei-32" d="M 300 250 
Q 325 625 650 925 
Q 975 1225 1475 1862 
Q 1975 2500 2125 2850 
Q 2275 3200 2237 3450 
Q 2200 3700 2000 3862 
Q 1800 4025 1537 4000 
Q 1275 3975 1037 3800 
Q 800 3625 675 3275 
L 200 3350 
Q 400 3925 712 4187 
Q 1025 4450 1450 4475 
Q 1700 4500 1900 4462 
Q 2100 4425 2312 4287 
Q 2525 4150 2662 3875 
Q 2800 3600 2762 3212 
Q 2725 2825 2375 2287 
Q 2025 1750 1025 600 
L 2825 600 
L 2825 150 
L 300 150 
L 300 250 
z
" transform="scale(0.015625)"/>
       </defs>
       <use xlink:href="#SimHei-30"/>
       <use xlink:href="#SimHei-31" x="50"/>
       <use xlink:href="#SimHei-2d" x="100"/>
       <use xlink:href="#SimHei-32" x="150"/>
       <use xlink:href="#SimHei-31" x="200"/>
      </g>
     </g>
    </g>
    <g id="xtick_4">
     <g id="text_4">
      <!-- 01-31 -->
      <g style="fill: #262626" transform="translate(183.491546 543.53675) rotate(-90) scale(0.132 -0.132)">
       <defs>
        <path id="SimHei-33" d="M 250 1225 
L 700 1300 
Q 800 975 1025 762 
Q 1250 550 1587 562 
Q 1925 575 2125 837 
Q 2325 1100 2300 1437 
Q 2275 1775 2037 1962 
Q 1800 2150 1275 2225 
L 1275 2550 
Q 1800 2600 2037 2825 
Q 2275 3050 2250 3412 
Q 2225 3775 1925 3937 
Q 1625 4100 1287 3975 
Q 950 3850 750 3275 
L 300 3350 
Q 450 3800 712 4100 
Q 975 4400 1425 4450 
Q 1875 4500 2212 4337 
Q 2550 4175 2687 3837 
Q 2825 3500 2725 3100 
Q 2625 2700 2150 2400 
Q 2500 2250 2687 1950 
Q 2875 1650 2812 1162 
Q 2750 675 2375 375 
Q 2000 75 1525 87 
Q 1050 100 700 387 
Q 350 675 250 1225 
z
" transform="scale(0.015625)"/>
       </defs>
       <use xlink:href="#SimHei-30"/>
       <use xlink:href="#SimHei-31" x="50"/>
       <use xlink:href="#SimHei-2d" x="100"/>
       <use xlink:href="#SimHei-33" x="150"/>
       <use xlink:href="#SimHei-31" x="200"/>
      </g>
     </g>
    </g>
    <g id="xtick_5">
     <g id="text_5">
      <!-- 02-10 -->
      <g style="fill: #262626" transform="translate(206.565622 543.53675) rotate(-90) scale(0.132 -0.132)">
       <use xlink:href="#SimHei-30"/>
       <use xlink:href="#SimHei-32" x="50"/>
       <use xlink:href="#SimHei-2d" x="100"/>
       <use xlink:href="#SimHei-31" x="150"/>
       <use xlink:href="#SimHei-30" x="200"/>
      </g>
     </g>
    </g>
    <g id="xtick_6">
     <g id="text_6">
      <!-- 02-20 -->
      <g style="fill: #262626" transform="translate(229.639698 543.53675) rotate(-90) scale(0.132 -0.132)">
       <use xlink:href="#SimHei-30"/>
       <use xlink:href="#SimHei-32" x="50"/>
       <use xlink:href="#SimHei-2d" x="100"/>
       <use xlink:href="#SimHei-32" x="150"/>
       <use xlink:href="#SimHei-30" x="200"/>
      </g>
     </g>
    </g>
    <g id="xtick_7">
     <g id="text_7">
      <!-- 03-02 -->
      <g style="fill: #262626" transform="translate(252.713774 543.53675) rotate(-90) scale(0.132 -0.132)">
       <use xlink:href="#SimHei-30"/>
       <use xlink:href="#SimHei-33" x="50"/>
       <use xlink:href="#SimHei-2d" x="100"/>
       <use xlink:href="#SimHei-30" x="150"/>
       <use xlink:href="#SimHei-32" x="200"/>
      </g>
     </g>
    </g>
    <g id="xtick_8">
     <g id="text_8">
      <!-- 03-12 -->
      <g style="fill: #262626" transform="translate(275.78785 543.53675) rotate(-90) scale(0.132 -0.132)">
       <use xlink:href="#SimHei-30"/>
       <use xlink:href="#SimHei-33" x="50"/>
       <use xlink:href="#SimHei-2d" x="100"/>
       <use xlink:href="#SimHei-31" x="150"/>
       <use xlink:href="#SimHei-32" x="200"/>
      </g>
     </g>
    </g>
    <g id="xtick_9">
     <g id="text_9">
      <!-- 03-22 -->
      <g style="fill: #262626" transform="translate(298.861926 543.53675) rotate(-90) scale(0.132 -0.132)">
       <use xlink:href="#SimHei-30"/>
       <use xlink:href="#SimHei-33" x="50"/>
       <use xlink:href="#SimHei-2d" x="100"/>
       <use xlink:href="#SimHei-32" x="150"/>
       <use xlink:href="#SimHei-32" x="200"/>
      </g>
     </g>
    </g>
    <g id="xtick_10">
     <g id="text_10">
      <!-- 04-01 -->
      <g style="fill: #262626" transform="translate(321.936001 543.53675) rotate(-90) scale(0.132 -0.132)">
       <defs>
        <path id="SimHei-34" d="M 2000 1100 
L 75 1100 
L 75 1525 
L 2100 4450 
L 2475 4450 
L 2475 1525 
L 3075 1525 
L 3075 1100 
L 2475 1100 
L 2475 150 
L 2000 150 
L 2000 1100 
z
M 2000 1525 
L 2000 3500 
L 600 1525 
L 2000 1525 
z
" transform="scale(0.015625)"/>
       </defs>
       <use xlink:href="#SimHei-30"/>
       <use xlink:href="#SimHei-34" x="50"/>
       <use xlink:href="#SimHei-2d" x="100"/>
       <use xlink:href="#SimHei-30" x="150"/>
       <use xlink:href="#SimHei-31" x="200"/>
      </g>
     </g>
    </g>
    <g id="xtick_11">
     <g id="text_11">
      <!-- 04-11 -->
      <g style="fill: #262626" transform="translate(345.010077 543.53675) rotate(-90) scale(0.132 -0.132)">
       <use xlink:href="#SimHei-30"/>
       <use xlink:href="#SimHei-34" x="50"/>
       <use xlink:href="#SimHei-2d" x="100"/>
       <use xlink:href="#SimHei-31" x="150"/>
       <use xlink:href="#SimHei-31" x="200"/>
      </g>
     </g>
    </g>
    <g id="xtick_12">
     <g id="text_12">
      <!-- 04-21 -->
      <g style="fill: #262626" transform="translate(368.084153 543.53675) rotate(-90) scale(0.132 -0.132)">
       <use xlink:href="#SimHei-30"/>
       <use xlink:href="#SimHei-34" x="50"/>
       <use xlink:href="#SimHei-2d" x="100"/>
       <use xlink:href="#SimHei-32" x="150"/>
       <use xlink:href="#SimHei-31" x="200"/>
      </g>
     </g>
    </g>
    <g id="xtick_13">
     <g id="text_13">
      <!-- 05-01 -->
      <g style="fill: #262626" transform="translate(391.158229 543.53675) rotate(-90) scale(0.132 -0.132)">
       <defs>
        <path id="SimHei-35" d="M 550 1325 
Q 725 650 1150 575 
Q 1575 500 1837 662 
Q 2100 825 2212 1087 
Q 2325 1350 2312 1675 
Q 2300 2000 2137 2225 
Q 1975 2450 1725 2525 
Q 1475 2600 1162 2525 
Q 850 2450 650 2175 
L 225 2225 
Q 275 2375 700 4375 
L 2675 4375 
L 2675 3925 
L 1075 3925 
Q 950 3250 825 2850 
Q 1200 3025 1525 3012 
Q 1850 3000 2150 2862 
Q 2450 2725 2587 2487 
Q 2725 2250 2787 2012 
Q 2850 1775 2837 1500 
Q 2825 1225 2725 937 
Q 2625 650 2425 462 
Q 2225 275 1937 162 
Q 1650 50 1275 75 
Q 900 100 562 350 
Q 225 600 100 1200 
L 550 1325 
z
" transform="scale(0.015625)"/>
       </defs>
       <use xlink:href="#SimHei-30"/>
       <use xlink:href="#SimHei-35" x="50"/>
       <use xlink:href="#SimHei-2d" x="100"/>
       <use xlink:href="#SimHei-30" x="150"/>
       <use xlink:href="#SimHei-31" x="200"/>
      </g>
     </g>
    </g>
    <g id="xtick_14">
     <g id="text_14">
      <!-- 05-11 -->
      <g style="fill: #262626" transform="translate(414.232305 543.53675) rotate(-90) scale(0.132 -0.132)">
       <use xlink:href="#SimHei-30"/>
       <use xlink:href="#SimHei-35" x="50"/>
       <use xlink:href="#SimHei-2d" x="100"/>
       <use xlink:href="#SimHei-31" x="150"/>
       <use xlink:href="#SimHei-31" x="200"/>
      </g>
     </g>
    </g>
    <g id="xtick_15">
     <g id="text_15">
      <!-- 05-21 -->
      <g style="fill: #262626" transform="translate(437.306381 543.53675) rotate(-90) scale(0.132 -0.132)">
       <use xlink:href="#SimHei-30"/>
       <use xlink:href="#SimHei-35" x="50"/>
       <use xlink:href="#SimHei-2d" x="100"/>
       <use xlink:href="#SimHei-32" x="150"/>
       <use xlink:href="#SimHei-31" x="200"/>
      </g>
     </g>
    </g>
    <g id="xtick_16">
     <g id="text_16">
      <!-- 05-31 -->
      <g style="fill: #262626" transform="translate(460.380457 543.53675) rotate(-90) scale(0.132 -0.132)">
       <use xlink:href="#SimHei-30"/>
       <use xlink:href="#SimHei-35" x="50"/>
       <use xlink:href="#SimHei-2d" x="100"/>
       <use xlink:href="#SimHei-33" x="150"/>
       <use xlink:href="#SimHei-31" x="200"/>
      </g>
     </g>
    </g>
    <g id="xtick_17">
     <g id="text_17">
      <!-- 06-10 -->
      <g style="fill: #262626" transform="translate(483.454533 543.53675) rotate(-90) scale(0.132 -0.132)">
       <defs>
        <path id="SimHei-36" d="M 250 1612 
Q 275 1975 387 2225 
Q 500 2475 725 2850 
L 1750 4450 
L 2325 4450 
L 1275 2800 
Q 1950 2975 2350 2750 
Q 2750 2525 2887 2237 
Q 3025 1950 3037 1612 
Q 3050 1275 2937 950 
Q 2825 625 2537 362 
Q 2250 100 1737 75 
Q 1225 50 862 262 
Q 500 475 362 862 
Q 225 1250 250 1612 
z
M 1025 787 
Q 1250 550 1625 525 
Q 2000 500 2250 775 
Q 2500 1050 2500 1575 
Q 2500 2100 2187 2300 
Q 1875 2500 1487 2450 
Q 1100 2400 925 2075 
Q 750 1750 775 1387 
Q 800 1025 1025 787 
z
" transform="scale(0.015625)"/>
       </defs>
       <use xlink:href="#SimHei-30"/>
       <use xlink:href="#SimHei-36" x="50"/>
       <use xlink:href="#SimHei-2d" x="100"/>
       <use xlink:href="#SimHei-31" x="150"/>
       <use xlink:href="#SimHei-30" x="200"/>
      </g>
     </g>
    </g>
    <g id="xtick_18">
     <g id="text_18">
      <!-- 06-20 -->
      <g style="fill: #262626" transform="translate(506.528609 543.53675) rotate(-90) scale(0.132 -0.132)">
       <use xlink:href="#SimHei-30"/>
       <use xlink:href="#SimHei-36" x="50"/>
       <use xlink:href="#SimHei-2d" x="100"/>
       <use xlink:href="#SimHei-32" x="150"/>
       <use xlink:href="#SimHei-30" x="200"/>
      </g>
     </g>
    </g>
    <g id="xtick_19">
     <g id="text_19">
      <!-- 06-30 -->
      <g style="fill: #262626" transform="translate(529.602685 543.53675) rotate(-90) scale(0.132 -0.132)">
       <use xlink:href="#SimHei-30"/>
       <use xlink:href="#SimHei-36" x="50"/>
       <use xlink:href="#SimHei-2d" x="100"/>
       <use xlink:href="#SimHei-33" x="150"/>
       <use xlink:href="#SimHei-30" x="200"/>
      </g>
     </g>
    </g>
    <g id="xtick_20">
     <g id="text_20">
      <!-- 07-10 -->
      <g style="fill: #262626" transform="translate(552.676761 543.53675) rotate(-90) scale(0.132 -0.132)">
       <defs>
        <path id="SimHei-37" d="M 850 150 
Q 1300 2050 2425 3925 
L 275 3925 
L 275 4375 
L 2950 4375 
L 2950 3950 
Q 1775 2050 1400 150 
L 850 150 
z
" transform="scale(0.015625)"/>
       </defs>
       <use xlink:href="#SimHei-30"/>
       <use xlink:href="#SimHei-37" x="50"/>
       <use xlink:href="#SimHei-2d" x="100"/>
       <use xlink:href="#SimHei-31" x="150"/>
       <use xlink:href="#SimHei-30" x="200"/>
      </g>
     </g>
    </g>
    <g id="xtick_21">
     <g id="text_21">
      <!-- 07-20 -->
      <g style="fill: #262626" transform="translate(575.750837 543.53675) rotate(-90) scale(0.132 -0.132)">
       <use xlink:href="#SimHei-30"/>
       <use xlink:href="#SimHei-37" x="50"/>
       <use xlink:href="#SimHei-2d" x="100"/>
       <use xlink:href="#SimHei-32" x="150"/>
       <use xlink:href="#SimHei-30" x="200"/>
      </g>
     </g>
    </g>
    <g id="xtick_22">
     <g id="text_22">
      <!-- 07-30 -->
      <g style="fill: #262626" transform="translate(598.824913 543.53675) rotate(-90) scale(0.132 -0.132)">
       <use xlink:href="#SimHei-30"/>
       <use xlink:href="#SimHei-37" x="50"/>
       <use xlink:href="#SimHei-2d" x="100"/>
       <use xlink:href="#SimHei-33" x="150"/>
       <use xlink:href="#SimHei-30" x="200"/>
      </g>
     </g>
    </g>
    <g id="xtick_23">
     <g id="text_23">
      <!-- 08-09 -->
      <g style="fill: #262626" transform="translate(621.898989 543.53675) rotate(-90) scale(0.132 -0.132)">
       <defs>
        <path id="SimHei-38" d="M 175 1375 
Q 175 1675 325 1962 
Q 475 2250 825 2425 
Q 525 2600 425 2812 
Q 325 3025 312 3300 
Q 300 3575 387 3775 
Q 475 3975 650 4150 
Q 825 4325 1037 4387 
Q 1250 4450 1500 4450 
Q 1750 4450 1950 4400 
Q 2150 4350 2375 4187 
Q 2600 4025 2700 3725 
Q 2800 3425 2687 3025 
Q 2575 2625 2100 2400 
Q 2525 2275 2700 2012 
Q 2875 1750 2875 1375 
Q 2875 1000 2762 775 
Q 2650 550 2512 400 
Q 2375 250 2137 162 
Q 1900 75 1537 75 
Q 1175 75 912 162 
Q 650 250 475 425 
Q 300 600 237 837 
Q 175 1075 175 1375 
z
M 687 1400 
Q 675 1100 787 875 
Q 900 650 1200 587 
Q 1500 525 1825 600 
Q 2150 675 2275 950 
Q 2400 1225 2362 1500 
Q 2325 1775 2050 1962 
Q 1775 2150 1450 2125 
Q 1125 2100 912 1900 
Q 700 1700 687 1400 
z
M 775 3350 
Q 775 3100 950 2875 
Q 1125 2650 1500 2650 
Q 1875 2650 2062 2875 
Q 2250 3100 2237 3412 
Q 2225 3725 2012 3875 
Q 1800 4025 1437 4000 
Q 1075 3975 925 3787 
Q 775 3600 775 3350 
z
" transform="scale(0.015625)"/>
        <path id="SimHei-39" d="M 800 75 
Q 1350 1000 1700 1750 
Q 1075 1650 662 1912 
Q 250 2175 162 2625 
Q 75 3075 175 3437 
Q 275 3800 487 4037 
Q 700 4275 1000 4375 
Q 1300 4475 1537 4475 
Q 1775 4475 2025 4375 
Q 2275 4275 2475 4075 
Q 2675 3875 2750 3662 
Q 2825 3450 2825 3112 
Q 2825 2775 2575 2250 
Q 2325 1725 1350 75 
L 800 75 
z
M 662 2875 
Q 700 2550 937 2337 
Q 1175 2125 1450 2150 
Q 1725 2175 1887 2300 
Q 2050 2425 2200 2725 
Q 2300 3100 2250 3362 
Q 2200 3625 1987 3800 
Q 1775 3975 1525 3975 
Q 1375 4000 1137 3900 
Q 900 3800 762 3500 
Q 625 3200 662 2875 
z
" transform="scale(0.015625)"/>
       </defs>
       <use xlink:href="#SimHei-30"/>
       <use xlink:href="#SimHei-38" x="50"/>
       <use xlink:href="#SimHei-2d" x="100"/>
       <use xlink:href="#SimHei-30" x="150"/>
       <use xlink:href="#SimHei-39" x="200"/>
      </g>
     </g>
    </g>
    <g id="xtick_24">
     <g id="text_24">
      <!-- 08-19 -->
      <g style="fill: #262626" transform="translate(644.973064 543.53675) rotate(-90) scale(0.132 -0.132)">
       <use xlink:href="#SimHei-30"/>
       <use xlink:href="#SimHei-38" x="50"/>
       <use xlink:href="#SimHei-2d" x="100"/>
       <use xlink:href="#SimHei-31" x="150"/>
       <use xlink:href="#SimHei-39" x="200"/>
      </g>
     </g>
    </g>
    <g id="xtick_25">
     <g id="text_25">
      <!-- 08-29 -->
      <g style="fill: #262626" transform="translate(668.04714 543.53675) rotate(-90) scale(0.132 -0.132)">
       <use xlink:href="#SimHei-30"/>
       <use xlink:href="#SimHei-38" x="50"/>
       <use xlink:href="#SimHei-2d" x="100"/>
       <use xlink:href="#SimHei-32" x="150"/>
       <use xlink:href="#SimHei-39" x="200"/>
      </g>
     </g>
    </g>
    <g id="xtick_26">
     <g id="text_26">
      <!-- 09-08 -->
      <g style="fill: #262626" transform="translate(691.121216 543.53675) rotate(-90) scale(0.132 -0.132)">
       <use xlink:href="#SimHei-30"/>
       <use xlink:href="#SimHei-39" x="50"/>
       <use xlink:href="#SimHei-2d" x="100"/>
       <use xlink:href="#SimHei-30" x="150"/>
       <use xlink:href="#SimHei-38" x="200"/>
      </g>
     </g>
    </g>
    <g id="xtick_27">
     <g id="text_27">
      <!-- 09-18 -->
      <g style="fill: #262626" transform="translate(714.195292 543.53675) rotate(-90) scale(0.132 -0.132)">
       <use xlink:href="#SimHei-30"/>
       <use xlink:href="#SimHei-39" x="50"/>
       <use xlink:href="#SimHei-2d" x="100"/>
       <use xlink:href="#SimHei-31" x="150"/>
       <use xlink:href="#SimHei-38" x="200"/>
      </g>
     </g>
    </g>
    <g id="xtick_28">
     <g id="text_28">
      <!-- 09-28 -->
      <g style="fill: #262626" transform="translate(737.269368 543.53675) rotate(-90) scale(0.132 -0.132)">
       <use xlink:href="#SimHei-30"/>
       <use xlink:href="#SimHei-39" x="50"/>
       <use xlink:href="#SimHei-2d" x="100"/>
       <use xlink:href="#SimHei-32" x="150"/>
       <use xlink:href="#SimHei-38" x="200"/>
      </g>
     </g>
    </g>
    <g id="xtick_29">
     <g id="text_29">
      <!-- 10-08 -->
      <g style="fill: #262626" transform="translate(760.343444 543.53675) rotate(-90) scale(0.132 -0.132)">
       <use xlink:href="#SimHei-31"/>
       <use xlink:href="#SimHei-30" x="50"/>
       <use xlink:href="#SimHei-2d" x="100"/>
       <use xlink:href="#SimHei-30" x="150"/>
       <use xlink:href="#SimHei-38" x="200"/>
      </g>
     </g>
    </g>
    <g id="xtick_30">
     <g id="text_30">
      <!-- 10-18 -->
      <g style="fill: #262626" transform="translate(783.41752 543.53675) rotate(-90) scale(0.132 -0.132)">
       <use xlink:href="#SimHei-31"/>
       <use xlink:href="#SimHei-30" x="50"/>
       <use xlink:href="#SimHei-2d" x="100"/>
       <use xlink:href="#SimHei-31" x="150"/>
       <use xlink:href="#SimHei-38" x="200"/>
      </g>
     </g>
    </g>
    <g id="xtick_31">
     <g id="text_31">
      <!-- 10-28 -->
      <g style="fill: #262626" transform="translate(806.491596 543.53675) rotate(-90) scale(0.132 -0.132)">
       <use xlink:href="#SimHei-31"/>
       <use xlink:href="#SimHei-30" x="50"/>
       <use xlink:href="#SimHei-2d" x="100"/>
       <use xlink:href="#SimHei-32" x="150"/>
       <use xlink:href="#SimHei-38" x="200"/>
      </g>
     </g>
    </g>
    <g id="xtick_32">
     <g id="text_32">
      <!-- 11-07 -->
      <g style="fill: #262626" transform="translate(829.565672 543.53675) rotate(-90) scale(0.132 -0.132)">
       <use xlink:href="#SimHei-31"/>
       <use xlink:href="#SimHei-31" x="50"/>
       <use xlink:href="#SimHei-2d" x="100"/>
       <use xlink:href="#SimHei-30" x="150"/>
       <use xlink:href="#SimHei-37" x="200"/>
      </g>
     </g>
    </g>
    <g id="xtick_33">
     <g id="text_33">
      <!-- 11-17 -->
      <g style="fill: #262626" transform="translate(852.639748 543.53675) rotate(-90) scale(0.132 -0.132)">
       <use xlink:href="#SimHei-31"/>
       <use xlink:href="#SimHei-31" x="50"/>
       <use xlink:href="#SimHei-2d" x="100"/>
       <use xlink:href="#SimHei-31" x="150"/>
       <use xlink:href="#SimHei-37" x="200"/>
      </g>
     </g>
    </g>
    <g id="xtick_34">
     <g id="text_34">
      <!-- 11-27 -->
      <g style="fill: #262626" transform="translate(875.713824 543.53675) rotate(-90) scale(0.132 -0.132)">
       <use xlink:href="#SimHei-31"/>
       <use xlink:href="#SimHei-31" x="50"/>
       <use xlink:href="#SimHei-2d" x="100"/>
       <use xlink:href="#SimHei-32" x="150"/>
       <use xlink:href="#SimHei-37" x="200"/>
      </g>
     </g>
    </g>
    <g id="xtick_35">
     <g id="text_35">
      <!-- 12-07 -->
      <g style="fill: #262626" transform="translate(898.7879 543.53675) rotate(-90) scale(0.132 -0.132)">
       <use xlink:href="#SimHei-31"/>
       <use xlink:href="#SimHei-32" x="50"/>
       <use xlink:href="#SimHei-2d" x="100"/>
       <use xlink:href="#SimHei-30" x="150"/>
       <use xlink:href="#SimHei-37" x="200"/>
      </g>
     </g>
    </g>
    <g id="xtick_36">
     <g id="text_36">
      <!-- 12-17 -->
      <g style="fill: #262626" transform="translate(921.861976 543.53675) rotate(-90) scale(0.132 -0.132)">
       <use xlink:href="#SimHei-31"/>
       <use xlink:href="#SimHei-32" x="50"/>
       <use xlink:href="#SimHei-2d" x="100"/>
       <use xlink:href="#SimHei-31" x="150"/>
       <use xlink:href="#SimHei-37" x="200"/>
      </g>
     </g>
    </g>
    <g id="xtick_37">
     <g id="text_37">
      <!-- 12-27 -->
      <g style="fill: #262626" transform="translate(944.936051 543.53675) rotate(-90) scale(0.132 -0.132)">
       <use xlink:href="#SimHei-31"/>
       <use xlink:href="#SimHei-32" x="50"/>
       <use xlink:href="#SimHei-2d" x="100"/>
       <use xlink:href="#SimHei-32" x="150"/>
       <use xlink:href="#SimHei-37" x="200"/>
      </g>
     </g>
    </g>
    <g id="text_38">
     <!-- 月日 -->
     <g style="fill: #262626" transform="translate(516.105 558.2805) scale(0.144 -0.144)">
      <defs>
       <path id="SimHei-6708" d="M 5250 4825 
Q 5200 4225 5200 3750 
L 5200 200 
Q 5200 -275 4950 -375 
Q 4700 -475 3975 -525 
Q 3925 -225 3750 50 
Q 4300 25 4512 50 
Q 4725 75 4725 400 
L 4725 1600 
L 1850 1600 
Q 1725 775 1450 225 
Q 1175 -325 900 -575 
Q 700 -400 400 -325 
Q 800 25 1037 512 
Q 1275 1000 1337 1475 
Q 1400 1950 1400 2525 
L 1400 3625 
Q 1400 4175 1375 4825 
L 5250 4825 
z
M 4725 3400 
L 4725 4450 
L 1875 4450 
L 1875 3400 
L 4725 3400 
z
M 4725 2000 
L 4725 3025 
L 1875 3025 
L 1875 2000 
L 4725 2000 
z
" transform="scale(0.015625)"/>
       <path id="SimHei-65e5" d="M 5375 5000 
Q 5350 3775 5350 2275 
Q 5350 775 5375 -450 
L 4800 -450 
L 4800 175 
L 1800 175 
L 1800 -575 
L 1250 -575 
Q 1275 575 1275 2125 
Q 1275 3675 1250 5000 
L 5375 5000 
z
M 4800 600 
L 4800 2375 
L 1800 2375 
L 1800 600 
L 4800 600 
z
M 4800 2800 
L 4800 4550 
L 1800 4550 
L 1800 2800 
L 4800 2800 
z
" transform="scale(0.015625)"/>
      </defs>
      <use xlink:href="#SimHei-6708"/>
      <use xlink:href="#SimHei-65e5" x="100"/>
     </g>
    </g>
   </g>
   <g id="matplotlib.axis_2">
    <g id="ytick_1">
     <g id="text_39">
      <!-- 1000 -->
      <g style="fill: #262626" transform="translate(32.662 414.136958) scale(0.132 -0.132)">
       <use xlink:href="#SimHei-31"/>
       <use xlink:href="#SimHei-30" x="50"/>
       <use xlink:href="#SimHei-30" x="100"/>
       <use xlink:href="#SimHei-30" x="150"/>
      </g>
     </g>
    </g>
    <g id="ytick_2">
     <g id="text_40">
      <!-- 2000 -->
      <g style="fill: #262626" transform="translate(32.662 316.859147) scale(0.132 -0.132)">
       <use xlink:href="#SimHei-32"/>
       <use xlink:href="#SimHei-30" x="50"/>
       <use xlink:href="#SimHei-30" x="100"/>
       <use xlink:href="#SimHei-30" x="150"/>
      </g>
     </g>
    </g>
    <g id="ytick_3">
     <g id="text_41">
      <!-- 3000 -->
      <g style="fill: #262626" transform="translate(32.662 219.581336) scale(0.132 -0.132)">
       <use xlink:href="#SimHei-33"/>
       <use xlink:href="#SimHei-30" x="50"/>
       <use xlink:href="#SimHei-30" x="100"/>
       <use xlink:href="#SimHei-30" x="150"/>
      </g>
     </g>
    </g>
    <g id="ytick_4">
     <g id="text_42">
      <!-- 4000 -->
      <g style="fill: #262626" transform="translate(32.662 122.303525) scale(0.132 -0.132)">
       <use xlink:href="#SimHei-34"/>
       <use xlink:href="#SimHei-30" x="50"/>
       <use xlink:href="#SimHei-30" x="100"/>
       <use xlink:href="#SimHei-30" x="150"/>
      </g>
     </g>
    </g>
    <g id="ytick_5">
     <g id="text_43">
      <!-- 5000 -->
      <g style="fill: #262626" transform="translate(32.662 25.025715) scale(0.132 -0.132)">
       <use xlink:href="#SimHei-35"/>
       <use xlink:href="#SimHei-30" x="50"/>
       <use xlink:href="#SimHei-30" x="100"/>
       <use xlink:href="#SimHei-30" x="150"/>
      </g>
     </g>
    </g>
    <g id="text_44">
     <!-- 货量 -->
     <g style="fill: #262626" transform="translate(26.862 273.618076) rotate(-90) scale(0.144 -0.144)">
      <defs>
       <path id="SimHei-8d27" d="M 3975 5075 
Q 3950 4750 3950 4100 
Q 4075 4175 4525 4375 
Q 4975 4575 5375 4900 
Q 5550 4625 5700 4400 
Q 5425 4325 4987 4112 
Q 4550 3900 3950 3650 
L 3950 3225 
Q 3950 3025 4300 3025 
L 5125 3025 
Q 5425 3025 5487 3150 
Q 5550 3275 5575 3625 
Q 5850 3450 6125 3375 
Q 5975 2875 5825 2750 
Q 5675 2625 5475 2625 
L 4000 2625 
Q 3425 2625 3425 3125 
L 3425 3525 
Q 2900 3325 2575 3225 
Q 2425 3500 2350 3650 
Q 2750 3750 3425 3925 
Q 3425 4750 3400 5075 
L 3975 5075 
z
M 5200 2200 
Q 5175 1825 5175 1425 
Q 5175 1050 5200 600 
L 4625 600 
L 4625 1775 
L 1950 1775 
L 1950 625 
L 1400 625 
Q 1425 1025 1425 1400 
Q 1425 1800 1400 2200 
L 5200 2200 
z
M 2625 4850 
Q 2425 4700 2050 4300 
Q 2050 2900 2075 2450 
L 1500 2450 
Q 1525 2900 1525 3825 
Q 1300 3625 1100 3425 
Q 900 3225 700 3050 
Q 475 3250 325 3400 
Q 850 3725 1325 4237 
Q 1800 4750 2050 5175 
Q 2325 4925 2625 4850 
z
M 3550 1325 
Q 3425 975 3312 687 
Q 3200 400 2925 137 
Q 2650 -125 2150 -325 
Q 1650 -525 800 -675 
Q 725 -400 475 -100 
Q 1200 -75 1675 25 
Q 2150 125 2412 325 
Q 2675 525 2787 775 
Q 2900 1025 2975 1400 
Q 3250 1350 3550 1325 
z
M 5575 -675 
Q 5125 -400 4650 -187 
Q 4175 25 3575 250 
Q 3725 500 3825 725 
Q 4350 500 4800 300 
Q 5250 100 5875 -175 
Q 5700 -400 5575 -675 
z
" transform="scale(0.015625)"/>
       <path id="SimHei-91cf" d="M 5250 2500 
Q 5225 2200 5225 1700 
Q 5225 1225 5250 950 
L 3425 950 
L 3425 625 
L 4575 625 
Q 5000 625 5375 650 
L 5375 275 
Q 5025 300 4575 300 
L 3425 300 
L 3425 -75 
L 5125 -75 
Q 5525 -75 5925 -50 
L 5925 -425 
Q 5525 -400 5125 -400 
L 1275 -400 
Q 900 -400 475 -425 
L 475 -50 
Q 925 -50 1275 -75 
L 2975 -75 
L 2975 300 
L 1725 300 
Q 1350 300 975 250 
L 975 650 
Q 1375 625 1725 625 
L 2975 625 
L 2975 950 
L 1150 950 
Q 1175 1375 1175 1775 
Q 1175 2175 1150 2500 
L 5250 2500 
z
M 5200 4950 
Q 5175 4575 5175 4250 
Q 5175 3925 5200 3400 
L 1200 3400 
Q 1225 3925 1225 4250 
Q 1225 4575 1200 4950 
L 5200 4950 
z
M 4900 3100 
Q 5500 3125 6000 3150 
L 6000 2750 
Q 5500 2775 4925 2775 
L 1650 2775 
Q 975 2775 325 2750 
L 325 3150 
Q 975 3125 1650 3100 
L 4900 3100 
z
M 4725 3700 
L 4725 4025 
L 1675 4025 
L 1675 3700 
L 4725 3700 
z
M 4725 4350 
L 4725 4650 
L 1675 4650 
L 1675 4350 
L 4725 4350 
z
M 4750 1875 
L 4750 2175 
L 3425 2175 
L 3425 1875 
L 4750 1875 
z
M 2975 1875 
L 2975 2175 
L 1650 2175 
L 1650 1875 
L 2975 1875 
z
M 2975 1275 
L 2975 1550 
L 1650 1550 
L 1650 1275 
L 2975 1275 
z
M 4750 1275 
L 4750 1550 
L 3425 1550 
L 3425 1275 
L 4750 1275 
z
" transform="scale(0.015625)"/>
      </defs>
      <use xlink:href="#SimHei-8d27"/>
      <use xlink:href="#SimHei-91cf" x="100"/>
     </g>
    </g>
   </g>
   <g id="PolyCollection_1">
    <defs>
     <path id="m98aab381b2" d="M 110.556818 -245.474893 
L 110.556818 -155.272058 
L 112.864226 -153.541274 
L 115.171633 -143.093458 
L 117.479041 -152.521489 
L 119.786449 -155.549796 
L 122.093856 -167.660932 
L 124.401264 -166.449946 
L 126.708671 -160.320311 
L 129.016079 -166.693873 
L 131.323487 -201.976178 
L 133.630894 -177.991356 
L 135.938302 -181.02379 
L 138.245709 -173.691273 
L 140.553117 -169.854357 
L 142.860524 -169.108971 
L 145.167932 -182.59484 
L 147.47534 -177.892724 
L 149.782747 -180.953312 
L 152.090155 -190.995533 
L 154.397562 -192.043942 
L 156.70497 -190.289474 
L 159.012378 -194.589181 
L 161.319785 -188.02271 
L 163.627193 -187.14855 
L 165.9346 -193.047538 
L 168.242008 -186.265188 
L 170.549416 -178.105928 
L 172.856823 -174.310299 
L 175.164231 -173.479351 
L 177.471638 -139.003902 
L 179.779046 -96.946766 
L 182.086454 -124.726137 
L 184.393861 -127.70042 
L 186.701269 -131.652753 
L 189.008676 -128.824952 
L 191.316084 -136.629413 
L 193.623492 -133.277508 
L 195.930899 -159.35076 
L 198.238307 -156.332488 
L 200.545714 -165.341116 
L 202.853122 -154.906898 
L 205.160529 -169.106229 
L 207.467937 -156.277891 
L 209.775345 -150.973747 
L 212.082752 -161.1351 
L 214.39016 -157.55958 
L 216.697567 -158.398146 
L 219.004975 -154.983396 
L 221.312383 -162.81618 
L 223.61979 -175.146399 
L 225.927198 -159.468903 
L 228.234605 -166.19908 
L 230.542013 -169.146772 
L 232.849421 -158.043864 
L 235.156828 -158.155576 
L 237.464236 -159.995612 
L 239.771643 -162.864772 
L 242.079051 -161.40873 
L 244.386459 -158.957364 
L 246.693866 -168.808718 
L 249.001274 -160.05285 
L 251.308681 -162.796608 
L 253.616089 -171.366153 
L 255.923497 -174.456882 
L 258.230904 -157.301835 
L 260.538312 -169.277905 
L 262.845719 -176.050582 
L 265.153127 -168.73515 
L 267.460534 -159.229786 
L 269.767942 -162.252838 
L 272.07535 -156.968888 
L 274.382757 -160.872485 
L 276.690165 -166.536901 
L 278.997572 -160.506029 
L 281.30498 -162.950957 
L 283.612388 -154.62023 
L 285.919795 -164.036981 
L 288.227203 -161.747549 
L 290.53461 -156.155337 
L 292.842018 -160.469364 
L 295.149426 -165.782532 
L 297.456833 -156.817834 
L 299.764241 -152.042437 
L 302.071648 -150.092358 
L 304.379056 -149.898326 
L 306.686464 -147.00139 
L 308.993871 -155.105659 
L 311.301279 -156.619898 
L 313.608686 -151.613098 
L 315.916094 -153.397735 
L 318.223501 -159.327196 
L 320.530909 -158.270188 
L 322.838317 -147.05982 
L 325.145724 -152.643251 
L 327.453132 -153.951241 
L 329.760539 -165.411005 
L 332.067947 -169.568333 
L 334.375355 -167.143419 
L 336.682762 -179.809009 
L 338.99017 -170.465691 
L 341.297577 -178.733373 
L 343.604985 -171.498421 
L 345.912393 -159.751425 
L 348.2198 -169.759335 
L 350.527208 -171.482958 
L 352.834615 -151.356149 
L 355.142023 -157.886562 
L 357.449431 -179.966132 
L 359.756838 -177.190089 
L 362.064246 -162.67435 
L 364.371653 -166.011494 
L 366.679061 -171.000095 
L 368.986469 -180.828302 
L 371.293876 -204.688458 
L 373.601284 -234.47051 
L 375.908691 -235.524265 
L 378.216099 -201.077265 
L 380.523506 -178.267517 
L 382.830914 -156.569804 
L 385.138322 -156.960433 
L 387.445729 -154.694514 
L 389.753137 -153.040198 
L 392.060544 -160.786312 
L 394.367952 -163.572723 
L 396.67536 -166.223743 
L 398.982767 -179.005074 
L 401.290175 -161.645252 
L 403.597582 -160.705784 
L 405.90499 -181.434714 
L 408.212398 -178.687414 
L 410.519805 -181.421627 
L 412.827213 -182.515613 
L 415.13462 -179.412982 
L 417.442028 -163.030193 
L 419.749436 -161.661499 
L 422.056843 -171.318056 
L 424.364251 -178.573291 
L 426.671658 -168.235263 
L 428.979066 -177.113333 
L 431.286474 -165.0638 
L 433.593881 -175.375325 
L 435.901289 -178.732777 
L 438.208696 -171.226398 
L 440.516104 -170.068985 
L 442.823511 -178.042742 
L 445.130919 -175.972405 
L 447.438327 -169.52406 
L 449.745734 -168.66977 
L 452.053142 -153.993437 
L 454.360549 -160.528401 
L 456.667957 -191.311238 
L 458.975365 -290.785847 
L 461.282772 -214.409989 
L 463.59018 -208.712036 
L 465.897587 -184.892706 
L 468.204995 -173.699492 
L 470.512403 -188.140995 
L 472.81981 -208.722506 
L 475.127218 -200.779995 
L 477.434625 -192.012777 
L 479.742033 -189.526791 
L 482.049441 -183.888445 
L 484.356848 -180.70703 
L 486.664256 -186.418095 
L 488.971663 -174.326435 
L 491.279071 -201.438514 
L 493.586479 -242.724894 
L 495.893886 -232.181636 
L 498.201294 -340.426097 
L 500.508701 -248.230913 
L 502.816109 -218.720379 
L 505.123516 -174.256509 
L 507.430924 -175.56542 
L 509.738332 -176.354849 
L 512.045739 -173.848649 
L 514.353147 -171.450209 
L 516.660554 -172.095618 
L 518.967962 -170.341766 
L 521.27537 -174.059953 
L 523.582777 -167.855662 
L 525.890185 -162.707208 
L 528.197592 -172.613488 
L 530.505 -169.6938 
L 532.812408 -161.143126 
L 535.119815 -174.669277 
L 537.427223 -171.915842 
L 539.73463 -171.359158 
L 542.042038 -165.799309 
L 544.349446 -167.743948 
L 546.656853 -171.65925 
L 548.964261 -166.538162 
L 551.271668 -172.486765 
L 553.579076 -171.075237 
L 555.886484 -173.141153 
L 558.193891 -178.120458 
L 560.501299 -179.958104 
L 562.808706 -175.829918 
L 565.116114 -163.803174 
L 567.423521 -169.01244 
L 569.730929 -172.351777 
L 572.038337 -176.721957 
L 574.345744 -176.879322 
L 576.653152 -162.516202 
L 578.960559 -163.974101 
L 581.267967 -161.491674 
L 583.575375 -173.958984 
L 585.882782 -173.624122 
L 588.19019 -161.347106 
L 590.497597 -156.255371 
L 592.805005 -162.38276 
L 595.112413 -164.278256 
L 597.41982 -160.212415 
L 599.727228 -167.091097 
L 602.034635 -178.449538 
L 604.342043 -164.015706 
L 606.649451 -170.499752 
L 608.956858 -160.535131 
L 611.264266 -161.346983 
L 613.571673 -155.885773 
L 615.879081 -168.758518 
L 618.186489 -167.931949 
L 620.493896 -169.366706 
L 622.801304 -160.93445 
L 625.108711 -167.564396 
L 627.416119 -158.029256 
L 629.723526 -159.455713 
L 632.030934 -171.624987 
L 634.338342 -171.46372 
L 636.645749 -167.23405 
L 638.953157 -173.980107 
L 641.260564 -168.662384 
L 643.567972 -161.19691 
L 645.87538 -169.785643 
L 648.182787 -178.483093 
L 650.490195 -172.547204 
L 652.797602 -169.313113 
L 655.10501 -171.374434 
L 657.412418 -177.848388 
L 659.719825 -173.404262 
L 662.027233 -172.309372 
L 664.33464 -182.93771 
L 666.642048 -181.919606 
L 668.949456 -177.525871 
L 671.256863 -184.943314 
L 673.564271 -187.992827 
L 675.871678 -182.882531 
L 678.179086 -175.91539 
L 680.486494 -192.707838 
L 682.793901 -194.706046 
L 685.101309 -210.032128 
L 687.408716 -208.909242 
L 689.716124 -194.218635 
L 692.023531 -179.503664 
L 694.330939 -165.017992 
L 696.638347 -170.447452 
L 698.945754 -176.334788 
L 701.253162 -182.251795 
L 703.560569 -173.383724 
L 705.867977 -176.630447 
L 708.175385 -185.660373 
L 710.482792 -165.487471 
L 712.7902 -176.365446 
L 715.097607 -166.880197 
L 717.405015 -181.015328 
L 719.712423 -184.097416 
L 722.01983 -184.619672 
L 724.327238 -168.971925 
L 726.634645 -172.340899 
L 728.942053 -181.748204 
L 731.249461 -180.492077 
L 733.556868 -184.132792 
L 735.864276 -180.753524 
L 738.171683 -173.714209 
L 740.479091 -168.267226 
L 742.786499 -155.817347 
L 745.093906 -160.122748 
L 747.401314 -153.648856 
L 749.708721 -162.455783 
L 752.016129 -157.585958 
L 754.323536 -168.199224 
L 756.630944 -182.660055 
L 758.938352 -177.271838 
L 761.245759 -183.071066 
L 763.553167 -172.778985 
L 765.860574 -176.581447 
L 768.167982 -174.806261 
L 770.47539 -171.762664 
L 772.782797 -164.290488 
L 775.090205 -163.924354 
L 777.397612 -174.457083 
L 779.70502 -182.697877 
L 782.012428 -168.301127 
L 784.319835 -179.234578 
L 786.627243 -193.685376 
L 788.93465 -170.528305 
L 791.242058 -158.639741 
L 793.549466 -176.714135 
L 795.856873 -176.326623 
L 798.164281 -176.152916 
L 800.471688 -176.983469 
L 802.779096 -177.849223 
L 805.086503 -162.558169 
L 807.393911 -159.999748 
L 809.701319 -198.548795 
L 812.008726 -317.966637 
L 814.316134 -254.974706 
L 816.623541 -227.243007 
L 818.930949 -210.424895 
L 821.238357 -186.245049 
L 823.545764 -198.150842 
L 825.853172 -195.711511 
L 828.160579 -210.660627 
L 830.467987 -179.172667 
L 832.775395 -212.946839 
L 835.082802 -312.358662 
L 837.39021 -262.691329 
L 839.697617 -241.692601 
L 842.005025 -214.233535 
L 844.312433 -190.242186 
L 846.61984 -174.612679 
L 848.927248 -173.921909 
L 851.234655 -172.848316 
L 853.542063 -176.683616 
L 855.849471 -175.068603 
L 858.156878 -170.440639 
L 860.464286 -153.927902 
L 862.771693 -151.480683 
L 865.079101 -160.842289 
L 867.386508 -138.425394 
L 869.693916 -131.274485 
L 872.001324 -126.010522 
L 874.308731 -120.160258 
L 876.616139 -113.879223 
L 878.923546 -111.787922 
L 881.230954 -174.740786 
L 883.538362 -148.485048 
L 885.845769 -159.459506 
L 888.153177 -173.172798 
L 890.460584 -181.992277 
L 892.767992 -193.568737 
L 895.0754 -178.526778 
L 897.382807 -169.088424 
L 899.690215 -186.929082 
L 901.997622 -181.789843 
L 904.30503 -195.80746 
L 906.612438 -198.082959 
L 908.919845 -182.843569 
L 911.227253 -173.345501 
L 913.53466 -173.004892 
L 915.842068 -186.1549 
L 918.149476 -182.875096 
L 920.456883 -180.186862 
L 922.764291 -186.520767 
L 925.071698 -189.197324 
L 927.379106 -183.377871 
L 929.686513 -187.170906 
L 931.993921 -183.350561 
L 934.301329 -172.261456 
L 936.608736 -174.128893 
L 938.916144 -177.150436 
L 941.223551 -182.059627 
L 943.530959 -181.790277 
L 945.838367 -176.868182 
L 948.145774 -192.154947 
L 950.453182 -181.365802 
L 950.453182 -250.680104 
L 950.453182 -250.680104 
L 948.145774 -290.875131 
L 945.838367 -241.385483 
L 943.530959 -260.093413 
L 941.223551 -263.534947 
L 938.916144 -250.8574 
L 936.608736 -234.978325 
L 934.301329 -240.511733 
L 931.993921 -252.117815 
L 929.686513 -257.118194 
L 927.379106 -261.482371 
L 925.071698 -266.71736 
L 922.764291 -271.45222 
L 920.456883 -263.073135 
L 918.149476 -259.682111 
L 915.842068 -263.036579 
L 913.53466 -240.839318 
L 911.227253 -244.901294 
L 908.919845 -254.513365 
L 906.612438 -287.381249 
L 904.30503 -288.106571 
L 901.997622 -266.870292 
L 899.690215 -260.977535 
L 897.382807 -226.68784 
L 895.0754 -241.859868 
L 892.767992 -263.36808 
L 890.460584 -253.703228 
L 888.153177 -240.72963 
L 885.845769 -228.455078 
L 883.538362 -225.032077 
L 881.230954 -262.579065 
L 878.923546 -137.682751 
L 876.616139 -145.423301 
L 874.308731 -156.191322 
L 872.001324 -167.490902 
L 869.693916 -187.735593 
L 867.386508 -182.249458 
L 865.079101 -221.353628 
L 862.771693 -206.977292 
L 860.464286 -209.244268 
L 858.156878 -237.278947 
L 855.849471 -239.299275 
L 853.542063 -250.459221 
L 851.234655 -234.878086 
L 848.927248 -276.242248 
L 846.61984 -237.308963 
L 844.312433 -261.752255 
L 842.005025 -311.522059 
L 839.697617 -371.87794 
L 837.39021 -405.531467 
L 835.082802 -522.145186 
L 832.775395 -336.441233 
L 830.467987 -254.81997 
L 828.160579 -310.053041 
L 825.853172 -289.904293 
L 823.545764 -313.559936 
L 821.238357 -291.172028 
L 818.930949 -335.958901 
L 816.623541 -337.366772 
L 814.316134 -377.360996 
L 812.008726 -474.865747 
L 809.701319 -295.080546 
L 807.393911 -220.939822 
L 805.086503 -221.513066 
L 802.779096 -260.270706 
L 800.471688 -278.223159 
L 798.164281 -257.935049 
L 795.856873 -245.378167 
L 793.549466 -275.597493 
L 791.242058 -246.836063 
L 788.93465 -236.770961 
L 786.627243 -294.816498 
L 784.319835 -246.150181 
L 782.012428 -238.723952 
L 779.70502 -268.343705 
L 777.397612 -252.619667 
L 775.090205 -235.943237 
L 772.782797 -233.391841 
L 770.47539 -257.725858 
L 768.167982 -268.919214 
L 765.860574 -249.457051 
L 763.553167 -256.28651 
L 761.245759 -265.542215 
L 758.938352 -257.939625 
L 756.630944 -295.315425 
L 754.323536 -237.189624 
L 752.016129 -226.065069 
L 749.708721 -226.950116 
L 747.401314 -214.296622 
L 745.093906 -225.646918 
L 742.786499 -219.072475 
L 740.479091 -237.514892 
L 738.171683 -250.720875 
L 735.864276 -254.734894 
L 733.556868 -264.248928 
L 731.249461 -270.951951 
L 728.942053 -290.93095 
L 726.634645 -259.454419 
L 724.327238 -275.794613 
L 722.01983 -273.943367 
L 719.712423 -288.617157 
L 717.405015 -252.711446 
L 715.097607 -231.661979 
L 712.7902 -261.332015 
L 710.482792 -236.611915 
L 708.175385 -280.987178 
L 705.867977 -272.185641 
L 703.560569 -252.36314 
L 701.253162 -277.886304 
L 698.945754 -265.136257 
L 696.638347 -245.459821 
L 694.330939 -240.079867 
L 692.023531 -287.12621 
L 689.716124 -283.890719 
L 687.408716 -324.385658 
L 685.101309 -309.734046 
L 682.793901 -306.980578 
L 680.486494 -290.237407 
L 678.179086 -259.024282 
L 675.871678 -259.407141 
L 673.564271 -276.725378 
L 671.256863 -267.102105 
L 668.949456 -252.63501 
L 666.642048 -275.977113 
L 664.33464 -307.514204 
L 662.027233 -252.832895 
L 659.719825 -247.050232 
L 657.412418 -267.086733 
L 655.10501 -243.050876 
L 652.797602 -244.005172 
L 650.490195 -244.876284 
L 648.182787 -266.423734 
L 645.87538 -240.238782 
L 643.567972 -226.046849 
L 641.260564 -277.219406 
L 638.953157 -258.001585 
L 636.645749 -232.04258 
L 634.338342 -287.51447 
L 632.030934 -253.282578 
L 629.723526 -232.598032 
L 627.416119 -221.932983 
L 625.108711 -236.843903 
L 622.801304 -225.699603 
L 620.493896 -235.107753 
L 618.186489 -233.01842 
L 615.879081 -259.367611 
L 613.571673 -215.160767 
L 611.264266 -234.857523 
L 608.956858 -221.905358 
L 606.649451 -249.206334 
L 604.342043 -229.908011 
L 602.034635 -269.96227 
L 599.727228 -229.747983 
L 597.41982 -227.758538 
L 595.112413 -229.393357 
L 592.805005 -230.968137 
L 590.497597 -221.211138 
L 588.19019 -229.026342 
L 585.882782 -251.057111 
L 583.575375 -243.967513 
L 581.267967 -224.339209 
L 578.960559 -226.24341 
L 576.653152 -233.48745 
L 574.345744 -250.954538 
L 572.038337 -252.761942 
L 569.730929 -240.240466 
L 567.423521 -242.74128 
L 565.116114 -228.014683 
L 562.808706 -248.025336 
L 560.501299 -253.426872 
L 558.193891 -250.406836 
L 555.886484 -241.084622 
L 553.579076 -261.703122 
L 551.271668 -246.088404 
L 548.964261 -242.005207 
L 546.656853 -241.907231 
L 544.349446 -232.738459 
L 542.042038 -230.554192 
L 539.73463 -242.796577 
L 537.427223 -246.431329 
L 535.119815 -244.518192 
L 532.812408 -222.065141 
L 530.505 -243.208892 
L 528.197592 -240.95156 
L 525.890185 -228.628722 
L 523.582777 -240.565521 
L 521.27537 -249.657145 
L 518.967962 -240.983917 
L 516.660554 -257.486558 
L 514.353147 -240.112592 
L 512.045739 -250.860631 
L 509.738332 -285.229464 
L 507.430924 -256.625559 
L 505.123516 -252.200527 
L 502.816109 -342.971799 
L 500.508701 -384.43561 
L 498.201294 -536.617082 
L 495.893886 -355.276807 
L 493.586479 -377.116141 
L 491.279071 -313.317066 
L 488.971663 -246.184082 
L 486.664256 -261.591881 
L 484.356848 -273.46355 
L 482.049441 -287.7023 
L 479.742033 -264.01918 
L 477.434625 -274.277012 
L 475.127218 -274.868911 
L 472.81981 -340.179796 
L 470.512403 -259.775934 
L 468.204995 -258.166932 
L 465.897587 -288.015854 
L 463.59018 -333.189094 
L 461.282772 -350.852998 
L 458.975365 -482.563742 
L 456.667957 -271.791631 
L 454.360549 -226.095263 
L 452.053142 -221.571592 
L 449.745734 -237.741056 
L 447.438327 -239.892707 
L 445.130919 -259.179435 
L 442.823511 -298.734272 
L 440.516104 -249.466821 
L 438.208696 -272.886013 
L 435.901289 -272.799221 
L 433.593881 -258.743377 
L 431.286474 -241.937154 
L 428.979066 -290.752565 
L 426.671658 -255.425771 
L 424.364251 -299.561117 
L 422.056843 -276.768198 
L 419.749436 -229.123079 
L 417.442028 -251.731166 
L 415.13462 -285.054468 
L 412.827213 -263.676865 
L 410.519805 -265.854365 
L 408.212398 -258.447093 
L 405.90499 -271.14998 
L 403.597582 -260.880582 
L 401.290175 -235.322796 
L 398.982767 -270.187287 
L 396.67536 -256.575675 
L 394.367952 -243.613652 
L 392.060544 -233.785705 
L 389.753137 -216.761733 
L 387.445729 -215.238816 
L 385.138322 -224.323537 
L 382.830914 -238.465037 
L 380.523506 -288.64962 
L 378.216099 -326.335582 
L 375.908691 -364.476818 
L 373.601284 -371.306875 
L 371.293876 -316.489936 
L 368.986469 -275.298454 
L 366.679061 -251.143008 
L 364.371653 -244.899354 
L 362.064246 -232.080758 
L 359.756838 -267.794273 
L 357.449431 -282.165034 
L 355.142023 -249.334659 
L 352.834615 -214.410868 
L 350.527208 -281.078627 
L 348.2198 -281.766218 
L 345.912393 -232.562807 
L 343.604985 -285.793165 
L 341.297577 -268.920524 
L 338.99017 -282.771041 
L 336.682762 -261.034722 
L 334.375355 -248.362129 
L 332.067947 -252.322775 
L 329.760539 -245.566222 
L 327.453132 -212.446146 
L 325.145724 -224.393688 
L 322.838317 -208.702995 
L 320.530909 -226.842663 
L 318.223501 -228.045009 
L 315.916094 -214.523516 
L 313.608686 -233.154396 
L 311.301279 -253.296759 
L 308.993871 -263.309043 
L 306.686464 -208.743772 
L 304.379056 -216.4676 
L 302.071648 -207.785736 
L 299.764241 -206.11674 
L 297.456833 -236.672987 
L 295.149426 -240.315663 
L 292.842018 -241.65041 
L 290.53461 -218.081698 
L 288.227203 -237.975045 
L 285.919795 -255.38998 
L 283.612388 -242.475752 
L 281.30498 -260.402623 
L 278.997572 -239.107494 
L 276.690165 -273.274661 
L 274.382757 -228.889937 
L 272.07535 -234.507967 
L 269.767942 -248.191744 
L 267.460534 -233.754797 
L 265.153127 -263.577913 
L 262.845719 -270.011384 
L 260.538312 -233.398752 
L 258.230904 -244.462823 
L 255.923497 -265.826547 
L 253.616089 -259.159896 
L 251.308681 -222.876383 
L 249.001274 -245.83844 
L 246.693866 -267.868082 
L 244.386459 -230.909629 
L 242.079051 -232.223561 
L 239.771643 -249.654746 
L 237.464236 -231.867888 
L 235.156828 -226.365947 
L 232.849421 -261.540523 
L 230.542013 -244.237253 
L 228.234605 -248.497896 
L 225.927198 -227.239555 
L 223.61979 -260.037747 
L 221.312383 -253.015068 
L 219.004975 -264.012003 
L 216.697567 -239.654677 
L 214.39016 -222.101872 
L 212.082752 -244.634784 
L 209.775345 -231.612292 
L 207.467937 -225.640061 
L 205.160529 -261.971292 
L 202.853122 -214.247851 
L 200.545714 -271.920359 
L 198.238307 -225.258097 
L 195.930899 -263.29705 
L 193.623492 -185.081533 
L 191.316084 -189.970012 
L 189.008676 -172.676772 
L 186.701269 -184.329761 
L 184.393861 -177.508129 
L 182.086454 -171.386853 
L 179.779046 -116.98609 
L 177.471638 -205.353425 
L 175.164231 -284.008059 
L 172.856823 -272.027312 
L 170.549416 -282.443438 
L 168.242008 -293.820683 
L 165.9346 -294.316922 
L 163.627193 -285.238749 
L 161.319785 -287.327959 
L 159.012378 -327.539476 
L 156.70497 -287.746175 
L 154.397562 -317.485226 
L 152.090155 -294.831454 
L 149.782747 -272.163046 
L 147.47534 -284.476989 
L 145.167932 -269.004823 
L 142.860524 -253.626354 
L 140.553117 -274.576609 
L 138.245709 -273.261996 
L 135.938302 -297.676823 
L 133.630894 -294.4732 
L 131.323487 -320.648734 
L 129.016079 -232.741886 
L 126.708671 -226.959965 
L 124.401264 -243.961822 
L 122.093856 -267.101825 
L 119.786449 -236.762849 
L 117.479041 -250.558426 
L 115.171633 -230.604465 
L 112.864226 -232.193724 
L 110.556818 -245.474893 
z
" style="stroke: #dbc257; stroke-opacity: 0.2"/>
    </defs>
    <g clip-path="url(#pf3a80f9869)">
     <use xlink:href="#m98aab381b2" x="0" y="576" style="fill: #dbc257; fill-opacity: 0.2; stroke: #dbc257; stroke-opacity: 0.2"/>
    </g>
   </g>
   <g id="line2d_1">
    <path d="M 110.556818 377.858329 
L 112.864226 385.951213 
L 115.171633 396.256355 
L 117.479041 379.28708 
L 119.786449 381.356436 
L 122.093856 365.419474 
L 124.401264 372.062093 
L 126.708671 385.655484 
L 129.016079 379.277714 
L 131.323487 318.869121 
L 133.630894 347.032855 
L 135.938302 342.710067 
L 138.245709 358.841862 
L 140.553117 362.412301 
L 142.860524 368.659873 
L 145.167932 352.745075 
L 147.47534 350.86267 
L 149.782747 352.198223 
L 152.090155 335.168671 
L 154.397562 327.691541 
L 156.70497 339.850155 
L 159.012378 320.292307 
L 161.319785 342.598322 
L 163.627193 344.202525 
L 165.9346 336.506357 
L 168.242008 342.618909 
L 170.549416 349.700344 
L 172.856823 355.84795 
L 175.164231 355.178782 
L 177.471638 405.68748 
L 179.779046 470.047648 
L 182.086454 430.505099 
L 184.393861 425.512494 
L 186.701269 420.066977 
L 189.008676 427.027301 
L 191.316084 414.58112 
L 193.623492 417.764859 
L 195.930899 373.695507 
L 198.238307 390.150016 
L 200.545714 364.294149 
L 202.853122 392.652346 
L 205.160529 365.605962 
L 207.467937 388.276514 
L 209.775345 391.19967 
L 212.082752 375.974812 
L 214.39016 388.348197 
L 216.697567 381.250905 
L 219.004975 374.903829 
L 221.312383 372.894472 
L 223.61979 361.300885 
L 225.927198 384.828206 
L 228.234605 373.169706 
L 230.542013 370.443238 
L 232.849421 372.688046 
L 235.156828 384.597391 
L 237.464236 382.134287 
L 239.771643 372.72041 
L 242.079051 380.44987 
L 244.386459 384.698842 
L 246.693866 364.991322 
L 249.001274 375.998088 
L 251.308681 385.86803 
L 253.616089 364.340794 
L 255.923497 358.725666 
L 258.230904 380.574689 
L 260.538312 377.783771 
L 262.845719 356.403054 
L 265.153127 365.996 
L 267.460534 382.585345 
L 269.767942 375.746872 
L 272.07535 382.507912 
L 274.382757 382.226001 
L 276.690165 365.036854 
L 278.997572 377.943181 
L 281.30498 369.631075 
L 283.612388 382.078183 
L 285.919795 372.368949 
L 288.227203 378.641652 
L 290.53461 391.028391 
L 292.842018 379.480708 
L 295.149426 375.818092 
L 297.456833 381.521038 
L 299.764241 398.582398 
L 302.071648 398.919671 
L 304.379056 394.974587 
L 306.686464 400.662975 
L 308.993871 375.004909 
L 311.301279 376.132181 
L 313.608686 386.480908 
L 315.916094 395.213562 
L 318.223501 384.34228 
L 320.530909 386.595342 
L 322.838317 400.143201 
L 325.145724 391.004466 
L 327.453132 394.559325 
L 329.760539 374.457779 
L 332.067947 369.097484 
L 334.375355 370.488028 
L 336.682762 357.863613 
L 338.99017 353.486667 
L 341.297577 355.397541 
L 343.604985 351.62995 
L 345.912393 380.938577 
L 348.2198 356.662153 
L 350.527208 356.891762 
L 352.834615 396.378114 
L 355.142023 376.076912 
L 357.449431 348.975815 
L 359.756838 358.214796 
L 362.064246 379.622684 
L 364.371653 370.600793 
L 366.679061 368.136947 
L 368.986469 349.687825 
L 371.293876 318.713977 
L 373.601284 277.849599 
L 375.908691 280.092924 
L 378.216099 317.763733 
L 380.523506 346.47775 
L 382.830914 382.416662 
L 385.138322 386.436582 
L 387.445729 392.248768 
L 389.753137 392.890765 
L 392.060544 381.848574 
L 394.367952 376.589267 
L 396.67536 369.873574 
L 398.982767 354.274442 
L 401.290175 378.01913 
L 403.597582 370.845054 
L 405.90499 355.264932 
L 408.212398 360.57682 
L 410.519805 355.524772 
L 412.827213 355.272258 
L 415.13462 348.673781 
L 417.442028 372.831598 
L 419.749436 383.653917 
L 422.056843 361.246265 
L 424.364251 347.071896 
L 426.671658 368.090116 
L 428.979066 347.203114 
L 431.286474 376.828891 
L 433.593881 361.180981 
L 435.901289 354.844013 
L 438.208696 358.909372 
L 440.516104 368.095773 
L 442.823511 349.985686 
L 447.438327 373.941437 
L 449.745734 374.326004 
L 452.053142 390.031038 
L 454.360549 385.455179 
L 456.667957 347.060119 
L 458.975365 195.629911 
L 461.282772 299.062561 
L 463.59018 313.574667 
L 465.897587 346.177663 
L 468.204995 362.471929 
L 470.512403 353.693649 
L 472.81981 312.894835 
L 475.127218 340.922343 
L 477.434625 346.952362 
L 479.742033 349.976042 
L 482.049441 344.248521 
L 484.356848 353.552694 
L 486.664256 352.119121 
L 488.971663 369.096464 
L 491.279071 324.002774 
L 493.586479 272.43487 
L 495.893886 288.439991 
L 498.201294 142.239973 
L 500.508701 261.353545 
L 502.816109 298.764143 
L 505.123516 366.094947 
L 507.430924 363.763711 
L 509.738332 351.959805 
L 512.045739 366.258252 
L 514.353147 370.25165 
L 516.660554 365.966789 
L 518.967962 372.574262 
L 521.27537 366.930665 
L 523.582777 373.567256 
L 525.890185 382.494558 
L 528.197592 370.760573 
L 530.505 371.761635 
L 532.812408 385.865063 
L 535.119815 367.076535 
L 537.427223 372.445733 
L 539.73463 371.821263 
L 542.042038 380.893694 
L 544.349446 377.840617 
L 546.656853 371.306775 
L 548.964261 373.692817 
L 551.271668 369.287496 
L 553.579076 366.95153 
L 555.886484 369.668725 
L 558.193891 365.036483 
L 560.501299 362.083652 
L 562.808706 366.223291 
L 565.116114 380.536947 
L 567.423521 372.362272 
L 569.730929 371.067893 
L 572.038337 363.093338 
L 574.345744 364.365832 
L 576.653152 382.018555 
L 581.267967 384.889874 
L 583.575375 369.68653 
L 585.882782 366.890789 
L 588.19019 383.956971 
L 590.497597 389.690241 
L 592.805005 382.635421 
L 595.112413 380.412683 
L 597.41982 384.773307 
L 599.727228 380.234912 
L 602.034635 355.12954 
L 604.342043 380.29556 
L 606.649451 369.498929 
L 608.956858 386.604244 
L 611.264266 381.598378 
L 613.571673 391.880708 
L 615.879081 366.18898 
L 618.186489 378.706844 
L 620.493896 377.104867 
L 622.801304 384.409327 
L 625.108711 378.415845 
L 627.416119 387.070696 
L 629.723526 382.12251 
L 632.030934 366.765784 
L 634.338342 352.925906 
L 636.645749 379.826791 
L 638.953157 364.096626 
L 641.260564 360.571256 
L 643.567972 383.552188 
L 645.87538 372.36459 
L 648.182787 358.043702 
L 650.490195 369.895644 
L 652.797602 373.374926 
L 655.10501 369.674938 
L 657.412418 357.131293 
L 659.719825 370.55322 
L 662.027233 367.490221 
L 664.33464 340.725377 
L 666.642048 350.677481 
L 668.949456 362.040809 
L 673.564271 343.782997 
L 675.871678 357.678145 
L 678.179086 361.936947 
L 680.486494 336.211185 
L 682.793901 333.164044 
L 685.101309 320.587664 
L 687.408716 313.900163 
L 689.716124 339.064977 
L 692.023531 350.742116 
L 694.330939 375.558159 
L 696.638347 368.493879 
L 701.253162 350.926286 
L 703.560569 364.839146 
L 705.867977 355.082339 
L 708.175385 347.009301 
L 710.482792 378.297702 
L 712.7902 357.981848 
L 715.097607 378.745236 
L 717.405015 361.530958 
L 719.712423 345.308005 
L 722.01983 350.671082 
L 724.327238 359.154931 
L 726.634645 363.844761 
L 728.942053 347.754139 
L 731.249461 356.085626 
L 733.556868 353.226549 
L 735.864276 360.332744 
L 738.171683 364.107476 
L 740.479091 375.467094 
L 742.786499 390.072398 
L 745.093906 385.802653 
L 747.401314 392.513245 
L 749.708721 382.520709 
L 752.016129 385.985802 
L 754.323536 374.473915 
L 756.630944 344.936514 
L 758.938352 360.395061 
L 761.245759 356.073849 
L 763.553167 366.877343 
L 765.860574 366.210865 
L 768.167982 361.525116 
L 770.47539 363.815549 
L 772.782797 376.453133 
L 775.090205 376.868766 
L 777.397612 366.902288 
L 779.70502 353.918251 
L 782.012428 375.446415 
L 784.319835 363.452125 
L 786.627243 337.457807 
L 788.93465 373.0664 
L 791.242058 381.854602 
L 793.549466 354.174753 
L 795.856873 365.051228 
L 798.164281 362.764689 
L 800.471688 355.458004 
L 802.779096 361.091771 
L 805.086503 385.574435 
L 807.393911 388.144183 
L 809.701319 335.479052 
L 812.008726 184.405406 
L 814.316134 262.812249 
L 816.623541 296.957224 
L 818.930949 312.06598 
L 821.238357 346.869643 
L 823.545764 325.83844 
L 825.853172 337.776904 
L 828.160579 319.898188 
L 830.467987 362.174346 
L 832.775395 311.549452 
L 835.082802 178.926505 
L 837.39021 250.319423 
L 839.697617 273.293214 
L 842.005025 317.742126 
L 844.312433 351.365288 
L 846.61984 372.109572 
L 848.927248 359.43304 
L 851.234655 375.491576 
L 853.542063 366.41831 
L 855.849471 371.942466 
L 858.156878 374.889084 
L 860.464286 395.081695 
L 862.771693 398.533527 
L 865.079101 385.904938 
L 867.386508 415.586077 
L 869.693916 420.862633 
L 872.001324 430.244239 
L 874.308731 438.190695 
L 876.616139 446.892654 
L 878.923546 452.52401 
L 881.230954 361.731912 
L 883.538362 392.853208 
L 885.845769 383.855335 
L 888.153177 370.908854 
L 890.460584 359.638075 
L 892.767992 351.68726 
L 895.0754 366.632247 
L 897.382807 379.210667 
L 899.690215 354.137103 
L 901.997622 352.578247 
L 904.30503 337.224766 
L 906.612438 335.087715 
L 908.919845 360.186688 
L 911.227253 370.27372 
L 913.53466 371.136702 
L 915.842068 355.219678 
L 918.149476 357.872515 
L 920.456883 356.069954 
L 922.764291 351.657678 
L 925.071698 350.654854 
L 927.379106 355.214948 
L 929.686513 358.735218 
L 931.993921 360.415555 
L 934.301329 372.535221 
L 936.608736 374.505908 
L 938.916144 364.429726 
L 941.223551 357.698732 
L 943.530959 355.086141 
L 945.838367 368.441948 
L 948.145774 338.25504 
L 950.453182 363.402698 
L 950.453182 363.402698 
" clip-path="url(#pf3a80f9869)" style="fill: none; stroke: #dbc257; stroke-width: 1.5; stroke-linecap: round"/>
   </g>
   <g id="line2d_2"/>
   <g id="patch_3">
    <path d="M 68.562 501.03675 
L 68.562 17.399402 
" style="fill: none; stroke: #262626; stroke-width: 1.25; stroke-linejoin: miter; stroke-linecap: square"/>
   </g>
   <g id="patch_4">
    <path d="M 992.448 501.03675 
L 992.448 17.399402 
" style="fill: none; stroke: #262626; stroke-width: 1.25; stroke-linejoin: miter; stroke-linecap: square"/>
   </g>
   <g id="patch_5">
    <path d="M 68.562 501.03675 
L 992.448 501.03675 
" style="fill: none; stroke: #262626; stroke-width: 1.25; stroke-linejoin: miter; stroke-linecap: square"/>
   </g>
   <g id="patch_6">
    <path d="M 68.562 17.399402 
L 992.448 17.399402 
" style="fill: none; stroke: #262626; stroke-width: 1.25; stroke-linejoin: miter; stroke-linecap: square"/>
   </g>
   <g id="legend_1">
    <g id="patch_7">
     <path d="M 914.568 65.324402 
L 983.208 65.324402 
Q 985.848 65.324402 985.848 62.684402 
L 985.848 26.639402 
Q 985.848 23.999402 983.208 23.999402 
L 914.568 23.999402 
Q 911.928 23.999402 911.928 26.639402 
L 911.928 62.684402 
Q 911.928 65.324402 914.568 65.324402 
z
" style="fill: #ffffff; opacity: 0.8; stroke: #cccccc; stroke-linejoin: miter"/>
    </g>
    <g id="text_45">
     <!-- 年份 -->
     <g style="fill: #262626" transform="translate(934.488 40.754402) scale(0.144 -0.144)">
      <defs>
       <path id="SimHei-5e74" d="M 350 2925 
Q 900 3450 1375 4200 
Q 1850 4950 1900 5275 
Q 2275 5125 2600 5050 
Q 2375 4825 2100 4325 
L 4625 4325 
Q 5175 4325 5750 4350 
L 5750 3925 
Q 5225 3950 4625 3950 
L 3800 3950 
L 3800 2925 
Q 4750 2925 5475 2950 
L 5475 2525 
Q 4725 2550 3800 2550 
L 3800 1375 
L 5075 1375 
Q 5625 1375 6100 1400 
L 6100 975 
Q 5650 1000 5075 1000 
L 3800 1000 
L 3800 425 
Q 3800 -150 3825 -625 
L 3275 -625 
Q 3300 -150 3300 375 
L 3300 1000 
L 1600 1000 
Q 900 1000 275 975 
L 275 1400 
Q 875 1375 1450 1375 
Q 1450 2350 1425 2925 
L 3300 2925 
L 3300 3950 
L 1875 3950 
Q 1350 3150 925 2650 
Q 650 2875 350 2925 
z
M 3300 1375 
L 3300 2550 
L 1925 2550 
L 1925 1375 
L 3300 1375 
z
" transform="scale(0.015625)"/>
       <path id="SimHei-4efd" d="M 4750 5100 
Q 4875 4375 5250 3650 
Q 5625 2925 6200 2450 
Q 6025 2375 5775 2075 
Q 5600 2275 5350 2575 
Q 5300 2275 5275 1312 
Q 5250 350 5187 25 
Q 5125 -300 4850 -400 
Q 4575 -500 4075 -550 
Q 4000 -250 3875 0 
Q 4400 -25 4575 25 
Q 4750 75 4775 587 
Q 4800 1100 4825 2250 
L 3700 2250 
Q 3675 1300 3425 650 
Q 3175 0 2375 -625 
Q 2175 -350 2000 -225 
Q 2750 225 2987 800 
Q 3225 1375 3225 2250 
Q 3000 2250 2675 2225 
L 2675 2575 
Q 2475 2300 2150 1950 
Q 2000 2150 1750 2300 
Q 2875 3275 3225 4875 
Q 3450 4775 3750 4675 
Q 3625 4400 3425 3887 
Q 3225 3375 2775 2700 
Q 3050 2675 3400 2675 
L 5300 2675 
Q 4575 3625 4275 4975 
Q 4575 5025 4750 5100 
z
M 225 2525 
Q 575 2875 1025 3687 
Q 1475 4500 1650 5225 
Q 1975 5075 2200 4975 
Q 2050 4750 1600 3775 
L 1600 625 
Q 1600 75 1625 -575 
L 1100 -575 
Q 1125 50 1125 625 
L 1125 2925 
Q 775 2400 575 2175 
Q 425 2350 225 2525 
z
" transform="scale(0.015625)"/>
      </defs>
      <use xlink:href="#SimHei-5e74"/>
      <use xlink:href="#SimHei-4efd" x="100"/>
     </g>
    </g>
    <g id="line2d_3">
     <path d="M 917.208 53.774402 
L 930.408 53.774402 
L 943.608 53.774402 
" style="fill: none; stroke: #dbc257; stroke-width: 1.5; stroke-linecap: round"/>
    </g>
    <g id="text_46">
     <!-- 2022 -->
     <g style="fill: #262626" transform="translate(954.168 58.394402) scale(0.132 -0.132)">
      <use xlink:href="#SimHei-32"/>
      <use xlink:href="#SimHei-30" x="50"/>
      <use xlink:href="#SimHei-32" x="100"/>
      <use xlink:href="#SimHei-32" x="150"/>
     </g>
    </g>
   </g>
  </g>
 </g>
 <defs>
  <clipPath id="pf3a80f9869">
   <rect x="68.562" y="17.399402" width="923.886" height="483.637348"/>
  </clipPath>
 </defs>
</svg>
