<?xml version="1.0" encoding="utf-8" standalone="no"?>
<!DOCTYPE svg PUBLIC "-//W3C//DTD SVG 1.1//EN"
  "http://www.w3.org/Graphics/SVG/1.1/DTD/svg11.dtd">
<svg xmlns:xlink="http://www.w3.org/1999/xlink" width="1008pt" height="576pt" viewBox="0 0 1008 576" xmlns="http://www.w3.org/2000/svg" version="1.1">
 <metadata>
  <rdf:RDF xmlns:dc="http://purl.org/dc/elements/1.1/" xmlns:cc="http://creativecommons.org/ns#" xmlns:rdf="http://www.w3.org/1999/02/22-rdf-syntax-ns#">
   <cc:Work>
    <dc:type rdf:resource="http://purl.org/dc/dcmitype/StillImage"/>
    <dc:date>2023-04-14T12:17:31.499238</dc:date>
    <dc:format>image/svg+xml</dc:format>
    <dc:creator>
     <cc:Agent>
      <dc:title>Matplotlib v3.7.1, https://matplotlib.org/</dc:title>
     </cc:Agent>
    </dc:creator>
   </cc:Work>
  </rdf:RDF>
 </metadata>
 <defs>
  <style type="text/css">*{stroke-linejoin: round; stroke-linecap: butt}</style>
 </defs>
 <g id="figure_1">
  <g id="patch_1">
   <path d="M 0 576 
L 1008 576 
L 1008 0 
L 0 0 
z
" style="fill: #ffffff"/>
  </g>
  <g id="axes_1">
   <g id="patch_2">
    <path d="M 75.222 501.03675 
L 992.448 501.03675 
L 992.448 15.552 
L 75.222 15.552 
z
" style="fill: #ffffff"/>
   </g>
   <g id="matplotlib.axis_1">
    <g id="xtick_1">
     <g id="line2d_1">
      <path d="M 116.914091 501.03675 
L 116.914091 15.552 
" clip-path="url(#pf395844bef)" style="fill: none; stroke: #cccccc; stroke-linecap: round"/>
     </g>
     <g id="text_1">
      <!-- 01-01 -->
      <g style="fill: #262626" transform="translate(120.626591 543.53675) rotate(-90) scale(0.132 -0.132)">
       <defs>
        <path id="SimHei-30" d="M 225 2537 
Q 250 3200 412 3587 
Q 575 3975 875 4225 
Q 1175 4475 1612 4475 
Q 2050 4475 2375 4112 
Q 2700 3750 2800 3200 
Q 2900 2650 2862 1937 
Q 2825 1225 2612 775 
Q 2400 325 1975 150 
Q 1550 -25 1125 187 
Q 700 400 525 750 
Q 350 1100 275 1487 
Q 200 1875 225 2537 
z
M 750 2687 
Q 675 2000 800 1462 
Q 925 925 1212 700 
Q 1500 475 1800 612 
Q 2100 750 2237 1162 
Q 2375 1575 2375 2062 
Q 2375 2550 2337 2950 
Q 2300 3350 2112 3675 
Q 1925 4000 1612 4012 
Q 1300 4025 1062 3700 
Q 825 3375 750 2687 
z
" transform="scale(0.015625)"/>
        <path id="SimHei-31" d="M 1400 3600 
Q 1075 3275 575 2975 
L 575 3450 
Q 1200 3875 1600 4450 
L 1900 4450 
L 1900 150 
L 1400 150 
L 1400 3600 
z
" transform="scale(0.015625)"/>
        <path id="SimHei-2d" d="M 2975 2125 
L 125 2125 
L 125 2525 
L 2975 2525 
L 2975 2125 
z
" transform="scale(0.015625)"/>
       </defs>
       <use xlink:href="#SimHei-30"/>
       <use xlink:href="#SimHei-31" x="50"/>
       <use xlink:href="#SimHei-2d" x="100"/>
       <use xlink:href="#SimHei-30" x="150"/>
       <use xlink:href="#SimHei-31" x="200"/>
      </g>
     </g>
    </g>
    <g id="xtick_2">
     <g id="line2d_2">
      <path d="M 139.821833 501.03675 
L 139.821833 15.552 
" clip-path="url(#pf395844bef)" style="fill: none; stroke: #cccccc; stroke-linecap: round"/>
     </g>
     <g id="text_2">
      <!-- 01-11 -->
      <g style="fill: #262626" transform="translate(143.534333 543.53675) rotate(-90) scale(0.132 -0.132)">
       <use xlink:href="#SimHei-30"/>
       <use xlink:href="#SimHei-31" x="50"/>
       <use xlink:href="#SimHei-2d" x="100"/>
       <use xlink:href="#SimHei-31" x="150"/>
       <use xlink:href="#SimHei-31" x="200"/>
      </g>
     </g>
    </g>
    <g id="xtick_3">
     <g id="line2d_3">
      <path d="M 162.729575 501.03675 
L 162.729575 15.552 
" clip-path="url(#pf395844bef)" style="fill: none; stroke: #cccccc; stroke-linecap: round"/>
     </g>
     <g id="text_3">
      <!-- 01-21 -->
      <g style="fill: #262626" transform="translate(166.442075 543.53675) rotate(-90) scale(0.132 -0.132)">
       <defs>
        <path id="SimHei-32" d="M 300 250 
Q 325 625 650 925 
Q 975 1225 1475 1862 
Q 1975 2500 2125 2850 
Q 2275 3200 2237 3450 
Q 2200 3700 2000 3862 
Q 1800 4025 1537 4000 
Q 1275 3975 1037 3800 
Q 800 3625 675 3275 
L 200 3350 
Q 400 3925 712 4187 
Q 1025 4450 1450 4475 
Q 1700 4500 1900 4462 
Q 2100 4425 2312 4287 
Q 2525 4150 2662 3875 
Q 2800 3600 2762 3212 
Q 2725 2825 2375 2287 
Q 2025 1750 1025 600 
L 2825 600 
L 2825 150 
L 300 150 
L 300 250 
z
" transform="scale(0.015625)"/>
       </defs>
       <use xlink:href="#SimHei-30"/>
       <use xlink:href="#SimHei-31" x="50"/>
       <use xlink:href="#SimHei-2d" x="100"/>
       <use xlink:href="#SimHei-32" x="150"/>
       <use xlink:href="#SimHei-31" x="200"/>
      </g>
     </g>
    </g>
    <g id="xtick_4">
     <g id="line2d_4">
      <path d="M 185.637318 501.03675 
L 185.637318 15.552 
" clip-path="url(#pf395844bef)" style="fill: none; stroke: #cccccc; stroke-linecap: round"/>
     </g>
     <g id="text_4">
      <!-- 01-31 -->
      <g style="fill: #262626" transform="translate(189.349818 543.53675) rotate(-90) scale(0.132 -0.132)">
       <defs>
        <path id="SimHei-33" d="M 250 1225 
L 700 1300 
Q 800 975 1025 762 
Q 1250 550 1587 562 
Q 1925 575 2125 837 
Q 2325 1100 2300 1437 
Q 2275 1775 2037 1962 
Q 1800 2150 1275 2225 
L 1275 2550 
Q 1800 2600 2037 2825 
Q 2275 3050 2250 3412 
Q 2225 3775 1925 3937 
Q 1625 4100 1287 3975 
Q 950 3850 750 3275 
L 300 3350 
Q 450 3800 712 4100 
Q 975 4400 1425 4450 
Q 1875 4500 2212 4337 
Q 2550 4175 2687 3837 
Q 2825 3500 2725 3100 
Q 2625 2700 2150 2400 
Q 2500 2250 2687 1950 
Q 2875 1650 2812 1162 
Q 2750 675 2375 375 
Q 2000 75 1525 87 
Q 1050 100 700 387 
Q 350 675 250 1225 
z
" transform="scale(0.015625)"/>
       </defs>
       <use xlink:href="#SimHei-30"/>
       <use xlink:href="#SimHei-31" x="50"/>
       <use xlink:href="#SimHei-2d" x="100"/>
       <use xlink:href="#SimHei-33" x="150"/>
       <use xlink:href="#SimHei-31" x="200"/>
      </g>
     </g>
    </g>
    <g id="xtick_5">
     <g id="line2d_5">
      <path d="M 208.54506 501.03675 
L 208.54506 15.552 
" clip-path="url(#pf395844bef)" style="fill: none; stroke: #cccccc; stroke-linecap: round"/>
     </g>
     <g id="text_5">
      <!-- 02-10 -->
      <g style="fill: #262626" transform="translate(212.25756 543.53675) rotate(-90) scale(0.132 -0.132)">
       <use xlink:href="#SimHei-30"/>
       <use xlink:href="#SimHei-32" x="50"/>
       <use xlink:href="#SimHei-2d" x="100"/>
       <use xlink:href="#SimHei-31" x="150"/>
       <use xlink:href="#SimHei-30" x="200"/>
      </g>
     </g>
    </g>
    <g id="xtick_6">
     <g id="line2d_6">
      <path d="M 231.452802 501.03675 
L 231.452802 15.552 
" clip-path="url(#pf395844bef)" style="fill: none; stroke: #cccccc; stroke-linecap: round"/>
     </g>
     <g id="text_6">
      <!-- 02-20 -->
      <g style="fill: #262626" transform="translate(235.165302 543.53675) rotate(-90) scale(0.132 -0.132)">
       <use xlink:href="#SimHei-30"/>
       <use xlink:href="#SimHei-32" x="50"/>
       <use xlink:href="#SimHei-2d" x="100"/>
       <use xlink:href="#SimHei-32" x="150"/>
       <use xlink:href="#SimHei-30" x="200"/>
      </g>
     </g>
    </g>
    <g id="xtick_7">
     <g id="line2d_7">
      <path d="M 254.360544 501.03675 
L 254.360544 15.552 
" clip-path="url(#pf395844bef)" style="fill: none; stroke: #cccccc; stroke-linecap: round"/>
     </g>
     <g id="text_7">
      <!-- 03-02 -->
      <g style="fill: #262626" transform="translate(258.073044 543.53675) rotate(-90) scale(0.132 -0.132)">
       <use xlink:href="#SimHei-30"/>
       <use xlink:href="#SimHei-33" x="50"/>
       <use xlink:href="#SimHei-2d" x="100"/>
       <use xlink:href="#SimHei-30" x="150"/>
       <use xlink:href="#SimHei-32" x="200"/>
      </g>
     </g>
    </g>
    <g id="xtick_8">
     <g id="line2d_8">
      <path d="M 277.268287 501.03675 
L 277.268287 15.552 
" clip-path="url(#pf395844bef)" style="fill: none; stroke: #cccccc; stroke-linecap: round"/>
     </g>
     <g id="text_8">
      <!-- 03-12 -->
      <g style="fill: #262626" transform="translate(280.980787 543.53675) rotate(-90) scale(0.132 -0.132)">
       <use xlink:href="#SimHei-30"/>
       <use xlink:href="#SimHei-33" x="50"/>
       <use xlink:href="#SimHei-2d" x="100"/>
       <use xlink:href="#SimHei-31" x="150"/>
       <use xlink:href="#SimHei-32" x="200"/>
      </g>
     </g>
    </g>
    <g id="xtick_9">
     <g id="line2d_9">
      <path d="M 300.176029 501.03675 
L 300.176029 15.552 
" clip-path="url(#pf395844bef)" style="fill: none; stroke: #cccccc; stroke-linecap: round"/>
     </g>
     <g id="text_9">
      <!-- 03-22 -->
      <g style="fill: #262626" transform="translate(303.888529 543.53675) rotate(-90) scale(0.132 -0.132)">
       <use xlink:href="#SimHei-30"/>
       <use xlink:href="#SimHei-33" x="50"/>
       <use xlink:href="#SimHei-2d" x="100"/>
       <use xlink:href="#SimHei-32" x="150"/>
       <use xlink:href="#SimHei-32" x="200"/>
      </g>
     </g>
    </g>
    <g id="xtick_10">
     <g id="line2d_10">
      <path d="M 323.083771 501.03675 
L 323.083771 15.552 
" clip-path="url(#pf395844bef)" style="fill: none; stroke: #cccccc; stroke-linecap: round"/>
     </g>
     <g id="text_10">
      <!-- 04-01 -->
      <g style="fill: #262626" transform="translate(326.796271 543.53675) rotate(-90) scale(0.132 -0.132)">
       <defs>
        <path id="SimHei-34" d="M 2000 1100 
L 75 1100 
L 75 1525 
L 2100 4450 
L 2475 4450 
L 2475 1525 
L 3075 1525 
L 3075 1100 
L 2475 1100 
L 2475 150 
L 2000 150 
L 2000 1100 
z
M 2000 1525 
L 2000 3500 
L 600 1525 
L 2000 1525 
z
" transform="scale(0.015625)"/>
       </defs>
       <use xlink:href="#SimHei-30"/>
       <use xlink:href="#SimHei-34" x="50"/>
       <use xlink:href="#SimHei-2d" x="100"/>
       <use xlink:href="#SimHei-30" x="150"/>
       <use xlink:href="#SimHei-31" x="200"/>
      </g>
     </g>
    </g>
    <g id="xtick_11">
     <g id="line2d_11">
      <path d="M 345.991513 501.03675 
L 345.991513 15.552 
" clip-path="url(#pf395844bef)" style="fill: none; stroke: #cccccc; stroke-linecap: round"/>
     </g>
     <g id="text_11">
      <!-- 04-11 -->
      <g style="fill: #262626" transform="translate(349.704013 543.53675) rotate(-90) scale(0.132 -0.132)">
       <use xlink:href="#SimHei-30"/>
       <use xlink:href="#SimHei-34" x="50"/>
       <use xlink:href="#SimHei-2d" x="100"/>
       <use xlink:href="#SimHei-31" x="150"/>
       <use xlink:href="#SimHei-31" x="200"/>
      </g>
     </g>
    </g>
    <g id="xtick_12">
     <g id="line2d_12">
      <path d="M 368.899256 501.03675 
L 368.899256 15.552 
" clip-path="url(#pf395844bef)" style="fill: none; stroke: #cccccc; stroke-linecap: round"/>
     </g>
     <g id="text_12">
      <!-- 04-21 -->
      <g style="fill: #262626" transform="translate(372.611756 543.53675) rotate(-90) scale(0.132 -0.132)">
       <use xlink:href="#SimHei-30"/>
       <use xlink:href="#SimHei-34" x="50"/>
       <use xlink:href="#SimHei-2d" x="100"/>
       <use xlink:href="#SimHei-32" x="150"/>
       <use xlink:href="#SimHei-31" x="200"/>
      </g>
     </g>
    </g>
    <g id="xtick_13">
     <g id="line2d_13">
      <path d="M 391.806998 501.03675 
L 391.806998 15.552 
" clip-path="url(#pf395844bef)" style="fill: none; stroke: #cccccc; stroke-linecap: round"/>
     </g>
     <g id="text_13">
      <!-- 05-01 -->
      <g style="fill: #262626" transform="translate(395.519498 543.53675) rotate(-90) scale(0.132 -0.132)">
       <defs>
        <path id="SimHei-35" d="M 550 1325 
Q 725 650 1150 575 
Q 1575 500 1837 662 
Q 2100 825 2212 1087 
Q 2325 1350 2312 1675 
Q 2300 2000 2137 2225 
Q 1975 2450 1725 2525 
Q 1475 2600 1162 2525 
Q 850 2450 650 2175 
L 225 2225 
Q 275 2375 700 4375 
L 2675 4375 
L 2675 3925 
L 1075 3925 
Q 950 3250 825 2850 
Q 1200 3025 1525 3012 
Q 1850 3000 2150 2862 
Q 2450 2725 2587 2487 
Q 2725 2250 2787 2012 
Q 2850 1775 2837 1500 
Q 2825 1225 2725 937 
Q 2625 650 2425 462 
Q 2225 275 1937 162 
Q 1650 50 1275 75 
Q 900 100 562 350 
Q 225 600 100 1200 
L 550 1325 
z
" transform="scale(0.015625)"/>
       </defs>
       <use xlink:href="#SimHei-30"/>
       <use xlink:href="#SimHei-35" x="50"/>
       <use xlink:href="#SimHei-2d" x="100"/>
       <use xlink:href="#SimHei-30" x="150"/>
       <use xlink:href="#SimHei-31" x="200"/>
      </g>
     </g>
    </g>
    <g id="xtick_14">
     <g id="line2d_14">
      <path d="M 414.71474 501.03675 
L 414.71474 15.552 
" clip-path="url(#pf395844bef)" style="fill: none; stroke: #cccccc; stroke-linecap: round"/>
     </g>
     <g id="text_14">
      <!-- 05-11 -->
      <g style="fill: #262626" transform="translate(418.42724 543.53675) rotate(-90) scale(0.132 -0.132)">
       <use xlink:href="#SimHei-30"/>
       <use xlink:href="#SimHei-35" x="50"/>
       <use xlink:href="#SimHei-2d" x="100"/>
       <use xlink:href="#SimHei-31" x="150"/>
       <use xlink:href="#SimHei-31" x="200"/>
      </g>
     </g>
    </g>
    <g id="xtick_15">
     <g id="line2d_15">
      <path d="M 437.622483 501.03675 
L 437.622483 15.552 
" clip-path="url(#pf395844bef)" style="fill: none; stroke: #cccccc; stroke-linecap: round"/>
     </g>
     <g id="text_15">
      <!-- 05-21 -->
      <g style="fill: #262626" transform="translate(441.334983 543.53675) rotate(-90) scale(0.132 -0.132)">
       <use xlink:href="#SimHei-30"/>
       <use xlink:href="#SimHei-35" x="50"/>
       <use xlink:href="#SimHei-2d" x="100"/>
       <use xlink:href="#SimHei-32" x="150"/>
       <use xlink:href="#SimHei-31" x="200"/>
      </g>
     </g>
    </g>
    <g id="xtick_16">
     <g id="line2d_16">
      <path d="M 460.530225 501.03675 
L 460.530225 15.552 
" clip-path="url(#pf395844bef)" style="fill: none; stroke: #cccccc; stroke-linecap: round"/>
     </g>
     <g id="text_16">
      <!-- 05-31 -->
      <g style="fill: #262626" transform="translate(464.242725 543.53675) rotate(-90) scale(0.132 -0.132)">
       <use xlink:href="#SimHei-30"/>
       <use xlink:href="#SimHei-35" x="50"/>
       <use xlink:href="#SimHei-2d" x="100"/>
       <use xlink:href="#SimHei-33" x="150"/>
       <use xlink:href="#SimHei-31" x="200"/>
      </g>
     </g>
    </g>
    <g id="xtick_17">
     <g id="line2d_17">
      <path d="M 483.437967 501.03675 
L 483.437967 15.552 
" clip-path="url(#pf395844bef)" style="fill: none; stroke: #cccccc; stroke-linecap: round"/>
     </g>
     <g id="text_17">
      <!-- 06-10 -->
      <g style="fill: #262626" transform="translate(487.150467 543.53675) rotate(-90) scale(0.132 -0.132)">
       <defs>
        <path id="SimHei-36" d="M 250 1612 
Q 275 1975 387 2225 
Q 500 2475 725 2850 
L 1750 4450 
L 2325 4450 
L 1275 2800 
Q 1950 2975 2350 2750 
Q 2750 2525 2887 2237 
Q 3025 1950 3037 1612 
Q 3050 1275 2937 950 
Q 2825 625 2537 362 
Q 2250 100 1737 75 
Q 1225 50 862 262 
Q 500 475 362 862 
Q 225 1250 250 1612 
z
M 1025 787 
Q 1250 550 1625 525 
Q 2000 500 2250 775 
Q 2500 1050 2500 1575 
Q 2500 2100 2187 2300 
Q 1875 2500 1487 2450 
Q 1100 2400 925 2075 
Q 750 1750 775 1387 
Q 800 1025 1025 787 
z
" transform="scale(0.015625)"/>
       </defs>
       <use xlink:href="#SimHei-30"/>
       <use xlink:href="#SimHei-36" x="50"/>
       <use xlink:href="#SimHei-2d" x="100"/>
       <use xlink:href="#SimHei-31" x="150"/>
       <use xlink:href="#SimHei-30" x="200"/>
      </g>
     </g>
    </g>
    <g id="xtick_18">
     <g id="line2d_18">
      <path d="M 506.345709 501.03675 
L 506.345709 15.552 
" clip-path="url(#pf395844bef)" style="fill: none; stroke: #cccccc; stroke-linecap: round"/>
     </g>
     <g id="text_18">
      <!-- 06-20 -->
      <g style="fill: #262626" transform="translate(510.058209 543.53675) rotate(-90) scale(0.132 -0.132)">
       <use xlink:href="#SimHei-30"/>
       <use xlink:href="#SimHei-36" x="50"/>
       <use xlink:href="#SimHei-2d" x="100"/>
       <use xlink:href="#SimHei-32" x="150"/>
       <use xlink:href="#SimHei-30" x="200"/>
      </g>
     </g>
    </g>
    <g id="xtick_19">
     <g id="line2d_19">
      <path d="M 529.253452 501.03675 
L 529.253452 15.552 
" clip-path="url(#pf395844bef)" style="fill: none; stroke: #cccccc; stroke-linecap: round"/>
     </g>
     <g id="text_19">
      <!-- 06-30 -->
      <g style="fill: #262626" transform="translate(532.965952 543.53675) rotate(-90) scale(0.132 -0.132)">
       <use xlink:href="#SimHei-30"/>
       <use xlink:href="#SimHei-36" x="50"/>
       <use xlink:href="#SimHei-2d" x="100"/>
       <use xlink:href="#SimHei-33" x="150"/>
       <use xlink:href="#SimHei-30" x="200"/>
      </g>
     </g>
    </g>
    <g id="xtick_20">
     <g id="line2d_20">
      <path d="M 552.161194 501.03675 
L 552.161194 15.552 
" clip-path="url(#pf395844bef)" style="fill: none; stroke: #cccccc; stroke-linecap: round"/>
     </g>
     <g id="text_20">
      <!-- 07-10 -->
      <g style="fill: #262626" transform="translate(555.873694 543.53675) rotate(-90) scale(0.132 -0.132)">
       <defs>
        <path id="SimHei-37" d="M 850 150 
Q 1300 2050 2425 3925 
L 275 3925 
L 275 4375 
L 2950 4375 
L 2950 3950 
Q 1775 2050 1400 150 
L 850 150 
z
" transform="scale(0.015625)"/>
       </defs>
       <use xlink:href="#SimHei-30"/>
       <use xlink:href="#SimHei-37" x="50"/>
       <use xlink:href="#SimHei-2d" x="100"/>
       <use xlink:href="#SimHei-31" x="150"/>
       <use xlink:href="#SimHei-30" x="200"/>
      </g>
     </g>
    </g>
    <g id="xtick_21">
     <g id="line2d_21">
      <path d="M 575.068936 501.03675 
L 575.068936 15.552 
" clip-path="url(#pf395844bef)" style="fill: none; stroke: #cccccc; stroke-linecap: round"/>
     </g>
     <g id="text_21">
      <!-- 07-20 -->
      <g style="fill: #262626" transform="translate(578.781436 543.53675) rotate(-90) scale(0.132 -0.132)">
       <use xlink:href="#SimHei-30"/>
       <use xlink:href="#SimHei-37" x="50"/>
       <use xlink:href="#SimHei-2d" x="100"/>
       <use xlink:href="#SimHei-32" x="150"/>
       <use xlink:href="#SimHei-30" x="200"/>
      </g>
     </g>
    </g>
    <g id="xtick_22">
     <g id="line2d_22">
      <path d="M 597.976678 501.03675 
L 597.976678 15.552 
" clip-path="url(#pf395844bef)" style="fill: none; stroke: #cccccc; stroke-linecap: round"/>
     </g>
     <g id="text_22">
      <!-- 07-30 -->
      <g style="fill: #262626" transform="translate(601.689178 543.53675) rotate(-90) scale(0.132 -0.132)">
       <use xlink:href="#SimHei-30"/>
       <use xlink:href="#SimHei-37" x="50"/>
       <use xlink:href="#SimHei-2d" x="100"/>
       <use xlink:href="#SimHei-33" x="150"/>
       <use xlink:href="#SimHei-30" x="200"/>
      </g>
     </g>
    </g>
    <g id="xtick_23">
     <g id="line2d_23">
      <path d="M 620.884421 501.03675 
L 620.884421 15.552 
" clip-path="url(#pf395844bef)" style="fill: none; stroke: #cccccc; stroke-linecap: round"/>
     </g>
     <g id="text_23">
      <!-- 08-09 -->
      <g style="fill: #262626" transform="translate(624.596921 543.53675) rotate(-90) scale(0.132 -0.132)">
       <defs>
        <path id="SimHei-38" d="M 175 1375 
Q 175 1675 325 1962 
Q 475 2250 825 2425 
Q 525 2600 425 2812 
Q 325 3025 312 3300 
Q 300 3575 387 3775 
Q 475 3975 650 4150 
Q 825 4325 1037 4387 
Q 1250 4450 1500 4450 
Q 1750 4450 1950 4400 
Q 2150 4350 2375 4187 
Q 2600 4025 2700 3725 
Q 2800 3425 2687 3025 
Q 2575 2625 2100 2400 
Q 2525 2275 2700 2012 
Q 2875 1750 2875 1375 
Q 2875 1000 2762 775 
Q 2650 550 2512 400 
Q 2375 250 2137 162 
Q 1900 75 1537 75 
Q 1175 75 912 162 
Q 650 250 475 425 
Q 300 600 237 837 
Q 175 1075 175 1375 
z
M 687 1400 
Q 675 1100 787 875 
Q 900 650 1200 587 
Q 1500 525 1825 600 
Q 2150 675 2275 950 
Q 2400 1225 2362 1500 
Q 2325 1775 2050 1962 
Q 1775 2150 1450 2125 
Q 1125 2100 912 1900 
Q 700 1700 687 1400 
z
M 775 3350 
Q 775 3100 950 2875 
Q 1125 2650 1500 2650 
Q 1875 2650 2062 2875 
Q 2250 3100 2237 3412 
Q 2225 3725 2012 3875 
Q 1800 4025 1437 4000 
Q 1075 3975 925 3787 
Q 775 3600 775 3350 
z
" transform="scale(0.015625)"/>
        <path id="SimHei-39" d="M 800 75 
Q 1350 1000 1700 1750 
Q 1075 1650 662 1912 
Q 250 2175 162 2625 
Q 75 3075 175 3437 
Q 275 3800 487 4037 
Q 700 4275 1000 4375 
Q 1300 4475 1537 4475 
Q 1775 4475 2025 4375 
Q 2275 4275 2475 4075 
Q 2675 3875 2750 3662 
Q 2825 3450 2825 3112 
Q 2825 2775 2575 2250 
Q 2325 1725 1350 75 
L 800 75 
z
M 662 2875 
Q 700 2550 937 2337 
Q 1175 2125 1450 2150 
Q 1725 2175 1887 2300 
Q 2050 2425 2200 2725 
Q 2300 3100 2250 3362 
Q 2200 3625 1987 3800 
Q 1775 3975 1525 3975 
Q 1375 4000 1137 3900 
Q 900 3800 762 3500 
Q 625 3200 662 2875 
z
" transform="scale(0.015625)"/>
       </defs>
       <use xlink:href="#SimHei-30"/>
       <use xlink:href="#SimHei-38" x="50"/>
       <use xlink:href="#SimHei-2d" x="100"/>
       <use xlink:href="#SimHei-30" x="150"/>
       <use xlink:href="#SimHei-39" x="200"/>
      </g>
     </g>
    </g>
    <g id="xtick_24">
     <g id="line2d_24">
      <path d="M 643.792163 501.03675 
L 643.792163 15.552 
" clip-path="url(#pf395844bef)" style="fill: none; stroke: #cccccc; stroke-linecap: round"/>
     </g>
     <g id="text_24">
      <!-- 08-19 -->
      <g style="fill: #262626" transform="translate(647.504663 543.53675) rotate(-90) scale(0.132 -0.132)">
       <use xlink:href="#SimHei-30"/>
       <use xlink:href="#SimHei-38" x="50"/>
       <use xlink:href="#SimHei-2d" x="100"/>
       <use xlink:href="#SimHei-31" x="150"/>
       <use xlink:href="#SimHei-39" x="200"/>
      </g>
     </g>
    </g>
    <g id="xtick_25">
     <g id="line2d_25">
      <path d="M 666.699905 501.03675 
L 666.699905 15.552 
" clip-path="url(#pf395844bef)" style="fill: none; stroke: #cccccc; stroke-linecap: round"/>
     </g>
     <g id="text_25">
      <!-- 08-29 -->
      <g style="fill: #262626" transform="translate(670.412405 543.53675) rotate(-90) scale(0.132 -0.132)">
       <use xlink:href="#SimHei-30"/>
       <use xlink:href="#SimHei-38" x="50"/>
       <use xlink:href="#SimHei-2d" x="100"/>
       <use xlink:href="#SimHei-32" x="150"/>
       <use xlink:href="#SimHei-39" x="200"/>
      </g>
     </g>
    </g>
    <g id="xtick_26">
     <g id="line2d_26">
      <path d="M 689.607647 501.03675 
L 689.607647 15.552 
" clip-path="url(#pf395844bef)" style="fill: none; stroke: #cccccc; stroke-linecap: round"/>
     </g>
     <g id="text_26">
      <!-- 09-08 -->
      <g style="fill: #262626" transform="translate(693.320147 543.53675) rotate(-90) scale(0.132 -0.132)">
       <use xlink:href="#SimHei-30"/>
       <use xlink:href="#SimHei-39" x="50"/>
       <use xlink:href="#SimHei-2d" x="100"/>
       <use xlink:href="#SimHei-30" x="150"/>
       <use xlink:href="#SimHei-38" x="200"/>
      </g>
     </g>
    </g>
    <g id="xtick_27">
     <g id="line2d_27">
      <path d="M 712.51539 501.03675 
L 712.51539 15.552 
" clip-path="url(#pf395844bef)" style="fill: none; stroke: #cccccc; stroke-linecap: round"/>
     </g>
     <g id="text_27">
      <!-- 09-18 -->
      <g style="fill: #262626" transform="translate(716.22789 543.53675) rotate(-90) scale(0.132 -0.132)">
       <use xlink:href="#SimHei-30"/>
       <use xlink:href="#SimHei-39" x="50"/>
       <use xlink:href="#SimHei-2d" x="100"/>
       <use xlink:href="#SimHei-31" x="150"/>
       <use xlink:href="#SimHei-38" x="200"/>
      </g>
     </g>
    </g>
    <g id="xtick_28">
     <g id="line2d_28">
      <path d="M 735.423132 501.03675 
L 735.423132 15.552 
" clip-path="url(#pf395844bef)" style="fill: none; stroke: #cccccc; stroke-linecap: round"/>
     </g>
     <g id="text_28">
      <!-- 09-28 -->
      <g style="fill: #262626" transform="translate(739.135632 543.53675) rotate(-90) scale(0.132 -0.132)">
       <use xlink:href="#SimHei-30"/>
       <use xlink:href="#SimHei-39" x="50"/>
       <use xlink:href="#SimHei-2d" x="100"/>
       <use xlink:href="#SimHei-32" x="150"/>
       <use xlink:href="#SimHei-38" x="200"/>
      </g>
     </g>
    </g>
    <g id="xtick_29">
     <g id="line2d_29">
      <path d="M 758.330874 501.03675 
L 758.330874 15.552 
" clip-path="url(#pf395844bef)" style="fill: none; stroke: #cccccc; stroke-linecap: round"/>
     </g>
     <g id="text_29">
      <!-- 10-08 -->
      <g style="fill: #262626" transform="translate(762.043374 543.53675) rotate(-90) scale(0.132 -0.132)">
       <use xlink:href="#SimHei-31"/>
       <use xlink:href="#SimHei-30" x="50"/>
       <use xlink:href="#SimHei-2d" x="100"/>
       <use xlink:href="#SimHei-30" x="150"/>
       <use xlink:href="#SimHei-38" x="200"/>
      </g>
     </g>
    </g>
    <g id="xtick_30">
     <g id="line2d_30">
      <path d="M 781.238616 501.03675 
L 781.238616 15.552 
" clip-path="url(#pf395844bef)" style="fill: none; stroke: #cccccc; stroke-linecap: round"/>
     </g>
     <g id="text_30">
      <!-- 10-18 -->
      <g style="fill: #262626" transform="translate(784.951116 543.53675) rotate(-90) scale(0.132 -0.132)">
       <use xlink:href="#SimHei-31"/>
       <use xlink:href="#SimHei-30" x="50"/>
       <use xlink:href="#SimHei-2d" x="100"/>
       <use xlink:href="#SimHei-31" x="150"/>
       <use xlink:href="#SimHei-38" x="200"/>
      </g>
     </g>
    </g>
    <g id="xtick_31">
     <g id="line2d_31">
      <path d="M 804.146359 501.03675 
L 804.146359 15.552 
" clip-path="url(#pf395844bef)" style="fill: none; stroke: #cccccc; stroke-linecap: round"/>
     </g>
     <g id="text_31">
      <!-- 10-28 -->
      <g style="fill: #262626" transform="translate(807.858859 543.53675) rotate(-90) scale(0.132 -0.132)">
       <use xlink:href="#SimHei-31"/>
       <use xlink:href="#SimHei-30" x="50"/>
       <use xlink:href="#SimHei-2d" x="100"/>
       <use xlink:href="#SimHei-32" x="150"/>
       <use xlink:href="#SimHei-38" x="200"/>
      </g>
     </g>
    </g>
    <g id="xtick_32">
     <g id="line2d_32">
      <path d="M 827.054101 501.03675 
L 827.054101 15.552 
" clip-path="url(#pf395844bef)" style="fill: none; stroke: #cccccc; stroke-linecap: round"/>
     </g>
     <g id="text_32">
      <!-- 11-07 -->
      <g style="fill: #262626" transform="translate(830.766601 543.53675) rotate(-90) scale(0.132 -0.132)">
       <use xlink:href="#SimHei-31"/>
       <use xlink:href="#SimHei-31" x="50"/>
       <use xlink:href="#SimHei-2d" x="100"/>
       <use xlink:href="#SimHei-30" x="150"/>
       <use xlink:href="#SimHei-37" x="200"/>
      </g>
     </g>
    </g>
    <g id="xtick_33">
     <g id="line2d_33">
      <path d="M 849.961843 501.03675 
L 849.961843 15.552 
" clip-path="url(#pf395844bef)" style="fill: none; stroke: #cccccc; stroke-linecap: round"/>
     </g>
     <g id="text_33">
      <!-- 11-17 -->
      <g style="fill: #262626" transform="translate(853.674343 543.53675) rotate(-90) scale(0.132 -0.132)">
       <use xlink:href="#SimHei-31"/>
       <use xlink:href="#SimHei-31" x="50"/>
       <use xlink:href="#SimHei-2d" x="100"/>
       <use xlink:href="#SimHei-31" x="150"/>
       <use xlink:href="#SimHei-37" x="200"/>
      </g>
     </g>
    </g>
    <g id="xtick_34">
     <g id="line2d_34">
      <path d="M 872.869585 501.03675 
L 872.869585 15.552 
" clip-path="url(#pf395844bef)" style="fill: none; stroke: #cccccc; stroke-linecap: round"/>
     </g>
     <g id="text_34">
      <!-- 11-27 -->
      <g style="fill: #262626" transform="translate(876.582085 543.53675) rotate(-90) scale(0.132 -0.132)">
       <use xlink:href="#SimHei-31"/>
       <use xlink:href="#SimHei-31" x="50"/>
       <use xlink:href="#SimHei-2d" x="100"/>
       <use xlink:href="#SimHei-32" x="150"/>
       <use xlink:href="#SimHei-37" x="200"/>
      </g>
     </g>
    </g>
    <g id="xtick_35">
     <g id="line2d_35">
      <path d="M 895.777328 501.03675 
L 895.777328 15.552 
" clip-path="url(#pf395844bef)" style="fill: none; stroke: #cccccc; stroke-linecap: round"/>
     </g>
     <g id="text_35">
      <!-- 12-07 -->
      <g style="fill: #262626" transform="translate(899.489828 543.53675) rotate(-90) scale(0.132 -0.132)">
       <use xlink:href="#SimHei-31"/>
       <use xlink:href="#SimHei-32" x="50"/>
       <use xlink:href="#SimHei-2d" x="100"/>
       <use xlink:href="#SimHei-30" x="150"/>
       <use xlink:href="#SimHei-37" x="200"/>
      </g>
     </g>
    </g>
    <g id="xtick_36">
     <g id="line2d_36">
      <path d="M 918.68507 501.03675 
L 918.68507 15.552 
" clip-path="url(#pf395844bef)" style="fill: none; stroke: #cccccc; stroke-linecap: round"/>
     </g>
     <g id="text_36">
      <!-- 12-17 -->
      <g style="fill: #262626" transform="translate(922.39757 543.53675) rotate(-90) scale(0.132 -0.132)">
       <use xlink:href="#SimHei-31"/>
       <use xlink:href="#SimHei-32" x="50"/>
       <use xlink:href="#SimHei-2d" x="100"/>
       <use xlink:href="#SimHei-31" x="150"/>
       <use xlink:href="#SimHei-37" x="200"/>
      </g>
     </g>
    </g>
    <g id="xtick_37">
     <g id="line2d_37">
      <path d="M 941.592812 501.03675 
L 941.592812 15.552 
" clip-path="url(#pf395844bef)" style="fill: none; stroke: #cccccc; stroke-linecap: round"/>
     </g>
     <g id="text_37">
      <!-- 12-27 -->
      <g style="fill: #262626" transform="translate(945.305312 543.53675) rotate(-90) scale(0.132 -0.132)">
       <use xlink:href="#SimHei-31"/>
       <use xlink:href="#SimHei-32" x="50"/>
       <use xlink:href="#SimHei-2d" x="100"/>
       <use xlink:href="#SimHei-32" x="150"/>
       <use xlink:href="#SimHei-37" x="200"/>
      </g>
     </g>
    </g>
    <g id="text_38">
     <!-- 月日 -->
     <g style="fill: #262626" transform="translate(519.435 558.2805) scale(0.144 -0.144)">
      <defs>
       <path id="SimHei-6708" d="M 5250 4825 
Q 5200 4225 5200 3750 
L 5200 200 
Q 5200 -275 4950 -375 
Q 4700 -475 3975 -525 
Q 3925 -225 3750 50 
Q 4300 25 4512 50 
Q 4725 75 4725 400 
L 4725 1600 
L 1850 1600 
Q 1725 775 1450 225 
Q 1175 -325 900 -575 
Q 700 -400 400 -325 
Q 800 25 1037 512 
Q 1275 1000 1337 1475 
Q 1400 1950 1400 2525 
L 1400 3625 
Q 1400 4175 1375 4825 
L 5250 4825 
z
M 4725 3400 
L 4725 4450 
L 1875 4450 
L 1875 3400 
L 4725 3400 
z
M 4725 2000 
L 4725 3025 
L 1875 3025 
L 1875 2000 
L 4725 2000 
z
" transform="scale(0.015625)"/>
       <path id="SimHei-65e5" d="M 5375 5000 
Q 5350 3775 5350 2275 
Q 5350 775 5375 -450 
L 4800 -450 
L 4800 175 
L 1800 175 
L 1800 -575 
L 1250 -575 
Q 1275 575 1275 2125 
Q 1275 3675 1250 5000 
L 5375 5000 
z
M 4800 600 
L 4800 2375 
L 1800 2375 
L 1800 600 
L 4800 600 
z
M 4800 2800 
L 4800 4550 
L 1800 4550 
L 1800 2800 
L 4800 2800 
z
" transform="scale(0.015625)"/>
      </defs>
      <use xlink:href="#SimHei-6708"/>
      <use xlink:href="#SimHei-65e5" x="100"/>
     </g>
    </g>
   </g>
   <g id="matplotlib.axis_2">
    <g id="ytick_1">
     <g id="line2d_38">
      <path d="M 75.222 496.735917 
L 992.448 496.735917 
" clip-path="url(#pf395844bef)" style="fill: none; stroke: #cccccc; stroke-linecap: round"/>
     </g>
     <g id="text_39">
      <!-- 0 -->
      <g style="fill: #262626" transform="translate(59.122 501.273417) scale(0.132 -0.132)">
       <use xlink:href="#SimHei-30"/>
      </g>
     </g>
    </g>
    <g id="ytick_2">
     <g id="line2d_39">
      <path d="M 75.222 439.285805 
L 992.448 439.285805 
" clip-path="url(#pf395844bef)" style="fill: none; stroke: #cccccc; stroke-linecap: round"/>
     </g>
     <g id="text_40">
      <!-- 2500 -->
      <g style="fill: #262626" transform="translate(39.322 443.823305) scale(0.132 -0.132)">
       <use xlink:href="#SimHei-32"/>
       <use xlink:href="#SimHei-35" x="50"/>
       <use xlink:href="#SimHei-30" x="100"/>
       <use xlink:href="#SimHei-30" x="150"/>
      </g>
     </g>
    </g>
    <g id="ytick_3">
     <g id="line2d_40">
      <path d="M 75.222 381.835694 
L 992.448 381.835694 
" clip-path="url(#pf395844bef)" style="fill: none; stroke: #cccccc; stroke-linecap: round"/>
     </g>
     <g id="text_41">
      <!-- 5000 -->
      <g style="fill: #262626" transform="translate(39.322 386.373194) scale(0.132 -0.132)">
       <use xlink:href="#SimHei-35"/>
       <use xlink:href="#SimHei-30" x="50"/>
       <use xlink:href="#SimHei-30" x="100"/>
       <use xlink:href="#SimHei-30" x="150"/>
      </g>
     </g>
    </g>
    <g id="ytick_4">
     <g id="line2d_41">
      <path d="M 75.222 324.385582 
L 992.448 324.385582 
" clip-path="url(#pf395844bef)" style="fill: none; stroke: #cccccc; stroke-linecap: round"/>
     </g>
     <g id="text_42">
      <!-- 7500 -->
      <g style="fill: #262626" transform="translate(39.322 328.923082) scale(0.132 -0.132)">
       <use xlink:href="#SimHei-37"/>
       <use xlink:href="#SimHei-35" x="50"/>
       <use xlink:href="#SimHei-30" x="100"/>
       <use xlink:href="#SimHei-30" x="150"/>
      </g>
     </g>
    </g>
    <g id="ytick_5">
     <g id="line2d_42">
      <path d="M 75.222 266.93547 
L 992.448 266.93547 
" clip-path="url(#pf395844bef)" style="fill: none; stroke: #cccccc; stroke-linecap: round"/>
     </g>
     <g id="text_43">
      <!-- 10000 -->
      <g style="fill: #262626" transform="translate(32.722 271.47297) scale(0.132 -0.132)">
       <use xlink:href="#SimHei-31"/>
       <use xlink:href="#SimHei-30" x="50"/>
       <use xlink:href="#SimHei-30" x="100"/>
       <use xlink:href="#SimHei-30" x="150"/>
       <use xlink:href="#SimHei-30" x="200"/>
      </g>
     </g>
    </g>
    <g id="ytick_6">
     <g id="line2d_43">
      <path d="M 75.222 209.485358 
L 992.448 209.485358 
" clip-path="url(#pf395844bef)" style="fill: none; stroke: #cccccc; stroke-linecap: round"/>
     </g>
     <g id="text_44">
      <!-- 12500 -->
      <g style="fill: #262626" transform="translate(32.722 214.022858) scale(0.132 -0.132)">
       <use xlink:href="#SimHei-31"/>
       <use xlink:href="#SimHei-32" x="50"/>
       <use xlink:href="#SimHei-35" x="100"/>
       <use xlink:href="#SimHei-30" x="150"/>
       <use xlink:href="#SimHei-30" x="200"/>
      </g>
     </g>
    </g>
    <g id="ytick_7">
     <g id="line2d_44">
      <path d="M 75.222 152.035247 
L 992.448 152.035247 
" clip-path="url(#pf395844bef)" style="fill: none; stroke: #cccccc; stroke-linecap: round"/>
     </g>
     <g id="text_45">
      <!-- 15000 -->
      <g style="fill: #262626" transform="translate(32.722 156.572747) scale(0.132 -0.132)">
       <use xlink:href="#SimHei-31"/>
       <use xlink:href="#SimHei-35" x="50"/>
       <use xlink:href="#SimHei-30" x="100"/>
       <use xlink:href="#SimHei-30" x="150"/>
       <use xlink:href="#SimHei-30" x="200"/>
      </g>
     </g>
    </g>
    <g id="ytick_8">
     <g id="line2d_45">
      <path d="M 75.222 94.585135 
L 992.448 94.585135 
" clip-path="url(#pf395844bef)" style="fill: none; stroke: #cccccc; stroke-linecap: round"/>
     </g>
     <g id="text_46">
      <!-- 17500 -->
      <g style="fill: #262626" transform="translate(32.722 99.122635) scale(0.132 -0.132)">
       <use xlink:href="#SimHei-31"/>
       <use xlink:href="#SimHei-37" x="50"/>
       <use xlink:href="#SimHei-35" x="100"/>
       <use xlink:href="#SimHei-30" x="150"/>
       <use xlink:href="#SimHei-30" x="200"/>
      </g>
     </g>
    </g>
    <g id="ytick_9">
     <g id="line2d_46">
      <path d="M 75.222 37.135023 
L 992.448 37.135023 
" clip-path="url(#pf395844bef)" style="fill: none; stroke: #cccccc; stroke-linecap: round"/>
     </g>
     <g id="text_47">
      <!-- 20000 -->
      <g style="fill: #262626" transform="translate(32.722 41.672523) scale(0.132 -0.132)">
       <use xlink:href="#SimHei-32"/>
       <use xlink:href="#SimHei-30" x="50"/>
       <use xlink:href="#SimHei-30" x="100"/>
       <use xlink:href="#SimHei-30" x="150"/>
       <use xlink:href="#SimHei-30" x="200"/>
      </g>
     </g>
    </g>
    <g id="text_48">
     <!-- 货量 -->
     <g style="fill: #262626" transform="translate(26.922 272.694375) rotate(-90) scale(0.144 -0.144)">
      <defs>
       <path id="SimHei-8d27" d="M 3975 5075 
Q 3950 4750 3950 4100 
Q 4075 4175 4525 4375 
Q 4975 4575 5375 4900 
Q 5550 4625 5700 4400 
Q 5425 4325 4987 4112 
Q 4550 3900 3950 3650 
L 3950 3225 
Q 3950 3025 4300 3025 
L 5125 3025 
Q 5425 3025 5487 3150 
Q 5550 3275 5575 3625 
Q 5850 3450 6125 3375 
Q 5975 2875 5825 2750 
Q 5675 2625 5475 2625 
L 4000 2625 
Q 3425 2625 3425 3125 
L 3425 3525 
Q 2900 3325 2575 3225 
Q 2425 3500 2350 3650 
Q 2750 3750 3425 3925 
Q 3425 4750 3400 5075 
L 3975 5075 
z
M 5200 2200 
Q 5175 1825 5175 1425 
Q 5175 1050 5200 600 
L 4625 600 
L 4625 1775 
L 1950 1775 
L 1950 625 
L 1400 625 
Q 1425 1025 1425 1400 
Q 1425 1800 1400 2200 
L 5200 2200 
z
M 2625 4850 
Q 2425 4700 2050 4300 
Q 2050 2900 2075 2450 
L 1500 2450 
Q 1525 2900 1525 3825 
Q 1300 3625 1100 3425 
Q 900 3225 700 3050 
Q 475 3250 325 3400 
Q 850 3725 1325 4237 
Q 1800 4750 2050 5175 
Q 2325 4925 2625 4850 
z
M 3550 1325 
Q 3425 975 3312 687 
Q 3200 400 2925 137 
Q 2650 -125 2150 -325 
Q 1650 -525 800 -675 
Q 725 -400 475 -100 
Q 1200 -75 1675 25 
Q 2150 125 2412 325 
Q 2675 525 2787 775 
Q 2900 1025 2975 1400 
Q 3250 1350 3550 1325 
z
M 5575 -675 
Q 5125 -400 4650 -187 
Q 4175 25 3575 250 
Q 3725 500 3825 725 
Q 4350 500 4800 300 
Q 5250 100 5875 -175 
Q 5700 -400 5575 -675 
z
" transform="scale(0.015625)"/>
       <path id="SimHei-91cf" d="M 5250 2500 
Q 5225 2200 5225 1700 
Q 5225 1225 5250 950 
L 3425 950 
L 3425 625 
L 4575 625 
Q 5000 625 5375 650 
L 5375 275 
Q 5025 300 4575 300 
L 3425 300 
L 3425 -75 
L 5125 -75 
Q 5525 -75 5925 -50 
L 5925 -425 
Q 5525 -400 5125 -400 
L 1275 -400 
Q 900 -400 475 -425 
L 475 -50 
Q 925 -50 1275 -75 
L 2975 -75 
L 2975 300 
L 1725 300 
Q 1350 300 975 250 
L 975 650 
Q 1375 625 1725 625 
L 2975 625 
L 2975 950 
L 1150 950 
Q 1175 1375 1175 1775 
Q 1175 2175 1150 2500 
L 5250 2500 
z
M 5200 4950 
Q 5175 4575 5175 4250 
Q 5175 3925 5200 3400 
L 1200 3400 
Q 1225 3925 1225 4250 
Q 1225 4575 1200 4950 
L 5200 4950 
z
M 4900 3100 
Q 5500 3125 6000 3150 
L 6000 2750 
Q 5500 2775 4925 2775 
L 1650 2775 
Q 975 2775 325 2750 
L 325 3150 
Q 975 3125 1650 3100 
L 4900 3100 
z
M 4725 3700 
L 4725 4025 
L 1675 4025 
L 1675 3700 
L 4725 3700 
z
M 4725 4350 
L 4725 4650 
L 1675 4650 
L 1675 4350 
L 4725 4350 
z
M 4750 1875 
L 4750 2175 
L 3425 2175 
L 3425 1875 
L 4750 1875 
z
M 2975 1875 
L 2975 2175 
L 1650 2175 
L 1650 1875 
L 2975 1875 
z
M 2975 1275 
L 2975 1550 
L 1650 1550 
L 1650 1275 
L 2975 1275 
z
M 4750 1275 
L 4750 1550 
L 3425 1550 
L 3425 1275 
L 4750 1275 
z
" transform="scale(0.015625)"/>
      </defs>
      <use xlink:href="#SimHei-8d27"/>
      <use xlink:href="#SimHei-91cf" x="100"/>
     </g>
    </g>
   </g>
   <g id="PolyCollection_1">
    <defs>
     <path id="mcc1de52c34" d="M 116.914091 -259.176664 
L 116.914091 -173.39843 
L 119.204865 -168.513337 
L 121.495639 -143.526716 
L 123.786414 -145.769697 
L 126.077188 -146.919501 
L 128.367962 -158.322606 
L 130.658736 -146.412386 
L 132.94951 -164.745511 
L 135.240285 -152.008267 
L 137.531059 -151.793142 
L 139.821833 -146.505493 
L 142.112607 -155.415754 
L 144.403382 -140.993203 
L 146.694156 -149.994898 
L 148.98493 -154.059519 
L 151.275704 -157.323096 
L 153.566479 -145.427714 
L 155.857253 -156.000279 
L 158.148027 -140.038083 
L 160.438801 -167.598489 
L 162.729575 -156.783953 
L 165.02035 -163.014093 
L 167.311124 -161.85148 
L 169.601898 -167.288559 
L 171.892672 -161.190893 
L 174.183447 -152.997038 
L 176.474221 -151.999534 
L 178.764995 -153.791949 
L 181.055769 -159.600493 
L 183.346543 -157.914976 
L 185.637318 -158.993991 
L 187.928092 -161.764808 
L 190.218866 -165.368142 
L 192.50964 -162.166571 
L 194.800415 -157.652192 
L 197.091189 -168.297336 
L 199.381963 -167.918121 
L 201.672737 -173.08681 
L 203.963511 -164.927925 
L 206.254286 -162.22771 
L 208.54506 -152.782501 
L 210.835834 -97.030739 
L 213.126608 -130.417023 
L 215.417383 -132.46299 
L 217.708157 -141.118916 
L 219.998931 -153.974574 
L 222.289705 -150.267228 
L 224.58048 -139.918095 
L 226.871254 -151.702642 
L 229.162028 -150.78522 
L 231.452802 -150.04478 
L 233.743576 -148.409212 
L 236.034351 -146.938255 
L 238.325125 -149.093608 
L 240.615899 -147.635497 
L 242.906673 -146.879609 
L 245.197448 -139.214669 
L 247.488222 -154.635341 
L 249.778996 -149.890002 
L 252.06977 -151.760239 
L 254.360544 -152.792995 
L 256.651319 -153.507834 
L 258.942093 -147.570878 
L 261.232867 -158.202724 
L 263.523641 -146.197889 
L 265.814416 -147.368605 
L 268.10519 -164.786443 
L 270.395964 -147.633279 
L 272.686738 -143.103439 
L 274.977512 -142.308095 
L 277.268287 -148.937816 
L 279.559061 -146.426647 
L 281.849835 -145.568229 
L 284.140609 -143.968455 
L 286.431384 -147.776548 
L 288.722158 -149.189092 
L 291.012932 -152.123775 
L 293.303706 -149.848653 
L 295.594481 -158.949765 
L 297.885255 -141.828098 
L 300.176029 -145.094848 
L 302.466803 -151.44791 
L 304.757577 -147.69562 
L 307.048352 -154.760681 
L 309.339126 -145.458963 
L 311.6299 -142.62326 
L 313.920674 -154.476463 
L 316.211449 -147.863355 
L 318.502223 -146.959094 
L 320.792997 -144.960957 
L 323.083771 -143.14503 
L 325.374545 -146.696129 
L 327.66532 -138.731325 
L 329.956094 -140.885478 
L 332.246868 -150.145843 
L 334.537642 -151.816733 
L 336.828417 -154.467172 
L 339.119191 -151.811522 
L 341.409965 -150.39389 
L 343.700739 -145.812156 
L 345.991513 -139.545354 
L 348.282288 -148.490979 
L 350.573062 -149.84555 
L 352.863836 -147.945343 
L 355.15461 -142.043894 
L 357.445385 -147.676253 
L 359.736159 -149.676329 
L 362.026933 -144.250553 
L 364.317707 -147.819113 
L 366.608482 -158.607982 
L 368.899256 -149.967465 
L 371.19003 -150.793642 
L 373.480804 -148.457739 
L 375.771578 -149.654828 
L 378.062353 -166.330618 
L 380.353127 -151.17991 
L 382.643901 -153.063121 
L 384.934675 -149.238129 
L 387.22545 -146.629365 
L 389.516224 -136.347789 
L 391.806998 -144.965615 
L 394.097772 -135.764376 
L 396.388546 -134.90124 
L 398.679321 -142.160787 
L 400.970095 -141.632531 
L 403.260869 -159.411546 
L 405.551643 -159.263835 
L 407.842418 -155.856565 
L 410.133192 -154.175754 
L 412.423966 -167.616356 
L 414.71474 -158.409671 
L 417.005514 -148.669888 
L 419.296289 -154.374317 
L 421.587063 -154.669938 
L 423.877837 -156.96802 
L 426.168611 -148.886183 
L 428.459386 -161.1985 
L 430.75016 -161.756394 
L 433.040934 -157.742369 
L 435.331708 -151.812734 
L 437.622483 -153.251659 
L 439.913257 -149.441899 
L 442.204031 -153.226784 
L 444.494805 -168.969863 
L 446.785579 -164.843881 
L 449.076354 -156.66059 
L 451.367128 -149.758789 
L 453.657902 -149.928199 
L 455.948676 -152.49635 
L 458.239451 -141.19511 
L 460.530225 -152.540784 
L 462.820999 -267.153561 
L 465.111773 -201.00886 
L 467.402547 -186.333517 
L 469.693322 -166.128584 
L 471.984096 -168.064276 
L 474.27487 -169.392453 
L 476.565644 -172.187913 
L 478.856419 -180.762482 
L 481.147193 -162.443669 
L 483.437967 -159.654847 
L 485.728741 -156.85446 
L 488.019515 -155.210113 
L 490.31029 -160.284404 
L 492.601064 -152.404469 
L 494.891838 -158.479662 
L 497.182612 -204.605853 
L 499.473387 -180.624155 
L 501.764161 -319.392729 
L 504.054935 -215.588512 
L 506.345709 -168.894117 
L 508.636484 -158.965566 
L 510.927258 -151.810812 
L 513.218032 -143.403482 
L 515.508806 -149.992135 
L 517.79958 -145.131894 
L 520.090355 -141.722189 
L 522.381129 -144.800523 
L 524.671903 -150.295678 
L 526.962677 -147.615479 
L 529.253452 -156.162619 
L 531.544226 -148.428029 
L 533.835 -157.145322 
L 536.125774 -148.442534 
L 538.416548 -156.547402 
L 540.707323 -150.73755 
L 542.998097 -148.711858 
L 545.288871 -156.715198 
L 547.579645 -151.007358 
L 549.87042 -145.497009 
L 552.161194 -151.859044 
L 554.451968 -149.838597 
L 556.742742 -147.27493 
L 559.033516 -154.91033 
L 561.324291 -142.022876 
L 563.615065 -142.972359 
L 565.905839 -146.153854 
L 568.196613 -144.076653 
L 570.487388 -139.888716 
L 572.778162 -143.948796 
L 575.068936 -141.232493 
L 577.35971 -147.044693 
L 579.650485 -140.470627 
L 581.941259 -140.3699 
L 584.232033 -141.542866 
L 586.522807 -141.674715 
L 588.813581 -141.793957 
L 591.104356 -150.38296 
L 593.39513 -141.732973 
L 595.685904 -144.280972 
L 597.976678 -143.204451 
L 600.267453 -146.105056 
L 602.558227 -139.932672 
L 604.849001 -147.335794 
L 607.139775 -146.776907 
L 609.430549 -152.188589 
L 611.721324 -150.917638 
L 614.012098 -145.023527 
L 616.302872 -144.483591 
L 618.593646 -151.45278 
L 620.884421 -144.271973 
L 623.175195 -149.366508 
L 625.465969 -145.693593 
L 627.756743 -151.734836 
L 630.047517 -156.946172 
L 632.338292 -144.327443 
L 634.629066 -153.680582 
L 636.91984 -148.634596 
L 639.210614 -149.125082 
L 641.501389 -150.670493 
L 643.792163 -143.148728 
L 646.082937 -144.465958 
L 648.373711 -144.529258 
L 650.664486 -147.41132 
L 652.95526 -151.230072 
L 655.246034 -146.134224 
L 657.536808 -151.439899 
L 659.827582 -157.014896 
L 662.118357 -158.68004 
L 664.409131 -155.967819 
L 666.699905 -155.926861 
L 668.990679 -159.025235 
L 671.281454 -158.042611 
L 673.572228 -169.103258 
L 675.863002 -158.082108 
L 678.153776 -155.502621 
L 680.44455 -157.631795 
L 682.735325 -145.028594 
L 685.026099 -157.05088 
L 687.316873 -151.389565 
L 689.607647 -153.711555 
L 691.898422 -177.989866 
L 694.189196 -156.304612 
L 696.47997 -154.100802 
L 698.770744 -155.653358 
L 701.061518 -168.196408 
L 703.352293 -166.104475 
L 705.643067 -156.19479 
L 707.933841 -165.684637 
L 710.224615 -160.901438 
L 712.51539 -161.390952 
L 714.806164 -163.950266 
L 717.096938 -154.436026 
L 719.387712 -144.635371 
L 721.678487 -156.953981 
L 723.969261 -156.756712 
L 726.260035 -155.947571 
L 728.550809 -147.819842 
L 730.841583 -153.872028 
L 733.132358 -154.826136 
L 735.423132 -160.563603 
L 737.713906 -151.65239 
L 740.00468 -144.3369 
L 742.295455 -145.997228 
L 744.586229 -138.176254 
L 746.877003 -134.059226 
L 749.167777 -137.421526 
L 751.458551 -134.161056 
L 753.749326 -155.673117 
L 756.0401 -137.032155 
L 758.330874 -154.773411 
L 760.621648 -151.104773 
L 762.912423 -152.481909 
L 765.203197 -151.545166 
L 767.493971 -148.600367 
L 769.784745 -149.429745 
L 772.075519 -149.284713 
L 774.366294 -153.567955 
L 776.657068 -144.720279 
L 778.947842 -147.711025 
L 781.238616 -157.70858 
L 783.529391 -159.333673 
L 785.820165 -180.846845 
L 788.110939 -177.80633 
L 790.401713 -185.721432 
L 792.692488 -170.358683 
L 794.983262 -162.432008 
L 797.274036 -170.094487 
L 799.56481 -170.824558 
L 801.855584 -171.360573 
L 804.146359 -168.677761 
L 806.437133 -157.467543 
L 808.727907 -151.517052 
L 811.018681 -170.110142 
L 813.309456 -236.695124 
L 815.60023 -223.369343 
L 817.891004 -229.674584 
L 820.181778 -242.779837 
L 822.472552 -204.356246 
L 824.763327 -197.983756 
L 827.054101 -177.136501 
L 829.344875 -191.832954 
L 831.635649 -181.683474 
L 833.926424 -156.870907 
L 836.217198 -276.993299 
L 838.507972 -207.668592 
L 840.798746 -180.517247 
L 843.08952 -179.75081 
L 845.380295 -164.964802 
L 847.671069 -152.431349 
L 849.961843 -161.745705 
L 852.252617 -158.64017 
L 854.543392 -170.001661 
L 856.834166 -163.336016 
L 859.12494 -159.099138 
L 861.415714 -175.884421 
L 863.706489 -164.154655 
L 865.997263 -160.504723 
L 868.288037 -157.678759 
L 870.578811 -158.487012 
L 872.869585 -167.241532 
L 875.16036 -166.061368 
L 877.451134 -163.478041 
L 879.741908 -163.814147 
L 882.032682 -162.670977 
L 884.323457 -164.807162 
L 886.614231 -164.112941 
L 888.905005 -162.711679 
L 891.195779 -161.40716 
L 893.486553 -157.796334 
L 895.777328 -169.919299 
L 898.068102 -161.16878 
L 900.358876 -168.653091 
L 902.64965 -185.628036 
L 904.940425 -183.978227 
L 907.231199 -246.209124 
L 909.521973 -192.723822 
L 911.812747 -167.896715 
L 914.103521 -166.99317 
L 916.394296 -161.903293 
L 918.68507 -160.529694 
L 920.975844 -173.946078 
L 923.266618 -168.12428 
L 925.557393 -168.338856 
L 927.848167 -170.766636 
L 930.138941 -168.103975 
L 932.429715 -168.664077 
L 934.72049 -176.175618 
L 937.011264 -164.668246 
L 939.302038 -166.464211 
L 941.592812 -163.246578 
L 943.883586 -177.462121 
L 946.174361 -172.4957 
L 948.465135 -168.541892 
L 950.755909 -166.831628 
L 950.755909 -289.554728 
L 950.755909 -289.554728 
L 948.465135 -278.563815 
L 946.174361 -284.076885 
L 943.883586 -275.02997 
L 941.592812 -248.386908 
L 939.302038 -275.56656 
L 937.011264 -249.819707 
L 934.72049 -296.415715 
L 932.429715 -274.855228 
L 930.138941 -281.487118 
L 927.848167 -305.660375 
L 925.557393 -261.912065 
L 923.266618 -274.518017 
L 920.975844 -286.108139 
L 918.68507 -241.229606 
L 916.394296 -274.833774 
L 914.103521 -261.918368 
L 911.812747 -267.784321 
L 909.521973 -310.14731 
L 907.231199 -514.041611 
L 904.940425 -341.157039 
L 902.64965 -289.062519 
L 900.358876 -258.464221 
L 898.068102 -252.917862 
L 895.777328 -275.427743 
L 893.486553 -246.897349 
L 891.195779 -250.707956 
L 888.905005 -273.799324 
L 886.614231 -268.572681 
L 884.323457 -248.086278 
L 882.032682 -280.334051 
L 879.741908 -258.418914 
L 877.451134 -290.146115 
L 875.16036 -263.160539 
L 872.869585 -244.880352 
L 870.578811 -240.171795 
L 868.288037 -225.315481 
L 865.997263 -259.006213 
L 863.706489 -257.230608 
L 861.415714 -282.110412 
L 859.12494 -253.85635 
L 856.834166 -252.771615 
L 854.543392 -259.764583 
L 852.252617 -246.424199 
L 849.961843 -255.239581 
L 847.671069 -218.355302 
L 845.380295 -248.414088 
L 843.08952 -309.085986 
L 840.798746 -387.241761 
L 838.507972 -371.32497 
L 836.217198 -508.207555 
L 833.926424 -240.58252 
L 831.635649 -299.690798 
L 829.344875 -374.972445 
L 827.054101 -289.00337 
L 824.763327 -317.583925 
L 822.472552 -344.951704 
L 820.181778 -434.172972 
L 817.891004 -405.438967 
L 815.60023 -360.902373 
L 813.309456 -394.992037 
L 811.018681 -279.477348 
L 808.727907 -254.385403 
L 806.437133 -256.369556 
L 804.146359 -282.253355 
L 801.855584 -286.475525 
L 799.56481 -279.78469 
L 797.274036 -274.767354 
L 794.983262 -261.15273 
L 792.692488 -304.263789 
L 790.401713 -317.1206 
L 788.110939 -287.905779 
L 785.820165 -308.625341 
L 783.529391 -265.675169 
L 781.238616 -245.531242 
L 778.947842 -217.894595 
L 776.657068 -230.553921 
L 774.366294 -247.67824 
L 772.075519 -213.820199 
L 769.784745 -227.8357 
L 767.493971 -230.194798 
L 765.203197 -241.313472 
L 762.912423 -231.515283 
L 760.621648 -233.292261 
L 758.330874 -246.122504 
L 756.0401 -202.074093 
L 753.749326 -240.718179 
L 751.458551 -202.593384 
L 749.167777 -197.61475 
L 746.877003 -220.205951 
L 744.586229 -209.590202 
L 742.295455 -233.26894 
L 740.00468 -208.901263 
L 737.713906 -234.077278 
L 735.423132 -254.252113 
L 733.132358 -228.931217 
L 730.841583 -253.291828 
L 728.550809 -235.432625 
L 726.260035 -250.804034 
L 723.969261 -254.100394 
L 721.678487 -241.532455 
L 719.387712 -213.785945 
L 717.096938 -243.970588 
L 714.806164 -253.057964 
L 712.51539 -250.25451 
L 710.224615 -258.305559 
L 707.933841 -273.074346 
L 705.643067 -249.772691 
L 703.352293 -245.069006 
L 701.061518 -252.7913 
L 698.770744 -246.920172 
L 696.47997 -231.79196 
L 694.189196 -256.008059 
L 691.898422 -321.067295 
L 689.607647 -247.025631 
L 687.316873 -214.639066 
L 685.026099 -254.751073 
L 682.735325 -212.039511 
L 680.44455 -252.628933 
L 678.153776 -240.228419 
L 675.863002 -270.326097 
L 673.572228 -273.561002 
L 671.281454 -243.224083 
L 668.990679 -238.749913 
L 666.699905 -257.79912 
L 664.409131 -260.256592 
L 662.118357 -231.066038 
L 659.827582 -238.072868 
L 657.536808 -234.506886 
L 655.246034 -206.283936 
L 652.95526 -221.769451 
L 650.664486 -199.70668 
L 648.373711 -208.631644 
L 646.082937 -217.908334 
L 643.792163 -196.083715 
L 641.501389 -215.628173 
L 639.210614 -213.810025 
L 636.91984 -204.347168 
L 634.629066 -221.905849 
L 632.338292 -213.70618 
L 630.047517 -227.826027 
L 627.756743 -218.280868 
L 625.465969 -200.311888 
L 623.175195 -221.722006 
L 620.884421 -195.602552 
L 618.593646 -211.586088 
L 616.302872 -205.657364 
L 614.012098 -201.239476 
L 611.721324 -218.147899 
L 609.430549 -236.953104 
L 607.139775 -207.777336 
L 604.849001 -205.783582 
L 602.558227 -196.075469 
L 600.267453 -208.795624 
L 597.976678 -212.260575 
L 595.685904 -197.796212 
L 593.39513 -208.703292 
L 591.104356 -204.162048 
L 588.813581 -203.430361 
L 586.522807 -191.438894 
L 584.232033 -198.752105 
L 581.941259 -206.773175 
L 579.650485 -193.711784 
L 577.35971 -207.580985 
L 575.068936 -194.213755 
L 572.778162 -201.309168 
L 570.487388 -183.618587 
L 568.196613 -200.303142 
L 565.905839 -204.121433 
L 563.615065 -210.848081 
L 561.324291 -220.429296 
L 559.033516 -263.727152 
L 556.742742 -228.251018 
L 554.451968 -226.204753 
L 552.161194 -225.000815 
L 549.87042 -219.763743 
L 547.579645 -223.492196 
L 545.288871 -234.683962 
L 542.998097 -231.373556 
L 540.707323 -231.296429 
L 538.416548 -243.528825 
L 536.125774 -236.946183 
L 533.835 -243.815934 
L 531.544226 -224.22221 
L 529.253452 -222.252528 
L 526.962677 -207.370396 
L 524.671903 -228.787377 
L 522.381129 -217.673922 
L 520.090355 -186.581117 
L 517.79958 -202.878223 
L 515.508806 -219.017409 
L 513.218032 -223.690328 
L 510.927258 -210.902759 
L 508.636484 -229.152192 
L 506.345709 -263.95856 
L 504.054935 -365.026704 
L 501.764161 -538.380511 
L 499.473387 -270.905602 
L 497.182612 -309.591035 
L 494.891838 -242.564572 
L 492.601064 -254.254835 
L 490.31029 -262.243413 
L 488.019515 -255.870989 
L 485.728741 -234.769981 
L 483.437967 -243.438092 
L 481.147193 -267.403091 
L 478.856419 -293.809189 
L 476.565644 -268.395529 
L 474.27487 -279.19204 
L 471.984096 -273.502671 
L 469.693322 -243.925971 
L 467.402547 -345.895294 
L 465.111773 -303.127889 
L 462.820999 -466.767132 
L 460.530225 -233.904421 
L 458.239451 -199.96083 
L 455.948676 -234.827394 
L 453.657902 -210.967625 
L 451.367128 -209.237639 
L 449.076354 -235.048568 
L 446.785579 -270.82408 
L 444.494805 -266.665752 
L 442.204031 -255.317464 
L 439.913257 -243.538879 
L 437.622483 -250.156298 
L 435.331708 -241.529108 
L 433.040934 -258.764037 
L 430.75016 -262.785597 
L 428.459386 -243.347013 
L 426.168611 -213.787794 
L 423.877837 -242.823091 
L 421.587063 -220.732779 
L 419.296289 -225.997282 
L 417.005514 -224.819595 
L 414.71474 -263.013958 
L 412.423966 -280.272075 
L 410.133192 -234.160839 
L 407.842418 -226.944899 
L 405.551643 -246.204012 
L 403.260869 -241.930637 
L 400.970095 -194.467437 
L 398.679321 -205.874303 
L 396.388546 -190.635088 
L 394.097772 -182.941368 
L 391.806998 -215.063782 
L 389.516224 -225.210515 
L 387.22545 -205.869171 
L 384.934675 -253.504081 
L 382.643901 -222.885133 
L 380.353127 -227.451581 
L 378.062353 -239.775415 
L 375.771578 -217.268116 
L 373.480804 -209.854547 
L 371.19003 -247.691657 
L 368.899256 -221.360777 
L 366.608482 -224.763151 
L 364.317707 -209.202252 
L 362.026933 -226.268935 
L 359.736159 -224.009846 
L 357.445385 -251.53108 
L 355.15461 -218.708639 
L 352.863836 -229.685548 
L 350.573062 -207.908624 
L 348.282288 -205.864265 
L 345.991513 -240.915249 
L 343.700739 -238.152625 
L 341.409965 -233.039993 
L 339.119191 -256.86433 
L 336.828417 -218.849893 
L 334.537642 -225.619479 
L 332.246868 -223.741771 
L 329.956094 -199.513539 
L 327.66532 -248.897592 
L 325.374545 -206.124988 
L 323.083771 -197.260849 
L 320.792997 -216.805953 
L 318.502223 -223.99989 
L 316.211449 -235.245052 
L 313.920674 -234.784456 
L 311.6299 -192.678133 
L 309.339126 -215.449896 
L 307.048352 -230.923636 
L 304.757577 -207.085093 
L 302.466803 -232.372916 
L 300.176029 -236.788558 
L 297.885255 -203.458558 
L 295.594481 -226.252888 
L 293.303706 -232.031953 
L 291.012932 -239.50632 
L 288.722158 -206.566513 
L 286.431384 -225.105013 
L 284.140609 -199.685859 
L 281.849835 -218.144052 
L 279.559061 -206.943204 
L 277.268287 -235.036153 
L 274.977512 -190.488953 
L 272.686738 -202.933716 
L 270.395964 -250.254515 
L 268.10519 -274.537882 
L 265.814416 -218.181839 
L 263.523641 -238.256722 
L 261.232867 -224.862259 
L 258.942093 -219.911745 
L 256.651319 -222.918247 
L 254.360544 -209.563971 
L 252.06977 -238.961376 
L 249.778996 -210.406259 
L 247.488222 -221.215594 
L 245.197448 -200.401819 
L 242.906673 -215.430248 
L 240.615899 -214.234371 
L 238.325125 -246.722947 
L 236.034351 -202.844512 
L 233.743576 -255.172673 
L 231.452802 -254.261267 
L 229.162028 -251.556624 
L 226.871254 -228.033317 
L 224.58048 -237.892456 
L 222.289705 -266.460965 
L 219.998931 -242.852157 
L 217.708157 -242.862012 
L 215.417383 -202.109728 
L 213.126608 -195.81166 
L 210.835834 -119.339373 
L 208.54506 -259.942996 
L 206.254286 -249.714888 
L 203.963511 -269.475401 
L 201.672737 -258.054982 
L 199.381963 -259.068978 
L 197.091189 -267.344321 
L 194.800415 -249.862974 
L 192.50964 -264.071361 
L 190.218866 -263.616759 
L 187.928092 -228.392287 
L 185.637318 -254.619677 
L 183.346543 -241.220278 
L 181.055769 -238.700975 
L 178.764995 -241.576852 
L 176.474221 -212.758687 
L 174.183447 -231.424946 
L 171.892672 -242.072821 
L 169.601898 -266.571376 
L 167.311124 -231.797991 
L 165.02035 -231.98844 
L 162.729575 -246.803252 
L 160.438801 -275.070154 
L 158.148027 -186.256962 
L 155.857253 -242.928197 
L 153.566479 -215.183975 
L 151.275704 -221.844436 
L 148.98493 -232.459504 
L 146.694156 -225.381152 
L 144.403382 -209.041621 
L 142.112607 -266.851951 
L 139.821833 -201.571532 
L 137.531059 -221.50171 
L 135.240285 -228.89843 
L 132.94951 -271.547792 
L 130.658736 -231.141934 
L 128.367962 -240.984564 
L 126.077188 -242.259897 
L 123.786414 -239.315151 
L 121.495639 -207.688918 
L 119.204865 -259.797642 
L 116.914091 -259.176664 
z
" style="stroke: #edd1cb; stroke-opacity: 0.2"/>
    </defs>
    <g clip-path="url(#pf395844bef)">
     <use xlink:href="#mcc1de52c34" x="0" y="576" style="fill: #edd1cb; fill-opacity: 0.2; stroke: #edd1cb; stroke-opacity: 0.2"/>
    </g>
   </g>
   <g id="PolyCollection_2">
    <defs>
     <path id="m7a0d296d2d" d="M 116.914091 -293.68582 
L 116.914091 -183.743434 
L 119.204865 -183.66594 
L 121.495639 -163.427919 
L 123.786414 -172.251006 
L 126.077188 -166.847336 
L 128.367962 -180.593572 
L 130.658736 -179.125434 
L 132.94951 -169.608551 
L 135.240285 -174.485656 
L 137.531059 -212.618304 
L 139.821833 -188.36195 
L 142.112607 -188.434659 
L 144.403382 -183.435301 
L 146.694156 -179.297134 
L 148.98493 -181.451504 
L 151.275704 -194.061149 
L 153.566479 -186.435814 
L 155.857253 -188.306517 
L 158.148027 -203.017172 
L 160.438801 -201.550915 
L 162.729575 -193.311537 
L 165.02035 -208.564632 
L 167.311124 -199.920482 
L 169.601898 -192.996654 
L 171.892672 -205.093464 
L 174.183447 -198.35439 
L 176.474221 -188.892872 
L 178.764995 -186.422811 
L 181.055769 -187.664272 
L 183.346543 -150.265971 
L 185.637318 -102.877847 
L 187.928092 -143.864115 
L 190.218866 -141.215979 
L 192.50964 -149.189864 
L 194.800415 -143.073277 
L 197.091189 -154.627527 
L 199.381963 -152.546947 
L 201.672737 -172.640897 
L 203.963511 -163.826922 
L 206.254286 -174.530246 
L 208.54506 -168.370003 
L 210.835834 -180.974709 
L 213.126608 -169.640212 
L 215.417383 -159.208627 
L 217.708157 -171.094939 
L 219.998931 -170.674384 
L 222.289705 -169.941936 
L 224.58048 -167.836657 
L 226.871254 -174.211391 
L 229.162028 -191.862155 
L 231.452802 -174.289543 
L 233.743576 -178.289772 
L 236.034351 -184.27234 
L 238.325125 -171.836147 
L 240.615899 -169.231383 
L 242.906673 -170.912674 
L 245.197448 -180.206944 
L 247.488222 -176.786401 
L 249.778996 -171.940776 
L 252.06977 -177.869877 
L 254.360544 -176.255987 
L 256.651319 -171.512879 
L 258.942093 -190.084551 
L 261.232867 -192.467484 
L 263.523641 -172.847859 
L 265.814416 -180.782212 
L 268.10519 -194.856807 
L 270.395964 -181.186636 
L 272.686738 -171.96278 
L 274.977512 -172.856622 
L 277.268287 -176.341132 
L 279.559061 -178.691073 
L 281.849835 -184.691631 
L 284.140609 -178.043611 
L 286.431384 -179.783138 
L 288.722158 -169.909728 
L 291.012932 -175.043633 
L 293.303706 -180.66727 
L 295.594481 -174.235248 
L 297.885255 -172.168231 
L 300.176029 -181.41119 
L 302.466803 -173.050082 
L 304.757577 -161.53087 
L 307.048352 -161.70975 
L 309.339126 -166.131976 
L 311.6299 -164.265835 
L 313.920674 -170.020816 
L 316.211449 -170.727362 
L 318.502223 -164.260601 
L 320.792997 -164.537611 
L 323.083771 -170.892248 
L 325.374545 -167.147339 
L 327.66532 -163.177379 
L 329.956094 -169.119933 
L 332.246868 -172.285424 
L 334.537642 -177.501878 
L 336.828417 -176.460792 
L 339.119191 -185.780283 
L 341.409965 -197.659691 
L 343.700739 -190.514783 
L 345.991513 -191.257865 
L 348.282288 -185.46196 
L 350.573062 -171.321158 
L 352.863836 -183.496568 
L 355.15461 -184.586727 
L 357.445385 -161.974904 
L 359.736159 -178.457894 
L 362.026933 -199.855349 
L 364.317707 -190.397735 
L 366.608482 -176.354673 
L 368.899256 -183.212788 
L 371.19003 -186.203729 
L 373.480804 -204.449441 
L 375.771578 -220.88165 
L 378.062353 -255.147255 
L 380.353127 -251.534805 
L 382.643901 -214.937143 
L 384.934675 -190.892225 
L 387.22545 -160.791284 
L 389.516224 -166.252059 
L 391.806998 -157.236561 
L 394.097772 -165.440228 
L 396.388546 -174.58339 
L 398.679321 -182.72023 
L 400.970095 -181.012873 
L 403.260869 -188.215746 
L 405.551643 -178.440283 
L 407.842418 -175.267252 
L 410.133192 -194.074682 
L 412.423966 -193.275067 
L 414.71474 -198.342015 
L 417.005514 -199.533303 
L 419.296289 -193.280475 
L 421.587063 -172.102955 
L 423.877837 -168.648697 
L 426.168611 -181.717986 
L 428.459386 -200.907277 
L 430.75016 -178.933156 
L 433.040934 -186.62005 
L 435.331708 -176.040057 
L 437.622483 -189.701848 
L 439.913257 -189.698505 
L 442.204031 -175.605699 
L 444.494805 -169.727121 
L 446.785579 -176.83094 
L 449.076354 -174.939922 
L 451.367128 -169.040456 
L 453.657902 -166.207851 
L 455.948676 -157.055807 
L 458.239451 -152.760336 
L 460.530225 -171.251926 
L 462.820999 -253.210547 
L 465.111773 -196.518132 
L 467.402547 -197.562928 
L 469.693322 -178.333244 
L 471.984096 -175.076232 
L 474.27487 -180.533629 
L 476.565644 -197.599383 
L 478.856419 -187.810776 
L 481.147193 -180.894269 
L 483.437967 -184.804508 
L 485.728741 -187.781909 
L 488.019515 -186.771405 
L 490.31029 -197.318325 
L 492.601064 -179.163039 
L 494.891838 -209.688435 
L 497.182612 -234.460476 
L 499.473387 -208.911003 
L 501.764161 -303.619049 
L 504.054935 -225.456328 
L 506.345709 -207.956744 
L 508.636484 -177.247399 
L 510.927258 -176.296115 
L 513.218032 -182.184621 
L 515.508806 -180.32997 
L 517.79958 -176.999108 
L 520.090355 -180.686838 
L 522.381129 -173.394073 
L 524.671903 -177.9826 
L 526.962677 -170.064774 
L 529.253452 -168.687497 
L 531.544226 -174.003916 
L 533.835 -184.022579 
L 536.125774 -172.336055 
L 538.416548 -182.678822 
L 540.707323 -173.418906 
L 542.998097 -176.906162 
L 545.288871 -168.468334 
L 547.579645 -175.187264 
L 549.87042 -183.337207 
L 552.161194 -174.635614 
L 554.451968 -176.157919 
L 556.742742 -178.221677 
L 559.033516 -183.514784 
L 561.324291 -187.251196 
L 563.615065 -183.66008 
L 565.905839 -183.489242 
L 568.196613 -177.455322 
L 570.487388 -174.489906 
L 572.778162 -177.681685 
L 575.068936 -181.023634 
L 577.35971 -183.74875 
L 579.650485 -168.749169 
L 581.941259 -172.568321 
L 584.232033 -172.568772 
L 586.522807 -187.888475 
L 588.813581 -181.505935 
L 591.104356 -168.342104 
L 593.39513 -163.290594 
L 595.685904 -166.730527 
L 597.976678 -176.611013 
L 600.267453 -170.043938 
L 602.558227 -174.721644 
L 604.849001 -185.885001 
L 607.139775 -169.738784 
L 609.430549 -177.762292 
L 611.721324 -169.473397 
L 614.012098 -173.887398 
L 616.302872 -164.733226 
L 618.593646 -179.218046 
L 620.884421 -172.81872 
L 623.175195 -173.331599 
L 625.465969 -168.671776 
L 627.756743 -169.783593 
L 630.047517 -171.339029 
L 632.338292 -165.434515 
L 634.629066 -181.714579 
L 636.91984 -178.897348 
L 639.210614 -172.159869 
L 641.501389 -184.118925 
L 643.792163 -176.112801 
L 646.082937 -167.865488 
L 648.373711 -178.1972 
L 650.664486 -183.95872 
L 652.95526 -178.393379 
L 655.246034 -175.816196 
L 657.536808 -180.271066 
L 659.827582 -185.095375 
L 662.118357 -181.380418 
L 664.409131 -181.21321 
L 666.699905 -189.65301 
L 668.990679 -192.410854 
L 671.281454 -184.255356 
L 673.572228 -191.936901 
L 675.863002 -194.105358 
L 678.153776 -192.779337 
L 680.44455 -185.630607 
L 682.735325 -200.440985 
L 685.026099 -197.207908 
L 687.316873 -216.930011 
L 689.607647 -207.221818 
L 691.898422 -198.490293 
L 694.189196 -182.577089 
L 696.47997 -175.937456 
L 698.770744 -176.873394 
L 701.061518 -181.870773 
L 703.352293 -181.976013 
L 705.643067 -175.836455 
L 707.933841 -180.160423 
L 710.224615 -191.789015 
L 712.51539 -169.448645 
L 714.806164 -181.771453 
L 717.096938 -174.510922 
L 719.387712 -183.704289 
L 721.678487 -190.885404 
L 723.969261 -190.90197 
L 726.260035 -173.540816 
L 728.550809 -180.215682 
L 730.841583 -185.779578 
L 733.132358 -184.317228 
L 735.423132 -188.284494 
L 737.713906 -182.161932 
L 740.00468 -179.092396 
L 742.295455 -178.486116 
L 744.586229 -161.745699 
L 746.877003 -166.277756 
L 749.167777 -164.458266 
L 751.458551 -168.848363 
L 753.749326 -168.001251 
L 756.0401 -178.928864 
L 758.330874 -184.709056 
L 760.621648 -180.399658 
L 762.912423 -179.266567 
L 765.203197 -169.878652 
L 767.493971 -173.545952 
L 769.784745 -174.634874 
L 772.075519 -167.411554 
L 774.366294 -167.592024 
L 776.657068 -164.756357 
L 778.947842 -164.429633 
L 781.238616 -170.442515 
L 783.529391 -163.157084 
L 785.820165 -177.247882 
L 788.110939 -191.689061 
L 790.401713 -170.856645 
L 792.692488 -157.570207 
L 794.983262 -173.462303 
L 797.274036 -170.798913 
L 799.56481 -171.806789 
L 801.855584 -168.292039 
L 804.146359 -167.785065 
L 806.437133 -153.241466 
L 808.727907 -147.388967 
L 811.018681 -175.716236 
L 813.309456 -250.452501 
L 815.60023 -214.756354 
L 817.891004 -196.18544 
L 820.181778 -182.091771 
L 822.472552 -162.458159 
L 824.763327 -177.841264 
L 827.054101 -172.991863 
L 829.344875 -184.81844 
L 831.635649 -159.50472 
L 833.926424 -184.251695 
L 836.217198 -254.793942 
L 838.507972 -218.742214 
L 840.798746 -191.79946 
L 843.08952 -171.034243 
L 845.380295 -164.62592 
L 847.671069 -154.45315 
L 849.961843 -158.729719 
L 852.252617 -158.667926 
L 854.543392 -157.22159 
L 856.834166 -160.280314 
L 859.12494 -155.359124 
L 861.415714 -146.739356 
L 863.706489 -141.694507 
L 865.997263 -151.397 
L 868.288037 -132.879523 
L 870.578811 -128.744101 
L 872.869585 -126.331937 
L 875.16036 -120.345388 
L 877.451134 -115.249609 
L 879.741908 -113.187861 
L 882.032682 -155.068965 
L 884.323457 -142.172095 
L 886.614231 -148.904671 
L 888.905005 -159.214744 
L 891.195779 -160.950097 
L 893.486553 -165.823409 
L 895.777328 -154.146075 
L 898.068102 -149.681376 
L 900.358876 -161.918887 
L 902.64965 -158.473165 
L 904.940425 -170.696721 
L 907.231199 -162.491115 
L 909.521973 -150.526167 
L 911.812747 -144.844611 
L 914.103521 -147.299477 
L 916.394296 -157.192693 
L 918.68507 -157.652281 
L 920.975844 -161.643395 
L 923.266618 -163.333075 
L 925.557393 -162.08435 
L 927.848167 -161.419814 
L 930.138941 -161.779708 
L 932.429715 -163.729671 
L 934.72049 -153.234498 
L 937.011264 -158.471978 
L 939.302038 -159.775422 
L 941.592812 -160.465122 
L 943.883586 -158.078589 
L 946.174361 -158.132442 
L 948.465135 -170.52453 
L 950.755909 -161.962188 
L 950.755909 -213.316244 
L 950.755909 -213.316244 
L 948.465135 -242.438582 
L 946.174361 -202.63823 
L 943.883586 -210.431558 
L 941.592812 -217.052933 
L 939.302038 -210.521064 
L 937.011264 -207.690403 
L 934.72049 -204.942449 
L 932.429715 -213.49896 
L 930.138941 -210.461928 
L 927.848167 -215.814213 
L 925.557393 -217.646394 
L 923.266618 -222.110046 
L 920.975844 -221.969539 
L 918.68507 -213.809317 
L 916.394296 -200.656267 
L 914.103521 -190.544425 
L 911.812747 -192.121682 
L 909.521973 -194.937205 
L 907.231199 -220.361006 
L 904.940425 -231.289274 
L 902.64965 -211.589614 
L 900.358876 -211.385056 
L 898.068102 -189.809985 
L 895.777328 -197.038834 
L 893.486553 -213.804141 
L 891.195779 -215.517514 
L 888.905005 -212.33011 
L 886.614231 -199.246467 
L 884.323457 -201.797662 
L 882.032682 -225.74377 
L 879.741908 -134.872906 
L 877.451134 -148.433476 
L 875.16036 -155.554223 
L 872.869585 -164.798033 
L 870.578811 -174.0693 
L 868.288037 -168.098943 
L 865.997263 -198.590627 
L 863.706489 -184.654861 
L 861.415714 -190.574138 
L 859.12494 -206.000499 
L 856.834166 -209.707449 
L 854.543392 -211.578071 
L 852.252617 -200.407111 
L 849.961843 -238.68848 
L 847.671069 -200.052111 
L 845.380295 -206.837386 
L 843.08952 -230.812071 
L 840.798746 -274.711961 
L 838.507972 -316.920361 
L 836.217198 -389.970765 
L 833.926424 -273.880139 
L 831.635649 -211.141015 
L 829.344875 -255.548174 
L 827.054101 -238.398896 
L 824.763327 -273.746774 
L 822.472552 -241.19489 
L 820.181778 -275.404699 
L 817.891004 -282.707314 
L 815.60023 -300.346001 
L 813.309456 -351.729307 
L 811.018681 -245.22568 
L 808.727907 -198.396194 
L 806.437133 -206.428754 
L 804.146359 -235.133903 
L 801.855584 -266.868709 
L 799.56481 -242.361994 
L 797.274036 -235.94131 
L 794.983262 -251.300297 
L 792.692488 -235.242138 
L 790.401713 -235.61391 
L 788.110939 -287.465372 
L 785.820165 -238.000325 
L 783.529391 -221.333716 
L 781.238616 -242.107044 
L 778.947842 -235.14273 
L 776.657068 -234.013943 
L 774.366294 -230.01563 
L 772.075519 -239.234214 
L 769.784745 -264.534759 
L 767.493971 -236.95518 
L 765.203197 -242.217982 
L 762.912423 -257.525214 
L 760.621648 -259.831549 
L 758.330874 -288.629151 
L 756.0401 -250.469113 
L 753.749326 -242.756054 
L 751.458551 -233.891207 
L 749.167777 -224.812295 
L 746.877003 -236.575784 
L 744.586229 -225.584191 
L 742.295455 -247.525145 
L 740.00468 -255.015158 
L 737.713906 -251.591053 
L 735.423132 -269.150793 
L 733.132358 -271.978175 
L 730.841583 -302.120108 
L 728.550809 -260.034754 
L 726.260035 -281.785202 
L 723.969261 -276.590689 
L 721.678487 -289.795799 
L 719.387712 -253.642293 
L 717.096938 -237.000131 
L 714.806164 -259.752732 
L 712.51539 -237.000116 
L 710.224615 -292.997104 
L 707.933841 -279.230283 
L 705.643067 -249.148345 
L 703.352293 -273.325299 
L 701.061518 -265.35495 
L 698.770744 -258.153037 
L 696.47997 -252.758655 
L 694.189196 -285.40697 
L 691.898422 -279.262842 
L 689.607647 -317.492522 
L 687.316873 -313.548338 
L 685.026099 -301.713437 
L 682.735325 -293.200767 
L 680.44455 -267.350496 
L 678.153776 -273.898548 
L 675.863002 -275.95446 
L 673.572228 -268.563573 
L 671.281454 -261.223574 
L 668.990679 -274.342277 
L 666.699905 -319.125705 
L 664.409131 -261.275289 
L 662.118357 -250.855936 
L 659.827582 -281.838222 
L 657.536808 -254.411951 
L 655.246034 -245.644567 
L 652.95526 -244.606581 
L 650.664486 -271.993618 
L 648.373711 -258.408371 
L 646.082937 -235.107122 
L 643.792163 -289.044436 
L 641.501389 -261.400389 
L 639.210614 -233.414738 
L 636.91984 -297.536643 
L 634.629066 -262.521847 
L 632.338292 -239.310951 
L 630.047517 -231.248765 
L 627.756743 -235.932334 
L 625.465969 -230.030085 
L 623.175195 -242.969834 
L 620.884421 -234.666838 
L 618.593646 -274.396656 
L 616.302872 -225.26747 
L 614.012098 -251.221104 
L 611.721324 -228.785465 
L 609.430549 -258.736795 
L 607.139775 -235.284704 
L 604.849001 -275.521093 
L 602.558227 -237.62647 
L 600.267453 -236.168958 
L 597.976678 -247.963816 
L 595.685904 -232.303952 
L 593.39513 -227.888317 
L 591.104356 -230.913132 
L 588.813581 -258.428553 
L 586.522807 -253.677205 
L 584.232033 -234.038504 
L 581.941259 -244.766343 
L 579.650485 -239.130932 
L 577.35971 -258.737339 
L 575.068936 -258.482718 
L 572.778162 -244.928732 
L 570.487388 -244.835386 
L 568.196613 -238.569421 
L 565.905839 -257.542307 
L 563.615065 -260.384062 
L 561.324291 -257.091489 
L 559.033516 -248.484043 
L 556.742742 -259.853359 
L 554.451968 -251.512581 
L 552.161194 -248.167233 
L 549.87042 -248.932424 
L 547.579645 -236.29743 
L 545.288871 -230.783998 
L 542.998097 -245.862899 
L 540.707323 -245.331421 
L 538.416548 -253.49471 
L 536.125774 -236.914103 
L 533.835 -261.043025 
L 531.544226 -243.172623 
L 529.253452 -229.149089 
L 526.962677 -238.745205 
L 524.671903 -248.914415 
L 522.381129 -242.409372 
L 520.090355 -272.110753 
L 517.79958 -243.234939 
L 515.508806 -251.370602 
L 513.218032 -289.364161 
L 510.927258 -252.668075 
L 508.636484 -246.212387 
L 506.345709 -312.820878 
L 504.054935 -342.671619 
L 501.764161 -463.723007 
L 499.473387 -295.465944 
L 497.182612 -341.398604 
L 494.891838 -318.278104 
L 492.601064 -249.152476 
L 490.31029 -267.734231 
L 488.019515 -275.459892 
L 485.728741 -291.895008 
L 483.437967 -249.673112 
L 481.147193 -251.193727 
L 478.856419 -250.45432 
L 476.565644 -310.33189 
L 474.27487 -241.806978 
L 471.984096 -251.970157 
L 469.693322 -267.376439 
L 467.402547 -288.480284 
L 465.111773 -305.340944 
L 462.820999 -411.338722 
L 460.530225 -234.24677 
L 458.239451 -210.379462 
L 455.948676 -225.54215 
L 453.657902 -231.890111 
L 451.367128 -230.965706 
L 449.076354 -243.281958 
L 446.785579 -281.482534 
L 444.494805 -238.06665 
L 442.204031 -273.587699 
L 439.913257 -289.057855 
L 437.622483 -279.794769 
L 435.331708 -257.798078 
L 433.040934 -315.88228 
L 430.75016 -266.067707 
L 428.459386 -323.73385 
L 426.168611 -285.261406 
L 423.877837 -241.556265 
L 421.587063 -264.85612 
L 419.296289 -298.191237 
L 417.005514 -283.693514 
L 414.71474 -287.653366 
L 412.423966 -272.42106 
L 410.133192 -283.078898 
L 407.842418 -285.369515 
L 405.551643 -259.209542 
L 403.260869 -291.383318 
L 400.970095 -268.764972 
L 398.679321 -265.679798 
L 396.388546 -248.346424 
L 394.097772 -227.579952 
L 391.806998 -225.052524 
L 389.516224 -239.04301 
L 387.22545 -238.824812 
L 384.934675 -305.800502 
L 382.643901 -341.712653 
L 380.353127 -378.982517 
L 378.062353 -403.539335 
L 375.771578 -343.030044 
L 373.480804 -300.820892 
L 371.19003 -277.188726 
L 368.899256 -263.389957 
L 366.608482 -246.055895 
L 364.317707 -290.591633 
L 362.026933 -305.971239 
L 359.736159 -284.932799 
L 357.445385 -230.981254 
L 355.15461 -304.695207 
L 352.863836 -303.998574 
L 350.573062 -246.947581 
L 348.282288 -318.75847 
L 345.991513 -283.633859 
L 343.700739 -318.16634 
L 341.409965 -288.433054 
L 339.119191 -268.911386 
L 336.828417 -261.366095 
L 334.537642 -259.168971 
L 332.246868 -243.771982 
L 329.956094 -249.922825 
L 327.66532 -230.707279 
L 325.374545 -237.871818 
L 323.083771 -247.499251 
L 320.792997 -230.193636 
L 318.502223 -249.285543 
L 316.211449 -278.001513 
L 313.920674 -280.405777 
L 311.6299 -230.735062 
L 309.339126 -236.78507 
L 307.048352 -225.009523 
L 304.757577 -219.191208 
L 302.466803 -259.410957 
L 300.176029 -259.159187 
L 297.885255 -260.096993 
L 295.594481 -242.405381 
L 293.303706 -258.040988 
L 291.012932 -270.601555 
L 288.722158 -266.824148 
L 286.431384 -276.839883 
L 284.140609 -265.89719 
L 281.849835 -296.006735 
L 279.559061 -251.04712 
L 277.268287 -255.184098 
L 274.977512 -257.259494 
L 272.686738 -255.324819 
L 270.395964 -282.501164 
L 268.10519 -299.604362 
L 265.814416 -243.483695 
L 263.523641 -272.380888 
L 261.232867 -287.987356 
L 258.942093 -283.255916 
L 256.651319 -235.074087 
L 254.360544 -267.368904 
L 252.06977 -294.55324 
L 249.778996 -246.119767 
L 247.488222 -250.347944 
L 245.197448 -268.305402 
L 242.906673 -245.755522 
L 240.615899 -238.393346 
L 238.325125 -287.408389 
L 236.034351 -266.190418 
L 233.743576 -260.675188 
L 231.452802 -243.925867 
L 229.162028 -281.051121 
L 226.871254 -272.118474 
L 224.58048 -283.615009 
L 222.289705 -254.667299 
L 219.998931 -236.774303 
L 217.708157 -269.295189 
L 215.417383 -247.79214 
L 213.126608 -246.076042 
L 210.835834 -274.520473 
L 208.54506 -231.011721 
L 206.254286 -293.147142 
L 203.963511 -236.318679 
L 201.672737 -290.623354 
L 199.381963 -214.698419 
L 197.091189 -218.46305 
L 194.800415 -203.728937 
L 192.50964 -212.351193 
L 190.218866 -209.421257 
L 187.928092 -202.186983 
L 185.637318 -125.641984 
L 183.346543 -225.676273 
L 181.055769 -305.386281 
L 178.764995 -300.610161 
L 176.474221 -302.182783 
L 174.183447 -312.839675 
L 171.892672 -300.488009 
L 169.601898 -294.968998 
L 167.311124 -298.287682 
L 165.02035 -337.140148 
L 162.729575 -291.061939 
L 160.438801 -327.477558 
L 158.148027 -304.804214 
L 155.857253 -282.415942 
L 153.566479 -294.418717 
L 151.275704 -284.495683 
L 148.98493 -268.501788 
L 146.694156 -276.827665 
L 144.403382 -286.062529 
L 142.112607 -311.308005 
L 139.821833 -298.467501 
L 137.531059 -337.138471 
L 135.240285 -243.780666 
L 132.94951 -241.31013 
L 130.658736 -259.151532 
L 128.367962 -280.79828 
L 126.077188 -272.31384 
L 123.786414 -295.595694 
L 121.495639 -274.497898 
L 119.204865 -293.878292 
L 116.914091 -293.68582 
z
" style="stroke: #2d1e3e; stroke-opacity: 0.2"/>
    </defs>
    <g clip-path="url(#pf395844bef)">
     <use xlink:href="#m7a0d296d2d" x="0" y="576" style="fill: #2d1e3e; fill-opacity: 0.2; stroke: #2d1e3e; stroke-opacity: 0.2"/>
    </g>
   </g>
   <g id="line2d_47">
    <path d="M 116.914091 364.057187 
L 119.204865 366.164487 
L 121.495639 403.380988 
L 123.786414 390.694266 
L 126.077188 390.368301 
L 128.367962 381.391476 
L 130.658736 393.627104 
L 132.94951 362.157422 
L 135.240285 391.609524 
L 137.531059 392.446488 
L 139.821833 404.791868 
L 142.112607 371.637806 
L 144.403382 403.629823 
L 146.694156 391.102935 
L 148.98493 385.36591 
L 151.275704 388.225521 
L 153.566479 399.714755 
L 155.857253 382.728552 
L 158.148027 413.081077 
L 160.438801 362.45073 
L 162.729575 380.794312 
L 165.02035 380.683983 
L 167.311124 382.351325 
L 169.601898 365.405486 
L 171.892672 377.60943 
L 174.183447 388.399779 
L 176.474221 395.018496 
L 178.764995 385.58127 
L 181.055769 379.6468 
L 183.346543 380.071006 
L 185.637318 374.694783 
L 187.928092 383.418566 
L 190.218866 365.549621 
L 192.50964 374.542923 
L 194.800415 374.476896 
L 197.091189 366.897636 
L 199.381963 368.202129 
L 201.672737 366.332422 
L 203.963511 365.733692 
L 206.254286 373.862462 
L 208.54506 378.529181 
L 210.835834 469.892515 
L 213.126608 415.895078 
L 215.417383 413.242192 
L 217.708157 397.072111 
L 219.998931 382.277817 
L 222.289705 377.439891 
L 224.58048 397.55025 
L 226.871254 389.056249 
L 229.162028 383.017178 
L 231.452802 381.615046 
L 233.743576 385.680855 
L 236.034351 403.088243 
L 238.325125 384.284903 
L 240.615899 396.58994 
L 242.906673 396.391235 
L 245.197448 408.865611 
L 247.488222 391.119531 
L 249.778996 399.061757 
L 252.06977 386.867165 
L 254.360544 396.895157 
L 256.651319 391.956105 
L 258.942093 393.525915 
L 261.232867 385.8009 
L 263.523641 390.824591 
L 265.814416 398.345727 
L 268.10519 367.428973 
L 270.395964 385.978249 
L 272.686738 406.593312 
L 274.977512 411.586937 
L 277.268287 392.560975 
L 279.559061 401.631526 
L 281.849835 398.730243 
L 284.140609 405.93752 
L 286.431384 396.101646 
L 288.722158 400.338871 
L 291.012932 386.570066 
L 293.303706 389.53804 
L 295.594481 386.399774 
L 297.885255 408.025318 
L 300.176029 394.213441 
L 302.466803 387.823894 
L 304.757577 401.914874 
L 307.048352 386.453284 
L 309.339126 399.366595 
L 311.6299 408.875841 
L 313.920674 386.961362 
L 316.211449 390.635032 
L 318.502223 393.635657 
L 320.792997 399.140518 
L 323.083771 406.644931 
L 325.374545 401.571035 
L 327.66532 393.374343 
L 329.956094 406.180245 
L 332.246868 393.065099 
L 334.537642 390.303288 
L 336.828417 391.459489 
L 339.119191 380.248205 
L 341.409965 390.65936 
L 343.700739 390.542686 
L 345.991513 398.577449 
L 348.282288 400.686577 
L 350.573062 398.95714 
L 352.863836 392.554943 
L 355.15461 399.404982 
L 357.445385 386.570822 
L 359.736159 390.939523 
L 362.026933 397.758666 
L 364.317707 399.607368 
L 366.608482 386.431335 
L 368.899256 392.440058 
L 371.19003 383.819048 
L 373.480804 399.674443 
L 375.771578 393.920089 
L 378.062353 376.531641 
L 380.353127 389.422877 
L 382.643901 393.269319 
L 384.934675 383.321797 
L 387.22545 399.216828 
L 389.516224 402.347314 
L 391.806998 401.128566 
L 394.097772 418.780956 
L 396.388546 416.943883 
L 398.679321 404.68705 
L 400.970095 409.827477 
L 403.260869 379.27789 
L 405.551643 377.8154 
L 407.842418 388.041068 
L 410.133192 387.662215 
L 412.423966 359.886712 
L 414.71474 373.702153 
L 417.005514 395.07989 
L 419.296289 392.777491 
L 421.587063 393.30311 
L 423.877837 379.514808 
L 426.168611 398.08461 
L 428.459386 376.633633 
L 430.75016 371.382726 
L 433.040934 374.698206 
L 435.331708 383.622109 
L 437.622483 381.510223 
L 439.913257 387.530336 
L 442.204031 378.291193 
L 444.494805 363.275064 
L 446.785579 364.701998 
L 449.076354 383.789279 
L 451.367128 398.70669 
L 453.657902 397.609384 
L 455.948676 385.778296 
L 458.239451 407.265215 
L 460.530225 386.372242 
L 462.820999 215.761261 
L 465.111773 329.780433 
L 467.402547 320.951784 
L 469.693322 374.309597 
L 471.984096 358.96358 
L 474.27487 356.717295 
L 476.565644 361.107235 
L 478.856419 344.958779 
L 481.147193 367.923017 
L 483.437967 383.051217 
L 485.728741 385.125595 
L 488.019515 379.751484 
L 490.31029 368.966869 
L 492.601064 379.700361 
L 494.891838 381.452815 
L 497.182612 324.341559 
L 499.473387 352.717483 
L 501.764161 155.105944 
L 504.054935 292.662467 
L 506.345709 365.824043 
L 508.636484 385.579755 
L 510.927258 398.28284 
L 513.218032 397.340459 
L 515.508806 395.389833 
L 520.090355 413.007515 
L 522.381129 397.598035 
L 524.671903 390.675001 
L 526.962677 400.888393 
L 529.253452 389.812689 
L 531.544226 390.346283 
L 533.835 380.072346 
L 536.125774 387.642958 
L 538.416548 379.120482 
L 540.707323 388.849734 
L 542.998097 390.80554 
L 545.288871 385.366582 
L 549.87042 396.739056 
L 552.161194 391.295972 
L 556.742742 392.313012 
L 559.033516 375.883681 
L 561.324291 399.026234 
L 563.615065 402.036442 
L 565.905839 403.395665 
L 568.196613 405.430621 
L 570.487388 415.293089 
L 572.778162 406.100753 
L 575.068936 409.862394 
L 577.35971 401.660475 
L 579.650485 411.690656 
L 581.941259 406.05528 
L 584.232033 409.837164 
L 586.522807 412.328941 
L 588.813581 406.240813 
L 591.104356 398.989971 
L 593.39513 403.428022 
L 595.685904 406.702491 
L 597.976678 400.959539 
L 600.267453 400.232849 
L 602.558227 411.145831 
L 604.849001 402.529947 
L 607.139775 401.700515 
L 609.430549 385.948964 
L 611.721324 391.69142 
L 614.012098 403.684962 
L 616.302872 401.609547 
L 618.593646 396.500339 
L 620.884421 406.258595 
L 623.175195 395.541381 
L 625.465969 404.515415 
L 627.756743 394.470107 
L 630.047517 386.749308 
L 632.338292 400.478975 
L 634.629066 390.404742 
L 636.91984 401.940205 
L 639.210614 397.944001 
L 641.501389 394.649685 
L 643.792163 407.112911 
L 646.082937 399.565792 
L 648.373711 401.23585 
L 650.664486 405.708642 
L 652.95526 392.868218 
L 655.246034 401.876606 
L 657.536808 386.434883 
L 659.827582 382.455721 
L 662.118357 383.68432 
L 664.409131 373.449229 
L 666.699905 376.429882 
L 668.990679 379.616843 
L 671.281454 379.888301 
L 673.572228 359.553625 
L 675.863002 365.369758 
L 678.153776 384.05097 
L 680.44455 378.621152 
L 682.735325 398.765546 
L 685.026099 372.819856 
L 687.316873 394.993722 
L 689.607647 381.76095 
L 691.898422 337.704305 
L 694.189196 378.039855 
L 696.47997 386.306691 
L 698.770744 378.997209 
L 701.061518 366.824831 
L 705.643067 381.519257 
L 707.933841 363.855474 
L 710.224615 375.122996 
L 712.51539 375.298573 
L 714.806164 371.863198 
L 717.096938 383.163995 
L 719.387712 400.951983 
L 721.678487 380.058173 
L 723.969261 377.314798 
L 726.260035 375.748964 
L 728.550809 390.015318 
L 730.841583 376.819285 
L 733.132358 388.278423 
L 735.423132 373.269797 
L 737.713906 386.907645 
L 740.00468 401.584727 
L 742.295455 392.413361 
L 744.586229 404.852506 
L 746.877003 406.453589 
L 749.167777 410.672021 
L 751.458551 411.60975 
L 753.749326 384.338241 
L 756.0401 410.628767 
L 758.330874 380.267803 
L 760.621648 388.147427 
L 762.912423 388.566443 
L 765.203197 383.860501 
L 767.493971 393.056469 
L 769.784745 392.750497 
L 772.075519 396.313848 
L 774.366294 379.533093 
L 776.657068 392.986597 
L 778.947842 396.948616 
L 781.238616 382.121809 
L 783.529391 372.13609 
L 785.820165 338.130751 
L 788.110939 347.158458 
L 790.401713 330.027647 
L 792.692488 347.604292 
L 794.983262 370.738283 
L 797.274036 360.294562 
L 799.56481 354.54758 
L 801.855584 353.68985 
L 804.146359 354.885761 
L 806.437133 373.63249 
L 808.727907 380.023731 
L 811.018681 360.074786 
L 813.309456 261.705297 
L 815.60023 288.854027 
L 817.891004 268.150355 
L 820.181778 250.857596 
L 822.472552 308.113712 
L 824.763327 321.753508 
L 827.054101 351.124152 
L 829.344875 308.208324 
L 831.635649 343.573268 
L 833.926424 380.77413 
L 836.217198 203.508993 
L 838.507972 292.072627 
L 843.08952 337.159188 
L 845.380295 371.99519 
L 847.671069 392.653411 
L 849.961843 372.4242 
L 852.252617 375.328546 
L 854.543392 362.883216 
L 856.834166 370.249407 
L 859.12494 374.678582 
L 861.415714 351.677804 
L 863.706489 368.835224 
L 865.997263 371.907193 
L 868.288037 386.47952 
L 870.578811 380.315993 
L 872.869585 373.08269 
L 875.16036 364.928771 
L 877.451134 358.743198 
L 879.741908 370.600201 
L 882.032682 362.598064 
L 884.323457 373.450088 
L 886.614231 363.153036 
L 888.905005 364.047954 
L 891.195779 375.848037 
L 893.486553 376.444784 
L 895.777328 358.095107 
L 898.068102 371.948769 
L 900.358876 367.403993 
L 902.64965 345.357878 
L 904.940425 326.837932 
L 907.231199 213.623571 
L 909.521973 327.108425 
L 911.812747 366.27508 
L 914.103521 365.491318 
L 916.394296 365.468327 
L 918.68507 380.104766 
L 920.975844 351.678919 
L 923.266618 361.258508 
L 925.557393 367.821319 
L 927.848167 347.576075 
L 930.138941 359.735961 
L 932.429715 358.210341 
L 934.72049 348.42306 
L 937.011264 371.397339 
L 939.302038 357.740107 
L 941.592812 371.859909 
L 943.883586 353.166733 
L 946.174361 352.184472 
L 948.465135 354.893536 
L 950.755909 355.1785 
L 950.755909 355.1785 
" clip-path="url(#pf395844bef)" style="fill: none; stroke: #edd1cb; stroke-width: 1.5; stroke-linecap: round"/>
   </g>
   <g id="line2d_48">
    <path d="M 116.914091 342.845931 
L 119.204865 340.794274 
L 121.495639 365.860876 
L 123.786414 351.850101 
L 126.077188 361.283137 
L 128.367962 353.035132 
L 130.658736 360.383001 
L 132.94951 373.192899 
L 135.240285 369.851704 
L 137.531059 306.677059 
L 139.821833 337.642183 
L 142.112607 337.157542 
L 144.403382 349.715086 
L 146.694156 354.694478 
L 148.98493 354.838612 
L 151.275704 341.061097 
L 153.566479 344.323753 
L 155.857253 343.800748 
L 158.148027 327.123939 
L 160.438801 319.257791 
L 162.729575 336.789752 
L 165.02035 312.265808 
L 167.311124 329.304633 
L 169.601898 334.682731 
L 171.892672 325.137159 
L 174.183447 329.713828 
L 176.474221 338.677671 
L 178.764995 339.818235 
L 181.055769 336.190262 
L 183.346543 390.732006 
L 185.637318 462.79104 
L 187.928092 405.601553 
L 190.218866 404.812369 
L 192.50964 395.729158 
L 194.800415 405.337312 
L 197.091189 392.25667 
L 199.381963 393.851838 
L 201.672737 353.715347 
L 203.963511 377.236669 
L 206.254286 350.908843 
L 208.54506 376.84229 
L 210.835834 354.929674 
L 213.126608 371.21945 
L 215.417383 377.915716 
L 217.708157 360.107064 
L 219.998931 373.553179 
L 222.289705 368.987181 
L 224.58048 358.923645 
L 226.871254 358.752135 
L 229.162028 341.775837 
L 231.452802 369.895979 
L 233.743576 359.116917 
L 236.034351 354.777735 
L 238.325125 356.067579 
L 240.615899 374.287812 
L 242.906673 369.952856 
L 245.197448 355.875306 
L 247.488222 364.574939 
L 249.778996 371.114411 
L 252.06977 348.362334 
L 254.360544 358.898326 
L 256.651319 374.077774 
L 258.942093 344.869738 
L 261.232867 338.061915 
L 263.523641 360.332144 
L 265.814416 365.676943 
L 268.10519 337.184623 
L 270.395964 346.07511 
L 272.686738 366.400516 
L 274.977512 364.039072 
L 277.268287 364.077082 
L 279.559061 362.905448 
L 281.849835 341.616019 
L 284.140609 358.794153 
L 286.431384 351.831592 
L 288.722158 366.684254 
L 291.012932 360.034474 
L 293.303706 359.097915 
L 295.594481 372.319329 
L 297.885255 363.083448 
L 300.176029 358.257955 
L 302.466803 362.945665 
L 304.757577 386.915947 
L 307.048352 384.345008 
L 309.339126 377.274155 
L 311.6299 381.62508 
L 313.920674 359.590279 
L 316.211449 359.693366 
L 318.502223 374.185606 
L 320.792997 380.417633 
L 323.083771 370.155668 
L 327.66532 381.684047 
L 329.956094 370.841068 
L 332.246868 368.983813 
L 334.537642 360.944669 
L 336.828417 359.227126 
L 339.119191 354.57572 
L 341.409965 333.715153 
L 343.700739 329.508939 
L 345.991513 341.796016 
L 348.282288 332.591347 
L 350.573062 368.082291 
L 352.863836 338.354931 
L 355.15461 338.006002 
L 357.445385 380.863444 
L 359.736159 350.543519 
L 362.026933 328.191691 
L 364.317707 340.13027 
L 366.608482 366.014968 
L 368.899256 353.9758 
L 371.19003 349.202966 
L 373.480804 325.710441 
L 375.771578 299.839816 
L 378.062353 253.474419 
L 380.353127 265.331324 
L 384.934675 334.785051 
L 387.22545 380.311573 
L 389.516224 375.475683 
L 391.806998 385.400598 
L 394.097772 382.40999 
L 396.388546 366.652947 
L 398.679321 355.49137 
L 400.970095 355.592793 
L 403.260869 341.028625 
L 405.551643 360.429194 
L 407.842418 353.524278 
L 410.133192 340.718751 
L 412.423966 344.512774 
L 414.71474 336.460963 
L 417.005514 336.957555 
L 419.296289 334.67993 
L 421.587063 360.634509 
L 423.877837 372.539908 
L 426.168611 350.407321 
L 428.459386 322.954993 
L 430.75016 355.94908 
L 433.040934 334.641353 
L 435.331708 358.798893 
L 437.622483 344.302387 
L 439.913257 340.277866 
L 442.204031 357.86349 
L 444.494805 373.676452 
L 446.785579 355.719893 
L 451.367128 378.517783 
L 453.657902 378.094471 
L 455.948676 387.952386 
L 458.239451 397.265535 
L 460.530225 373.981443 
L 462.820999 251.376483 
L 465.111773 331.097148 
L 467.402547 336.575316 
L 469.693322 357.980083 
L 471.984096 366.352684 
L 474.27487 366.938774 
L 476.565644 328.8552 
L 478.856419 358.171723 
L 481.147193 363.041098 
L 483.437967 360.919706 
L 485.728741 345.655559 
L 488.019515 347.156351 
L 490.31029 346.145834 
L 492.601064 364.930781 
L 494.891838 318.888947 
L 497.182612 291.071588 
L 499.473387 324.87445 
L 501.764161 199.524777 
L 504.054935 297.902586 
L 506.345709 317.857632 
L 508.636484 366.009877 
L 510.927258 364.51956 
L 513.218032 347.40703 
L 515.508806 365.538285 
L 517.79958 366.404743 
L 520.090355 354.802242 
L 522.381129 371.577538 
L 524.671903 365.226402 
L 526.962677 375.297919 
L 529.253452 379.177502 
L 531.544226 369.821415 
L 533.835 356.826034 
L 536.125774 372.682666 
L 538.416548 360.205879 
L 540.707323 367.838839 
L 542.998097 367.079695 
L 545.288871 377.955747 
L 547.579645 372.025553 
L 549.87042 363.628317 
L 552.161194 366.86302 
L 554.451968 364.338547 
L 556.742742 360.032207 
L 559.033516 362.448502 
L 561.324291 356.763439 
L 563.615065 356.617352 
L 565.905839 356.824192 
L 568.196613 371.055744 
L 570.487388 367.070914 
L 572.778162 367.37269 
L 575.068936 357.006864 
L 577.35971 357.75696 
L 579.650485 375.258271 
L 581.941259 370.76093 
L 584.232033 374.652576 
L 586.522807 358.522596 
L 588.813581 359.125894 
L 591.104356 379.476308 
L 593.39513 385.235829 
L 595.685904 377.998631 
L 597.976678 366.516133 
L 600.267453 375.063959 
L 602.558227 371.585762 
L 604.849001 349.422041 
L 607.139775 376.539992 
L 609.430549 359.657975 
L 611.721324 381.031903 
L 614.012098 368.152378 
L 616.302872 382.287102 
L 618.593646 354.729419 
L 620.884421 373.300581 
L 623.175195 370.488658 
L 625.465969 378.028598 
L 627.756743 374.107775 
L 630.047517 377.787727 
L 632.338292 376.550283 
L 634.629066 356.581352 
L 636.91984 348.44034 
L 639.210614 376.635737 
L 641.501389 356.168005 
L 643.792163 354.376052 
L 646.082937 376.263136 
L 648.373711 361.322525 
L 650.664486 351.644249 
L 652.95526 365.665236 
L 655.246034 367.765427 
L 657.536808 360.667656 
L 659.827582 348.672017 
L 662.118357 363.32491 
L 664.409131 358.37716 
L 666.699905 332.223397 
L 671.281454 357.397315 
L 673.572228 348.876663 
L 675.863002 342.115607 
L 678.153776 347.376288 
L 680.44455 352.090614 
L 682.735325 332.89123 
L 685.026099 332.552632 
L 687.316873 317.179196 
L 689.607647 317.642527 
L 691.898422 339.790984 
L 694.189196 346.185126 
L 696.47997 364.110031 
L 698.770744 361.464494 
L 701.061518 354.919396 
L 703.352293 351.651739 
L 705.643067 363.166452 
L 707.933841 353.012388 
L 710.224615 335.782241 
L 712.51539 375.495864 
L 714.806164 357.932521 
L 717.096938 374.167985 
L 719.387712 359.743691 
L 721.678487 341.526348 
L 723.969261 347.743239 
L 726.260035 354.843806 
L 728.550809 358.062737 
L 730.841583 340.04573 
L 733.132358 352.772489 
L 735.423132 350.990656 
L 737.713906 360.176523 
L 740.00468 362.15757 
L 742.295455 365.353674 
L 744.586229 384.33868 
L 746.877003 375.823777 
L 749.167777 381.445784 
L 751.458551 377.432999 
L 753.749326 375.702341 
L 756.0401 364.315229 
L 758.330874 342.970162 
L 760.621648 359.064883 
L 762.912423 359.619386 
L 765.203197 373.445162 
L 767.493971 372.875838 
L 769.784745 362.957256 
L 772.075519 376.162918 
L 774.366294 378.699671 
L 776.657068 378.915721 
L 778.947842 378.843432 
L 781.238616 370.036032 
L 783.529391 386.384176 
L 785.820165 369.385933 
L 788.110939 343.346968 
L 790.401713 375.724603 
L 792.692488 383.743987 
L 794.983262 366.372133 
L 797.274036 375.184827 
L 799.56481 373.01772 
L 801.855584 365.473813 
L 804.146359 375.483206 
L 806.437133 397.311075 
L 808.727907 404.245326 
L 811.018681 368.147123 
L 813.309456 276.466017 
L 815.60023 321.003779 
L 817.891004 340.710517 
L 820.181778 354.039657 
L 822.472552 379.203737 
L 824.763327 357.416668 
L 827.054101 372.20889 
L 829.344875 358.099877 
L 831.635649 391.212288 
L 833.926424 353.465972 
L 836.217198 261.616684 
L 838.507972 313.320965 
L 840.798746 347.052542 
L 843.08952 376.885609 
L 845.380295 391.028622 
L 847.671069 399.792733 
L 849.961843 383.486604 
L 852.252617 398.221289 
L 854.543392 392.3825 
L 856.834166 393.658698 
L 859.12494 397.59526 
L 861.415714 408.392226 
L 863.706489 414.981943 
L 865.997263 402.472397 
L 868.288037 426.445903 
L 870.578811 427.072666 
L 872.869585 431.51302 
L 875.16036 439.310523 
L 877.451134 445.429309 
L 879.741908 453.563416 
L 882.032682 387.256923 
L 884.323457 406.054609 
L 886.614231 403.946815 
L 888.905005 391.897827 
L 891.195779 390.301299 
L 893.486553 388.427457 
L 895.777328 402.559709 
L 898.068102 407.560531 
L 900.358876 390.388907 
L 902.64965 392.542347 
L 904.940425 378.261481 
L 907.231199 387.289583 
L 909.521973 404.341929 
L 911.812747 408.494958 
L 914.103521 408.106314 
L 916.394296 397.495026 
L 918.68507 392.847868 
L 920.975844 385.950784 
L 923.266618 386.637548 
L 925.557393 388.149546 
L 927.848167 389.055898 
L 930.138941 391.400156 
L 932.429715 389.136678 
L 934.72049 397.941422 
L 937.011264 395.205652 
L 939.302038 391.893026 
L 941.592812 388.948836 
L 943.883586 394.126829 
L 946.174361 396.140341 
L 948.465135 375.042694 
L 950.755909 388.904355 
L 950.755909 388.904355 
" clip-path="url(#pf395844bef)" style="fill: none; stroke: #2d1e3e; stroke-width: 1.5; stroke-linecap: round"/>
   </g>
   <g id="line2d_49"/>
   <g id="line2d_50"/>
   <g id="patch_3">
    <path d="M 75.222 501.03675 
L 75.222 15.552 
" style="fill: none; stroke: #cccccc; stroke-width: 1.25; stroke-linejoin: miter; stroke-linecap: square"/>
   </g>
   <g id="patch_4">
    <path d="M 992.448 501.03675 
L 992.448 15.552 
" style="fill: none; stroke: #cccccc; stroke-width: 1.25; stroke-linejoin: miter; stroke-linecap: square"/>
   </g>
   <g id="patch_5">
    <path d="M 75.222 501.03675 
L 992.448 501.03675 
" style="fill: none; stroke: #cccccc; stroke-width: 1.25; stroke-linejoin: miter; stroke-linecap: square"/>
   </g>
   <g id="patch_6">
    <path d="M 75.222 15.552 
L 992.448 15.552 
" style="fill: none; stroke: #cccccc; stroke-width: 1.25; stroke-linejoin: miter; stroke-linecap: square"/>
   </g>
   <g id="legend_1">
    <g id="patch_7">
     <path d="M 914.568 80.967 
L 983.208 80.967 
Q 985.848 80.967 985.848 78.327 
L 985.848 24.792 
Q 985.848 22.152 983.208 22.152 
L 914.568 22.152 
Q 911.928 22.152 911.928 24.792 
L 911.928 78.327 
Q 911.928 80.967 914.568 80.967 
z
" style="fill: #ffffff; opacity: 0.8; stroke: #cccccc; stroke-linejoin: miter"/>
    </g>
    <g id="text_49">
     <!-- 年份 -->
     <g style="fill: #262626" transform="translate(934.488 38.907) scale(0.144 -0.144)">
      <defs>
       <path id="SimHei-5e74" d="M 350 2925 
Q 900 3450 1375 4200 
Q 1850 4950 1900 5275 
Q 2275 5125 2600 5050 
Q 2375 4825 2100 4325 
L 4625 4325 
Q 5175 4325 5750 4350 
L 5750 3925 
Q 5225 3950 4625 3950 
L 3800 3950 
L 3800 2925 
Q 4750 2925 5475 2950 
L 5475 2525 
Q 4725 2550 3800 2550 
L 3800 1375 
L 5075 1375 
Q 5625 1375 6100 1400 
L 6100 975 
Q 5650 1000 5075 1000 
L 3800 1000 
L 3800 425 
Q 3800 -150 3825 -625 
L 3275 -625 
Q 3300 -150 3300 375 
L 3300 1000 
L 1600 1000 
Q 900 1000 275 975 
L 275 1400 
Q 875 1375 1450 1375 
Q 1450 2350 1425 2925 
L 3300 2925 
L 3300 3950 
L 1875 3950 
Q 1350 3150 925 2650 
Q 650 2875 350 2925 
z
M 3300 1375 
L 3300 2550 
L 1925 2550 
L 1925 1375 
L 3300 1375 
z
" transform="scale(0.015625)"/>
       <path id="SimHei-4efd" d="M 4750 5100 
Q 4875 4375 5250 3650 
Q 5625 2925 6200 2450 
Q 6025 2375 5775 2075 
Q 5600 2275 5350 2575 
Q 5300 2275 5275 1312 
Q 5250 350 5187 25 
Q 5125 -300 4850 -400 
Q 4575 -500 4075 -550 
Q 4000 -250 3875 0 
Q 4400 -25 4575 25 
Q 4750 75 4775 587 
Q 4800 1100 4825 2250 
L 3700 2250 
Q 3675 1300 3425 650 
Q 3175 0 2375 -625 
Q 2175 -350 2000 -225 
Q 2750 225 2987 800 
Q 3225 1375 3225 2250 
Q 3000 2250 2675 2225 
L 2675 2575 
Q 2475 2300 2150 1950 
Q 2000 2150 1750 2300 
Q 2875 3275 3225 4875 
Q 3450 4775 3750 4675 
Q 3625 4400 3425 3887 
Q 3225 3375 2775 2700 
Q 3050 2675 3400 2675 
L 5300 2675 
Q 4575 3625 4275 4975 
Q 4575 5025 4750 5100 
z
M 225 2525 
Q 575 2875 1025 3687 
Q 1475 4500 1650 5225 
Q 1975 5075 2200 4975 
Q 2050 4750 1600 3775 
L 1600 625 
Q 1600 75 1625 -575 
L 1100 -575 
Q 1125 50 1125 625 
L 1125 2925 
Q 775 2400 575 2175 
Q 425 2350 225 2525 
z
" transform="scale(0.015625)"/>
      </defs>
      <use xlink:href="#SimHei-5e74"/>
      <use xlink:href="#SimHei-4efd" x="100"/>
     </g>
    </g>
    <g id="line2d_51">
     <path d="M 917.208 51.927 
L 930.408 51.927 
L 943.608 51.927 
" style="fill: none; stroke: #edd1cb; stroke-width: 1.5; stroke-linecap: round"/>
    </g>
    <g id="text_50">
     <!-- 2021 -->
     <g style="fill: #262626" transform="translate(954.168 56.547) scale(0.132 -0.132)">
      <use xlink:href="#SimHei-32"/>
      <use xlink:href="#SimHei-30" x="50"/>
      <use xlink:href="#SimHei-32" x="100"/>
      <use xlink:href="#SimHei-31" x="150"/>
     </g>
    </g>
    <g id="line2d_52">
     <path d="M 917.208 69.417 
L 930.408 69.417 
L 943.608 69.417 
" style="fill: none; stroke: #2d1e3e; stroke-width: 1.5; stroke-linecap: round"/>
    </g>
    <g id="text_51">
     <!-- 2022 -->
     <g style="fill: #262626" transform="translate(954.168 74.037) scale(0.132 -0.132)">
      <use xlink:href="#SimHei-32"/>
      <use xlink:href="#SimHei-30" x="50"/>
      <use xlink:href="#SimHei-32" x="100"/>
      <use xlink:href="#SimHei-32" x="150"/>
     </g>
    </g>
   </g>
  </g>
 </g>
 <defs>
  <clipPath id="pf395844bef">
   <rect x="75.222" y="15.552" width="917.226" height="485.48475"/>
  </clipPath>
 </defs>
</svg>
