<?xml version="1.0" encoding="utf-8" standalone="no"?>
<!DOCTYPE svg PUBLIC "-//W3C//DTD SVG 1.1//EN"
  "http://www.w3.org/Graphics/SVG/1.1/DTD/svg11.dtd">
<svg xmlns:xlink="http://www.w3.org/1999/xlink" width="1008pt" height="576pt" viewBox="0 0 1008 576" xmlns="http://www.w3.org/2000/svg" version="1.1">
 <metadata>
  <rdf:RDF xmlns:dc="http://purl.org/dc/elements/1.1/" xmlns:cc="http://creativecommons.org/ns#" xmlns:rdf="http://www.w3.org/1999/02/22-rdf-syntax-ns#">
   <cc:Work>
    <dc:type rdf:resource="http://purl.org/dc/dcmitype/StillImage"/>
    <dc:date>2023-04-14T12:56:09.062665</dc:date>
    <dc:format>image/svg+xml</dc:format>
    <dc:creator>
     <cc:Agent>
      <dc:title>Matplotlib v3.7.1, https://matplotlib.org/</dc:title>
     </cc:Agent>
    </dc:creator>
   </cc:Work>
  </rdf:RDF>
 </metadata>
 <defs>
  <style type="text/css">*{stroke-linejoin: round; stroke-linecap: butt}</style>
 </defs>
 <g id="figure_1">
  <g id="patch_1">
   <path d="M 0 576 
L 1008 576 
L 1008 0 
L 0 0 
z
" style="fill: #ffffff"/>
  </g>
  <g id="axes_1">
   <g id="patch_2">
    <path d="M 75.222 501.03675 
L 992.448 501.03675 
L 992.448 15.552 
L 75.222 15.552 
z
" style="fill: #ffffff"/>
   </g>
   <g id="matplotlib.axis_1">
    <g id="xtick_1">
     <g id="line2d_1">
      <path d="M 116.914091 501.03675 
L 116.914091 15.552 
" clip-path="url(#p22d6670457)" style="fill: none; stroke: #cccccc; stroke-linecap: round"/>
     </g>
     <g id="text_1">
      <!-- 01-01 -->
      <g style="fill: #262626" transform="translate(120.626591 543.53675) rotate(-90) scale(0.132 -0.132)">
       <defs>
        <path id="SimHei-30" d="M 225 2537 
Q 250 3200 412 3587 
Q 575 3975 875 4225 
Q 1175 4475 1612 4475 
Q 2050 4475 2375 4112 
Q 2700 3750 2800 3200 
Q 2900 2650 2862 1937 
Q 2825 1225 2612 775 
Q 2400 325 1975 150 
Q 1550 -25 1125 187 
Q 700 400 525 750 
Q 350 1100 275 1487 
Q 200 1875 225 2537 
z
M 750 2687 
Q 675 2000 800 1462 
Q 925 925 1212 700 
Q 1500 475 1800 612 
Q 2100 750 2237 1162 
Q 2375 1575 2375 2062 
Q 2375 2550 2337 2950 
Q 2300 3350 2112 3675 
Q 1925 4000 1612 4012 
Q 1300 4025 1062 3700 
Q 825 3375 750 2687 
z
" transform="scale(0.015625)"/>
        <path id="SimHei-31" d="M 1400 3600 
Q 1075 3275 575 2975 
L 575 3450 
Q 1200 3875 1600 4450 
L 1900 4450 
L 1900 150 
L 1400 150 
L 1400 3600 
z
" transform="scale(0.015625)"/>
        <path id="SimHei-2d" d="M 2975 2125 
L 125 2125 
L 125 2525 
L 2975 2525 
L 2975 2125 
z
" transform="scale(0.015625)"/>
       </defs>
       <use xlink:href="#SimHei-30"/>
       <use xlink:href="#SimHei-31" x="50"/>
       <use xlink:href="#SimHei-2d" x="100"/>
       <use xlink:href="#SimHei-30" x="150"/>
       <use xlink:href="#SimHei-31" x="200"/>
      </g>
     </g>
    </g>
    <g id="xtick_2">
     <g id="line2d_2">
      <path d="M 139.821833 501.03675 
L 139.821833 15.552 
" clip-path="url(#p22d6670457)" style="fill: none; stroke: #cccccc; stroke-linecap: round"/>
     </g>
     <g id="text_2">
      <!-- 01-11 -->
      <g style="fill: #262626" transform="translate(143.534333 543.53675) rotate(-90) scale(0.132 -0.132)">
       <use xlink:href="#SimHei-30"/>
       <use xlink:href="#SimHei-31" x="50"/>
       <use xlink:href="#SimHei-2d" x="100"/>
       <use xlink:href="#SimHei-31" x="150"/>
       <use xlink:href="#SimHei-31" x="200"/>
      </g>
     </g>
    </g>
    <g id="xtick_3">
     <g id="line2d_3">
      <path d="M 162.729575 501.03675 
L 162.729575 15.552 
" clip-path="url(#p22d6670457)" style="fill: none; stroke: #cccccc; stroke-linecap: round"/>
     </g>
     <g id="text_3">
      <!-- 01-21 -->
      <g style="fill: #262626" transform="translate(166.442075 543.53675) rotate(-90) scale(0.132 -0.132)">
       <defs>
        <path id="SimHei-32" d="M 300 250 
Q 325 625 650 925 
Q 975 1225 1475 1862 
Q 1975 2500 2125 2850 
Q 2275 3200 2237 3450 
Q 2200 3700 2000 3862 
Q 1800 4025 1537 4000 
Q 1275 3975 1037 3800 
Q 800 3625 675 3275 
L 200 3350 
Q 400 3925 712 4187 
Q 1025 4450 1450 4475 
Q 1700 4500 1900 4462 
Q 2100 4425 2312 4287 
Q 2525 4150 2662 3875 
Q 2800 3600 2762 3212 
Q 2725 2825 2375 2287 
Q 2025 1750 1025 600 
L 2825 600 
L 2825 150 
L 300 150 
L 300 250 
z
" transform="scale(0.015625)"/>
       </defs>
       <use xlink:href="#SimHei-30"/>
       <use xlink:href="#SimHei-31" x="50"/>
       <use xlink:href="#SimHei-2d" x="100"/>
       <use xlink:href="#SimHei-32" x="150"/>
       <use xlink:href="#SimHei-31" x="200"/>
      </g>
     </g>
    </g>
    <g id="xtick_4">
     <g id="line2d_4">
      <path d="M 185.637318 501.03675 
L 185.637318 15.552 
" clip-path="url(#p22d6670457)" style="fill: none; stroke: #cccccc; stroke-linecap: round"/>
     </g>
     <g id="text_4">
      <!-- 01-31 -->
      <g style="fill: #262626" transform="translate(189.349818 543.53675) rotate(-90) scale(0.132 -0.132)">
       <defs>
        <path id="SimHei-33" d="M 250 1225 
L 700 1300 
Q 800 975 1025 762 
Q 1250 550 1587 562 
Q 1925 575 2125 837 
Q 2325 1100 2300 1437 
Q 2275 1775 2037 1962 
Q 1800 2150 1275 2225 
L 1275 2550 
Q 1800 2600 2037 2825 
Q 2275 3050 2250 3412 
Q 2225 3775 1925 3937 
Q 1625 4100 1287 3975 
Q 950 3850 750 3275 
L 300 3350 
Q 450 3800 712 4100 
Q 975 4400 1425 4450 
Q 1875 4500 2212 4337 
Q 2550 4175 2687 3837 
Q 2825 3500 2725 3100 
Q 2625 2700 2150 2400 
Q 2500 2250 2687 1950 
Q 2875 1650 2812 1162 
Q 2750 675 2375 375 
Q 2000 75 1525 87 
Q 1050 100 700 387 
Q 350 675 250 1225 
z
" transform="scale(0.015625)"/>
       </defs>
       <use xlink:href="#SimHei-30"/>
       <use xlink:href="#SimHei-31" x="50"/>
       <use xlink:href="#SimHei-2d" x="100"/>
       <use xlink:href="#SimHei-33" x="150"/>
       <use xlink:href="#SimHei-31" x="200"/>
      </g>
     </g>
    </g>
    <g id="xtick_5">
     <g id="line2d_5">
      <path d="M 208.54506 501.03675 
L 208.54506 15.552 
" clip-path="url(#p22d6670457)" style="fill: none; stroke: #cccccc; stroke-linecap: round"/>
     </g>
     <g id="text_5">
      <!-- 02-10 -->
      <g style="fill: #262626" transform="translate(212.25756 543.53675) rotate(-90) scale(0.132 -0.132)">
       <use xlink:href="#SimHei-30"/>
       <use xlink:href="#SimHei-32" x="50"/>
       <use xlink:href="#SimHei-2d" x="100"/>
       <use xlink:href="#SimHei-31" x="150"/>
       <use xlink:href="#SimHei-30" x="200"/>
      </g>
     </g>
    </g>
    <g id="xtick_6">
     <g id="line2d_6">
      <path d="M 231.452802 501.03675 
L 231.452802 15.552 
" clip-path="url(#p22d6670457)" style="fill: none; stroke: #cccccc; stroke-linecap: round"/>
     </g>
     <g id="text_6">
      <!-- 02-20 -->
      <g style="fill: #262626" transform="translate(235.165302 543.53675) rotate(-90) scale(0.132 -0.132)">
       <use xlink:href="#SimHei-30"/>
       <use xlink:href="#SimHei-32" x="50"/>
       <use xlink:href="#SimHei-2d" x="100"/>
       <use xlink:href="#SimHei-32" x="150"/>
       <use xlink:href="#SimHei-30" x="200"/>
      </g>
     </g>
    </g>
    <g id="xtick_7">
     <g id="line2d_7">
      <path d="M 254.360544 501.03675 
L 254.360544 15.552 
" clip-path="url(#p22d6670457)" style="fill: none; stroke: #cccccc; stroke-linecap: round"/>
     </g>
     <g id="text_7">
      <!-- 03-02 -->
      <g style="fill: #262626" transform="translate(258.073044 543.53675) rotate(-90) scale(0.132 -0.132)">
       <use xlink:href="#SimHei-30"/>
       <use xlink:href="#SimHei-33" x="50"/>
       <use xlink:href="#SimHei-2d" x="100"/>
       <use xlink:href="#SimHei-30" x="150"/>
       <use xlink:href="#SimHei-32" x="200"/>
      </g>
     </g>
    </g>
    <g id="xtick_8">
     <g id="line2d_8">
      <path d="M 277.268287 501.03675 
L 277.268287 15.552 
" clip-path="url(#p22d6670457)" style="fill: none; stroke: #cccccc; stroke-linecap: round"/>
     </g>
     <g id="text_8">
      <!-- 03-12 -->
      <g style="fill: #262626" transform="translate(280.980787 543.53675) rotate(-90) scale(0.132 -0.132)">
       <use xlink:href="#SimHei-30"/>
       <use xlink:href="#SimHei-33" x="50"/>
       <use xlink:href="#SimHei-2d" x="100"/>
       <use xlink:href="#SimHei-31" x="150"/>
       <use xlink:href="#SimHei-32" x="200"/>
      </g>
     </g>
    </g>
    <g id="xtick_9">
     <g id="line2d_9">
      <path d="M 300.176029 501.03675 
L 300.176029 15.552 
" clip-path="url(#p22d6670457)" style="fill: none; stroke: #cccccc; stroke-linecap: round"/>
     </g>
     <g id="text_9">
      <!-- 03-22 -->
      <g style="fill: #262626" transform="translate(303.888529 543.53675) rotate(-90) scale(0.132 -0.132)">
       <use xlink:href="#SimHei-30"/>
       <use xlink:href="#SimHei-33" x="50"/>
       <use xlink:href="#SimHei-2d" x="100"/>
       <use xlink:href="#SimHei-32" x="150"/>
       <use xlink:href="#SimHei-32" x="200"/>
      </g>
     </g>
    </g>
    <g id="xtick_10">
     <g id="line2d_10">
      <path d="M 323.083771 501.03675 
L 323.083771 15.552 
" clip-path="url(#p22d6670457)" style="fill: none; stroke: #cccccc; stroke-linecap: round"/>
     </g>
     <g id="text_10">
      <!-- 04-01 -->
      <g style="fill: #262626" transform="translate(326.796271 543.53675) rotate(-90) scale(0.132 -0.132)">
       <defs>
        <path id="SimHei-34" d="M 2000 1100 
L 75 1100 
L 75 1525 
L 2100 4450 
L 2475 4450 
L 2475 1525 
L 3075 1525 
L 3075 1100 
L 2475 1100 
L 2475 150 
L 2000 150 
L 2000 1100 
z
M 2000 1525 
L 2000 3500 
L 600 1525 
L 2000 1525 
z
" transform="scale(0.015625)"/>
       </defs>
       <use xlink:href="#SimHei-30"/>
       <use xlink:href="#SimHei-34" x="50"/>
       <use xlink:href="#SimHei-2d" x="100"/>
       <use xlink:href="#SimHei-30" x="150"/>
       <use xlink:href="#SimHei-31" x="200"/>
      </g>
     </g>
    </g>
    <g id="xtick_11">
     <g id="line2d_11">
      <path d="M 345.991513 501.03675 
L 345.991513 15.552 
" clip-path="url(#p22d6670457)" style="fill: none; stroke: #cccccc; stroke-linecap: round"/>
     </g>
     <g id="text_11">
      <!-- 04-11 -->
      <g style="fill: #262626" transform="translate(349.704013 543.53675) rotate(-90) scale(0.132 -0.132)">
       <use xlink:href="#SimHei-30"/>
       <use xlink:href="#SimHei-34" x="50"/>
       <use xlink:href="#SimHei-2d" x="100"/>
       <use xlink:href="#SimHei-31" x="150"/>
       <use xlink:href="#SimHei-31" x="200"/>
      </g>
     </g>
    </g>
    <g id="xtick_12">
     <g id="line2d_12">
      <path d="M 368.899256 501.03675 
L 368.899256 15.552 
" clip-path="url(#p22d6670457)" style="fill: none; stroke: #cccccc; stroke-linecap: round"/>
     </g>
     <g id="text_12">
      <!-- 04-21 -->
      <g style="fill: #262626" transform="translate(372.611756 543.53675) rotate(-90) scale(0.132 -0.132)">
       <use xlink:href="#SimHei-30"/>
       <use xlink:href="#SimHei-34" x="50"/>
       <use xlink:href="#SimHei-2d" x="100"/>
       <use xlink:href="#SimHei-32" x="150"/>
       <use xlink:href="#SimHei-31" x="200"/>
      </g>
     </g>
    </g>
    <g id="xtick_13">
     <g id="line2d_13">
      <path d="M 391.806998 501.03675 
L 391.806998 15.552 
" clip-path="url(#p22d6670457)" style="fill: none; stroke: #cccccc; stroke-linecap: round"/>
     </g>
     <g id="text_13">
      <!-- 05-01 -->
      <g style="fill: #262626" transform="translate(395.519498 543.53675) rotate(-90) scale(0.132 -0.132)">
       <defs>
        <path id="SimHei-35" d="M 550 1325 
Q 725 650 1150 575 
Q 1575 500 1837 662 
Q 2100 825 2212 1087 
Q 2325 1350 2312 1675 
Q 2300 2000 2137 2225 
Q 1975 2450 1725 2525 
Q 1475 2600 1162 2525 
Q 850 2450 650 2175 
L 225 2225 
Q 275 2375 700 4375 
L 2675 4375 
L 2675 3925 
L 1075 3925 
Q 950 3250 825 2850 
Q 1200 3025 1525 3012 
Q 1850 3000 2150 2862 
Q 2450 2725 2587 2487 
Q 2725 2250 2787 2012 
Q 2850 1775 2837 1500 
Q 2825 1225 2725 937 
Q 2625 650 2425 462 
Q 2225 275 1937 162 
Q 1650 50 1275 75 
Q 900 100 562 350 
Q 225 600 100 1200 
L 550 1325 
z
" transform="scale(0.015625)"/>
       </defs>
       <use xlink:href="#SimHei-30"/>
       <use xlink:href="#SimHei-35" x="50"/>
       <use xlink:href="#SimHei-2d" x="100"/>
       <use xlink:href="#SimHei-30" x="150"/>
       <use xlink:href="#SimHei-31" x="200"/>
      </g>
     </g>
    </g>
    <g id="xtick_14">
     <g id="line2d_14">
      <path d="M 414.71474 501.03675 
L 414.71474 15.552 
" clip-path="url(#p22d6670457)" style="fill: none; stroke: #cccccc; stroke-linecap: round"/>
     </g>
     <g id="text_14">
      <!-- 05-11 -->
      <g style="fill: #262626" transform="translate(418.42724 543.53675) rotate(-90) scale(0.132 -0.132)">
       <use xlink:href="#SimHei-30"/>
       <use xlink:href="#SimHei-35" x="50"/>
       <use xlink:href="#SimHei-2d" x="100"/>
       <use xlink:href="#SimHei-31" x="150"/>
       <use xlink:href="#SimHei-31" x="200"/>
      </g>
     </g>
    </g>
    <g id="xtick_15">
     <g id="line2d_15">
      <path d="M 437.622483 501.03675 
L 437.622483 15.552 
" clip-path="url(#p22d6670457)" style="fill: none; stroke: #cccccc; stroke-linecap: round"/>
     </g>
     <g id="text_15">
      <!-- 05-21 -->
      <g style="fill: #262626" transform="translate(441.334983 543.53675) rotate(-90) scale(0.132 -0.132)">
       <use xlink:href="#SimHei-30"/>
       <use xlink:href="#SimHei-35" x="50"/>
       <use xlink:href="#SimHei-2d" x="100"/>
       <use xlink:href="#SimHei-32" x="150"/>
       <use xlink:href="#SimHei-31" x="200"/>
      </g>
     </g>
    </g>
    <g id="xtick_16">
     <g id="line2d_16">
      <path d="M 460.530225 501.03675 
L 460.530225 15.552 
" clip-path="url(#p22d6670457)" style="fill: none; stroke: #cccccc; stroke-linecap: round"/>
     </g>
     <g id="text_16">
      <!-- 05-31 -->
      <g style="fill: #262626" transform="translate(464.242725 543.53675) rotate(-90) scale(0.132 -0.132)">
       <use xlink:href="#SimHei-30"/>
       <use xlink:href="#SimHei-35" x="50"/>
       <use xlink:href="#SimHei-2d" x="100"/>
       <use xlink:href="#SimHei-33" x="150"/>
       <use xlink:href="#SimHei-31" x="200"/>
      </g>
     </g>
    </g>
    <g id="xtick_17">
     <g id="line2d_17">
      <path d="M 483.437967 501.03675 
L 483.437967 15.552 
" clip-path="url(#p22d6670457)" style="fill: none; stroke: #cccccc; stroke-linecap: round"/>
     </g>
     <g id="text_17">
      <!-- 06-10 -->
      <g style="fill: #262626" transform="translate(487.150467 543.53675) rotate(-90) scale(0.132 -0.132)">
       <defs>
        <path id="SimHei-36" d="M 250 1612 
Q 275 1975 387 2225 
Q 500 2475 725 2850 
L 1750 4450 
L 2325 4450 
L 1275 2800 
Q 1950 2975 2350 2750 
Q 2750 2525 2887 2237 
Q 3025 1950 3037 1612 
Q 3050 1275 2937 950 
Q 2825 625 2537 362 
Q 2250 100 1737 75 
Q 1225 50 862 262 
Q 500 475 362 862 
Q 225 1250 250 1612 
z
M 1025 787 
Q 1250 550 1625 525 
Q 2000 500 2250 775 
Q 2500 1050 2500 1575 
Q 2500 2100 2187 2300 
Q 1875 2500 1487 2450 
Q 1100 2400 925 2075 
Q 750 1750 775 1387 
Q 800 1025 1025 787 
z
" transform="scale(0.015625)"/>
       </defs>
       <use xlink:href="#SimHei-30"/>
       <use xlink:href="#SimHei-36" x="50"/>
       <use xlink:href="#SimHei-2d" x="100"/>
       <use xlink:href="#SimHei-31" x="150"/>
       <use xlink:href="#SimHei-30" x="200"/>
      </g>
     </g>
    </g>
    <g id="xtick_18">
     <g id="line2d_18">
      <path d="M 506.345709 501.03675 
L 506.345709 15.552 
" clip-path="url(#p22d6670457)" style="fill: none; stroke: #cccccc; stroke-linecap: round"/>
     </g>
     <g id="text_18">
      <!-- 06-20 -->
      <g style="fill: #262626" transform="translate(510.058209 543.53675) rotate(-90) scale(0.132 -0.132)">
       <use xlink:href="#SimHei-30"/>
       <use xlink:href="#SimHei-36" x="50"/>
       <use xlink:href="#SimHei-2d" x="100"/>
       <use xlink:href="#SimHei-32" x="150"/>
       <use xlink:href="#SimHei-30" x="200"/>
      </g>
     </g>
    </g>
    <g id="xtick_19">
     <g id="line2d_19">
      <path d="M 529.253452 501.03675 
L 529.253452 15.552 
" clip-path="url(#p22d6670457)" style="fill: none; stroke: #cccccc; stroke-linecap: round"/>
     </g>
     <g id="text_19">
      <!-- 06-30 -->
      <g style="fill: #262626" transform="translate(532.965952 543.53675) rotate(-90) scale(0.132 -0.132)">
       <use xlink:href="#SimHei-30"/>
       <use xlink:href="#SimHei-36" x="50"/>
       <use xlink:href="#SimHei-2d" x="100"/>
       <use xlink:href="#SimHei-33" x="150"/>
       <use xlink:href="#SimHei-30" x="200"/>
      </g>
     </g>
    </g>
    <g id="xtick_20">
     <g id="line2d_20">
      <path d="M 552.161194 501.03675 
L 552.161194 15.552 
" clip-path="url(#p22d6670457)" style="fill: none; stroke: #cccccc; stroke-linecap: round"/>
     </g>
     <g id="text_20">
      <!-- 07-10 -->
      <g style="fill: #262626" transform="translate(555.873694 543.53675) rotate(-90) scale(0.132 -0.132)">
       <defs>
        <path id="SimHei-37" d="M 850 150 
Q 1300 2050 2425 3925 
L 275 3925 
L 275 4375 
L 2950 4375 
L 2950 3950 
Q 1775 2050 1400 150 
L 850 150 
z
" transform="scale(0.015625)"/>
       </defs>
       <use xlink:href="#SimHei-30"/>
       <use xlink:href="#SimHei-37" x="50"/>
       <use xlink:href="#SimHei-2d" x="100"/>
       <use xlink:href="#SimHei-31" x="150"/>
       <use xlink:href="#SimHei-30" x="200"/>
      </g>
     </g>
    </g>
    <g id="xtick_21">
     <g id="line2d_21">
      <path d="M 575.068936 501.03675 
L 575.068936 15.552 
" clip-path="url(#p22d6670457)" style="fill: none; stroke: #cccccc; stroke-linecap: round"/>
     </g>
     <g id="text_21">
      <!-- 07-20 -->
      <g style="fill: #262626" transform="translate(578.781436 543.53675) rotate(-90) scale(0.132 -0.132)">
       <use xlink:href="#SimHei-30"/>
       <use xlink:href="#SimHei-37" x="50"/>
       <use xlink:href="#SimHei-2d" x="100"/>
       <use xlink:href="#SimHei-32" x="150"/>
       <use xlink:href="#SimHei-30" x="200"/>
      </g>
     </g>
    </g>
    <g id="xtick_22">
     <g id="line2d_22">
      <path d="M 597.976678 501.03675 
L 597.976678 15.552 
" clip-path="url(#p22d6670457)" style="fill: none; stroke: #cccccc; stroke-linecap: round"/>
     </g>
     <g id="text_22">
      <!-- 07-30 -->
      <g style="fill: #262626" transform="translate(601.689178 543.53675) rotate(-90) scale(0.132 -0.132)">
       <use xlink:href="#SimHei-30"/>
       <use xlink:href="#SimHei-37" x="50"/>
       <use xlink:href="#SimHei-2d" x="100"/>
       <use xlink:href="#SimHei-33" x="150"/>
       <use xlink:href="#SimHei-30" x="200"/>
      </g>
     </g>
    </g>
    <g id="xtick_23">
     <g id="line2d_23">
      <path d="M 620.884421 501.03675 
L 620.884421 15.552 
" clip-path="url(#p22d6670457)" style="fill: none; stroke: #cccccc; stroke-linecap: round"/>
     </g>
     <g id="text_23">
      <!-- 08-09 -->
      <g style="fill: #262626" transform="translate(624.596921 543.53675) rotate(-90) scale(0.132 -0.132)">
       <defs>
        <path id="SimHei-38" d="M 175 1375 
Q 175 1675 325 1962 
Q 475 2250 825 2425 
Q 525 2600 425 2812 
Q 325 3025 312 3300 
Q 300 3575 387 3775 
Q 475 3975 650 4150 
Q 825 4325 1037 4387 
Q 1250 4450 1500 4450 
Q 1750 4450 1950 4400 
Q 2150 4350 2375 4187 
Q 2600 4025 2700 3725 
Q 2800 3425 2687 3025 
Q 2575 2625 2100 2400 
Q 2525 2275 2700 2012 
Q 2875 1750 2875 1375 
Q 2875 1000 2762 775 
Q 2650 550 2512 400 
Q 2375 250 2137 162 
Q 1900 75 1537 75 
Q 1175 75 912 162 
Q 650 250 475 425 
Q 300 600 237 837 
Q 175 1075 175 1375 
z
M 687 1400 
Q 675 1100 787 875 
Q 900 650 1200 587 
Q 1500 525 1825 600 
Q 2150 675 2275 950 
Q 2400 1225 2362 1500 
Q 2325 1775 2050 1962 
Q 1775 2150 1450 2125 
Q 1125 2100 912 1900 
Q 700 1700 687 1400 
z
M 775 3350 
Q 775 3100 950 2875 
Q 1125 2650 1500 2650 
Q 1875 2650 2062 2875 
Q 2250 3100 2237 3412 
Q 2225 3725 2012 3875 
Q 1800 4025 1437 4000 
Q 1075 3975 925 3787 
Q 775 3600 775 3350 
z
" transform="scale(0.015625)"/>
        <path id="SimHei-39" d="M 800 75 
Q 1350 1000 1700 1750 
Q 1075 1650 662 1912 
Q 250 2175 162 2625 
Q 75 3075 175 3437 
Q 275 3800 487 4037 
Q 700 4275 1000 4375 
Q 1300 4475 1537 4475 
Q 1775 4475 2025 4375 
Q 2275 4275 2475 4075 
Q 2675 3875 2750 3662 
Q 2825 3450 2825 3112 
Q 2825 2775 2575 2250 
Q 2325 1725 1350 75 
L 800 75 
z
M 662 2875 
Q 700 2550 937 2337 
Q 1175 2125 1450 2150 
Q 1725 2175 1887 2300 
Q 2050 2425 2200 2725 
Q 2300 3100 2250 3362 
Q 2200 3625 1987 3800 
Q 1775 3975 1525 3975 
Q 1375 4000 1137 3900 
Q 900 3800 762 3500 
Q 625 3200 662 2875 
z
" transform="scale(0.015625)"/>
       </defs>
       <use xlink:href="#SimHei-30"/>
       <use xlink:href="#SimHei-38" x="50"/>
       <use xlink:href="#SimHei-2d" x="100"/>
       <use xlink:href="#SimHei-30" x="150"/>
       <use xlink:href="#SimHei-39" x="200"/>
      </g>
     </g>
    </g>
    <g id="xtick_24">
     <g id="line2d_24">
      <path d="M 643.792163 501.03675 
L 643.792163 15.552 
" clip-path="url(#p22d6670457)" style="fill: none; stroke: #cccccc; stroke-linecap: round"/>
     </g>
     <g id="text_24">
      <!-- 08-19 -->
      <g style="fill: #262626" transform="translate(647.504663 543.53675) rotate(-90) scale(0.132 -0.132)">
       <use xlink:href="#SimHei-30"/>
       <use xlink:href="#SimHei-38" x="50"/>
       <use xlink:href="#SimHei-2d" x="100"/>
       <use xlink:href="#SimHei-31" x="150"/>
       <use xlink:href="#SimHei-39" x="200"/>
      </g>
     </g>
    </g>
    <g id="xtick_25">
     <g id="line2d_25">
      <path d="M 666.699905 501.03675 
L 666.699905 15.552 
" clip-path="url(#p22d6670457)" style="fill: none; stroke: #cccccc; stroke-linecap: round"/>
     </g>
     <g id="text_25">
      <!-- 08-29 -->
      <g style="fill: #262626" transform="translate(670.412405 543.53675) rotate(-90) scale(0.132 -0.132)">
       <use xlink:href="#SimHei-30"/>
       <use xlink:href="#SimHei-38" x="50"/>
       <use xlink:href="#SimHei-2d" x="100"/>
       <use xlink:href="#SimHei-32" x="150"/>
       <use xlink:href="#SimHei-39" x="200"/>
      </g>
     </g>
    </g>
    <g id="xtick_26">
     <g id="line2d_26">
      <path d="M 689.607647 501.03675 
L 689.607647 15.552 
" clip-path="url(#p22d6670457)" style="fill: none; stroke: #cccccc; stroke-linecap: round"/>
     </g>
     <g id="text_26">
      <!-- 09-08 -->
      <g style="fill: #262626" transform="translate(693.320147 543.53675) rotate(-90) scale(0.132 -0.132)">
       <use xlink:href="#SimHei-30"/>
       <use xlink:href="#SimHei-39" x="50"/>
       <use xlink:href="#SimHei-2d" x="100"/>
       <use xlink:href="#SimHei-30" x="150"/>
       <use xlink:href="#SimHei-38" x="200"/>
      </g>
     </g>
    </g>
    <g id="xtick_27">
     <g id="line2d_27">
      <path d="M 712.51539 501.03675 
L 712.51539 15.552 
" clip-path="url(#p22d6670457)" style="fill: none; stroke: #cccccc; stroke-linecap: round"/>
     </g>
     <g id="text_27">
      <!-- 09-18 -->
      <g style="fill: #262626" transform="translate(716.22789 543.53675) rotate(-90) scale(0.132 -0.132)">
       <use xlink:href="#SimHei-30"/>
       <use xlink:href="#SimHei-39" x="50"/>
       <use xlink:href="#SimHei-2d" x="100"/>
       <use xlink:href="#SimHei-31" x="150"/>
       <use xlink:href="#SimHei-38" x="200"/>
      </g>
     </g>
    </g>
    <g id="xtick_28">
     <g id="line2d_28">
      <path d="M 735.423132 501.03675 
L 735.423132 15.552 
" clip-path="url(#p22d6670457)" style="fill: none; stroke: #cccccc; stroke-linecap: round"/>
     </g>
     <g id="text_28">
      <!-- 09-28 -->
      <g style="fill: #262626" transform="translate(739.135632 543.53675) rotate(-90) scale(0.132 -0.132)">
       <use xlink:href="#SimHei-30"/>
       <use xlink:href="#SimHei-39" x="50"/>
       <use xlink:href="#SimHei-2d" x="100"/>
       <use xlink:href="#SimHei-32" x="150"/>
       <use xlink:href="#SimHei-38" x="200"/>
      </g>
     </g>
    </g>
    <g id="xtick_29">
     <g id="line2d_29">
      <path d="M 758.330874 501.03675 
L 758.330874 15.552 
" clip-path="url(#p22d6670457)" style="fill: none; stroke: #cccccc; stroke-linecap: round"/>
     </g>
     <g id="text_29">
      <!-- 10-08 -->
      <g style="fill: #262626" transform="translate(762.043374 543.53675) rotate(-90) scale(0.132 -0.132)">
       <use xlink:href="#SimHei-31"/>
       <use xlink:href="#SimHei-30" x="50"/>
       <use xlink:href="#SimHei-2d" x="100"/>
       <use xlink:href="#SimHei-30" x="150"/>
       <use xlink:href="#SimHei-38" x="200"/>
      </g>
     </g>
    </g>
    <g id="xtick_30">
     <g id="line2d_30">
      <path d="M 781.238616 501.03675 
L 781.238616 15.552 
" clip-path="url(#p22d6670457)" style="fill: none; stroke: #cccccc; stroke-linecap: round"/>
     </g>
     <g id="text_30">
      <!-- 10-18 -->
      <g style="fill: #262626" transform="translate(784.951116 543.53675) rotate(-90) scale(0.132 -0.132)">
       <use xlink:href="#SimHei-31"/>
       <use xlink:href="#SimHei-30" x="50"/>
       <use xlink:href="#SimHei-2d" x="100"/>
       <use xlink:href="#SimHei-31" x="150"/>
       <use xlink:href="#SimHei-38" x="200"/>
      </g>
     </g>
    </g>
    <g id="xtick_31">
     <g id="line2d_31">
      <path d="M 804.146359 501.03675 
L 804.146359 15.552 
" clip-path="url(#p22d6670457)" style="fill: none; stroke: #cccccc; stroke-linecap: round"/>
     </g>
     <g id="text_31">
      <!-- 10-28 -->
      <g style="fill: #262626" transform="translate(807.858859 543.53675) rotate(-90) scale(0.132 -0.132)">
       <use xlink:href="#SimHei-31"/>
       <use xlink:href="#SimHei-30" x="50"/>
       <use xlink:href="#SimHei-2d" x="100"/>
       <use xlink:href="#SimHei-32" x="150"/>
       <use xlink:href="#SimHei-38" x="200"/>
      </g>
     </g>
    </g>
    <g id="xtick_32">
     <g id="line2d_32">
      <path d="M 827.054101 501.03675 
L 827.054101 15.552 
" clip-path="url(#p22d6670457)" style="fill: none; stroke: #cccccc; stroke-linecap: round"/>
     </g>
     <g id="text_32">
      <!-- 11-07 -->
      <g style="fill: #262626" transform="translate(830.766601 543.53675) rotate(-90) scale(0.132 -0.132)">
       <use xlink:href="#SimHei-31"/>
       <use xlink:href="#SimHei-31" x="50"/>
       <use xlink:href="#SimHei-2d" x="100"/>
       <use xlink:href="#SimHei-30" x="150"/>
       <use xlink:href="#SimHei-37" x="200"/>
      </g>
     </g>
    </g>
    <g id="xtick_33">
     <g id="line2d_33">
      <path d="M 849.961843 501.03675 
L 849.961843 15.552 
" clip-path="url(#p22d6670457)" style="fill: none; stroke: #cccccc; stroke-linecap: round"/>
     </g>
     <g id="text_33">
      <!-- 11-17 -->
      <g style="fill: #262626" transform="translate(853.674343 543.53675) rotate(-90) scale(0.132 -0.132)">
       <use xlink:href="#SimHei-31"/>
       <use xlink:href="#SimHei-31" x="50"/>
       <use xlink:href="#SimHei-2d" x="100"/>
       <use xlink:href="#SimHei-31" x="150"/>
       <use xlink:href="#SimHei-37" x="200"/>
      </g>
     </g>
    </g>
    <g id="xtick_34">
     <g id="line2d_34">
      <path d="M 872.869585 501.03675 
L 872.869585 15.552 
" clip-path="url(#p22d6670457)" style="fill: none; stroke: #cccccc; stroke-linecap: round"/>
     </g>
     <g id="text_34">
      <!-- 11-27 -->
      <g style="fill: #262626" transform="translate(876.582085 543.53675) rotate(-90) scale(0.132 -0.132)">
       <use xlink:href="#SimHei-31"/>
       <use xlink:href="#SimHei-31" x="50"/>
       <use xlink:href="#SimHei-2d" x="100"/>
       <use xlink:href="#SimHei-32" x="150"/>
       <use xlink:href="#SimHei-37" x="200"/>
      </g>
     </g>
    </g>
    <g id="xtick_35">
     <g id="line2d_35">
      <path d="M 895.777328 501.03675 
L 895.777328 15.552 
" clip-path="url(#p22d6670457)" style="fill: none; stroke: #cccccc; stroke-linecap: round"/>
     </g>
     <g id="text_35">
      <!-- 12-07 -->
      <g style="fill: #262626" transform="translate(899.489828 543.53675) rotate(-90) scale(0.132 -0.132)">
       <use xlink:href="#SimHei-31"/>
       <use xlink:href="#SimHei-32" x="50"/>
       <use xlink:href="#SimHei-2d" x="100"/>
       <use xlink:href="#SimHei-30" x="150"/>
       <use xlink:href="#SimHei-37" x="200"/>
      </g>
     </g>
    </g>
    <g id="xtick_36">
     <g id="line2d_36">
      <path d="M 918.68507 501.03675 
L 918.68507 15.552 
" clip-path="url(#p22d6670457)" style="fill: none; stroke: #cccccc; stroke-linecap: round"/>
     </g>
     <g id="text_36">
      <!-- 12-17 -->
      <g style="fill: #262626" transform="translate(922.39757 543.53675) rotate(-90) scale(0.132 -0.132)">
       <use xlink:href="#SimHei-31"/>
       <use xlink:href="#SimHei-32" x="50"/>
       <use xlink:href="#SimHei-2d" x="100"/>
       <use xlink:href="#SimHei-31" x="150"/>
       <use xlink:href="#SimHei-37" x="200"/>
      </g>
     </g>
    </g>
    <g id="xtick_37">
     <g id="line2d_37">
      <path d="M 941.592812 501.03675 
L 941.592812 15.552 
" clip-path="url(#p22d6670457)" style="fill: none; stroke: #cccccc; stroke-linecap: round"/>
     </g>
     <g id="text_37">
      <!-- 12-27 -->
      <g style="fill: #262626" transform="translate(945.305312 543.53675) rotate(-90) scale(0.132 -0.132)">
       <use xlink:href="#SimHei-31"/>
       <use xlink:href="#SimHei-32" x="50"/>
       <use xlink:href="#SimHei-2d" x="100"/>
       <use xlink:href="#SimHei-32" x="150"/>
       <use xlink:href="#SimHei-37" x="200"/>
      </g>
     </g>
    </g>
    <g id="text_38">
     <!-- 月日 -->
     <g style="fill: #262626" transform="translate(519.435 558.2805) scale(0.144 -0.144)">
      <defs>
       <path id="SimHei-6708" d="M 5250 4825 
Q 5200 4225 5200 3750 
L 5200 200 
Q 5200 -275 4950 -375 
Q 4700 -475 3975 -525 
Q 3925 -225 3750 50 
Q 4300 25 4512 50 
Q 4725 75 4725 400 
L 4725 1600 
L 1850 1600 
Q 1725 775 1450 225 
Q 1175 -325 900 -575 
Q 700 -400 400 -325 
Q 800 25 1037 512 
Q 1275 1000 1337 1475 
Q 1400 1950 1400 2525 
L 1400 3625 
Q 1400 4175 1375 4825 
L 5250 4825 
z
M 4725 3400 
L 4725 4450 
L 1875 4450 
L 1875 3400 
L 4725 3400 
z
M 4725 2000 
L 4725 3025 
L 1875 3025 
L 1875 2000 
L 4725 2000 
z
" transform="scale(0.015625)"/>
       <path id="SimHei-65e5" d="M 5375 5000 
Q 5350 3775 5350 2275 
Q 5350 775 5375 -450 
L 4800 -450 
L 4800 175 
L 1800 175 
L 1800 -575 
L 1250 -575 
Q 1275 575 1275 2125 
Q 1275 3675 1250 5000 
L 5375 5000 
z
M 4800 600 
L 4800 2375 
L 1800 2375 
L 1800 600 
L 4800 600 
z
M 4800 2800 
L 4800 4550 
L 1800 4550 
L 1800 2800 
L 4800 2800 
z
" transform="scale(0.015625)"/>
      </defs>
      <use xlink:href="#SimHei-6708"/>
      <use xlink:href="#SimHei-65e5" x="100"/>
     </g>
    </g>
   </g>
   <g id="matplotlib.axis_2">
    <g id="ytick_1">
     <g id="line2d_38">
      <path d="M 75.222 496.707668 
L 992.448 496.707668 
" clip-path="url(#p22d6670457)" style="fill: none; stroke: #cccccc; stroke-linecap: round"/>
     </g>
     <g id="text_39">
      <!-- 0 -->
      <g style="fill: #262626" transform="translate(59.122 501.245168) scale(0.132 -0.132)">
       <use xlink:href="#SimHei-30"/>
      </g>
     </g>
    </g>
    <g id="ytick_2">
     <g id="line2d_39">
      <path d="M 75.222 440.016759 
L 992.448 440.016759 
" clip-path="url(#p22d6670457)" style="fill: none; stroke: #cccccc; stroke-linecap: round"/>
     </g>
     <g id="text_40">
      <!-- 2500 -->
      <g style="fill: #262626" transform="translate(39.322 444.554259) scale(0.132 -0.132)">
       <use xlink:href="#SimHei-32"/>
       <use xlink:href="#SimHei-35" x="50"/>
       <use xlink:href="#SimHei-30" x="100"/>
       <use xlink:href="#SimHei-30" x="150"/>
      </g>
     </g>
    </g>
    <g id="ytick_3">
     <g id="line2d_40">
      <path d="M 75.222 383.32585 
L 992.448 383.32585 
" clip-path="url(#p22d6670457)" style="fill: none; stroke: #cccccc; stroke-linecap: round"/>
     </g>
     <g id="text_41">
      <!-- 5000 -->
      <g style="fill: #262626" transform="translate(39.322 387.86335) scale(0.132 -0.132)">
       <use xlink:href="#SimHei-35"/>
       <use xlink:href="#SimHei-30" x="50"/>
       <use xlink:href="#SimHei-30" x="100"/>
       <use xlink:href="#SimHei-30" x="150"/>
      </g>
     </g>
    </g>
    <g id="ytick_4">
     <g id="line2d_41">
      <path d="M 75.222 326.634942 
L 992.448 326.634942 
" clip-path="url(#p22d6670457)" style="fill: none; stroke: #cccccc; stroke-linecap: round"/>
     </g>
     <g id="text_42">
      <!-- 7500 -->
      <g style="fill: #262626" transform="translate(39.322 331.172442) scale(0.132 -0.132)">
       <use xlink:href="#SimHei-37"/>
       <use xlink:href="#SimHei-35" x="50"/>
       <use xlink:href="#SimHei-30" x="100"/>
       <use xlink:href="#SimHei-30" x="150"/>
      </g>
     </g>
    </g>
    <g id="ytick_5">
     <g id="line2d_42">
      <path d="M 75.222 269.944033 
L 992.448 269.944033 
" clip-path="url(#p22d6670457)" style="fill: none; stroke: #cccccc; stroke-linecap: round"/>
     </g>
     <g id="text_43">
      <!-- 10000 -->
      <g style="fill: #262626" transform="translate(32.722 274.481533) scale(0.132 -0.132)">
       <use xlink:href="#SimHei-31"/>
       <use xlink:href="#SimHei-30" x="50"/>
       <use xlink:href="#SimHei-30" x="100"/>
       <use xlink:href="#SimHei-30" x="150"/>
       <use xlink:href="#SimHei-30" x="200"/>
      </g>
     </g>
    </g>
    <g id="ytick_6">
     <g id="line2d_43">
      <path d="M 75.222 213.253124 
L 992.448 213.253124 
" clip-path="url(#p22d6670457)" style="fill: none; stroke: #cccccc; stroke-linecap: round"/>
     </g>
     <g id="text_44">
      <!-- 12500 -->
      <g style="fill: #262626" transform="translate(32.722 217.790624) scale(0.132 -0.132)">
       <use xlink:href="#SimHei-31"/>
       <use xlink:href="#SimHei-32" x="50"/>
       <use xlink:href="#SimHei-35" x="100"/>
       <use xlink:href="#SimHei-30" x="150"/>
       <use xlink:href="#SimHei-30" x="200"/>
      </g>
     </g>
    </g>
    <g id="ytick_7">
     <g id="line2d_44">
      <path d="M 75.222 156.562216 
L 992.448 156.562216 
" clip-path="url(#p22d6670457)" style="fill: none; stroke: #cccccc; stroke-linecap: round"/>
     </g>
     <g id="text_45">
      <!-- 15000 -->
      <g style="fill: #262626" transform="translate(32.722 161.099716) scale(0.132 -0.132)">
       <use xlink:href="#SimHei-31"/>
       <use xlink:href="#SimHei-35" x="50"/>
       <use xlink:href="#SimHei-30" x="100"/>
       <use xlink:href="#SimHei-30" x="150"/>
       <use xlink:href="#SimHei-30" x="200"/>
      </g>
     </g>
    </g>
    <g id="ytick_8">
     <g id="line2d_45">
      <path d="M 75.222 99.871307 
L 992.448 99.871307 
" clip-path="url(#p22d6670457)" style="fill: none; stroke: #cccccc; stroke-linecap: round"/>
     </g>
     <g id="text_46">
      <!-- 17500 -->
      <g style="fill: #262626" transform="translate(32.722 104.408807) scale(0.132 -0.132)">
       <use xlink:href="#SimHei-31"/>
       <use xlink:href="#SimHei-37" x="50"/>
       <use xlink:href="#SimHei-35" x="100"/>
       <use xlink:href="#SimHei-30" x="150"/>
       <use xlink:href="#SimHei-30" x="200"/>
      </g>
     </g>
    </g>
    <g id="ytick_9">
     <g id="line2d_46">
      <path d="M 75.222 43.180398 
L 992.448 43.180398 
" clip-path="url(#p22d6670457)" style="fill: none; stroke: #cccccc; stroke-linecap: round"/>
     </g>
     <g id="text_47">
      <!-- 20000 -->
      <g style="fill: #262626" transform="translate(32.722 47.717898) scale(0.132 -0.132)">
       <use xlink:href="#SimHei-32"/>
       <use xlink:href="#SimHei-30" x="50"/>
       <use xlink:href="#SimHei-30" x="100"/>
       <use xlink:href="#SimHei-30" x="150"/>
       <use xlink:href="#SimHei-30" x="200"/>
      </g>
     </g>
    </g>
    <g id="text_48">
     <!-- 货量 -->
     <g style="fill: #262626" transform="translate(26.922 272.694375) rotate(-90) scale(0.144 -0.144)">
      <defs>
       <path id="SimHei-8d27" d="M 3975 5075 
Q 3950 4750 3950 4100 
Q 4075 4175 4525 4375 
Q 4975 4575 5375 4900 
Q 5550 4625 5700 4400 
Q 5425 4325 4987 4112 
Q 4550 3900 3950 3650 
L 3950 3225 
Q 3950 3025 4300 3025 
L 5125 3025 
Q 5425 3025 5487 3150 
Q 5550 3275 5575 3625 
Q 5850 3450 6125 3375 
Q 5975 2875 5825 2750 
Q 5675 2625 5475 2625 
L 4000 2625 
Q 3425 2625 3425 3125 
L 3425 3525 
Q 2900 3325 2575 3225 
Q 2425 3500 2350 3650 
Q 2750 3750 3425 3925 
Q 3425 4750 3400 5075 
L 3975 5075 
z
M 5200 2200 
Q 5175 1825 5175 1425 
Q 5175 1050 5200 600 
L 4625 600 
L 4625 1775 
L 1950 1775 
L 1950 625 
L 1400 625 
Q 1425 1025 1425 1400 
Q 1425 1800 1400 2200 
L 5200 2200 
z
M 2625 4850 
Q 2425 4700 2050 4300 
Q 2050 2900 2075 2450 
L 1500 2450 
Q 1525 2900 1525 3825 
Q 1300 3625 1100 3425 
Q 900 3225 700 3050 
Q 475 3250 325 3400 
Q 850 3725 1325 4237 
Q 1800 4750 2050 5175 
Q 2325 4925 2625 4850 
z
M 3550 1325 
Q 3425 975 3312 687 
Q 3200 400 2925 137 
Q 2650 -125 2150 -325 
Q 1650 -525 800 -675 
Q 725 -400 475 -100 
Q 1200 -75 1675 25 
Q 2150 125 2412 325 
Q 2675 525 2787 775 
Q 2900 1025 2975 1400 
Q 3250 1350 3550 1325 
z
M 5575 -675 
Q 5125 -400 4650 -187 
Q 4175 25 3575 250 
Q 3725 500 3825 725 
Q 4350 500 4800 300 
Q 5250 100 5875 -175 
Q 5700 -400 5575 -675 
z
" transform="scale(0.015625)"/>
       <path id="SimHei-91cf" d="M 5250 2500 
Q 5225 2200 5225 1700 
Q 5225 1225 5250 950 
L 3425 950 
L 3425 625 
L 4575 625 
Q 5000 625 5375 650 
L 5375 275 
Q 5025 300 4575 300 
L 3425 300 
L 3425 -75 
L 5125 -75 
Q 5525 -75 5925 -50 
L 5925 -425 
Q 5525 -400 5125 -400 
L 1275 -400 
Q 900 -400 475 -425 
L 475 -50 
Q 925 -50 1275 -75 
L 2975 -75 
L 2975 300 
L 1725 300 
Q 1350 300 975 250 
L 975 650 
Q 1375 625 1725 625 
L 2975 625 
L 2975 950 
L 1150 950 
Q 1175 1375 1175 1775 
Q 1175 2175 1150 2500 
L 5250 2500 
z
M 5200 4950 
Q 5175 4575 5175 4250 
Q 5175 3925 5200 3400 
L 1200 3400 
Q 1225 3925 1225 4250 
Q 1225 4575 1200 4950 
L 5200 4950 
z
M 4900 3100 
Q 5500 3125 6000 3150 
L 6000 2750 
Q 5500 2775 4925 2775 
L 1650 2775 
Q 975 2775 325 2750 
L 325 3150 
Q 975 3125 1650 3100 
L 4900 3100 
z
M 4725 3700 
L 4725 4025 
L 1675 4025 
L 1675 3700 
L 4725 3700 
z
M 4725 4350 
L 4725 4650 
L 1675 4650 
L 1675 4350 
L 4725 4350 
z
M 4750 1875 
L 4750 2175 
L 3425 2175 
L 3425 1875 
L 4750 1875 
z
M 2975 1875 
L 2975 2175 
L 1650 2175 
L 1650 1875 
L 2975 1875 
z
M 2975 1275 
L 2975 1550 
L 1650 1550 
L 1650 1275 
L 2975 1275 
z
M 4750 1275 
L 4750 1550 
L 3425 1550 
L 3425 1275 
L 4750 1275 
z
" transform="scale(0.015625)"/>
      </defs>
      <use xlink:href="#SimHei-8d27"/>
      <use xlink:href="#SimHei-91cf" x="100"/>
     </g>
    </g>
   </g>
   <g id="PolyCollection_1">
    <defs>
     <path id="m4eb0c1ef2b" d="M 116.914091 -255.450615 
L 116.914091 -171.668058 
L 119.204865 -166.825344 
L 121.495639 -144.57842 
L 123.786414 -145.022188 
L 126.077188 -144.966127 
L 128.367962 -155.260502 
L 130.658736 -144.850203 
L 132.94951 -168.51841 
L 135.240285 -150.29967 
L 137.531059 -150.048348 
L 139.821833 -144.205537 
L 142.112607 -158.074605 
L 144.403382 -140.905373 
L 146.694156 -150.595308 
L 148.98493 -152.903758 
L 151.275704 -157.261868 
L 153.566479 -143.147693 
L 155.857253 -154.838398 
L 158.148027 -139.936876 
L 160.438801 -168.19126 
L 162.729575 -157.951838 
L 165.02035 -163.963311 
L 167.311124 -161.645113 
L 169.601898 -166.27724 
L 171.892672 -157.154149 
L 174.183447 -153.871478 
L 176.474221 -148.910732 
L 178.764995 -151.785853 
L 181.055769 -159.226622 
L 183.346543 -158.332898 
L 185.637318 -157.993461 
L 187.928092 -159.129259 
L 190.218866 -163.402809 
L 192.50964 -160.007563 
L 194.800415 -156.904682 
L 197.091189 -166.810283 
L 199.381963 -167.340486 
L 201.672737 -172.231736 
L 203.963511 -162.199111 
L 206.254286 -160.911236 
L 208.54506 -154.291315 
L 210.835834 -97.030739 
L 213.126608 -130.657501 
L 215.417383 -130.703085 
L 217.708157 -136.600898 
L 219.998931 -155.935393 
L 222.289705 -152.417463 
L 224.58048 -138.259357 
L 226.871254 -151.266179 
L 229.162028 -149.123196 
L 231.452802 -152.137906 
L 233.743576 -143.36915 
L 236.034351 -144.251956 
L 238.325125 -148.729863 
L 240.615899 -147.933827 
L 242.906673 -148.703841 
L 245.197448 -140.685161 
L 247.488222 -154.130086 
L 249.778996 -150.116787 
L 252.06977 -152.756252 
L 254.360544 -151.082068 
L 256.651319 -150.621445 
L 258.942093 -150.742095 
L 261.232867 -155.755162 
L 263.523641 -145.613434 
L 265.814416 -147.451602 
L 268.10519 -161.840289 
L 270.395964 -148.26277 
L 272.686738 -142.483857 
L 274.977512 -140.623084 
L 277.268287 -148.179211 
L 279.559061 -144.704989 
L 281.849835 -145.338877 
L 284.140609 -144.600588 
L 286.431384 -144.161105 
L 288.722158 -147.971278 
L 291.012932 -152.021657 
L 293.303706 -150.657181 
L 295.594481 -157.830839 
L 297.885255 -140.627794 
L 300.176029 -142.639557 
L 302.466803 -151.62043 
L 304.757577 -143.969318 
L 307.048352 -152.053105 
L 309.339126 -145.839114 
L 311.6299 -141.988245 
L 313.920674 -151.22703 
L 316.211449 -149.361537 
L 318.502223 -145.970462 
L 320.792997 -145.659833 
L 323.083771 -143.441352 
L 325.374545 -144.915684 
L 327.66532 -138.464066 
L 329.956094 -139.425414 
L 332.246868 -146.281207 
L 334.537642 -151.7979 
L 336.828417 -153.280659 
L 339.119191 -150.596425 
L 341.409965 -149.182193 
L 343.700739 -143.607471 
L 345.991513 -138.248698 
L 348.282288 -147.964241 
L 350.573062 -148.217415 
L 352.863836 -145.537293 
L 355.15461 -145.1894 
L 357.445385 -147.072933 
L 359.736159 -148.766106 
L 362.026933 -144.065923 
L 364.317707 -146.547752 
L 366.608482 -156.733023 
L 368.899256 -150.713619 
L 371.19003 -149.648536 
L 373.480804 -148.246056 
L 375.771578 -150.410931 
L 378.062353 -164.562257 
L 380.353127 -149.215155 
L 382.643901 -149.494471 
L 384.934675 -151.169509 
L 387.22545 -150.650269 
L 389.516224 -136.833852 
L 391.806998 -141.673995 
L 394.097772 -134.702873 
L 396.388546 -133.848752 
L 398.679321 -143.320812 
L 400.970095 -140.033971 
L 403.260869 -158.68767 
L 405.551643 -155.58256 
L 407.842418 -155.066754 
L 410.133192 -153.876396 
L 412.423966 -167.318408 
L 414.71474 -157.220406 
L 417.005514 -145.266375 
L 419.296289 -151.495788 
L 421.587063 -150.827228 
L 423.877837 -155.170004 
L 426.168611 -146.471669 
L 428.459386 -162.81818 
L 430.75016 -157.664451 
L 433.040934 -155.484848 
L 435.331708 -152.970944 
L 437.622483 -150.89693 
L 439.913257 -147.795208 
L 442.204031 -152.682689 
L 444.494805 -167.689405 
L 446.785579 -162.549988 
L 449.076354 -155.604985 
L 451.367128 -147.174379 
L 453.657902 -149.769637 
L 455.948676 -150.745077 
L 458.239451 -140.11547 
L 460.530225 -150.14197 
L 462.820999 -263.000208 
L 465.111773 -195.815853 
L 467.402547 -187.197007 
L 469.693322 -163.89657 
L 471.984096 -168.86276 
L 474.27487 -171.975076 
L 476.565644 -172.014192 
L 478.856419 -180.33275 
L 481.147193 -161.274481 
L 483.437967 -157.180251 
L 485.728741 -155.749303 
L 488.019515 -153.027947 
L 490.31029 -160.751508 
L 492.601064 -151.357376 
L 494.891838 -158.655756 
L 497.182612 -203.370842 
L 499.473387 -177.461263 
L 501.764161 -320.431426 
L 504.054935 -211.789023 
L 506.345709 -165.903465 
L 508.636484 -157.196377 
L 510.927258 -150.074624 
L 513.218032 -144.421772 
L 515.508806 -147.906388 
L 517.79958 -145.00232 
L 520.090355 -140.109673 
L 522.381129 -144.56811 
L 524.671903 -149.60072 
L 526.962677 -148.219704 
L 529.253452 -155.330838 
L 531.544226 -150.160212 
L 533.835 -154.524501 
L 536.125774 -148.114373 
L 538.416548 -155.953357 
L 540.707323 -151.095341 
L 542.998097 -148.189039 
L 545.288871 -153.534798 
L 547.579645 -151.949853 
L 549.87042 -146.952946 
L 552.161194 -151.239253 
L 554.451968 -148.951264 
L 556.742742 -144.881219 
L 559.033516 -152.155952 
L 561.324291 -142.927202 
L 563.615065 -142.057825 
L 565.905839 -144.130103 
L 568.196613 -145.217426 
L 570.487388 -138.695351 
L 572.778162 -141.711353 
L 575.068936 -139.402927 
L 577.35971 -144.743401 
L 579.650485 -136.556991 
L 581.941259 -140.903293 
L 584.232033 -140.574815 
L 586.522807 -141.152898 
L 588.813581 -141.30007 
L 591.104356 -150.232714 
L 593.39513 -142.203844 
L 595.685904 -144.577406 
L 597.976678 -144.41816 
L 600.267453 -146.154125 
L 602.558227 -137.725879 
L 604.849001 -147.114043 
L 607.139775 -147.333509 
L 609.430549 -150.659156 
L 611.721324 -149.759766 
L 614.012098 -144.009395 
L 616.302872 -144.45474 
L 618.593646 -151.212307 
L 620.884421 -144.130137 
L 623.175195 -147.054791 
L 625.465969 -145.331098 
L 627.756743 -150.208012 
L 630.047517 -155.283109 
L 632.338292 -141.733675 
L 634.629066 -152.93549 
L 636.91984 -146.540023 
L 639.210614 -147.942618 
L 641.501389 -148.043869 
L 643.792163 -143.991272 
L 646.082937 -145.1087 
L 648.373711 -144.536189 
L 650.664486 -145.264149 
L 652.95526 -151.915364 
L 655.246034 -146.983964 
L 657.536808 -150.99917 
L 659.827582 -157.560824 
L 662.118357 -159.314837 
L 664.409131 -155.41135 
L 666.699905 -154.646632 
L 668.990679 -156.502419 
L 671.281454 -159.962119 
L 673.572228 -167.244281 
L 675.863002 -159.846849 
L 678.153776 -153.110078 
L 680.44455 -155.348075 
L 682.735325 -144.364578 
L 685.026099 -159.613398 
L 687.316873 -152.057524 
L 689.607647 -153.414627 
L 691.898422 -177.443633 
L 694.189196 -155.115773 
L 696.47997 -151.42945 
L 698.770744 -151.201856 
L 701.061518 -167.562091 
L 703.352293 -162.596497 
L 705.643067 -156.299558 
L 707.933841 -165.989903 
L 710.224615 -157.64493 
L 712.51539 -162.270502 
L 714.806164 -161.628651 
L 717.096938 -152.318079 
L 719.387712 -144.89754 
L 721.678487 -156.876671 
L 723.969261 -157.574399 
L 726.260035 -159.250601 
L 728.550809 -147.15932 
L 730.841583 -154.962711 
L 733.132358 -154.956827 
L 735.423132 -159.194244 
L 737.713906 -149.218981 
L 740.00468 -144.852836 
L 742.295455 -145.383473 
L 744.586229 -138.889343 
L 746.877003 -133.41973 
L 749.167777 -135.701766 
L 751.458551 -133.827545 
L 753.749326 -150.14032 
L 756.0401 -134.823457 
L 758.330874 -152.110765 
L 760.621648 -152.139153 
L 762.912423 -153.156201 
L 765.203197 -150.719262 
L 767.493971 -150.099184 
L 769.784745 -146.436464 
L 772.075519 -148.500229 
L 774.366294 -154.647133 
L 776.657068 -142.965791 
L 778.947842 -146.177691 
L 781.238616 -153.388551 
L 783.529391 -155.004702 
L 785.820165 -177.998571 
L 788.110939 -175.392465 
L 790.401713 -183.183496 
L 792.692488 -172.317086 
L 794.983262 -161.407557 
L 797.274036 -168.144077 
L 799.56481 -165.12213 
L 801.855584 -168.902436 
L 804.146359 -170.823963 
L 806.437133 -156.893932 
L 808.727907 -150.099607 
L 811.018681 -167.265561 
L 813.309456 -240.995815 
L 815.60023 -221.876246 
L 817.891004 -225.044876 
L 820.181778 -236.460291 
L 822.472552 -202.393365 
L 824.763327 -194.261124 
L 827.054101 -177.26736 
L 829.344875 -185.833788 
L 831.635649 -179.346645 
L 833.926424 -157.714501 
L 836.217198 -274.275853 
L 838.507972 -208.87946 
L 840.798746 -181.534158 
L 843.08952 -181.482761 
L 845.380295 -161.317396 
L 847.671069 -155.112526 
L 849.961843 -158.150126 
L 852.252617 -162.231303 
L 854.543392 -172.261011 
L 856.834166 -163.437528 
L 859.12494 -159.826275 
L 861.415714 -171.047804 
L 863.706489 -164.61346 
L 865.997263 -161.685428 
L 868.288037 -155.443899 
L 870.578811 -159.5956 
L 872.869585 -163.228868 
L 875.16036 -165.354607 
L 877.451134 -163.110641 
L 879.741908 -160.405299 
L 882.032682 -161.869614 
L 884.323457 -163.582446 
L 886.614231 -163.841837 
L 888.905005 -160.180899 
L 891.195779 -157.057237 
L 893.486553 -158.12677 
L 895.777328 -173.432119 
L 898.068102 -164.00383 
L 900.358876 -165.693386 
L 902.64965 -178.741496 
L 904.940425 -186.49257 
L 907.231199 -242.764126 
L 909.521973 -187.857589 
L 911.812747 -163.232015 
L 914.103521 -165.523397 
L 916.394296 -160.377454 
L 918.68507 -158.908396 
L 920.975844 -176.332511 
L 923.266618 -165.185438 
L 925.557393 -165.655395 
L 927.848167 -170.783334 
L 930.138941 -167.181815 
L 932.429715 -167.163552 
L 934.72049 -171.736632 
L 937.011264 -165.101256 
L 939.302038 -169.658304 
L 941.592812 -165.52371 
L 943.883586 -177.077332 
L 946.174361 -173.802247 
L 948.465135 -170.499219 
L 950.755909 -169.342838 
L 950.755909 -287.605639 
L 950.755909 -287.605639 
L 948.465135 -286.80786 
L 946.174361 -281.76054 
L 943.883586 -275.80596 
L 941.592812 -247.103224 
L 939.302038 -273.019309 
L 937.011264 -245.097153 
L 934.72049 -293.631498 
L 932.429715 -274.802088 
L 930.138941 -276.299726 
L 927.848167 -306.135624 
L 925.557393 -253.048414 
L 923.266618 -268.875501 
L 920.975844 -279.256639 
L 918.68507 -240.279282 
L 916.394296 -279.250555 
L 914.103521 -261.325584 
L 911.812747 -265.664699 
L 909.521973 -314.18618 
L 907.231199 -510.491187 
L 904.940425 -324.762287 
L 902.64965 -281.400085 
L 900.358876 -253.575747 
L 898.068102 -250.441758 
L 895.777328 -271.751189 
L 893.486553 -246.412773 
L 891.195779 -241.535762 
L 888.905005 -263.484385 
L 886.614231 -266.706243 
L 884.323457 -242.17808 
L 882.032682 -280.517146 
L 879.741908 -255.741243 
L 877.451134 -284.679351 
L 875.16036 -261.237074 
L 872.869585 -244.17342 
L 870.578811 -236.023867 
L 868.288037 -224.336855 
L 865.997263 -253.909269 
L 863.706489 -260.539121 
L 861.415714 -279.521831 
L 859.12494 -247.362336 
L 856.834166 -254.642872 
L 854.543392 -259.763054 
L 852.252617 -243.191015 
L 849.961843 -251.475154 
L 847.671069 -213.835634 
L 845.380295 -252.574322 
L 843.08952 -312.379366 
L 840.798746 -374.215851 
L 838.507972 -376.090402 
L 836.217198 -493.851473 
L 833.926424 -244.090639 
L 831.635649 -295.990306 
L 829.344875 -367.175313 
L 827.054101 -282.433363 
L 824.763327 -318.482193 
L 822.472552 -338.780681 
L 820.181778 -428.410711 
L 817.891004 -402.086112 
L 815.60023 -364.866983 
L 813.309456 -401.830602 
L 811.018681 -269.769175 
L 808.727907 -253.093816 
L 806.437133 -254.437152 
L 804.146359 -276.861305 
L 801.855584 -279.077294 
L 799.56481 -279.207629 
L 797.274036 -270.959231 
L 794.983262 -253.9123 
L 792.692488 -305.997121 
L 790.401713 -315.820423 
L 788.110939 -292.989909 
L 785.820165 -302.126714 
L 783.529391 -261.405054 
L 781.238616 -241.213999 
L 778.947842 -213.025352 
L 776.657068 -229.831749 
L 774.366294 -244.324491 
L 772.075519 -212.589536 
L 769.784745 -221.376396 
L 767.493971 -226.944893 
L 765.203197 -240.865447 
L 762.912423 -226.687739 
L 760.621648 -233.856288 
L 758.330874 -241.907215 
L 756.0401 -198.054351 
L 753.749326 -234.202299 
L 751.458551 -201.823777 
L 749.167777 -198.623714 
L 746.877003 -219.806496 
L 744.586229 -206.797621 
L 742.295455 -230.497873 
L 740.00468 -208.886618 
L 737.713906 -229.604151 
L 735.423132 -247.237013 
L 733.132358 -226.635448 
L 730.841583 -244.312871 
L 728.550809 -230.200964 
L 726.260035 -248.916949 
L 723.969261 -248.841129 
L 721.678487 -238.948034 
L 719.387712 -212.112303 
L 717.096938 -242.785953 
L 714.806164 -252.570524 
L 712.51539 -244.548988 
L 710.224615 -253.747601 
L 707.933841 -274.205775 
L 705.643067 -242.243108 
L 703.352293 -242.821436 
L 701.061518 -256.634587 
L 698.770744 -254.61837 
L 696.47997 -234.129105 
L 694.189196 -248.350947 
L 691.898422 -314.672941 
L 689.607647 -244.515449 
L 687.316873 -212.396578 
L 685.026099 -258.26371 
L 682.735325 -214.605289 
L 680.44455 -244.847814 
L 678.153776 -234.541929 
L 675.863002 -271.812791 
L 673.572228 -277.694371 
L 671.281454 -238.765358 
L 668.990679 -238.386209 
L 666.699905 -254.335185 
L 664.409131 -253.049952 
L 662.118357 -231.748098 
L 659.827582 -234.57262 
L 657.536808 -231.950929 
L 655.246034 -204.259007 
L 652.95526 -217.796676 
L 650.664486 -199.224076 
L 648.373711 -208.737103 
L 646.082937 -208.678468 
L 643.792163 -195.263294 
L 641.501389 -211.629685 
L 639.210614 -212.995588 
L 636.91984 -201.980742 
L 634.629066 -224.304866 
L 632.338292 -210.669789 
L 630.047517 -224.851323 
L 627.756743 -216.536988 
L 625.465969 -200.716675 
L 623.175195 -216.540092 
L 620.884421 -195.456506 
L 618.593646 -207.558797 
L 616.302872 -204.496742 
L 614.012098 -201.207017 
L 611.721324 -221.532976 
L 609.430549 -236.827206 
L 607.139775 -203.672008 
L 604.849001 -200.699245 
L 602.558227 -193.154279 
L 600.267453 -207.008679 
L 597.976678 -207.734264 
L 595.685904 -199.05527 
L 593.39513 -207.404784 
L 591.104356 -204.745317 
L 588.813581 -201.917535 
L 586.522807 -187.785306 
L 584.232033 -195.843765 
L 581.941259 -199.670661 
L 579.650485 -191.160191 
L 577.35971 -206.720725 
L 575.068936 -193.622681 
L 572.778162 -202.62452 
L 570.487388 -183.792213 
L 568.196613 -200.917521 
L 565.905839 -203.134168 
L 563.615065 -211.193229 
L 561.324291 -219.578676 
L 559.033516 -257.569489 
L 556.742742 -226.812687 
L 554.451968 -220.399324 
L 552.161194 -220.989233 
L 549.87042 -216.281525 
L 547.579645 -222.864743 
L 545.288871 -232.154713 
L 542.998097 -228.628703 
L 540.707323 -229.476045 
L 538.416548 -241.063156 
L 536.125774 -236.306312 
L 533.835 -243.580736 
L 531.544226 -224.934618 
L 529.253452 -220.72144 
L 526.962677 -206.466218 
L 524.671903 -229.734262 
L 522.381129 -217.24998 
L 520.090355 -186.507266 
L 517.79958 -201.185114 
L 515.508806 -216.996403 
L 513.218032 -226.890611 
L 510.927258 -205.259995 
L 508.636484 -227.001014 
L 506.345709 -256.788793 
L 504.054935 -367.291669 
L 501.764161 -538.380511 
L 499.473387 -268.996415 
L 497.182612 -300.007599 
L 494.891838 -239.172862 
L 492.601064 -249.860558 
L 490.31029 -260.944441 
L 488.019515 -254.470765 
L 485.728741 -226.672078 
L 483.437967 -241.234653 
L 481.147193 -265.40984 
L 478.856419 -291.100508 
L 476.565644 -261.188706 
L 474.27487 -273.226989 
L 471.984096 -273.036055 
L 469.693322 -242.586596 
L 467.402547 -342.543495 
L 465.111773 -297.168564 
L 462.820999 -469.145402 
L 460.530225 -240.058454 
L 458.239451 -201.761379 
L 455.948676 -232.314866 
L 453.657902 -208.108648 
L 451.367128 -207.944053 
L 449.076354 -234.782636 
L 446.785579 -273.364362 
L 444.494805 -261.026842 
L 442.204031 -250.59562 
L 439.913257 -241.288221 
L 437.622483 -245.813762 
L 435.331708 -238.321075 
L 433.040934 -256.585173 
L 430.75016 -257.759254 
L 428.459386 -238.31406 
L 426.168611 -213.79727 
L 423.877837 -242.019484 
L 421.587063 -215.988254 
L 419.296289 -219.066474 
L 417.005514 -226.240613 
L 414.71474 -259.859636 
L 412.423966 -278.930337 
L 410.133192 -227.896972 
L 407.842418 -219.057861 
L 405.551643 -243.339999 
L 403.260869 -235.064862 
L 400.970095 -191.483341 
L 398.679321 -203.572472 
L 396.388546 -186.938879 
L 394.097772 -181.334692 
L 391.806998 -212.290126 
L 389.516224 -223.511174 
L 387.22545 -207.06811 
L 384.934675 -252.940245 
L 382.643901 -220.582709 
L 380.353127 -227.12846 
L 378.062353 -237.455011 
L 375.771578 -216.68219 
L 373.480804 -208.346721 
L 371.19003 -243.619451 
L 368.899256 -217.102662 
L 366.608482 -223.045345 
L 364.317707 -207.72807 
L 362.026933 -228.453066 
L 359.736159 -227.003775 
L 357.445385 -243.89973 
L 355.15461 -213.803929 
L 352.863836 -226.870299 
L 350.573062 -208.368158 
L 348.282288 -201.553889 
L 345.991513 -231.838522 
L 343.700739 -236.298615 
L 341.409965 -229.344721 
L 339.119191 -264.119815 
L 336.828417 -219.830412 
L 334.537642 -223.672159 
L 332.246868 -223.312111 
L 329.956094 -202.728578 
L 327.66532 -242.991527 
L 325.374545 -203.096865 
L 323.083771 -196.9274 
L 320.792997 -213.40274 
L 318.502223 -222.224638 
L 316.211449 -233.74524 
L 313.920674 -233.94854 
L 311.6299 -192.368813 
L 309.339126 -216.866709 
L 307.048352 -231.751686 
L 304.757577 -202.26444 
L 302.466803 -234.260686 
L 300.176029 -235.082048 
L 297.885255 -197.507589 
L 295.594481 -223.465398 
L 293.303706 -226.624226 
L 291.012932 -237.624502 
L 288.722158 -207.201472 
L 286.431384 -220.519334 
L 284.140609 -198.916724 
L 281.849835 -216.54064 
L 279.559061 -202.498383 
L 277.268287 -234.087669 
L 274.977512 -188.42718 
L 272.686738 -200.185545 
L 270.395964 -255.6945 
L 268.10519 -269.441642 
L 265.814416 -216.321459 
L 263.523641 -236.057055 
L 261.232867 -224.744714 
L 258.942093 -218.277496 
L 256.651319 -221.220825 
L 254.360544 -207.588215 
L 252.06977 -238.201801 
L 249.778996 -207.659643 
L 247.488222 -220.723068 
L 245.197448 -198.367556 
L 242.906673 -218.788842 
L 240.615899 -213.842215 
L 238.325125 -246.262732 
L 236.034351 -202.619162 
L 233.743576 -247.126517 
L 231.452802 -245.36519 
L 229.162028 -253.873574 
L 226.871254 -230.458448 
L 224.58048 -236.972576 
L 222.289705 -272.245946 
L 219.998931 -241.484322 
L 217.708157 -230.021154 
L 215.417383 -200.388109 
L 213.126608 -194.132338 
L 210.835834 -118.119174 
L 208.54506 -256.682184 
L 206.254286 -244.834191 
L 203.963511 -261.491128 
L 201.672737 -254.3367 
L 199.381963 -252.292272 
L 197.091189 -264.554201 
L 194.800415 -249.518384 
L 192.50964 -252.732751 
L 190.218866 -263.390548 
L 187.928092 -230.800681 
L 185.637318 -251.427122 
L 183.346543 -234.163689 
L 181.055769 -235.903367 
L 178.764995 -238.385117 
L 176.474221 -213.625382 
L 174.183447 -226.184269 
L 171.892672 -239.698009 
L 169.601898 -258.848885 
L 167.311124 -232.604497 
L 165.02035 -232.230871 
L 162.729575 -241.281281 
L 160.438801 -267.599587 
L 158.148027 -186.819023 
L 155.857253 -242.141247 
L 153.566479 -213.488757 
L 151.275704 -217.267918 
L 148.98493 -235.970793 
L 146.694156 -226.754495 
L 144.403382 -209.47251 
L 142.112607 -265.629759 
L 139.821833 -199.162413 
L 137.531059 -215.941352 
L 135.240285 -227.244139 
L 132.94951 -268.827732 
L 130.658736 -231.442725 
L 128.367962 -235.724033 
L 126.077188 -243.881256 
L 123.786414 -237.913807 
L 121.495639 -204.409979 
L 119.204865 -254.537766 
L 116.914091 -255.450615 
z
" style="stroke: #4c72b0; stroke-opacity: 0.2"/>
    </defs>
    <g clip-path="url(#p22d6670457)">
     <use xlink:href="#m4eb0c1ef2b" x="0" y="576" style="fill: #4c72b0; fill-opacity: 0.2; stroke: #4c72b0; stroke-opacity: 0.2"/>
    </g>
   </g>
   <g id="PolyCollection_2">
    <defs>
     <path id="m76b169af3f" d="M 116.914091 -290.920792 
L 116.914091 -180.056245 
L 119.204865 -183.503318 
L 121.495639 -162.472214 
L 123.786414 -170.018639 
L 126.077188 -167.598237 
L 128.367962 -174.620573 
L 130.658736 -178.741149 
L 132.94951 -168.990806 
L 135.240285 -171.5816 
L 137.531059 -211.645915 
L 139.821833 -187.991795 
L 142.112607 -184.953192 
L 144.403382 -179.977062 
L 146.694156 -175.724929 
L 148.98493 -180.038293 
L 151.275704 -188.6849 
L 153.566479 -182.326105 
L 155.857253 -187.629773 
L 158.148027 -200.667679 
L 160.438801 -196.450067 
L 162.729575 -194.789466 
L 165.02035 -203.649039 
L 167.311124 -200.904044 
L 169.601898 -195.562912 
L 171.892672 -205.468188 
L 174.183447 -191.695389 
L 176.474221 -187.129116 
L 178.764995 -186.724232 
L 181.055769 -188.19639 
L 183.346543 -149.998972 
L 185.637318 -102.529198 
L 187.928092 -142.749073 
L 190.218866 -141.8335 
L 192.50964 -149.130427 
L 194.800415 -144.299074 
L 197.091189 -153.522821 
L 199.381963 -153.325393 
L 201.672737 -171.971878 
L 203.963511 -166.992445 
L 206.254286 -175.254165 
L 208.54506 -166.830333 
L 210.835834 -179.16588 
L 213.126608 -170.482215 
L 215.417383 -160.436679 
L 217.708157 -172.189009 
L 219.998931 -171.117926 
L 222.289705 -169.013306 
L 224.58048 -167.052694 
L 226.871254 -172.873244 
L 229.162028 -191.497973 
L 231.452802 -170.331324 
L 233.743576 -177.071034 
L 236.034351 -182.770065 
L 238.325125 -172.304298 
L 240.615899 -168.131112 
L 242.906673 -168.716367 
L 245.197448 -179.652888 
L 247.488222 -173.638502 
L 249.778996 -169.862836 
L 252.06977 -180.19395 
L 254.360544 -176.221432 
L 256.651319 -167.162937 
L 258.942093 -188.981614 
L 261.232867 -191.183738 
L 263.523641 -172.664914 
L 265.814416 -176.906191 
L 268.10519 -188.690508 
L 270.395964 -182.640668 
L 272.686738 -173.4988 
L 274.977512 -171.544304 
L 277.268287 -175.698613 
L 279.559061 -177.693566 
L 281.849835 -184.889297 
L 284.140609 -174.99724 
L 286.431384 -173.415812 
L 288.722158 -166.53373 
L 291.012932 -169.647265 
L 293.303706 -181.462046 
L 295.594481 -171.435389 
L 297.885255 -171.169807 
L 300.176029 -179.114656 
L 302.466803 -168.114107 
L 304.757577 -160.269465 
L 307.048352 -162.96799 
L 309.339126 -163.694961 
L 311.6299 -161.293018 
L 313.920674 -168.041239 
L 316.211449 -169.379356 
L 318.502223 -164.546686 
L 320.792997 -162.066712 
L 323.083771 -167.330327 
L 325.374545 -169.403849 
L 327.66532 -163.741997 
L 329.956094 -168.890468 
L 332.246868 -169.358425 
L 334.537642 -175.978451 
L 336.828417 -175.541563 
L 339.119191 -179.713662 
L 341.409965 -197.913344 
L 343.700739 -191.709878 
L 345.991513 -192.094064 
L 348.282288 -189.118918 
L 350.573062 -172.327165 
L 352.863836 -181.897904 
L 355.15461 -184.063745 
L 357.445385 -159.775864 
L 359.736159 -175.37072 
L 362.026933 -196.256861 
L 364.317707 -191.9005 
L 366.608482 -173.591888 
L 368.899256 -180.460332 
L 371.19003 -185.306576 
L 373.480804 -205.713306 
L 375.771578 -218.499357 
L 378.062353 -256.064607 
L 380.353127 -248.677381 
L 382.643901 -213.554661 
L 384.934675 -190.638143 
L 387.22545 -160.061199 
L 389.516224 -165.398295 
L 391.806998 -158.25164 
L 394.097772 -164.074105 
L 396.388546 -170.772327 
L 398.679321 -181.907218 
L 400.970095 -179.915603 
L 403.260869 -186.380912 
L 405.551643 -176.182477 
L 407.842418 -175.040565 
L 410.133192 -193.655553 
L 412.423966 -190.997733 
L 414.71474 -194.783335 
L 417.005514 -198.008702 
L 419.296289 -192.441943 
L 421.587063 -170.07796 
L 423.877837 -168.994372 
L 426.168611 -178.847995 
L 428.459386 -193.2288 
L 430.75016 -179.82143 
L 433.040934 -183.556028 
L 435.331708 -180.514221 
L 437.622483 -188.632737 
L 439.913257 -189.521425 
L 442.204031 -175.426793 
L 444.494805 -169.426104 
L 446.785579 -172.31234 
L 449.076354 -174.411819 
L 451.367128 -167.644783 
L 453.657902 -165.472742 
L 455.948676 -157.894961 
L 458.239451 -150.683999 
L 460.530225 -171.2992 
L 462.820999 -259.4108 
L 465.111773 -196.771839 
L 467.402547 -196.448331 
L 469.693322 -176.097318 
L 471.984096 -173.223311 
L 474.27487 -178.05748 
L 476.565644 -195.130936 
L 478.856419 -183.276764 
L 481.147193 -179.535855 
L 483.437967 -183.676231 
L 485.728741 -183.517937 
L 488.019515 -186.425528 
L 490.31029 -191.941521 
L 492.601064 -178.398853 
L 494.891838 -205.051084 
L 497.182612 -233.705102 
L 499.473387 -204.530496 
L 501.764161 -303.035995 
L 504.054935 -225.154928 
L 506.345709 -208.165833 
L 508.636484 -175.847878 
L 510.927258 -178.436774 
L 513.218032 -179.680879 
L 515.508806 -177.930481 
L 517.79958 -177.403403 
L 520.090355 -178.487832 
L 522.381129 -173.790105 
L 524.671903 -175.686731 
L 526.962677 -165.635882 
L 529.253452 -163.935993 
L 531.544226 -172.406215 
L 533.835 -180.911706 
L 536.125774 -171.159388 
L 538.416548 -180.425359 
L 540.707323 -171.640879 
L 542.998097 -174.929915 
L 545.288871 -168.581655 
L 547.579645 -172.810232 
L 549.87042 -179.901599 
L 552.161194 -170.286686 
L 554.451968 -174.805074 
L 556.742742 -177.443289 
L 559.033516 -180.12409 
L 561.324291 -184.480289 
L 563.615065 -183.246518 
L 565.905839 -183.407316 
L 568.196613 -172.762175 
L 570.487388 -170.608589 
L 572.778162 -175.132854 
L 575.068936 -179.53036 
L 577.35971 -181.797127 
L 579.650485 -165.575359 
L 581.941259 -171.279994 
L 584.232033 -170.097484 
L 586.522807 -181.55544 
L 588.813581 -181.207013 
L 591.104356 -165.880818 
L 593.39513 -160.133184 
L 595.685904 -166.910581 
L 597.976678 -173.904795 
L 600.267453 -167.012144 
L 602.558227 -173.653591 
L 604.849001 -180.854376 
L 607.139775 -169.547611 
L 609.430549 -177.667866 
L 611.721324 -165.885191 
L 614.012098 -171.636878 
L 616.302872 -161.956622 
L 618.593646 -178.81294 
L 620.884421 -174.560758 
L 623.175195 -173.643432 
L 625.465969 -167.481573 
L 627.756743 -169.372196 
L 630.047517 -167.52451 
L 632.338292 -164.813339 
L 634.629066 -181.027015 
L 636.91984 -177.042384 
L 639.210614 -169.158358 
L 641.501389 -182.751832 
L 643.792163 -173.403455 
L 646.082937 -166.755965 
L 648.373711 -176.774456 
L 650.664486 -181.858091 
L 652.95526 -178.027745 
L 655.246034 -175.577955 
L 657.536808 -181.240559 
L 659.827582 -186.03347 
L 662.118357 -178.707017 
L 664.409131 -179.518344 
L 666.699905 -189.792394 
L 668.990679 -189.044872 
L 671.281454 -182.144856 
L 673.572228 -189.071555 
L 675.863002 -194.037566 
L 678.153776 -189.278686 
L 680.44455 -184.203473 
L 682.735325 -199.087867 
L 685.026099 -192.659477 
L 687.316873 -209.995795 
L 689.607647 -206.200688 
L 691.898422 -195.541016 
L 694.189196 -181.354021 
L 696.47997 -174.823714 
L 698.770744 -175.99958 
L 701.061518 -179.931685 
L 703.352293 -180.917043 
L 705.643067 -174.906421 
L 707.933841 -178.60226 
L 710.224615 -188.920871 
L 712.51539 -167.790683 
L 714.806164 -181.579973 
L 717.096938 -172.232005 
L 719.387712 -181.375784 
L 721.678487 -185.701723 
L 723.969261 -185.597815 
L 726.260035 -173.289071 
L 728.550809 -176.653856 
L 730.841583 -188.754216 
L 733.132358 -182.564163 
L 735.423132 -186.734935 
L 737.713906 -180.123862 
L 740.00468 -179.157865 
L 742.295455 -177.047873 
L 744.586229 -160.754964 
L 746.877003 -164.743486 
L 749.167777 -163.758517 
L 751.458551 -166.988804 
L 753.749326 -167.57858 
L 756.0401 -179.309145 
L 758.330874 -182.250366 
L 760.621648 -178.371886 
L 762.912423 -181.087102 
L 765.203197 -170.66811 
L 767.493971 -171.01217 
L 769.784745 -173.37041 
L 772.075519 -163.7639 
L 774.366294 -166.66 
L 776.657068 -164.818424 
L 778.947842 -163.815333 
L 781.238616 -170.202184 
L 783.529391 -159.425701 
L 785.820165 -175.727865 
L 788.110939 -188.341053 
L 790.401713 -169.363812 
L 792.692488 -156.082808 
L 794.983262 -170.394957 
L 797.274036 -169.225043 
L 799.56481 -169.61354 
L 801.855584 -169.944753 
L 804.146359 -167.163673 
L 806.437133 -154.454394 
L 808.727907 -149.832251 
L 811.018681 -173.804627 
L 813.309456 -246.972151 
L 815.60023 -211.48224 
L 817.891004 -193.633327 
L 820.181778 -180.415187 
L 822.472552 -160.597426 
L 824.763327 -174.917092 
L 827.054101 -170.764856 
L 829.344875 -184.286494 
L 831.635649 -158.192353 
L 833.926424 -184.438716 
L 836.217198 -246.014686 
L 838.507972 -218.859326 
L 840.798746 -188.975796 
L 843.08952 -169.038943 
L 845.380295 -162.704744 
L 847.671069 -152.417809 
L 849.961843 -158.99523 
L 852.252617 -156.027793 
L 854.543392 -156.779836 
L 856.834166 -158.360808 
L 859.12494 -155.016886 
L 861.415714 -146.436403 
L 863.706489 -140.077601 
L 865.997263 -150.600634 
L 868.288037 -130.859615 
L 870.578811 -129.05584 
L 872.869585 -125.57376 
L 875.16036 -120.292417 
L 877.451134 -115.456599 
L 879.741908 -111.392406 
L 882.032682 -153.671526 
L 884.323457 -140.21185 
L 886.614231 -147.44749 
L 888.905005 -157.012149 
L 891.195779 -160.046723 
L 893.486553 -163.254895 
L 895.777328 -151.798614 
L 898.068102 -148.692288 
L 900.358876 -159.764268 
L 902.64965 -156.069773 
L 904.940425 -166.770433 
L 907.231199 -160.138678 
L 909.521973 -149.467134 
L 911.812747 -145.891486 
L 914.103521 -146.392216 
L 916.394296 -155.275579 
L 918.68507 -156.094107 
L 920.975844 -160.995758 
L 923.266618 -161.279166 
L 925.557393 -160.609069 
L 927.848167 -160.371789 
L 930.138941 -160.438776 
L 932.429715 -162.656893 
L 934.72049 -153.496125 
L 937.011264 -156.672065 
L 939.302038 -161.581687 
L 941.592812 -159.386068 
L 943.883586 -156.635713 
L 946.174361 -157.940006 
L 948.465135 -167.979719 
L 950.755909 -163.347175 
L 950.755909 -211.39143 
L 950.755909 -211.39143 
L 948.465135 -240.192362 
L 946.174361 -201.243248 
L 943.883586 -207.705823 
L 941.592812 -218.375166 
L 939.302038 -208.064632 
L 937.011264 -206.749762 
L 934.72049 -202.098544 
L 932.429715 -212.829354 
L 930.138941 -209.503333 
L 927.848167 -214.26537 
L 925.557393 -217.084866 
L 923.266618 -218.28501 
L 920.975844 -222.767724 
L 918.68507 -210.900365 
L 916.394296 -201.112359 
L 914.103521 -190.262316 
L 911.812747 -191.087822 
L 909.521973 -194.011039 
L 907.231199 -216.762662 
L 904.940425 -228.654301 
L 902.64965 -208.410547 
L 900.358876 -209.938725 
L 898.068102 -187.001053 
L 895.777328 -194.697964 
L 893.486553 -212.513768 
L 891.195779 -212.794712 
L 888.905005 -211.534378 
L 886.614231 -198.32397 
L 884.323457 -205.571854 
L 882.032682 -229.700451 
L 879.741908 -131.81152 
L 877.451134 -148.868874 
L 875.16036 -154.527859 
L 872.869585 -163.684724 
L 870.578811 -173.114399 
L 868.288037 -166.660299 
L 865.997263 -195.33751 
L 863.706489 -182.6216 
L 861.415714 -190.345913 
L 859.12494 -201.212389 
L 856.834166 -207.298112 
L 854.543392 -211.291594 
L 852.252617 -201.080736 
L 849.961843 -238.645801 
L 847.671069 -197.742289 
L 845.380295 -206.183227 
L 843.08952 -230.809303 
L 840.798746 -272.401707 
L 838.507972 -313.133903 
L 836.217198 -391.718117 
L 833.926424 -267.263259 
L 831.635649 -209.967922 
L 829.344875 -253.757606 
L 827.054101 -235.515971 
L 824.763327 -266.156316 
L 822.472552 -240.325525 
L 820.181778 -271.791105 
L 817.891004 -279.825779 
L 815.60023 -296.586481 
L 813.309456 -348.298972 
L 811.018681 -241.97624 
L 808.727907 -198.120671 
L 806.437133 -204.182653 
L 804.146359 -234.698515 
L 801.855584 -260.629697 
L 799.56481 -238.726979 
L 797.274036 -235.582766 
L 794.983262 -252.695326 
L 792.692488 -238.780144 
L 790.401713 -232.673666 
L 788.110939 -286.727857 
L 785.820165 -235.036345 
L 783.529391 -217.9572 
L 781.238616 -240.862379 
L 778.947842 -233.237002 
L 776.657068 -232.828416 
L 774.366294 -228.076642 
L 772.075519 -236.736292 
L 769.784745 -257.466255 
L 767.493971 -234.14895 
L 765.203197 -235.580875 
L 762.912423 -251.492657 
L 760.621648 -256.813331 
L 758.330874 -294.910337 
L 756.0401 -245.593099 
L 753.749326 -236.770845 
L 751.458551 -227.458341 
L 749.167777 -222.288013 
L 746.877003 -235.480157 
L 744.586229 -222.943159 
L 742.295455 -244.407789 
L 740.00468 -256.535944 
L 737.713906 -253.612885 
L 735.423132 -266.186538 
L 733.132358 -268.556892 
L 730.841583 -302.760213 
L 728.550809 -258.964631 
L 726.260035 -284.05678 
L 723.969261 -273.729394 
L 721.678487 -294.331004 
L 719.387712 -250.751833 
L 717.096938 -231.371149 
L 714.806164 -253.818595 
L 712.51539 -233.174064 
L 710.224615 -290.862478 
L 707.933841 -272.882624 
L 705.643067 -247.739728 
L 703.352293 -277.444524 
L 701.061518 -258.311249 
L 698.770744 -255.760751 
L 696.47997 -252.284831 
L 694.189196 -288.692754 
L 691.898422 -278.281807 
L 689.607647 -309.83788 
L 687.316873 -309.596379 
L 685.026099 -295.639148 
L 682.735325 -291.786344 
L 680.44455 -262.439782 
L 678.153776 -266.866865 
L 675.863002 -274.690743 
L 673.572228 -267.006585 
L 671.281454 -257.127318 
L 668.990679 -272.976045 
L 666.699905 -317.537599 
L 664.409131 -259.488007 
L 662.118357 -249.331769 
L 659.827582 -278.891462 
L 657.536808 -252.869098 
L 655.246034 -244.999119 
L 652.95526 -241.908792 
L 650.664486 -268.397636 
L 648.373711 -253.233958 
L 646.082937 -232.179123 
L 643.792163 -280.56765 
L 641.501389 -262.529801 
L 639.210614 -229.434987 
L 636.91984 -298.768426 
L 634.629066 -259.210176 
L 632.338292 -233.404956 
L 630.047517 -231.049898 
L 627.756743 -239.527252 
L 625.465969 -230.183216 
L 623.175195 -243.630093 
L 620.884421 -233.249631 
L 618.593646 -268.627384 
L 616.302872 -225.261698 
L 614.012098 -246.421396 
L 611.721324 -224.829147 
L 609.430549 -256.155926 
L 607.139775 -231.986012 
L 604.849001 -272.909756 
L 602.558227 -232.955682 
L 600.267453 -238.012329 
L 597.976678 -244.286845 
L 595.685904 -232.165139 
L 593.39513 -220.19882 
L 591.104356 -231.746621 
L 588.813581 -255.839556 
L 586.522807 -247.37989 
L 584.232033 -237.679876 
L 581.941259 -240.838831 
L 579.650485 -238.008867 
L 577.35971 -254.849007 
L 575.068936 -260.366511 
L 572.778162 -241.78558 
L 570.487388 -243.226152 
L 568.196613 -238.152296 
L 565.905839 -256.802369 
L 563.615065 -253.973371 
L 561.324291 -253.675243 
L 559.033516 -246.440145 
L 556.742742 -264.990307 
L 554.451968 -246.981993 
L 552.161194 -246.451723 
L 549.87042 -249.367827 
L 547.579645 -231.903574 
L 545.288871 -227.81157 
L 542.998097 -242.50963 
L 540.707323 -242.733542 
L 538.416548 -250.035574 
L 536.125774 -235.353301 
L 533.835 -257.933191 
L 531.544226 -236.947602 
L 529.253452 -228.472432 
L 526.962677 -236.170661 
L 524.671903 -247.424683 
L 522.381129 -242.204586 
L 520.090355 -271.336865 
L 517.79958 -241.670441 
L 515.508806 -246.187662 
L 513.218032 -289.011379 
L 510.927258 -252.844779 
L 508.636484 -243.446892 
L 506.345709 -312.862137 
L 504.054935 -333.992801 
L 501.764161 -451.721865 
L 499.473387 -294.108297 
L 497.182612 -335.113823 
L 494.891838 -315.795803 
L 492.601064 -245.650032 
L 490.31029 -262.841799 
L 488.019515 -271.895028 
L 485.728741 -287.264618 
L 483.437967 -247.743828 
L 481.147193 -246.460956 
L 478.856419 -246.180532 
L 476.565644 -311.501542 
L 474.27487 -238.228297 
L 471.984096 -245.706196 
L 469.693322 -261.711948 
L 467.402547 -286.880591 
L 465.111773 -308.451671 
L 462.820999 -396.058677 
L 460.530225 -233.562033 
L 458.239451 -207.096792 
L 455.948676 -218.947473 
L 453.657902 -228.401362 
L 451.367128 -226.640405 
L 449.076354 -239.716053 
L 446.785579 -276.589396 
L 444.494805 -235.567121 
L 442.204031 -273.477214 
L 439.913257 -284.314159 
L 437.622483 -275.785874 
L 435.331708 -257.728204 
L 433.040934 -308.319319 
L 430.75016 -264.31926 
L 428.459386 -324.585364 
L 426.168611 -279.675994 
L 423.877837 -237.972227 
L 421.587063 -266.73902 
L 419.296289 -297.260807 
L 417.005514 -279.368038 
L 414.71474 -281.753942 
L 412.423966 -269.943776 
L 410.133192 -278.477817 
L 407.842418 -287.980262 
L 405.551643 -256.407306 
L 403.260869 -285.897533 
L 400.970095 -268.558521 
L 398.679321 -264.380056 
L 396.388546 -250.240597 
L 394.097772 -224.571327 
L 391.806998 -223.40163 
L 389.516224 -235.707369 
L 387.22545 -235.566247 
L 384.934675 -308.921177 
L 382.643901 -342.258157 
L 380.353127 -376.813312 
L 378.062353 -398.087955 
L 375.771578 -335.497699 
L 373.480804 -296.104847 
L 371.19003 -270.727266 
L 368.899256 -264.1491 
L 366.608482 -246.857226 
L 364.317707 -290.868636 
L 362.026933 -303.640242 
L 359.736159 -282.872856 
L 357.445385 -231.230638 
L 355.15461 -296.130525 
L 352.863836 -303.14894 
L 350.573062 -245.279639 
L 348.282288 -307.766026 
L 345.991513 -279.247333 
L 343.700739 -307.026847 
L 341.409965 -284.703374 
L 339.119191 -263.418418 
L 336.828417 -256.189678 
L 334.537642 -256.874234 
L 332.246868 -245.874052 
L 329.956094 -245.801986 
L 327.66532 -226.628956 
L 325.374545 -237.10053 
L 323.083771 -243.442515 
L 320.792997 -232.3682 
L 318.502223 -243.794744 
L 316.211449 -274.251938 
L 313.920674 -283.81306 
L 311.6299 -233.99172 
L 309.339126 -238.480728 
L 307.048352 -222.600463 
L 304.757577 -218.492169 
L 302.466803 -259.458244 
L 300.176029 -255.088822 
L 297.885255 -262.121252 
L 295.594481 -238.384521 
L 293.303706 -256.367108 
L 291.012932 -266.586363 
L 288.722158 -261.727793 
L 286.431384 -284.000265 
L 284.140609 -260.531126 
L 281.849835 -299.761384 
L 279.559061 -249.286558 
L 277.268287 -250.763543 
L 274.977512 -256.065939 
L 272.686738 -252.109282 
L 270.395964 -286.236607 
L 268.10519 -293.441899 
L 265.814416 -243.627276 
L 263.523641 -266.273528 
L 261.232867 -286.452214 
L 258.942093 -279.860707 
L 256.651319 -234.850984 
L 254.360544 -267.363299 
L 252.06977 -295.0517 
L 249.778996 -241.105601 
L 247.488222 -249.658213 
L 245.197448 -261.225891 
L 242.906673 -242.288952 
L 240.615899 -235.851931 
L 238.325125 -282.213469 
L 236.034351 -260.276082 
L 233.743576 -265.811607 
L 231.452802 -239.471182 
L 229.162028 -280.812274 
L 226.871254 -270.577637 
L 224.58048 -281.582378 
L 222.289705 -255.17183 
L 219.998931 -237.274224 
L 217.708157 -268.117075 
L 215.417383 -249.821366 
L 213.126608 -245.660983 
L 210.835834 -270.843258 
L 208.54506 -229.118399 
L 206.254286 -289.165727 
L 203.963511 -238.557432 
L 201.672737 -288.785835 
L 199.381963 -213.804892 
L 197.091189 -218.183621 
L 194.800415 -198.954182 
L 192.50964 -214.399303 
L 190.218866 -205.856864 
L 187.928092 -198.32872 
L 185.637318 -125.27558 
L 183.346543 -224.547888 
L 181.055769 -302.17277 
L 178.764995 -287.22638 
L 176.474221 -296.678854 
L 174.183447 -305.32184 
L 171.892672 -300.085651 
L 169.601898 -289.354359 
L 167.311124 -294.002925 
L 165.02035 -329.290282 
L 162.729575 -289.296968 
L 160.438801 -316.149505 
L 158.148027 -299.99011 
L 155.857253 -280.235018 
L 153.566479 -291.042924 
L 151.275704 -280.849748 
L 148.98493 -265.962622 
L 146.694156 -282.36943 
L 144.403382 -280.849257 
L 142.112607 -307.823733 
L 139.821833 -295.706035 
L 137.531059 -334.634926 
L 135.240285 -240.565544 
L 132.94951 -238.475214 
L 130.658736 -251.868825 
L 128.367962 -279.348429 
L 126.077188 -263.004441 
L 123.786414 -282.562659 
L 121.495639 -268.978418 
L 119.204865 -293.912566 
L 116.914091 -290.920792 
z
" style="stroke: #dd8452; stroke-opacity: 0.2"/>
    </defs>
    <g clip-path="url(#p22d6670457)">
     <use xlink:href="#m76b169af3f" x="0" y="576" style="fill: #dd8452; fill-opacity: 0.2; stroke: #dd8452; stroke-opacity: 0.2"/>
    </g>
   </g>
   <g id="line2d_47">
    <path d="M 116.914091 365.782286 
L 119.204865 367.861738 
L 121.495639 404.586424 
L 123.786414 392.067357 
L 126.077188 391.745699 
L 128.367962 382.887503 
L 130.658736 394.961438 
L 132.94951 363.907627 
L 135.240285 392.97052 
L 137.531059 393.796423 
L 139.821833 405.978658 
L 142.112607 373.262728 
L 144.403382 404.831971 
L 146.694156 392.470625 
L 148.98493 386.809415 
L 151.275704 389.631236 
L 153.566479 400.96864 
L 155.857253 384.20691 
L 158.148027 414.158326 
L 160.438801 364.197059 
L 162.729575 382.29823 
L 165.02035 382.189359 
L 167.311124 383.834668 
L 169.601898 367.112768 
L 171.892672 379.155437 
L 174.183447 389.803191 
L 176.474221 396.334442 
L 178.764995 387.021929 
L 181.055769 381.165883 
L 183.346543 381.584483 
L 185.637318 376.279306 
L 187.928092 384.887805 
L 190.218866 367.254999 
L 192.50964 376.129454 
L 194.800415 376.064299 
L 197.091189 368.585199 
L 199.381963 369.872453 
L 201.672737 368.027454 
L 203.963511 367.436636 
L 206.254286 375.457985 
L 208.54506 380.063033 
L 210.835834 470.219001 
L 213.126608 416.93514 
L 215.417383 414.317312 
L 217.708157 398.360918 
L 219.998931 383.762131 
L 222.289705 378.988138 
L 224.58048 398.832739 
L 226.871254 390.450986 
L 229.162028 384.491722 
L 231.452802 383.108119 
L 233.743576 387.120197 
L 236.034351 404.297547 
L 238.325125 385.742693 
L 240.615899 397.885119 
L 242.906673 397.68904 
L 245.197448 409.998567 
L 247.488222 392.487002 
L 249.778996 400.324271 
L 252.06977 388.29083 
L 254.360544 398.186303 
L 256.651319 393.312521 
L 258.942093 394.861585 
L 261.232867 387.238657 
L 263.523641 392.19596 
L 265.814416 399.617704 
L 268.10519 369.109515 
L 270.395964 387.413661 
L 272.686738 407.756297 
L 274.977512 412.683931 
L 277.268287 393.909397 
L 279.559061 402.860081 
L 281.849835 399.997138 
L 284.140609 407.109171 
L 286.431384 397.403278 
L 288.722158 401.584508 
L 291.012932 387.997658 
L 293.303706 390.92641 
L 295.594481 387.829617 
L 297.885255 409.169379 
L 300.176029 395.540026 
L 302.466803 389.234917 
L 304.757577 403.139685 
L 307.048352 387.882419 
L 309.339126 400.625081 
L 311.6299 410.008662 
L 313.920674 388.383783 
L 316.211449 392.008905 
L 318.502223 394.969877 
L 320.792997 400.401992 
L 323.083771 407.807234 
L 325.374545 402.800389 
L 327.66532 394.712017 
L 329.956094 407.348688 
L 332.246868 394.406859 
L 334.537642 391.681546 
L 336.828417 392.822468 
L 339.119191 381.75934 
L 341.409965 392.032912 
L 343.700739 391.91778 
L 345.991513 399.846363 
L 348.282288 401.927619 
L 350.573062 400.221037 
L 352.863836 393.903444 
L 355.15461 400.662961 
L 357.445385 387.998404 
L 359.736159 392.309373 
L 362.026933 399.038401 
L 364.317707 400.862672 
L 366.608482 387.86076 
L 368.899256 393.790078 
L 371.19003 385.282995 
L 373.480804 400.928861 
L 375.771578 395.250551 
L 378.062353 378.091891 
L 380.353127 390.812769 
L 382.643901 394.60838 
L 384.934675 384.792315 
L 387.22545 400.477293 
L 389.516224 403.566409 
L 391.806998 402.363767 
L 394.097772 419.782881 
L 396.388546 417.970085 
L 398.679321 405.875226 
L 400.970095 410.947722 
L 403.260869 380.801848 
L 405.551643 379.358685 
L 407.842418 389.449221 
L 410.133192 389.075374 
L 412.423966 361.666925 
L 414.71474 375.299795 
L 417.005514 396.395024 
L 419.296289 394.123052 
L 421.587063 394.641724 
L 423.877837 381.035635 
L 426.168611 399.360037 
L 428.459386 378.192535 
L 430.75016 373.011019 
L 433.040934 376.282684 
L 435.331708 385.088659 
L 437.622483 383.004681 
L 439.913257 388.945238 
L 442.204031 379.82819 
L 444.494805 365.0105 
L 446.785579 366.418577 
L 449.076354 385.253619 
L 451.367128 399.973896 
L 453.657902 398.891091 
L 455.948676 387.216352 
L 458.239451 408.419321 
L 460.530225 387.802448 
L 462.820999 219.446091 
L 465.111773 331.9585 
L 467.402547 323.246522 
L 469.693322 375.899211 
L 471.984096 360.755991 
L 474.27487 358.539392 
L 476.565644 362.871319 
L 478.856419 346.936264 
L 481.147193 369.59703 
L 483.437967 384.525311 
L 485.728741 386.572276 
L 488.019515 381.269183 
L 490.31029 370.627087 
L 492.601064 381.218736 
L 494.891838 382.948031 
L 497.182612 326.5915 
L 499.473387 354.592437 
L 501.764161 159.592334 
L 504.054935 295.331047 
L 506.345709 367.525793 
L 508.636484 387.020434 
L 510.927258 399.555648 
L 513.218032 398.625721 
L 515.508806 396.700871 
L 520.090355 414.085736 
L 522.381129 398.879892 
L 524.671903 392.048346 
L 526.962677 402.126768 
L 529.253452 391.197429 
L 531.544226 391.723972 
L 533.835 381.585805 
L 536.125774 389.056372 
L 538.416548 380.646521 
L 540.707323 390.2472 
L 542.998097 392.177161 
L 545.288871 386.810078 
L 549.87042 398.032265 
L 552.161194 392.661111 
L 556.742742 393.664711 
L 559.033516 377.452494 
L 561.324291 400.289218 
L 563.615065 403.259646 
L 565.905839 404.600907 
L 568.196613 406.608971 
L 570.487388 416.341107 
L 572.778162 407.270247 
L 575.068936 410.982178 
L 577.35971 402.888647 
L 579.650485 412.786279 
L 581.941259 407.225375 
L 584.232033 410.957282 
L 586.522807 413.416129 
L 588.813581 407.408456 
L 591.104356 400.253434 
L 593.39513 404.632836 
L 595.685904 407.864033 
L 597.976678 402.196974 
L 600.267453 401.479887 
L 602.558227 412.248655 
L 604.849001 403.746629 
L 607.139775 402.928158 
L 609.430549 387.384764 
L 611.721324 393.051333 
L 614.012098 404.88638 
L 616.302872 402.838392 
L 618.593646 397.796702 
L 620.884421 407.426003 
L 623.175195 396.850418 
L 625.465969 405.70586 
L 627.756743 395.7933 
L 630.047517 388.174532 
L 632.338292 401.722761 
L 634.629066 391.781659 
L 636.91984 403.164681 
L 639.210614 399.221287 
L 641.501389 395.970505 
L 643.792163 408.26903 
L 646.082937 400.821645 
L 648.373711 402.469634 
L 650.664486 406.883317 
L 652.95526 394.21258 
L 655.246034 403.101922 
L 657.536808 387.864262 
L 659.827582 383.937684 
L 662.118357 385.150047 
L 664.409131 375.050213 
L 666.699905 377.991477 
L 668.990679 381.136321 
L 671.281454 381.404193 
L 673.572228 361.338239 
L 675.863002 367.077512 
L 678.153776 385.511852 
L 680.44455 380.153789 
L 682.735325 400.031974 
L 685.026099 374.429157 
L 687.316873 396.309995 
L 689.607647 383.252094 
L 691.898422 339.777658 
L 694.189196 379.580174 
L 696.47997 387.737764 
L 698.770744 380.524876 
L 701.061518 368.513356 
L 705.643067 383.013595 
L 707.933841 365.58324 
L 710.224615 376.701861 
L 712.51539 376.875117 
L 714.806164 373.485142 
L 717.096938 384.636598 
L 719.387712 402.189518 
L 721.678487 381.57182 
L 723.969261 378.864699 
L 726.260035 377.319557 
L 728.550809 391.39738 
L 730.841583 378.375733 
L 733.132358 389.68344 
L 735.423132 374.873152 
L 737.713906 388.330776 
L 740.00468 402.8139 
L 742.295455 393.763734 
L 744.586229 406.038496 
L 746.877003 407.61842 
L 749.167777 411.781106 
L 751.458551 412.706442 
L 753.749326 385.795327 
L 756.0401 411.738423 
L 758.330874 381.778679 
L 760.621648 389.554174 
L 762.912423 389.967653 
L 765.203197 385.3239 
L 767.493971 394.398344 
L 769.784745 394.096414 
L 772.075519 397.612676 
L 774.366294 381.053679 
L 776.657068 394.329395 
L 778.947842 398.239055 
L 781.238616 383.608184 
L 783.529391 373.754427 
L 785.820165 340.198468 
L 788.110939 349.106874 
L 790.401713 332.202447 
L 792.692488 349.546817 
L 794.983262 372.375092 
L 797.274036 362.069385 
L 799.56481 356.398349 
L 801.855584 355.551954 
L 804.146359 356.732061 
L 806.437133 375.231052 
L 808.727907 381.537833 
L 811.018681 361.852513 
L 813.309456 264.782977 
L 815.60023 291.572936 
L 817.891004 271.142863 
L 820.181778 254.078628 
L 822.472552 310.578104 
L 824.763327 324.03765 
L 827.054101 353.020162 
L 829.344875 310.671466 
L 831.635649 345.569062 
L 833.926424 382.278315 
L 836.217198 207.355737 
L 838.507972 294.749002 
L 843.08952 339.239744 
L 845.380295 373.615389 
L 847.671069 394.000611 
L 849.961843 374.038729 
L 852.252617 376.904695 
L 854.543392 364.62383 
L 856.834166 371.892676 
L 859.12494 376.26332 
L 861.415714 353.566497 
L 863.706489 370.497182 
L 865.997263 373.528555 
L 868.288037 387.908308 
L 870.578811 381.826233 
L 872.869585 374.688518 
L 875.16036 366.642352 
L 877.451134 360.538522 
L 879.741908 372.238835 
L 882.032682 364.342446 
L 884.323457 375.05106 
L 886.614231 364.890084 
L 888.905005 365.773176 
L 891.195779 377.41732 
L 893.486553 378.006182 
L 895.777328 359.898996 
L 898.068102 373.569581 
L 900.358876 369.084865 
L 902.64965 347.330089 
L 904.940425 329.054884 
L 907.231199 217.336651 
L 909.521973 329.321803 
L 911.812747 367.97087 
L 914.103521 367.197466 
L 916.394296 367.174779 
L 918.68507 381.617797 
L 920.975844 353.567597 
L 923.266618 363.020592 
L 925.557393 369.496676 
L 927.848167 349.518973 
L 930.138941 361.518166 
L 932.429715 360.012707 
L 934.72049 350.354765 
L 937.011264 373.025439 
L 939.302038 359.548686 
L 941.592812 373.481896 
L 943.883586 355.03575 
L 946.174361 354.06647 
L 948.465135 356.739733 
L 950.755909 357.020932 
L 950.755909 357.020932 
" clip-path="url(#p22d6670457)" style="fill: none; stroke: #4c72b0; stroke-width: 1.5; stroke-linecap: round"/>
   </g>
   <g id="line2d_48">
    <path d="M 116.914091 344.851337 
L 119.204865 342.826793 
L 121.495639 367.56214 
L 123.786414 353.736517 
L 126.077188 363.044896 
L 128.367962 354.905888 
L 130.658736 362.156655 
L 132.94951 374.79727 
L 135.240285 371.500229 
L 137.531059 309.160437 
L 139.821833 339.716357 
L 142.112607 339.23812 
L 144.403382 351.629717 
L 146.694156 356.543306 
L 148.98493 356.685535 
L 151.275704 343.09009 
L 153.566479 346.30963 
L 155.857253 345.793536 
L 158.148027 329.337111 
L 160.438801 321.574915 
L 162.729575 338.875191 
L 165.02035 314.675331 
L 167.311124 331.488988 
L 169.601898 336.796014 
L 171.892672 327.376586 
L 174.183447 331.892775 
L 176.474221 340.738161 
L 178.764995 341.863652 
L 181.055769 338.283623 
L 183.346543 392.104598 
L 185.637318 463.211372 
L 187.928092 406.777644 
L 190.218866 405.998889 
L 192.50964 397.035713 
L 194.800415 406.516895 
L 197.091189 393.609114 
L 199.381963 395.183201 
L 201.672737 355.577114 
L 203.963511 378.787602 
L 206.254286 352.807698 
L 208.54506 378.398435 
L 210.835834 356.775393 
L 213.126608 372.8499 
L 215.417383 379.457675 
L 217.708157 361.884365 
L 219.998931 375.15279 
L 222.289705 370.647131 
L 224.58048 360.716584 
L 226.871254 360.547341 
L 229.162028 343.795385 
L 231.452802 371.543919 
L 233.743576 360.907303 
L 236.034351 356.625463 
L 238.325125 357.898261 
L 240.615899 375.877714 
L 242.906673 371.600044 
L 245.197448 357.708529 
L 247.488222 366.293197 
L 249.778996 372.746249 
L 252.06977 350.294841 
L 254.360544 360.6916 
L 256.651319 375.670452 
L 258.942093 346.8484 
L 261.232867 340.130542 
L 263.523641 362.10647 
L 265.814416 367.380638 
L 268.10519 339.264844 
L 270.395964 348.037843 
L 272.686738 368.094649 
L 274.977512 365.764411 
L 277.268287 365.801919 
L 279.559061 364.645768 
L 281.849835 343.637679 
L 284.140609 360.588804 
L 286.431384 353.718253 
L 288.722158 368.374637 
L 291.012932 361.812734 
L 293.303706 360.888551 
L 295.594481 373.935244 
L 297.885255 364.821415 
L 300.176029 360.059691 
L 302.466803 364.685454 
L 304.757577 388.338968 
L 307.048352 385.802004 
L 309.339126 378.824592 
L 311.6299 383.11802 
L 313.920674 361.374409 
L 316.211449 361.476134 
L 318.502223 375.776858 
L 320.792997 381.92653 
L 323.083771 371.800176 
L 327.66532 383.176208 
L 329.956094 372.476519 
L 332.246868 370.643808 
L 334.537642 362.7109 
L 336.828417 361.016055 
L 339.119191 356.426117 
L 341.409965 335.841223 
L 343.700739 331.690594 
L 345.991513 343.815297 
L 348.282288 334.732267 
L 350.573062 369.754199 
L 352.863836 340.419686 
L 355.15461 340.075368 
L 357.445385 382.366449 
L 359.736159 352.447202 
L 362.026933 330.390753 
L 364.317707 342.171564 
L 366.608482 367.714195 
L 368.899256 355.834125 
L 371.19003 351.124364 
L 373.480804 327.942293 
L 375.771578 302.413548 
L 378.062353 256.66087 
L 380.353127 268.361086 
L 384.934675 336.896982 
L 387.22545 381.821871 
L 389.516224 377.049887 
L 391.806998 386.843644 
L 394.097772 383.892558 
L 396.388546 368.343743 
L 398.679321 357.329667 
L 400.970095 357.42975 
L 403.260869 343.058047 
L 405.551643 362.202238 
L 407.842418 355.38857 
L 410.133192 342.752268 
L 412.423966 346.496153 
L 414.71474 338.550746 
L 417.005514 339.040776 
L 419.296289 336.79325 
L 421.587063 362.404839 
L 423.877837 374.152908 
L 426.168611 352.312804 
L 428.459386 325.223258 
L 430.75016 357.781328 
L 433.040934 336.755183 
L 435.331708 360.593481 
L 437.622483 346.288546 
L 439.913257 342.317209 
L 442.204031 359.670439 
L 444.494805 375.274433 
L 446.785579 357.55517 
L 451.367128 380.051786 
L 453.657902 379.634068 
L 455.948676 389.361711 
L 458.239451 398.551786 
L 460.530225 375.575393 
L 462.820999 254.590658 
L 465.111773 333.257814 
L 467.402547 338.663588 
L 469.693322 359.785492 
L 471.984096 368.047449 
L 474.27487 368.625793 
L 476.565644 331.045494 
L 478.856419 359.974599 
L 481.147193 364.779625 
L 483.437967 362.686268 
L 485.728741 347.623836 
L 488.019515 349.104795 
L 490.31029 348.107632 
L 492.601064 366.644336 
L 494.891838 321.210944 
L 497.182612 293.761192 
L 499.473387 327.11735 
L 501.764161 203.424172 
L 504.054935 300.501918 
L 506.345709 320.193259 
L 508.636484 367.709172 
L 510.927258 366.238549 
L 513.218032 349.352162 
L 515.508806 367.243812 
L 517.79958 368.098819 
L 520.090355 356.649645 
L 522.381129 373.203256 
L 524.671903 366.93605 
L 526.962677 376.874472 
L 529.253452 380.702787 
L 531.544226 371.47034 
L 533.835 358.646693 
L 536.125774 374.293779 
L 538.416548 361.981874 
L 540.707323 369.513964 
L 542.998097 368.764852 
L 545.288871 379.497177 
L 547.579645 373.645351 
L 549.87042 365.359084 
L 552.161194 368.55104 
L 554.451968 366.059928 
L 556.742742 361.810497 
L 559.033516 364.194861 
L 561.324291 358.584925 
L 563.615065 358.440769 
L 565.905839 358.644876 
L 568.196613 372.688358 
L 570.487388 368.756187 
L 572.778162 369.053975 
L 575.068936 358.825134 
L 577.35971 359.565317 
L 579.650485 376.835349 
L 581.941259 372.39744 
L 584.232033 376.237658 
L 586.522807 360.320835 
L 588.813581 360.916161 
L 591.104356 380.997644 
L 593.39513 386.681053 
L 595.685904 379.539494 
L 597.976678 368.208738 
L 600.267453 376.643604 
L 602.558227 373.211371 
L 604.849001 351.340544 
L 607.139775 378.100132 
L 609.430549 361.44121 
L 611.721324 382.532681 
L 614.012098 369.823359 
L 616.302872 383.771294 
L 618.593646 356.577785 
L 620.884421 374.903529 
L 623.175195 372.128766 
L 625.465969 379.569065 
L 627.756743 375.700057 
L 630.047517 379.331378 
L 632.338292 378.110287 
L 634.629066 358.405245 
L 636.91984 350.371816 
L 639.210614 378.194611 
L 641.501389 357.99736 
L 643.792163 356.229088 
L 646.082937 377.826934 
L 648.373711 363.083763 
L 650.664486 353.533385 
L 652.95526 367.369085 
L 655.246034 369.441522 
L 657.536808 362.437549 
L 659.827582 350.600431 
L 662.118357 365.059687 
L 664.409131 360.177321 
L 666.699905 334.36918 
L 671.281454 359.210425 
L 673.572228 350.802374 
L 675.863002 344.130665 
L 678.153776 349.321826 
L 680.44455 353.973851 
L 682.735325 335.028187 
L 685.026099 334.694064 
L 687.316873 319.523788 
L 689.607647 319.980996 
L 691.898422 341.836762 
L 694.189196 348.146405 
L 696.47997 365.834432 
L 698.770744 363.223856 
L 701.061518 356.765252 
L 703.352293 353.540776 
L 705.643067 364.903323 
L 707.933841 354.883445 
L 710.224615 337.880994 
L 712.51539 377.069802 
L 714.806164 359.738558 
L 717.096938 375.759471 
L 719.387712 361.525794 
L 721.678487 343.549193 
L 723.969261 349.683928 
L 726.260035 356.690661 
L 728.550809 359.867054 
L 730.841583 342.088141 
L 733.132358 354.646716 
L 735.423132 352.88843 
L 737.713906 361.952905 
L 740.00468 363.907773 
L 742.295455 367.061641 
L 744.586229 385.79576 
L 746.877003 377.393381 
L 749.167777 382.941094 
L 751.458551 378.981337 
L 753.749326 377.27355 
L 756.0401 366.036919 
L 758.330874 344.973927 
L 760.621648 360.855956 
L 762.912423 361.403132 
L 765.203197 375.046199 
L 767.493971 374.484399 
L 769.784745 364.696891 
L 772.075519 377.72804 
L 774.366294 380.23127 
L 776.657068 380.444465 
L 778.947842 380.373131 
L 781.238616 371.682121 
L 783.529391 387.814224 
L 785.820165 371.040613 
L 788.110939 345.345753 
L 790.401713 377.295517 
L 792.692488 385.208925 
L 794.983262 368.066641 
L 797.274036 376.762875 
L 799.56481 374.624406 
L 801.855584 367.180192 
L 804.146359 377.057311 
L 806.437133 398.596725 
L 808.727907 405.43934 
L 811.018681 369.818174 
L 813.309456 279.348634 
L 815.60023 323.29783 
L 817.891004 342.744143 
L 820.181778 355.897138 
L 822.472552 380.728675 
L 824.763327 359.229522 
L 827.054101 373.826265 
L 829.344875 359.903702 
L 831.635649 392.578533 
L 833.926424 355.331034 
L 836.217198 264.695535 
L 838.507972 315.716544 
L 840.798746 349.002358 
L 843.08952 378.441181 
L 845.380295 392.397294 
L 847.671069 401.045588 
L 849.961843 384.954944 
L 852.252617 399.49491 
L 854.543392 393.73328 
L 856.834166 394.992614 
L 859.12494 398.877154 
L 861.415714 409.531438 
L 863.706489 416.034072 
L 865.997263 403.68984 
L 868.288037 427.346536 
L 870.578811 427.965016 
L 872.869585 432.346691 
L 875.16036 440.04115 
L 877.451134 446.079076 
L 879.741908 454.105691 
L 882.032682 388.675438 
L 884.323457 407.224713 
L 886.614231 405.144773 
L 888.905005 393.255012 
L 891.195779 391.679582 
L 893.486553 389.830504 
L 895.777328 403.775998 
L 898.068102 408.710734 
L 900.358876 391.766033 
L 902.64965 393.891016 
L 904.940425 379.798871 
L 907.231199 388.707666 
L 909.521973 405.534666 
L 911.812747 409.632812 
L 914.103521 409.249304 
L 916.394296 398.778244 
L 918.68507 394.192499 
L 920.975844 387.386559 
L 923.266618 388.064248 
L 925.557393 389.556265 
L 927.848167 390.45064 
L 930.138941 392.763919 
L 932.429715 390.530353 
L 934.72049 399.218742 
L 937.011264 396.519124 
L 939.302038 393.250276 
L 941.592812 390.344992 
L 943.883586 395.454559 
L 946.174361 397.441461 
L 948.465135 376.62262 
L 950.755909 390.3011 
L 950.755909 390.3011 
" clip-path="url(#p22d6670457)" style="fill: none; stroke: #dd8452; stroke-width: 1.5; stroke-linecap: round"/>
   </g>
   <g id="line2d_49"/>
   <g id="line2d_50"/>
   <g id="patch_3">
    <path d="M 75.222 501.03675 
L 75.222 15.552 
" style="fill: none; stroke: #cccccc; stroke-width: 1.25; stroke-linejoin: miter; stroke-linecap: square"/>
   </g>
   <g id="patch_4">
    <path d="M 992.448 501.03675 
L 992.448 15.552 
" style="fill: none; stroke: #cccccc; stroke-width: 1.25; stroke-linejoin: miter; stroke-linecap: square"/>
   </g>
   <g id="patch_5">
    <path d="M 75.222 501.03675 
L 992.448 501.03675 
" style="fill: none; stroke: #cccccc; stroke-width: 1.25; stroke-linejoin: miter; stroke-linecap: square"/>
   </g>
   <g id="patch_6">
    <path d="M 75.222 15.552 
L 992.448 15.552 
" style="fill: none; stroke: #cccccc; stroke-width: 1.25; stroke-linejoin: miter; stroke-linecap: square"/>
   </g>
   <g id="legend_1">
    <g id="patch_7">
     <path d="M 914.568 80.967 
L 983.208 80.967 
Q 985.848 80.967 985.848 78.327 
L 985.848 24.792 
Q 985.848 22.152 983.208 22.152 
L 914.568 22.152 
Q 911.928 22.152 911.928 24.792 
L 911.928 78.327 
Q 911.928 80.967 914.568 80.967 
z
" style="fill: #ffffff; opacity: 0.8; stroke: #cccccc; stroke-linejoin: miter"/>
    </g>
    <g id="text_49">
     <!-- 年份 -->
     <g style="fill: #262626" transform="translate(934.488 38.907) scale(0.144 -0.144)">
      <defs>
       <path id="SimHei-5e74" d="M 350 2925 
Q 900 3450 1375 4200 
Q 1850 4950 1900 5275 
Q 2275 5125 2600 5050 
Q 2375 4825 2100 4325 
L 4625 4325 
Q 5175 4325 5750 4350 
L 5750 3925 
Q 5225 3950 4625 3950 
L 3800 3950 
L 3800 2925 
Q 4750 2925 5475 2950 
L 5475 2525 
Q 4725 2550 3800 2550 
L 3800 1375 
L 5075 1375 
Q 5625 1375 6100 1400 
L 6100 975 
Q 5650 1000 5075 1000 
L 3800 1000 
L 3800 425 
Q 3800 -150 3825 -625 
L 3275 -625 
Q 3300 -150 3300 375 
L 3300 1000 
L 1600 1000 
Q 900 1000 275 975 
L 275 1400 
Q 875 1375 1450 1375 
Q 1450 2350 1425 2925 
L 3300 2925 
L 3300 3950 
L 1875 3950 
Q 1350 3150 925 2650 
Q 650 2875 350 2925 
z
M 3300 1375 
L 3300 2550 
L 1925 2550 
L 1925 1375 
L 3300 1375 
z
" transform="scale(0.015625)"/>
       <path id="SimHei-4efd" d="M 4750 5100 
Q 4875 4375 5250 3650 
Q 5625 2925 6200 2450 
Q 6025 2375 5775 2075 
Q 5600 2275 5350 2575 
Q 5300 2275 5275 1312 
Q 5250 350 5187 25 
Q 5125 -300 4850 -400 
Q 4575 -500 4075 -550 
Q 4000 -250 3875 0 
Q 4400 -25 4575 25 
Q 4750 75 4775 587 
Q 4800 1100 4825 2250 
L 3700 2250 
Q 3675 1300 3425 650 
Q 3175 0 2375 -625 
Q 2175 -350 2000 -225 
Q 2750 225 2987 800 
Q 3225 1375 3225 2250 
Q 3000 2250 2675 2225 
L 2675 2575 
Q 2475 2300 2150 1950 
Q 2000 2150 1750 2300 
Q 2875 3275 3225 4875 
Q 3450 4775 3750 4675 
Q 3625 4400 3425 3887 
Q 3225 3375 2775 2700 
Q 3050 2675 3400 2675 
L 5300 2675 
Q 4575 3625 4275 4975 
Q 4575 5025 4750 5100 
z
M 225 2525 
Q 575 2875 1025 3687 
Q 1475 4500 1650 5225 
Q 1975 5075 2200 4975 
Q 2050 4750 1600 3775 
L 1600 625 
Q 1600 75 1625 -575 
L 1100 -575 
Q 1125 50 1125 625 
L 1125 2925 
Q 775 2400 575 2175 
Q 425 2350 225 2525 
z
" transform="scale(0.015625)"/>
      </defs>
      <use xlink:href="#SimHei-5e74"/>
      <use xlink:href="#SimHei-4efd" x="100"/>
     </g>
    </g>
    <g id="line2d_51">
     <path d="M 917.208 51.927 
L 930.408 51.927 
L 943.608 51.927 
" style="fill: none; stroke: #4c72b0; stroke-width: 1.5; stroke-linecap: round"/>
    </g>
    <g id="text_50">
     <!-- 2021 -->
     <g style="fill: #262626" transform="translate(954.168 56.547) scale(0.132 -0.132)">
      <use xlink:href="#SimHei-32"/>
      <use xlink:href="#SimHei-30" x="50"/>
      <use xlink:href="#SimHei-32" x="100"/>
      <use xlink:href="#SimHei-31" x="150"/>
     </g>
    </g>
    <g id="line2d_52">
     <path d="M 917.208 69.417 
L 930.408 69.417 
L 943.608 69.417 
" style="fill: none; stroke: #dd8452; stroke-width: 1.5; stroke-linecap: round"/>
    </g>
    <g id="text_51">
     <!-- 2022 -->
     <g style="fill: #262626" transform="translate(954.168 74.037) scale(0.132 -0.132)">
      <use xlink:href="#SimHei-32"/>
      <use xlink:href="#SimHei-30" x="50"/>
      <use xlink:href="#SimHei-32" x="100"/>
      <use xlink:href="#SimHei-32" x="150"/>
     </g>
    </g>
   </g>
  </g>
 </g>
 <defs>
  <clipPath id="p22d6670457">
   <rect x="75.222" y="15.552" width="917.226" height="485.48475"/>
  </clipPath>
 </defs>
</svg>
