<?xml version="1.0" encoding="utf-8" standalone="no"?>
<!DOCTYPE svg PUBLIC "-//W3C//DTD SVG 1.1//EN"
  "http://www.w3.org/Graphics/SVG/1.1/DTD/svg11.dtd">
<svg xmlns:xlink="http://www.w3.org/1999/xlink" width="1008pt" height="576pt" viewBox="0 0 1008 576" xmlns="http://www.w3.org/2000/svg" version="1.1">
 <metadata>
  <rdf:RDF xmlns:dc="http://purl.org/dc/elements/1.1/" xmlns:cc="http://creativecommons.org/ns#" xmlns:rdf="http://www.w3.org/1999/02/22-rdf-syntax-ns#">
   <cc:Work>
    <dc:type rdf:resource="http://purl.org/dc/dcmitype/StillImage"/>
    <dc:date>2023-04-14T12:18:12.808661</dc:date>
    <dc:format>image/svg+xml</dc:format>
    <dc:creator>
     <cc:Agent>
      <dc:title>Matplotlib v3.7.1, https://matplotlib.org/</dc:title>
     </cc:Agent>
    </dc:creator>
   </cc:Work>
  </rdf:RDF>
 </metadata>
 <defs>
  <style type="text/css">*{stroke-linejoin: round; stroke-linecap: butt}</style>
 </defs>
 <g id="figure_1">
  <g id="patch_1">
   <path d="M 0 576 
L 1008 576 
L 1008 0 
L 0 0 
z
" style="fill: #ffffff"/>
  </g>
  <g id="axes_1">
   <g id="patch_2">
    <path d="M 75.222 501.03675 
L 992.448 501.03675 
L 992.448 15.552 
L 75.222 15.552 
z
" style="fill: #eaeaf2"/>
   </g>
   <g id="matplotlib.axis_1">
    <g id="xtick_1">
     <g id="text_1">
      <!-- 01-01 -->
      <g style="fill: #262626" transform="translate(120.626591 543.53675) rotate(-90) scale(0.132 -0.132)">
       <defs>
        <path id="SimHei-30" d="M 225 2537 
Q 250 3200 412 3587 
Q 575 3975 875 4225 
Q 1175 4475 1612 4475 
Q 2050 4475 2375 4112 
Q 2700 3750 2800 3200 
Q 2900 2650 2862 1937 
Q 2825 1225 2612 775 
Q 2400 325 1975 150 
Q 1550 -25 1125 187 
Q 700 400 525 750 
Q 350 1100 275 1487 
Q 200 1875 225 2537 
z
M 750 2687 
Q 675 2000 800 1462 
Q 925 925 1212 700 
Q 1500 475 1800 612 
Q 2100 750 2237 1162 
Q 2375 1575 2375 2062 
Q 2375 2550 2337 2950 
Q 2300 3350 2112 3675 
Q 1925 4000 1612 4012 
Q 1300 4025 1062 3700 
Q 825 3375 750 2687 
z
" transform="scale(0.015625)"/>
        <path id="SimHei-31" d="M 1400 3600 
Q 1075 3275 575 2975 
L 575 3450 
Q 1200 3875 1600 4450 
L 1900 4450 
L 1900 150 
L 1400 150 
L 1400 3600 
z
" transform="scale(0.015625)"/>
        <path id="SimHei-2d" d="M 2975 2125 
L 125 2125 
L 125 2525 
L 2975 2525 
L 2975 2125 
z
" transform="scale(0.015625)"/>
       </defs>
       <use xlink:href="#SimHei-30"/>
       <use xlink:href="#SimHei-31" x="50"/>
       <use xlink:href="#SimHei-2d" x="100"/>
       <use xlink:href="#SimHei-30" x="150"/>
       <use xlink:href="#SimHei-31" x="200"/>
      </g>
     </g>
    </g>
    <g id="xtick_2">
     <g id="text_2">
      <!-- 01-11 -->
      <g style="fill: #262626" transform="translate(143.534333 543.53675) rotate(-90) scale(0.132 -0.132)">
       <use xlink:href="#SimHei-30"/>
       <use xlink:href="#SimHei-31" x="50"/>
       <use xlink:href="#SimHei-2d" x="100"/>
       <use xlink:href="#SimHei-31" x="150"/>
       <use xlink:href="#SimHei-31" x="200"/>
      </g>
     </g>
    </g>
    <g id="xtick_3">
     <g id="text_3">
      <!-- 01-21 -->
      <g style="fill: #262626" transform="translate(166.442075 543.53675) rotate(-90) scale(0.132 -0.132)">
       <defs>
        <path id="SimHei-32" d="M 300 250 
Q 325 625 650 925 
Q 975 1225 1475 1862 
Q 1975 2500 2125 2850 
Q 2275 3200 2237 3450 
Q 2200 3700 2000 3862 
Q 1800 4025 1537 4000 
Q 1275 3975 1037 3800 
Q 800 3625 675 3275 
L 200 3350 
Q 400 3925 712 4187 
Q 1025 4450 1450 4475 
Q 1700 4500 1900 4462 
Q 2100 4425 2312 4287 
Q 2525 4150 2662 3875 
Q 2800 3600 2762 3212 
Q 2725 2825 2375 2287 
Q 2025 1750 1025 600 
L 2825 600 
L 2825 150 
L 300 150 
L 300 250 
z
" transform="scale(0.015625)"/>
       </defs>
       <use xlink:href="#SimHei-30"/>
       <use xlink:href="#SimHei-31" x="50"/>
       <use xlink:href="#SimHei-2d" x="100"/>
       <use xlink:href="#SimHei-32" x="150"/>
       <use xlink:href="#SimHei-31" x="200"/>
      </g>
     </g>
    </g>
    <g id="xtick_4">
     <g id="text_4">
      <!-- 01-31 -->
      <g style="fill: #262626" transform="translate(189.349818 543.53675) rotate(-90) scale(0.132 -0.132)">
       <defs>
        <path id="SimHei-33" d="M 250 1225 
L 700 1300 
Q 800 975 1025 762 
Q 1250 550 1587 562 
Q 1925 575 2125 837 
Q 2325 1100 2300 1437 
Q 2275 1775 2037 1962 
Q 1800 2150 1275 2225 
L 1275 2550 
Q 1800 2600 2037 2825 
Q 2275 3050 2250 3412 
Q 2225 3775 1925 3937 
Q 1625 4100 1287 3975 
Q 950 3850 750 3275 
L 300 3350 
Q 450 3800 712 4100 
Q 975 4400 1425 4450 
Q 1875 4500 2212 4337 
Q 2550 4175 2687 3837 
Q 2825 3500 2725 3100 
Q 2625 2700 2150 2400 
Q 2500 2250 2687 1950 
Q 2875 1650 2812 1162 
Q 2750 675 2375 375 
Q 2000 75 1525 87 
Q 1050 100 700 387 
Q 350 675 250 1225 
z
" transform="scale(0.015625)"/>
       </defs>
       <use xlink:href="#SimHei-30"/>
       <use xlink:href="#SimHei-31" x="50"/>
       <use xlink:href="#SimHei-2d" x="100"/>
       <use xlink:href="#SimHei-33" x="150"/>
       <use xlink:href="#SimHei-31" x="200"/>
      </g>
     </g>
    </g>
    <g id="xtick_5">
     <g id="text_5">
      <!-- 02-10 -->
      <g style="fill: #262626" transform="translate(212.25756 543.53675) rotate(-90) scale(0.132 -0.132)">
       <use xlink:href="#SimHei-30"/>
       <use xlink:href="#SimHei-32" x="50"/>
       <use xlink:href="#SimHei-2d" x="100"/>
       <use xlink:href="#SimHei-31" x="150"/>
       <use xlink:href="#SimHei-30" x="200"/>
      </g>
     </g>
    </g>
    <g id="xtick_6">
     <g id="text_6">
      <!-- 02-20 -->
      <g style="fill: #262626" transform="translate(235.165302 543.53675) rotate(-90) scale(0.132 -0.132)">
       <use xlink:href="#SimHei-30"/>
       <use xlink:href="#SimHei-32" x="50"/>
       <use xlink:href="#SimHei-2d" x="100"/>
       <use xlink:href="#SimHei-32" x="150"/>
       <use xlink:href="#SimHei-30" x="200"/>
      </g>
     </g>
    </g>
    <g id="xtick_7">
     <g id="text_7">
      <!-- 03-02 -->
      <g style="fill: #262626" transform="translate(258.073044 543.53675) rotate(-90) scale(0.132 -0.132)">
       <use xlink:href="#SimHei-30"/>
       <use xlink:href="#SimHei-33" x="50"/>
       <use xlink:href="#SimHei-2d" x="100"/>
       <use xlink:href="#SimHei-30" x="150"/>
       <use xlink:href="#SimHei-32" x="200"/>
      </g>
     </g>
    </g>
    <g id="xtick_8">
     <g id="text_8">
      <!-- 03-12 -->
      <g style="fill: #262626" transform="translate(280.980787 543.53675) rotate(-90) scale(0.132 -0.132)">
       <use xlink:href="#SimHei-30"/>
       <use xlink:href="#SimHei-33" x="50"/>
       <use xlink:href="#SimHei-2d" x="100"/>
       <use xlink:href="#SimHei-31" x="150"/>
       <use xlink:href="#SimHei-32" x="200"/>
      </g>
     </g>
    </g>
    <g id="xtick_9">
     <g id="text_9">
      <!-- 03-22 -->
      <g style="fill: #262626" transform="translate(303.888529 543.53675) rotate(-90) scale(0.132 -0.132)">
       <use xlink:href="#SimHei-30"/>
       <use xlink:href="#SimHei-33" x="50"/>
       <use xlink:href="#SimHei-2d" x="100"/>
       <use xlink:href="#SimHei-32" x="150"/>
       <use xlink:href="#SimHei-32" x="200"/>
      </g>
     </g>
    </g>
    <g id="xtick_10">
     <g id="text_10">
      <!-- 04-01 -->
      <g style="fill: #262626" transform="translate(326.796271 543.53675) rotate(-90) scale(0.132 -0.132)">
       <defs>
        <path id="SimHei-34" d="M 2000 1100 
L 75 1100 
L 75 1525 
L 2100 4450 
L 2475 4450 
L 2475 1525 
L 3075 1525 
L 3075 1100 
L 2475 1100 
L 2475 150 
L 2000 150 
L 2000 1100 
z
M 2000 1525 
L 2000 3500 
L 600 1525 
L 2000 1525 
z
" transform="scale(0.015625)"/>
       </defs>
       <use xlink:href="#SimHei-30"/>
       <use xlink:href="#SimHei-34" x="50"/>
       <use xlink:href="#SimHei-2d" x="100"/>
       <use xlink:href="#SimHei-30" x="150"/>
       <use xlink:href="#SimHei-31" x="200"/>
      </g>
     </g>
    </g>
    <g id="xtick_11">
     <g id="text_11">
      <!-- 04-11 -->
      <g style="fill: #262626" transform="translate(349.704013 543.53675) rotate(-90) scale(0.132 -0.132)">
       <use xlink:href="#SimHei-30"/>
       <use xlink:href="#SimHei-34" x="50"/>
       <use xlink:href="#SimHei-2d" x="100"/>
       <use xlink:href="#SimHei-31" x="150"/>
       <use xlink:href="#SimHei-31" x="200"/>
      </g>
     </g>
    </g>
    <g id="xtick_12">
     <g id="text_12">
      <!-- 04-21 -->
      <g style="fill: #262626" transform="translate(372.611756 543.53675) rotate(-90) scale(0.132 -0.132)">
       <use xlink:href="#SimHei-30"/>
       <use xlink:href="#SimHei-34" x="50"/>
       <use xlink:href="#SimHei-2d" x="100"/>
       <use xlink:href="#SimHei-32" x="150"/>
       <use xlink:href="#SimHei-31" x="200"/>
      </g>
     </g>
    </g>
    <g id="xtick_13">
     <g id="text_13">
      <!-- 05-01 -->
      <g style="fill: #262626" transform="translate(395.519498 543.53675) rotate(-90) scale(0.132 -0.132)">
       <defs>
        <path id="SimHei-35" d="M 550 1325 
Q 725 650 1150 575 
Q 1575 500 1837 662 
Q 2100 825 2212 1087 
Q 2325 1350 2312 1675 
Q 2300 2000 2137 2225 
Q 1975 2450 1725 2525 
Q 1475 2600 1162 2525 
Q 850 2450 650 2175 
L 225 2225 
Q 275 2375 700 4375 
L 2675 4375 
L 2675 3925 
L 1075 3925 
Q 950 3250 825 2850 
Q 1200 3025 1525 3012 
Q 1850 3000 2150 2862 
Q 2450 2725 2587 2487 
Q 2725 2250 2787 2012 
Q 2850 1775 2837 1500 
Q 2825 1225 2725 937 
Q 2625 650 2425 462 
Q 2225 275 1937 162 
Q 1650 50 1275 75 
Q 900 100 562 350 
Q 225 600 100 1200 
L 550 1325 
z
" transform="scale(0.015625)"/>
       </defs>
       <use xlink:href="#SimHei-30"/>
       <use xlink:href="#SimHei-35" x="50"/>
       <use xlink:href="#SimHei-2d" x="100"/>
       <use xlink:href="#SimHei-30" x="150"/>
       <use xlink:href="#SimHei-31" x="200"/>
      </g>
     </g>
    </g>
    <g id="xtick_14">
     <g id="text_14">
      <!-- 05-11 -->
      <g style="fill: #262626" transform="translate(418.42724 543.53675) rotate(-90) scale(0.132 -0.132)">
       <use xlink:href="#SimHei-30"/>
       <use xlink:href="#SimHei-35" x="50"/>
       <use xlink:href="#SimHei-2d" x="100"/>
       <use xlink:href="#SimHei-31" x="150"/>
       <use xlink:href="#SimHei-31" x="200"/>
      </g>
     </g>
    </g>
    <g id="xtick_15">
     <g id="text_15">
      <!-- 05-21 -->
      <g style="fill: #262626" transform="translate(441.334983 543.53675) rotate(-90) scale(0.132 -0.132)">
       <use xlink:href="#SimHei-30"/>
       <use xlink:href="#SimHei-35" x="50"/>
       <use xlink:href="#SimHei-2d" x="100"/>
       <use xlink:href="#SimHei-32" x="150"/>
       <use xlink:href="#SimHei-31" x="200"/>
      </g>
     </g>
    </g>
    <g id="xtick_16">
     <g id="text_16">
      <!-- 05-31 -->
      <g style="fill: #262626" transform="translate(464.242725 543.53675) rotate(-90) scale(0.132 -0.132)">
       <use xlink:href="#SimHei-30"/>
       <use xlink:href="#SimHei-35" x="50"/>
       <use xlink:href="#SimHei-2d" x="100"/>
       <use xlink:href="#SimHei-33" x="150"/>
       <use xlink:href="#SimHei-31" x="200"/>
      </g>
     </g>
    </g>
    <g id="xtick_17">
     <g id="text_17">
      <!-- 06-10 -->
      <g style="fill: #262626" transform="translate(487.150467 543.53675) rotate(-90) scale(0.132 -0.132)">
       <defs>
        <path id="SimHei-36" d="M 250 1612 
Q 275 1975 387 2225 
Q 500 2475 725 2850 
L 1750 4450 
L 2325 4450 
L 1275 2800 
Q 1950 2975 2350 2750 
Q 2750 2525 2887 2237 
Q 3025 1950 3037 1612 
Q 3050 1275 2937 950 
Q 2825 625 2537 362 
Q 2250 100 1737 75 
Q 1225 50 862 262 
Q 500 475 362 862 
Q 225 1250 250 1612 
z
M 1025 787 
Q 1250 550 1625 525 
Q 2000 500 2250 775 
Q 2500 1050 2500 1575 
Q 2500 2100 2187 2300 
Q 1875 2500 1487 2450 
Q 1100 2400 925 2075 
Q 750 1750 775 1387 
Q 800 1025 1025 787 
z
" transform="scale(0.015625)"/>
       </defs>
       <use xlink:href="#SimHei-30"/>
       <use xlink:href="#SimHei-36" x="50"/>
       <use xlink:href="#SimHei-2d" x="100"/>
       <use xlink:href="#SimHei-31" x="150"/>
       <use xlink:href="#SimHei-30" x="200"/>
      </g>
     </g>
    </g>
    <g id="xtick_18">
     <g id="text_18">
      <!-- 06-20 -->
      <g style="fill: #262626" transform="translate(510.058209 543.53675) rotate(-90) scale(0.132 -0.132)">
       <use xlink:href="#SimHei-30"/>
       <use xlink:href="#SimHei-36" x="50"/>
       <use xlink:href="#SimHei-2d" x="100"/>
       <use xlink:href="#SimHei-32" x="150"/>
       <use xlink:href="#SimHei-30" x="200"/>
      </g>
     </g>
    </g>
    <g id="xtick_19">
     <g id="text_19">
      <!-- 06-30 -->
      <g style="fill: #262626" transform="translate(532.965952 543.53675) rotate(-90) scale(0.132 -0.132)">
       <use xlink:href="#SimHei-30"/>
       <use xlink:href="#SimHei-36" x="50"/>
       <use xlink:href="#SimHei-2d" x="100"/>
       <use xlink:href="#SimHei-33" x="150"/>
       <use xlink:href="#SimHei-30" x="200"/>
      </g>
     </g>
    </g>
    <g id="xtick_20">
     <g id="text_20">
      <!-- 07-10 -->
      <g style="fill: #262626" transform="translate(555.873694 543.53675) rotate(-90) scale(0.132 -0.132)">
       <defs>
        <path id="SimHei-37" d="M 850 150 
Q 1300 2050 2425 3925 
L 275 3925 
L 275 4375 
L 2950 4375 
L 2950 3950 
Q 1775 2050 1400 150 
L 850 150 
z
" transform="scale(0.015625)"/>
       </defs>
       <use xlink:href="#SimHei-30"/>
       <use xlink:href="#SimHei-37" x="50"/>
       <use xlink:href="#SimHei-2d" x="100"/>
       <use xlink:href="#SimHei-31" x="150"/>
       <use xlink:href="#SimHei-30" x="200"/>
      </g>
     </g>
    </g>
    <g id="xtick_21">
     <g id="text_21">
      <!-- 07-20 -->
      <g style="fill: #262626" transform="translate(578.781436 543.53675) rotate(-90) scale(0.132 -0.132)">
       <use xlink:href="#SimHei-30"/>
       <use xlink:href="#SimHei-37" x="50"/>
       <use xlink:href="#SimHei-2d" x="100"/>
       <use xlink:href="#SimHei-32" x="150"/>
       <use xlink:href="#SimHei-30" x="200"/>
      </g>
     </g>
    </g>
    <g id="xtick_22">
     <g id="text_22">
      <!-- 07-30 -->
      <g style="fill: #262626" transform="translate(601.689178 543.53675) rotate(-90) scale(0.132 -0.132)">
       <use xlink:href="#SimHei-30"/>
       <use xlink:href="#SimHei-37" x="50"/>
       <use xlink:href="#SimHei-2d" x="100"/>
       <use xlink:href="#SimHei-33" x="150"/>
       <use xlink:href="#SimHei-30" x="200"/>
      </g>
     </g>
    </g>
    <g id="xtick_23">
     <g id="text_23">
      <!-- 08-09 -->
      <g style="fill: #262626" transform="translate(624.596921 543.53675) rotate(-90) scale(0.132 -0.132)">
       <defs>
        <path id="SimHei-38" d="M 175 1375 
Q 175 1675 325 1962 
Q 475 2250 825 2425 
Q 525 2600 425 2812 
Q 325 3025 312 3300 
Q 300 3575 387 3775 
Q 475 3975 650 4150 
Q 825 4325 1037 4387 
Q 1250 4450 1500 4450 
Q 1750 4450 1950 4400 
Q 2150 4350 2375 4187 
Q 2600 4025 2700 3725 
Q 2800 3425 2687 3025 
Q 2575 2625 2100 2400 
Q 2525 2275 2700 2012 
Q 2875 1750 2875 1375 
Q 2875 1000 2762 775 
Q 2650 550 2512 400 
Q 2375 250 2137 162 
Q 1900 75 1537 75 
Q 1175 75 912 162 
Q 650 250 475 425 
Q 300 600 237 837 
Q 175 1075 175 1375 
z
M 687 1400 
Q 675 1100 787 875 
Q 900 650 1200 587 
Q 1500 525 1825 600 
Q 2150 675 2275 950 
Q 2400 1225 2362 1500 
Q 2325 1775 2050 1962 
Q 1775 2150 1450 2125 
Q 1125 2100 912 1900 
Q 700 1700 687 1400 
z
M 775 3350 
Q 775 3100 950 2875 
Q 1125 2650 1500 2650 
Q 1875 2650 2062 2875 
Q 2250 3100 2237 3412 
Q 2225 3725 2012 3875 
Q 1800 4025 1437 4000 
Q 1075 3975 925 3787 
Q 775 3600 775 3350 
z
" transform="scale(0.015625)"/>
        <path id="SimHei-39" d="M 800 75 
Q 1350 1000 1700 1750 
Q 1075 1650 662 1912 
Q 250 2175 162 2625 
Q 75 3075 175 3437 
Q 275 3800 487 4037 
Q 700 4275 1000 4375 
Q 1300 4475 1537 4475 
Q 1775 4475 2025 4375 
Q 2275 4275 2475 4075 
Q 2675 3875 2750 3662 
Q 2825 3450 2825 3112 
Q 2825 2775 2575 2250 
Q 2325 1725 1350 75 
L 800 75 
z
M 662 2875 
Q 700 2550 937 2337 
Q 1175 2125 1450 2150 
Q 1725 2175 1887 2300 
Q 2050 2425 2200 2725 
Q 2300 3100 2250 3362 
Q 2200 3625 1987 3800 
Q 1775 3975 1525 3975 
Q 1375 4000 1137 3900 
Q 900 3800 762 3500 
Q 625 3200 662 2875 
z
" transform="scale(0.015625)"/>
       </defs>
       <use xlink:href="#SimHei-30"/>
       <use xlink:href="#SimHei-38" x="50"/>
       <use xlink:href="#SimHei-2d" x="100"/>
       <use xlink:href="#SimHei-30" x="150"/>
       <use xlink:href="#SimHei-39" x="200"/>
      </g>
     </g>
    </g>
    <g id="xtick_24">
     <g id="text_24">
      <!-- 08-19 -->
      <g style="fill: #262626" transform="translate(647.504663 543.53675) rotate(-90) scale(0.132 -0.132)">
       <use xlink:href="#SimHei-30"/>
       <use xlink:href="#SimHei-38" x="50"/>
       <use xlink:href="#SimHei-2d" x="100"/>
       <use xlink:href="#SimHei-31" x="150"/>
       <use xlink:href="#SimHei-39" x="200"/>
      </g>
     </g>
    </g>
    <g id="xtick_25">
     <g id="text_25">
      <!-- 08-29 -->
      <g style="fill: #262626" transform="translate(670.412405 543.53675) rotate(-90) scale(0.132 -0.132)">
       <use xlink:href="#SimHei-30"/>
       <use xlink:href="#SimHei-38" x="50"/>
       <use xlink:href="#SimHei-2d" x="100"/>
       <use xlink:href="#SimHei-32" x="150"/>
       <use xlink:href="#SimHei-39" x="200"/>
      </g>
     </g>
    </g>
    <g id="xtick_26">
     <g id="text_26">
      <!-- 09-08 -->
      <g style="fill: #262626" transform="translate(693.320147 543.53675) rotate(-90) scale(0.132 -0.132)">
       <use xlink:href="#SimHei-30"/>
       <use xlink:href="#SimHei-39" x="50"/>
       <use xlink:href="#SimHei-2d" x="100"/>
       <use xlink:href="#SimHei-30" x="150"/>
       <use xlink:href="#SimHei-38" x="200"/>
      </g>
     </g>
    </g>
    <g id="xtick_27">
     <g id="text_27">
      <!-- 09-18 -->
      <g style="fill: #262626" transform="translate(716.22789 543.53675) rotate(-90) scale(0.132 -0.132)">
       <use xlink:href="#SimHei-30"/>
       <use xlink:href="#SimHei-39" x="50"/>
       <use xlink:href="#SimHei-2d" x="100"/>
       <use xlink:href="#SimHei-31" x="150"/>
       <use xlink:href="#SimHei-38" x="200"/>
      </g>
     </g>
    </g>
    <g id="xtick_28">
     <g id="text_28">
      <!-- 09-28 -->
      <g style="fill: #262626" transform="translate(739.135632 543.53675) rotate(-90) scale(0.132 -0.132)">
       <use xlink:href="#SimHei-30"/>
       <use xlink:href="#SimHei-39" x="50"/>
       <use xlink:href="#SimHei-2d" x="100"/>
       <use xlink:href="#SimHei-32" x="150"/>
       <use xlink:href="#SimHei-38" x="200"/>
      </g>
     </g>
    </g>
    <g id="xtick_29">
     <g id="text_29">
      <!-- 10-08 -->
      <g style="fill: #262626" transform="translate(762.043374 543.53675) rotate(-90) scale(0.132 -0.132)">
       <use xlink:href="#SimHei-31"/>
       <use xlink:href="#SimHei-30" x="50"/>
       <use xlink:href="#SimHei-2d" x="100"/>
       <use xlink:href="#SimHei-30" x="150"/>
       <use xlink:href="#SimHei-38" x="200"/>
      </g>
     </g>
    </g>
    <g id="xtick_30">
     <g id="text_30">
      <!-- 10-18 -->
      <g style="fill: #262626" transform="translate(784.951116 543.53675) rotate(-90) scale(0.132 -0.132)">
       <use xlink:href="#SimHei-31"/>
       <use xlink:href="#SimHei-30" x="50"/>
       <use xlink:href="#SimHei-2d" x="100"/>
       <use xlink:href="#SimHei-31" x="150"/>
       <use xlink:href="#SimHei-38" x="200"/>
      </g>
     </g>
    </g>
    <g id="xtick_31">
     <g id="text_31">
      <!-- 10-28 -->
      <g style="fill: #262626" transform="translate(807.858859 543.53675) rotate(-90) scale(0.132 -0.132)">
       <use xlink:href="#SimHei-31"/>
       <use xlink:href="#SimHei-30" x="50"/>
       <use xlink:href="#SimHei-2d" x="100"/>
       <use xlink:href="#SimHei-32" x="150"/>
       <use xlink:href="#SimHei-38" x="200"/>
      </g>
     </g>
    </g>
    <g id="xtick_32">
     <g id="text_32">
      <!-- 11-07 -->
      <g style="fill: #262626" transform="translate(830.766601 543.53675) rotate(-90) scale(0.132 -0.132)">
       <use xlink:href="#SimHei-31"/>
       <use xlink:href="#SimHei-31" x="50"/>
       <use xlink:href="#SimHei-2d" x="100"/>
       <use xlink:href="#SimHei-30" x="150"/>
       <use xlink:href="#SimHei-37" x="200"/>
      </g>
     </g>
    </g>
    <g id="xtick_33">
     <g id="text_33">
      <!-- 11-17 -->
      <g style="fill: #262626" transform="translate(853.674343 543.53675) rotate(-90) scale(0.132 -0.132)">
       <use xlink:href="#SimHei-31"/>
       <use xlink:href="#SimHei-31" x="50"/>
       <use xlink:href="#SimHei-2d" x="100"/>
       <use xlink:href="#SimHei-31" x="150"/>
       <use xlink:href="#SimHei-37" x="200"/>
      </g>
     </g>
    </g>
    <g id="xtick_34">
     <g id="text_34">
      <!-- 11-27 -->
      <g style="fill: #262626" transform="translate(876.582085 543.53675) rotate(-90) scale(0.132 -0.132)">
       <use xlink:href="#SimHei-31"/>
       <use xlink:href="#SimHei-31" x="50"/>
       <use xlink:href="#SimHei-2d" x="100"/>
       <use xlink:href="#SimHei-32" x="150"/>
       <use xlink:href="#SimHei-37" x="200"/>
      </g>
     </g>
    </g>
    <g id="xtick_35">
     <g id="text_35">
      <!-- 12-07 -->
      <g style="fill: #262626" transform="translate(899.489828 543.53675) rotate(-90) scale(0.132 -0.132)">
       <use xlink:href="#SimHei-31"/>
       <use xlink:href="#SimHei-32" x="50"/>
       <use xlink:href="#SimHei-2d" x="100"/>
       <use xlink:href="#SimHei-30" x="150"/>
       <use xlink:href="#SimHei-37" x="200"/>
      </g>
     </g>
    </g>
    <g id="xtick_36">
     <g id="text_36">
      <!-- 12-17 -->
      <g style="fill: #262626" transform="translate(922.39757 543.53675) rotate(-90) scale(0.132 -0.132)">
       <use xlink:href="#SimHei-31"/>
       <use xlink:href="#SimHei-32" x="50"/>
       <use xlink:href="#SimHei-2d" x="100"/>
       <use xlink:href="#SimHei-31" x="150"/>
       <use xlink:href="#SimHei-37" x="200"/>
      </g>
     </g>
    </g>
    <g id="xtick_37">
     <g id="text_37">
      <!-- 12-27 -->
      <g style="fill: #262626" transform="translate(945.305312 543.53675) rotate(-90) scale(0.132 -0.132)">
       <use xlink:href="#SimHei-31"/>
       <use xlink:href="#SimHei-32" x="50"/>
       <use xlink:href="#SimHei-2d" x="100"/>
       <use xlink:href="#SimHei-32" x="150"/>
       <use xlink:href="#SimHei-37" x="200"/>
      </g>
     </g>
    </g>
    <g id="text_38">
     <!-- 月日 -->
     <g style="fill: #262626" transform="translate(519.435 558.2805) scale(0.144 -0.144)">
      <defs>
       <path id="SimHei-6708" d="M 5250 4825 
Q 5200 4225 5200 3750 
L 5200 200 
Q 5200 -275 4950 -375 
Q 4700 -475 3975 -525 
Q 3925 -225 3750 50 
Q 4300 25 4512 50 
Q 4725 75 4725 400 
L 4725 1600 
L 1850 1600 
Q 1725 775 1450 225 
Q 1175 -325 900 -575 
Q 700 -400 400 -325 
Q 800 25 1037 512 
Q 1275 1000 1337 1475 
Q 1400 1950 1400 2525 
L 1400 3625 
Q 1400 4175 1375 4825 
L 5250 4825 
z
M 4725 3400 
L 4725 4450 
L 1875 4450 
L 1875 3400 
L 4725 3400 
z
M 4725 2000 
L 4725 3025 
L 1875 3025 
L 1875 2000 
L 4725 2000 
z
" transform="scale(0.015625)"/>
       <path id="SimHei-65e5" d="M 5375 5000 
Q 5350 3775 5350 2275 
Q 5350 775 5375 -450 
L 4800 -450 
L 4800 175 
L 1800 175 
L 1800 -575 
L 1250 -575 
Q 1275 575 1275 2125 
Q 1275 3675 1250 5000 
L 5375 5000 
z
M 4800 600 
L 4800 2375 
L 1800 2375 
L 1800 600 
L 4800 600 
z
M 4800 2800 
L 4800 4550 
L 1800 4550 
L 1800 2800 
L 4800 2800 
z
" transform="scale(0.015625)"/>
      </defs>
      <use xlink:href="#SimHei-6708"/>
      <use xlink:href="#SimHei-65e5" x="100"/>
     </g>
    </g>
   </g>
   <g id="matplotlib.axis_2">
    <g id="ytick_1">
     <g id="text_39">
      <!-- 0 -->
      <g style="fill: #262626" transform="translate(59.122 501.269714) scale(0.132 -0.132)">
       <use xlink:href="#SimHei-30"/>
      </g>
     </g>
    </g>
    <g id="ytick_2">
     <g id="text_40">
      <!-- 2500 -->
      <g style="fill: #262626" transform="translate(39.322 444.019711) scale(0.132 -0.132)">
       <use xlink:href="#SimHei-32"/>
       <use xlink:href="#SimHei-35" x="50"/>
       <use xlink:href="#SimHei-30" x="100"/>
       <use xlink:href="#SimHei-30" x="150"/>
      </g>
     </g>
    </g>
    <g id="ytick_3">
     <g id="text_41">
      <!-- 5000 -->
      <g style="fill: #262626" transform="translate(39.322 386.769709) scale(0.132 -0.132)">
       <use xlink:href="#SimHei-35"/>
       <use xlink:href="#SimHei-30" x="50"/>
       <use xlink:href="#SimHei-30" x="100"/>
       <use xlink:href="#SimHei-30" x="150"/>
      </g>
     </g>
    </g>
    <g id="ytick_4">
     <g id="text_42">
      <!-- 7500 -->
      <g style="fill: #262626" transform="translate(39.322 329.519706) scale(0.132 -0.132)">
       <use xlink:href="#SimHei-37"/>
       <use xlink:href="#SimHei-35" x="50"/>
       <use xlink:href="#SimHei-30" x="100"/>
       <use xlink:href="#SimHei-30" x="150"/>
      </g>
     </g>
    </g>
    <g id="ytick_5">
     <g id="text_43">
      <!-- 10000 -->
      <g style="fill: #262626" transform="translate(32.722 272.269703) scale(0.132 -0.132)">
       <use xlink:href="#SimHei-31"/>
       <use xlink:href="#SimHei-30" x="50"/>
       <use xlink:href="#SimHei-30" x="100"/>
       <use xlink:href="#SimHei-30" x="150"/>
       <use xlink:href="#SimHei-30" x="200"/>
      </g>
     </g>
    </g>
    <g id="ytick_6">
     <g id="text_44">
      <!-- 12500 -->
      <g style="fill: #262626" transform="translate(32.722 215.0197) scale(0.132 -0.132)">
       <use xlink:href="#SimHei-31"/>
       <use xlink:href="#SimHei-32" x="50"/>
       <use xlink:href="#SimHei-35" x="100"/>
       <use xlink:href="#SimHei-30" x="150"/>
       <use xlink:href="#SimHei-30" x="200"/>
      </g>
     </g>
    </g>
    <g id="ytick_7">
     <g id="text_45">
      <!-- 15000 -->
      <g style="fill: #262626" transform="translate(32.722 157.769697) scale(0.132 -0.132)">
       <use xlink:href="#SimHei-31"/>
       <use xlink:href="#SimHei-35" x="50"/>
       <use xlink:href="#SimHei-30" x="100"/>
       <use xlink:href="#SimHei-30" x="150"/>
       <use xlink:href="#SimHei-30" x="200"/>
      </g>
     </g>
    </g>
    <g id="ytick_8">
     <g id="text_46">
      <!-- 17500 -->
      <g style="fill: #262626" transform="translate(32.722 100.519694) scale(0.132 -0.132)">
       <use xlink:href="#SimHei-31"/>
       <use xlink:href="#SimHei-37" x="50"/>
       <use xlink:href="#SimHei-35" x="100"/>
       <use xlink:href="#SimHei-30" x="150"/>
       <use xlink:href="#SimHei-30" x="200"/>
      </g>
     </g>
    </g>
    <g id="ytick_9">
     <g id="text_47">
      <!-- 20000 -->
      <g style="fill: #262626" transform="translate(32.722 43.269691) scale(0.132 -0.132)">
       <use xlink:href="#SimHei-32"/>
       <use xlink:href="#SimHei-30" x="50"/>
       <use xlink:href="#SimHei-30" x="100"/>
       <use xlink:href="#SimHei-30" x="150"/>
       <use xlink:href="#SimHei-30" x="200"/>
      </g>
     </g>
    </g>
    <g id="text_48">
     <!-- 货量 -->
     <g style="fill: #262626" transform="translate(26.922 272.694375) rotate(-90) scale(0.144 -0.144)">
      <defs>
       <path id="SimHei-8d27" d="M 3975 5075 
Q 3950 4750 3950 4100 
Q 4075 4175 4525 4375 
Q 4975 4575 5375 4900 
Q 5550 4625 5700 4400 
Q 5425 4325 4987 4112 
Q 4550 3900 3950 3650 
L 3950 3225 
Q 3950 3025 4300 3025 
L 5125 3025 
Q 5425 3025 5487 3150 
Q 5550 3275 5575 3625 
Q 5850 3450 6125 3375 
Q 5975 2875 5825 2750 
Q 5675 2625 5475 2625 
L 4000 2625 
Q 3425 2625 3425 3125 
L 3425 3525 
Q 2900 3325 2575 3225 
Q 2425 3500 2350 3650 
Q 2750 3750 3425 3925 
Q 3425 4750 3400 5075 
L 3975 5075 
z
M 5200 2200 
Q 5175 1825 5175 1425 
Q 5175 1050 5200 600 
L 4625 600 
L 4625 1775 
L 1950 1775 
L 1950 625 
L 1400 625 
Q 1425 1025 1425 1400 
Q 1425 1800 1400 2200 
L 5200 2200 
z
M 2625 4850 
Q 2425 4700 2050 4300 
Q 2050 2900 2075 2450 
L 1500 2450 
Q 1525 2900 1525 3825 
Q 1300 3625 1100 3425 
Q 900 3225 700 3050 
Q 475 3250 325 3400 
Q 850 3725 1325 4237 
Q 1800 4750 2050 5175 
Q 2325 4925 2625 4850 
z
M 3550 1325 
Q 3425 975 3312 687 
Q 3200 400 2925 137 
Q 2650 -125 2150 -325 
Q 1650 -525 800 -675 
Q 725 -400 475 -100 
Q 1200 -75 1675 25 
Q 2150 125 2412 325 
Q 2675 525 2787 775 
Q 2900 1025 2975 1400 
Q 3250 1350 3550 1325 
z
M 5575 -675 
Q 5125 -400 4650 -187 
Q 4175 25 3575 250 
Q 3725 500 3825 725 
Q 4350 500 4800 300 
Q 5250 100 5875 -175 
Q 5700 -400 5575 -675 
z
" transform="scale(0.015625)"/>
       <path id="SimHei-91cf" d="M 5250 2500 
Q 5225 2200 5225 1700 
Q 5225 1225 5250 950 
L 3425 950 
L 3425 625 
L 4575 625 
Q 5000 625 5375 650 
L 5375 275 
Q 5025 300 4575 300 
L 3425 300 
L 3425 -75 
L 5125 -75 
Q 5525 -75 5925 -50 
L 5925 -425 
Q 5525 -400 5125 -400 
L 1275 -400 
Q 900 -400 475 -425 
L 475 -50 
Q 925 -50 1275 -75 
L 2975 -75 
L 2975 300 
L 1725 300 
Q 1350 300 975 250 
L 975 650 
Q 1375 625 1725 625 
L 2975 625 
L 2975 950 
L 1150 950 
Q 1175 1375 1175 1775 
Q 1175 2175 1150 2500 
L 5250 2500 
z
M 5200 4950 
Q 5175 4575 5175 4250 
Q 5175 3925 5200 3400 
L 1200 3400 
Q 1225 3925 1225 4250 
Q 1225 4575 1200 4950 
L 5200 4950 
z
M 4900 3100 
Q 5500 3125 6000 3150 
L 6000 2750 
Q 5500 2775 4925 2775 
L 1650 2775 
Q 975 2775 325 2750 
L 325 3150 
Q 975 3125 1650 3100 
L 4900 3100 
z
M 4725 3700 
L 4725 4025 
L 1675 4025 
L 1675 3700 
L 4725 3700 
z
M 4725 4350 
L 4725 4650 
L 1675 4650 
L 1675 4350 
L 4725 4350 
z
M 4750 1875 
L 4750 2175 
L 3425 2175 
L 3425 1875 
L 4750 1875 
z
M 2975 1875 
L 2975 2175 
L 1650 2175 
L 1650 1875 
L 2975 1875 
z
M 2975 1275 
L 2975 1550 
L 1650 1550 
L 1650 1275 
L 2975 1275 
z
M 4750 1275 
L 4750 1550 
L 3425 1550 
L 3425 1275 
L 4750 1275 
z
" transform="scale(0.015625)"/>
      </defs>
      <use xlink:href="#SimHei-8d27"/>
      <use xlink:href="#SimHei-91cf" x="100"/>
     </g>
    </g>
   </g>
   <g id="PolyCollection_1">
    <defs>
     <path id="mbc7190c477" d="M 116.914091 -255.700951 
L 116.914091 -173.994005 
L 119.204865 -167.099944 
L 121.495639 -145.074434 
L 123.786414 -146.206263 
L 126.077188 -145.066723 
L 128.367962 -156.084356 
L 130.658736 -145.988131 
L 132.94951 -164.740144 
L 135.240285 -150.415598 
L 137.531059 -153.331948 
L 139.821833 -145.528801 
L 142.112607 -157.052479 
L 144.403382 -143.038296 
L 146.694156 -147.430859 
L 148.98493 -153.543715 
L 151.275704 -159.856746 
L 153.566479 -145.070988 
L 155.857253 -155.933452 
L 158.148027 -140.506221 
L 160.438801 -166.107997 
L 162.729575 -157.793985 
L 165.02035 -162.811568 
L 167.311124 -159.28356 
L 169.601898 -165.243432 
L 171.892672 -161.030686 
L 174.183447 -154.84015 
L 176.474221 -152.525937 
L 178.764995 -153.580064 
L 181.055769 -160.07179 
L 183.346543 -161.106815 
L 185.637318 -159.52152 
L 187.928092 -160.86301 
L 190.218866 -165.87563 
L 192.50964 -161.499738 
L 194.800415 -159.548466 
L 197.091189 -164.887075 
L 199.381963 -165.316051 
L 201.672737 -172.761426 
L 203.963511 -165.691524 
L 206.254286 -163.34077 
L 208.54506 -152.870858 
L 210.835834 -97.030739 
L 213.126608 -131.26257 
L 215.417383 -132.406898 
L 217.708157 -137.545364 
L 219.998931 -155.674371 
L 222.289705 -152.008815 
L 224.58048 -136.806804 
L 226.871254 -152.302013 
L 229.162028 -149.886758 
L 231.452802 -154.439257 
L 233.743576 -147.178799 
L 236.034351 -146.828395 
L 238.325125 -149.18464 
L 240.615899 -147.218257 
L 242.906673 -148.35401 
L 245.197448 -141.025479 
L 247.488222 -154.026344 
L 249.778996 -149.865047 
L 252.06977 -151.661057 
L 254.360544 -153.275829 
L 256.651319 -153.836557 
L 258.942093 -149.986934 
L 261.232867 -155.547458 
L 263.523641 -146.822656 
L 265.814416 -145.633793 
L 268.10519 -162.46039 
L 270.395964 -145.075856 
L 272.686738 -144.563896 
L 274.977512 -141.934375 
L 277.268287 -146.418626 
L 279.559061 -146.807539 
L 281.849835 -145.921577 
L 284.140609 -144.690106 
L 286.431384 -145.976743 
L 288.722158 -147.563513 
L 291.012932 -150.028113 
L 293.303706 -151.48016 
L 295.594481 -157.600168 
L 297.885255 -140.869546 
L 300.176029 -142.7561 
L 302.466803 -149.327049 
L 304.757577 -144.57281 
L 307.048352 -152.515316 
L 309.339126 -144.890988 
L 311.6299 -144.580169 
L 313.920674 -153.093696 
L 316.211449 -149.617823 
L 318.502223 -147.651764 
L 320.792997 -145.580172 
L 323.083771 -145.414219 
L 325.374545 -147.847667 
L 327.66532 -139.442441 
L 329.956094 -138.160484 
L 332.246868 -148.268375 
L 334.537642 -152.115829 
L 336.828417 -153.127261 
L 339.119191 -150.28719 
L 341.409965 -149.340029 
L 343.700739 -143.717768 
L 345.991513 -137.756632 
L 348.282288 -148.874294 
L 350.573062 -149.540323 
L 352.863836 -146.480183 
L 355.15461 -143.145352 
L 357.445385 -148.547233 
L 359.736159 -149.843145 
L 362.026933 -143.957153 
L 364.317707 -147.198985 
L 366.608482 -158.648567 
L 368.899256 -151.442193 
L 371.19003 -150.572152 
L 373.480804 -148.952698 
L 375.771578 -152.513259 
L 378.062353 -163.718336 
L 380.353127 -149.25866 
L 382.643901 -149.720342 
L 384.934675 -152.108207 
L 387.22545 -149.946496 
L 389.516224 -137.677364 
L 391.806998 -145.219648 
L 394.097772 -135.064676 
L 396.388546 -133.436033 
L 398.679321 -143.101653 
L 400.970095 -142.700531 
L 403.260869 -157.29392 
L 405.551643 -159.324805 
L 407.842418 -155.033606 
L 410.133192 -155.44337 
L 412.423966 -168.039061 
L 414.71474 -154.515854 
L 417.005514 -144.951724 
L 419.296289 -150.4906 
L 421.587063 -150.87002 
L 423.877837 -155.95211 
L 426.168611 -146.982448 
L 428.459386 -160.239752 
L 430.75016 -159.374512 
L 433.040934 -156.618974 
L 435.331708 -152.066246 
L 437.622483 -155.157954 
L 439.913257 -150.44567 
L 442.204031 -155.000343 
L 444.494805 -169.603758 
L 446.785579 -163.736958 
L 449.076354 -158.756814 
L 451.367128 -146.743856 
L 453.657902 -152.352172 
L 455.948676 -150.435424 
L 458.239451 -141.464615 
L 460.530225 -153.117885 
L 462.820999 -261.798224 
L 465.111773 -199.59303 
L 467.402547 -185.891951 
L 469.693322 -164.44881 
L 471.984096 -171.111452 
L 474.27487 -171.867032 
L 476.565644 -174.319694 
L 478.856419 -179.408903 
L 481.147193 -161.729191 
L 483.437967 -157.876488 
L 485.728741 -155.374184 
L 488.019515 -152.245211 
L 490.31029 -161.827964 
L 492.601064 -154.28866 
L 494.891838 -160.264855 
L 497.182612 -205.849494 
L 499.473387 -182.472031 
L 501.764161 -327.581054 
L 504.054935 -209.931588 
L 506.345709 -168.912794 
L 508.636484 -157.506272 
L 510.927258 -151.990533 
L 513.218032 -143.661326 
L 515.508806 -148.138589 
L 517.79958 -144.613138 
L 520.090355 -140.537601 
L 522.381129 -144.642898 
L 524.671903 -150.096603 
L 526.962677 -146.632735 
L 529.253452 -152.906932 
L 531.544226 -151.011015 
L 533.835 -156.449606 
L 536.125774 -148.808557 
L 538.416548 -157.025584 
L 540.707323 -152.6213 
L 542.998097 -149.144263 
L 545.288871 -154.551735 
L 547.579645 -153.317641 
L 549.87042 -145.305956 
L 552.161194 -152.430971 
L 554.451968 -147.739382 
L 556.742742 -144.404299 
L 559.033516 -154.660695 
L 561.324291 -141.848026 
L 563.615065 -143.503562 
L 565.905839 -145.198906 
L 568.196613 -143.940739 
L 570.487388 -137.256749 
L 572.778162 -142.724619 
L 575.068936 -141.211102 
L 577.35971 -143.836354 
L 579.650485 -138.919126 
L 581.941259 -139.699667 
L 584.232033 -140.155894 
L 586.522807 -140.061293 
L 588.813581 -142.42536 
L 591.104356 -152.871512 
L 593.39513 -141.056823 
L 595.685904 -142.181866 
L 597.976678 -143.585301 
L 600.267453 -147.215118 
L 602.558227 -140.734492 
L 604.849001 -147.666562 
L 607.139775 -148.119219 
L 609.430549 -152.229305 
L 611.721324 -151.433981 
L 614.012098 -144.920849 
L 616.302872 -146.627701 
L 618.593646 -150.287048 
L 620.884421 -145.269758 
L 623.175195 -149.372154 
L 625.465969 -145.239162 
L 627.756743 -149.420878 
L 630.047517 -155.72617 
L 632.338292 -143.71096 
L 634.629066 -151.710304 
L 636.91984 -147.442242 
L 639.210614 -145.889051 
L 641.501389 -151.595265 
L 643.792163 -145.410802 
L 646.082937 -143.760421 
L 648.373711 -143.461069 
L 650.664486 -146.215369 
L 652.95526 -151.103314 
L 655.246034 -147.382075 
L 657.536808 -150.931333 
L 659.827582 -154.040854 
L 662.118357 -156.497053 
L 664.409131 -154.47574 
L 666.699905 -157.727427 
L 668.990679 -158.198907 
L 671.281454 -158.59687 
L 673.572228 -168.126118 
L 675.863002 -159.987649 
L 678.153776 -153.91222 
L 680.44455 -153.233958 
L 682.735325 -146.080072 
L 685.026099 -159.168915 
L 687.316873 -152.20547 
L 689.607647 -155.033231 
L 691.898422 -180.658858 
L 694.189196 -158.054714 
L 696.47997 -154.318454 
L 698.770744 -152.657188 
L 701.061518 -168.037971 
L 703.352293 -162.69772 
L 705.643067 -152.063298 
L 707.933841 -162.834925 
L 710.224615 -158.772587 
L 712.51539 -160.178002 
L 714.806164 -166.202016 
L 717.096938 -151.71658 
L 719.387712 -145.87032 
L 721.678487 -156.481841 
L 723.969261 -157.277287 
L 726.260035 -155.8169 
L 728.550809 -148.682823 
L 730.841583 -156.166297 
L 733.132358 -155.674879 
L 735.423132 -159.832829 
L 737.713906 -151.486673 
L 740.00468 -145.016236 
L 742.295455 -147.956559 
L 744.586229 -139.611722 
L 746.877003 -134.583354 
L 749.167777 -136.311272 
L 751.458551 -134.832732 
L 753.749326 -152.172485 
L 756.0401 -137.899095 
L 758.330874 -154.331233 
L 760.621648 -151.13289 
L 762.912423 -153.65476 
L 765.203197 -154.141334 
L 767.493971 -147.846399 
L 769.784745 -147.484038 
L 772.075519 -149.475367 
L 774.366294 -155.600318 
L 776.657068 -146.255312 
L 778.947842 -149.826883 
L 781.238616 -157.14296 
L 783.529391 -153.064886 
L 785.820165 -183.649306 
L 788.110939 -176.964054 
L 790.401713 -184.886729 
L 792.692488 -171.588379 
L 794.983262 -158.018189 
L 797.274036 -170.530966 
L 799.56481 -172.198355 
L 801.855584 -169.774753 
L 804.146359 -168.857091 
L 806.437133 -157.773712 
L 808.727907 -151.544959 
L 811.018681 -166.347655 
L 813.309456 -241.1516 
L 815.60023 -221.541623 
L 817.891004 -228.673668 
L 820.181778 -237.078383 
L 822.472552 -207.958566 
L 824.763327 -198.369105 
L 827.054101 -177.013616 
L 829.344875 -191.509086 
L 831.635649 -182.688196 
L 833.926424 -158.652438 
L 836.217198 -281.477768 
L 838.507972 -209.070383 
L 840.798746 -180.90138 
L 843.08952 -185.182196 
L 845.380295 -161.066433 
L 847.671069 -156.065924 
L 849.961843 -164.947216 
L 852.252617 -162.97458 
L 854.543392 -172.366427 
L 856.834166 -165.048948 
L 859.12494 -159.72977 
L 861.415714 -177.194052 
L 863.706489 -165.208573 
L 865.997263 -161.781447 
L 868.288037 -158.845437 
L 870.578811 -160.37211 
L 872.869585 -166.405797 
L 875.16036 -169.33503 
L 877.451134 -165.26416 
L 879.741908 -164.341679 
L 882.032682 -162.099119 
L 884.323457 -164.174654 
L 886.614231 -165.920561 
L 888.905005 -162.470873 
L 891.195779 -157.41896 
L 893.486553 -158.345873 
L 895.777328 -169.246364 
L 898.068102 -167.44373 
L 900.358876 -165.124438 
L 902.64965 -181.573652 
L 904.940425 -186.790456 
L 907.231199 -252.295782 
L 909.521973 -192.005604 
L 911.812747 -164.516147 
L 914.103521 -169.979228 
L 916.394296 -160.281996 
L 918.68507 -156.855012 
L 920.975844 -174.278405 
L 923.266618 -169.52693 
L 925.557393 -167.559829 
L 927.848167 -170.54835 
L 930.138941 -168.369799 
L 932.429715 -171.646318 
L 934.72049 -175.271937 
L 937.011264 -164.984726 
L 939.302038 -170.299229 
L 941.592812 -161.081204 
L 943.883586 -177.433147 
L 946.174361 -171.759543 
L 948.465135 -171.300706 
L 950.755909 -167.236698 
L 950.755909 -290.906479 
L 950.755909 -290.906479 
L 948.465135 -280.125965 
L 946.174361 -279.482585 
L 943.883586 -275.320018 
L 941.592812 -251.210313 
L 939.302038 -274.867793 
L 937.011264 -245.166296 
L 934.72049 -297.445026 
L 932.429715 -277.967977 
L 930.138941 -269.44175 
L 927.848167 -300.364932 
L 925.557393 -256.575936 
L 923.266618 -272.075559 
L 920.975844 -280.096955 
L 918.68507 -238.094904 
L 916.394296 -277.414864 
L 914.103521 -260.086237 
L 911.812747 -261.44944 
L 909.521973 -315.775423 
L 907.231199 -514.938306 
L 904.940425 -323.45671 
L 902.64965 -285.848291 
L 900.358876 -256.4574 
L 898.068102 -252.652377 
L 895.777328 -278.789308 
L 893.486553 -248.028115 
L 891.195779 -245.020995 
L 888.905005 -276.113891 
L 886.614231 -272.028032 
L 884.323457 -245.450138 
L 882.032682 -284.447748 
L 879.741908 -257.381795 
L 877.451134 -285.415994 
L 875.16036 -264.104729 
L 872.869585 -242.85983 
L 870.578811 -235.079295 
L 868.288037 -223.544675 
L 865.997263 -256.900578 
L 863.706489 -263.399946 
L 861.415714 -281.573068 
L 859.12494 -252.889969 
L 856.834166 -255.247664 
L 854.543392 -259.674448 
L 852.252617 -245.887842 
L 849.961843 -248.697117 
L 847.671069 -215.212119 
L 845.380295 -246.593556 
L 843.08952 -305.428449 
L 840.798746 -375.984325 
L 838.507972 -370.608016 
L 836.217198 -496.506793 
L 833.926424 -244.723619 
L 831.635649 -291.689195 
L 829.344875 -373.746469 
L 827.054101 -282.587779 
L 824.763327 -323.427906 
L 822.472552 -339.356968 
L 820.181778 -423.295765 
L 817.891004 -397.67711 
L 815.60023 -365.64411 
L 813.309456 -405.703914 
L 811.018681 -273.218203 
L 808.727907 -248.106816 
L 806.437133 -253.218755 
L 804.146359 -286.141847 
L 801.855584 -286.874633 
L 799.56481 -277.030638 
L 797.274036 -271.479634 
L 794.983262 -259.173022 
L 792.692488 -300.70953 
L 790.401713 -320.947181 
L 788.110939 -289.927568 
L 785.820165 -308.582953 
L 783.529391 -268.819821 
L 781.238616 -240.677921 
L 778.947842 -215.454591 
L 776.657068 -234.003694 
L 774.366294 -249.009652 
L 772.075519 -216.077595 
L 769.784745 -225.937751 
L 767.493971 -227.657992 
L 765.203197 -238.834776 
L 762.912423 -228.573297 
L 760.621648 -235.200768 
L 758.330874 -249.676801 
L 756.0401 -199.81513 
L 753.749326 -235.241037 
L 751.458551 -203.873375 
L 749.167777 -195.59493 
L 746.877003 -217.445281 
L 744.586229 -210.555098 
L 742.295455 -231.002469 
L 740.00468 -207.17544 
L 737.713906 -230.099701 
L 735.423132 -253.076932 
L 733.132358 -227.174826 
L 730.841583 -249.357342 
L 728.550809 -230.146093 
L 726.260035 -256.54769 
L 723.969261 -253.995384 
L 721.678487 -241.424644 
L 719.387712 -208.89358 
L 717.096938 -246.513753 
L 714.806164 -246.203794 
L 712.51539 -247.431077 
L 710.224615 -254.449247 
L 707.933841 -271.046674 
L 705.643067 -240.729998 
L 703.352293 -241.642506 
L 701.061518 -256.198238 
L 698.770744 -253.57053 
L 696.47997 -234.769692 
L 694.189196 -246.222485 
L 691.898422 -315.584935 
L 689.607647 -240.529723 
L 687.316873 -216.667729 
L 685.026099 -258.057917 
L 682.735325 -213.589743 
L 680.44455 -247.765546 
L 678.153776 -232.689445 
L 675.863002 -273.498281 
L 673.572228 -273.820255 
L 671.281454 -240.504269 
L 668.990679 -239.704634 
L 666.699905 -258.581707 
L 664.409131 -257.027104 
L 662.118357 -230.985111 
L 659.827582 -232.682978 
L 657.536808 -230.763187 
L 655.246034 -203.515058 
L 652.95526 -223.775641 
L 650.664486 -200.68063 
L 648.373711 -211.680546 
L 646.082937 -213.800249 
L 643.792163 -196.134179 
L 641.501389 -213.125831 
L 639.210614 -211.936746 
L 636.91984 -204.507998 
L 634.629066 -222.708767 
L 632.338292 -211.475431 
L 630.047517 -224.33461 
L 627.756743 -217.359972 
L 625.465969 -200.967068 
L 623.175195 -223.66616 
L 620.884421 -196.415049 
L 618.593646 -213.026278 
L 616.302872 -207.479434 
L 614.012098 -203.951505 
L 611.721324 -221.298817 
L 609.430549 -234.561477 
L 607.139775 -205.180011 
L 604.849001 -204.457302 
L 602.558227 -193.612984 
L 600.267453 -213.096952 
L 597.976678 -212.439868 
L 595.685904 -197.626618 
L 593.39513 -206.154325 
L 591.104356 -206.506987 
L 588.813581 -201.104703 
L 586.522807 -187.249473 
L 584.232033 -196.61504 
L 581.941259 -199.790047 
L 579.650485 -192.790354 
L 577.35971 -204.297832 
L 575.068936 -192.870974 
L 572.778162 -204.157202 
L 570.487388 -182.929952 
L 568.196613 -199.351496 
L 565.905839 -206.692537 
L 563.615065 -209.77776 
L 561.324291 -215.924588 
L 559.033516 -259.202054 
L 556.742742 -229.836144 
L 554.451968 -222.807552 
L 552.161194 -222.923285 
L 549.87042 -220.324555 
L 547.579645 -224.93788 
L 545.288871 -232.33304 
L 542.998097 -233.157857 
L 540.707323 -227.614221 
L 538.416548 -241.822106 
L 536.125774 -232.789135 
L 533.835 -241.392234 
L 531.544226 -227.61264 
L 529.253452 -219.117891 
L 526.962677 -204.773295 
L 524.671903 -231.199271 
L 522.381129 -216.002344 
L 520.090355 -189.61589 
L 517.79958 -205.717547 
L 515.508806 -215.960273 
L 513.218032 -228.775291 
L 510.927258 -205.990254 
L 508.636484 -225.856102 
L 506.345709 -265.933888 
L 504.054935 -366.101296 
L 501.764161 -538.380511 
L 499.473387 -269.696835 
L 497.182612 -305.593413 
L 494.891838 -241.097778 
L 492.601064 -250.870146 
L 490.31029 -268.190029 
L 488.019515 -257.325466 
L 485.728741 -227.517417 
L 483.437967 -237.293339 
L 481.147193 -268.585934 
L 478.856419 -294.586154 
L 476.565644 -265.149312 
L 474.27487 -278.640689 
L 471.984096 -279.325443 
L 469.693322 -240.238777 
L 467.402547 -355.357169 
L 465.111773 -304.439911 
L 462.820999 -477.437917 
L 460.530225 -235.897212 
L 458.239451 -199.619519 
L 455.948676 -235.573915 
L 453.657902 -211.156349 
L 451.367128 -206.6122 
L 449.076354 -234.484772 
L 446.785579 -269.799932 
L 444.494805 -266.6085 
L 442.204031 -258.446915 
L 439.913257 -239.586191 
L 437.622483 -249.566229 
L 435.331708 -242.181289 
L 433.040934 -254.641769 
L 430.75016 -263.054421 
L 428.459386 -240.349848 
L 426.168611 -215.876504 
L 423.877837 -240.413357 
L 421.587063 -221.128401 
L 419.296289 -221.955767 
L 417.005514 -230.114302 
L 414.71474 -262.588034 
L 412.423966 -282.263136 
L 410.133192 -229.628709 
L 407.842418 -225.647558 
L 405.551643 -246.754354 
L 403.260869 -240.763243 
L 400.970095 -194.846897 
L 398.679321 -202.610473 
L 396.388546 -189.533586 
L 394.097772 -183.871351 
L 391.806998 -206.985748 
L 389.516224 -223.266989 
L 387.22545 -208.662518 
L 384.934675 -254.221817 
L 382.643901 -223.156091 
L 380.353127 -227.944729 
L 378.062353 -237.746099 
L 375.771578 -218.81272 
L 373.480804 -208.478581 
L 371.19003 -248.694441 
L 368.899256 -221.524687 
L 366.608482 -223.721041 
L 364.317707 -209.989455 
L 362.026933 -224.175135 
L 359.736159 -227.271479 
L 357.445385 -248.514708 
L 355.15461 -216.929718 
L 352.863836 -236.017196 
L 350.573062 -206.32704 
L 348.282288 -205.188906 
L 345.991513 -230.352068 
L 343.700739 -237.942768 
L 341.409965 -226.330725 
L 339.119191 -256.864833 
L 336.828417 -220.133741 
L 334.537642 -224.511658 
L 332.246868 -223.935725 
L 329.956094 -204.909571 
L 327.66532 -242.326214 
L 325.374545 -206.103386 
L 323.083771 -195.690165 
L 320.792997 -214.750415 
L 318.502223 -226.27092 
L 316.211449 -233.651207 
L 313.920674 -232.698224 
L 311.6299 -193.521506 
L 309.339126 -218.87177 
L 307.048352 -231.038711 
L 304.757577 -207.616168 
L 302.466803 -233.07505 
L 300.176029 -233.865855 
L 297.885255 -197.227062 
L 295.594481 -227.002216 
L 293.303706 -230.404331 
L 291.012932 -241.169543 
L 288.722158 -204.276789 
L 286.431384 -221.76596 
L 284.140609 -198.491008 
L 281.849835 -216.263823 
L 279.559061 -206.301729 
L 277.268287 -233.566629 
L 274.977512 -189.363649 
L 272.686738 -201.030662 
L 270.395964 -252.931045 
L 268.10519 -267.137878 
L 265.814416 -219.69277 
L 263.523641 -241.732722 
L 261.232867 -225.731778 
L 258.942093 -220.35862 
L 256.651319 -220.161703 
L 254.360544 -208.083776 
L 252.06977 -238.54743 
L 249.778996 -208.378268 
L 247.488222 -222.078367 
L 245.197448 -198.790665 
L 242.906673 -219.676478 
L 240.615899 -216.507723 
L 238.325125 -247.993043 
L 236.034351 -204.720724 
L 233.743576 -246.757157 
L 231.452802 -257.058895 
L 229.162028 -255.761189 
L 226.871254 -230.862959 
L 224.58048 -241.876924 
L 222.289705 -268.830186 
L 219.998931 -244.240751 
L 217.708157 -235.591924 
L 215.417383 -205.176507 
L 213.126608 -195.185766 
L 210.835834 -118.107195 
L 208.54506 -259.574676 
L 206.254286 -247.204131 
L 203.963511 -263.298974 
L 201.672737 -253.243815 
L 199.381963 -254.679026 
L 197.091189 -262.534331 
L 194.800415 -254.812165 
L 192.50964 -253.921804 
L 190.218866 -259.377784 
L 187.928092 -230.77061 
L 185.637318 -259.993093 
L 183.346543 -238.413423 
L 181.055769 -239.830641 
L 178.764995 -237.49731 
L 176.474221 -216.777265 
L 174.183447 -232.091436 
L 171.892672 -241.52766 
L 169.601898 -261.280878 
L 167.311124 -231.112183 
L 165.02035 -232.175173 
L 162.729575 -246.315222 
L 160.438801 -269.644858 
L 158.148027 -189.624045 
L 155.857253 -241.133951 
L 153.566479 -213.499283 
L 151.275704 -223.872683 
L 148.98493 -229.508562 
L 146.694156 -229.961398 
L 144.403382 -213.084389 
L 142.112607 -272.594311 
L 139.821833 -200.898193 
L 137.531059 -218.277687 
L 135.240285 -230.078419 
L 132.94951 -272.757569 
L 130.658736 -231.248322 
L 128.367962 -239.201354 
L 126.077188 -242.479941 
L 123.786414 -235.56876 
L 121.495639 -203.351809 
L 119.204865 -258.120385 
L 116.914091 -255.700951 
z
" style="stroke: #edd1cb; stroke-opacity: 0.2"/>
    </defs>
    <g clip-path="url(#p60e2bb3c80)">
     <use xlink:href="#mbc7190c477" x="0" y="576" style="fill: #edd1cb; fill-opacity: 0.2; stroke: #edd1cb; stroke-opacity: 0.2"/>
    </g>
   </g>
   <g id="PolyCollection_2">
    <defs>
     <path id="m7244192ca6" d="M 116.914091 -291.577229 
L 116.914091 -180.568445 
L 119.204865 -183.533125 
L 121.495639 -166.929688 
L 123.786414 -172.699059 
L 126.077188 -165.420403 
L 128.367962 -176.775827 
L 130.658736 -178.278154 
L 132.94951 -168.856764 
L 135.240285 -171.969182 
L 137.531059 -209.831657 
L 139.821833 -187.314061 
L 142.112607 -185.032134 
L 144.403382 -181.047294 
L 146.694156 -176.712754 
L 148.98493 -184.110066 
L 151.275704 -192.222236 
L 153.566479 -184.026487 
L 155.857253 -187.761745 
L 158.148027 -202.529865 
L 160.438801 -203.642106 
L 162.729575 -194.011313 
L 165.02035 -208.902144 
L 167.311124 -196.243132 
L 169.601898 -196.975933 
L 171.892672 -206.15179 
L 174.183447 -196.454702 
L 176.474221 -187.266571 
L 178.764995 -191.172205 
L 181.055769 -188.374382 
L 183.346543 -151.366781 
L 185.637318 -102.616856 
L 187.928092 -143.221732 
L 190.218866 -142.728647 
L 192.50964 -149.091561 
L 194.800415 -145.187671 
L 197.091189 -154.066735 
L 199.381963 -151.805371 
L 201.672737 -172.667956 
L 203.963511 -165.363736 
L 206.254286 -176.859067 
L 208.54506 -169.07877 
L 210.835834 -180.289073 
L 213.126608 -170.732937 
L 215.417383 -160.831698 
L 217.708157 -177.514636 
L 219.998931 -168.942691 
L 222.289705 -169.900385 
L 224.58048 -169.594409 
L 226.871254 -175.597427 
L 229.162028 -191.467733 
L 231.452802 -173.439886 
L 233.743576 -177.991973 
L 236.034351 -181.286487 
L 238.325125 -175.035756 
L 240.615899 -168.840898 
L 242.906673 -170.047853 
L 245.197448 -178.508131 
L 247.488222 -176.158707 
L 249.778996 -169.166398 
L 252.06977 -178.187966 
L 254.360544 -171.38298 
L 256.651319 -171.150209 
L 258.942093 -186.445392 
L 261.232867 -193.766527 
L 263.523641 -175.811887 
L 265.814416 -178.427297 
L 268.10519 -191.709614 
L 270.395964 -181.668544 
L 272.686738 -171.256323 
L 274.977512 -172.979768 
L 277.268287 -177.446504 
L 279.559061 -178.465938 
L 281.849835 -187.191121 
L 284.140609 -179.010187 
L 286.431384 -178.468623 
L 288.722158 -166.098634 
L 291.012932 -171.257927 
L 293.303706 -178.308398 
L 295.594481 -172.673924 
L 297.885255 -172.897717 
L 300.176029 -182.527779 
L 302.466803 -175.651947 
L 304.757577 -161.103318 
L 307.048352 -163.489642 
L 309.339126 -164.295768 
L 311.6299 -164.290963 
L 313.920674 -168.221211 
L 316.211449 -169.8315 
L 318.502223 -163.907379 
L 320.792997 -163.101499 
L 323.083771 -171.277898 
L 325.374545 -168.072174 
L 327.66532 -162.431834 
L 329.956094 -169.371385 
L 332.246868 -171.509103 
L 334.537642 -177.882646 
L 336.828417 -177.316525 
L 339.119191 -182.880043 
L 341.409965 -198.718205 
L 343.700739 -193.149564 
L 345.991513 -189.274444 
L 348.282288 -190.035099 
L 350.573062 -172.942104 
L 352.863836 -182.399201 
L 355.15461 -186.024642 
L 357.445385 -160.94988 
L 359.736159 -177.160346 
L 362.026933 -198.43941 
L 364.317707 -191.586274 
L 366.608482 -176.217875 
L 368.899256 -182.571225 
L 371.19003 -185.627148 
L 373.480804 -202.918944 
L 375.771578 -223.828096 
L 378.062353 -259.015258 
L 380.353127 -244.086939 
L 382.643901 -214.613549 
L 384.934675 -191.000578 
L 387.22545 -159.933976 
L 389.516224 -166.331516 
L 391.806998 -159.328096 
L 394.097772 -164.401639 
L 396.388546 -174.372123 
L 398.679321 -182.149489 
L 400.970095 -179.475594 
L 403.260869 -191.581427 
L 405.551643 -178.979951 
L 407.842418 -175.836887 
L 410.133192 -192.165103 
L 412.423966 -191.477706 
L 414.71474 -199.216655 
L 417.005514 -197.742105 
L 419.296289 -194.248856 
L 421.587063 -173.612389 
L 423.877837 -167.036142 
L 426.168611 -180.836538 
L 428.459386 -196.262209 
L 430.75016 -181.666909 
L 433.040934 -185.215351 
L 435.331708 -177.526368 
L 437.622483 -187.168352 
L 439.913257 -194.222987 
L 442.204031 -173.099428 
L 444.494805 -169.911766 
L 446.785579 -174.550889 
L 449.076354 -174.764566 
L 451.367128 -169.407197 
L 453.657902 -168.745769 
L 455.948676 -156.751374 
L 458.239451 -153.39425 
L 460.530225 -174.162485 
L 462.820999 -256.208328 
L 465.111773 -195.280903 
L 467.402547 -193.222985 
L 469.693322 -178.229139 
L 471.984096 -172.938346 
L 474.27487 -177.256648 
L 476.565644 -199.181642 
L 478.856419 -186.809506 
L 481.147193 -178.734507 
L 483.437967 -183.147518 
L 485.728741 -186.54861 
L 488.019515 -189.34871 
L 490.31029 -196.790415 
L 492.601064 -178.757863 
L 494.891838 -207.997518 
L 497.182612 -233.784749 
L 499.473387 -207.777401 
L 501.764161 -301.146414 
L 504.054935 -224.929993 
L 506.345709 -207.496279 
L 508.636484 -176.954829 
L 510.927258 -178.098368 
L 513.218032 -183.474614 
L 515.508806 -175.310342 
L 517.79958 -175.383609 
L 520.090355 -180.809847 
L 522.381129 -172.136395 
L 524.671903 -176.15973 
L 526.962677 -169.858865 
L 529.253452 -164.487584 
L 531.544226 -172.36203 
L 533.835 -182.017998 
L 536.125774 -172.147442 
L 538.416548 -179.274193 
L 540.707323 -175.724088 
L 542.998097 -176.782566 
L 545.288871 -169.535823 
L 547.579645 -174.625625 
L 549.87042 -178.477088 
L 552.161194 -172.33853 
L 554.451968 -177.011403 
L 556.742742 -179.282996 
L 559.033516 -182.549086 
L 561.324291 -188.055363 
L 563.615065 -185.264624 
L 565.905839 -183.189827 
L 568.196613 -173.059496 
L 570.487388 -175.227119 
L 572.778162 -175.734063 
L 575.068936 -181.957447 
L 577.35971 -182.290255 
L 579.650485 -167.369268 
L 581.941259 -171.662471 
L 584.232033 -168.261804 
L 586.522807 -185.199557 
L 588.813581 -184.031039 
L 591.104356 -166.544052 
L 593.39513 -160.77177 
L 595.685904 -167.033218 
L 597.976678 -174.530478 
L 600.267453 -167.657294 
L 602.558227 -174.417195 
L 604.849001 -185.676079 
L 607.139775 -170.624851 
L 609.430549 -178.117169 
L 611.721324 -165.699336 
L 614.012098 -171.312593 
L 616.302872 -164.536359 
L 618.593646 -175.742657 
L 620.884421 -173.819341 
L 623.175195 -173.173177 
L 625.465969 -167.170217 
L 627.756743 -169.151928 
L 630.047517 -166.762742 
L 632.338292 -167.131809 
L 634.629066 -182.607867 
L 636.91984 -178.865739 
L 639.210614 -170.204853 
L 641.501389 -183.416492 
L 643.792163 -174.799839 
L 646.082937 -167.193813 
L 648.373711 -177.585482 
L 650.664486 -181.697761 
L 652.95526 -177.983042 
L 655.246034 -174.326664 
L 657.536808 -179.315557 
L 659.827582 -189.038717 
L 662.118357 -178.738953 
L 664.409131 -181.879041 
L 666.699905 -187.340982 
L 668.990679 -190.345359 
L 671.281454 -184.268682 
L 673.572228 -190.606064 
L 675.863002 -192.248379 
L 678.153776 -192.629731 
L 680.44455 -184.221779 
L 682.735325 -199.563809 
L 685.026099 -193.833533 
L 687.316873 -213.937217 
L 689.607647 -204.063432 
L 691.898422 -196.07419 
L 694.189196 -181.412382 
L 696.47997 -173.013592 
L 698.770744 -174.908539 
L 701.061518 -180.215026 
L 703.352293 -181.000483 
L 705.643067 -175.93328 
L 707.933841 -181.070422 
L 710.224615 -190.153766 
L 712.51539 -169.814737 
L 714.806164 -180.126316 
L 717.096938 -171.890733 
L 719.387712 -181.540557 
L 721.678487 -189.024668 
L 723.969261 -185.142166 
L 726.260035 -177.784657 
L 728.550809 -179.678737 
L 730.841583 -189.505119 
L 733.132358 -185.566789 
L 735.423132 -188.184834 
L 737.713906 -182.472304 
L 740.00468 -177.268503 
L 742.295455 -179.463935 
L 744.586229 -162.503041 
L 746.877003 -166.883773 
L 749.167777 -165.192392 
L 751.458551 -169.173928 
L 753.749326 -168.348226 
L 756.0401 -176.51965 
L 758.330874 -183.592344 
L 760.621648 -179.653951 
L 762.912423 -179.54031 
L 765.203197 -168.510713 
L 767.493971 -172.730739 
L 769.784745 -172.834328 
L 772.075519 -164.996528 
L 774.366294 -166.651651 
L 776.657068 -164.937131 
L 778.947842 -164.475685 
L 781.238616 -172.894329 
L 783.529391 -162.402827 
L 785.820165 -176.638414 
L 788.110939 -188.341524 
L 790.401713 -170.949653 
L 792.692488 -159.669011 
L 794.983262 -168.84941 
L 797.274036 -170.922099 
L 799.56481 -171.286702 
L 801.855584 -171.043146 
L 804.146359 -166.612014 
L 806.437133 -152.812552 
L 808.727907 -147.847505 
L 811.018681 -175.749814 
L 813.309456 -253.313416 
L 815.60023 -214.700721 
L 817.891004 -198.65899 
L 820.181778 -181.69371 
L 822.472552 -162.463023 
L 824.763327 -177.442691 
L 827.054101 -172.341444 
L 829.344875 -184.315002 
L 831.635649 -160.382537 
L 833.926424 -185.248923 
L 836.217198 -254.430256 
L 838.507972 -216.355437 
L 840.798746 -191.826519 
L 843.08952 -170.504439 
L 845.380295 -163.889385 
L 847.671069 -152.340048 
L 849.961843 -159.5566 
L 852.252617 -158.048785 
L 854.543392 -157.351457 
L 856.834166 -160.284189 
L 859.12494 -155.45609 
L 861.415714 -147.151365 
L 863.706489 -140.421447 
L 865.997263 -151.794203 
L 868.288037 -132.163622 
L 870.578811 -127.710609 
L 872.869585 -125.656259 
L 875.16036 -119.812707 
L 877.451134 -115.579273 
L 879.741908 -112.25778 
L 882.032682 -154.881545 
L 884.323457 -139.642852 
L 886.614231 -148.597585 
L 888.905005 -159.907042 
L 891.195779 -161.126305 
L 893.486553 -164.991991 
L 895.777328 -150.274756 
L 898.068102 -149.375216 
L 900.358876 -161.833271 
L 902.64965 -158.665283 
L 904.940425 -170.123827 
L 907.231199 -162.935267 
L 909.521973 -149.045642 
L 911.812747 -145.554972 
L 914.103521 -145.547158 
L 916.394296 -157.874414 
L 918.68507 -158.921102 
L 920.975844 -162.104678 
L 923.266618 -161.792693 
L 925.557393 -161.039298 
L 927.848167 -159.572906 
L 930.138941 -159.982774 
L 932.429715 -163.251562 
L 934.72049 -154.443259 
L 937.011264 -158.820725 
L 939.302038 -160.272811 
L 941.592812 -160.113964 
L 943.883586 -157.084243 
L 946.174361 -157.933587 
L 948.465135 -169.623458 
L 950.755909 -163.516718 
L 950.755909 -214.045161 
L 950.755909 -214.045161 
L 948.465135 -242.411809 
L 946.174361 -202.353555 
L 943.883586 -208.509062 
L 941.592812 -218.735193 
L 939.302038 -208.043098 
L 937.011264 -205.869392 
L 934.72049 -204.313871 
L 932.429715 -211.877022 
L 930.138941 -210.258609 
L 927.848167 -217.264985 
L 925.557393 -214.869558 
L 923.266618 -220.962107 
L 920.975844 -220.82592 
L 918.68507 -208.693746 
L 916.394296 -201.018337 
L 914.103521 -189.489838 
L 911.812747 -192.629276 
L 909.521973 -195.78516 
L 907.231199 -219.471426 
L 904.940425 -228.162247 
L 902.64965 -211.727478 
L 900.358876 -212.288213 
L 898.068102 -186.200856 
L 895.777328 -193.523465 
L 893.486553 -212.936745 
L 891.195779 -213.414211 
L 888.905005 -211.994107 
L 886.614231 -198.212044 
L 884.323457 -204.406823 
L 882.032682 -228.548191 
L 879.741908 -133.509755 
L 877.451134 -150.813492 
L 875.16036 -155.411579 
L 872.869585 -166.098086 
L 870.578811 -174.425827 
L 868.288037 -168.405387 
L 865.997263 -196.88571 
L 863.706489 -183.195588 
L 861.415714 -191.064277 
L 859.12494 -203.300055 
L 856.834166 -207.616901 
L 854.543392 -215.785012 
L 852.252617 -200.959059 
L 849.961843 -239.725667 
L 847.671069 -198.883702 
L 845.380295 -207.685082 
L 843.08952 -230.804761 
L 840.798746 -275.919835 
L 838.507972 -313.170981 
L 836.217198 -384.586657 
L 833.926424 -265.324449 
L 831.635649 -214.031624 
L 829.344875 -257.182872 
L 827.054101 -237.240846 
L 824.763327 -274.597989 
L 822.472552 -242.781299 
L 820.181778 -275.042872 
L 817.891004 -280.02876 
L 815.60023 -298.887563 
L 813.309456 -347.744448 
L 811.018681 -242.612444 
L 808.727907 -196.98484 
L 806.437133 -206.990777 
L 804.146359 -233.854318 
L 801.855584 -261.539945 
L 799.56481 -240.523635 
L 797.274036 -238.00676 
L 794.983262 -258.963607 
L 792.692488 -240.341095 
L 790.401713 -234.430533 
L 788.110939 -283.207886 
L 785.820165 -239.910396 
L 783.529391 -222.075376 
L 781.238616 -242.933907 
L 778.947842 -236.575652 
L 776.657068 -233.602407 
L 774.366294 -227.850724 
L 772.075519 -238.33615 
L 769.784745 -259.433297 
L 767.493971 -233.499751 
L 765.203197 -237.470321 
L 762.912423 -260.944382 
L 760.621648 -261.993118 
L 758.330874 -294.340495 
L 756.0401 -247.378741 
L 753.749326 -240.267938 
L 751.458551 -231.803149 
L 749.167777 -224.94392 
L 746.877003 -234.136184 
L 744.586229 -224.378724 
L 742.295455 -243.367531 
L 740.00468 -254.648027 
L 737.713906 -253.526072 
L 735.423132 -266.925725 
L 733.132358 -271.174358 
L 730.841583 -297.890529 
L 728.550809 -258.17918 
L 726.260035 -281.146717 
L 723.969261 -275.57528 
L 721.678487 -295.920545 
L 719.387712 -253.602326 
L 717.096938 -235.177471 
L 714.806164 -257.695769 
L 712.51539 -235.715839 
L 710.224615 -293.571732 
L 707.933841 -274.242522 
L 705.643067 -254.481458 
L 703.352293 -277.771821 
L 701.061518 -265.002813 
L 698.770744 -255.777028 
L 696.47997 -251.025859 
L 694.189196 -294.480595 
L 691.898422 -279.171738 
L 689.607647 -317.960309 
L 687.316873 -307.935893 
L 685.026099 -301.436308 
L 682.735325 -292.631177 
L 680.44455 -268.37058 
L 678.153776 -270.436237 
L 675.863002 -279.611359 
L 673.572228 -272.032385 
L 671.281454 -256.743907 
L 668.990679 -279.306621 
L 666.699905 -314.105388 
L 664.409131 -257.569249 
L 662.118357 -250.178764 
L 659.827582 -274.775039 
L 657.536808 -256.481629 
L 655.246034 -247.021106 
L 652.95526 -245.250892 
L 650.664486 -273.085355 
L 648.373711 -258.674129 
L 646.082937 -235.452447 
L 643.792163 -284.688003 
L 641.501389 -262.007118 
L 639.210614 -229.147713 
L 636.91984 -291.176562 
L 634.629066 -259.322602 
L 632.338292 -237.315502 
L 630.047517 -233.137915 
L 627.756743 -238.606116 
L 625.465969 -229.840085 
L 623.175195 -246.765826 
L 620.884421 -233.884321 
L 618.593646 -277.711975 
L 616.302872 -226.544945 
L 614.012098 -249.292757 
L 611.721324 -226.998182 
L 609.430549 -258.911186 
L 607.139775 -232.031217 
L 604.849001 -273.444042 
L 602.558227 -237.562401 
L 600.267453 -238.646092 
L 597.976678 -249.406623 
L 595.685904 -232.097854 
L 593.39513 -223.785733 
L 591.104356 -229.816162 
L 588.813581 -258.252475 
L 586.522807 -253.614401 
L 584.232033 -235.687544 
L 581.941259 -241.083424 
L 579.650485 -241.635263 
L 577.35971 -255.730153 
L 575.068936 -261.350649 
L 572.778162 -245.143793 
L 570.487388 -246.404135 
L 568.196613 -238.427638 
L 565.905839 -254.776879 
L 563.615065 -255.588005 
L 561.324291 -254.960078 
L 559.033516 -244.901766 
L 556.742742 -261.53365 
L 554.451968 -249.242877 
L 552.161194 -253.940593 
L 549.87042 -247.031208 
L 547.579645 -235.956005 
L 545.288871 -232.337163 
L 542.998097 -247.374197 
L 540.707323 -247.092212 
L 538.416548 -254.036415 
L 536.125774 -237.709244 
L 533.835 -256.50524 
L 531.544226 -242.483413 
L 529.253452 -229.962996 
L 526.962677 -239.302617 
L 524.671903 -249.732909 
L 522.381129 -239.648344 
L 520.090355 -274.031898 
L 517.79958 -245.856585 
L 515.508806 -244.99507 
L 513.218032 -291.432119 
L 510.927258 -251.340334 
L 508.636484 -246.198968 
L 506.345709 -312.626208 
L 504.054935 -339.794886 
L 501.764161 -455.13301 
L 499.473387 -296.100493 
L 497.182612 -341.903843 
L 494.891838 -315.798973 
L 492.601064 -248.416244 
L 490.31029 -266.151629 
L 488.019515 -270.575675 
L 485.728741 -291.614122 
L 483.437967 -249.244379 
L 481.147193 -250.000619 
L 478.856419 -252.240156 
L 476.565644 -307.868824 
L 474.27487 -243.060616 
L 471.984096 -252.929836 
L 469.693322 -260.412841 
L 467.402547 -288.365332 
L 465.111773 -304.067361 
L 462.820999 -400.245581 
L 460.530225 -232.715216 
L 458.239451 -208.802089 
L 455.948676 -222.652717 
L 453.657902 -233.030246 
L 451.367128 -226.666404 
L 449.076354 -249.614234 
L 446.785579 -281.350342 
L 444.494805 -238.956958 
L 442.204031 -275.519965 
L 439.913257 -281.36614 
L 437.622483 -278.428443 
L 435.331708 -258.157709 
L 433.040934 -306.727646 
L 430.75016 -263.33515 
L 428.459386 -319.706219 
L 426.168611 -285.310424 
L 423.877837 -238.655348 
L 421.587063 -272.529625 
L 419.296289 -301.165866 
L 417.005514 -284.669414 
L 414.71474 -287.17167 
L 412.423966 -274.395602 
L 410.133192 -280.677492 
L 407.842418 -287.058856 
L 405.551643 -258.760743 
L 403.260869 -285.32498 
L 400.970095 -266.698905 
L 398.679321 -264.629525 
L 396.388546 -249.984311 
L 394.097772 -223.804156 
L 391.806998 -224.058462 
L 389.516224 -240.091626 
L 387.22545 -237.608563 
L 384.934675 -307.663591 
L 382.643901 -344.831472 
L 380.353127 -377.93308 
L 378.062353 -400.591447 
L 375.771578 -338.771943 
L 373.480804 -300.287865 
L 371.19003 -272.308106 
L 368.899256 -262.68111 
L 366.608482 -245.751934 
L 364.317707 -290.85597 
L 362.026933 -304.867031 
L 359.736159 -281.89031 
L 357.445385 -233.625107 
L 355.15461 -302.508402 
L 352.863836 -308.464996 
L 350.573062 -247.458893 
L 348.282288 -318.41897 
L 345.991513 -287.356628 
L 343.700739 -315.055809 
L 341.409965 -285.256142 
L 339.119191 -265.774225 
L 336.828417 -259.519101 
L 334.537642 -259.907354 
L 332.246868 -246.979472 
L 329.956094 -248.198089 
L 327.66532 -229.537765 
L 325.374545 -235.853439 
L 323.083771 -246.767856 
L 320.792997 -231.799862 
L 318.502223 -245.9948 
L 316.211449 -283.493266 
L 313.920674 -285.378786 
L 311.6299 -234.263906 
L 309.339126 -235.095023 
L 307.048352 -224.147298 
L 304.757577 -220.865889 
L 302.466803 -265.317197 
L 300.176029 -256.809096 
L 297.885255 -259.60864 
L 295.594481 -240.676361 
L 293.303706 -255.794224 
L 291.012932 -272.773004 
L 288.722158 -265.522805 
L 286.431384 -286.086875 
L 284.140609 -258.284545 
L 281.849835 -296.879242 
L 279.559061 -248.467164 
L 277.268287 -253.924356 
L 274.977512 -257.718466 
L 272.686738 -254.179588 
L 270.395964 -290.597118 
L 268.10519 -295.941575 
L 265.814416 -243.921664 
L 263.523641 -271.834552 
L 261.232867 -290.530008 
L 258.942093 -282.145562 
L 256.651319 -236.018943 
L 254.360544 -273.786603 
L 252.06977 -294.147638 
L 249.778996 -242.342238 
L 247.488222 -250.88467 
L 245.197448 -267.09838 
L 242.906673 -244.912928 
L 240.615899 -237.636643 
L 238.325125 -286.945354 
L 236.034351 -263.505009 
L 233.743576 -268.266508 
L 231.452802 -243.576846 
L 229.162028 -283.445619 
L 226.871254 -275.769036 
L 224.58048 -289.17936 
L 222.289705 -255.486423 
L 219.998931 -241.905256 
L 217.708157 -265.943884 
L 215.417383 -245.93288 
L 213.126608 -244.746356 
L 210.835834 -271.999103 
L 208.54506 -230.126035 
L 206.254286 -293.973726 
L 203.963511 -237.647763 
L 201.672737 -284.968135 
L 199.381963 -215.021771 
L 197.091189 -217.04808 
L 194.800415 -200.279413 
L 192.50964 -215.146782 
L 190.218866 -206.992188 
L 187.928092 -201.586767 
L 185.637318 -125.752417 
L 183.346543 -223.433963 
L 181.055769 -304.942179 
L 178.764995 -291.839012 
L 176.474221 -297.854042 
L 174.183447 -299.748339 
L 171.892672 -306.550815 
L 169.601898 -295.245836 
L 167.311124 -298.860142 
L 165.02035 -335.480777 
L 162.729575 -294.268979 
L 160.438801 -315.534217 
L 158.148027 -299.645935 
L 155.857253 -280.488751 
L 153.566479 -302.453219 
L 151.275704 -283.949174 
L 148.98493 -268.851129 
L 146.694156 -274.600258 
L 144.403382 -281.846035 
L 142.112607 -305.054193 
L 139.821833 -305.870487 
L 137.531059 -337.644504 
L 135.240285 -245.213124 
L 132.94951 -239.629496 
L 130.658736 -257.733169 
L 128.367962 -282.203893 
L 126.077188 -274.633575 
L 123.786414 -289.083261 
L 121.495639 -269.402901 
L 119.204865 -291.669532 
L 116.914091 -291.577229 
z
" style="stroke: #2d1e3e; stroke-opacity: 0.2"/>
    </defs>
    <g clip-path="url(#p60e2bb3c80)">
     <use xlink:href="#m7244192ca6" x="0" y="576" style="fill: #2d1e3e; fill-opacity: 0.2; stroke: #2d1e3e; stroke-opacity: 0.2"/>
    </g>
   </g>
   <g id="line2d_1">
    <path d="M 116.914091 364.515627 
L 119.204865 366.615587 
L 121.495639 403.702457 
L 123.786414 391.059925 
L 126.077188 390.735095 
L 128.367962 381.789538 
L 130.658736 393.982548 
L 132.94951 362.62248 
L 135.240285 391.971995 
L 137.531059 392.806044 
L 139.821833 405.108422 
L 142.112607 372.069842 
L 144.403382 403.950425 
L 146.694156 391.46717 
L 148.98493 385.750129 
L 151.275704 388.599779 
L 153.566479 400.048994 
L 155.857253 383.121957 
L 158.148027 413.368759 
L 160.438801 362.914766 
L 162.729575 381.194454 
L 165.02035 381.084509 
L 167.311124 382.746044 
L 169.601898 365.85923 
L 171.892672 378.020666 
L 174.183447 388.77343 
L 176.474221 395.369093 
L 178.764995 385.964738 
L 181.055769 380.05094 
L 183.346543 380.473668 
L 185.637318 375.116171 
L 187.928092 383.809568 
L 190.218866 366.002864 
L 192.50964 374.96484 
L 194.800415 374.899043 
L 197.091189 367.346182 
L 199.381963 368.646132 
L 201.672737 366.782937 
L 203.963511 366.186293 
L 206.254286 374.286749 
L 208.54506 378.937213 
L 210.835834 469.982313 
L 213.126608 416.172958 
L 215.417383 413.529313 
L 217.708157 397.415554 
L 219.998931 382.672792 
L 222.289705 377.851718 
L 224.58048 397.892029 
L 226.871254 389.427614 
L 229.162028 383.409578 
L 231.452802 382.01233 
L 233.743576 386.063976 
L 236.034351 403.410731 
L 238.325125 384.672887 
L 240.615899 396.935063 
L 242.906673 396.73705 
L 245.197448 409.167976 
L 247.488222 391.483709 
L 249.778996 399.39827 
L 252.06977 387.246154 
L 254.360544 397.239218 
L 256.651319 392.317369 
L 258.942093 393.881711 
L 261.232867 386.183604 
L 263.523641 391.189796 
L 265.814416 398.684735 
L 268.10519 367.875669 
L 270.395964 386.360334 
L 272.686738 406.903592 
L 274.977512 411.879823 
L 277.268287 392.920132 
L 279.559061 401.959089 
L 281.849835 399.067911 
L 284.140609 406.250084 
L 286.431384 396.44847 
L 288.722158 400.670936 
L 291.012932 386.95009 
L 293.303706 389.907726 
L 295.594481 386.780392 
L 297.885255 408.33061 
L 300.176029 394.566842 
L 302.466803 388.199551 
L 304.757577 402.24145 
L 307.048352 386.833715 
L 309.339126 399.702047 
L 311.6299 409.17817 
L 313.920674 387.340023 
L 316.211449 391.000897 
L 318.502223 393.99107 
L 320.792997 399.476758 
L 323.083771 406.955031 
L 325.374545 401.898808 
L 327.66532 393.730667 
L 329.956094 406.491963 
L 332.246868 393.4225 
L 334.537642 390.670309 
L 336.828417 391.822483 
L 339.119191 380.650249 
L 341.409965 391.025141 
L 343.700739 390.908873 
L 345.991513 398.915649 
L 348.282288 401.017431 
L 350.573062 399.294018 
L 352.863836 392.914121 
L 355.15461 399.7403 
L 357.445385 386.950844 
L 359.736159 391.304328 
L 362.026933 398.099719 
L 364.317707 399.941981 
L 366.608482 386.811842 
L 368.899256 392.799636 
L 371.19003 384.208655 
L 373.480804 400.008823 
L 375.771578 394.274512 
L 378.062353 376.946631 
L 380.353127 389.792965 
L 382.643901 393.626008 
L 384.934675 383.713136 
L 387.22545 399.552801 
L 389.516224 402.672383 
L 391.806998 401.45788 
L 394.097772 419.048784 
L 396.388546 417.21811 
L 398.679321 405.00397 
L 400.970095 410.126492 
L 403.260869 379.683314 
L 405.551643 378.225919 
L 407.842418 388.415969 
L 410.133192 388.038435 
L 412.423966 360.359679 
L 414.71474 374.126999 
L 417.005514 395.430273 
L 419.296289 393.135894 
L 421.587063 393.659681 
L 423.877837 379.919407 
L 426.168611 398.424527 
L 428.459386 377.048268 
L 430.75016 371.815651 
L 433.040934 375.119582 
L 435.331708 384.012402 
L 437.622483 381.907872 
L 439.913257 387.907016 
L 442.204031 378.700054 
L 444.494805 363.736229 
L 446.785579 365.158193 
L 449.076354 384.178989 
L 451.367128 399.04444 
L 453.657902 397.950956 
L 455.948676 386.161079 
L 458.239451 407.573155 
L 460.530225 386.752955 
L 462.820999 216.736242 
L 465.111773 330.358266 
L 467.402547 321.560368 
L 469.693322 374.732327 
L 471.984096 359.439762 
L 474.27487 357.201302 
L 476.565644 361.575951 
L 478.856419 345.483742 
L 481.147193 368.367993 
L 483.437967 383.443498 
L 485.728741 385.510651 
L 488.019515 380.155259 
L 490.31029 369.408208 
L 492.601064 380.104314 
L 494.891838 381.850664 
L 497.182612 324.938336 
L 499.473387 353.215422 
L 501.764161 156.292198 
L 504.054935 293.369588 
L 506.345709 366.276329 
L 508.636484 385.963229 
L 510.927258 398.622067 
L 513.218032 397.682969 
L 515.508806 395.739136 
L 520.090355 413.295453 
L 522.381129 397.939646 
L 524.671903 391.040727 
L 526.962677 401.218544 
L 529.253452 390.181418 
L 531.544226 390.713154 
L 533.835 380.475003 
L 536.125774 388.019245 
L 538.416548 379.526455 
L 540.707323 389.221818 
L 542.998097 391.170812 
L 545.288871 385.750798 
L 549.87042 397.08366 
L 552.161194 391.659535 
L 556.742742 392.673033 
L 559.033516 376.300928 
L 561.324291 399.362871 
L 563.615065 402.362594 
L 565.905839 403.717083 
L 568.196613 405.744951 
L 570.487388 415.573066 
L 572.778162 406.412749 
L 575.068936 410.161287 
L 577.35971 401.987937 
L 579.650485 411.98318 
L 581.941259 406.367434 
L 584.232033 410.136145 
L 586.522807 412.619243 
L 588.813581 406.55232 
L 591.104356 399.326735 
L 593.39513 403.749327 
L 595.685904 407.01239 
L 597.976678 401.289442 
L 600.267453 400.565283 
L 602.558227 411.440254 
L 604.849001 402.85438 
L 607.139775 402.027838 
L 609.430549 386.331152 
L 611.721324 392.053606 
L 614.012098 404.005372 
L 616.302872 401.937186 
L 618.593646 396.845775 
L 620.884421 406.570041 
L 623.175195 395.890157 
L 625.465969 404.832933 
L 627.756743 394.822614 
L 630.047517 387.128708 
L 632.338292 400.810553 
L 634.629066 390.771409 
L 636.91984 402.266692 
L 639.210614 398.284408 
L 641.501389 395.001567 
L 643.792163 407.421381 
L 646.082937 399.90055 
L 648.373711 401.564791 
L 650.664486 406.022003 
L 652.95526 393.226305 
L 655.246034 402.203315 
L 657.536808 386.815378 
L 659.827582 382.850077 
L 662.118357 384.074396 
L 664.409131 373.874956 
L 666.699905 376.845226 
L 668.990679 380.021086 
L 671.281454 380.291599 
L 673.572228 360.027752 
L 675.863002 365.823627 
L 678.153776 384.439769 
L 680.44455 379.028863 
L 682.735325 399.103091 
L 685.026099 373.247775 
L 687.316873 395.344405 
L 689.607647 382.157725 
L 691.898422 338.254537 
L 694.189196 378.449592 
L 696.47997 386.687633 
L 698.770744 379.403611 
L 701.061518 367.273632 
L 705.643067 381.916874 
L 707.933841 364.314618 
L 710.224615 375.542893 
L 712.51539 375.717857 
L 714.806164 372.294449 
L 717.096938 383.555883 
L 719.387712 401.281912 
L 721.678487 380.46088 
L 723.969261 377.727061 
L 726.260035 376.16668 
L 728.550809 390.383341 
L 730.841583 377.233273 
L 733.132358 388.652497 
L 735.423132 373.696149 
L 737.713906 387.286493 
L 740.00468 401.912452 
L 742.295455 392.773032 
L 744.586229 405.16885 
L 746.877003 406.764355 
L 749.167777 410.968094 
L 751.458551 411.902556 
L 753.749326 384.726039 
L 756.0401 410.92499 
L 758.330874 380.669779 
L 760.621648 388.521957 
L 762.912423 388.939513 
L 765.203197 384.249963 
L 767.493971 393.4139 
L 769.784745 393.108993 
L 772.075519 396.659933 
L 774.366294 379.937628 
L 776.657068 393.344272 
L 778.947842 397.29249 
L 781.238616 382.517327 
L 783.529391 372.56639 
L 785.820165 338.679498 
L 788.110939 347.67576 
L 790.401713 330.604619 
L 792.692488 348.120041 
L 794.983262 371.173452 
L 797.274036 360.766108 
L 799.56481 355.039144 
L 801.855584 354.184402 
L 804.146359 355.376148 
L 806.437133 374.057578 
L 808.727907 380.426558 
L 811.018681 360.547098 
L 813.309456 262.520247 
L 815.60023 289.574413 
L 817.891004 268.942856 
L 820.181778 251.710331 
L 822.472552 308.767014 
L 824.763327 322.359299 
L 827.054101 351.627641 
L 829.344875 308.861296 
L 831.635649 344.103058 
L 833.926424 381.174342 
L 836.217198 204.526651 
L 838.507972 292.781802 
L 843.08952 337.711319 
L 845.380295 372.425981 
L 847.671069 393.012246 
L 849.961843 372.853496 
L 852.252617 375.747727 
L 854.543392 363.345746 
L 856.834166 370.686279 
L 859.12494 375.100027 
L 861.415714 352.179364 
L 863.706489 369.277022 
L 865.997263 372.338291 
L 868.288037 386.859859 
L 870.578811 380.717801 
L 872.869585 373.509694 
L 875.16036 365.384176 
L 877.451134 359.220148 
L 879.741908 371.035852 
L 882.032682 363.061587 
L 884.323457 373.875811 
L 886.614231 363.614626 
L 888.905005 364.506427 
L 891.195779 376.265408 
L 893.486553 376.860076 
L 895.777328 358.574315 
L 898.068102 372.379722 
L 900.358876 367.850777 
L 902.64965 345.881451 
L 904.940425 327.426013 
L 907.231199 214.605998 
L 909.521973 327.695565 
L 911.812747 366.725795 
L 914.103521 365.944764 
L 916.394296 365.921853 
L 918.68507 380.50731 
L 920.975844 352.180475 
L 923.266618 361.726697 
L 925.557393 368.266649 
L 927.848167 348.091923 
L 930.138941 360.209454 
L 932.429715 358.689147 
L 934.72049 348.935957 
L 937.011264 371.830213 
L 939.302038 358.220551 
L 941.592812 372.291172 
L 943.883586 353.663107 
L 946.174361 352.684268 
L 948.465135 355.383895 
L 950.755909 355.667867 
L 950.755909 355.667867 
" clip-path="url(#p60e2bb3c80)" style="fill: none; stroke: #edd1cb; stroke-width: 1.5; stroke-linecap: round"/>
   </g>
   <g id="line2d_2">
    <path d="M 116.914091 343.378254 
L 119.204865 341.333744 
L 121.495639 366.313034 
L 123.786414 352.351061 
L 126.077188 361.75124 
L 128.367962 353.531964 
L 130.658736 360.85424 
L 132.94951 373.619518 
L 135.240285 370.289961 
L 137.531059 307.335365 
L 139.821833 338.192631 
L 142.112607 337.709678 
L 144.403382 350.223483 
L 146.694156 355.18553 
L 148.98493 355.329163 
L 151.275704 341.599637 
L 153.566479 344.850929 
L 155.857253 344.329745 
L 158.148027 327.711025 
L 160.438801 319.872276 
L 162.729575 337.34317 
L 165.02035 312.904648 
L 167.311124 329.884123 
L 169.601898 335.243488 
L 171.892672 325.731165 
L 174.183447 330.291892 
L 176.474221 339.224513 
L 178.764995 340.361104 
L 181.055769 336.745768 
L 183.346543 391.097534 
L 185.637318 462.905573 
L 187.928092 405.915287 
L 190.218866 405.128853 
L 192.50964 396.07728 
L 194.800415 405.651967 
L 197.091189 392.616887 
L 199.381963 394.206499 
L 201.672737 354.20981 
L 203.963511 377.649203 
L 206.254286 351.413082 
L 208.54506 377.256198 
L 210.835834 355.419907 
L 213.126608 371.652943 
L 215.417383 378.325885 
L 217.708157 360.579264 
L 219.998931 373.978544 
L 222.289705 369.42845 
L 224.58048 359.399966 
L 226.871254 359.229054 
L 229.162028 342.311888 
L 231.452802 370.334082 
L 233.743576 359.592566 
L 236.034351 355.268498 
L 238.325125 356.553849 
L 240.615899 374.710617 
L 242.906673 370.390761 
L 245.197448 356.362245 
L 247.488222 365.031576 
L 249.778996 371.54827 
L 252.06977 348.875442 
L 254.360544 359.374736 
L 256.651319 374.501311 
L 258.942093 345.395012 
L 261.232867 338.610902 
L 263.523641 360.80356 
L 265.814416 366.129742 
L 268.10519 337.736666 
L 270.395964 346.596185 
L 272.686738 366.850795 
L 274.977512 364.497576 
L 277.268287 364.535453 
L 279.559061 363.367901 
L 281.849835 342.152627 
L 284.140609 359.270926 
L 286.431384 352.332616 
L 288.722158 367.133544 
L 291.012932 360.506927 
L 293.303706 359.57363 
L 295.594481 372.748991 
L 297.885255 363.54528 
L 300.176029 358.736595 
L 302.466803 363.407978 
L 304.757577 387.294767 
L 307.048352 384.732782 
L 309.339126 377.686558 
L 311.6299 382.022329 
L 313.920674 360.064279 
L 316.211449 360.167007 
L 318.502223 374.608767 
L 320.792997 380.819088 
L 323.083771 370.592867 
L 327.66532 382.081091 
L 329.956094 371.275879 
L 332.246868 369.425094 
L 334.537642 361.413951 
L 336.828417 359.702391 
L 339.119191 355.067186 
L 341.409965 334.279281 
L 343.700739 330.087718 
L 345.991513 342.331996 
L 348.282288 333.159388 
L 350.573062 368.526712 
L 352.863836 338.902897 
L 355.15461 338.555183 
L 357.445385 381.263346 
L 359.736159 351.04903 
L 362.026933 328.775058 
L 364.317707 340.672053 
L 366.608482 366.466589 
L 368.899256 354.469356 
L 371.19003 349.713147 
L 373.480804 326.30245 
L 375.771578 300.521937 
L 378.062353 254.318039 
L 380.353127 266.133644 
L 384.934675 335.345452 
L 387.22545 380.713397 
L 389.516224 375.894351 
L 391.806998 385.784696 
L 394.097772 382.804505 
L 396.388546 367.102346 
L 398.679321 355.979647 
L 400.970095 356.080717 
L 403.260869 341.567278 
L 405.551643 360.900272 
L 407.842418 354.019407 
L 410.133192 341.258484 
L 412.423966 345.039291 
L 414.71474 337.015526 
L 417.005514 337.510388 
L 419.296289 335.240697 
L 421.587063 361.104871 
L 423.877837 372.968802 
L 426.168611 350.913307 
L 428.459386 323.5566 
L 430.75016 356.435763 
L 433.040934 335.202255 
L 435.331708 359.27565 
L 437.622483 344.829637 
L 439.913257 340.819134 
L 442.204031 358.343504 
L 444.494805 374.101387 
L 446.785579 356.207374 
L 451.367128 378.925855 
L 453.657902 378.504018 
L 455.948676 388.327595 
L 458.239451 397.608305 
L 460.530225 374.405315 
L 462.820999 252.22741 
L 465.111773 331.670394 
L 467.402547 337.129481 
L 469.693322 358.459692 
L 471.984096 366.803129 
L 474.27487 367.387177 
L 476.565644 329.436256 
L 478.856419 358.650664 
L 481.147193 363.503078 
L 483.437967 361.389075 
L 485.728741 346.178096 
L 488.019515 347.67366 
L 490.31029 346.666663 
L 492.601064 365.386179 
L 494.891838 319.504716 
L 497.182612 291.78425 
L 499.473387 325.469371 
L 501.764161 200.556313 
L 504.054935 298.591455 
L 506.345709 318.476994 
L 508.636484 366.461517 
L 510.927258 364.97639 
L 513.218032 347.923466 
L 515.508806 365.991566 
L 517.79958 366.855006 
L 520.090355 355.292919 
L 522.381129 372.009784 
L 524.671903 365.68077 
L 526.962677 375.717206 
L 529.253452 379.583276 
L 531.544226 370.259777 
L 533.835 357.309662 
L 536.125774 373.111062 
L 538.416548 360.677734 
L 540.707323 368.284108 
L 542.998097 367.527608 
L 545.288871 378.365776 
L 547.579645 372.456239 
L 549.87042 364.088251 
L 552.161194 367.311687 
L 554.451968 364.796008 
L 556.742742 360.504667 
L 559.033516 362.912546 
L 561.324291 357.247285 
L 563.615065 357.101707 
L 565.905839 357.307827 
L 568.196613 371.489808 
L 570.487388 367.518857 
L 572.778162 367.819582 
L 575.068936 357.489862 
L 577.35971 358.237345 
L 579.650485 375.677697 
L 581.941259 371.196021 
L 584.232033 375.074111 
L 586.522807 359.000314 
L 588.813581 359.601511 
L 591.104356 379.881041 
L 593.39513 385.620501 
L 595.685904 378.408511 
L 597.976678 366.966009 
L 600.267453 375.484061 
L 602.558227 372.017979 
L 604.849001 349.931458 
L 607.139775 376.954953 
L 609.430549 360.131739 
L 611.721324 381.431217 
L 614.012098 368.596554 
L 616.302872 382.682045 
L 618.593646 355.22035 
L 620.884421 373.726825 
L 623.175195 370.924697 
L 625.465969 378.438374 
L 627.756743 374.531208 
L 630.047517 378.198342 
L 632.338292 376.965208 
L 634.629066 357.065833 
L 636.91984 348.953177 
L 639.210614 377.050365 
L 641.501389 356.653925 
L 643.792163 354.868214 
L 646.082937 376.679061 
L 648.373711 361.790491 
L 650.664486 352.145926 
L 652.95526 366.118075 
L 655.246034 368.210951 
L 657.536808 361.137903 
L 659.827582 349.184046 
L 662.118357 363.785901 
L 664.409131 358.855385 
L 666.699905 332.79272 
L 671.281454 357.878953 
L 673.572228 349.387981 
L 675.863002 342.650474 
L 678.153776 347.892832 
L 680.44455 352.590736 
L 682.735325 333.458227 
L 685.026099 333.120809 
L 687.316873 317.800921 
L 689.607647 318.262638 
L 691.898422 340.333948 
L 694.189196 346.705818 
L 696.47997 364.568287 
L 698.770744 361.931965 
L 701.061518 355.409665 
L 703.352293 352.15339 
L 705.643067 363.627995 
L 707.933841 353.5093 
L 710.224615 336.339169 
L 712.51539 375.914462 
L 714.806164 358.412295 
L 717.096938 374.591208 
L 719.387712 360.217157 
L 721.678487 342.063268 
L 723.969261 348.258504 
L 726.260035 355.334339 
L 728.550809 358.542058 
L 730.841583 340.587806 
L 733.132358 353.270236 
L 735.423132 351.49461 
L 737.713906 360.64848 
L 740.00468 362.622627 
L 742.295455 365.807599 
L 744.586229 384.726477 
L 746.877003 376.241232 
L 749.167777 381.843658 
L 751.458551 377.84485 
L 753.749326 376.120219 
L 756.0401 364.772771 
L 758.330874 343.502052 
L 760.621648 359.540713 
L 762.912423 360.093285 
L 765.203197 373.870902 
L 767.493971 373.303561 
L 769.784745 363.419528 
L 772.075519 376.579192 
L 774.366294 379.107109 
L 776.657068 379.322407 
L 778.947842 379.250369 
L 781.238616 370.473647 
L 783.529391 386.764847 
L 785.820165 369.825812 
L 788.110939 343.877546 
L 790.401713 376.142404 
L 792.692488 384.133855 
L 794.983262 366.82251 
L 797.274036 375.604508 
L 799.56481 373.44495 
L 801.855584 365.927319 
L 804.146359 375.901848 
L 806.437133 397.653687 
L 808.727907 404.563784 
L 811.018681 368.591317 
L 813.309456 277.229553 
L 815.60023 321.612182 
L 817.891004 341.250279 
L 820.181778 354.53299 
L 822.472552 379.60942 
L 824.763327 357.898238 
L 827.054101 372.638937 
L 829.344875 358.579068 
L 831.635649 391.576143 
L 833.926424 353.961304 
L 836.217198 262.431943 
L 838.507972 313.956129 
L 840.798746 347.570213 
L 843.08952 377.299366 
L 845.380295 391.393116 
L 847.671069 400.126701 
L 849.961843 383.877369 
L 852.252617 398.56073 
L 854.543392 392.742278 
L 856.834166 394.014032 
L 859.12494 397.936882 
L 861.415714 408.69624 
L 863.706489 415.263004 
L 865.997263 402.797031 
L 868.288037 426.687033 
L 870.578811 427.311612 
L 872.869585 431.7365 
L 875.16036 439.506843 
L 877.451134 445.604316 
L 879.741908 453.71009 
L 882.032682 387.634555 
L 884.323457 406.366765 
L 886.614231 404.266313 
L 888.905005 392.259293 
L 891.195779 390.668326 
L 893.486553 388.801012 
L 895.777328 402.884038 
L 898.068102 407.867441 
L 900.358876 390.75563 
L 902.64965 392.901569 
L 904.940425 378.670445 
L 907.231199 387.667101 
L 909.521973 404.660051 
L 911.812747 408.798614 
L 914.103521 408.411324 
L 916.394296 397.836997 
L 918.68507 393.206026 
L 920.975844 386.332965 
L 923.266618 387.017337 
L 925.557393 388.524069 
L 927.848167 389.427264 
L 930.138941 391.763357 
L 932.429715 389.507763 
L 934.72049 398.281838 
L 937.011264 395.555597 
L 939.302038 392.25451 
L 941.592812 389.320574 
L 943.883586 394.480532 
L 946.174361 396.48703 
L 948.465135 375.46287 
L 950.755909 389.276249 
L 950.755909 389.276249 
" clip-path="url(#p60e2bb3c80)" style="fill: none; stroke: #2d1e3e; stroke-width: 1.5; stroke-linecap: round"/>
   </g>
   <g id="line2d_3"/>
   <g id="line2d_4"/>
   <g id="patch_3">
    <path d="M 75.222 501.03675 
L 75.222 15.552 
" style="fill: none; stroke: #ffffff; stroke-width: 1.25; stroke-linejoin: miter; stroke-linecap: square"/>
   </g>
   <g id="patch_4">
    <path d="M 992.448 501.03675 
L 992.448 15.552 
" style="fill: none; stroke: #ffffff; stroke-width: 1.25; stroke-linejoin: miter; stroke-linecap: square"/>
   </g>
   <g id="patch_5">
    <path d="M 75.222 501.03675 
L 992.448 501.03675 
" style="fill: none; stroke: #ffffff; stroke-width: 1.25; stroke-linejoin: miter; stroke-linecap: square"/>
   </g>
   <g id="patch_6">
    <path d="M 75.222 15.552 
L 992.448 15.552 
" style="fill: none; stroke: #ffffff; stroke-width: 1.25; stroke-linejoin: miter; stroke-linecap: square"/>
   </g>
   <g id="legend_1">
    <g id="patch_7">
     <path d="M 914.568 80.967 
L 983.208 80.967 
Q 985.848 80.967 985.848 78.327 
L 985.848 24.792 
Q 985.848 22.152 983.208 22.152 
L 914.568 22.152 
Q 911.928 22.152 911.928 24.792 
L 911.928 78.327 
Q 911.928 80.967 914.568 80.967 
z
" style="fill: #eaeaf2; opacity: 0.8; stroke: #cccccc; stroke-linejoin: miter"/>
    </g>
    <g id="text_49">
     <!-- 年份 -->
     <g style="fill: #262626" transform="translate(934.488 38.907) scale(0.144 -0.144)">
      <defs>
       <path id="SimHei-5e74" d="M 350 2925 
Q 900 3450 1375 4200 
Q 1850 4950 1900 5275 
Q 2275 5125 2600 5050 
Q 2375 4825 2100 4325 
L 4625 4325 
Q 5175 4325 5750 4350 
L 5750 3925 
Q 5225 3950 4625 3950 
L 3800 3950 
L 3800 2925 
Q 4750 2925 5475 2950 
L 5475 2525 
Q 4725 2550 3800 2550 
L 3800 1375 
L 5075 1375 
Q 5625 1375 6100 1400 
L 6100 975 
Q 5650 1000 5075 1000 
L 3800 1000 
L 3800 425 
Q 3800 -150 3825 -625 
L 3275 -625 
Q 3300 -150 3300 375 
L 3300 1000 
L 1600 1000 
Q 900 1000 275 975 
L 275 1400 
Q 875 1375 1450 1375 
Q 1450 2350 1425 2925 
L 3300 2925 
L 3300 3950 
L 1875 3950 
Q 1350 3150 925 2650 
Q 650 2875 350 2925 
z
M 3300 1375 
L 3300 2550 
L 1925 2550 
L 1925 1375 
L 3300 1375 
z
" transform="scale(0.015625)"/>
       <path id="SimHei-4efd" d="M 4750 5100 
Q 4875 4375 5250 3650 
Q 5625 2925 6200 2450 
Q 6025 2375 5775 2075 
Q 5600 2275 5350 2575 
Q 5300 2275 5275 1312 
Q 5250 350 5187 25 
Q 5125 -300 4850 -400 
Q 4575 -500 4075 -550 
Q 4000 -250 3875 0 
Q 4400 -25 4575 25 
Q 4750 75 4775 587 
Q 4800 1100 4825 2250 
L 3700 2250 
Q 3675 1300 3425 650 
Q 3175 0 2375 -625 
Q 2175 -350 2000 -225 
Q 2750 225 2987 800 
Q 3225 1375 3225 2250 
Q 3000 2250 2675 2225 
L 2675 2575 
Q 2475 2300 2150 1950 
Q 2000 2150 1750 2300 
Q 2875 3275 3225 4875 
Q 3450 4775 3750 4675 
Q 3625 4400 3425 3887 
Q 3225 3375 2775 2700 
Q 3050 2675 3400 2675 
L 5300 2675 
Q 4575 3625 4275 4975 
Q 4575 5025 4750 5100 
z
M 225 2525 
Q 575 2875 1025 3687 
Q 1475 4500 1650 5225 
Q 1975 5075 2200 4975 
Q 2050 4750 1600 3775 
L 1600 625 
Q 1600 75 1625 -575 
L 1100 -575 
Q 1125 50 1125 625 
L 1125 2925 
Q 775 2400 575 2175 
Q 425 2350 225 2525 
z
" transform="scale(0.015625)"/>
      </defs>
      <use xlink:href="#SimHei-5e74"/>
      <use xlink:href="#SimHei-4efd" x="100"/>
     </g>
    </g>
    <g id="line2d_5">
     <path d="M 917.208 51.927 
L 930.408 51.927 
L 943.608 51.927 
" style="fill: none; stroke: #edd1cb; stroke-width: 1.5; stroke-linecap: round"/>
    </g>
    <g id="text_50">
     <!-- 2021 -->
     <g style="fill: #262626" transform="translate(954.168 56.547) scale(0.132 -0.132)">
      <use xlink:href="#SimHei-32"/>
      <use xlink:href="#SimHei-30" x="50"/>
      <use xlink:href="#SimHei-32" x="100"/>
      <use xlink:href="#SimHei-31" x="150"/>
     </g>
    </g>
    <g id="line2d_6">
     <path d="M 917.208 69.417 
L 930.408 69.417 
L 943.608 69.417 
" style="fill: none; stroke: #2d1e3e; stroke-width: 1.5; stroke-linecap: round"/>
    </g>
    <g id="text_51">
     <!-- 2022 -->
     <g style="fill: #262626" transform="translate(954.168 74.037) scale(0.132 -0.132)">
      <use xlink:href="#SimHei-32"/>
      <use xlink:href="#SimHei-30" x="50"/>
      <use xlink:href="#SimHei-32" x="100"/>
      <use xlink:href="#SimHei-32" x="150"/>
     </g>
    </g>
   </g>
  </g>
 </g>
 <defs>
  <clipPath id="p60e2bb3c80">
   <rect x="75.222" y="15.552" width="917.226" height="485.48475"/>
  </clipPath>
 </defs>
</svg>
