<?xml version="1.0" encoding="utf-8" standalone="no"?>
<!DOCTYPE svg PUBLIC "-//W3C//DTD SVG 1.1//EN"
  "http://www.w3.org/Graphics/SVG/1.1/DTD/svg11.dtd">
<svg xmlns:xlink="http://www.w3.org/1999/xlink" width="1008pt" height="576pt" viewBox="0 0 1008 576" xmlns="http://www.w3.org/2000/svg" version="1.1">
 <metadata>
  <rdf:RDF xmlns:dc="http://purl.org/dc/elements/1.1/" xmlns:cc="http://creativecommons.org/ns#" xmlns:rdf="http://www.w3.org/1999/02/22-rdf-syntax-ns#">
   <cc:Work>
    <dc:type rdf:resource="http://purl.org/dc/dcmitype/StillImage"/>
    <dc:date>2023-04-14T12:56:10.795904</dc:date>
    <dc:format>image/svg+xml</dc:format>
    <dc:creator>
     <cc:Agent>
      <dc:title>Matplotlib v3.7.1, https://matplotlib.org/</dc:title>
     </cc:Agent>
    </dc:creator>
   </cc:Work>
  </rdf:RDF>
 </metadata>
 <defs>
  <style type="text/css">*{stroke-linejoin: round; stroke-linecap: butt}</style>
 </defs>
 <g id="figure_1">
  <g id="patch_1">
   <path d="M 0 576 
L 1008 576 
L 1008 0 
L 0 0 
z
" style="fill: #ffffff"/>
  </g>
  <g id="axes_1">
   <g id="patch_2">
    <path d="M 75.132 501.03675 
L 992.448 501.03675 
L 992.448 15.552 
L 75.132 15.552 
z
" style="fill: #ffffff"/>
   </g>
   <g id="matplotlib.axis_1">
    <g id="xtick_1">
     <g id="line2d_1">
      <path d="M 116.828182 501.03675 
L 116.828182 15.552 
" clip-path="url(#p20726d9a8f)" style="fill: none; stroke: #cccccc; stroke-linecap: round"/>
     </g>
     <g id="text_1">
      <!-- 01-01 -->
      <g style="fill: #262626" transform="translate(120.540682 543.53675) rotate(-90) scale(0.132 -0.132)">
       <defs>
        <path id="SimHei-30" d="M 225 2537 
Q 250 3200 412 3587 
Q 575 3975 875 4225 
Q 1175 4475 1612 4475 
Q 2050 4475 2375 4112 
Q 2700 3750 2800 3200 
Q 2900 2650 2862 1937 
Q 2825 1225 2612 775 
Q 2400 325 1975 150 
Q 1550 -25 1125 187 
Q 700 400 525 750 
Q 350 1100 275 1487 
Q 200 1875 225 2537 
z
M 750 2687 
Q 675 2000 800 1462 
Q 925 925 1212 700 
Q 1500 475 1800 612 
Q 2100 750 2237 1162 
Q 2375 1575 2375 2062 
Q 2375 2550 2337 2950 
Q 2300 3350 2112 3675 
Q 1925 4000 1612 4012 
Q 1300 4025 1062 3700 
Q 825 3375 750 2687 
z
" transform="scale(0.015625)"/>
        <path id="SimHei-31" d="M 1400 3600 
Q 1075 3275 575 2975 
L 575 3450 
Q 1200 3875 1600 4450 
L 1900 4450 
L 1900 150 
L 1400 150 
L 1400 3600 
z
" transform="scale(0.015625)"/>
        <path id="SimHei-2d" d="M 2975 2125 
L 125 2125 
L 125 2525 
L 2975 2525 
L 2975 2125 
z
" transform="scale(0.015625)"/>
       </defs>
       <use xlink:href="#SimHei-30"/>
       <use xlink:href="#SimHei-31" x="50"/>
       <use xlink:href="#SimHei-2d" x="100"/>
       <use xlink:href="#SimHei-30" x="150"/>
       <use xlink:href="#SimHei-31" x="200"/>
      </g>
     </g>
    </g>
    <g id="xtick_2">
     <g id="line2d_2">
      <path d="M 139.992727 501.03675 
L 139.992727 15.552 
" clip-path="url(#p20726d9a8f)" style="fill: none; stroke: #cccccc; stroke-linecap: round"/>
     </g>
     <g id="text_2">
      <!-- 01-11 -->
      <g style="fill: #262626" transform="translate(143.705227 543.53675) rotate(-90) scale(0.132 -0.132)">
       <use xlink:href="#SimHei-30"/>
       <use xlink:href="#SimHei-31" x="50"/>
       <use xlink:href="#SimHei-2d" x="100"/>
       <use xlink:href="#SimHei-31" x="150"/>
       <use xlink:href="#SimHei-31" x="200"/>
      </g>
     </g>
    </g>
    <g id="xtick_3">
     <g id="line2d_3">
      <path d="M 163.157273 501.03675 
L 163.157273 15.552 
" clip-path="url(#p20726d9a8f)" style="fill: none; stroke: #cccccc; stroke-linecap: round"/>
     </g>
     <g id="text_3">
      <!-- 01-21 -->
      <g style="fill: #262626" transform="translate(166.869773 543.53675) rotate(-90) scale(0.132 -0.132)">
       <defs>
        <path id="SimHei-32" d="M 300 250 
Q 325 625 650 925 
Q 975 1225 1475 1862 
Q 1975 2500 2125 2850 
Q 2275 3200 2237 3450 
Q 2200 3700 2000 3862 
Q 1800 4025 1537 4000 
Q 1275 3975 1037 3800 
Q 800 3625 675 3275 
L 200 3350 
Q 400 3925 712 4187 
Q 1025 4450 1450 4475 
Q 1700 4500 1900 4462 
Q 2100 4425 2312 4287 
Q 2525 4150 2662 3875 
Q 2800 3600 2762 3212 
Q 2725 2825 2375 2287 
Q 2025 1750 1025 600 
L 2825 600 
L 2825 150 
L 300 150 
L 300 250 
z
" transform="scale(0.015625)"/>
       </defs>
       <use xlink:href="#SimHei-30"/>
       <use xlink:href="#SimHei-31" x="50"/>
       <use xlink:href="#SimHei-2d" x="100"/>
       <use xlink:href="#SimHei-32" x="150"/>
       <use xlink:href="#SimHei-31" x="200"/>
      </g>
     </g>
    </g>
    <g id="xtick_4">
     <g id="line2d_4">
      <path d="M 186.321818 501.03675 
L 186.321818 15.552 
" clip-path="url(#p20726d9a8f)" style="fill: none; stroke: #cccccc; stroke-linecap: round"/>
     </g>
     <g id="text_4">
      <!-- 01-31 -->
      <g style="fill: #262626" transform="translate(190.034318 543.53675) rotate(-90) scale(0.132 -0.132)">
       <defs>
        <path id="SimHei-33" d="M 250 1225 
L 700 1300 
Q 800 975 1025 762 
Q 1250 550 1587 562 
Q 1925 575 2125 837 
Q 2325 1100 2300 1437 
Q 2275 1775 2037 1962 
Q 1800 2150 1275 2225 
L 1275 2550 
Q 1800 2600 2037 2825 
Q 2275 3050 2250 3412 
Q 2225 3775 1925 3937 
Q 1625 4100 1287 3975 
Q 950 3850 750 3275 
L 300 3350 
Q 450 3800 712 4100 
Q 975 4400 1425 4450 
Q 1875 4500 2212 4337 
Q 2550 4175 2687 3837 
Q 2825 3500 2725 3100 
Q 2625 2700 2150 2400 
Q 2500 2250 2687 1950 
Q 2875 1650 2812 1162 
Q 2750 675 2375 375 
Q 2000 75 1525 87 
Q 1050 100 700 387 
Q 350 675 250 1225 
z
" transform="scale(0.015625)"/>
       </defs>
       <use xlink:href="#SimHei-30"/>
       <use xlink:href="#SimHei-31" x="50"/>
       <use xlink:href="#SimHei-2d" x="100"/>
       <use xlink:href="#SimHei-33" x="150"/>
       <use xlink:href="#SimHei-31" x="200"/>
      </g>
     </g>
    </g>
    <g id="xtick_5">
     <g id="line2d_5">
      <path d="M 209.486364 501.03675 
L 209.486364 15.552 
" clip-path="url(#p20726d9a8f)" style="fill: none; stroke: #cccccc; stroke-linecap: round"/>
     </g>
     <g id="text_5">
      <!-- 02-10 -->
      <g style="fill: #262626" transform="translate(213.198864 543.53675) rotate(-90) scale(0.132 -0.132)">
       <use xlink:href="#SimHei-30"/>
       <use xlink:href="#SimHei-32" x="50"/>
       <use xlink:href="#SimHei-2d" x="100"/>
       <use xlink:href="#SimHei-31" x="150"/>
       <use xlink:href="#SimHei-30" x="200"/>
      </g>
     </g>
    </g>
    <g id="xtick_6">
     <g id="line2d_6">
      <path d="M 232.650909 501.03675 
L 232.650909 15.552 
" clip-path="url(#p20726d9a8f)" style="fill: none; stroke: #cccccc; stroke-linecap: round"/>
     </g>
     <g id="text_6">
      <!-- 02-20 -->
      <g style="fill: #262626" transform="translate(236.363409 543.53675) rotate(-90) scale(0.132 -0.132)">
       <use xlink:href="#SimHei-30"/>
       <use xlink:href="#SimHei-32" x="50"/>
       <use xlink:href="#SimHei-2d" x="100"/>
       <use xlink:href="#SimHei-32" x="150"/>
       <use xlink:href="#SimHei-30" x="200"/>
      </g>
     </g>
    </g>
    <g id="xtick_7">
     <g id="line2d_7">
      <path d="M 255.815455 501.03675 
L 255.815455 15.552 
" clip-path="url(#p20726d9a8f)" style="fill: none; stroke: #cccccc; stroke-linecap: round"/>
     </g>
     <g id="text_7">
      <!-- 03-02 -->
      <g style="fill: #262626" transform="translate(259.527955 543.53675) rotate(-90) scale(0.132 -0.132)">
       <use xlink:href="#SimHei-30"/>
       <use xlink:href="#SimHei-33" x="50"/>
       <use xlink:href="#SimHei-2d" x="100"/>
       <use xlink:href="#SimHei-30" x="150"/>
       <use xlink:href="#SimHei-32" x="200"/>
      </g>
     </g>
    </g>
    <g id="xtick_8">
     <g id="line2d_8">
      <path d="M 278.98 501.03675 
L 278.98 15.552 
" clip-path="url(#p20726d9a8f)" style="fill: none; stroke: #cccccc; stroke-linecap: round"/>
     </g>
     <g id="text_8">
      <!-- 03-12 -->
      <g style="fill: #262626" transform="translate(282.6925 543.53675) rotate(-90) scale(0.132 -0.132)">
       <use xlink:href="#SimHei-30"/>
       <use xlink:href="#SimHei-33" x="50"/>
       <use xlink:href="#SimHei-2d" x="100"/>
       <use xlink:href="#SimHei-31" x="150"/>
       <use xlink:href="#SimHei-32" x="200"/>
      </g>
     </g>
    </g>
    <g id="xtick_9">
     <g id="line2d_9">
      <path d="M 302.144545 501.03675 
L 302.144545 15.552 
" clip-path="url(#p20726d9a8f)" style="fill: none; stroke: #cccccc; stroke-linecap: round"/>
     </g>
     <g id="text_9">
      <!-- 03-22 -->
      <g style="fill: #262626" transform="translate(305.857045 543.53675) rotate(-90) scale(0.132 -0.132)">
       <use xlink:href="#SimHei-30"/>
       <use xlink:href="#SimHei-33" x="50"/>
       <use xlink:href="#SimHei-2d" x="100"/>
       <use xlink:href="#SimHei-32" x="150"/>
       <use xlink:href="#SimHei-32" x="200"/>
      </g>
     </g>
    </g>
    <g id="xtick_10">
     <g id="line2d_10">
      <path d="M 325.309091 501.03675 
L 325.309091 15.552 
" clip-path="url(#p20726d9a8f)" style="fill: none; stroke: #cccccc; stroke-linecap: round"/>
     </g>
     <g id="text_10">
      <!-- 04-01 -->
      <g style="fill: #262626" transform="translate(329.021591 543.53675) rotate(-90) scale(0.132 -0.132)">
       <defs>
        <path id="SimHei-34" d="M 2000 1100 
L 75 1100 
L 75 1525 
L 2100 4450 
L 2475 4450 
L 2475 1525 
L 3075 1525 
L 3075 1100 
L 2475 1100 
L 2475 150 
L 2000 150 
L 2000 1100 
z
M 2000 1525 
L 2000 3500 
L 600 1525 
L 2000 1525 
z
" transform="scale(0.015625)"/>
       </defs>
       <use xlink:href="#SimHei-30"/>
       <use xlink:href="#SimHei-34" x="50"/>
       <use xlink:href="#SimHei-2d" x="100"/>
       <use xlink:href="#SimHei-30" x="150"/>
       <use xlink:href="#SimHei-31" x="200"/>
      </g>
     </g>
    </g>
    <g id="xtick_11">
     <g id="line2d_11">
      <path d="M 348.473636 501.03675 
L 348.473636 15.552 
" clip-path="url(#p20726d9a8f)" style="fill: none; stroke: #cccccc; stroke-linecap: round"/>
     </g>
     <g id="text_11">
      <!-- 04-11 -->
      <g style="fill: #262626" transform="translate(352.186136 543.53675) rotate(-90) scale(0.132 -0.132)">
       <use xlink:href="#SimHei-30"/>
       <use xlink:href="#SimHei-34" x="50"/>
       <use xlink:href="#SimHei-2d" x="100"/>
       <use xlink:href="#SimHei-31" x="150"/>
       <use xlink:href="#SimHei-31" x="200"/>
      </g>
     </g>
    </g>
    <g id="xtick_12">
     <g id="line2d_12">
      <path d="M 371.638182 501.03675 
L 371.638182 15.552 
" clip-path="url(#p20726d9a8f)" style="fill: none; stroke: #cccccc; stroke-linecap: round"/>
     </g>
     <g id="text_12">
      <!-- 04-21 -->
      <g style="fill: #262626" transform="translate(375.350682 543.53675) rotate(-90) scale(0.132 -0.132)">
       <use xlink:href="#SimHei-30"/>
       <use xlink:href="#SimHei-34" x="50"/>
       <use xlink:href="#SimHei-2d" x="100"/>
       <use xlink:href="#SimHei-32" x="150"/>
       <use xlink:href="#SimHei-31" x="200"/>
      </g>
     </g>
    </g>
    <g id="xtick_13">
     <g id="line2d_13">
      <path d="M 394.802727 501.03675 
L 394.802727 15.552 
" clip-path="url(#p20726d9a8f)" style="fill: none; stroke: #cccccc; stroke-linecap: round"/>
     </g>
     <g id="text_13">
      <!-- 05-01 -->
      <g style="fill: #262626" transform="translate(398.515227 543.53675) rotate(-90) scale(0.132 -0.132)">
       <defs>
        <path id="SimHei-35" d="M 550 1325 
Q 725 650 1150 575 
Q 1575 500 1837 662 
Q 2100 825 2212 1087 
Q 2325 1350 2312 1675 
Q 2300 2000 2137 2225 
Q 1975 2450 1725 2525 
Q 1475 2600 1162 2525 
Q 850 2450 650 2175 
L 225 2225 
Q 275 2375 700 4375 
L 2675 4375 
L 2675 3925 
L 1075 3925 
Q 950 3250 825 2850 
Q 1200 3025 1525 3012 
Q 1850 3000 2150 2862 
Q 2450 2725 2587 2487 
Q 2725 2250 2787 2012 
Q 2850 1775 2837 1500 
Q 2825 1225 2725 937 
Q 2625 650 2425 462 
Q 2225 275 1937 162 
Q 1650 50 1275 75 
Q 900 100 562 350 
Q 225 600 100 1200 
L 550 1325 
z
" transform="scale(0.015625)"/>
       </defs>
       <use xlink:href="#SimHei-30"/>
       <use xlink:href="#SimHei-35" x="50"/>
       <use xlink:href="#SimHei-2d" x="100"/>
       <use xlink:href="#SimHei-30" x="150"/>
       <use xlink:href="#SimHei-31" x="200"/>
      </g>
     </g>
    </g>
    <g id="xtick_14">
     <g id="line2d_14">
      <path d="M 417.967273 501.03675 
L 417.967273 15.552 
" clip-path="url(#p20726d9a8f)" style="fill: none; stroke: #cccccc; stroke-linecap: round"/>
     </g>
     <g id="text_14">
      <!-- 05-11 -->
      <g style="fill: #262626" transform="translate(421.679773 543.53675) rotate(-90) scale(0.132 -0.132)">
       <use xlink:href="#SimHei-30"/>
       <use xlink:href="#SimHei-35" x="50"/>
       <use xlink:href="#SimHei-2d" x="100"/>
       <use xlink:href="#SimHei-31" x="150"/>
       <use xlink:href="#SimHei-31" x="200"/>
      </g>
     </g>
    </g>
    <g id="xtick_15">
     <g id="line2d_15">
      <path d="M 441.131818 501.03675 
L 441.131818 15.552 
" clip-path="url(#p20726d9a8f)" style="fill: none; stroke: #cccccc; stroke-linecap: round"/>
     </g>
     <g id="text_15">
      <!-- 05-21 -->
      <g style="fill: #262626" transform="translate(444.844318 543.53675) rotate(-90) scale(0.132 -0.132)">
       <use xlink:href="#SimHei-30"/>
       <use xlink:href="#SimHei-35" x="50"/>
       <use xlink:href="#SimHei-2d" x="100"/>
       <use xlink:href="#SimHei-32" x="150"/>
       <use xlink:href="#SimHei-31" x="200"/>
      </g>
     </g>
    </g>
    <g id="xtick_16">
     <g id="line2d_16">
      <path d="M 464.296364 501.03675 
L 464.296364 15.552 
" clip-path="url(#p20726d9a8f)" style="fill: none; stroke: #cccccc; stroke-linecap: round"/>
     </g>
     <g id="text_16">
      <!-- 05-31 -->
      <g style="fill: #262626" transform="translate(468.008864 543.53675) rotate(-90) scale(0.132 -0.132)">
       <use xlink:href="#SimHei-30"/>
       <use xlink:href="#SimHei-35" x="50"/>
       <use xlink:href="#SimHei-2d" x="100"/>
       <use xlink:href="#SimHei-33" x="150"/>
       <use xlink:href="#SimHei-31" x="200"/>
      </g>
     </g>
    </g>
    <g id="xtick_17">
     <g id="line2d_17">
      <path d="M 487.460909 501.03675 
L 487.460909 15.552 
" clip-path="url(#p20726d9a8f)" style="fill: none; stroke: #cccccc; stroke-linecap: round"/>
     </g>
     <g id="text_17">
      <!-- 06-10 -->
      <g style="fill: #262626" transform="translate(491.173409 543.53675) rotate(-90) scale(0.132 -0.132)">
       <defs>
        <path id="SimHei-36" d="M 250 1612 
Q 275 1975 387 2225 
Q 500 2475 725 2850 
L 1750 4450 
L 2325 4450 
L 1275 2800 
Q 1950 2975 2350 2750 
Q 2750 2525 2887 2237 
Q 3025 1950 3037 1612 
Q 3050 1275 2937 950 
Q 2825 625 2537 362 
Q 2250 100 1737 75 
Q 1225 50 862 262 
Q 500 475 362 862 
Q 225 1250 250 1612 
z
M 1025 787 
Q 1250 550 1625 525 
Q 2000 500 2250 775 
Q 2500 1050 2500 1575 
Q 2500 2100 2187 2300 
Q 1875 2500 1487 2450 
Q 1100 2400 925 2075 
Q 750 1750 775 1387 
Q 800 1025 1025 787 
z
" transform="scale(0.015625)"/>
       </defs>
       <use xlink:href="#SimHei-30"/>
       <use xlink:href="#SimHei-36" x="50"/>
       <use xlink:href="#SimHei-2d" x="100"/>
       <use xlink:href="#SimHei-31" x="150"/>
       <use xlink:href="#SimHei-30" x="200"/>
      </g>
     </g>
    </g>
    <g id="xtick_18">
     <g id="line2d_18">
      <path d="M 510.625455 501.03675 
L 510.625455 15.552 
" clip-path="url(#p20726d9a8f)" style="fill: none; stroke: #cccccc; stroke-linecap: round"/>
     </g>
     <g id="text_18">
      <!-- 06-20 -->
      <g style="fill: #262626" transform="translate(514.337955 543.53675) rotate(-90) scale(0.132 -0.132)">
       <use xlink:href="#SimHei-30"/>
       <use xlink:href="#SimHei-36" x="50"/>
       <use xlink:href="#SimHei-2d" x="100"/>
       <use xlink:href="#SimHei-32" x="150"/>
       <use xlink:href="#SimHei-30" x="200"/>
      </g>
     </g>
    </g>
    <g id="xtick_19">
     <g id="line2d_19">
      <path d="M 533.79 501.03675 
L 533.79 15.552 
" clip-path="url(#p20726d9a8f)" style="fill: none; stroke: #cccccc; stroke-linecap: round"/>
     </g>
     <g id="text_19">
      <!-- 07-01 -->
      <g style="fill: #262626" transform="translate(537.5025 543.53675) rotate(-90) scale(0.132 -0.132)">
       <defs>
        <path id="SimHei-37" d="M 850 150 
Q 1300 2050 2425 3925 
L 275 3925 
L 275 4375 
L 2950 4375 
L 2950 3950 
Q 1775 2050 1400 150 
L 850 150 
z
" transform="scale(0.015625)"/>
       </defs>
       <use xlink:href="#SimHei-30"/>
       <use xlink:href="#SimHei-37" x="50"/>
       <use xlink:href="#SimHei-2d" x="100"/>
       <use xlink:href="#SimHei-30" x="150"/>
       <use xlink:href="#SimHei-31" x="200"/>
      </g>
     </g>
    </g>
    <g id="xtick_20">
     <g id="line2d_20">
      <path d="M 556.954545 501.03675 
L 556.954545 15.552 
" clip-path="url(#p20726d9a8f)" style="fill: none; stroke: #cccccc; stroke-linecap: round"/>
     </g>
     <g id="text_20">
      <!-- 07-11 -->
      <g style="fill: #262626" transform="translate(560.667045 543.53675) rotate(-90) scale(0.132 -0.132)">
       <use xlink:href="#SimHei-30"/>
       <use xlink:href="#SimHei-37" x="50"/>
       <use xlink:href="#SimHei-2d" x="100"/>
       <use xlink:href="#SimHei-31" x="150"/>
       <use xlink:href="#SimHei-31" x="200"/>
      </g>
     </g>
    </g>
    <g id="xtick_21">
     <g id="line2d_21">
      <path d="M 580.119091 501.03675 
L 580.119091 15.552 
" clip-path="url(#p20726d9a8f)" style="fill: none; stroke: #cccccc; stroke-linecap: round"/>
     </g>
     <g id="text_21">
      <!-- 07-21 -->
      <g style="fill: #262626" transform="translate(583.831591 543.53675) rotate(-90) scale(0.132 -0.132)">
       <use xlink:href="#SimHei-30"/>
       <use xlink:href="#SimHei-37" x="50"/>
       <use xlink:href="#SimHei-2d" x="100"/>
       <use xlink:href="#SimHei-32" x="150"/>
       <use xlink:href="#SimHei-31" x="200"/>
      </g>
     </g>
    </g>
    <g id="xtick_22">
     <g id="line2d_22">
      <path d="M 603.283636 501.03675 
L 603.283636 15.552 
" clip-path="url(#p20726d9a8f)" style="fill: none; stroke: #cccccc; stroke-linecap: round"/>
     </g>
     <g id="text_22">
      <!-- 07-31 -->
      <g style="fill: #262626" transform="translate(606.996136 543.53675) rotate(-90) scale(0.132 -0.132)">
       <use xlink:href="#SimHei-30"/>
       <use xlink:href="#SimHei-37" x="50"/>
       <use xlink:href="#SimHei-2d" x="100"/>
       <use xlink:href="#SimHei-33" x="150"/>
       <use xlink:href="#SimHei-31" x="200"/>
      </g>
     </g>
    </g>
    <g id="xtick_23">
     <g id="line2d_23">
      <path d="M 626.448182 501.03675 
L 626.448182 15.552 
" clip-path="url(#p20726d9a8f)" style="fill: none; stroke: #cccccc; stroke-linecap: round"/>
     </g>
     <g id="text_23">
      <!-- 08-10 -->
      <g style="fill: #262626" transform="translate(630.160682 543.53675) rotate(-90) scale(0.132 -0.132)">
       <defs>
        <path id="SimHei-38" d="M 175 1375 
Q 175 1675 325 1962 
Q 475 2250 825 2425 
Q 525 2600 425 2812 
Q 325 3025 312 3300 
Q 300 3575 387 3775 
Q 475 3975 650 4150 
Q 825 4325 1037 4387 
Q 1250 4450 1500 4450 
Q 1750 4450 1950 4400 
Q 2150 4350 2375 4187 
Q 2600 4025 2700 3725 
Q 2800 3425 2687 3025 
Q 2575 2625 2100 2400 
Q 2525 2275 2700 2012 
Q 2875 1750 2875 1375 
Q 2875 1000 2762 775 
Q 2650 550 2512 400 
Q 2375 250 2137 162 
Q 1900 75 1537 75 
Q 1175 75 912 162 
Q 650 250 475 425 
Q 300 600 237 837 
Q 175 1075 175 1375 
z
M 687 1400 
Q 675 1100 787 875 
Q 900 650 1200 587 
Q 1500 525 1825 600 
Q 2150 675 2275 950 
Q 2400 1225 2362 1500 
Q 2325 1775 2050 1962 
Q 1775 2150 1450 2125 
Q 1125 2100 912 1900 
Q 700 1700 687 1400 
z
M 775 3350 
Q 775 3100 950 2875 
Q 1125 2650 1500 2650 
Q 1875 2650 2062 2875 
Q 2250 3100 2237 3412 
Q 2225 3725 2012 3875 
Q 1800 4025 1437 4000 
Q 1075 3975 925 3787 
Q 775 3600 775 3350 
z
" transform="scale(0.015625)"/>
       </defs>
       <use xlink:href="#SimHei-30"/>
       <use xlink:href="#SimHei-38" x="50"/>
       <use xlink:href="#SimHei-2d" x="100"/>
       <use xlink:href="#SimHei-31" x="150"/>
       <use xlink:href="#SimHei-30" x="200"/>
      </g>
     </g>
    </g>
    <g id="xtick_24">
     <g id="line2d_24">
      <path d="M 649.612727 501.03675 
L 649.612727 15.552 
" clip-path="url(#p20726d9a8f)" style="fill: none; stroke: #cccccc; stroke-linecap: round"/>
     </g>
     <g id="text_24">
      <!-- 08-20 -->
      <g style="fill: #262626" transform="translate(653.325227 543.53675) rotate(-90) scale(0.132 -0.132)">
       <use xlink:href="#SimHei-30"/>
       <use xlink:href="#SimHei-38" x="50"/>
       <use xlink:href="#SimHei-2d" x="100"/>
       <use xlink:href="#SimHei-32" x="150"/>
       <use xlink:href="#SimHei-30" x="200"/>
      </g>
     </g>
    </g>
    <g id="xtick_25">
     <g id="line2d_25">
      <path d="M 672.777273 501.03675 
L 672.777273 15.552 
" clip-path="url(#p20726d9a8f)" style="fill: none; stroke: #cccccc; stroke-linecap: round"/>
     </g>
     <g id="text_25">
      <!-- 08-30 -->
      <g style="fill: #262626" transform="translate(676.489773 543.53675) rotate(-90) scale(0.132 -0.132)">
       <use xlink:href="#SimHei-30"/>
       <use xlink:href="#SimHei-38" x="50"/>
       <use xlink:href="#SimHei-2d" x="100"/>
       <use xlink:href="#SimHei-33" x="150"/>
       <use xlink:href="#SimHei-30" x="200"/>
      </g>
     </g>
    </g>
    <g id="xtick_26">
     <g id="line2d_26">
      <path d="M 695.941818 501.03675 
L 695.941818 15.552 
" clip-path="url(#p20726d9a8f)" style="fill: none; stroke: #cccccc; stroke-linecap: round"/>
     </g>
     <g id="text_26">
      <!-- 09-09 -->
      <g style="fill: #262626" transform="translate(699.654318 543.53675) rotate(-90) scale(0.132 -0.132)">
       <defs>
        <path id="SimHei-39" d="M 800 75 
Q 1350 1000 1700 1750 
Q 1075 1650 662 1912 
Q 250 2175 162 2625 
Q 75 3075 175 3437 
Q 275 3800 487 4037 
Q 700 4275 1000 4375 
Q 1300 4475 1537 4475 
Q 1775 4475 2025 4375 
Q 2275 4275 2475 4075 
Q 2675 3875 2750 3662 
Q 2825 3450 2825 3112 
Q 2825 2775 2575 2250 
Q 2325 1725 1350 75 
L 800 75 
z
M 662 2875 
Q 700 2550 937 2337 
Q 1175 2125 1450 2150 
Q 1725 2175 1887 2300 
Q 2050 2425 2200 2725 
Q 2300 3100 2250 3362 
Q 2200 3625 1987 3800 
Q 1775 3975 1525 3975 
Q 1375 4000 1137 3900 
Q 900 3800 762 3500 
Q 625 3200 662 2875 
z
" transform="scale(0.015625)"/>
       </defs>
       <use xlink:href="#SimHei-30"/>
       <use xlink:href="#SimHei-39" x="50"/>
       <use xlink:href="#SimHei-2d" x="100"/>
       <use xlink:href="#SimHei-30" x="150"/>
       <use xlink:href="#SimHei-39" x="200"/>
      </g>
     </g>
    </g>
    <g id="xtick_27">
     <g id="line2d_27">
      <path d="M 719.106364 501.03675 
L 719.106364 15.552 
" clip-path="url(#p20726d9a8f)" style="fill: none; stroke: #cccccc; stroke-linecap: round"/>
     </g>
     <g id="text_27">
      <!-- 09-19 -->
      <g style="fill: #262626" transform="translate(722.818864 543.53675) rotate(-90) scale(0.132 -0.132)">
       <use xlink:href="#SimHei-30"/>
       <use xlink:href="#SimHei-39" x="50"/>
       <use xlink:href="#SimHei-2d" x="100"/>
       <use xlink:href="#SimHei-31" x="150"/>
       <use xlink:href="#SimHei-39" x="200"/>
      </g>
     </g>
    </g>
    <g id="xtick_28">
     <g id="line2d_28">
      <path d="M 742.270909 501.03675 
L 742.270909 15.552 
" clip-path="url(#p20726d9a8f)" style="fill: none; stroke: #cccccc; stroke-linecap: round"/>
     </g>
     <g id="text_28">
      <!-- 09-29 -->
      <g style="fill: #262626" transform="translate(745.983409 543.53675) rotate(-90) scale(0.132 -0.132)">
       <use xlink:href="#SimHei-30"/>
       <use xlink:href="#SimHei-39" x="50"/>
       <use xlink:href="#SimHei-2d" x="100"/>
       <use xlink:href="#SimHei-32" x="150"/>
       <use xlink:href="#SimHei-39" x="200"/>
      </g>
     </g>
    </g>
    <g id="xtick_29">
     <g id="line2d_29">
      <path d="M 765.435455 501.03675 
L 765.435455 15.552 
" clip-path="url(#p20726d9a8f)" style="fill: none; stroke: #cccccc; stroke-linecap: round"/>
     </g>
     <g id="text_29">
      <!-- 10-09 -->
      <g style="fill: #262626" transform="translate(769.147955 543.53675) rotate(-90) scale(0.132 -0.132)">
       <use xlink:href="#SimHei-31"/>
       <use xlink:href="#SimHei-30" x="50"/>
       <use xlink:href="#SimHei-2d" x="100"/>
       <use xlink:href="#SimHei-30" x="150"/>
       <use xlink:href="#SimHei-39" x="200"/>
      </g>
     </g>
    </g>
    <g id="xtick_30">
     <g id="line2d_30">
      <path d="M 788.6 501.03675 
L 788.6 15.552 
" clip-path="url(#p20726d9a8f)" style="fill: none; stroke: #cccccc; stroke-linecap: round"/>
     </g>
     <g id="text_30">
      <!-- 10-20 -->
      <g style="fill: #262626" transform="translate(792.3125 543.53675) rotate(-90) scale(0.132 -0.132)">
       <use xlink:href="#SimHei-31"/>
       <use xlink:href="#SimHei-30" x="50"/>
       <use xlink:href="#SimHei-2d" x="100"/>
       <use xlink:href="#SimHei-32" x="150"/>
       <use xlink:href="#SimHei-30" x="200"/>
      </g>
     </g>
    </g>
    <g id="xtick_31">
     <g id="line2d_31">
      <path d="M 811.764545 501.03675 
L 811.764545 15.552 
" clip-path="url(#p20726d9a8f)" style="fill: none; stroke: #cccccc; stroke-linecap: round"/>
     </g>
     <g id="text_31">
      <!-- 10-30 -->
      <g style="fill: #262626" transform="translate(815.477045 543.53675) rotate(-90) scale(0.132 -0.132)">
       <use xlink:href="#SimHei-31"/>
       <use xlink:href="#SimHei-30" x="50"/>
       <use xlink:href="#SimHei-2d" x="100"/>
       <use xlink:href="#SimHei-33" x="150"/>
       <use xlink:href="#SimHei-30" x="200"/>
      </g>
     </g>
    </g>
    <g id="xtick_32">
     <g id="line2d_32">
      <path d="M 834.929091 501.03675 
L 834.929091 15.552 
" clip-path="url(#p20726d9a8f)" style="fill: none; stroke: #cccccc; stroke-linecap: round"/>
     </g>
     <g id="text_32">
      <!-- 11-10 -->
      <g style="fill: #262626" transform="translate(838.641591 543.53675) rotate(-90) scale(0.132 -0.132)">
       <use xlink:href="#SimHei-31"/>
       <use xlink:href="#SimHei-31" x="50"/>
       <use xlink:href="#SimHei-2d" x="100"/>
       <use xlink:href="#SimHei-31" x="150"/>
       <use xlink:href="#SimHei-30" x="200"/>
      </g>
     </g>
    </g>
    <g id="xtick_33">
     <g id="line2d_33">
      <path d="M 858.093636 501.03675 
L 858.093636 15.552 
" clip-path="url(#p20726d9a8f)" style="fill: none; stroke: #cccccc; stroke-linecap: round"/>
     </g>
     <g id="text_33">
      <!-- 11-21 -->
      <g style="fill: #262626" transform="translate(861.806136 543.53675) rotate(-90) scale(0.132 -0.132)">
       <use xlink:href="#SimHei-31"/>
       <use xlink:href="#SimHei-31" x="50"/>
       <use xlink:href="#SimHei-2d" x="100"/>
       <use xlink:href="#SimHei-32" x="150"/>
       <use xlink:href="#SimHei-31" x="200"/>
      </g>
     </g>
    </g>
    <g id="xtick_34">
     <g id="line2d_34">
      <path d="M 881.258182 501.03675 
L 881.258182 15.552 
" clip-path="url(#p20726d9a8f)" style="fill: none; stroke: #cccccc; stroke-linecap: round"/>
     </g>
     <g id="text_34">
      <!-- 12-01 -->
      <g style="fill: #262626" transform="translate(884.970682 543.53675) rotate(-90) scale(0.132 -0.132)">
       <use xlink:href="#SimHei-31"/>
       <use xlink:href="#SimHei-32" x="50"/>
       <use xlink:href="#SimHei-2d" x="100"/>
       <use xlink:href="#SimHei-30" x="150"/>
       <use xlink:href="#SimHei-31" x="200"/>
      </g>
     </g>
    </g>
    <g id="xtick_35">
     <g id="line2d_35">
      <path d="M 904.422727 501.03675 
L 904.422727 15.552 
" clip-path="url(#p20726d9a8f)" style="fill: none; stroke: #cccccc; stroke-linecap: round"/>
     </g>
     <g id="text_35">
      <!-- 12-11 -->
      <g style="fill: #262626" transform="translate(908.135227 543.53675) rotate(-90) scale(0.132 -0.132)">
       <use xlink:href="#SimHei-31"/>
       <use xlink:href="#SimHei-32" x="50"/>
       <use xlink:href="#SimHei-2d" x="100"/>
       <use xlink:href="#SimHei-31" x="150"/>
       <use xlink:href="#SimHei-31" x="200"/>
      </g>
     </g>
    </g>
    <g id="xtick_36">
     <g id="line2d_36">
      <path d="M 927.587273 501.03675 
L 927.587273 15.552 
" clip-path="url(#p20726d9a8f)" style="fill: none; stroke: #cccccc; stroke-linecap: round"/>
     </g>
     <g id="text_36">
      <!-- 12-21 -->
      <g style="fill: #262626" transform="translate(931.299773 543.53675) rotate(-90) scale(0.132 -0.132)">
       <use xlink:href="#SimHei-31"/>
       <use xlink:href="#SimHei-32" x="50"/>
       <use xlink:href="#SimHei-2d" x="100"/>
       <use xlink:href="#SimHei-32" x="150"/>
       <use xlink:href="#SimHei-31" x="200"/>
      </g>
     </g>
    </g>
    <g id="xtick_37">
     <g id="line2d_37">
      <path d="M 950.751818 501.03675 
L 950.751818 15.552 
" clip-path="url(#p20726d9a8f)" style="fill: none; stroke: #cccccc; stroke-linecap: round"/>
     </g>
     <g id="text_37">
      <!-- 12-31 -->
      <g style="fill: #262626" transform="translate(954.464318 543.53675) rotate(-90) scale(0.132 -0.132)">
       <use xlink:href="#SimHei-31"/>
       <use xlink:href="#SimHei-32" x="50"/>
       <use xlink:href="#SimHei-2d" x="100"/>
       <use xlink:href="#SimHei-33" x="150"/>
       <use xlink:href="#SimHei-31" x="200"/>
      </g>
     </g>
    </g>
    <g id="text_38">
     <!-- 月日 -->
     <g style="fill: #262626" transform="translate(519.39 558.2805) scale(0.144 -0.144)">
      <defs>
       <path id="SimHei-6708" d="M 5250 4825 
Q 5200 4225 5200 3750 
L 5200 200 
Q 5200 -275 4950 -375 
Q 4700 -475 3975 -525 
Q 3925 -225 3750 50 
Q 4300 25 4512 50 
Q 4725 75 4725 400 
L 4725 1600 
L 1850 1600 
Q 1725 775 1450 225 
Q 1175 -325 900 -575 
Q 700 -400 400 -325 
Q 800 25 1037 512 
Q 1275 1000 1337 1475 
Q 1400 1950 1400 2525 
L 1400 3625 
Q 1400 4175 1375 4825 
L 5250 4825 
z
M 4725 3400 
L 4725 4450 
L 1875 4450 
L 1875 3400 
L 4725 3400 
z
M 4725 2000 
L 4725 3025 
L 1875 3025 
L 1875 2000 
L 4725 2000 
z
" transform="scale(0.015625)"/>
       <path id="SimHei-65e5" d="M 5375 5000 
Q 5350 3775 5350 2275 
Q 5350 775 5375 -450 
L 4800 -450 
L 4800 175 
L 1800 175 
L 1800 -575 
L 1250 -575 
Q 1275 575 1275 2125 
Q 1275 3675 1250 5000 
L 5375 5000 
z
M 4800 600 
L 4800 2375 
L 1800 2375 
L 1800 600 
L 4800 600 
z
M 4800 2800 
L 4800 4550 
L 1800 4550 
L 1800 2800 
L 4800 2800 
z
" transform="scale(0.015625)"/>
      </defs>
      <use xlink:href="#SimHei-6708"/>
      <use xlink:href="#SimHei-65e5" x="100"/>
     </g>
    </g>
   </g>
   <g id="matplotlib.axis_2">
    <g id="ytick_1">
     <g id="line2d_38">
      <path d="M 75.132 479.003001 
L 992.448 479.003001 
" clip-path="url(#p20726d9a8f)" style="fill: none; stroke: #cccccc; stroke-linecap: round"/>
     </g>
     <g id="text_39">
      <!-- 0 -->
      <g style="fill: #262626" transform="translate(59.032 483.540501) scale(0.132 -0.132)">
       <use xlink:href="#SimHei-30"/>
      </g>
     </g>
    </g>
    <g id="ytick_2">
     <g id="line2d_39">
      <path d="M 75.132 411.523485 
L 992.448 411.523485 
" clip-path="url(#p20726d9a8f)" style="fill: none; stroke: #cccccc; stroke-linecap: round"/>
     </g>
     <g id="text_40">
      <!-- 2000 -->
      <g style="fill: #262626" transform="translate(39.232 416.060985) scale(0.132 -0.132)">
       <use xlink:href="#SimHei-32"/>
       <use xlink:href="#SimHei-30" x="50"/>
       <use xlink:href="#SimHei-30" x="100"/>
       <use xlink:href="#SimHei-30" x="150"/>
      </g>
     </g>
    </g>
    <g id="ytick_3">
     <g id="line2d_40">
      <path d="M 75.132 344.04397 
L 992.448 344.04397 
" clip-path="url(#p20726d9a8f)" style="fill: none; stroke: #cccccc; stroke-linecap: round"/>
     </g>
     <g id="text_41">
      <!-- 4000 -->
      <g style="fill: #262626" transform="translate(39.232 348.58147) scale(0.132 -0.132)">
       <use xlink:href="#SimHei-34"/>
       <use xlink:href="#SimHei-30" x="50"/>
       <use xlink:href="#SimHei-30" x="100"/>
       <use xlink:href="#SimHei-30" x="150"/>
      </g>
     </g>
    </g>
    <g id="ytick_4">
     <g id="line2d_41">
      <path d="M 75.132 276.564454 
L 992.448 276.564454 
" clip-path="url(#p20726d9a8f)" style="fill: none; stroke: #cccccc; stroke-linecap: round"/>
     </g>
     <g id="text_42">
      <!-- 6000 -->
      <g style="fill: #262626" transform="translate(39.232 281.101954) scale(0.132 -0.132)">
       <use xlink:href="#SimHei-36"/>
       <use xlink:href="#SimHei-30" x="50"/>
       <use xlink:href="#SimHei-30" x="100"/>
       <use xlink:href="#SimHei-30" x="150"/>
      </g>
     </g>
    </g>
    <g id="ytick_5">
     <g id="line2d_42">
      <path d="M 75.132 209.084938 
L 992.448 209.084938 
" clip-path="url(#p20726d9a8f)" style="fill: none; stroke: #cccccc; stroke-linecap: round"/>
     </g>
     <g id="text_43">
      <!-- 8000 -->
      <g style="fill: #262626" transform="translate(39.232 213.622438) scale(0.132 -0.132)">
       <use xlink:href="#SimHei-38"/>
       <use xlink:href="#SimHei-30" x="50"/>
       <use xlink:href="#SimHei-30" x="100"/>
       <use xlink:href="#SimHei-30" x="150"/>
      </g>
     </g>
    </g>
    <g id="ytick_6">
     <g id="line2d_43">
      <path d="M 75.132 141.605422 
L 992.448 141.605422 
" clip-path="url(#p20726d9a8f)" style="fill: none; stroke: #cccccc; stroke-linecap: round"/>
     </g>
     <g id="text_44">
      <!-- 10000 -->
      <g style="fill: #262626" transform="translate(32.632 146.142922) scale(0.132 -0.132)">
       <use xlink:href="#SimHei-31"/>
       <use xlink:href="#SimHei-30" x="50"/>
       <use xlink:href="#SimHei-30" x="100"/>
       <use xlink:href="#SimHei-30" x="150"/>
       <use xlink:href="#SimHei-30" x="200"/>
      </g>
     </g>
    </g>
    <g id="ytick_7">
     <g id="line2d_44">
      <path d="M 75.132 74.125907 
L 992.448 74.125907 
" clip-path="url(#p20726d9a8f)" style="fill: none; stroke: #cccccc; stroke-linecap: round"/>
     </g>
     <g id="text_45">
      <!-- 12000 -->
      <g style="fill: #262626" transform="translate(32.632 78.663407) scale(0.132 -0.132)">
       <use xlink:href="#SimHei-31"/>
       <use xlink:href="#SimHei-32" x="50"/>
       <use xlink:href="#SimHei-30" x="100"/>
       <use xlink:href="#SimHei-30" x="150"/>
       <use xlink:href="#SimHei-30" x="200"/>
      </g>
     </g>
    </g>
    <g id="text_46">
     <!-- 货量 -->
     <g style="fill: #262626" transform="translate(26.832 272.694375) rotate(-90) scale(0.144 -0.144)">
      <defs>
       <path id="SimHei-8d27" d="M 3975 5075 
Q 3950 4750 3950 4100 
Q 4075 4175 4525 4375 
Q 4975 4575 5375 4900 
Q 5550 4625 5700 4400 
Q 5425 4325 4987 4112 
Q 4550 3900 3950 3650 
L 3950 3225 
Q 3950 3025 4300 3025 
L 5125 3025 
Q 5425 3025 5487 3150 
Q 5550 3275 5575 3625 
Q 5850 3450 6125 3375 
Q 5975 2875 5825 2750 
Q 5675 2625 5475 2625 
L 4000 2625 
Q 3425 2625 3425 3125 
L 3425 3525 
Q 2900 3325 2575 3225 
Q 2425 3500 2350 3650 
Q 2750 3750 3425 3925 
Q 3425 4750 3400 5075 
L 3975 5075 
z
M 5200 2200 
Q 5175 1825 5175 1425 
Q 5175 1050 5200 600 
L 4625 600 
L 4625 1775 
L 1950 1775 
L 1950 625 
L 1400 625 
Q 1425 1025 1425 1400 
Q 1425 1800 1400 2200 
L 5200 2200 
z
M 2625 4850 
Q 2425 4700 2050 4300 
Q 2050 2900 2075 2450 
L 1500 2450 
Q 1525 2900 1525 3825 
Q 1300 3625 1100 3425 
Q 900 3225 700 3050 
Q 475 3250 325 3400 
Q 850 3725 1325 4237 
Q 1800 4750 2050 5175 
Q 2325 4925 2625 4850 
z
M 3550 1325 
Q 3425 975 3312 687 
Q 3200 400 2925 137 
Q 2650 -125 2150 -325 
Q 1650 -525 800 -675 
Q 725 -400 475 -100 
Q 1200 -75 1675 25 
Q 2150 125 2412 325 
Q 2675 525 2787 775 
Q 2900 1025 2975 1400 
Q 3250 1350 3550 1325 
z
M 5575 -675 
Q 5125 -400 4650 -187 
Q 4175 25 3575 250 
Q 3725 500 3825 725 
Q 4350 500 4800 300 
Q 5250 100 5875 -175 
Q 5700 -400 5575 -675 
z
" transform="scale(0.015625)"/>
       <path id="SimHei-91cf" d="M 5250 2500 
Q 5225 2200 5225 1700 
Q 5225 1225 5250 950 
L 3425 950 
L 3425 625 
L 4575 625 
Q 5000 625 5375 650 
L 5375 275 
Q 5025 300 4575 300 
L 3425 300 
L 3425 -75 
L 5125 -75 
Q 5525 -75 5925 -50 
L 5925 -425 
Q 5525 -400 5125 -400 
L 1275 -400 
Q 900 -400 475 -425 
L 475 -50 
Q 925 -50 1275 -75 
L 2975 -75 
L 2975 300 
L 1725 300 
Q 1350 300 975 250 
L 975 650 
Q 1375 625 1725 625 
L 2975 625 
L 2975 950 
L 1150 950 
Q 1175 1375 1175 1775 
Q 1175 2175 1150 2500 
L 5250 2500 
z
M 5200 4950 
Q 5175 4575 5175 4250 
Q 5175 3925 5200 3400 
L 1200 3400 
Q 1225 3925 1225 4250 
Q 1225 4575 1200 4950 
L 5200 4950 
z
M 4900 3100 
Q 5500 3125 6000 3150 
L 6000 2750 
Q 5500 2775 4925 2775 
L 1650 2775 
Q 975 2775 325 2750 
L 325 3150 
Q 975 3125 1650 3100 
L 4900 3100 
z
M 4725 3700 
L 4725 4025 
L 1675 4025 
L 1675 3700 
L 4725 3700 
z
M 4725 4350 
L 4725 4650 
L 1675 4650 
L 1675 4350 
L 4725 4350 
z
M 4750 1875 
L 4750 2175 
L 3425 2175 
L 3425 1875 
L 4750 1875 
z
M 2975 1875 
L 2975 2175 
L 1650 2175 
L 1650 1875 
L 2975 1875 
z
M 2975 1275 
L 2975 1550 
L 1650 1550 
L 1650 1275 
L 2975 1275 
z
M 4750 1275 
L 4750 1550 
L 3425 1550 
L 3425 1275 
L 4750 1275 
z
" transform="scale(0.015625)"/>
      </defs>
      <use xlink:href="#SimHei-8d27"/>
      <use xlink:href="#SimHei-91cf" x="100"/>
     </g>
    </g>
   </g>
   <g id="PolyCollection_1"/>
   <g id="PolyCollection_2"/>
   <g id="line2d_45">
    <path d="M 116.828182 478.226987 
L 119.144636 478.935522 
L 123.777545 478.969261 
L 126.094 478.530645 
L 128.410455 475.224148 
L 130.726909 478.868042 
L 133.043364 478.429425 
L 135.359818 478.733083 
L 137.676273 478.834302 
L 144.625636 478.935522 
L 146.942091 473.739599 
L 149.258545 478.665604 
L 151.575 478.733083 
L 153.891455 478.193247 
L 156.207909 478.800563 
L 158.524364 478.631864 
L 160.840818 477.78837 
L 163.157273 475.966423 
L 165.473727 476.101382 
L 167.790182 477.855849 
L 170.106636 476.43878 
L 172.423091 477.585931 
L 174.739545 476.877396 
L 177.056 466.957908 
L 184.005364 478.969261 
L 186.321818 478.800563 
L 188.638273 477.248534 
L 190.954727 477.619671 
L 193.271182 477.417233 
L 195.587636 473.975777 
L 202.537 478.429425 
L 204.853455 477.383493 
L 207.169909 478.800563 
L 211.802818 478.733083 
L 214.119273 478.868042 
L 223.385091 478.969261 
L 228.018 478.834302 
L 230.334455 478.260726 
L 234.967364 478.834302 
L 237.283818 478.901782 
L 239.600273 478.631864 
L 241.916727 478.935522 
L 248.866091 478.733083 
L 253.499 478.733083 
L 255.815455 478.328206 
L 258.131909 478.901782 
L 260.448364 478.699343 
L 265.081273 478.935522 
L 267.397727 478.901782 
L 272.030636 478.598124 
L 274.347091 478.868042 
L 276.663545 478.800563 
L 278.98 478.935522 
L 285.929364 478.935522 
L 288.245818 478.766823 
L 290.562273 478.901782 
L 295.195182 478.969261 
L 297.511636 478.564384 
L 302.144545 478.935522 
L 309.093909 478.901782 
L 311.410364 474.009517 
L 313.726818 478.665604 
L 316.043273 478.868042 
L 322.992636 478.800563 
L 325.309091 478.226987 
L 329.942 478.935522 
L 339.207818 478.766823 
L 343.840727 478.935522 
L 346.157182 478.733083 
L 348.473636 478.969261 
L 350.790091 478.631864 
L 353.106545 477.72089 
L 355.423 472.693666 
L 357.739455 478.193247 
L 360.055909 478.834302 
L 364.688818 478.901782 
L 367.005273 476.202601 
L 369.321727 478.901782 
L 371.638182 477.78837 
L 373.954636 477.349753 
L 378.587545 478.699343 
L 380.904 478.598124 
L 383.220455 476.978616 
L 385.536909 478.969261 
L 390.169818 478.766823 
L 397.119182 478.868042 
L 404.068545 478.901782 
L 406.385 478.024548 
L 408.701455 478.969261 
L 413.334364 478.496905 
L 415.650818 478.665604 
L 417.967273 478.530645 
L 420.283727 478.834302 
L 422.600182 478.969261 
L 429.549545 478.665604 
L 431.866 478.834302 
L 434.182455 478.665604 
L 436.498909 477.214794 
L 438.815364 478.800563 
L 441.131818 478.901782 
L 443.448273 478.868042 
L 448.081182 478.564384 
L 452.714091 478.935522 
L 457.347 478.631864 
L 459.663455 478.901782 
L 461.979909 478.935522 
L 466.612818 478.733083 
L 468.929273 475.494066 
L 471.245727 478.800563 
L 473.562182 478.935522 
L 475.878636 467.666442 
L 480.511545 478.699343 
L 485.144455 478.935522 
L 487.460909 468.509936 
L 489.777364 472.457488 
L 492.093818 473.53716 
L 494.410273 366.953265 
L 496.726727 471.883912 
L 499.043182 473.503421 
L 501.359636 467.261565 
L 503.676091 474.886751 
L 508.309 478.766823 
L 510.625455 419.28363 
L 512.941909 474.481874 
L 515.258364 478.699343 
L 517.574818 478.935522 
L 519.891273 476.911136 
L 522.207727 478.496905 
L 524.524182 478.834302 
L 526.840636 478.834302 
L 529.157091 478.463165 
L 531.473545 478.530645 
L 533.79 478.058288 
L 536.106455 478.125767 
L 538.422909 478.868042 
L 540.739364 478.733083 
L 545.372273 478.969261 
L 547.688727 478.834302 
L 552.321636 478.935522 
L 554.638091 478.699343 
L 556.954545 478.868042 
L 559.271 478.598124 
L 563.903909 478.901782 
L 568.536818 478.901782 
L 570.853273 478.361946 
L 573.169727 478.868042 
L 575.486182 478.901782 
L 580.119091 478.159507 
L 582.435545 478.564384 
L 584.752 478.834302 
L 587.068455 478.935522 
L 589.384909 477.855849 
L 591.701364 478.969261 
L 598.650727 478.834302 
L 603.283636 478.463165 
L 605.600091 478.868042 
L 607.916545 477.147314 
L 612.549455 472.558707 
L 614.865909 478.969261 
L 617.182364 478.834302 
L 619.498818 478.530645 
L 624.131727 478.834302 
L 626.448182 478.328206 
L 631.081091 478.598124 
L 633.397545 477.450972 
L 635.714 478.665604 
L 640.346909 478.935522 
L 642.663364 478.901782 
L 644.979818 476.067642 
L 647.296273 477.316013 
L 649.612727 478.024548 
L 651.929182 478.969261 
L 654.245636 477.248534 
L 656.562091 478.733083 
L 658.878545 477.78837 
L 661.195 478.969261 
L 672.777273 478.766823 
L 675.093727 478.969261 
L 682.043091 478.125767 
L 686.676 478.969261 
L 691.308909 478.159507 
L 695.941818 477.889589 
L 698.258273 478.868042 
L 705.207636 474.785531 
L 707.524091 478.834302 
L 714.473455 478.530645 
L 716.789909 478.766823 
L 723.739273 478.969261 
L 728.372182 478.766823 
L 735.321545 478.901782 
L 737.638 478.260726 
L 739.954455 478.766823 
L 742.270909 478.935522 
L 744.587364 478.868042 
L 746.903818 478.530645 
L 749.220273 478.901782 
L 763.119 478.901782 
L 765.435455 477.079835 
L 767.751909 478.901782 
L 770.068364 478.733083 
L 774.701273 475.089189 
L 777.017727 478.969261 
L 779.334182 478.834302 
L 781.650636 478.969261 
L 783.967091 477.923329 
L 786.283545 477.450972 
L 788.6 473.975777 
L 790.916455 477.78837 
L 793.232909 478.733083 
L 795.549364 478.665604 
L 797.865818 478.935522 
L 800.182273 477.552192 
L 804.815182 477.687151 
L 807.131636 477.990808 
L 811.764545 477.923329 
L 814.081 478.699343 
L 816.397455 443.576255 
L 818.713909 456.296144 
L 821.030364 478.834302 
L 823.346818 473.132283 
L 827.979727 478.665604 
L 830.296182 477.687151 
L 832.612636 475.865204 
L 834.929091 478.159507 
L 837.245545 478.260726 
L 839.562 478.901782 
L 841.878455 474.009517 
L 844.194909 461.05345 
L 846.511364 478.361946 
L 848.827818 478.058288 
L 851.144273 477.349753 
L 853.460727 478.935522 
L 858.093636 478.665604 
L 860.410091 474.819271 
L 862.726545 478.125767 
L 865.043 478.901782 
L 867.359455 478.159507 
L 869.675909 458.860366 
L 871.992364 467.835141 
L 874.308818 478.834302 
L 876.625273 478.395685 
L 878.941727 476.877396 
L 881.258182 478.226987 
L 883.574636 475.932683 
L 885.891091 478.834302 
L 888.207545 478.800563 
L 890.524 478.631864 
L 892.840455 478.665604 
L 895.156909 463.583932 
L 897.473364 478.092028 
L 899.789818 474.178216 
L 902.106273 472.18757 
L 904.422727 478.901782 
L 906.739182 478.699343 
L 909.055636 472.963584 
L 911.372091 478.800563 
L 913.688545 478.294466 
L 916.005 476.978616 
L 918.321455 478.058288 
L 920.637909 477.923329 
L 922.954364 476.742437 
L 925.270818 478.901782 
L 927.587273 478.733083 
L 932.220182 478.901782 
L 934.536636 474.549353 
L 936.853091 477.417233 
L 939.169545 478.834302 
L 941.486 477.653411 
L 943.802455 478.598124 
L 946.118909 477.450972 
L 948.435364 477.687151 
L 950.751818 475.392847 
L 950.751818 475.392847 
" clip-path="url(#p20726d9a8f)" style="fill: none; stroke: #4c72b0; stroke-width: 1.5; stroke-linecap: round"/>
   </g>
   <g id="line2d_46">
    <path d="M 116.828182 474.785531 
L 119.144636 478.800563 
L 121.461091 478.058288 
L 123.777545 478.496905 
L 126.094 478.395685 
L 128.410455 478.969261 
L 130.726909 477.78837 
L 133.043364 478.901782 
L 135.359818 478.665604 
L 137.676273 475.257888 
L 139.992727 474.751792 
L 142.309182 475.629025 
L 144.625636 476.3713 
L 146.942091 478.699343 
L 149.258545 478.631864 
L 151.575 478.800563 
L 153.891455 474.211956 
L 156.207909 475.325368 
L 158.524364 477.484712 
L 160.840818 478.226987 
L 163.157273 478.834302 
L 165.473727 478.834302 
L 170.106636 474.380654 
L 172.423091 475.426587 
L 174.739545 474.785531 
L 177.056 474.95423 
L 179.372455 476.641218 
L 181.688909 478.125767 
L 184.005364 478.733083 
L 188.638273 477.990808 
L 193.271182 477.585931 
L 195.587636 478.766823 
L 204.853455 478.969261 
L 211.802818 478.058288 
L 214.119273 478.868042 
L 216.435727 478.834302 
L 218.752182 478.226987 
L 221.068636 478.868042 
L 223.385091 477.046095 
L 225.701545 478.598124 
L 228.018 478.226987 
L 230.334455 478.800563 
L 232.650909 478.766823 
L 234.967364 478.530645 
L 237.283818 478.800563 
L 239.600273 478.294466 
L 241.916727 478.496905 
L 244.233182 478.092028 
L 246.549636 478.193247 
L 248.866091 478.868042 
L 251.182545 478.125767 
L 253.499 478.260726 
L 255.815455 477.923329 
L 258.131909 478.361946 
L 260.448364 475.359107 
L 262.764818 478.733083 
L 265.081273 476.43878 
L 267.397727 478.463165 
L 269.714182 477.079835 
L 272.030636 478.901782 
L 274.347091 477.282273 
L 276.663545 476.843657 
L 278.98 478.834302 
L 281.296455 477.181054 
L 283.612909 478.328206 
L 285.929364 470.534322 
L 288.245818 478.058288 
L 290.562273 477.653411 
L 292.878727 478.429425 
L 295.195182 478.766823 
L 297.511636 478.699343 
L 299.828091 478.159507 
L 302.144545 478.395685 
L 304.461 476.506259 
L 306.777455 477.78837 
L 309.093909 478.733083 
L 311.410364 478.665604 
L 313.726818 477.855849 
L 316.043273 478.598124 
L 318.359727 477.687151 
L 320.676182 478.766823 
L 322.992636 478.598124 
L 325.309091 477.349753 
L 327.625545 478.901782 
L 329.942 465.304659 
L 332.258455 477.181054 
L 334.574909 478.935522 
L 336.891364 478.631864 
L 343.840727 478.901782 
L 346.157182 477.316013 
L 348.473636 478.665604 
L 350.790091 478.665604 
L 353.106545 478.058288 
L 355.423 478.328206 
L 357.739455 478.226987 
L 360.055909 478.868042 
L 362.372364 471.816433 
L 364.688818 475.494066 
L 367.005273 476.3713 
L 369.321727 464.866043 
L 371.638182 473.874558 
L 373.954636 470.466842 
L 376.271091 475.055449 
L 378.587545 467.767662 
L 383.220455 478.361946 
L 385.536909 477.855849 
L 387.853364 469.623348 
L 390.169818 463.010356 
L 392.486273 477.990808 
L 394.802727 478.328206 
L 397.119182 476.742437 
L 399.435636 461.728245 
L 401.752091 475.224148 
L 404.068545 467.936361 
L 406.385 443.306337 
L 408.701455 466.856688 
L 411.017909 470.534322 
L 413.334364 471.715213 
L 415.650818 470.028226 
L 417.967273 451.943715 
L 420.283727 473.132283 
L 422.600182 450.931523 
L 424.916636 476.30382 
L 427.233091 476.43878 
L 429.549545 472.929845 
L 431.866 470.635541 
L 434.182455 476.168861 
L 436.498909 476.506259 
L 438.815364 475.460327 
L 441.131818 478.901782 
L 443.448273 478.260726 
L 445.764727 477.383493 
L 448.081182 477.889589 
L 450.397636 476.472519 
L 452.714091 475.224148 
L 455.030545 471.479035 
L 457.347 478.092028 
L 459.663455 478.733083 
L 461.979909 468.678635 
L 464.296364 474.414394 
L 466.612818 476.843657 
L 468.929273 470.871719 
L 471.245727 463.381493 
L 473.562182 477.552192 
L 475.878636 477.957069 
L 480.511545 477.923329 
L 482.828 473.672119 
L 485.144455 465.507098 
L 487.460909 474.549353 
L 489.777364 476.30382 
L 492.093818 471.681474 
L 494.410273 476.944876 
L 496.726727 475.966423 
L 499.043182 478.294466 
L 501.359636 475.898943 
L 503.676091 475.865204 
L 505.992545 478.463165 
L 508.309 359.058162 
L 510.625455 418.440136 
L 512.941909 472.997324 
L 515.258364 476.843657 
L 517.574818 478.699343 
L 519.891273 478.969261 
L 522.207727 478.901782 
L 524.524182 478.024548 
L 529.157091 478.496905 
L 531.473545 475.122929 
L 533.79 470.635541 
L 536.106455 476.776177 
L 538.422909 472.18757 
L 540.739364 473.233503 
L 543.055818 467.329045 
L 545.372273 475.865204 
L 547.688727 476.270081 
L 550.005182 473.975777 
L 552.321636 473.53716 
L 554.638091 477.75463 
L 556.954545 474.616833 
L 559.271 476.270081 
L 561.587455 476.742437 
L 563.903909 468.847334 
L 566.220364 468.00384 
L 568.536818 462.40304 
L 570.853273 472.423748 
L 573.169727 423.028743 
L 575.486182 448.333561 
L 577.802636 463.685151 
L 580.119091 471.546515 
L 582.435545 471.985131 
L 584.752 473.672119 
L 587.068455 475.055449 
L 589.384909 473.874558 
L 591.701364 467.396524 
L 594.017818 455.52013 
L 596.334273 476.539999 
L 598.650727 471.209117 
L 600.967182 477.417233 
L 603.283636 476.3713 
L 605.600091 472.828625 
L 607.916545 475.224148 
L 610.233 468.206279 
L 612.549455 470.703021 
L 614.865909 476.270081 
L 617.182364 478.699343 
L 619.498818 475.392847 
L 621.815273 473.199763 
L 624.131727 463.955069 
L 626.448182 454.06932 
L 628.764636 466.114414 
L 631.081091 465.743276 
L 633.397545 471.850172 
L 635.714 474.98797 
L 638.030455 474.684312 
L 640.346909 465.844496 
L 642.663364 471.580254 
L 644.979818 477.855849 
L 647.296273 474.211956 
L 649.612727 476.270081 
L 651.929182 471.883912 
L 654.245636 472.390009 
L 656.562091 473.5709 
L 658.878545 475.02171 
L 661.195 471.242857 
L 663.511455 472.423748 
L 665.827909 470.905459 
L 668.144364 477.552192 
L 670.460818 465.034741 
L 672.777273 471.715213 
L 675.093727 473.60464 
L 677.410182 471.546515 
L 679.726636 472.15383 
L 682.043091 478.429425 
L 684.359545 478.328206 
L 686.676 471.074158 
L 688.992455 474.346915 
L 691.308909 37.619489 
L 693.625364 461.593286 
L 695.941818 452.247373 
L 698.258273 476.270081 
L 700.574727 476.101382 
L 702.891182 477.484712 
L 705.207636 476.000163 
L 707.524091 476.135122 
L 709.840545 478.395685 
L 712.157 478.159507 
L 714.473455 478.699343 
L 716.789909 478.598124 
L 719.106364 477.619671 
L 721.422818 478.226987 
L 723.739273 474.853011 
L 726.055727 471.985131 
L 728.372182 478.092028 
L 730.688636 478.800563 
L 733.005091 478.429425 
L 735.321545 477.75463 
L 737.638 478.530645 
L 739.954455 478.361946 
L 742.270909 478.496905 
L 744.587364 476.033902 
L 746.903818 478.193247 
L 751.536727 478.665604 
L 756.169636 477.484712 
L 758.486091 478.429425 
L 760.802545 478.564384 
L 763.119 478.193247 
L 765.435455 477.957069 
L 767.751909 478.395685 
L 770.068364 475.392847 
L 772.384818 475.156669 
L 774.701273 475.932683 
L 777.017727 478.800563 
L 779.334182 478.598124 
L 781.650636 477.147314 
L 783.967091 476.30382 
L 786.283545 478.935522 
L 788.6 477.585931 
L 790.916455 478.800563 
L 793.232909 474.98797 
L 795.549364 478.395685 
L 797.865818 473.402201 
L 800.182273 477.75463 
L 802.498727 476.539999 
L 804.815182 477.113575 
L 807.131636 475.359107 
L 809.448091 478.328206 
L 814.081 478.159507 
L 816.397455 470.83798 
L 818.713909 477.552192 
L 821.030364 473.435941 
L 823.346818 427.752309 
L 825.663273 478.429425 
L 827.979727 477.855849 
L 830.296182 478.395685 
L 832.612636 476.135122 
L 834.929091 472.018871 
L 837.245545 477.484712 
L 839.562 474.110736 
L 841.878455 397.825144 
L 844.194909 478.024548 
L 846.511364 426.773856 
L 848.827818 476.911136 
L 851.144273 478.395685 
L 853.460727 474.92049 
L 855.777182 477.248534 
L 858.093636 476.472519 
L 860.410091 478.294466 
L 862.726545 478.699343 
L 865.043 478.058288 
L 867.359455 477.687151 
L 869.675909 478.564384 
L 871.992364 478.226987 
L 874.308818 478.699343 
L 876.625273 478.159507 
L 878.941727 476.472519 
L 881.258182 478.092028 
L 883.574636 478.699343 
L 885.891091 478.058288 
L 888.207545 467.362785 
L 890.524 478.766823 
L 892.840455 473.368462 
L 895.156909 478.226987 
L 897.473364 478.024548 
L 899.789818 477.518452 
L 902.106273 478.463165 
L 904.422727 478.901782 
L 913.688545 478.733083 
L 916.005 471.917652 
L 918.321455 478.631864 
L 920.637909 477.990808 
L 927.587273 478.159507 
L 932.220182 472.018871 
L 934.536636 478.226987 
L 936.853091 478.496905 
L 939.169545 478.463165 
L 941.486 475.257888 
L 943.802455 477.75463 
L 946.118909 474.785531 
L 948.435364 477.012355 
L 950.751818 477.72089 
L 950.751818 477.72089 
" clip-path="url(#p20726d9a8f)" style="fill: none; stroke: #dd8452; stroke-width: 1.5; stroke-linecap: round"/>
   </g>
   <g id="line2d_47"/>
   <g id="line2d_48"/>
   <g id="patch_3">
    <path d="M 75.132 501.03675 
L 75.132 15.552 
" style="fill: none; stroke: #cccccc; stroke-width: 1.25; stroke-linejoin: miter; stroke-linecap: square"/>
   </g>
   <g id="patch_4">
    <path d="M 992.448 501.03675 
L 992.448 15.552 
" style="fill: none; stroke: #cccccc; stroke-width: 1.25; stroke-linejoin: miter; stroke-linecap: square"/>
   </g>
   <g id="patch_5">
    <path d="M 75.132 501.03675 
L 992.448 501.03675 
" style="fill: none; stroke: #cccccc; stroke-width: 1.25; stroke-linejoin: miter; stroke-linecap: square"/>
   </g>
   <g id="patch_6">
    <path d="M 75.132 15.552 
L 992.448 15.552 
" style="fill: none; stroke: #cccccc; stroke-width: 1.25; stroke-linejoin: miter; stroke-linecap: square"/>
   </g>
   <g id="legend_1">
    <g id="patch_7">
     <path d="M 914.568 80.967 
L 983.208 80.967 
Q 985.848 80.967 985.848 78.327 
L 985.848 24.792 
Q 985.848 22.152 983.208 22.152 
L 914.568 22.152 
Q 911.928 22.152 911.928 24.792 
L 911.928 78.327 
Q 911.928 80.967 914.568 80.967 
z
" style="fill: #ffffff; opacity: 0.8; stroke: #cccccc; stroke-linejoin: miter"/>
    </g>
    <g id="text_47">
     <!-- 年份 -->
     <g style="fill: #262626" transform="translate(934.488 38.907) scale(0.144 -0.144)">
      <defs>
       <path id="SimHei-5e74" d="M 350 2925 
Q 900 3450 1375 4200 
Q 1850 4950 1900 5275 
Q 2275 5125 2600 5050 
Q 2375 4825 2100 4325 
L 4625 4325 
Q 5175 4325 5750 4350 
L 5750 3925 
Q 5225 3950 4625 3950 
L 3800 3950 
L 3800 2925 
Q 4750 2925 5475 2950 
L 5475 2525 
Q 4725 2550 3800 2550 
L 3800 1375 
L 5075 1375 
Q 5625 1375 6100 1400 
L 6100 975 
Q 5650 1000 5075 1000 
L 3800 1000 
L 3800 425 
Q 3800 -150 3825 -625 
L 3275 -625 
Q 3300 -150 3300 375 
L 3300 1000 
L 1600 1000 
Q 900 1000 275 975 
L 275 1400 
Q 875 1375 1450 1375 
Q 1450 2350 1425 2925 
L 3300 2925 
L 3300 3950 
L 1875 3950 
Q 1350 3150 925 2650 
Q 650 2875 350 2925 
z
M 3300 1375 
L 3300 2550 
L 1925 2550 
L 1925 1375 
L 3300 1375 
z
" transform="scale(0.015625)"/>
       <path id="SimHei-4efd" d="M 4750 5100 
Q 4875 4375 5250 3650 
Q 5625 2925 6200 2450 
Q 6025 2375 5775 2075 
Q 5600 2275 5350 2575 
Q 5300 2275 5275 1312 
Q 5250 350 5187 25 
Q 5125 -300 4850 -400 
Q 4575 -500 4075 -550 
Q 4000 -250 3875 0 
Q 4400 -25 4575 25 
Q 4750 75 4775 587 
Q 4800 1100 4825 2250 
L 3700 2250 
Q 3675 1300 3425 650 
Q 3175 0 2375 -625 
Q 2175 -350 2000 -225 
Q 2750 225 2987 800 
Q 3225 1375 3225 2250 
Q 3000 2250 2675 2225 
L 2675 2575 
Q 2475 2300 2150 1950 
Q 2000 2150 1750 2300 
Q 2875 3275 3225 4875 
Q 3450 4775 3750 4675 
Q 3625 4400 3425 3887 
Q 3225 3375 2775 2700 
Q 3050 2675 3400 2675 
L 5300 2675 
Q 4575 3625 4275 4975 
Q 4575 5025 4750 5100 
z
M 225 2525 
Q 575 2875 1025 3687 
Q 1475 4500 1650 5225 
Q 1975 5075 2200 4975 
Q 2050 4750 1600 3775 
L 1600 625 
Q 1600 75 1625 -575 
L 1100 -575 
Q 1125 50 1125 625 
L 1125 2925 
Q 775 2400 575 2175 
Q 425 2350 225 2525 
z
" transform="scale(0.015625)"/>
      </defs>
      <use xlink:href="#SimHei-5e74"/>
      <use xlink:href="#SimHei-4efd" x="100"/>
     </g>
    </g>
    <g id="line2d_49">
     <path d="M 917.208 51.927 
L 930.408 51.927 
L 943.608 51.927 
" style="fill: none; stroke: #4c72b0; stroke-width: 1.5; stroke-linecap: round"/>
    </g>
    <g id="text_48">
     <!-- 2021 -->
     <g style="fill: #262626" transform="translate(954.168 56.547) scale(0.132 -0.132)">
      <use xlink:href="#SimHei-32"/>
      <use xlink:href="#SimHei-30" x="50"/>
      <use xlink:href="#SimHei-32" x="100"/>
      <use xlink:href="#SimHei-31" x="150"/>
     </g>
    </g>
    <g id="line2d_50">
     <path d="M 917.208 69.417 
L 930.408 69.417 
L 943.608 69.417 
" style="fill: none; stroke: #dd8452; stroke-width: 1.5; stroke-linecap: round"/>
    </g>
    <g id="text_49">
     <!-- 2022 -->
     <g style="fill: #262626" transform="translate(954.168 74.037) scale(0.132 -0.132)">
      <use xlink:href="#SimHei-32"/>
      <use xlink:href="#SimHei-30" x="50"/>
      <use xlink:href="#SimHei-32" x="100"/>
      <use xlink:href="#SimHei-32" x="150"/>
     </g>
    </g>
   </g>
  </g>
 </g>
 <defs>
  <clipPath id="p20726d9a8f">
   <rect x="75.132" y="15.552" width="917.316" height="485.48475"/>
  </clipPath>
 </defs>
</svg>
