<?xml version="1.0" encoding="utf-8" standalone="no"?>
<!DOCTYPE svg PUBLIC "-//W3C//DTD SVG 1.1//EN"
  "http://www.w3.org/Graphics/SVG/1.1/DTD/svg11.dtd">
<svg xmlns:xlink="http://www.w3.org/1999/xlink" width="1008pt" height="576pt" viewBox="0 0 1008 576" xmlns="http://www.w3.org/2000/svg" version="1.1">
 <metadata>
  <rdf:RDF xmlns:dc="http://purl.org/dc/elements/1.1/" xmlns:cc="http://creativecommons.org/ns#" xmlns:rdf="http://www.w3.org/1999/02/22-rdf-syntax-ns#">
   <cc:Work>
    <dc:type rdf:resource="http://purl.org/dc/dcmitype/StillImage"/>
    <dc:date>2023-04-16T01:20:24.281959</dc:date>
    <dc:format>image/svg+xml</dc:format>
    <dc:creator>
     <cc:Agent>
      <dc:title>Matplotlib v3.7.1, https://matplotlib.org/</dc:title>
     </cc:Agent>
    </dc:creator>
   </cc:Work>
  </rdf:RDF>
 </metadata>
 <defs>
  <style type="text/css">*{stroke-linejoin: round; stroke-linecap: butt}</style>
 </defs>
 <g id="figure_1">
  <g id="patch_1">
   <path d="M 0 576 
L 1008 576 
L 1008 0 
L 0 0 
z
" style="fill: #ffffff"/>
  </g>
  <g id="axes_1">
   <g id="patch_2">
    <path d="M 68.562 501.03675 
L 992.448 501.03675 
L 992.448 15.552 
L 68.562 15.552 
z
" style="fill: #ffffff"/>
   </g>
   <g id="matplotlib.axis_1">
    <g id="xtick_1">
     <g id="line2d_1">
      <path d="M 110.556818 501.03675 
L 110.556818 15.552 
" clip-path="url(#pd2bf6a4316)" style="fill: none; stroke: #cccccc; stroke-linecap: round"/>
     </g>
     <g id="text_1">
      <!-- 01-01 -->
      <g style="fill: #262626" transform="translate(114.269318 543.53675) rotate(-90) scale(0.132 -0.132)">
       <defs>
        <path id="SimHei-30" d="M 225 2537 
Q 250 3200 412 3587 
Q 575 3975 875 4225 
Q 1175 4475 1612 4475 
Q 2050 4475 2375 4112 
Q 2700 3750 2800 3200 
Q 2900 2650 2862 1937 
Q 2825 1225 2612 775 
Q 2400 325 1975 150 
Q 1550 -25 1125 187 
Q 700 400 525 750 
Q 350 1100 275 1487 
Q 200 1875 225 2537 
z
M 750 2687 
Q 675 2000 800 1462 
Q 925 925 1212 700 
Q 1500 475 1800 612 
Q 2100 750 2237 1162 
Q 2375 1575 2375 2062 
Q 2375 2550 2337 2950 
Q 2300 3350 2112 3675 
Q 1925 4000 1612 4012 
Q 1300 4025 1062 3700 
Q 825 3375 750 2687 
z
" transform="scale(0.015625)"/>
        <path id="SimHei-31" d="M 1400 3600 
Q 1075 3275 575 2975 
L 575 3450 
Q 1200 3875 1600 4450 
L 1900 4450 
L 1900 150 
L 1400 150 
L 1400 3600 
z
" transform="scale(0.015625)"/>
        <path id="SimHei-2d" d="M 2975 2125 
L 125 2125 
L 125 2525 
L 2975 2525 
L 2975 2125 
z
" transform="scale(0.015625)"/>
       </defs>
       <use xlink:href="#SimHei-30"/>
       <use xlink:href="#SimHei-31" x="50"/>
       <use xlink:href="#SimHei-2d" x="100"/>
       <use xlink:href="#SimHei-30" x="150"/>
       <use xlink:href="#SimHei-31" x="200"/>
      </g>
     </g>
    </g>
    <g id="xtick_2">
     <g id="line2d_2">
      <path d="M 133.630894 501.03675 
L 133.630894 15.552 
" clip-path="url(#pd2bf6a4316)" style="fill: none; stroke: #cccccc; stroke-linecap: round"/>
     </g>
     <g id="text_2">
      <!-- 01-11 -->
      <g style="fill: #262626" transform="translate(137.343394 543.53675) rotate(-90) scale(0.132 -0.132)">
       <use xlink:href="#SimHei-30"/>
       <use xlink:href="#SimHei-31" x="50"/>
       <use xlink:href="#SimHei-2d" x="100"/>
       <use xlink:href="#SimHei-31" x="150"/>
       <use xlink:href="#SimHei-31" x="200"/>
      </g>
     </g>
    </g>
    <g id="xtick_3">
     <g id="line2d_3">
      <path d="M 156.70497 501.03675 
L 156.70497 15.552 
" clip-path="url(#pd2bf6a4316)" style="fill: none; stroke: #cccccc; stroke-linecap: round"/>
     </g>
     <g id="text_3">
      <!-- 01-21 -->
      <g style="fill: #262626" transform="translate(160.41747 543.53675) rotate(-90) scale(0.132 -0.132)">
       <defs>
        <path id="SimHei-32" d="M 300 250 
Q 325 625 650 925 
Q 975 1225 1475 1862 
Q 1975 2500 2125 2850 
Q 2275 3200 2237 3450 
Q 2200 3700 2000 3862 
Q 1800 4025 1537 4000 
Q 1275 3975 1037 3800 
Q 800 3625 675 3275 
L 200 3350 
Q 400 3925 712 4187 
Q 1025 4450 1450 4475 
Q 1700 4500 1900 4462 
Q 2100 4425 2312 4287 
Q 2525 4150 2662 3875 
Q 2800 3600 2762 3212 
Q 2725 2825 2375 2287 
Q 2025 1750 1025 600 
L 2825 600 
L 2825 150 
L 300 150 
L 300 250 
z
" transform="scale(0.015625)"/>
       </defs>
       <use xlink:href="#SimHei-30"/>
       <use xlink:href="#SimHei-31" x="50"/>
       <use xlink:href="#SimHei-2d" x="100"/>
       <use xlink:href="#SimHei-32" x="150"/>
       <use xlink:href="#SimHei-31" x="200"/>
      </g>
     </g>
    </g>
    <g id="xtick_4">
     <g id="line2d_4">
      <path d="M 179.779046 501.03675 
L 179.779046 15.552 
" clip-path="url(#pd2bf6a4316)" style="fill: none; stroke: #cccccc; stroke-linecap: round"/>
     </g>
     <g id="text_4">
      <!-- 01-31 -->
      <g style="fill: #262626" transform="translate(183.491546 543.53675) rotate(-90) scale(0.132 -0.132)">
       <defs>
        <path id="SimHei-33" d="M 250 1225 
L 700 1300 
Q 800 975 1025 762 
Q 1250 550 1587 562 
Q 1925 575 2125 837 
Q 2325 1100 2300 1437 
Q 2275 1775 2037 1962 
Q 1800 2150 1275 2225 
L 1275 2550 
Q 1800 2600 2037 2825 
Q 2275 3050 2250 3412 
Q 2225 3775 1925 3937 
Q 1625 4100 1287 3975 
Q 950 3850 750 3275 
L 300 3350 
Q 450 3800 712 4100 
Q 975 4400 1425 4450 
Q 1875 4500 2212 4337 
Q 2550 4175 2687 3837 
Q 2825 3500 2725 3100 
Q 2625 2700 2150 2400 
Q 2500 2250 2687 1950 
Q 2875 1650 2812 1162 
Q 2750 675 2375 375 
Q 2000 75 1525 87 
Q 1050 100 700 387 
Q 350 675 250 1225 
z
" transform="scale(0.015625)"/>
       </defs>
       <use xlink:href="#SimHei-30"/>
       <use xlink:href="#SimHei-31" x="50"/>
       <use xlink:href="#SimHei-2d" x="100"/>
       <use xlink:href="#SimHei-33" x="150"/>
       <use xlink:href="#SimHei-31" x="200"/>
      </g>
     </g>
    </g>
    <g id="xtick_5">
     <g id="line2d_5">
      <path d="M 202.853122 501.03675 
L 202.853122 15.552 
" clip-path="url(#pd2bf6a4316)" style="fill: none; stroke: #cccccc; stroke-linecap: round"/>
     </g>
     <g id="text_5">
      <!-- 02-10 -->
      <g style="fill: #262626" transform="translate(206.565622 543.53675) rotate(-90) scale(0.132 -0.132)">
       <use xlink:href="#SimHei-30"/>
       <use xlink:href="#SimHei-32" x="50"/>
       <use xlink:href="#SimHei-2d" x="100"/>
       <use xlink:href="#SimHei-31" x="150"/>
       <use xlink:href="#SimHei-30" x="200"/>
      </g>
     </g>
    </g>
    <g id="xtick_6">
     <g id="line2d_6">
      <path d="M 225.927198 501.03675 
L 225.927198 15.552 
" clip-path="url(#pd2bf6a4316)" style="fill: none; stroke: #cccccc; stroke-linecap: round"/>
     </g>
     <g id="text_6">
      <!-- 02-20 -->
      <g style="fill: #262626" transform="translate(229.639698 543.53675) rotate(-90) scale(0.132 -0.132)">
       <use xlink:href="#SimHei-30"/>
       <use xlink:href="#SimHei-32" x="50"/>
       <use xlink:href="#SimHei-2d" x="100"/>
       <use xlink:href="#SimHei-32" x="150"/>
       <use xlink:href="#SimHei-30" x="200"/>
      </g>
     </g>
    </g>
    <g id="xtick_7">
     <g id="line2d_7">
      <path d="M 249.001274 501.03675 
L 249.001274 15.552 
" clip-path="url(#pd2bf6a4316)" style="fill: none; stroke: #cccccc; stroke-linecap: round"/>
     </g>
     <g id="text_7">
      <!-- 03-02 -->
      <g style="fill: #262626" transform="translate(252.713774 543.53675) rotate(-90) scale(0.132 -0.132)">
       <use xlink:href="#SimHei-30"/>
       <use xlink:href="#SimHei-33" x="50"/>
       <use xlink:href="#SimHei-2d" x="100"/>
       <use xlink:href="#SimHei-30" x="150"/>
       <use xlink:href="#SimHei-32" x="200"/>
      </g>
     </g>
    </g>
    <g id="xtick_8">
     <g id="line2d_8">
      <path d="M 272.07535 501.03675 
L 272.07535 15.552 
" clip-path="url(#pd2bf6a4316)" style="fill: none; stroke: #cccccc; stroke-linecap: round"/>
     </g>
     <g id="text_8">
      <!-- 03-12 -->
      <g style="fill: #262626" transform="translate(275.78785 543.53675) rotate(-90) scale(0.132 -0.132)">
       <use xlink:href="#SimHei-30"/>
       <use xlink:href="#SimHei-33" x="50"/>
       <use xlink:href="#SimHei-2d" x="100"/>
       <use xlink:href="#SimHei-31" x="150"/>
       <use xlink:href="#SimHei-32" x="200"/>
      </g>
     </g>
    </g>
    <g id="xtick_9">
     <g id="line2d_9">
      <path d="M 295.149426 501.03675 
L 295.149426 15.552 
" clip-path="url(#pd2bf6a4316)" style="fill: none; stroke: #cccccc; stroke-linecap: round"/>
     </g>
     <g id="text_9">
      <!-- 03-22 -->
      <g style="fill: #262626" transform="translate(298.861926 543.53675) rotate(-90) scale(0.132 -0.132)">
       <use xlink:href="#SimHei-30"/>
       <use xlink:href="#SimHei-33" x="50"/>
       <use xlink:href="#SimHei-2d" x="100"/>
       <use xlink:href="#SimHei-32" x="150"/>
       <use xlink:href="#SimHei-32" x="200"/>
      </g>
     </g>
    </g>
    <g id="xtick_10">
     <g id="line2d_10">
      <path d="M 318.223501 501.03675 
L 318.223501 15.552 
" clip-path="url(#pd2bf6a4316)" style="fill: none; stroke: #cccccc; stroke-linecap: round"/>
     </g>
     <g id="text_10">
      <!-- 04-01 -->
      <g style="fill: #262626" transform="translate(321.936001 543.53675) rotate(-90) scale(0.132 -0.132)">
       <defs>
        <path id="SimHei-34" d="M 2000 1100 
L 75 1100 
L 75 1525 
L 2100 4450 
L 2475 4450 
L 2475 1525 
L 3075 1525 
L 3075 1100 
L 2475 1100 
L 2475 150 
L 2000 150 
L 2000 1100 
z
M 2000 1525 
L 2000 3500 
L 600 1525 
L 2000 1525 
z
" transform="scale(0.015625)"/>
       </defs>
       <use xlink:href="#SimHei-30"/>
       <use xlink:href="#SimHei-34" x="50"/>
       <use xlink:href="#SimHei-2d" x="100"/>
       <use xlink:href="#SimHei-30" x="150"/>
       <use xlink:href="#SimHei-31" x="200"/>
      </g>
     </g>
    </g>
    <g id="xtick_11">
     <g id="line2d_11">
      <path d="M 341.297577 501.03675 
L 341.297577 15.552 
" clip-path="url(#pd2bf6a4316)" style="fill: none; stroke: #cccccc; stroke-linecap: round"/>
     </g>
     <g id="text_11">
      <!-- 04-11 -->
      <g style="fill: #262626" transform="translate(345.010077 543.53675) rotate(-90) scale(0.132 -0.132)">
       <use xlink:href="#SimHei-30"/>
       <use xlink:href="#SimHei-34" x="50"/>
       <use xlink:href="#SimHei-2d" x="100"/>
       <use xlink:href="#SimHei-31" x="150"/>
       <use xlink:href="#SimHei-31" x="200"/>
      </g>
     </g>
    </g>
    <g id="xtick_12">
     <g id="line2d_12">
      <path d="M 364.371653 501.03675 
L 364.371653 15.552 
" clip-path="url(#pd2bf6a4316)" style="fill: none; stroke: #cccccc; stroke-linecap: round"/>
     </g>
     <g id="text_12">
      <!-- 04-21 -->
      <g style="fill: #262626" transform="translate(368.084153 543.53675) rotate(-90) scale(0.132 -0.132)">
       <use xlink:href="#SimHei-30"/>
       <use xlink:href="#SimHei-34" x="50"/>
       <use xlink:href="#SimHei-2d" x="100"/>
       <use xlink:href="#SimHei-32" x="150"/>
       <use xlink:href="#SimHei-31" x="200"/>
      </g>
     </g>
    </g>
    <g id="xtick_13">
     <g id="line2d_13">
      <path d="M 387.445729 501.03675 
L 387.445729 15.552 
" clip-path="url(#pd2bf6a4316)" style="fill: none; stroke: #cccccc; stroke-linecap: round"/>
     </g>
     <g id="text_13">
      <!-- 05-01 -->
      <g style="fill: #262626" transform="translate(391.158229 543.53675) rotate(-90) scale(0.132 -0.132)">
       <defs>
        <path id="SimHei-35" d="M 550 1325 
Q 725 650 1150 575 
Q 1575 500 1837 662 
Q 2100 825 2212 1087 
Q 2325 1350 2312 1675 
Q 2300 2000 2137 2225 
Q 1975 2450 1725 2525 
Q 1475 2600 1162 2525 
Q 850 2450 650 2175 
L 225 2225 
Q 275 2375 700 4375 
L 2675 4375 
L 2675 3925 
L 1075 3925 
Q 950 3250 825 2850 
Q 1200 3025 1525 3012 
Q 1850 3000 2150 2862 
Q 2450 2725 2587 2487 
Q 2725 2250 2787 2012 
Q 2850 1775 2837 1500 
Q 2825 1225 2725 937 
Q 2625 650 2425 462 
Q 2225 275 1937 162 
Q 1650 50 1275 75 
Q 900 100 562 350 
Q 225 600 100 1200 
L 550 1325 
z
" transform="scale(0.015625)"/>
       </defs>
       <use xlink:href="#SimHei-30"/>
       <use xlink:href="#SimHei-35" x="50"/>
       <use xlink:href="#SimHei-2d" x="100"/>
       <use xlink:href="#SimHei-30" x="150"/>
       <use xlink:href="#SimHei-31" x="200"/>
      </g>
     </g>
    </g>
    <g id="xtick_14">
     <g id="line2d_14">
      <path d="M 410.519805 501.03675 
L 410.519805 15.552 
" clip-path="url(#pd2bf6a4316)" style="fill: none; stroke: #cccccc; stroke-linecap: round"/>
     </g>
     <g id="text_14">
      <!-- 05-11 -->
      <g style="fill: #262626" transform="translate(414.232305 543.53675) rotate(-90) scale(0.132 -0.132)">
       <use xlink:href="#SimHei-30"/>
       <use xlink:href="#SimHei-35" x="50"/>
       <use xlink:href="#SimHei-2d" x="100"/>
       <use xlink:href="#SimHei-31" x="150"/>
       <use xlink:href="#SimHei-31" x="200"/>
      </g>
     </g>
    </g>
    <g id="xtick_15">
     <g id="line2d_15">
      <path d="M 433.593881 501.03675 
L 433.593881 15.552 
" clip-path="url(#pd2bf6a4316)" style="fill: none; stroke: #cccccc; stroke-linecap: round"/>
     </g>
     <g id="text_15">
      <!-- 05-21 -->
      <g style="fill: #262626" transform="translate(437.306381 543.53675) rotate(-90) scale(0.132 -0.132)">
       <use xlink:href="#SimHei-30"/>
       <use xlink:href="#SimHei-35" x="50"/>
       <use xlink:href="#SimHei-2d" x="100"/>
       <use xlink:href="#SimHei-32" x="150"/>
       <use xlink:href="#SimHei-31" x="200"/>
      </g>
     </g>
    </g>
    <g id="xtick_16">
     <g id="line2d_16">
      <path d="M 456.667957 501.03675 
L 456.667957 15.552 
" clip-path="url(#pd2bf6a4316)" style="fill: none; stroke: #cccccc; stroke-linecap: round"/>
     </g>
     <g id="text_16">
      <!-- 05-31 -->
      <g style="fill: #262626" transform="translate(460.380457 543.53675) rotate(-90) scale(0.132 -0.132)">
       <use xlink:href="#SimHei-30"/>
       <use xlink:href="#SimHei-35" x="50"/>
       <use xlink:href="#SimHei-2d" x="100"/>
       <use xlink:href="#SimHei-33" x="150"/>
       <use xlink:href="#SimHei-31" x="200"/>
      </g>
     </g>
    </g>
    <g id="xtick_17">
     <g id="line2d_17">
      <path d="M 479.742033 501.03675 
L 479.742033 15.552 
" clip-path="url(#pd2bf6a4316)" style="fill: none; stroke: #cccccc; stroke-linecap: round"/>
     </g>
     <g id="text_17">
      <!-- 06-10 -->
      <g style="fill: #262626" transform="translate(483.454533 543.53675) rotate(-90) scale(0.132 -0.132)">
       <defs>
        <path id="SimHei-36" d="M 250 1612 
Q 275 1975 387 2225 
Q 500 2475 725 2850 
L 1750 4450 
L 2325 4450 
L 1275 2800 
Q 1950 2975 2350 2750 
Q 2750 2525 2887 2237 
Q 3025 1950 3037 1612 
Q 3050 1275 2937 950 
Q 2825 625 2537 362 
Q 2250 100 1737 75 
Q 1225 50 862 262 
Q 500 475 362 862 
Q 225 1250 250 1612 
z
M 1025 787 
Q 1250 550 1625 525 
Q 2000 500 2250 775 
Q 2500 1050 2500 1575 
Q 2500 2100 2187 2300 
Q 1875 2500 1487 2450 
Q 1100 2400 925 2075 
Q 750 1750 775 1387 
Q 800 1025 1025 787 
z
" transform="scale(0.015625)"/>
       </defs>
       <use xlink:href="#SimHei-30"/>
       <use xlink:href="#SimHei-36" x="50"/>
       <use xlink:href="#SimHei-2d" x="100"/>
       <use xlink:href="#SimHei-31" x="150"/>
       <use xlink:href="#SimHei-30" x="200"/>
      </g>
     </g>
    </g>
    <g id="xtick_18">
     <g id="line2d_18">
      <path d="M 502.816109 501.03675 
L 502.816109 15.552 
" clip-path="url(#pd2bf6a4316)" style="fill: none; stroke: #cccccc; stroke-linecap: round"/>
     </g>
     <g id="text_18">
      <!-- 06-20 -->
      <g style="fill: #262626" transform="translate(506.528609 543.53675) rotate(-90) scale(0.132 -0.132)">
       <use xlink:href="#SimHei-30"/>
       <use xlink:href="#SimHei-36" x="50"/>
       <use xlink:href="#SimHei-2d" x="100"/>
       <use xlink:href="#SimHei-32" x="150"/>
       <use xlink:href="#SimHei-30" x="200"/>
      </g>
     </g>
    </g>
    <g id="xtick_19">
     <g id="line2d_19">
      <path d="M 525.890185 501.03675 
L 525.890185 15.552 
" clip-path="url(#pd2bf6a4316)" style="fill: none; stroke: #cccccc; stroke-linecap: round"/>
     </g>
     <g id="text_19">
      <!-- 06-30 -->
      <g style="fill: #262626" transform="translate(529.602685 543.53675) rotate(-90) scale(0.132 -0.132)">
       <use xlink:href="#SimHei-30"/>
       <use xlink:href="#SimHei-36" x="50"/>
       <use xlink:href="#SimHei-2d" x="100"/>
       <use xlink:href="#SimHei-33" x="150"/>
       <use xlink:href="#SimHei-30" x="200"/>
      </g>
     </g>
    </g>
    <g id="xtick_20">
     <g id="line2d_20">
      <path d="M 548.964261 501.03675 
L 548.964261 15.552 
" clip-path="url(#pd2bf6a4316)" style="fill: none; stroke: #cccccc; stroke-linecap: round"/>
     </g>
     <g id="text_20">
      <!-- 07-10 -->
      <g style="fill: #262626" transform="translate(552.676761 543.53675) rotate(-90) scale(0.132 -0.132)">
       <defs>
        <path id="SimHei-37" d="M 850 150 
Q 1300 2050 2425 3925 
L 275 3925 
L 275 4375 
L 2950 4375 
L 2950 3950 
Q 1775 2050 1400 150 
L 850 150 
z
" transform="scale(0.015625)"/>
       </defs>
       <use xlink:href="#SimHei-30"/>
       <use xlink:href="#SimHei-37" x="50"/>
       <use xlink:href="#SimHei-2d" x="100"/>
       <use xlink:href="#SimHei-31" x="150"/>
       <use xlink:href="#SimHei-30" x="200"/>
      </g>
     </g>
    </g>
    <g id="xtick_21">
     <g id="line2d_21">
      <path d="M 572.038337 501.03675 
L 572.038337 15.552 
" clip-path="url(#pd2bf6a4316)" style="fill: none; stroke: #cccccc; stroke-linecap: round"/>
     </g>
     <g id="text_21">
      <!-- 07-20 -->
      <g style="fill: #262626" transform="translate(575.750837 543.53675) rotate(-90) scale(0.132 -0.132)">
       <use xlink:href="#SimHei-30"/>
       <use xlink:href="#SimHei-37" x="50"/>
       <use xlink:href="#SimHei-2d" x="100"/>
       <use xlink:href="#SimHei-32" x="150"/>
       <use xlink:href="#SimHei-30" x="200"/>
      </g>
     </g>
    </g>
    <g id="xtick_22">
     <g id="line2d_22">
      <path d="M 595.112413 501.03675 
L 595.112413 15.552 
" clip-path="url(#pd2bf6a4316)" style="fill: none; stroke: #cccccc; stroke-linecap: round"/>
     </g>
     <g id="text_22">
      <!-- 07-30 -->
      <g style="fill: #262626" transform="translate(598.824913 543.53675) rotate(-90) scale(0.132 -0.132)">
       <use xlink:href="#SimHei-30"/>
       <use xlink:href="#SimHei-37" x="50"/>
       <use xlink:href="#SimHei-2d" x="100"/>
       <use xlink:href="#SimHei-33" x="150"/>
       <use xlink:href="#SimHei-30" x="200"/>
      </g>
     </g>
    </g>
    <g id="xtick_23">
     <g id="line2d_23">
      <path d="M 618.186489 501.03675 
L 618.186489 15.552 
" clip-path="url(#pd2bf6a4316)" style="fill: none; stroke: #cccccc; stroke-linecap: round"/>
     </g>
     <g id="text_23">
      <!-- 08-09 -->
      <g style="fill: #262626" transform="translate(621.898989 543.53675) rotate(-90) scale(0.132 -0.132)">
       <defs>
        <path id="SimHei-38" d="M 175 1375 
Q 175 1675 325 1962 
Q 475 2250 825 2425 
Q 525 2600 425 2812 
Q 325 3025 312 3300 
Q 300 3575 387 3775 
Q 475 3975 650 4150 
Q 825 4325 1037 4387 
Q 1250 4450 1500 4450 
Q 1750 4450 1950 4400 
Q 2150 4350 2375 4187 
Q 2600 4025 2700 3725 
Q 2800 3425 2687 3025 
Q 2575 2625 2100 2400 
Q 2525 2275 2700 2012 
Q 2875 1750 2875 1375 
Q 2875 1000 2762 775 
Q 2650 550 2512 400 
Q 2375 250 2137 162 
Q 1900 75 1537 75 
Q 1175 75 912 162 
Q 650 250 475 425 
Q 300 600 237 837 
Q 175 1075 175 1375 
z
M 687 1400 
Q 675 1100 787 875 
Q 900 650 1200 587 
Q 1500 525 1825 600 
Q 2150 675 2275 950 
Q 2400 1225 2362 1500 
Q 2325 1775 2050 1962 
Q 1775 2150 1450 2125 
Q 1125 2100 912 1900 
Q 700 1700 687 1400 
z
M 775 3350 
Q 775 3100 950 2875 
Q 1125 2650 1500 2650 
Q 1875 2650 2062 2875 
Q 2250 3100 2237 3412 
Q 2225 3725 2012 3875 
Q 1800 4025 1437 4000 
Q 1075 3975 925 3787 
Q 775 3600 775 3350 
z
" transform="scale(0.015625)"/>
        <path id="SimHei-39" d="M 800 75 
Q 1350 1000 1700 1750 
Q 1075 1650 662 1912 
Q 250 2175 162 2625 
Q 75 3075 175 3437 
Q 275 3800 487 4037 
Q 700 4275 1000 4375 
Q 1300 4475 1537 4475 
Q 1775 4475 2025 4375 
Q 2275 4275 2475 4075 
Q 2675 3875 2750 3662 
Q 2825 3450 2825 3112 
Q 2825 2775 2575 2250 
Q 2325 1725 1350 75 
L 800 75 
z
M 662 2875 
Q 700 2550 937 2337 
Q 1175 2125 1450 2150 
Q 1725 2175 1887 2300 
Q 2050 2425 2200 2725 
Q 2300 3100 2250 3362 
Q 2200 3625 1987 3800 
Q 1775 3975 1525 3975 
Q 1375 4000 1137 3900 
Q 900 3800 762 3500 
Q 625 3200 662 2875 
z
" transform="scale(0.015625)"/>
       </defs>
       <use xlink:href="#SimHei-30"/>
       <use xlink:href="#SimHei-38" x="50"/>
       <use xlink:href="#SimHei-2d" x="100"/>
       <use xlink:href="#SimHei-30" x="150"/>
       <use xlink:href="#SimHei-39" x="200"/>
      </g>
     </g>
    </g>
    <g id="xtick_24">
     <g id="line2d_24">
      <path d="M 641.260564 501.03675 
L 641.260564 15.552 
" clip-path="url(#pd2bf6a4316)" style="fill: none; stroke: #cccccc; stroke-linecap: round"/>
     </g>
     <g id="text_24">
      <!-- 08-19 -->
      <g style="fill: #262626" transform="translate(644.973064 543.53675) rotate(-90) scale(0.132 -0.132)">
       <use xlink:href="#SimHei-30"/>
       <use xlink:href="#SimHei-38" x="50"/>
       <use xlink:href="#SimHei-2d" x="100"/>
       <use xlink:href="#SimHei-31" x="150"/>
       <use xlink:href="#SimHei-39" x="200"/>
      </g>
     </g>
    </g>
    <g id="xtick_25">
     <g id="line2d_25">
      <path d="M 664.33464 501.03675 
L 664.33464 15.552 
" clip-path="url(#pd2bf6a4316)" style="fill: none; stroke: #cccccc; stroke-linecap: round"/>
     </g>
     <g id="text_25">
      <!-- 08-29 -->
      <g style="fill: #262626" transform="translate(668.04714 543.53675) rotate(-90) scale(0.132 -0.132)">
       <use xlink:href="#SimHei-30"/>
       <use xlink:href="#SimHei-38" x="50"/>
       <use xlink:href="#SimHei-2d" x="100"/>
       <use xlink:href="#SimHei-32" x="150"/>
       <use xlink:href="#SimHei-39" x="200"/>
      </g>
     </g>
    </g>
    <g id="xtick_26">
     <g id="line2d_26">
      <path d="M 687.408716 501.03675 
L 687.408716 15.552 
" clip-path="url(#pd2bf6a4316)" style="fill: none; stroke: #cccccc; stroke-linecap: round"/>
     </g>
     <g id="text_26">
      <!-- 09-08 -->
      <g style="fill: #262626" transform="translate(691.121216 543.53675) rotate(-90) scale(0.132 -0.132)">
       <use xlink:href="#SimHei-30"/>
       <use xlink:href="#SimHei-39" x="50"/>
       <use xlink:href="#SimHei-2d" x="100"/>
       <use xlink:href="#SimHei-30" x="150"/>
       <use xlink:href="#SimHei-38" x="200"/>
      </g>
     </g>
    </g>
    <g id="xtick_27">
     <g id="line2d_27">
      <path d="M 710.482792 501.03675 
L 710.482792 15.552 
" clip-path="url(#pd2bf6a4316)" style="fill: none; stroke: #cccccc; stroke-linecap: round"/>
     </g>
     <g id="text_27">
      <!-- 09-18 -->
      <g style="fill: #262626" transform="translate(714.195292 543.53675) rotate(-90) scale(0.132 -0.132)">
       <use xlink:href="#SimHei-30"/>
       <use xlink:href="#SimHei-39" x="50"/>
       <use xlink:href="#SimHei-2d" x="100"/>
       <use xlink:href="#SimHei-31" x="150"/>
       <use xlink:href="#SimHei-38" x="200"/>
      </g>
     </g>
    </g>
    <g id="xtick_28">
     <g id="line2d_28">
      <path d="M 733.556868 501.03675 
L 733.556868 15.552 
" clip-path="url(#pd2bf6a4316)" style="fill: none; stroke: #cccccc; stroke-linecap: round"/>
     </g>
     <g id="text_28">
      <!-- 09-28 -->
      <g style="fill: #262626" transform="translate(737.269368 543.53675) rotate(-90) scale(0.132 -0.132)">
       <use xlink:href="#SimHei-30"/>
       <use xlink:href="#SimHei-39" x="50"/>
       <use xlink:href="#SimHei-2d" x="100"/>
       <use xlink:href="#SimHei-32" x="150"/>
       <use xlink:href="#SimHei-38" x="200"/>
      </g>
     </g>
    </g>
    <g id="xtick_29">
     <g id="line2d_29">
      <path d="M 756.630944 501.03675 
L 756.630944 15.552 
" clip-path="url(#pd2bf6a4316)" style="fill: none; stroke: #cccccc; stroke-linecap: round"/>
     </g>
     <g id="text_29">
      <!-- 10-08 -->
      <g style="fill: #262626" transform="translate(760.343444 543.53675) rotate(-90) scale(0.132 -0.132)">
       <use xlink:href="#SimHei-31"/>
       <use xlink:href="#SimHei-30" x="50"/>
       <use xlink:href="#SimHei-2d" x="100"/>
       <use xlink:href="#SimHei-30" x="150"/>
       <use xlink:href="#SimHei-38" x="200"/>
      </g>
     </g>
    </g>
    <g id="xtick_30">
     <g id="line2d_30">
      <path d="M 779.70502 501.03675 
L 779.70502 15.552 
" clip-path="url(#pd2bf6a4316)" style="fill: none; stroke: #cccccc; stroke-linecap: round"/>
     </g>
     <g id="text_30">
      <!-- 10-18 -->
      <g style="fill: #262626" transform="translate(783.41752 543.53675) rotate(-90) scale(0.132 -0.132)">
       <use xlink:href="#SimHei-31"/>
       <use xlink:href="#SimHei-30" x="50"/>
       <use xlink:href="#SimHei-2d" x="100"/>
       <use xlink:href="#SimHei-31" x="150"/>
       <use xlink:href="#SimHei-38" x="200"/>
      </g>
     </g>
    </g>
    <g id="xtick_31">
     <g id="line2d_31">
      <path d="M 802.779096 501.03675 
L 802.779096 15.552 
" clip-path="url(#pd2bf6a4316)" style="fill: none; stroke: #cccccc; stroke-linecap: round"/>
     </g>
     <g id="text_31">
      <!-- 10-28 -->
      <g style="fill: #262626" transform="translate(806.491596 543.53675) rotate(-90) scale(0.132 -0.132)">
       <use xlink:href="#SimHei-31"/>
       <use xlink:href="#SimHei-30" x="50"/>
       <use xlink:href="#SimHei-2d" x="100"/>
       <use xlink:href="#SimHei-32" x="150"/>
       <use xlink:href="#SimHei-38" x="200"/>
      </g>
     </g>
    </g>
    <g id="xtick_32">
     <g id="line2d_32">
      <path d="M 825.853172 501.03675 
L 825.853172 15.552 
" clip-path="url(#pd2bf6a4316)" style="fill: none; stroke: #cccccc; stroke-linecap: round"/>
     </g>
     <g id="text_32">
      <!-- 11-07 -->
      <g style="fill: #262626" transform="translate(829.565672 543.53675) rotate(-90) scale(0.132 -0.132)">
       <use xlink:href="#SimHei-31"/>
       <use xlink:href="#SimHei-31" x="50"/>
       <use xlink:href="#SimHei-2d" x="100"/>
       <use xlink:href="#SimHei-30" x="150"/>
       <use xlink:href="#SimHei-37" x="200"/>
      </g>
     </g>
    </g>
    <g id="xtick_33">
     <g id="line2d_33">
      <path d="M 848.927248 501.03675 
L 848.927248 15.552 
" clip-path="url(#pd2bf6a4316)" style="fill: none; stroke: #cccccc; stroke-linecap: round"/>
     </g>
     <g id="text_33">
      <!-- 11-17 -->
      <g style="fill: #262626" transform="translate(852.639748 543.53675) rotate(-90) scale(0.132 -0.132)">
       <use xlink:href="#SimHei-31"/>
       <use xlink:href="#SimHei-31" x="50"/>
       <use xlink:href="#SimHei-2d" x="100"/>
       <use xlink:href="#SimHei-31" x="150"/>
       <use xlink:href="#SimHei-37" x="200"/>
      </g>
     </g>
    </g>
    <g id="xtick_34">
     <g id="line2d_34">
      <path d="M 872.001324 501.03675 
L 872.001324 15.552 
" clip-path="url(#pd2bf6a4316)" style="fill: none; stroke: #cccccc; stroke-linecap: round"/>
     </g>
     <g id="text_34">
      <!-- 11-27 -->
      <g style="fill: #262626" transform="translate(875.713824 543.53675) rotate(-90) scale(0.132 -0.132)">
       <use xlink:href="#SimHei-31"/>
       <use xlink:href="#SimHei-31" x="50"/>
       <use xlink:href="#SimHei-2d" x="100"/>
       <use xlink:href="#SimHei-32" x="150"/>
       <use xlink:href="#SimHei-37" x="200"/>
      </g>
     </g>
    </g>
    <g id="xtick_35">
     <g id="line2d_35">
      <path d="M 895.0754 501.03675 
L 895.0754 15.552 
" clip-path="url(#pd2bf6a4316)" style="fill: none; stroke: #cccccc; stroke-linecap: round"/>
     </g>
     <g id="text_35">
      <!-- 12-07 -->
      <g style="fill: #262626" transform="translate(898.7879 543.53675) rotate(-90) scale(0.132 -0.132)">
       <use xlink:href="#SimHei-31"/>
       <use xlink:href="#SimHei-32" x="50"/>
       <use xlink:href="#SimHei-2d" x="100"/>
       <use xlink:href="#SimHei-30" x="150"/>
       <use xlink:href="#SimHei-37" x="200"/>
      </g>
     </g>
    </g>
    <g id="xtick_36">
     <g id="line2d_36">
      <path d="M 918.149476 501.03675 
L 918.149476 15.552 
" clip-path="url(#pd2bf6a4316)" style="fill: none; stroke: #cccccc; stroke-linecap: round"/>
     </g>
     <g id="text_36">
      <!-- 12-17 -->
      <g style="fill: #262626" transform="translate(921.861976 543.53675) rotate(-90) scale(0.132 -0.132)">
       <use xlink:href="#SimHei-31"/>
       <use xlink:href="#SimHei-32" x="50"/>
       <use xlink:href="#SimHei-2d" x="100"/>
       <use xlink:href="#SimHei-31" x="150"/>
       <use xlink:href="#SimHei-37" x="200"/>
      </g>
     </g>
    </g>
    <g id="xtick_37">
     <g id="line2d_37">
      <path d="M 941.223551 501.03675 
L 941.223551 15.552 
" clip-path="url(#pd2bf6a4316)" style="fill: none; stroke: #cccccc; stroke-linecap: round"/>
     </g>
     <g id="text_37">
      <!-- 12-27 -->
      <g style="fill: #262626" transform="translate(944.936051 543.53675) rotate(-90) scale(0.132 -0.132)">
       <use xlink:href="#SimHei-31"/>
       <use xlink:href="#SimHei-32" x="50"/>
       <use xlink:href="#SimHei-2d" x="100"/>
       <use xlink:href="#SimHei-32" x="150"/>
       <use xlink:href="#SimHei-37" x="200"/>
      </g>
     </g>
    </g>
    <g id="text_38">
     <!-- 月日 -->
     <g style="fill: #262626" transform="translate(516.105 558.2805) scale(0.144 -0.144)">
      <defs>
       <path id="SimHei-6708" d="M 5250 4825 
Q 5200 4225 5200 3750 
L 5200 200 
Q 5200 -275 4950 -375 
Q 4700 -475 3975 -525 
Q 3925 -225 3750 50 
Q 4300 25 4512 50 
Q 4725 75 4725 400 
L 4725 1600 
L 1850 1600 
Q 1725 775 1450 225 
Q 1175 -325 900 -575 
Q 700 -400 400 -325 
Q 800 25 1037 512 
Q 1275 1000 1337 1475 
Q 1400 1950 1400 2525 
L 1400 3625 
Q 1400 4175 1375 4825 
L 5250 4825 
z
M 4725 3400 
L 4725 4450 
L 1875 4450 
L 1875 3400 
L 4725 3400 
z
M 4725 2000 
L 4725 3025 
L 1875 3025 
L 1875 2000 
L 4725 2000 
z
" transform="scale(0.015625)"/>
       <path id="SimHei-65e5" d="M 5375 5000 
Q 5350 3775 5350 2275 
Q 5350 775 5375 -450 
L 4800 -450 
L 4800 175 
L 1800 175 
L 1800 -575 
L 1250 -575 
Q 1275 575 1275 2125 
Q 1275 3675 1250 5000 
L 5375 5000 
z
M 4800 600 
L 4800 2375 
L 1800 2375 
L 1800 600 
L 4800 600 
z
M 4800 2800 
L 4800 4550 
L 1800 4550 
L 1800 2800 
L 4800 2800 
z
" transform="scale(0.015625)"/>
      </defs>
      <use xlink:href="#SimHei-6708"/>
      <use xlink:href="#SimHei-65e5" x="100"/>
     </g>
    </g>
   </g>
   <g id="matplotlib.axis_2">
    <g id="ytick_1">
     <g id="line2d_38">
      <path d="M 68.562 471.869394 
L 992.448 471.869394 
" clip-path="url(#pd2bf6a4316)" style="fill: none; stroke: #cccccc; stroke-linecap: round"/>
     </g>
     <g id="text_39">
      <!-- 1000 -->
      <g style="fill: #262626" transform="translate(32.662 476.406894) scale(0.132 -0.132)">
       <use xlink:href="#SimHei-31"/>
       <use xlink:href="#SimHei-30" x="50"/>
       <use xlink:href="#SimHei-30" x="100"/>
       <use xlink:href="#SimHei-30" x="150"/>
      </g>
     </g>
    </g>
    <g id="ytick_2">
     <g id="line2d_39">
      <path d="M 68.562 388.376429 
L 992.448 388.376429 
" clip-path="url(#pd2bf6a4316)" style="fill: none; stroke: #cccccc; stroke-linecap: round"/>
     </g>
     <g id="text_40">
      <!-- 2000 -->
      <g style="fill: #262626" transform="translate(32.662 392.913929) scale(0.132 -0.132)">
       <use xlink:href="#SimHei-32"/>
       <use xlink:href="#SimHei-30" x="50"/>
       <use xlink:href="#SimHei-30" x="100"/>
       <use xlink:href="#SimHei-30" x="150"/>
      </g>
     </g>
    </g>
    <g id="ytick_3">
     <g id="line2d_40">
      <path d="M 68.562 304.883463 
L 992.448 304.883463 
" clip-path="url(#pd2bf6a4316)" style="fill: none; stroke: #cccccc; stroke-linecap: round"/>
     </g>
     <g id="text_41">
      <!-- 3000 -->
      <g style="fill: #262626" transform="translate(32.662 309.420963) scale(0.132 -0.132)">
       <use xlink:href="#SimHei-33"/>
       <use xlink:href="#SimHei-30" x="50"/>
       <use xlink:href="#SimHei-30" x="100"/>
       <use xlink:href="#SimHei-30" x="150"/>
      </g>
     </g>
    </g>
    <g id="ytick_4">
     <g id="line2d_41">
      <path d="M 68.562 221.390497 
L 992.448 221.390497 
" clip-path="url(#pd2bf6a4316)" style="fill: none; stroke: #cccccc; stroke-linecap: round"/>
     </g>
     <g id="text_42">
      <!-- 4000 -->
      <g style="fill: #262626" transform="translate(32.662 225.927997) scale(0.132 -0.132)">
       <use xlink:href="#SimHei-34"/>
       <use xlink:href="#SimHei-30" x="50"/>
       <use xlink:href="#SimHei-30" x="100"/>
       <use xlink:href="#SimHei-30" x="150"/>
      </g>
     </g>
    </g>
    <g id="ytick_5">
     <g id="line2d_42">
      <path d="M 68.562 137.897531 
L 992.448 137.897531 
" clip-path="url(#pd2bf6a4316)" style="fill: none; stroke: #cccccc; stroke-linecap: round"/>
     </g>
     <g id="text_43">
      <!-- 5000 -->
      <g style="fill: #262626" transform="translate(32.662 142.435031) scale(0.132 -0.132)">
       <use xlink:href="#SimHei-35"/>
       <use xlink:href="#SimHei-30" x="50"/>
       <use xlink:href="#SimHei-30" x="100"/>
       <use xlink:href="#SimHei-30" x="150"/>
      </g>
     </g>
    </g>
    <g id="ytick_6">
     <g id="line2d_43">
      <path d="M 68.562 54.404565 
L 992.448 54.404565 
" clip-path="url(#pd2bf6a4316)" style="fill: none; stroke: #cccccc; stroke-linecap: round"/>
     </g>
     <g id="text_44">
      <!-- 6000 -->
      <g style="fill: #262626" transform="translate(32.662 58.942065) scale(0.132 -0.132)">
       <use xlink:href="#SimHei-36"/>
       <use xlink:href="#SimHei-30" x="50"/>
       <use xlink:href="#SimHei-30" x="100"/>
       <use xlink:href="#SimHei-30" x="150"/>
      </g>
     </g>
    </g>
    <g id="text_45">
     <!-- 货量 -->
     <g style="fill: #262626" transform="translate(26.862 272.694375) rotate(-90) scale(0.144 -0.144)">
      <defs>
       <path id="SimHei-8d27" d="M 3975 5075 
Q 3950 4750 3950 4100 
Q 4075 4175 4525 4375 
Q 4975 4575 5375 4900 
Q 5550 4625 5700 4400 
Q 5425 4325 4987 4112 
Q 4550 3900 3950 3650 
L 3950 3225 
Q 3950 3025 4300 3025 
L 5125 3025 
Q 5425 3025 5487 3150 
Q 5550 3275 5575 3625 
Q 5850 3450 6125 3375 
Q 5975 2875 5825 2750 
Q 5675 2625 5475 2625 
L 4000 2625 
Q 3425 2625 3425 3125 
L 3425 3525 
Q 2900 3325 2575 3225 
Q 2425 3500 2350 3650 
Q 2750 3750 3425 3925 
Q 3425 4750 3400 5075 
L 3975 5075 
z
M 5200 2200 
Q 5175 1825 5175 1425 
Q 5175 1050 5200 600 
L 4625 600 
L 4625 1775 
L 1950 1775 
L 1950 625 
L 1400 625 
Q 1425 1025 1425 1400 
Q 1425 1800 1400 2200 
L 5200 2200 
z
M 2625 4850 
Q 2425 4700 2050 4300 
Q 2050 2900 2075 2450 
L 1500 2450 
Q 1525 2900 1525 3825 
Q 1300 3625 1100 3425 
Q 900 3225 700 3050 
Q 475 3250 325 3400 
Q 850 3725 1325 4237 
Q 1800 4750 2050 5175 
Q 2325 4925 2625 4850 
z
M 3550 1325 
Q 3425 975 3312 687 
Q 3200 400 2925 137 
Q 2650 -125 2150 -325 
Q 1650 -525 800 -675 
Q 725 -400 475 -100 
Q 1200 -75 1675 25 
Q 2150 125 2412 325 
Q 2675 525 2787 775 
Q 2900 1025 2975 1400 
Q 3250 1350 3550 1325 
z
M 5575 -675 
Q 5125 -400 4650 -187 
Q 4175 25 3575 250 
Q 3725 500 3825 725 
Q 4350 500 4800 300 
Q 5250 100 5875 -175 
Q 5700 -400 5575 -675 
z
" transform="scale(0.015625)"/>
       <path id="SimHei-91cf" d="M 5250 2500 
Q 5225 2200 5225 1700 
Q 5225 1225 5250 950 
L 3425 950 
L 3425 625 
L 4575 625 
Q 5000 625 5375 650 
L 5375 275 
Q 5025 300 4575 300 
L 3425 300 
L 3425 -75 
L 5125 -75 
Q 5525 -75 5925 -50 
L 5925 -425 
Q 5525 -400 5125 -400 
L 1275 -400 
Q 900 -400 475 -425 
L 475 -50 
Q 925 -50 1275 -75 
L 2975 -75 
L 2975 300 
L 1725 300 
Q 1350 300 975 250 
L 975 650 
Q 1375 625 1725 625 
L 2975 625 
L 2975 950 
L 1150 950 
Q 1175 1375 1175 1775 
Q 1175 2175 1150 2500 
L 5250 2500 
z
M 5200 4950 
Q 5175 4575 5175 4250 
Q 5175 3925 5200 3400 
L 1200 3400 
Q 1225 3925 1225 4250 
Q 1225 4575 1200 4950 
L 5200 4950 
z
M 4900 3100 
Q 5500 3125 6000 3150 
L 6000 2750 
Q 5500 2775 4925 2775 
L 1650 2775 
Q 975 2775 325 2750 
L 325 3150 
Q 975 3125 1650 3100 
L 4900 3100 
z
M 4725 3700 
L 4725 4025 
L 1675 4025 
L 1675 3700 
L 4725 3700 
z
M 4725 4350 
L 4725 4650 
L 1675 4650 
L 1675 4350 
L 4725 4350 
z
M 4750 1875 
L 4750 2175 
L 3425 2175 
L 3425 1875 
L 4750 1875 
z
M 2975 1875 
L 2975 2175 
L 1650 2175 
L 1650 1875 
L 2975 1875 
z
M 2975 1275 
L 2975 1550 
L 1650 1550 
L 1650 1275 
L 2975 1275 
z
M 4750 1275 
L 4750 1550 
L 3425 1550 
L 3425 1275 
L 4750 1275 
z
" transform="scale(0.015625)"/>
      </defs>
      <use xlink:href="#SimHei-8d27"/>
      <use xlink:href="#SimHei-91cf" x="100"/>
     </g>
    </g>
   </g>
   <g id="PolyCollection_1">
    <defs>
     <path id="m0ec9ac06d9" d="M 110.556818 -293.027089 
L 110.556818 -195.678147 
L 112.864226 -193.77556 
L 115.171633 -169.196499 
L 117.479041 -173.21719 
L 119.786449 -170.996236 
L 122.093856 -185.404567 
L 124.401264 -173.722396 
L 126.708671 -191.939861 
L 129.016079 -174.595746 
L 131.323487 -175.015425 
L 133.630894 -172.972848 
L 135.938302 -185.895679 
L 138.245709 -171.362102 
L 140.553117 -177.81712 
L 142.860524 -177.77786 
L 145.167932 -179.387251 
L 147.47534 -170.768739 
L 149.782747 -177.171279 
L 152.090155 -164.15843 
L 154.397562 -197.30829 
L 156.70497 -186.291982 
L 159.012378 -190.209056 
L 161.319785 -188.046984 
L 163.627193 -198.935288 
L 165.9346 -190.317473 
L 168.242008 -187.8241 
L 170.549416 -185.072402 
L 172.856823 -185.811722 
L 175.164231 -188.371671 
L 177.471638 -186.247923 
L 179.779046 -186.308392 
L 182.086454 -186.861907 
L 184.393861 -198.34209 
L 186.701269 -197.660777 
L 189.008676 -192.769739 
L 191.316084 -197.676984 
L 193.623492 -190.733153 
L 195.930899 -197.168338 
L 198.238307 -194.124434 
L 200.545714 -189.552947 
L 202.853122 -170.084318 
L 205.160529 -119.888349 
L 207.467937 -149.023343 
L 209.775345 -153.966289 
L 212.082752 -162.08378 
L 214.39016 -171.190805 
L 216.697567 -165.648155 
L 219.004975 -158.173642 
L 221.312383 -174.530533 
L 223.61979 -176.39686 
L 225.927198 -179.410237 
L 228.234605 -166.454031 
L 230.542013 -168.641931 
L 232.849421 -172.360074 
L 235.156828 -174.644013 
L 237.464236 -175.012333 
L 239.771643 -162.681924 
L 242.079051 -175.773655 
L 244.386459 -168.33242 
L 246.693866 -176.603505 
L 249.001274 -179.273501 
L 251.308681 -172.446936 
L 253.616089 -173.485958 
L 255.923497 -183.161018 
L 258.230904 -171.412825 
L 260.538312 -163.532406 
L 262.845719 -188.601629 
L 265.153127 -175.18892 
L 267.460534 -166.141916 
L 269.767942 -168.426045 
L 272.07535 -174.087121 
L 274.382757 -166.178192 
L 276.690165 -164.199242 
L 278.997572 -168.656148 
L 281.30498 -170.312147 
L 283.612388 -170.560212 
L 285.919795 -174.060434 
L 288.227203 -170.621922 
L 290.53461 -178.954685 
L 292.842018 -164.640208 
L 295.149426 -167.958186 
L 297.456833 -178.720949 
L 299.764241 -171.012119 
L 302.071648 -177.746037 
L 304.379056 -167.006559 
L 306.686464 -164.729935 
L 308.993871 -173.339539 
L 311.301279 -173.169073 
L 313.608686 -171.330263 
L 315.916094 -170.604346 
L 318.223501 -168.827132 
L 320.530909 -171.06884 
L 322.838317 -164.945644 
L 325.145724 -163.085896 
L 327.453132 -168.027927 
L 329.760539 -172.14974 
L 332.067947 -177.727707 
L 334.375355 -175.115099 
L 336.682762 -174.231125 
L 338.99017 -171.47824 
L 341.297577 -163.438829 
L 343.604985 -174.753901 
L 345.912393 -172.915889 
L 348.2198 -173.18603 
L 350.527208 -170.757027 
L 352.834615 -177.202999 
L 355.142023 -173.761598 
L 357.449431 -169.294058 
L 359.756838 -171.867792 
L 362.064246 -185.476797 
L 364.371653 -178.654057 
L 366.679061 -178.564537 
L 368.986469 -178.145436 
L 371.293876 -174.635367 
L 373.601284 -190.858231 
L 375.908691 -178.323108 
L 378.216099 -179.644897 
L 380.523506 -179.093792 
L 382.830914 -175.146111 
L 385.138322 -168.595053 
L 387.445729 -168.42242 
L 389.753137 -154.992272 
L 392.060544 -157.860464 
L 394.367952 -163.219724 
L 396.67536 -162.208446 
L 398.982767 -183.784043 
L 401.290175 -188.624808 
L 403.597582 -178.930067 
L 405.90499 -174.476937 
L 408.212398 -189.910371 
L 410.519805 -185.785085 
L 412.827213 -175.603547 
L 415.13462 -178.031469 
L 417.442028 -177.597541 
L 419.749436 -180.381333 
L 422.056843 -169.36437 
L 424.364251 -187.895119 
L 426.671658 -189.264743 
L 428.979066 -183.935612 
L 431.286474 -180.449261 
L 433.593881 -181.281779 
L 435.901289 -176.374012 
L 438.208696 -177.356094 
L 440.516104 -195.081503 
L 442.823511 -193.067756 
L 445.130919 -183.909452 
L 447.438327 -174.039525 
L 449.745734 -177.068588 
L 452.053142 -172.36394 
L 454.360549 -165.882479 
L 456.667957 -175.368079 
L 458.975365 -291.19536 
L 461.282772 -226.449424 
L 463.59018 -215.977894 
L 465.897587 -193.607371 
L 468.204995 -197.983858 
L 470.512403 -195.318198 
L 472.81981 -199.476878 
L 475.127218 -210.152719 
L 477.434625 -198.643256 
L 479.742033 -189.148977 
L 482.049441 -185.016623 
L 484.356848 -184.509192 
L 486.664256 -190.469149 
L 488.971663 -180.435965 
L 491.279071 -184.921895 
L 493.586479 -228.094476 
L 495.893886 -210.239263 
L 498.201294 -335.964853 
L 500.508701 -243.701879 
L 502.816109 -192.157243 
L 505.123516 -187.941388 
L 507.430924 -178.976122 
L 509.738332 -172.463308 
L 512.045739 -177.03099 
L 514.353147 -168.419962 
L 516.660554 -167.209708 
L 518.967962 -172.754254 
L 521.27537 -177.144703 
L 523.582777 -174.24524 
L 525.890185 -179.194248 
L 528.197592 -172.992591 
L 530.505 -181.873363 
L 532.812408 -180.126335 
L 535.119815 -181.886775 
L 537.427223 -181.767214 
L 539.73463 -180.416439 
L 542.042038 -179.901819 
L 544.349446 -179.773909 
L 546.656853 -174.689795 
L 548.964261 -173.743025 
L 551.271668 -167.221876 
L 553.579076 -174.198286 
L 555.886484 -165.399718 
L 558.193891 -148.773266 
L 560.501299 -138.371051 
L 562.808706 -138.815219 
L 565.116114 -141.919363 
L 567.423521 -135.257985 
L 569.730929 -141.657482 
L 572.038337 -144.066881 
L 574.345744 -152.308874 
L 576.653152 -136.376104 
L 578.960559 -144.483667 
L 581.267967 -140.280968 
L 583.575375 -137.037243 
L 585.882782 -134.963505 
L 588.19019 -149.864739 
L 590.497597 -149.999058 
L 592.805005 -147.368489 
L 595.112413 -147.983704 
L 597.41982 -144.543231 
L 599.727228 -145.570974 
L 602.034635 -149.476547 
L 604.342043 -154.591537 
L 606.649451 -162.989246 
L 608.956858 -154.339471 
L 611.264266 -145.147729 
L 613.571673 -150.17459 
L 615.879081 -156.875418 
L 618.186489 -150.573082 
L 620.493896 -154.39948 
L 622.801304 -149.822694 
L 625.108711 -155.167364 
L 627.416119 -166.449586 
L 629.723526 -151.571758 
L 632.030934 -161.905328 
L 634.338342 -149.129327 
L 636.645749 -154.009178 
L 638.953157 -155.988952 
L 641.260564 -149.133555 
L 643.567972 -146.177146 
L 645.87538 -147.552408 
L 648.182787 -148.668334 
L 650.490195 -156.310235 
L 652.797602 -155.123564 
L 655.10501 -172.620624 
L 657.412418 -173.348793 
L 659.719825 -173.45113 
L 662.027233 -170.550163 
L 664.33464 -170.027536 
L 666.642048 -175.923258 
L 668.949456 -174.443082 
L 671.256863 -170.983998 
L 673.564271 -182.157289 
L 675.871678 -166.163497 
L 678.179086 -166.606866 
L 680.486494 -158.149498 
L 682.793901 -166.981127 
L 685.101309 -160.162311 
L 687.408716 -154.873071 
L 689.716124 -184.569918 
L 692.023531 -161.74631 
L 694.330939 -159.732885 
L 696.638347 -159.867159 
L 698.945754 -169.338588 
L 701.253162 -172.679266 
L 703.560569 -157.687107 
L 705.867977 -176.476982 
L 708.175385 -168.624074 
L 710.482792 -167.995004 
L 712.7902 -166.83748 
L 715.097607 -155.050148 
L 717.405015 -147.976356 
L 719.712423 -165.077028 
L 722.01983 -160.062697 
L 724.327238 -161.433016 
L 726.634645 -149.455512 
L 728.942053 -161.126346 
L 731.249461 -165.416184 
L 733.556868 -174.544975 
L 735.864276 -157.794565 
L 738.171683 -153.071713 
L 740.479091 -149.804515 
L 742.786499 -143.735243 
L 745.093906 -138.278572 
L 747.401314 -136.173548 
L 749.708721 -137.935152 
L 752.016129 -150.391961 
L 754.323536 -145.044413 
L 756.630944 -152.847597 
L 758.938352 -158.975674 
L 761.245759 -159.149698 
L 763.553167 -159.395587 
L 765.860574 -157.474709 
L 768.167982 -152.701701 
L 770.47539 -154.545163 
L 772.782797 -156.120804 
L 775.090205 -147.102594 
L 777.397612 -151.210856 
L 779.70502 -160.364596 
L 782.012428 -157.271936 
L 784.319835 -174.915371 
L 786.627243 -170.464943 
L 788.93465 -176.610885 
L 791.242058 -165.231568 
L 793.549466 -151.297187 
L 795.856873 -162.123373 
L 798.164281 -162.333184 
L 800.471688 -168.755417 
L 802.779096 -164.826141 
L 805.086503 -152.386032 
L 807.393911 -144.650022 
L 809.701319 -152.914278 
L 812.008726 -221.677306 
L 814.316134 -202.176234 
L 816.623541 -201.817577 
L 818.930949 -214.627847 
L 821.238357 -194.774034 
L 823.545764 -175.50791 
L 825.853172 -160.205994 
L 828.160579 -170.248289 
L 830.467987 -162.141429 
L 832.775395 -143.55841 
L 835.082802 -252.467969 
L 837.39021 -200.686683 
L 839.697617 -168.671814 
L 842.005025 -169.943787 
L 844.312433 -160.258189 
L 846.61984 -153.387711 
L 848.927248 -162.241795 
L 851.234655 -157.200394 
L 853.542063 -166.610326 
L 855.849471 -156.500175 
L 858.156878 -160.6803 
L 860.464286 -171.48233 
L 862.771693 -164.083766 
L 865.079101 -162.519875 
L 867.386508 -155.061611 
L 869.693916 -159.653686 
L 872.001324 -161.511946 
L 874.308731 -159.10173 
L 876.616139 -158.062636 
L 878.923546 -161.663181 
L 881.230954 -162.029559 
L 883.538362 -163.619065 
L 885.845769 -161.48424 
L 888.153177 -160.492552 
L 890.460584 -157.234014 
L 892.767992 -158.768456 
L 895.0754 -162.331516 
L 897.382807 -156.029411 
L 899.690215 -166.131837 
L 901.997622 -172.782587 
L 904.30503 -180.903193 
L 906.612438 -203.811602 
L 908.919845 -179.741682 
L 911.227253 -156.203861 
L 913.53466 -163.338667 
L 915.842068 -157.214207 
L 918.149476 -150.15464 
L 920.456883 -162.932632 
L 922.764291 -158.195735 
L 925.071698 -162.896618 
L 927.379106 -169.105512 
L 929.686513 -165.48214 
L 931.993921 -159.797306 
L 934.301329 -163.626694 
L 936.608736 -154.633998 
L 938.916144 -165.52522 
L 941.223551 -153.077818 
L 943.530959 -164.24344 
L 945.838367 -167.440812 
L 948.145774 -164.33955 
L 950.453182 -164.917737 
L 950.453182 -263.10171 
L 950.453182 -263.10171 
L 948.145774 -252.455073 
L 945.838367 -258.953013 
L 943.530959 -250.108047 
L 941.223551 -221.753828 
L 938.916144 -244.594366 
L 936.608736 -221.76253 
L 934.301329 -259.206477 
L 931.993921 -236.964613 
L 929.686513 -251.096446 
L 927.379106 -266.000625 
L 925.071698 -242.059292 
L 922.764291 -242.498354 
L 920.456883 -237.640166 
L 918.149476 -214.13101 
L 915.842068 -244.801956 
L 913.53466 -238.454167 
L 911.227253 -231.708709 
L 908.919845 -277.540599 
L 906.612438 -412.577384 
L 904.30503 -284.671105 
L 901.997622 -258.991357 
L 899.690215 -240.930412 
L 897.382807 -224.515804 
L 895.0754 -245.179014 
L 892.767992 -234.721173 
L 890.460584 -232.915658 
L 888.153177 -246.962563 
L 885.845769 -247.378862 
L 883.538362 -233.711828 
L 881.230954 -261.534714 
L 878.923546 -237.985788 
L 876.616139 -250.147108 
L 874.308731 -235.114931 
L 872.001324 -233.206825 
L 869.693916 -229.008105 
L 867.386508 -220.870494 
L 865.079101 -243.322857 
L 862.771693 -245.534129 
L 860.464286 -262.210789 
L 858.156878 -236.786301 
L 855.849471 -226.909792 
L 853.542063 -247.291652 
L 851.234655 -234.212368 
L 848.927248 -244.433668 
L 846.61984 -214.712391 
L 844.312433 -229.694553 
L 842.005025 -259.987824 
L 839.697617 -339.673622 
L 837.39021 -356.139653 
L 835.082802 -475.368012 
L 832.775395 -234.611536 
L 830.467987 -276.372813 
L 828.160579 -337.332339 
L 825.853172 -246.870649 
L 823.545764 -272.352647 
L 821.238357 -319.65853 
L 818.930949 -373.498847 
L 816.623541 -361.907996 
L 814.316134 -343.878965 
L 812.008726 -381.160857 
L 809.701319 -250.798168 
L 807.393911 -236.744698 
L 805.086503 -227.85797 
L 802.779096 -251.271218 
L 800.471688 -257.770855 
L 798.164281 -251.416758 
L 795.856873 -239.873752 
L 793.549466 -225.346835 
L 791.242058 -268.626125 
L 788.93465 -285.944128 
L 786.627243 -266.009806 
L 784.319835 -272.894279 
L 782.012428 -253.695696 
L 779.70502 -248.754661 
L 777.397612 -226.973605 
L 775.090205 -227.638703 
L 772.782797 -242.173082 
L 770.47539 -227.952745 
L 768.167982 -228.496934 
L 765.860574 -235.716612 
L 763.553167 -252.066399 
L 761.245759 -233.248517 
L 758.938352 -247.897436 
L 756.630944 -240.827796 
L 754.323536 -214.483024 
L 752.016129 -232.546028 
L 749.708721 -210.049935 
L 747.401314 -205.199863 
L 745.093906 -226.158424 
L 742.786499 -216.283712 
L 740.479091 -236.814525 
L 738.171683 -229.742657 
L 735.864276 -237.637792 
L 733.556868 -270.093959 
L 731.249461 -246.280556 
L 728.942053 -256.844547 
L 726.634645 -239.865168 
L 724.327238 -254.217412 
L 722.01983 -257.606388 
L 719.712423 -255.427646 
L 717.405015 -221.895291 
L 715.097607 -241.579728 
L 712.7902 -255.200358 
L 710.482792 -258.990823 
L 708.175385 -264.967849 
L 705.867977 -277.082601 
L 703.560569 -252.766793 
L 701.253162 -261.409159 
L 698.945754 -257.770632 
L 696.638347 -258.564689 
L 694.330939 -244.146821 
L 692.023531 -252.217152 
L 689.716124 -319.37614 
L 687.408716 -250.714436 
L 685.101309 -242.179117 
L 682.793901 -277.491623 
L 680.486494 -239.880816 
L 678.179086 -269.899494 
L 675.871678 -265.132595 
L 673.564271 -300.542827 
L 671.256863 -280.339036 
L 668.949456 -267.564099 
L 666.642048 -268.37359 
L 664.33464 -283.516409 
L 662.027233 -272.87682 
L 659.719825 -263.007874 
L 657.412418 -260.046106 
L 655.10501 -270.601649 
L 652.797602 -232.362829 
L 650.490195 -233.503706 
L 648.182787 -216.912506 
L 645.87538 -217.59805 
L 643.567972 -221.63928 
L 641.260564 -212.700003 
L 638.953157 -230.497291 
L 636.645749 -235.627052 
L 634.338342 -216.418345 
L 632.030934 -240.120273 
L 629.723526 -235.341745 
L 627.416119 -253.9307 
L 625.108711 -231.029843 
L 622.801304 -222.423485 
L 620.493896 -232.583572 
L 618.186489 -211.189702 
L 615.879081 -232.032592 
L 613.571673 -226.155296 
L 611.264266 -216.610011 
L 608.956858 -235.203861 
L 606.649451 -258.539205 
L 604.342043 -224.247017 
L 602.034635 -215.28104 
L 599.727228 -213.386968 
L 597.41982 -210.572646 
L 595.112413 -219.14638 
L 592.805005 -214.24789 
L 590.497597 -229.447631 
L 588.19019 -215.349082 
L 585.882782 -207.904313 
L 583.575375 -191.609839 
L 581.267967 -206.119731 
L 578.960559 -216.431524 
L 576.653152 -199.245233 
L 574.345744 -226.375064 
L 572.038337 -212.079763 
L 569.730929 -207.231494 
L 567.423521 -185.991833 
L 565.116114 -207.202765 
L 562.808706 -202.963315 
L 560.501299 -215.346893 
L 558.193891 -232.311291 
L 555.886484 -266.866282 
L 553.579076 -266.209857 
L 551.271668 -259.503848 
L 548.964261 -263.979737 
L 546.656853 -260.725282 
L 544.349446 -273.126358 
L 542.042038 -278.045327 
L 539.73463 -275.916378 
L 537.427223 -271.051026 
L 535.119815 -277.776753 
L 532.812408 -270.701166 
L 530.505 -285.516129 
L 528.197592 -273.733367 
L 525.890185 -265.851671 
L 523.582777 -258.243673 
L 521.27537 -268.453627 
L 518.967962 -265.521118 
L 516.660554 -243.905485 
L 514.353147 -252.154996 
L 512.045739 -267.47612 
L 509.738332 -267.120205 
L 507.430924 -262.903874 
L 505.123516 -277.160091 
L 502.816109 -303.057607 
L 500.508701 -401.114577 
L 498.201294 -538.380511 
L 495.893886 -314.715469 
L 493.586479 -345.861289 
L 491.279071 -282.524751 
L 488.971663 -284.915447 
L 486.664256 -298.360324 
L 484.356848 -294.179119 
L 482.049441 -280.117517 
L 479.742033 -289.386864 
L 477.434625 -312.105033 
L 475.127218 -332.941053 
L 472.81981 -301.807815 
L 470.512403 -311.037801 
L 468.204995 -302.502791 
L 465.897587 -293.060864 
L 463.59018 -380.261618 
L 461.282772 -346.564241 
L 458.975365 -516.624049 
L 456.667957 -275.118668 
L 454.360549 -246.528937 
L 452.053142 -267.288858 
L 449.745734 -261.364413 
L 447.438327 -262.135599 
L 445.130919 -276.684193 
L 442.823511 -300.674575 
L 440.516104 -300.849516 
L 438.208696 -288.414015 
L 435.901289 -278.117498 
L 433.593881 -283.583551 
L 431.286474 -286.916518 
L 428.979066 -290.90004 
L 426.671658 -306.580714 
L 424.364251 -279.511506 
L 422.056843 -251.742532 
L 419.749436 -276.686935 
L 417.442028 -270.138553 
L 415.13462 -270.529141 
L 412.827213 -270.66396 
L 410.519805 -298.430395 
L 408.212398 -306.672852 
L 405.90499 -265.444181 
L 403.597582 -272.253749 
L 401.290175 -286.107341 
L 398.982767 -280.789816 
L 396.67536 -238.814951 
L 394.367952 -250.178577 
L 392.060544 -238.480926 
L 389.753137 -238.33422 
L 387.445729 -255.051273 
L 385.138322 -267.228386 
L 382.830914 -252.770888 
L 380.523506 -290.873072 
L 378.216099 -266.297686 
L 375.908691 -275.276045 
L 373.601284 -285.265343 
L 371.293876 -265.908902 
L 368.986469 -260.75826 
L 366.679061 -282.233799 
L 364.371653 -266.468673 
L 362.064246 -270.678563 
L 359.756838 -259.062889 
L 357.449431 -257.484484 
L 355.142023 -265.094637 
L 352.834615 -289.970721 
L 350.527208 -260.200236 
L 348.2198 -268.441417 
L 345.912393 -258.807581 
L 343.604985 -251.166904 
L 341.297577 -269.422937 
L 338.99017 -275.805053 
L 336.682762 -269.244476 
L 334.375355 -289.159994 
L 332.067947 -267.872356 
L 329.760539 -262.279386 
L 327.453132 -254.979086 
L 325.145724 -242.698242 
L 322.838317 -273.317669 
L 320.530909 -248.43425 
L 318.223501 -248.590632 
L 315.916094 -255.95505 
L 313.608686 -269.813138 
L 311.301279 -271.117508 
L 308.993871 -266.432948 
L 306.686464 -242.999387 
L 304.379056 -261.492323 
L 302.071648 -268.632934 
L 299.764241 -253.90884 
L 297.456833 -279.337096 
L 295.149426 -268.164884 
L 292.842018 -247.710842 
L 290.53461 -259.990407 
L 288.227203 -264.974304 
L 285.919795 -274.189801 
L 283.612388 -251.25997 
L 281.30498 -259.866493 
L 278.997572 -249.00869 
L 276.690165 -249.866754 
L 274.382757 -248.428971 
L 272.07535 -269.696472 
L 269.767942 -238.917437 
L 267.460534 -248.662537 
L 265.153127 -286.709099 
L 262.845719 -302.056716 
L 260.538312 -257.85862 
L 258.230904 -275.55785 
L 255.923497 -271.459155 
L 253.616089 -260.790982 
L 251.308681 -259.379225 
L 249.001274 -254.942203 
L 246.693866 -273.308438 
L 244.386459 -250.104716 
L 242.079051 -261.53021 
L 239.771643 -244.730778 
L 237.464236 -259.777301 
L 235.156828 -258.865194 
L 232.849421 -280.058114 
L 230.542013 -251.785277 
L 228.234605 -272.454094 
L 225.927198 -284.289377 
L 223.61979 -283.895368 
L 221.312383 -262.79463 
L 219.004975 -258.176395 
L 216.697567 -278.929137 
L 214.39016 -266.482367 
L 212.082752 -257.173821 
L 209.775345 -241.878309 
L 207.467937 -231.325959 
L 205.160529 -189.058168 
L 202.853122 -275.280319 
L 200.545714 -288.565574 
L 198.238307 -308.505252 
L 195.930899 -297.183212 
L 193.623492 -296.478572 
L 191.316084 -313.377837 
L 189.008676 -300.247484 
L 186.701269 -307.601162 
L 184.393861 -306.841792 
L 182.086454 -276.695577 
L 179.779046 -292.134365 
L 177.471638 -283.108517 
L 175.164231 -284.707636 
L 172.856823 -288.138023 
L 170.549416 -271.093117 
L 168.242008 -280.526093 
L 165.9346 -289.834442 
L 163.627193 -310.632409 
L 161.319785 -274.178427 
L 159.012378 -285.609314 
L 156.70497 -285.776792 
L 154.397562 -319.367683 
L 152.090155 -243.613136 
L 149.782747 -281.278789 
L 147.47534 -257.662619 
L 145.167932 -261.805754 
L 142.860524 -277.356703 
L 140.553117 -281.417372 
L 138.245709 -265.473935 
L 135.938302 -298.479982 
L 133.630894 -262.882328 
L 131.323487 -261.288008 
L 129.016079 -266.705008 
L 126.708671 -308.36369 
L 124.401264 -275.291701 
L 122.093856 -279.011722 
L 119.786449 -279.625794 
L 117.479041 -280.184874 
L 115.171633 -255.340826 
L 112.864226 -289.507262 
L 110.556818 -293.027089 
z
" style="stroke: #4c72b0; stroke-opacity: 0.2"/>
    </defs>
    <g clip-path="url(#pd2bf6a4316)">
     <use xlink:href="#m0ec9ac06d9" x="0" y="576" style="fill: #4c72b0; fill-opacity: 0.2; stroke: #4c72b0; stroke-opacity: 0.2"/>
    </g>
   </g>
   <g id="PolyCollection_2">
    <defs>
     <path id="ma2d01210ac" d="M 110.556818 -257.373149 
L 110.556818 -166.481578 
L 112.864226 -167.045602 
L 115.171633 -145.389689 
L 117.479041 -159.455329 
L 119.786449 -153.961353 
L 122.093856 -165.366965 
L 124.401264 -164.922863 
L 126.708671 -152.454909 
L 129.016079 -158.75017 
L 131.323487 -187.103591 
L 133.630894 -166.035259 
L 135.938302 -170.949483 
L 138.245709 -164.252318 
L 140.553117 -164.27162 
L 142.860524 -163.826021 
L 145.167932 -171.632125 
L 147.47534 -172.151975 
L 149.782747 -168.067169 
L 152.090155 -186.167823 
L 154.397562 -184.095428 
L 156.70497 -181.428489 
L 159.012378 -187.383879 
L 161.319785 -182.812399 
L 163.627193 -172.837504 
L 165.9346 -184.241398 
L 168.242008 -177.809069 
L 170.549416 -163.456843 
L 172.856823 -168.344695 
L 175.164231 -170.984357 
L 177.471638 -139.379422 
L 179.779046 -97.030739 
L 182.086454 -124.858323 
L 184.393861 -123.888714 
L 186.701269 -126.757764 
L 189.008676 -126.54777 
L 191.316084 -136.699222 
L 193.623492 -133.020525 
L 195.930899 -151.505173 
L 198.238307 -152.735005 
L 200.545714 -159.597737 
L 202.853122 -151.771141 
L 205.160529 -165.537991 
L 207.467937 -153.830532 
L 209.775345 -149.025177 
L 212.082752 -156.337167 
L 214.39016 -155.335429 
L 216.697567 -148.6896 
L 219.004975 -152.929403 
L 221.312383 -159.670236 
L 223.61979 -169.300198 
L 225.927198 -154.329641 
L 228.234605 -160.867976 
L 230.542013 -164.349465 
L 232.849421 -153.890159 
L 235.156828 -158.018207 
L 237.464236 -156.855886 
L 239.771643 -162.711031 
L 242.079051 -156.859516 
L 244.386459 -158.26097 
L 246.693866 -160.966498 
L 249.001274 -157.969524 
L 251.308681 -156.102257 
L 253.616089 -167.495248 
L 255.923497 -172.96509 
L 258.230904 -154.164943 
L 260.538312 -162.191801 
L 262.845719 -172.489586 
L 265.153127 -167.303059 
L 267.460534 -155.752818 
L 269.767942 -158.92412 
L 272.07535 -159.925474 
L 274.382757 -159.879283 
L 276.690165 -164.72279 
L 278.997572 -159.368322 
L 281.30498 -162.499264 
L 283.612388 -150.369147 
L 285.919795 -159.337275 
L 288.227203 -159.471459 
L 290.53461 -154.271445 
L 292.842018 -157.791692 
L 295.149426 -163.105185 
L 297.456833 -155.7062 
L 299.764241 -146.028158 
L 302.071648 -147.407899 
L 304.379056 -148.658419 
L 306.686464 -146.340787 
L 308.993871 -155.739225 
L 311.301279 -153.079959 
L 313.608686 -151.951496 
L 315.916094 -150.382419 
L 318.223501 -157.447184 
L 320.530909 -158.479723 
L 322.838317 -145.680649 
L 325.145724 -149.254811 
L 327.453132 -149.54246 
L 329.760539 -162.085859 
L 332.067947 -164.318661 
L 334.375355 -164.113918 
L 336.682762 -175.351025 
L 338.99017 -172.666515 
L 341.297577 -173.920521 
L 343.604985 -171.300589 
L 345.912393 -156.456684 
L 348.2198 -167.774267 
L 350.527208 -167.241175 
L 352.834615 -145.963743 
L 355.142023 -155.740131 
L 357.449431 -175.719287 
L 359.756838 -170.928942 
L 362.064246 -158.383545 
L 364.371653 -165.825225 
L 366.679061 -163.598194 
L 368.986469 -180.082903 
L 371.293876 -197.80412 
L 373.601284 -223.708061 
L 375.908691 -225.745723 
L 378.216099 -192.206728 
L 380.523506 -175.70816 
L 382.830914 -155.200807 
L 385.138322 -153.821086 
L 387.445729 -145.262573 
L 389.753137 -144.641906 
L 392.060544 -151.714966 
L 394.367952 -160.224614 
L 396.67536 -164.085283 
L 398.982767 -167.000345 
L 401.290175 -157.530985 
L 403.597582 -159.008421 
L 405.90499 -174.829892 
L 408.212398 -174.365207 
L 410.519805 -172.939027 
L 412.827213 -175.349837 
L 415.13462 -172.306618 
L 417.442028 -160.540425 
L 419.749436 -156.049922 
L 422.056843 -164.992503 
L 424.364251 -175.996661 
L 426.671658 -161.423887 
L 428.979066 -176.782209 
L 431.286474 -157.907728 
L 433.593881 -170.338824 
L 435.901289 -170.504093 
L 438.208696 -164.422394 
L 440.516104 -165.257038 
L 442.823511 -169.152225 
L 445.130919 -167.95902 
L 447.438327 -162.619028 
L 449.745734 -157.757055 
L 452.053142 -147.953771 
L 454.360549 -147.596443 
L 456.667957 -173.687031 
L 458.975365 -266.367057 
L 461.282772 -194.780807 
L 463.59018 -190.880643 
L 465.897587 -176.128488 
L 468.204995 -166.439828 
L 470.512403 -177.058699 
L 472.81981 -194.692138 
L 475.127218 -185.80747 
L 477.434625 -180.016507 
L 479.742033 -178.193944 
L 482.049441 -174.965489 
L 484.356848 -171.258878 
L 486.664256 -178.012313 
L 488.971663 -161.349674 
L 491.279071 -188.263592 
L 493.586479 -219.94184 
L 495.893886 -213.815514 
L 498.201294 -310.246479 
L 500.508701 -222.031315 
L 502.816109 -199.280324 
L 505.123516 -162.561783 
L 507.430924 -162.901199 
L 509.738332 -167.532724 
L 512.045739 -164.144834 
L 514.353147 -162.960193 
L 516.660554 -156.233348 
L 518.967962 -159.429254 
L 521.27537 -162.44887 
L 523.582777 -157.886531 
L 525.890185 -153.861432 
L 528.197592 -162.879205 
L 530.505 -160.525127 
L 532.812408 -152.783754 
L 535.119815 -164.660359 
L 537.427223 -161.633045 
L 539.73463 -161.838721 
L 542.042038 -158.495582 
L 544.349446 -158.173006 
L 546.656853 -164.173877 
L 548.964261 -160.475635 
L 551.271668 -164.723934 
L 553.579076 -162.152124 
L 555.886484 -164.675369 
L 558.193891 -167.430694 
L 560.501299 -171.077196 
L 562.808706 -167.644775 
L 565.116114 -156.693338 
L 567.423521 -160.750628 
L 569.730929 -162.379091 
L 572.038337 -164.389248 
L 574.345744 -170.757192 
L 576.653152 -151.540484 
L 578.960559 -155.796966 
L 581.267967 -154.344823 
L 583.575375 -162.307601 
L 585.882782 -164.922883 
L 588.19019 -155.656819 
L 590.497597 -149.913981 
L 592.805005 -154.417269 
L 595.112413 -155.501105 
L 597.41982 -150.275413 
L 599.727228 -161.195312 
L 602.034635 -176.204338 
L 604.342043 -162.756266 
L 606.649451 -165.849804 
L 608.956858 -157.424056 
L 611.264266 -156.884118 
L 613.571673 -151.849802 
L 615.879081 -164.61175 
L 618.186489 -161.602314 
L 620.493896 -163.105695 
L 622.801304 -157.56367 
L 625.108711 -162.092399 
L 627.416119 -156.225622 
L 629.723526 -155.678723 
L 632.030934 -169.330093 
L 634.338342 -171.470743 
L 636.645749 -162.039731 
L 638.953157 -169.1877 
L 641.260564 -164.573119 
L 643.567972 -154.588107 
L 645.87538 -163.879869 
L 648.182787 -172.438412 
L 650.490195 -169.257439 
L 652.797602 -163.662927 
L 655.10501 -168.893974 
L 657.412418 -173.04607 
L 659.719825 -167.37087 
L 662.027233 -166.771072 
L 664.33464 -178.400247 
L 666.642048 -179.776992 
L 668.949456 -172.359652 
L 671.256863 -180.117962 
L 673.564271 -184.882059 
L 675.871678 -178.071103 
L 678.179086 -171.849094 
L 680.486494 -187.239776 
L 682.793901 -185.539401 
L 685.101309 -199.541848 
L 687.408716 -202.002998 
L 689.716124 -184.967417 
L 692.023531 -173.334819 
L 694.330939 -161.971643 
L 696.638347 -165.151688 
L 698.945754 -171.723116 
L 701.253162 -172.441764 
L 703.560569 -166.473424 
L 705.867977 -171.945164 
L 708.175385 -178.852307 
L 710.482792 -157.709904 
L 712.7902 -175.174565 
L 715.097607 -159.790652 
L 717.405015 -171.984302 
L 719.712423 -178.906285 
L 722.01983 -175.278133 
L 724.327238 -165.631962 
L 726.634645 -167.309283 
L 728.942053 -175.327306 
L 731.249461 -175.114502 
L 733.556868 -179.049552 
L 735.864276 -172.864912 
L 738.171683 -168.081814 
L 740.479091 -162.060377 
L 742.786499 -151.846221 
L 745.093906 -157.67874 
L 747.401314 -150.989427 
L 749.708721 -156.979478 
L 752.016129 -153.793891 
L 754.323536 -163.957066 
L 756.630944 -175.894015 
L 758.938352 -169.808656 
L 761.245759 -174.124042 
L 763.553167 -168.236521 
L 765.860574 -169.460409 
L 768.167982 -169.607357 
L 770.47539 -169.513036 
L 772.782797 -161.896183 
L 775.090205 -159.341676 
L 777.397612 -163.792225 
L 779.70502 -177.706446 
L 782.012428 -163.70262 
L 784.319835 -167.431635 
L 786.627243 -180.352767 
L 788.93465 -162.526798 
L 791.242058 -153.016553 
L 793.549466 -171.341729 
L 795.856873 -163.759246 
L 798.164281 -167.241663 
L 800.471688 -164.946951 
L 802.779096 -163.483729 
L 805.086503 -148.106647 
L 807.393911 -143.623934 
L 809.701319 -179.621811 
L 812.008726 -283.147925 
L 814.316134 -222.686217 
L 816.623541 -201.516902 
L 818.930949 -178.919215 
L 821.238357 -166.802555 
L 823.545764 -175.196226 
L 825.853172 -175.690566 
L 828.160579 -187.394183 
L 830.467987 -154.351963 
L 832.775395 -178.859928 
L 835.082802 -269.813973 
L 837.39021 -222.367165 
L 839.697617 -199.911864 
L 842.005025 -185.744781 
L 844.312433 -171.754687 
L 846.61984 -153.349713 
L 848.927248 -162.638069 
L 851.234655 -157.069647 
L 853.542063 -159.14971 
L 855.849471 -154.031997 
L 858.156878 -146.246724 
L 860.464286 -143.068298 
L 862.771693 -148.440215 
L 865.079101 -141.596783 
L 867.386508 -125.651717 
L 869.693916 -142.286447 
L 872.001324 -140.577715 
L 874.308731 -126.541212 
L 876.616139 -118.235594 
L 878.923546 -114.860126 
L 881.230954 -158.028111 
L 883.538362 -139.859898 
L 885.845769 -146.522121 
L 888.153177 -158.852186 
L 890.460584 -161.799054 
L 892.767992 -173.195643 
L 895.0754 -157.563865 
L 897.382807 -151.574976 
L 899.690215 -167.398855 
L 901.997622 -163.911563 
L 904.30503 -179.082096 
L 906.612438 -174.833155 
L 908.919845 -162.33443 
L 911.227253 -153.788871 
L 913.53466 -154.980186 
L 915.842068 -166.491733 
L 918.149476 -163.70258 
L 920.456883 -164.245121 
L 922.764291 -168.62218 
L 925.071698 -172.518186 
L 927.379106 -161.260904 
L 929.686513 -168.322169 
L 931.993921 -164.27148 
L 934.301329 -159.306361 
L 936.608736 -157.395064 
L 938.916144 -162.358972 
L 941.223551 -159.224342 
L 943.530959 -157.912106 
L 945.838367 -158.344176 
L 948.145774 -177.236855 
L 950.453182 -161.092661 
L 950.453182 -235.94733 
L 950.453182 -235.94733 
L 948.145774 -270.83483 
L 945.838367 -226.731961 
L 943.530959 -228.367918 
L 941.223551 -240.407438 
L 938.916144 -229.683758 
L 936.608736 -222.76306 
L 934.301329 -229.762692 
L 931.993921 -232.912315 
L 929.686513 -239.318798 
L 927.379106 -234.717538 
L 925.071698 -251.823766 
L 922.764291 -250.660804 
L 920.456883 -244.536372 
L 918.149476 -242.568006 
L 915.842068 -237.71681 
L 913.53466 -226.476977 
L 911.227253 -222.321117 
L 908.919845 -235.748179 
L 906.612438 -264.739139 
L 904.30503 -260.635229 
L 901.997622 -245.722729 
L 899.690215 -238.481813 
L 897.382807 -218.892967 
L 895.0754 -226.749718 
L 892.767992 -242.666548 
L 890.460584 -236.846891 
L 888.153177 -230.645696 
L 885.845769 -215.055307 
L 883.538362 -212.789613 
L 881.230954 -245.865403 
L 878.923546 -167.65445 
L 876.616139 -174.919534 
L 874.308731 -185.243532 
L 872.001324 -218.637223 
L 869.693916 -220.832976 
L 867.386508 -185.072461 
L 865.079101 -207.909053 
L 862.771693 -230.20389 
L 860.464286 -208.547754 
L 858.156878 -206.053066 
L 855.849471 -226.789417 
L 853.542063 -234.751904 
L 851.234655 -228.557208 
L 848.927248 -262.426066 
L 846.61984 -220.585492 
L 844.312433 -241.759185 
L 842.005025 -270.537111 
L 839.697617 -302.973989 
L 837.39021 -346.037585 
L 835.082802 -442.518443 
L 832.775395 -281.711842 
L 830.467987 -220.620915 
L 828.160579 -279.775488 
L 825.853172 -264.882573 
L 823.545764 -282.785774 
L 821.238357 -261.441967 
L 818.930949 -289.901617 
L 816.623541 -299.498415 
L 814.316134 -342.436324 
L 812.008726 -424.577179 
L 809.701319 -270.533481 
L 807.393911 -208.702226 
L 805.086503 -212.999038 
L 802.779096 -242.682516 
L 800.471688 -256.806764 
L 798.164281 -245.877563 
L 795.856873 -239.507579 
L 793.549466 -260.605537 
L 791.242058 -235.774637 
L 788.93465 -233.131743 
L 786.627243 -280.606008 
L 784.319835 -240.957437 
L 782.012428 -235.810172 
L 779.70502 -257.975793 
L 777.397612 -241.8149 
L 775.090205 -232.645277 
L 772.782797 -236.426501 
L 770.47539 -252.504735 
L 768.167982 -259.408981 
L 765.860574 -244.004741 
L 763.553167 -245.852849 
L 761.245759 -256.947713 
L 758.938352 -249.872675 
L 756.630944 -275.96403 
L 754.323536 -233.428881 
L 752.016129 -227.306865 
L 749.708721 -230.051457 
L 747.401314 -215.031303 
L 745.093906 -229.743974 
L 742.786499 -223.425908 
L 740.479091 -231.810393 
L 738.171683 -246.065241 
L 735.864276 -247.554685 
L 733.556868 -262.651503 
L 731.249461 -259.133042 
L 728.942053 -282.171704 
L 726.634645 -252.738148 
L 724.327238 -273.58621 
L 722.01983 -268.436604 
L 719.712423 -276.260211 
L 717.405015 -249.161296 
L 715.097607 -226.876719 
L 712.7902 -253.715511 
L 710.482792 -229.982078 
L 708.175385 -275.800208 
L 705.867977 -265.355011 
L 703.560569 -245.230918 
L 701.253162 -266.387821 
L 698.945754 -251.300869 
L 696.638347 -242.046366 
L 694.330939 -237.520663 
L 692.023531 -281.266269 
L 689.716124 -268.189366 
L 687.408716 -306.706793 
L 685.101309 -295.532628 
L 682.793901 -288.003889 
L 680.486494 -276.785787 
L 678.179086 -248.31079 
L 675.871678 -252.910464 
L 673.564271 -268.738898 
L 671.256863 -257.362764 
L 668.949456 -249.367809 
L 666.642048 -266.004149 
L 664.33464 -286.925811 
L 662.027233 -245.966197 
L 659.719825 -241.946127 
L 657.412418 -265.058187 
L 655.10501 -243.846869 
L 652.797602 -236.754243 
L 650.490195 -238.597368 
L 648.182787 -259.486299 
L 645.87538 -242.021131 
L 643.567972 -225.417042 
L 641.260564 -264.059298 
L 638.953157 -246.879727 
L 636.645749 -234.504691 
L 634.338342 -278.869802 
L 632.030934 -245.300872 
L 629.723526 -232.205094 
L 627.416119 -221.355525 
L 625.108711 -234.066386 
L 622.801304 -225.606499 
L 620.493896 -233.735113 
L 618.186489 -228.963991 
L 615.879081 -250.277302 
L 613.571673 -219.447142 
L 611.264266 -231.856549 
L 608.956858 -222.714574 
L 606.649451 -244.810906 
L 604.342043 -230.749457 
L 602.034635 -260.099776 
L 599.727228 -231.809911 
L 597.41982 -221.471998 
L 595.112413 -227.98031 
L 592.805005 -220.513241 
L 590.497597 -218.019944 
L 588.19019 -224.564367 
L 585.882782 -240.885839 
L 583.575375 -236.68712 
L 581.267967 -217.940424 
L 578.960559 -221.791394 
L 576.653152 -225.027282 
L 574.345744 -240.168636 
L 572.038337 -244.953224 
L 569.730929 -230.241796 
L 567.423521 -232.952253 
L 565.116114 -223.67435 
L 562.808706 -239.855485 
L 560.501299 -235.462311 
L 558.193891 -240.439868 
L 555.886484 -239.183542 
L 553.579076 -243.407438 
L 551.271668 -235.173673 
L 548.964261 -232.373855 
L 546.656853 -230.468653 
L 544.349446 -224.497806 
L 542.042038 -223.71602 
L 539.73463 -234.414476 
L 537.427223 -234.646412 
L 535.119815 -237.587889 
L 532.812408 -219.065924 
L 530.505 -235.539066 
L 528.197592 -233.960257 
L 525.890185 -223.100823 
L 523.582777 -232.350654 
L 521.27537 -238.468402 
L 518.967962 -226.455527 
L 516.660554 -243.986119 
L 514.353147 -229.403794 
L 512.045739 -239.855268 
L 509.738332 -261.862426 
L 507.430924 -240.881762 
L 505.123516 -235.455426 
L 502.816109 -309.751321 
L 500.508701 -348.940796 
L 498.201294 -476.590696 
L 495.893886 -318.664098 
L 493.586479 -336.113927 
L 491.279071 -292.492852 
L 488.971663 -231.638966 
L 486.664256 -254.265106 
L 484.356848 -257.584572 
L 482.049441 -274.173277 
L 479.742033 -252.688422 
L 477.434625 -262.172524 
L 475.127218 -263.733198 
L 472.81981 -308.369053 
L 470.512403 -251.266226 
L 468.204995 -247.776727 
L 465.897587 -264.0383 
L 463.59018 -287.59025 
L 461.282772 -313.322007 
L 458.975365 -433.015546 
L 456.667957 -253.713278 
L 454.360549 -215.555011 
L 452.053142 -216.257506 
L 449.745734 -230.684372 
L 447.438327 -232.205054 
L 445.130919 -246.387439 
L 442.823511 -272.880776 
L 440.516104 -242.300202 
L 438.208696 -261.067269 
L 435.901289 -259.344377 
L 433.593881 -256.006312 
L 431.286474 -236.284078 
L 428.979066 -288.05262 
L 426.671658 -250.266891 
L 424.364251 -277.446918 
L 422.056843 -260.836195 
L 419.749436 -225.103956 
L 417.442028 -243.743321 
L 415.13462 -271.9226 
L 412.827213 -256.973475 
L 410.519805 -260.884285 
L 408.212398 -247.515328 
L 405.90499 -257.473068 
L 403.597582 -255.738466 
L 401.290175 -232.776595 
L 398.982767 -250.099625 
L 396.67536 -249.561992 
L 394.367952 -235.223315 
L 392.060544 -226.062127 
L 389.753137 -211.267472 
L 387.445729 -207.036524 
L 385.138322 -223.753495 
L 382.830914 -234.891637 
L 380.523506 -280.878258 
L 378.216099 -307.596622 
L 375.908691 -345.52313 
L 373.601284 -348.160646 
L 371.293876 -301.85464 
L 368.986469 -267.612475 
L 366.679061 -247.505323 
L 364.371653 -241.801068 
L 362.064246 -228.778772 
L 359.756838 -262.609322 
L 357.449431 -272.778644 
L 355.142023 -244.169943 
L 352.834615 -219.689041 
L 350.527208 -266.12239 
L 348.2198 -271.827045 
L 345.912393 -233.15965 
L 343.604985 -277.882637 
L 341.297577 -260.891136 
L 338.99017 -272.306463 
L 336.682762 -258.469394 
L 334.375355 -248.801858 
L 332.067947 -245.104308 
L 329.760539 -239.885906 
L 327.453132 -215.49494 
L 325.145724 -224.405373 
L 322.838317 -209.94465 
L 320.530909 -225.238187 
L 318.223501 -229.271001 
L 315.916094 -213.263131 
L 313.608686 -230.990646 
L 311.301279 -242.985618 
L 308.993871 -247.694928 
L 306.686464 -212.580606 
L 304.379056 -217.487469 
L 302.071648 -212.237592 
L 299.764241 -209.665265 
L 297.456833 -232.31619 
L 295.149426 -233.856936 
L 292.842018 -240.804539 
L 290.53461 -223.721091 
L 288.227203 -234.825623 
L 285.919795 -248.315557 
L 283.612388 -242.577643 
L 281.30498 -254.865967 
L 278.997572 -238.966856 
L 276.690165 -260.815246 
L 274.382757 -230.518646 
L 272.07535 -230.102608 
L 269.767942 -240.723036 
L 267.460534 -233.299083 
L 265.153127 -255.009843 
L 262.845719 -264.577518 
L 260.538312 -235.015691 
L 258.230904 -242.633139 
L 255.923497 -252.675148 
L 253.616089 -248.596104 
L 251.308681 -225.404779 
L 249.001274 -243.909136 
L 246.693866 -262.400403 
L 244.386459 -228.03666 
L 242.079051 -230.948593 
L 239.771643 -245.710698 
L 237.464236 -230.924432 
L 235.156828 -224.529605 
L 232.849421 -246.664229 
L 230.542013 -239.581379 
L 228.234605 -243.585259 
L 225.927198 -222.390371 
L 223.61979 -252.514183 
L 221.312383 -248.533047 
L 219.004975 -253.361477 
L 216.697567 -224.110073 
L 214.39016 -222.380101 
L 212.082752 -230.869071 
L 209.775345 -226.72204 
L 207.467937 -222.357198 
L 205.160529 -248.710157 
L 202.853122 -217.931783 
L 200.545714 -253.214175 
L 198.238307 -220.124474 
L 195.930899 -244.52936 
L 193.623492 -189.85742 
L 191.316084 -194.711177 
L 189.008676 -180.762831 
L 186.701269 -180.228453 
L 184.393861 -185.591984 
L 182.086454 -179.299064 
L 179.779046 -143.882162 
L 177.471638 -206.228556 
L 175.164231 -273.779716 
L 172.856823 -257.407376 
L 170.549416 -261.767564 
L 168.242008 -276.235321 
L 165.9346 -276.297781 
L 163.627193 -258.791676 
L 161.319785 -271.98218 
L 159.012378 -304.123706 
L 156.70497 -276.203438 
L 154.397562 -297.317054 
L 152.090155 -278.78217 
L 149.782747 -251.084157 
L 147.47534 -276.176913 
L 145.167932 -257.183569 
L 142.860524 -239.477093 
L 140.553117 -262.69937 
L 138.245709 -263.339153 
L 135.938302 -274.046392 
L 133.630894 -261.803104 
L 131.323487 -292.689217 
L 129.016079 -229.702012 
L 126.708671 -224.99477 
L 124.401264 -240.7595 
L 122.093856 -264.389706 
L 119.786449 -242.114288 
L 117.479041 -253.191188 
L 115.171633 -222.242797 
L 112.864226 -247.636264 
L 110.556818 -257.373149 
z
" style="stroke: #dd8452; stroke-opacity: 0.2"/>
    </defs>
    <g clip-path="url(#pd2bf6a4316)">
     <use xlink:href="#ma2d01210ac" x="0" y="576" style="fill: #dd8452; fill-opacity: 0.2; stroke: #dd8452; stroke-opacity: 0.2"/>
    </g>
   </g>
   <g id="line2d_44">
    <path d="M 110.556818 336.06518 
L 112.864226 339.368684 
L 115.171633 368.21244 
L 117.479041 354.819818 
L 119.786449 358.059647 
L 122.093856 348.403355 
L 124.401264 358.253695 
L 126.708671 328.55543 
L 129.016079 356.978139 
L 131.323487 359.074377 
L 133.630894 362.987881 
L 135.938302 338.785029 
L 138.245709 363.055456 
L 140.553117 348.488918 
L 142.860524 349.91379 
L 145.167932 357.610186 
L 147.47534 366.694921 
L 149.782747 349.069469 
L 152.090155 372.726313 
L 154.397562 322.634434 
L 156.70497 341.088369 
L 159.012378 340.170901 
L 161.319785 346.776397 
L 163.627193 326.706487 
L 165.9346 340.699637 
L 168.242008 346.592219 
L 170.549416 349.075916 
L 172.856823 342.893616 
L 175.164231 339.992534 
L 177.471638 343.02367 
L 179.779046 340.636599 
L 182.086454 344.97306 
L 184.393861 327.831612 
L 186.701269 327.516583 
L 189.008676 333.981438 
L 191.316084 326.60023 
L 193.623492 332.776799 
L 198.238307 328.993987 
L 200.545714 342.071102 
L 202.853122 359.006883 
L 205.160529 425.515357 
L 207.467937 388.230216 
L 209.775345 384.547214 
L 212.082752 371.646158 
L 214.39016 360.838156 
L 216.697567 360.54032 
L 219.004975 372.292452 
L 221.312383 361.679055 
L 223.61979 352.062321 
L 225.927198 351.75955 
L 228.234605 357.46859 
L 230.542013 369.62983 
L 232.849421 353.310577 
L 235.156828 362.934236 
L 237.464236 361.431203 
L 239.771643 373.361624 
L 242.079051 361.445211 
L 244.386459 367.932909 
L 246.693866 354.569578 
L 249.001274 360.850334 
L 251.308681 361.645626 
L 253.616089 360.524879 
L 255.923497 352.775474 
L 258.230904 358.394017 
L 260.538312 368.591461 
L 262.845719 340.086453 
L 265.153127 351.852037 
L 267.460534 370.650052 
L 269.767942 373.734198 
L 272.07535 359.594119 
L 274.382757 372.998123 
L 276.690165 370.553745 
L 278.997572 371.618698 
L 281.30498 364.177159 
L 283.612388 366.989733 
L 285.919795 354.044981 
L 288.227203 360.258083 
L 290.53461 358.292616 
L 292.842018 374.498529 
L 295.149426 360.807274 
L 297.456833 353.6385 
L 299.764241 367.64534 
L 302.071648 356.885015 
L 304.379056 363.658531 
L 306.686464 373.646407 
L 308.993871 358.781157 
L 311.301279 357.335591 
L 315.916094 362.936464 
L 318.223501 367.964667 
L 320.530909 368.042111 
L 322.838317 364.588813 
L 325.145724 376.200146 
L 327.453132 366.647882 
L 329.760539 360.657958 
L 332.067947 356.920513 
L 334.375355 350.601871 
L 336.682762 356.932612 
L 338.99017 358.466924 
L 341.297577 365.80953 
L 343.604985 365.203987 
L 345.912393 362.080602 
L 348.2198 357.076595 
L 350.527208 363.231834 
L 352.834615 353.39789 
L 355.142023 358.984835 
L 357.449431 366.080782 
L 359.756838 363.112603 
L 362.064246 349.824328 
L 364.371653 355.658807 
L 366.679061 348.667286 
L 368.986469 358.47162 
L 371.293876 357.891547 
L 373.601284 341.820624 
L 375.908691 352.102038 
L 378.216099 355.3004 
L 380.523506 346.579802 
L 382.830914 361.824551 
L 385.138322 363.200394 
L 387.445729 367.007244 
L 389.753137 381.378381 
L 392.060544 381.53693 
L 394.367952 371.485539 
L 396.67536 374.651825 
L 398.982767 347.25276 
L 401.290175 343.235149 
L 403.597582 353.636192 
L 405.90499 355.877448 
L 408.212398 329.619587 
L 410.519805 339.125289 
L 412.827213 355.942317 
L 415.13462 356.335108 
L 417.442028 356.104288 
L 419.749436 349.687587 
L 422.056843 366.503421 
L 424.364251 342.942724 
L 426.671658 336.087148 
L 431.286474 349.029354 
L 433.593881 348.998074 
L 435.901289 351.871139 
L 438.208696 348.002685 
L 440.516104 333.190921 
L 442.823511 332.523057 
L 445.130919 348.602815 
L 447.438327 360.998775 
L 449.745734 360.145618 
L 452.053142 356.988725 
L 454.360549 371.78059 
L 456.667957 352.742363 
L 458.975365 187.96808 
L 461.282772 293.932194 
L 463.59018 290.159172 
L 465.897587 334.213531 
L 468.204995 328.052721 
L 470.512403 324.855792 
L 472.81981 326.785124 
L 475.127218 308.998814 
L 477.434625 327.516583 
L 479.742033 340.332395 
L 482.049441 345.82749 
L 484.356848 340.961816 
L 486.664256 334.764393 
L 488.971663 346.765174 
L 491.279071 344.825495 
L 493.586479 289.235257 
L 495.893886 316.565713 
L 498.201294 145.650279 
L 500.508701 260.632987 
L 502.816109 334.027204 
L 505.123516 345.6652 
L 507.430924 358.916226 
L 509.738332 359.800424 
L 512.045739 356.298813 
L 514.353147 367.487189 
L 516.660554 374.150867 
L 518.967962 360.442261 
L 521.27537 356.032575 
L 523.582777 363.094775 
L 525.890185 354.572045 
L 528.197592 356.870529 
L 530.505 344.512217 
L 532.812408 352.616845 
L 535.119815 349.400495 
L 537.427223 351.289872 
L 539.73463 352.333256 
L 542.042038 350.678439 
L 544.349446 352.84265 
L 546.656853 359.90485 
L 548.964261 360.087754 
L 551.271668 364.248713 
L 553.579076 359.618156 
L 555.886484 365.469349 
L 558.193891 388.833451 
L 560.501299 401.482277 
L 562.808706 406.503874 
L 565.116114 405.075738 
L 567.423521 415.444068 
L 569.730929 404.40286 
L 572.038337 398.708225 
L 574.345744 389.410102 
L 576.653152 409.83038 
L 578.960559 399.199871 
L 581.267967 405.034668 
L 583.575375 412.816786 
L 585.882782 408.723879 
L 588.19019 394.743384 
L 590.497597 391.033081 
L 592.805005 397.134435 
L 595.112413 396.448821 
L 597.41982 402.111857 
L 599.727228 398.57443 
L 602.034635 396.618434 
L 604.342043 389.99511 
L 606.649451 369.909122 
L 608.956858 385.800404 
L 611.264266 397.563759 
L 613.571673 389.162807 
L 615.879081 386.091077 
L 618.186489 397.168739 
L 620.493896 384.559391 
L 622.801304 394.079898 
L 625.108711 386.384218 
L 627.416119 370.713249 
L 629.723526 385.491743 
L 632.030934 378.329972 
L 634.338342 395.060244 
L 636.645749 382.427893 
L 638.953157 385.231553 
L 641.260564 397.508522 
L 643.567972 393.862211 
L 645.87538 396.966573 
L 648.182787 395.545442 
L 650.490195 385.150687 
L 652.797602 384.439445 
L 655.10501 361.425074 
L 657.412418 361.963361 
L 659.719825 361.65072 
L 662.027233 359.987547 
L 664.33464 357.421232 
L 666.642048 357.425371 
L 668.949456 357.933731 
L 671.256863 354.635003 
L 673.564271 340.331281 
L 675.871678 363.326549 
L 678.179086 366.136895 
L 680.486494 380.246968 
L 682.793901 357.153562 
L 685.101309 377.531417 
L 687.408716 376.090705 
L 689.716124 335.323852 
L 692.023531 373.448061 
L 694.330939 378.439333 
L 696.638347 369.934989 
L 698.945754 364.253409 
L 701.253162 362.096998 
L 703.560569 375.471552 
L 705.867977 351.413082 
L 708.175385 363.117697 
L 710.482792 365.942529 
L 712.7902 367.997698 
L 715.097607 382.774043 
L 717.405015 393.198088 
L 719.712423 372.687949 
L 722.01983 371.819909 
L 724.327238 372.633587 
L 726.634645 387.214054 
L 728.942053 371.218107 
L 731.249461 374.1796 
L 733.556868 358.691615 
L 735.864276 380.452636 
L 738.171683 387.950925 
L 740.479091 387.030194 
L 742.786499 398.975499 
L 745.093906 398.049037 
L 747.401314 406.24456 
L 749.708721 404.227994 
L 752.016129 387.26372 
L 754.323536 399.781138 
L 756.630944 381.686406 
L 758.938352 377.158603 
L 761.245759 383.276672 
L 763.553167 371.902845 
L 765.860574 381.872971 
L 768.167982 389.193291 
L 770.47539 385.77581 
L 772.782797 381.305792 
L 775.090205 392.506823 
L 777.397612 390.594365 
L 779.70502 372.546353 
L 782.012428 372.843315 
L 784.319835 355.173847 
L 786.627243 362.276002 
L 788.93465 348.995208 
L 791.242058 366.205186 
L 793.549466 389.424349 
L 795.856873 378.23454 
L 798.164281 374.788963 
L 800.471688 366.861907 
L 802.779096 371.596014 
L 805.086503 388.38208 
L 807.393911 389.518109 
L 809.701319 378.728176 
L 812.008726 279.658558 
L 814.316134 307.395017 
L 816.623541 300.852002 
L 818.930949 291.106009 
L 821.238357 324.364863 
L 823.545764 354.502003 
L 825.853172 376.857106 
L 828.160579 335.943483 
L 830.467987 363.160677 
L 832.775395 392.377564 
L 835.082802 222.419793 
L 837.39021 306.487817 
L 839.697617 337.068847 
L 842.005025 365.96593 
L 844.312433 383.961808 
L 846.61984 392.561902 
L 848.927248 376.470443 
L 851.234655 382.402344 
L 853.542063 371.703305 
L 855.849471 385.9498 
L 858.156878 381.092961 
L 860.464286 361.251084 
L 862.771693 375.861319 
L 865.079101 377.147301 
L 867.386508 389.139486 
L 869.693916 383.871231 
L 872.001324 380.928681 
L 874.308731 379.483353 
L 876.616139 377.539535 
L 878.923546 379.199366 
L 881.230954 371.03568 
L 883.538362 379.751979 
L 885.845769 373.615366 
L 888.153177 374.26564 
L 890.460584 381.579273 
L 892.767992 381.006045 
L 895.0754 373.217083 
L 897.382807 388.579072 
L 899.690215 374.528933 
L 901.997622 362.185903 
L 904.30503 349.051481 
L 906.612438 287.577815 
L 908.919845 349.380916 
L 911.227253 384.221679 
L 913.53466 377.512076 
L 915.842068 381.453119 
L 918.149476 394.89087 
L 920.456883 378.413227 
L 922.764291 377.277993 
L 925.071698 377.274172 
L 927.379106 365.303239 
L 929.686513 370.850069 
L 931.993921 379.06947 
L 934.301329 371.349992 
L 936.608736 388.388686 
L 938.916144 375.514453 
L 941.223551 391.433035 
L 943.530959 370.991585 
L 945.838367 365.174537 
L 948.145774 370.20075 
L 950.453182 367.224771 
L 950.453182 367.224771 
" clip-path="url(#pd2bf6a4316)" style="fill: none; stroke: #4c72b0; stroke-width: 1.5; stroke-linecap: round"/>
   </g>
   <g id="line2d_45">
    <path d="M 110.556818 367.704876 
L 112.864226 372.494538 
L 115.171633 396.338506 
L 117.479041 374.577883 
L 119.786449 381.040748 
L 122.093856 370.517848 
L 124.401264 376.395865 
L 126.708671 388.730776 
L 129.016079 385.155383 
L 131.323487 339.461569 
L 133.630894 366.641594 
L 135.938302 360.279016 
L 138.245709 366.552291 
L 140.553117 368.890173 
L 142.860524 376.349542 
L 145.167932 362.558875 
L 147.47534 358.474565 
L 149.782747 368.703528 
L 152.090155 345.511665 
L 154.397562 340.661273 
L 156.70497 350.168885 
L 159.012378 332.738197 
L 161.319785 351.65783 
L 163.627193 361.522496 
L 165.9346 346.822242 
L 168.242008 351.814946 
L 170.549416 367.239973 
L 175.164231 361.652631 
L 177.471638 404.95802 
L 179.779046 457.84186 
L 182.086454 424.703191 
L 184.393861 423.994894 
L 186.701269 424.01917 
L 189.008676 425.003177 
L 191.316084 413.759882 
L 193.623492 416.054466 
L 195.930899 386.838136 
L 198.238307 390.271775 
L 200.545714 376.592857 
L 202.853122 392.537626 
L 205.160529 370.30438 
L 207.467937 389.500838 
L 209.775345 391.460972 
L 212.082752 387.53545 
L 214.39016 389.157713 
L 216.697567 393.55745 
L 219.004975 377.774573 
L 221.312383 376.153504 
L 223.61979 368.443259 
L 225.927198 389.08194 
L 228.234605 376.842699 
L 230.542013 376.163612 
L 232.849421 384.175594 
L 235.156828 386.262839 
L 237.464236 384.017284 
L 239.771643 376.647537 
L 242.079051 383.734172 
L 244.386459 386.108588 
L 246.693866 369.877046 
L 249.001274 377.432642 
L 251.308681 387.849842 
L 253.616089 369.236084 
L 255.923497 364.646836 
L 258.230904 382.4969 
L 260.538312 380.384425 
L 262.845719 361.753793 
L 265.153127 370.560988 
L 267.460534 385.237603 
L 269.767942 379.318437 
L 272.07535 384.35826 
L 274.382757 384.30939 
L 276.690165 369.569578 
L 278.997572 380.646285 
L 281.30498 372.029477 
L 283.612388 384.282328 
L 285.919795 375.409868 
L 288.227203 381.411014 
L 290.53461 389.625321 
L 292.842018 381.358562 
L 295.149426 378.975073 
L 297.456833 385.569107 
L 299.764241 398.618683 
L 302.071648 398.252079 
L 304.379056 395.747608 
L 306.686464 399.276201 
L 308.993871 377.740666 
L 311.301279 380.33062 
L 313.608686 387.821586 
L 315.916094 395.844791 
L 318.223501 385.753603 
L 320.530909 387.215486 
L 322.838317 400.209746 
L 325.145724 391.405576 
L 327.453132 393.718785 
L 329.760539 377.673092 
L 332.067947 372.766348 
L 334.375355 373.87858 
L 336.682762 361.079402 
L 338.99017 356.926165 
L 341.297577 361.348028 
L 343.604985 357.250824 
L 345.912393 383.061373 
L 348.2198 361.606228 
L 350.527208 362.797973 
L 352.834615 396.86557 
L 355.142023 379.306975 
L 357.449431 356.065447 
L 359.756838 362.91378 
L 362.064246 383.87728 
L 364.371653 374.499086 
L 366.679061 372.495812 
L 368.986469 356.605724 
L 371.293876 329.960563 
L 373.601284 295.322523 
L 375.908691 296.494847 
L 378.216099 329.388927 
L 380.523506 355.359856 
L 382.830914 385.847841 
L 385.138322 389.043258 
L 387.445729 403.497888 
L 389.753137 399.295064 
L 392.060544 387.972654 
L 394.367952 381.897566 
L 396.67536 374.439391 
L 398.982767 369.70616 
L 401.290175 380.848611 
L 403.597582 375.188679 
L 405.90499 361.200622 
L 408.212398 366.499441 
L 410.519805 362.020111 
L 412.827213 361.702137 
L 415.13462 356.548496 
L 417.442028 376.820334 
L 419.749436 386.111055 
L 422.056843 366.936167 
L 424.364251 354.649648 
L 426.671658 373.286727 
L 428.979066 351.886023 
L 431.286474 380.088259 
L 433.593881 367.831747 
L 435.901289 363.130591 
L 438.208696 367.636983 
L 440.516104 375.165995 
L 442.823511 360.06308 
L 445.130919 370.105796 
L 447.438327 380.776022 
L 449.745734 383.359687 
L 452.053142 396.390002 
L 454.360549 396.188234 
L 456.667957 363.999746 
L 458.975365 234.281445 
L 461.282772 324.10547 
L 463.59018 339.764818 
L 465.897587 357.428157 
L 468.204995 371.331129 
L 470.512403 364.102421 
L 472.81981 328.892347 
L 475.127218 352.688797 
L 477.434625 358.133669 
L 479.742033 360.688203 
L 482.049441 356.07078 
L 484.356848 364.361973 
L 486.664256 362.595488 
L 488.971663 379.942923 
L 493.586479 302.883452 
L 495.893886 314.097934 
L 498.201294 190.537259 
L 500.508701 295.440958 
L 502.816109 327.231083 
L 505.123516 377.595887 
L 507.430924 376.00379 
L 509.738332 365.315417 
L 512.045739 377.517329 
L 514.353147 380.865086 
L 516.660554 377.31954 
L 518.967962 383.129345 
L 521.27537 378.202226 
L 523.582777 383.98879 
L 525.890185 389.28339 
L 528.197592 379.341678 
L 530.505 380.081096 
L 532.812408 392.194899 
L 535.119815 376.144431 
L 537.427223 380.70216 
L 539.73463 380.29934 
L 542.042038 388.131442 
L 544.349446 385.479326 
L 546.656853 379.856485 
L 548.964261 381.867241 
L 551.271668 378.100188 
L 553.579076 376.09763 
L 555.886484 378.481995 
L 558.193891 374.511104 
L 560.501299 372.167889 
L 562.808706 375.306476 
L 565.116114 387.722812 
L 567.423521 380.81343 
L 569.730929 379.679948 
L 572.038337 372.626344 
L 574.345744 373.873167 
L 576.653152 389.353989 
L 578.960559 390.076294 
L 581.267967 391.272576 
L 583.575375 378.211538 
L 585.882782 375.890131 
L 588.19019 390.490974 
L 590.497597 395.537403 
L 592.805005 389.663446 
L 595.112413 387.246448 
L 597.41982 391.20532 
L 599.727228 379.909414 
L 602.034635 358.462069 
L 604.342043 380.012646 
L 606.649451 372.952914 
L 608.956858 387.759424 
L 611.264266 383.303893 
L 613.571673 392.106232 
L 615.879081 370.106831 
L 618.186489 380.933218 
L 620.493896 379.345498 
L 622.801304 385.791569 
L 625.108711 380.549023 
L 627.416119 387.922908 
L 629.723526 385.307803 
L 632.030934 370.397743 
L 634.338342 358.782351 
L 636.645749 381.80667 
L 638.953157 368.43729 
L 641.260564 365.544008 
L 643.567972 386.916217 
L 645.87538 375.626679 
L 648.182787 363.333394 
L 650.490195 373.606292 
L 652.797602 376.944817 
L 655.10501 373.165427 
L 657.412418 362.488993 
L 659.719825 374.139963 
L 662.027233 372.875868 
L 664.33464 348.567317 
L 666.642048 357.099598 
L 668.949456 366.903057 
L 673.564271 351.063828 
L 675.871678 363.467349 
L 678.179086 366.39796 
L 680.486494 345.093007 
L 682.793901 343.294525 
L 685.101309 332.208267 
L 687.408716 327.347926 
L 689.716124 348.948249 
L 692.023531 359.233165 
L 694.330939 378.675724 
L 696.638347 373.613774 
L 698.945754 365.743865 
L 701.253162 360.446082 
L 703.560569 371.593228 
L 705.867977 361.416797 
L 708.175385 354.628397 
L 710.482792 384.673687 
L 712.7902 364.577431 
L 715.097607 383.234965 
L 719.712423 354.213797 
L 724.327238 364.637206 
L 726.634645 370.318866 
L 728.942053 356.078022 
L 731.249461 362.802669 
L 733.556868 359.981179 
L 735.864276 366.493233 
L 738.171683 369.867654 
L 740.479091 381.027376 
L 742.786499 391.630267 
L 745.093906 386.534967 
L 747.401314 392.280859 
L 749.708721 385.143524 
L 752.016129 387.963182 
L 754.323536 378.492819 
L 756.630944 354.822524 
L 758.938352 367.433384 
L 761.245759 361.930649 
L 763.553167 370.805736 
L 765.860574 371.752653 
L 768.167982 367.149317 
L 770.47539 369.915171 
L 772.782797 379.924298 
L 775.090205 380.653528 
L 777.397612 374.133914 
L 779.70502 362.868731 
L 782.012428 379.82218 
L 784.319835 372.070706 
L 786.627243 350.864925 
L 788.93465 379.762247 
L 791.242058 386.983473 
L 793.549466 363.550285 
L 795.856873 375.646259 
L 800.471688 368.287337 
L 802.779096 375.098659 
L 805.086503 397.434739 
L 807.393911 401.250582 
L 809.701319 355.633576 
L 812.008726 231.19324 
L 814.316134 297.654994 
L 816.623541 326.540376 
L 821.238357 367.946281 
L 823.545764 349.201991 
L 825.853172 359.397922 
L 828.160579 345.492404 
L 830.467987 389.848181 
L 832.775395 349.38792 
L 835.082802 231.423502 
L 837.39021 295.967704 
L 839.697617 326.759495 
L 842.005025 350.676449 
L 846.61984 391.675157 
L 848.927248 367.616209 
L 851.234655 384.730436 
L 853.542063 382.969921 
L 855.849471 387.486659 
L 858.156878 401.777806 
L 860.464286 402.929356 
L 862.771693 392.892133 
L 865.079101 402.630246 
L 867.386508 424.183768 
L 869.693916 397.468884 
L 872.001324 400.055654 
L 874.308731 423.001017 
L 876.616139 431.352622 
L 878.923546 436.620877 
L 881.230954 378.708835 
L 883.538362 403.290071 
L 885.845769 397.914366 
L 888.153177 383.955202 
L 890.460584 378.62176 
L 892.767992 370.098075 
L 895.0754 385.254317 
L 897.382807 394.750945 
L 899.690215 373.533942 
L 901.997622 373.451325 
L 904.30503 360.511268 
L 906.612438 359.986671 
L 908.919845 380.644375 
L 911.227253 388.372608 
L 913.53466 387.446385 
L 915.842068 374.437959 
L 918.149476 375.970679 
L 920.456883 373.763886 
L 922.764291 369.083107 
L 925.071698 366.506604 
L 927.379106 381.48217 
L 929.686513 373.87269 
L 931.993921 377.617695 
L 934.301329 384.599745 
L 936.608736 387.667972 
L 938.916144 381.694524 
L 941.223551 376.921337 
L 943.530959 384.794111 
L 945.838367 385.465397 
L 948.145774 356.738087 
L 950.453182 379.074166 
L 950.453182 379.074166 
" clip-path="url(#pd2bf6a4316)" style="fill: none; stroke: #dd8452; stroke-width: 1.5; stroke-linecap: round"/>
   </g>
   <g id="line2d_46"/>
   <g id="line2d_47"/>
   <g id="patch_3">
    <path d="M 68.562 501.03675 
L 68.562 15.552 
" style="fill: none; stroke: #cccccc; stroke-width: 1.25; stroke-linejoin: miter; stroke-linecap: square"/>
   </g>
   <g id="patch_4">
    <path d="M 992.448 501.03675 
L 992.448 15.552 
" style="fill: none; stroke: #cccccc; stroke-width: 1.25; stroke-linejoin: miter; stroke-linecap: square"/>
   </g>
   <g id="patch_5">
    <path d="M 68.562 501.03675 
L 992.448 501.03675 
" style="fill: none; stroke: #cccccc; stroke-width: 1.25; stroke-linejoin: miter; stroke-linecap: square"/>
   </g>
   <g id="patch_6">
    <path d="M 68.562 15.552 
L 992.448 15.552 
" style="fill: none; stroke: #cccccc; stroke-width: 1.25; stroke-linejoin: miter; stroke-linecap: square"/>
   </g>
   <g id="legend_1">
    <g id="patch_7">
     <path d="M 914.568 80.967 
L 983.208 80.967 
Q 985.848 80.967 985.848 78.327 
L 985.848 24.792 
Q 985.848 22.152 983.208 22.152 
L 914.568 22.152 
Q 911.928 22.152 911.928 24.792 
L 911.928 78.327 
Q 911.928 80.967 914.568 80.967 
z
" style="fill: #ffffff; opacity: 0.8; stroke: #cccccc; stroke-linejoin: miter"/>
    </g>
    <g id="text_46">
     <!-- 年份 -->
     <g style="fill: #262626" transform="translate(934.488 38.907) scale(0.144 -0.144)">
      <defs>
       <path id="SimHei-5e74" d="M 350 2925 
Q 900 3450 1375 4200 
Q 1850 4950 1900 5275 
Q 2275 5125 2600 5050 
Q 2375 4825 2100 4325 
L 4625 4325 
Q 5175 4325 5750 4350 
L 5750 3925 
Q 5225 3950 4625 3950 
L 3800 3950 
L 3800 2925 
Q 4750 2925 5475 2950 
L 5475 2525 
Q 4725 2550 3800 2550 
L 3800 1375 
L 5075 1375 
Q 5625 1375 6100 1400 
L 6100 975 
Q 5650 1000 5075 1000 
L 3800 1000 
L 3800 425 
Q 3800 -150 3825 -625 
L 3275 -625 
Q 3300 -150 3300 375 
L 3300 1000 
L 1600 1000 
Q 900 1000 275 975 
L 275 1400 
Q 875 1375 1450 1375 
Q 1450 2350 1425 2925 
L 3300 2925 
L 3300 3950 
L 1875 3950 
Q 1350 3150 925 2650 
Q 650 2875 350 2925 
z
M 3300 1375 
L 3300 2550 
L 1925 2550 
L 1925 1375 
L 3300 1375 
z
" transform="scale(0.015625)"/>
       <path id="SimHei-4efd" d="M 4750 5100 
Q 4875 4375 5250 3650 
Q 5625 2925 6200 2450 
Q 6025 2375 5775 2075 
Q 5600 2275 5350 2575 
Q 5300 2275 5275 1312 
Q 5250 350 5187 25 
Q 5125 -300 4850 -400 
Q 4575 -500 4075 -550 
Q 4000 -250 3875 0 
Q 4400 -25 4575 25 
Q 4750 75 4775 587 
Q 4800 1100 4825 2250 
L 3700 2250 
Q 3675 1300 3425 650 
Q 3175 0 2375 -625 
Q 2175 -350 2000 -225 
Q 2750 225 2987 800 
Q 3225 1375 3225 2250 
Q 3000 2250 2675 2225 
L 2675 2575 
Q 2475 2300 2150 1950 
Q 2000 2150 1750 2300 
Q 2875 3275 3225 4875 
Q 3450 4775 3750 4675 
Q 3625 4400 3425 3887 
Q 3225 3375 2775 2700 
Q 3050 2675 3400 2675 
L 5300 2675 
Q 4575 3625 4275 4975 
Q 4575 5025 4750 5100 
z
M 225 2525 
Q 575 2875 1025 3687 
Q 1475 4500 1650 5225 
Q 1975 5075 2200 4975 
Q 2050 4750 1600 3775 
L 1600 625 
Q 1600 75 1625 -575 
L 1100 -575 
Q 1125 50 1125 625 
L 1125 2925 
Q 775 2400 575 2175 
Q 425 2350 225 2525 
z
" transform="scale(0.015625)"/>
      </defs>
      <use xlink:href="#SimHei-5e74"/>
      <use xlink:href="#SimHei-4efd" x="100"/>
     </g>
    </g>
    <g id="line2d_48">
     <path d="M 917.208 51.927 
L 930.408 51.927 
L 943.608 51.927 
" style="fill: none; stroke: #4c72b0; stroke-width: 1.5; stroke-linecap: round"/>
    </g>
    <g id="text_47">
     <!-- 2021 -->
     <g style="fill: #262626" transform="translate(954.168 56.547) scale(0.132 -0.132)">
      <use xlink:href="#SimHei-32"/>
      <use xlink:href="#SimHei-30" x="50"/>
      <use xlink:href="#SimHei-32" x="100"/>
      <use xlink:href="#SimHei-31" x="150"/>
     </g>
    </g>
    <g id="line2d_49">
     <path d="M 917.208 69.417 
L 930.408 69.417 
L 943.608 69.417 
" style="fill: none; stroke: #dd8452; stroke-width: 1.5; stroke-linecap: round"/>
    </g>
    <g id="text_48">
     <!-- 2022 -->
     <g style="fill: #262626" transform="translate(954.168 74.037) scale(0.132 -0.132)">
      <use xlink:href="#SimHei-32"/>
      <use xlink:href="#SimHei-30" x="50"/>
      <use xlink:href="#SimHei-32" x="100"/>
      <use xlink:href="#SimHei-32" x="150"/>
     </g>
    </g>
   </g>
  </g>
 </g>
 <defs>
  <clipPath id="pd2bf6a4316">
   <rect x="68.562" y="15.552" width="923.886" height="485.48475"/>
  </clipPath>
 </defs>
</svg>
