<?xml version="1.0" encoding="utf-8" standalone="no"?>
<!DOCTYPE svg PUBLIC "-//W3C//DTD SVG 1.1//EN"
  "http://www.w3.org/Graphics/SVG/1.1/DTD/svg11.dtd">
<svg xmlns:xlink="http://www.w3.org/1999/xlink" width="1008pt" height="576pt" viewBox="0 0 1008 576" xmlns="http://www.w3.org/2000/svg" version="1.1">
 <metadata>
  <rdf:RDF xmlns:dc="http://purl.org/dc/elements/1.1/" xmlns:cc="http://creativecommons.org/ns#" xmlns:rdf="http://www.w3.org/1999/02/22-rdf-syntax-ns#">
   <cc:Work>
    <dc:type rdf:resource="http://purl.org/dc/dcmitype/StillImage"/>
    <dc:date>2023-04-14T12:17:47.818792</dc:date>
    <dc:format>image/svg+xml</dc:format>
    <dc:creator>
     <cc:Agent>
      <dc:title>Matplotlib v3.7.1, https://matplotlib.org/</dc:title>
     </cc:Agent>
    </dc:creator>
   </cc:Work>
  </rdf:RDF>
 </metadata>
 <defs>
  <style type="text/css">*{stroke-linejoin: round; stroke-linecap: butt}</style>
 </defs>
 <g id="figure_1">
  <g id="patch_1">
   <path d="M 0 576 
L 1008 576 
L 1008 0 
L 0 0 
z
" style="fill: #ffffff"/>
  </g>
  <g id="axes_1">
   <g id="patch_2">
    <path d="M 75.222 501.03675 
L 992.448 501.03675 
L 992.448 15.552 
L 75.222 15.552 
z
" style="fill: #ffffff"/>
   </g>
   <g id="matplotlib.axis_1">
    <g id="xtick_1">
     <g id="text_1">
      <!-- 01-01 -->
      <g style="fill: #262626" transform="translate(120.626591 543.53675) rotate(-90) scale(0.132 -0.132)">
       <defs>
        <path id="SimHei-30" d="M 225 2537 
Q 250 3200 412 3587 
Q 575 3975 875 4225 
Q 1175 4475 1612 4475 
Q 2050 4475 2375 4112 
Q 2700 3750 2800 3200 
Q 2900 2650 2862 1937 
Q 2825 1225 2612 775 
Q 2400 325 1975 150 
Q 1550 -25 1125 187 
Q 700 400 525 750 
Q 350 1100 275 1487 
Q 200 1875 225 2537 
z
M 750 2687 
Q 675 2000 800 1462 
Q 925 925 1212 700 
Q 1500 475 1800 612 
Q 2100 750 2237 1162 
Q 2375 1575 2375 2062 
Q 2375 2550 2337 2950 
Q 2300 3350 2112 3675 
Q 1925 4000 1612 4012 
Q 1300 4025 1062 3700 
Q 825 3375 750 2687 
z
" transform="scale(0.015625)"/>
        <path id="SimHei-31" d="M 1400 3600 
Q 1075 3275 575 2975 
L 575 3450 
Q 1200 3875 1600 4450 
L 1900 4450 
L 1900 150 
L 1400 150 
L 1400 3600 
z
" transform="scale(0.015625)"/>
        <path id="SimHei-2d" d="M 2975 2125 
L 125 2125 
L 125 2525 
L 2975 2525 
L 2975 2125 
z
" transform="scale(0.015625)"/>
       </defs>
       <use xlink:href="#SimHei-30"/>
       <use xlink:href="#SimHei-31" x="50"/>
       <use xlink:href="#SimHei-2d" x="100"/>
       <use xlink:href="#SimHei-30" x="150"/>
       <use xlink:href="#SimHei-31" x="200"/>
      </g>
     </g>
    </g>
    <g id="xtick_2">
     <g id="text_2">
      <!-- 01-11 -->
      <g style="fill: #262626" transform="translate(143.534333 543.53675) rotate(-90) scale(0.132 -0.132)">
       <use xlink:href="#SimHei-30"/>
       <use xlink:href="#SimHei-31" x="50"/>
       <use xlink:href="#SimHei-2d" x="100"/>
       <use xlink:href="#SimHei-31" x="150"/>
       <use xlink:href="#SimHei-31" x="200"/>
      </g>
     </g>
    </g>
    <g id="xtick_3">
     <g id="text_3">
      <!-- 01-21 -->
      <g style="fill: #262626" transform="translate(166.442075 543.53675) rotate(-90) scale(0.132 -0.132)">
       <defs>
        <path id="SimHei-32" d="M 300 250 
Q 325 625 650 925 
Q 975 1225 1475 1862 
Q 1975 2500 2125 2850 
Q 2275 3200 2237 3450 
Q 2200 3700 2000 3862 
Q 1800 4025 1537 4000 
Q 1275 3975 1037 3800 
Q 800 3625 675 3275 
L 200 3350 
Q 400 3925 712 4187 
Q 1025 4450 1450 4475 
Q 1700 4500 1900 4462 
Q 2100 4425 2312 4287 
Q 2525 4150 2662 3875 
Q 2800 3600 2762 3212 
Q 2725 2825 2375 2287 
Q 2025 1750 1025 600 
L 2825 600 
L 2825 150 
L 300 150 
L 300 250 
z
" transform="scale(0.015625)"/>
       </defs>
       <use xlink:href="#SimHei-30"/>
       <use xlink:href="#SimHei-31" x="50"/>
       <use xlink:href="#SimHei-2d" x="100"/>
       <use xlink:href="#SimHei-32" x="150"/>
       <use xlink:href="#SimHei-31" x="200"/>
      </g>
     </g>
    </g>
    <g id="xtick_4">
     <g id="text_4">
      <!-- 01-31 -->
      <g style="fill: #262626" transform="translate(189.349818 543.53675) rotate(-90) scale(0.132 -0.132)">
       <defs>
        <path id="SimHei-33" d="M 250 1225 
L 700 1300 
Q 800 975 1025 762 
Q 1250 550 1587 562 
Q 1925 575 2125 837 
Q 2325 1100 2300 1437 
Q 2275 1775 2037 1962 
Q 1800 2150 1275 2225 
L 1275 2550 
Q 1800 2600 2037 2825 
Q 2275 3050 2250 3412 
Q 2225 3775 1925 3937 
Q 1625 4100 1287 3975 
Q 950 3850 750 3275 
L 300 3350 
Q 450 3800 712 4100 
Q 975 4400 1425 4450 
Q 1875 4500 2212 4337 
Q 2550 4175 2687 3837 
Q 2825 3500 2725 3100 
Q 2625 2700 2150 2400 
Q 2500 2250 2687 1950 
Q 2875 1650 2812 1162 
Q 2750 675 2375 375 
Q 2000 75 1525 87 
Q 1050 100 700 387 
Q 350 675 250 1225 
z
" transform="scale(0.015625)"/>
       </defs>
       <use xlink:href="#SimHei-30"/>
       <use xlink:href="#SimHei-31" x="50"/>
       <use xlink:href="#SimHei-2d" x="100"/>
       <use xlink:href="#SimHei-33" x="150"/>
       <use xlink:href="#SimHei-31" x="200"/>
      </g>
     </g>
    </g>
    <g id="xtick_5">
     <g id="text_5">
      <!-- 02-10 -->
      <g style="fill: #262626" transform="translate(212.25756 543.53675) rotate(-90) scale(0.132 -0.132)">
       <use xlink:href="#SimHei-30"/>
       <use xlink:href="#SimHei-32" x="50"/>
       <use xlink:href="#SimHei-2d" x="100"/>
       <use xlink:href="#SimHei-31" x="150"/>
       <use xlink:href="#SimHei-30" x="200"/>
      </g>
     </g>
    </g>
    <g id="xtick_6">
     <g id="text_6">
      <!-- 02-20 -->
      <g style="fill: #262626" transform="translate(235.165302 543.53675) rotate(-90) scale(0.132 -0.132)">
       <use xlink:href="#SimHei-30"/>
       <use xlink:href="#SimHei-32" x="50"/>
       <use xlink:href="#SimHei-2d" x="100"/>
       <use xlink:href="#SimHei-32" x="150"/>
       <use xlink:href="#SimHei-30" x="200"/>
      </g>
     </g>
    </g>
    <g id="xtick_7">
     <g id="text_7">
      <!-- 03-02 -->
      <g style="fill: #262626" transform="translate(258.073044 543.53675) rotate(-90) scale(0.132 -0.132)">
       <use xlink:href="#SimHei-30"/>
       <use xlink:href="#SimHei-33" x="50"/>
       <use xlink:href="#SimHei-2d" x="100"/>
       <use xlink:href="#SimHei-30" x="150"/>
       <use xlink:href="#SimHei-32" x="200"/>
      </g>
     </g>
    </g>
    <g id="xtick_8">
     <g id="text_8">
      <!-- 03-12 -->
      <g style="fill: #262626" transform="translate(280.980787 543.53675) rotate(-90) scale(0.132 -0.132)">
       <use xlink:href="#SimHei-30"/>
       <use xlink:href="#SimHei-33" x="50"/>
       <use xlink:href="#SimHei-2d" x="100"/>
       <use xlink:href="#SimHei-31" x="150"/>
       <use xlink:href="#SimHei-32" x="200"/>
      </g>
     </g>
    </g>
    <g id="xtick_9">
     <g id="text_9">
      <!-- 03-22 -->
      <g style="fill: #262626" transform="translate(303.888529 543.53675) rotate(-90) scale(0.132 -0.132)">
       <use xlink:href="#SimHei-30"/>
       <use xlink:href="#SimHei-33" x="50"/>
       <use xlink:href="#SimHei-2d" x="100"/>
       <use xlink:href="#SimHei-32" x="150"/>
       <use xlink:href="#SimHei-32" x="200"/>
      </g>
     </g>
    </g>
    <g id="xtick_10">
     <g id="text_10">
      <!-- 04-01 -->
      <g style="fill: #262626" transform="translate(326.796271 543.53675) rotate(-90) scale(0.132 -0.132)">
       <defs>
        <path id="SimHei-34" d="M 2000 1100 
L 75 1100 
L 75 1525 
L 2100 4450 
L 2475 4450 
L 2475 1525 
L 3075 1525 
L 3075 1100 
L 2475 1100 
L 2475 150 
L 2000 150 
L 2000 1100 
z
M 2000 1525 
L 2000 3500 
L 600 1525 
L 2000 1525 
z
" transform="scale(0.015625)"/>
       </defs>
       <use xlink:href="#SimHei-30"/>
       <use xlink:href="#SimHei-34" x="50"/>
       <use xlink:href="#SimHei-2d" x="100"/>
       <use xlink:href="#SimHei-30" x="150"/>
       <use xlink:href="#SimHei-31" x="200"/>
      </g>
     </g>
    </g>
    <g id="xtick_11">
     <g id="text_11">
      <!-- 04-11 -->
      <g style="fill: #262626" transform="translate(349.704013 543.53675) rotate(-90) scale(0.132 -0.132)">
       <use xlink:href="#SimHei-30"/>
       <use xlink:href="#SimHei-34" x="50"/>
       <use xlink:href="#SimHei-2d" x="100"/>
       <use xlink:href="#SimHei-31" x="150"/>
       <use xlink:href="#SimHei-31" x="200"/>
      </g>
     </g>
    </g>
    <g id="xtick_12">
     <g id="text_12">
      <!-- 04-21 -->
      <g style="fill: #262626" transform="translate(372.611756 543.53675) rotate(-90) scale(0.132 -0.132)">
       <use xlink:href="#SimHei-30"/>
       <use xlink:href="#SimHei-34" x="50"/>
       <use xlink:href="#SimHei-2d" x="100"/>
       <use xlink:href="#SimHei-32" x="150"/>
       <use xlink:href="#SimHei-31" x="200"/>
      </g>
     </g>
    </g>
    <g id="xtick_13">
     <g id="text_13">
      <!-- 05-01 -->
      <g style="fill: #262626" transform="translate(395.519498 543.53675) rotate(-90) scale(0.132 -0.132)">
       <defs>
        <path id="SimHei-35" d="M 550 1325 
Q 725 650 1150 575 
Q 1575 500 1837 662 
Q 2100 825 2212 1087 
Q 2325 1350 2312 1675 
Q 2300 2000 2137 2225 
Q 1975 2450 1725 2525 
Q 1475 2600 1162 2525 
Q 850 2450 650 2175 
L 225 2225 
Q 275 2375 700 4375 
L 2675 4375 
L 2675 3925 
L 1075 3925 
Q 950 3250 825 2850 
Q 1200 3025 1525 3012 
Q 1850 3000 2150 2862 
Q 2450 2725 2587 2487 
Q 2725 2250 2787 2012 
Q 2850 1775 2837 1500 
Q 2825 1225 2725 937 
Q 2625 650 2425 462 
Q 2225 275 1937 162 
Q 1650 50 1275 75 
Q 900 100 562 350 
Q 225 600 100 1200 
L 550 1325 
z
" transform="scale(0.015625)"/>
       </defs>
       <use xlink:href="#SimHei-30"/>
       <use xlink:href="#SimHei-35" x="50"/>
       <use xlink:href="#SimHei-2d" x="100"/>
       <use xlink:href="#SimHei-30" x="150"/>
       <use xlink:href="#SimHei-31" x="200"/>
      </g>
     </g>
    </g>
    <g id="xtick_14">
     <g id="text_14">
      <!-- 05-11 -->
      <g style="fill: #262626" transform="translate(418.42724 543.53675) rotate(-90) scale(0.132 -0.132)">
       <use xlink:href="#SimHei-30"/>
       <use xlink:href="#SimHei-35" x="50"/>
       <use xlink:href="#SimHei-2d" x="100"/>
       <use xlink:href="#SimHei-31" x="150"/>
       <use xlink:href="#SimHei-31" x="200"/>
      </g>
     </g>
    </g>
    <g id="xtick_15">
     <g id="text_15">
      <!-- 05-21 -->
      <g style="fill: #262626" transform="translate(441.334983 543.53675) rotate(-90) scale(0.132 -0.132)">
       <use xlink:href="#SimHei-30"/>
       <use xlink:href="#SimHei-35" x="50"/>
       <use xlink:href="#SimHei-2d" x="100"/>
       <use xlink:href="#SimHei-32" x="150"/>
       <use xlink:href="#SimHei-31" x="200"/>
      </g>
     </g>
    </g>
    <g id="xtick_16">
     <g id="text_16">
      <!-- 05-31 -->
      <g style="fill: #262626" transform="translate(464.242725 543.53675) rotate(-90) scale(0.132 -0.132)">
       <use xlink:href="#SimHei-30"/>
       <use xlink:href="#SimHei-35" x="50"/>
       <use xlink:href="#SimHei-2d" x="100"/>
       <use xlink:href="#SimHei-33" x="150"/>
       <use xlink:href="#SimHei-31" x="200"/>
      </g>
     </g>
    </g>
    <g id="xtick_17">
     <g id="text_17">
      <!-- 06-10 -->
      <g style="fill: #262626" transform="translate(487.150467 543.53675) rotate(-90) scale(0.132 -0.132)">
       <defs>
        <path id="SimHei-36" d="M 250 1612 
Q 275 1975 387 2225 
Q 500 2475 725 2850 
L 1750 4450 
L 2325 4450 
L 1275 2800 
Q 1950 2975 2350 2750 
Q 2750 2525 2887 2237 
Q 3025 1950 3037 1612 
Q 3050 1275 2937 950 
Q 2825 625 2537 362 
Q 2250 100 1737 75 
Q 1225 50 862 262 
Q 500 475 362 862 
Q 225 1250 250 1612 
z
M 1025 787 
Q 1250 550 1625 525 
Q 2000 500 2250 775 
Q 2500 1050 2500 1575 
Q 2500 2100 2187 2300 
Q 1875 2500 1487 2450 
Q 1100 2400 925 2075 
Q 750 1750 775 1387 
Q 800 1025 1025 787 
z
" transform="scale(0.015625)"/>
       </defs>
       <use xlink:href="#SimHei-30"/>
       <use xlink:href="#SimHei-36" x="50"/>
       <use xlink:href="#SimHei-2d" x="100"/>
       <use xlink:href="#SimHei-31" x="150"/>
       <use xlink:href="#SimHei-30" x="200"/>
      </g>
     </g>
    </g>
    <g id="xtick_18">
     <g id="text_18">
      <!-- 06-20 -->
      <g style="fill: #262626" transform="translate(510.058209 543.53675) rotate(-90) scale(0.132 -0.132)">
       <use xlink:href="#SimHei-30"/>
       <use xlink:href="#SimHei-36" x="50"/>
       <use xlink:href="#SimHei-2d" x="100"/>
       <use xlink:href="#SimHei-32" x="150"/>
       <use xlink:href="#SimHei-30" x="200"/>
      </g>
     </g>
    </g>
    <g id="xtick_19">
     <g id="text_19">
      <!-- 06-30 -->
      <g style="fill: #262626" transform="translate(532.965952 543.53675) rotate(-90) scale(0.132 -0.132)">
       <use xlink:href="#SimHei-30"/>
       <use xlink:href="#SimHei-36" x="50"/>
       <use xlink:href="#SimHei-2d" x="100"/>
       <use xlink:href="#SimHei-33" x="150"/>
       <use xlink:href="#SimHei-30" x="200"/>
      </g>
     </g>
    </g>
    <g id="xtick_20">
     <g id="text_20">
      <!-- 07-10 -->
      <g style="fill: #262626" transform="translate(555.873694 543.53675) rotate(-90) scale(0.132 -0.132)">
       <defs>
        <path id="SimHei-37" d="M 850 150 
Q 1300 2050 2425 3925 
L 275 3925 
L 275 4375 
L 2950 4375 
L 2950 3950 
Q 1775 2050 1400 150 
L 850 150 
z
" transform="scale(0.015625)"/>
       </defs>
       <use xlink:href="#SimHei-30"/>
       <use xlink:href="#SimHei-37" x="50"/>
       <use xlink:href="#SimHei-2d" x="100"/>
       <use xlink:href="#SimHei-31" x="150"/>
       <use xlink:href="#SimHei-30" x="200"/>
      </g>
     </g>
    </g>
    <g id="xtick_21">
     <g id="text_21">
      <!-- 07-20 -->
      <g style="fill: #262626" transform="translate(578.781436 543.53675) rotate(-90) scale(0.132 -0.132)">
       <use xlink:href="#SimHei-30"/>
       <use xlink:href="#SimHei-37" x="50"/>
       <use xlink:href="#SimHei-2d" x="100"/>
       <use xlink:href="#SimHei-32" x="150"/>
       <use xlink:href="#SimHei-30" x="200"/>
      </g>
     </g>
    </g>
    <g id="xtick_22">
     <g id="text_22">
      <!-- 07-30 -->
      <g style="fill: #262626" transform="translate(601.689178 543.53675) rotate(-90) scale(0.132 -0.132)">
       <use xlink:href="#SimHei-30"/>
       <use xlink:href="#SimHei-37" x="50"/>
       <use xlink:href="#SimHei-2d" x="100"/>
       <use xlink:href="#SimHei-33" x="150"/>
       <use xlink:href="#SimHei-30" x="200"/>
      </g>
     </g>
    </g>
    <g id="xtick_23">
     <g id="text_23">
      <!-- 08-09 -->
      <g style="fill: #262626" transform="translate(624.596921 543.53675) rotate(-90) scale(0.132 -0.132)">
       <defs>
        <path id="SimHei-38" d="M 175 1375 
Q 175 1675 325 1962 
Q 475 2250 825 2425 
Q 525 2600 425 2812 
Q 325 3025 312 3300 
Q 300 3575 387 3775 
Q 475 3975 650 4150 
Q 825 4325 1037 4387 
Q 1250 4450 1500 4450 
Q 1750 4450 1950 4400 
Q 2150 4350 2375 4187 
Q 2600 4025 2700 3725 
Q 2800 3425 2687 3025 
Q 2575 2625 2100 2400 
Q 2525 2275 2700 2012 
Q 2875 1750 2875 1375 
Q 2875 1000 2762 775 
Q 2650 550 2512 400 
Q 2375 250 2137 162 
Q 1900 75 1537 75 
Q 1175 75 912 162 
Q 650 250 475 425 
Q 300 600 237 837 
Q 175 1075 175 1375 
z
M 687 1400 
Q 675 1100 787 875 
Q 900 650 1200 587 
Q 1500 525 1825 600 
Q 2150 675 2275 950 
Q 2400 1225 2362 1500 
Q 2325 1775 2050 1962 
Q 1775 2150 1450 2125 
Q 1125 2100 912 1900 
Q 700 1700 687 1400 
z
M 775 3350 
Q 775 3100 950 2875 
Q 1125 2650 1500 2650 
Q 1875 2650 2062 2875 
Q 2250 3100 2237 3412 
Q 2225 3725 2012 3875 
Q 1800 4025 1437 4000 
Q 1075 3975 925 3787 
Q 775 3600 775 3350 
z
" transform="scale(0.015625)"/>
        <path id="SimHei-39" d="M 800 75 
Q 1350 1000 1700 1750 
Q 1075 1650 662 1912 
Q 250 2175 162 2625 
Q 75 3075 175 3437 
Q 275 3800 487 4037 
Q 700 4275 1000 4375 
Q 1300 4475 1537 4475 
Q 1775 4475 2025 4375 
Q 2275 4275 2475 4075 
Q 2675 3875 2750 3662 
Q 2825 3450 2825 3112 
Q 2825 2775 2575 2250 
Q 2325 1725 1350 75 
L 800 75 
z
M 662 2875 
Q 700 2550 937 2337 
Q 1175 2125 1450 2150 
Q 1725 2175 1887 2300 
Q 2050 2425 2200 2725 
Q 2300 3100 2250 3362 
Q 2200 3625 1987 3800 
Q 1775 3975 1525 3975 
Q 1375 4000 1137 3900 
Q 900 3800 762 3500 
Q 625 3200 662 2875 
z
" transform="scale(0.015625)"/>
       </defs>
       <use xlink:href="#SimHei-30"/>
       <use xlink:href="#SimHei-38" x="50"/>
       <use xlink:href="#SimHei-2d" x="100"/>
       <use xlink:href="#SimHei-30" x="150"/>
       <use xlink:href="#SimHei-39" x="200"/>
      </g>
     </g>
    </g>
    <g id="xtick_24">
     <g id="text_24">
      <!-- 08-19 -->
      <g style="fill: #262626" transform="translate(647.504663 543.53675) rotate(-90) scale(0.132 -0.132)">
       <use xlink:href="#SimHei-30"/>
       <use xlink:href="#SimHei-38" x="50"/>
       <use xlink:href="#SimHei-2d" x="100"/>
       <use xlink:href="#SimHei-31" x="150"/>
       <use xlink:href="#SimHei-39" x="200"/>
      </g>
     </g>
    </g>
    <g id="xtick_25">
     <g id="text_25">
      <!-- 08-29 -->
      <g style="fill: #262626" transform="translate(670.412405 543.53675) rotate(-90) scale(0.132 -0.132)">
       <use xlink:href="#SimHei-30"/>
       <use xlink:href="#SimHei-38" x="50"/>
       <use xlink:href="#SimHei-2d" x="100"/>
       <use xlink:href="#SimHei-32" x="150"/>
       <use xlink:href="#SimHei-39" x="200"/>
      </g>
     </g>
    </g>
    <g id="xtick_26">
     <g id="text_26">
      <!-- 09-08 -->
      <g style="fill: #262626" transform="translate(693.320147 543.53675) rotate(-90) scale(0.132 -0.132)">
       <use xlink:href="#SimHei-30"/>
       <use xlink:href="#SimHei-39" x="50"/>
       <use xlink:href="#SimHei-2d" x="100"/>
       <use xlink:href="#SimHei-30" x="150"/>
       <use xlink:href="#SimHei-38" x="200"/>
      </g>
     </g>
    </g>
    <g id="xtick_27">
     <g id="text_27">
      <!-- 09-18 -->
      <g style="fill: #262626" transform="translate(716.22789 543.53675) rotate(-90) scale(0.132 -0.132)">
       <use xlink:href="#SimHei-30"/>
       <use xlink:href="#SimHei-39" x="50"/>
       <use xlink:href="#SimHei-2d" x="100"/>
       <use xlink:href="#SimHei-31" x="150"/>
       <use xlink:href="#SimHei-38" x="200"/>
      </g>
     </g>
    </g>
    <g id="xtick_28">
     <g id="text_28">
      <!-- 09-28 -->
      <g style="fill: #262626" transform="translate(739.135632 543.53675) rotate(-90) scale(0.132 -0.132)">
       <use xlink:href="#SimHei-30"/>
       <use xlink:href="#SimHei-39" x="50"/>
       <use xlink:href="#SimHei-2d" x="100"/>
       <use xlink:href="#SimHei-32" x="150"/>
       <use xlink:href="#SimHei-38" x="200"/>
      </g>
     </g>
    </g>
    <g id="xtick_29">
     <g id="text_29">
      <!-- 10-08 -->
      <g style="fill: #262626" transform="translate(762.043374 543.53675) rotate(-90) scale(0.132 -0.132)">
       <use xlink:href="#SimHei-31"/>
       <use xlink:href="#SimHei-30" x="50"/>
       <use xlink:href="#SimHei-2d" x="100"/>
       <use xlink:href="#SimHei-30" x="150"/>
       <use xlink:href="#SimHei-38" x="200"/>
      </g>
     </g>
    </g>
    <g id="xtick_30">
     <g id="text_30">
      <!-- 10-18 -->
      <g style="fill: #262626" transform="translate(784.951116 543.53675) rotate(-90) scale(0.132 -0.132)">
       <use xlink:href="#SimHei-31"/>
       <use xlink:href="#SimHei-30" x="50"/>
       <use xlink:href="#SimHei-2d" x="100"/>
       <use xlink:href="#SimHei-31" x="150"/>
       <use xlink:href="#SimHei-38" x="200"/>
      </g>
     </g>
    </g>
    <g id="xtick_31">
     <g id="text_31">
      <!-- 10-28 -->
      <g style="fill: #262626" transform="translate(807.858859 543.53675) rotate(-90) scale(0.132 -0.132)">
       <use xlink:href="#SimHei-31"/>
       <use xlink:href="#SimHei-30" x="50"/>
       <use xlink:href="#SimHei-2d" x="100"/>
       <use xlink:href="#SimHei-32" x="150"/>
       <use xlink:href="#SimHei-38" x="200"/>
      </g>
     </g>
    </g>
    <g id="xtick_32">
     <g id="text_32">
      <!-- 11-07 -->
      <g style="fill: #262626" transform="translate(830.766601 543.53675) rotate(-90) scale(0.132 -0.132)">
       <use xlink:href="#SimHei-31"/>
       <use xlink:href="#SimHei-31" x="50"/>
       <use xlink:href="#SimHei-2d" x="100"/>
       <use xlink:href="#SimHei-30" x="150"/>
       <use xlink:href="#SimHei-37" x="200"/>
      </g>
     </g>
    </g>
    <g id="xtick_33">
     <g id="text_33">
      <!-- 11-17 -->
      <g style="fill: #262626" transform="translate(853.674343 543.53675) rotate(-90) scale(0.132 -0.132)">
       <use xlink:href="#SimHei-31"/>
       <use xlink:href="#SimHei-31" x="50"/>
       <use xlink:href="#SimHei-2d" x="100"/>
       <use xlink:href="#SimHei-31" x="150"/>
       <use xlink:href="#SimHei-37" x="200"/>
      </g>
     </g>
    </g>
    <g id="xtick_34">
     <g id="text_34">
      <!-- 11-27 -->
      <g style="fill: #262626" transform="translate(876.582085 543.53675) rotate(-90) scale(0.132 -0.132)">
       <use xlink:href="#SimHei-31"/>
       <use xlink:href="#SimHei-31" x="50"/>
       <use xlink:href="#SimHei-2d" x="100"/>
       <use xlink:href="#SimHei-32" x="150"/>
       <use xlink:href="#SimHei-37" x="200"/>
      </g>
     </g>
    </g>
    <g id="xtick_35">
     <g id="text_35">
      <!-- 12-07 -->
      <g style="fill: #262626" transform="translate(899.489828 543.53675) rotate(-90) scale(0.132 -0.132)">
       <use xlink:href="#SimHei-31"/>
       <use xlink:href="#SimHei-32" x="50"/>
       <use xlink:href="#SimHei-2d" x="100"/>
       <use xlink:href="#SimHei-30" x="150"/>
       <use xlink:href="#SimHei-37" x="200"/>
      </g>
     </g>
    </g>
    <g id="xtick_36">
     <g id="text_36">
      <!-- 12-17 -->
      <g style="fill: #262626" transform="translate(922.39757 543.53675) rotate(-90) scale(0.132 -0.132)">
       <use xlink:href="#SimHei-31"/>
       <use xlink:href="#SimHei-32" x="50"/>
       <use xlink:href="#SimHei-2d" x="100"/>
       <use xlink:href="#SimHei-31" x="150"/>
       <use xlink:href="#SimHei-37" x="200"/>
      </g>
     </g>
    </g>
    <g id="xtick_37">
     <g id="text_37">
      <!-- 12-27 -->
      <g style="fill: #262626" transform="translate(945.305312 543.53675) rotate(-90) scale(0.132 -0.132)">
       <use xlink:href="#SimHei-31"/>
       <use xlink:href="#SimHei-32" x="50"/>
       <use xlink:href="#SimHei-2d" x="100"/>
       <use xlink:href="#SimHei-32" x="150"/>
       <use xlink:href="#SimHei-37" x="200"/>
      </g>
     </g>
    </g>
    <g id="text_38">
     <!-- 月日 -->
     <g style="fill: #262626" transform="translate(519.435 558.2805) scale(0.144 -0.144)">
      <defs>
       <path id="SimHei-6708" d="M 5250 4825 
Q 5200 4225 5200 3750 
L 5200 200 
Q 5200 -275 4950 -375 
Q 4700 -475 3975 -525 
Q 3925 -225 3750 50 
Q 4300 25 4512 50 
Q 4725 75 4725 400 
L 4725 1600 
L 1850 1600 
Q 1725 775 1450 225 
Q 1175 -325 900 -575 
Q 700 -400 400 -325 
Q 800 25 1037 512 
Q 1275 1000 1337 1475 
Q 1400 1950 1400 2525 
L 1400 3625 
Q 1400 4175 1375 4825 
L 5250 4825 
z
M 4725 3400 
L 4725 4450 
L 1875 4450 
L 1875 3400 
L 4725 3400 
z
M 4725 2000 
L 4725 3025 
L 1875 3025 
L 1875 2000 
L 4725 2000 
z
" transform="scale(0.015625)"/>
       <path id="SimHei-65e5" d="M 5375 5000 
Q 5350 3775 5350 2275 
Q 5350 775 5375 -450 
L 4800 -450 
L 4800 175 
L 1800 175 
L 1800 -575 
L 1250 -575 
Q 1275 575 1275 2125 
Q 1275 3675 1250 5000 
L 5375 5000 
z
M 4800 600 
L 4800 2375 
L 1800 2375 
L 1800 600 
L 4800 600 
z
M 4800 2800 
L 4800 4550 
L 1800 4550 
L 1800 2800 
L 4800 2800 
z
" transform="scale(0.015625)"/>
      </defs>
      <use xlink:href="#SimHei-6708"/>
      <use xlink:href="#SimHei-65e5" x="100"/>
     </g>
    </g>
   </g>
   <g id="matplotlib.axis_2">
    <g id="ytick_1">
     <g id="text_39">
      <!-- 0 -->
      <g style="fill: #262626" transform="translate(59.122 501.931272) scale(0.132 -0.132)">
       <use xlink:href="#SimHei-30"/>
      </g>
     </g>
    </g>
    <g id="ytick_2">
     <g id="text_40">
      <!-- 2500 -->
      <g style="fill: #262626" transform="translate(39.322 442.516894) scale(0.132 -0.132)">
       <use xlink:href="#SimHei-32"/>
       <use xlink:href="#SimHei-35" x="50"/>
       <use xlink:href="#SimHei-30" x="100"/>
       <use xlink:href="#SimHei-30" x="150"/>
      </g>
     </g>
    </g>
    <g id="ytick_3">
     <g id="text_41">
      <!-- 5000 -->
      <g style="fill: #262626" transform="translate(39.322 383.102515) scale(0.132 -0.132)">
       <use xlink:href="#SimHei-35"/>
       <use xlink:href="#SimHei-30" x="50"/>
       <use xlink:href="#SimHei-30" x="100"/>
       <use xlink:href="#SimHei-30" x="150"/>
      </g>
     </g>
    </g>
    <g id="ytick_4">
     <g id="text_42">
      <!-- 7500 -->
      <g style="fill: #262626" transform="translate(39.322 323.688137) scale(0.132 -0.132)">
       <use xlink:href="#SimHei-37"/>
       <use xlink:href="#SimHei-35" x="50"/>
       <use xlink:href="#SimHei-30" x="100"/>
       <use xlink:href="#SimHei-30" x="150"/>
      </g>
     </g>
    </g>
    <g id="ytick_5">
     <g id="text_43">
      <!-- 10000 -->
      <g style="fill: #262626" transform="translate(32.722 264.273758) scale(0.132 -0.132)">
       <use xlink:href="#SimHei-31"/>
       <use xlink:href="#SimHei-30" x="50"/>
       <use xlink:href="#SimHei-30" x="100"/>
       <use xlink:href="#SimHei-30" x="150"/>
       <use xlink:href="#SimHei-30" x="200"/>
      </g>
     </g>
    </g>
    <g id="ytick_6">
     <g id="text_44">
      <!-- 12500 -->
      <g style="fill: #262626" transform="translate(32.722 204.85938) scale(0.132 -0.132)">
       <use xlink:href="#SimHei-31"/>
       <use xlink:href="#SimHei-32" x="50"/>
       <use xlink:href="#SimHei-35" x="100"/>
       <use xlink:href="#SimHei-30" x="150"/>
       <use xlink:href="#SimHei-30" x="200"/>
      </g>
     </g>
    </g>
    <g id="ytick_7">
     <g id="text_45">
      <!-- 15000 -->
      <g style="fill: #262626" transform="translate(32.722 145.445001) scale(0.132 -0.132)">
       <use xlink:href="#SimHei-31"/>
       <use xlink:href="#SimHei-35" x="50"/>
       <use xlink:href="#SimHei-30" x="100"/>
       <use xlink:href="#SimHei-30" x="150"/>
       <use xlink:href="#SimHei-30" x="200"/>
      </g>
     </g>
    </g>
    <g id="ytick_8">
     <g id="text_46">
      <!-- 17500 -->
      <g style="fill: #262626" transform="translate(32.722 86.030623) scale(0.132 -0.132)">
       <use xlink:href="#SimHei-31"/>
       <use xlink:href="#SimHei-37" x="50"/>
       <use xlink:href="#SimHei-35" x="100"/>
       <use xlink:href="#SimHei-30" x="150"/>
       <use xlink:href="#SimHei-30" x="200"/>
      </g>
     </g>
    </g>
    <g id="ytick_9">
     <g id="text_47">
      <!-- 20000 -->
      <g style="fill: #262626" transform="translate(32.722 26.616244) scale(0.132 -0.132)">
       <use xlink:href="#SimHei-32"/>
       <use xlink:href="#SimHei-30" x="50"/>
       <use xlink:href="#SimHei-30" x="100"/>
       <use xlink:href="#SimHei-30" x="150"/>
       <use xlink:href="#SimHei-30" x="200"/>
      </g>
     </g>
    </g>
    <g id="text_48">
     <!-- 货量 -->
     <g style="fill: #262626" transform="translate(26.922 272.694375) rotate(-90) scale(0.144 -0.144)">
      <defs>
       <path id="SimHei-8d27" d="M 3975 5075 
Q 3950 4750 3950 4100 
Q 4075 4175 4525 4375 
Q 4975 4575 5375 4900 
Q 5550 4625 5700 4400 
Q 5425 4325 4987 4112 
Q 4550 3900 3950 3650 
L 3950 3225 
Q 3950 3025 4300 3025 
L 5125 3025 
Q 5425 3025 5487 3150 
Q 5550 3275 5575 3625 
Q 5850 3450 6125 3375 
Q 5975 2875 5825 2750 
Q 5675 2625 5475 2625 
L 4000 2625 
Q 3425 2625 3425 3125 
L 3425 3525 
Q 2900 3325 2575 3225 
Q 2425 3500 2350 3650 
Q 2750 3750 3425 3925 
Q 3425 4750 3400 5075 
L 3975 5075 
z
M 5200 2200 
Q 5175 1825 5175 1425 
Q 5175 1050 5200 600 
L 4625 600 
L 4625 1775 
L 1950 1775 
L 1950 625 
L 1400 625 
Q 1425 1025 1425 1400 
Q 1425 1800 1400 2200 
L 5200 2200 
z
M 2625 4850 
Q 2425 4700 2050 4300 
Q 2050 2900 2075 2450 
L 1500 2450 
Q 1525 2900 1525 3825 
Q 1300 3625 1100 3425 
Q 900 3225 700 3050 
Q 475 3250 325 3400 
Q 850 3725 1325 4237 
Q 1800 4750 2050 5175 
Q 2325 4925 2625 4850 
z
M 3550 1325 
Q 3425 975 3312 687 
Q 3200 400 2925 137 
Q 2650 -125 2150 -325 
Q 1650 -525 800 -675 
Q 725 -400 475 -100 
Q 1200 -75 1675 25 
Q 2150 125 2412 325 
Q 2675 525 2787 775 
Q 2900 1025 2975 1400 
Q 3250 1350 3550 1325 
z
M 5575 -675 
Q 5125 -400 4650 -187 
Q 4175 25 3575 250 
Q 3725 500 3825 725 
Q 4350 500 4800 300 
Q 5250 100 5875 -175 
Q 5700 -400 5575 -675 
z
" transform="scale(0.015625)"/>
       <path id="SimHei-91cf" d="M 5250 2500 
Q 5225 2200 5225 1700 
Q 5225 1225 5250 950 
L 3425 950 
L 3425 625 
L 4575 625 
Q 5000 625 5375 650 
L 5375 275 
Q 5025 300 4575 300 
L 3425 300 
L 3425 -75 
L 5125 -75 
Q 5525 -75 5925 -50 
L 5925 -425 
Q 5525 -400 5125 -400 
L 1275 -400 
Q 900 -400 475 -425 
L 475 -50 
Q 925 -50 1275 -75 
L 2975 -75 
L 2975 300 
L 1725 300 
Q 1350 300 975 250 
L 975 650 
Q 1375 625 1725 625 
L 2975 625 
L 2975 950 
L 1150 950 
Q 1175 1375 1175 1775 
Q 1175 2175 1150 2500 
L 5250 2500 
z
M 5200 4950 
Q 5175 4575 5175 4250 
Q 5175 3925 5200 3400 
L 1200 3400 
Q 1225 3925 1225 4250 
Q 1225 4575 1200 4950 
L 5200 4950 
z
M 4900 3100 
Q 5500 3125 6000 3150 
L 6000 2750 
Q 5500 2775 4925 2775 
L 1650 2775 
Q 975 2775 325 2750 
L 325 3150 
Q 975 3125 1650 3100 
L 4900 3100 
z
M 4725 3700 
L 4725 4025 
L 1675 4025 
L 1675 3700 
L 4725 3700 
z
M 4725 4350 
L 4725 4650 
L 1675 4650 
L 1675 4350 
L 4725 4350 
z
M 4750 1875 
L 4750 2175 
L 3425 2175 
L 3425 1875 
L 4750 1875 
z
M 2975 1875 
L 2975 2175 
L 1650 2175 
L 1650 1875 
L 2975 1875 
z
M 2975 1275 
L 2975 1550 
L 1650 1550 
L 1650 1275 
L 2975 1275 
z
M 4750 1275 
L 4750 1550 
L 3425 1550 
L 3425 1275 
L 4750 1275 
z
" transform="scale(0.015625)"/>
      </defs>
      <use xlink:href="#SimHei-8d27"/>
      <use xlink:href="#SimHei-91cf" x="100"/>
     </g>
    </g>
   </g>
   <g id="PolyCollection_1">
    <defs>
     <path id="m07376bb9f3" d="M 116.914091 -258.855942 
L 116.914091 -174.862414 
L 119.204865 -170.662488 
L 121.495639 -145.928031 
L 123.786414 -149.516166 
L 126.077188 -146.869381 
L 128.367962 -158.258445 
L 130.658736 -148.855339 
L 132.94951 -167.188997 
L 135.240285 -153.498155 
L 137.531059 -156.256968 
L 139.821833 -145.796974 
L 142.112607 -160.784389 
L 144.403382 -144.399147 
L 146.694156 -148.501643 
L 148.98493 -156.916928 
L 151.275704 -159.622892 
L 153.566479 -145.631439 
L 155.857253 -158.457288 
L 158.148027 -142.170352 
L 160.438801 -171.245967 
L 162.729575 -162.365519 
L 165.02035 -165.57195 
L 167.311124 -164.589784 
L 169.601898 -169.066797 
L 171.892672 -163.970196 
L 174.183447 -154.225574 
L 176.474221 -154.048675 
L 178.764995 -155.540736 
L 181.055769 -162.739598 
L 183.346543 -162.835928 
L 185.637318 -160.694481 
L 187.928092 -160.22607 
L 190.218866 -169.796254 
L 192.50964 -162.98457 
L 194.800415 -163.784412 
L 197.091189 -168.547829 
L 199.381963 -171.989291 
L 201.672737 -172.879505 
L 203.963511 -169.290384 
L 206.254286 -165.416074 
L 208.54506 -153.822302 
L 210.835834 -97.030739 
L 213.126608 -134.456685 
L 215.417383 -132.158221 
L 217.708157 -142.348118 
L 219.998931 -156.186636 
L 222.289705 -152.156469 
L 224.58048 -141.13573 
L 226.871254 -153.439494 
L 229.162028 -151.946133 
L 231.452802 -152.023611 
L 233.743576 -148.672982 
L 236.034351 -149.796936 
L 238.325125 -150.670816 
L 240.615899 -149.638539 
L 242.906673 -150.421967 
L 245.197448 -142.455594 
L 247.488222 -156.645247 
L 249.778996 -149.750128 
L 252.06977 -154.407706 
L 254.360544 -154.156892 
L 256.651319 -154.345756 
L 258.942093 -151.158336 
L 261.232867 -162.012296 
L 263.523641 -149.278448 
L 265.814416 -148.655687 
L 268.10519 -164.2898 
L 270.395964 -149.515863 
L 272.686738 -145.68752 
L 274.977512 -143.56649 
L 277.268287 -150.516277 
L 279.559061 -146.830985 
L 281.849835 -148.401786 
L 284.140609 -145.082821 
L 286.431384 -148.240499 
L 288.722158 -150.349868 
L 291.012932 -155.35906 
L 293.303706 -152.818674 
L 295.594481 -159.607012 
L 297.885255 -141.720737 
L 300.176029 -143.310498 
L 302.466803 -153.413735 
L 304.757577 -147.98726 
L 307.048352 -155.404982 
L 309.339126 -146.163136 
L 311.6299 -144.676047 
L 313.920674 -154.58136 
L 316.211449 -147.119177 
L 318.502223 -149.182121 
L 320.792997 -146.48837 
L 323.083771 -143.974747 
L 325.374545 -149.777729 
L 327.66532 -139.950916 
L 329.956094 -143.238651 
L 332.246868 -149.774172 
L 334.537642 -153.55063 
L 336.828417 -155.467771 
L 339.119191 -152.888166 
L 341.409965 -150.425873 
L 343.700739 -147.268022 
L 345.991513 -139.613808 
L 348.282288 -151.667907 
L 350.573062 -152.090157 
L 352.863836 -149.103287 
L 355.15461 -145.694383 
L 357.445385 -151.745392 
L 359.736159 -152.373825 
L 362.026933 -145.891399 
L 364.317707 -149.567878 
L 366.608482 -161.310959 
L 368.899256 -153.407308 
L 371.19003 -154.139092 
L 373.480804 -152.349862 
L 375.771578 -154.675491 
L 378.062353 -167.583099 
L 380.353127 -153.657011 
L 382.643901 -153.441057 
L 384.934675 -151.709584 
L 387.22545 -152.34029 
L 389.516224 -139.856411 
L 391.806998 -145.376218 
L 394.097772 -136.363415 
L 396.388546 -134.197153 
L 398.679321 -144.169374 
L 400.970095 -143.48659 
L 403.260869 -160.867471 
L 405.551643 -162.123426 
L 407.842418 -159.8069 
L 410.133192 -154.623759 
L 412.423966 -168.234274 
L 414.71474 -160.084424 
L 417.005514 -148.204297 
L 419.296289 -151.83994 
L 421.587063 -155.358787 
L 423.877837 -156.703124 
L 426.168611 -152.499228 
L 428.459386 -165.237946 
L 430.75016 -160.276722 
L 433.040934 -158.200182 
L 435.331708 -156.307931 
L 437.622483 -154.420954 
L 439.913257 -152.156562 
L 442.204031 -155.554432 
L 444.494805 -169.480781 
L 446.785579 -166.507933 
L 449.076354 -159.815682 
L 451.367128 -149.694196 
L 453.657902 -152.676358 
L 455.948676 -154.984954 
L 458.239451 -141.909697 
L 460.530225 -152.153955 
L 462.820999 -273.571241 
L 465.111773 -198.280907 
L 467.402547 -189.200379 
L 469.693322 -166.375328 
L 471.984096 -173.129215 
L 474.27487 -176.42645 
L 476.565644 -174.790553 
L 478.856419 -183.311052 
L 481.147193 -165.019234 
L 483.437967 -159.894798 
L 485.728741 -160.987216 
L 488.019515 -155.471185 
L 490.31029 -163.118824 
L 492.601064 -156.346306 
L 494.891838 -159.37185 
L 497.182612 -208.217611 
L 499.473387 -183.590175 
L 501.764161 -335.956994 
L 504.054935 -215.841225 
L 506.345709 -170.666203 
L 508.636484 -161.565735 
L 510.927258 -152.245208 
L 513.218032 -144.516445 
L 515.508806 -151.666126 
L 517.79958 -147.348408 
L 520.090355 -141.000616 
L 522.381129 -145.862264 
L 524.671903 -152.156936 
L 526.962677 -148.648587 
L 529.253452 -157.140628 
L 531.544226 -155.126576 
L 533.835 -155.678739 
L 536.125774 -150.902717 
L 538.416548 -159.577979 
L 540.707323 -152.417778 
L 542.998097 -149.785176 
L 545.288871 -159.976945 
L 547.579645 -152.915555 
L 549.87042 -146.878195 
L 552.161194 -156.370794 
L 554.451968 -152.248591 
L 556.742742 -149.89112 
L 559.033516 -156.026239 
L 561.324291 -145.403332 
L 563.615065 -145.416104 
L 565.905839 -147.182501 
L 568.196613 -145.178715 
L 570.487388 -141.145289 
L 572.778162 -144.478454 
L 575.068936 -144.706359 
L 577.35971 -148.068495 
L 579.650485 -141.989598 
L 581.941259 -145.065151 
L 584.232033 -142.769809 
L 586.522807 -142.324091 
L 588.813581 -144.294007 
L 591.104356 -155.128161 
L 593.39513 -144.785809 
L 595.685904 -147.228687 
L 597.976678 -147.533528 
L 600.267453 -147.216445 
L 602.558227 -141.111231 
L 604.849001 -148.08477 
L 607.139775 -150.801833 
L 609.430549 -153.074088 
L 611.721324 -153.955301 
L 614.012098 -145.643879 
L 616.302872 -146.618326 
L 618.593646 -152.102231 
L 620.884421 -148.561753 
L 623.175195 -147.475439 
L 625.465969 -146.094387 
L 627.756743 -150.983164 
L 630.047517 -157.105603 
L 632.338292 -145.209982 
L 634.629066 -153.471186 
L 636.91984 -150.109475 
L 639.210614 -149.192652 
L 641.501389 -152.946412 
L 643.792163 -145.801449 
L 646.082937 -147.423894 
L 648.373711 -147.018118 
L 650.664486 -148.053848 
L 652.95526 -152.820504 
L 655.246034 -147.573784 
L 657.536808 -156.232445 
L 659.827582 -159.536889 
L 662.118357 -159.802796 
L 664.409131 -158.299288 
L 666.699905 -156.980842 
L 668.990679 -159.857707 
L 671.281454 -161.457032 
L 673.572228 -169.777403 
L 675.863002 -161.28919 
L 678.153776 -157.257275 
L 680.44455 -157.70837 
L 682.735325 -147.163644 
L 685.026099 -160.907873 
L 687.316873 -153.190371 
L 689.607647 -155.967403 
L 691.898422 -185.995483 
L 694.189196 -159.812906 
L 696.47997 -156.65451 
L 698.770744 -156.151544 
L 701.061518 -172.20224 
L 703.352293 -165.342535 
L 705.643067 -156.512085 
L 707.933841 -165.483929 
L 710.224615 -163.453721 
L 712.51539 -164.988482 
L 714.806164 -166.528086 
L 717.096938 -155.706156 
L 719.387712 -146.173172 
L 721.678487 -161.304242 
L 723.969261 -159.271981 
L 726.260035 -159.277944 
L 728.550809 -150.963314 
L 730.841583 -159.208086 
L 733.132358 -158.553856 
L 735.423132 -164.151078 
L 737.713906 -155.238081 
L 740.00468 -145.496492 
L 742.295455 -149.236874 
L 744.586229 -141.242175 
L 746.877003 -137.175928 
L 749.167777 -139.885459 
L 751.458551 -135.670856 
L 753.749326 -157.595064 
L 756.0401 -139.811747 
L 758.330874 -155.926533 
L 760.621648 -151.56729 
L 762.912423 -155.793704 
L 765.203197 -152.57834 
L 767.493971 -151.13786 
L 769.784745 -149.209181 
L 772.075519 -151.649682 
L 774.366294 -154.060609 
L 776.657068 -146.361649 
L 778.947842 -148.188667 
L 781.238616 -156.679753 
L 783.529391 -154.5142 
L 785.820165 -183.076936 
L 788.110939 -183.969334 
L 790.401713 -186.475748 
L 792.692488 -174.2229 
L 794.983262 -162.542078 
L 797.274036 -174.168654 
L 799.56481 -178.085834 
L 801.855584 -169.44125 
L 804.146359 -173.774719 
L 806.437133 -161.492123 
L 808.727907 -151.964905 
L 811.018681 -172.390334 
L 813.309456 -245.52537 
L 815.60023 -227.772045 
L 817.891004 -233.123906 
L 820.181778 -244.664063 
L 822.472552 -210.200324 
L 824.763327 -199.458122 
L 827.054101 -182.661469 
L 829.344875 -190.499242 
L 831.635649 -179.933912 
L 833.926424 -159.799562 
L 836.217198 -279.38422 
L 838.507972 -215.798053 
L 840.798746 -186.314146 
L 843.08952 -185.676967 
L 845.380295 -165.532669 
L 847.671069 -156.890699 
L 849.961843 -164.668779 
L 852.252617 -162.561939 
L 854.543392 -173.600215 
L 856.834166 -165.479218 
L 859.12494 -164.649852 
L 861.415714 -175.968413 
L 863.706489 -167.224015 
L 865.997263 -163.260678 
L 868.288037 -158.396473 
L 870.578811 -160.647555 
L 872.869585 -166.12698 
L 875.16036 -167.905838 
L 877.451134 -167.311491 
L 879.741908 -168.112626 
L 882.032682 -164.94761 
L 884.323457 -166.679514 
L 886.614231 -167.942814 
L 888.905005 -163.956486 
L 891.195779 -162.852404 
L 893.486553 -161.730133 
L 895.777328 -173.56559 
L 898.068102 -169.154084 
L 900.358876 -173.059078 
L 902.64965 -183.147341 
L 904.940425 -188.386346 
L 907.231199 -247.314345 
L 909.521973 -197.25239 
L 911.812747 -164.548939 
L 914.103521 -169.777069 
L 916.394296 -161.167001 
L 918.68507 -160.454434 
L 920.975844 -177.198043 
L 923.266618 -169.675814 
L 925.557393 -164.536428 
L 927.848167 -174.882609 
L 930.138941 -172.320018 
L 932.429715 -169.444946 
L 934.72049 -173.550929 
L 937.011264 -167.328266 
L 939.302038 -170.970022 
L 941.592812 -167.585242 
L 943.883586 -178.217029 
L 946.174361 -176.073034 
L 948.465135 -172.027544 
L 950.755909 -167.114689 
L 950.755909 -296.896075 
L 950.755909 -296.896075 
L 948.465135 -286.921494 
L 946.174361 -295.121876 
L 943.883586 -281.175024 
L 941.592812 -257.643278 
L 939.302038 -283.436302 
L 937.011264 -254.331074 
L 934.72049 -301.60392 
L 932.429715 -279.248671 
L 930.138941 -287.69088 
L 927.848167 -313.326201 
L 925.557393 -263.648695 
L 923.266618 -271.175585 
L 920.975844 -285.869594 
L 918.68507 -246.788599 
L 916.394296 -283.756688 
L 914.103521 -263.87688 
L 911.812747 -268.133045 
L 909.521973 -322.999357 
L 907.231199 -529.046502 
L 904.940425 -343.528783 
L 902.64965 -289.19357 
L 900.358876 -264.13855 
L 898.068102 -260.68778 
L 895.777328 -281.397839 
L 893.486553 -252.42205 
L 891.195779 -251.98562 
L 888.905005 -290.118006 
L 886.614231 -278.367386 
L 884.323457 -249.517902 
L 882.032682 -288.968524 
L 879.741908 -258.090732 
L 877.451134 -295.486232 
L 875.16036 -269.682265 
L 872.869585 -250.485845 
L 870.578811 -241.611916 
L 868.288037 -227.7913 
L 865.997263 -266.684567 
L 863.706489 -270.554176 
L 861.415714 -287.937963 
L 859.12494 -255.62526 
L 856.834166 -262.754295 
L 854.543392 -268.616656 
L 852.252617 -248.406496 
L 849.961843 -256.673669 
L 847.671069 -221.44292 
L 845.380295 -258.618947 
L 843.08952 -319.986694 
L 840.798746 -397.492356 
L 838.507972 -386.580783 
L 836.217198 -506.150226 
L 833.926424 -254.054336 
L 831.635649 -298.337103 
L 829.344875 -381.553659 
L 827.054101 -290.747351 
L 824.763327 -325.28634 
L 822.472552 -346.421902 
L 820.181778 -433.552015 
L 817.891004 -414.335199 
L 815.60023 -375.4952 
L 813.309456 -411.492157 
L 811.018681 -280.807135 
L 808.727907 -259.49655 
L 806.437133 -263.179728 
L 804.146359 -284.095858 
L 801.855584 -295.39175 
L 799.56481 -287.639332 
L 797.274036 -276.114493 
L 794.983262 -262.760343 
L 792.692488 -308.125751 
L 790.401713 -326.603359 
L 788.110939 -300.526418 
L 785.820165 -308.534852 
L 783.529391 -269.940754 
L 781.238616 -246.510989 
L 778.947842 -219.695844 
L 776.657068 -242.86668 
L 774.366294 -255.42963 
L 772.075519 -216.775342 
L 769.784745 -231.498708 
L 767.493971 -236.221732 
L 765.203197 -247.831261 
L 762.912423 -235.432242 
L 760.621648 -240.692774 
L 758.330874 -248.887104 
L 756.0401 -202.81703 
L 753.749326 -244.042361 
L 751.458551 -205.404255 
L 749.167777 -200.712582 
L 746.877003 -222.053401 
L 744.586229 -217.220739 
L 742.295455 -234.258312 
L 740.00468 -208.371816 
L 737.713906 -238.086168 
L 735.423132 -254.813844 
L 733.132358 -231.407091 
L 730.841583 -255.760335 
L 728.550809 -238.540252 
L 726.260035 -259.359312 
L 723.969261 -256.492799 
L 721.678487 -248.615891 
L 719.387712 -213.850291 
L 717.096938 -253.945583 
L 714.806164 -253.238972 
L 712.51539 -252.966436 
L 710.224615 -259.869718 
L 707.933841 -285.191864 
L 705.643067 -250.867582 
L 703.352293 -254.586032 
L 701.061518 -266.359744 
L 698.770744 -262.148483 
L 696.47997 -238.74277 
L 694.189196 -256.159816 
L 691.898422 -317.491271 
L 689.607647 -244.33562 
L 687.316873 -221.317949 
L 685.026099 -263.267018 
L 682.735325 -214.263826 
L 680.44455 -253.965495 
L 678.153776 -245.104546 
L 675.863002 -280.956263 
L 673.572228 -284.099885 
L 671.281454 -251.869429 
L 668.990679 -249.458547 
L 666.699905 -260.693868 
L 664.409131 -261.464536 
L 662.118357 -236.327492 
L 659.827582 -237.711223 
L 657.536808 -238.246532 
L 655.246034 -208.924984 
L 652.95526 -225.047634 
L 650.664486 -205.965056 
L 648.373711 -214.462353 
L 646.082937 -215.817401 
L 643.792163 -200.78038 
L 641.501389 -219.848396 
L 639.210614 -217.662301 
L 636.91984 -209.79935 
L 634.629066 -227.548006 
L 632.338292 -217.058738 
L 630.047517 -228.46469 
L 627.756743 -223.374351 
L 625.465969 -204.996337 
L 623.175195 -227.668477 
L 620.884421 -200.56736 
L 618.593646 -216.04732 
L 616.302872 -214.867077 
L 614.012098 -208.940399 
L 611.721324 -227.221278 
L 609.430549 -245.439684 
L 607.139775 -208.453667 
L 604.849001 -207.559747 
L 602.558227 -199.018068 
L 600.267453 -214.879044 
L 597.976678 -214.345345 
L 595.685904 -200.813188 
L 593.39513 -208.716479 
L 591.104356 -208.72525 
L 588.813581 -204.537742 
L 586.522807 -191.960599 
L 584.232033 -198.956762 
L 581.941259 -209.468359 
L 579.650485 -196.282442 
L 577.35971 -210.104445 
L 575.068936 -198.1191 
L 572.778162 -206.022363 
L 570.487388 -187.048168 
L 568.196613 -205.175821 
L 565.905839 -210.231559 
L 563.615065 -215.834037 
L 561.324291 -221.785302 
L 559.033516 -263.056477 
L 556.742742 -234.299401 
L 554.451968 -230.361985 
L 552.161194 -227.99343 
L 549.87042 -224.148782 
L 547.579645 -230.22683 
L 545.288871 -238.168397 
L 542.998097 -233.620948 
L 540.707323 -237.387417 
L 538.416548 -247.579924 
L 536.125774 -241.66758 
L 533.835 -248.940945 
L 531.544226 -233.684871 
L 529.253452 -224.47235 
L 526.962677 -210.344727 
L 524.671903 -230.997573 
L 522.381129 -222.041219 
L 520.090355 -195.083208 
L 517.79958 -206.38787 
L 515.508806 -219.396479 
L 513.218032 -230.282478 
L 510.927258 -211.882711 
L 508.636484 -230.667839 
L 506.345709 -273.981523 
L 504.054935 -380.373358 
L 501.764161 -538.380511 
L 499.473387 -275.258432 
L 497.182612 -316.169396 
L 494.891838 -244.745781 
L 492.601064 -259.136873 
L 490.31029 -270.277087 
L 488.019515 -259.580857 
L 485.728741 -241.597158 
L 483.437967 -244.622724 
L 481.147193 -274.543046 
L 478.856419 -298.101487 
L 476.565644 -270.057551 
L 474.27487 -294.149075 
L 471.984096 -283.107881 
L 469.693322 -249.550908 
L 467.402547 -357.300598 
L 465.111773 -311.943756 
L 462.820999 -496.556545 
L 460.530225 -243.073092 
L 458.239451 -205.066971 
L 455.948676 -243.35615 
L 453.657902 -213.034463 
L 451.367128 -214.923564 
L 449.076354 -239.435256 
L 446.785579 -275.241761 
L 444.494805 -269.178734 
L 442.204031 -262.532619 
L 439.913257 -248.021221 
L 437.622483 -256.750285 
L 435.331708 -243.422904 
L 433.040934 -259.675018 
L 430.75016 -267.217 
L 428.459386 -247.547436 
L 426.168611 -217.232801 
L 423.877837 -249.207435 
L 421.587063 -224.868743 
L 419.296289 -226.252936 
L 417.005514 -229.396138 
L 414.71474 -260.523697 
L 412.423966 -289.23194 
L 410.133192 -235.886338 
L 407.842418 -232.360978 
L 405.551643 -252.915262 
L 403.260869 -245.911989 
L 400.970095 -197.858573 
L 398.679321 -204.190079 
L 396.388546 -191.445528 
L 394.097772 -184.44684 
L 391.806998 -217.157304 
L 389.516224 -227.580581 
L 387.22545 -213.189613 
L 384.934675 -258.554852 
L 382.643901 -224.461833 
L 380.353127 -232.403659 
L 378.062353 -244.733858 
L 375.771578 -218.89482 
L 373.480804 -210.454331 
L 371.19003 -254.106245 
L 368.899256 -225.296797 
L 366.608482 -229.05776 
L 364.317707 -212.378682 
L 362.026933 -223.910884 
L 359.736159 -234.143572 
L 357.445385 -260.349326 
L 355.15461 -219.947932 
L 352.863836 -235.299603 
L 350.573062 -209.808529 
L 348.282288 -205.896647 
L 345.991513 -237.200211 
L 343.700739 -246.535667 
L 341.409965 -234.059129 
L 339.119191 -267.881829 
L 336.828417 -222.877955 
L 334.537642 -229.869774 
L 332.246868 -227.071394 
L 329.956094 -207.173472 
L 327.66532 -249.377552 
L 325.374545 -207.772551 
L 323.083771 -200.729844 
L 320.792997 -220.765109 
L 318.502223 -229.742422 
L 316.211449 -238.577682 
L 313.920674 -241.287221 
L 311.6299 -199.785369 
L 309.339126 -219.252355 
L 307.048352 -234.592218 
L 304.757577 -208.501982 
L 302.466803 -243.301741 
L 300.176029 -243.853162 
L 297.885255 -201.175475 
L 295.594481 -231.483128 
L 293.303706 -238.094761 
L 291.012932 -246.130118 
L 288.722158 -210.201291 
L 286.431384 -228.008825 
L 284.140609 -203.930287 
L 281.849835 -221.082561 
L 279.559061 -214.311713 
L 277.268287 -232.464604 
L 274.977512 -191.923174 
L 272.686738 -204.907112 
L 270.395964 -257.226684 
L 268.10519 -287.325321 
L 265.814416 -222.857684 
L 263.523641 -242.326722 
L 261.232867 -231.39842 
L 258.942093 -225.598956 
L 256.651319 -228.627973 
L 254.360544 -213.216498 
L 252.06977 -243.70168 
L 249.778996 -214.301914 
L 247.488222 -223.632512 
L 245.197448 -203.469634 
L 242.906673 -221.390258 
L 240.615899 -222.406326 
L 238.325125 -250.438494 
L 236.034351 -208.597023 
L 233.743576 -256.561896 
L 231.452802 -258.810438 
L 229.162028 -263.040534 
L 226.871254 -234.356387 
L 224.58048 -247.449005 
L 222.289705 -274.469639 
L 219.998931 -251.124222 
L 217.708157 -232.140566 
L 215.417383 -206.928013 
L 213.126608 -199.343192 
L 210.835834 -119.425192 
L 208.54506 -258.332695 
L 206.254286 -250.446067 
L 203.963511 -276.999043 
L 201.672737 -259.504369 
L 199.381963 -262.546177 
L 197.091189 -266.077376 
L 194.800415 -267.152795 
L 192.50964 -262.421734 
L 190.218866 -267.655937 
L 187.928092 -234.723501 
L 185.637318 -259.094934 
L 183.346543 -243.941373 
L 181.055769 -241.242512 
L 178.764995 -247.570297 
L 176.474221 -218.364464 
L 174.183447 -230.145674 
L 171.892672 -248.024799 
L 169.601898 -269.981947 
L 167.311124 -237.006708 
L 165.02035 -242.120021 
L 162.729575 -252.875457 
L 160.438801 -282.993249 
L 158.148027 -193.689545 
L 155.857253 -248.300501 
L 153.566479 -217.925424 
L 151.275704 -224.500964 
L 148.98493 -237.691439 
L 146.694156 -236.171208 
L 144.403382 -213.941929 
L 142.112607 -275.470244 
L 139.821833 -205.66702 
L 137.531059 -222.81807 
L 135.240285 -234.699982 
L 132.94951 -279.980557 
L 130.658736 -236.425323 
L 128.367962 -246.486116 
L 126.077188 -251.260552 
L 123.786414 -241.157711 
L 121.495639 -212.245861 
L 119.204865 -262.195574 
L 116.914091 -258.855942 
z
" style="stroke: #edd1cb; stroke-opacity: 0.2"/>
    </defs>
    <g clip-path="url(#pa99eb9dca4)">
     <use xlink:href="#m07376bb9f3" x="0" y="576" style="fill: #edd1cb; fill-opacity: 0.2; stroke: #edd1cb; stroke-opacity: 0.2"/>
    </g>
   </g>
   <g id="PolyCollection_2">
    <defs>
     <path id="m482ce87b68" d="M 116.914091 -301.814203 
L 116.914091 -187.295819 
L 119.204865 -183.843605 
L 121.495639 -166.701824 
L 123.786414 -172.617263 
L 126.077188 -172.097623 
L 128.367962 -181.475795 
L 130.658736 -178.021016 
L 132.94951 -170.531517 
L 135.240285 -176.157208 
L 137.531059 -217.956918 
L 139.821833 -193.33308 
L 142.112607 -192.916095 
L 144.403382 -180.49462 
L 146.694156 -179.643131 
L 148.98493 -187.156523 
L 151.275704 -195.459169 
L 153.566479 -188.045832 
L 155.857253 -195.937325 
L 158.148027 -204.731791 
L 160.438801 -207.767879 
L 162.729575 -199.253178 
L 165.02035 -208.27953 
L 167.311124 -199.300775 
L 169.601898 -198.576209 
L 171.892672 -209.596051 
L 174.183447 -202.126566 
L 176.474221 -192.538984 
L 178.764995 -191.740216 
L 181.055769 -192.652651 
L 183.346543 -152.32297 
L 185.637318 -102.39663 
L 187.928092 -145.829541 
L 190.218866 -141.892081 
L 192.50964 -151.99876 
L 194.800415 -146.922704 
L 197.091189 -156.210597 
L 199.381963 -156.05661 
L 201.672737 -176.69386 
L 203.963511 -168.303467 
L 206.254286 -181.711323 
L 208.54506 -169.858163 
L 210.835834 -181.921649 
L 213.126608 -174.016757 
L 215.417383 -163.347346 
L 217.708157 -179.723805 
L 219.998931 -168.705854 
L 222.289705 -171.780731 
L 224.58048 -171.156366 
L 226.871254 -177.607556 
L 229.162028 -195.944952 
L 231.452802 -175.791163 
L 233.743576 -180.140404 
L 236.034351 -186.981938 
L 238.325125 -176.082324 
L 240.615899 -173.785207 
L 242.906673 -175.046124 
L 245.197448 -184.19971 
L 247.488222 -177.146174 
L 249.778996 -170.457093 
L 252.06977 -182.323842 
L 254.360544 -178.845811 
L 256.651319 -173.050136 
L 258.942093 -192.584926 
L 261.232867 -195.881702 
L 263.523641 -177.41988 
L 265.814416 -177.803251 
L 268.10519 -194.503049 
L 270.395964 -187.306397 
L 272.686738 -175.97967 
L 274.977512 -172.124862 
L 277.268287 -179.998251 
L 279.559061 -183.870052 
L 281.849835 -187.689906 
L 284.140609 -182.834841 
L 286.431384 -180.073986 
L 288.722158 -169.060615 
L 291.012932 -174.846156 
L 293.303706 -182.395872 
L 295.594481 -176.381387 
L 297.885255 -174.133465 
L 300.176029 -184.688436 
L 302.466803 -174.629654 
L 304.757577 -162.010049 
L 307.048352 -165.812503 
L 309.339126 -167.220617 
L 311.6299 -165.705321 
L 313.920674 -170.361592 
L 316.211449 -174.349182 
L 318.502223 -166.771283 
L 320.792997 -167.076097 
L 323.083771 -174.890277 
L 325.374545 -170.151161 
L 327.66532 -167.063362 
L 329.956094 -170.454276 
L 332.246868 -175.723128 
L 334.537642 -182.675118 
L 336.828417 -180.706688 
L 339.119191 -186.554864 
L 341.409965 -205.687051 
L 343.700739 -196.5825 
L 345.991513 -190.749019 
L 348.282288 -194.00241 
L 350.573062 -172.147152 
L 352.863836 -188.84551 
L 355.15461 -190.381999 
L 357.445385 -162.788867 
L 359.736159 -180.273893 
L 362.026933 -204.449066 
L 364.317707 -196.198325 
L 366.608482 -179.63304 
L 368.899256 -186.236337 
L 371.19003 -187.451268 
L 373.480804 -207.689184 
L 375.771578 -222.415654 
L 378.062353 -263.254001 
L 380.353127 -251.683775 
L 382.643901 -220.714671 
L 384.934675 -192.732618 
L 387.22545 -162.527516 
L 389.516224 -169.19881 
L 391.806998 -159.35997 
L 394.097772 -167.621441 
L 396.388546 -178.087134 
L 398.679321 -184.355221 
L 400.970095 -179.700802 
L 403.260869 -192.335877 
L 405.551643 -182.852237 
L 407.842418 -178.578638 
L 410.133192 -197.601592 
L 412.423966 -195.546325 
L 414.71474 -197.114905 
L 417.005514 -201.741966 
L 419.296289 -198.954242 
L 421.587063 -176.29363 
L 423.877837 -169.676209 
L 426.168611 -183.453487 
L 428.459386 -198.713303 
L 430.75016 -185.107193 
L 433.040934 -189.181802 
L 435.331708 -181.817661 
L 437.622483 -193.140927 
L 439.913257 -196.218986 
L 442.204031 -175.269374 
L 444.494805 -171.002204 
L 446.785579 -179.853414 
L 449.076354 -176.577707 
L 451.367128 -170.124906 
L 453.657902 -169.986673 
L 455.948676 -161.414448 
L 458.239451 -155.177451 
L 460.530225 -175.197097 
L 462.820999 -264.760399 
L 465.111773 -201.0944 
L 467.402547 -199.992753 
L 469.693322 -180.78684 
L 471.984096 -179.195097 
L 474.27487 -183.004004 
L 476.565644 -201.15833 
L 478.856419 -190.241609 
L 481.147193 -183.831027 
L 483.437967 -188.552506 
L 485.728741 -189.268529 
L 488.019515 -188.780963 
L 490.31029 -198.663875 
L 492.601064 -181.247792 
L 494.891838 -212.637144 
L 497.182612 -240.178805 
L 499.473387 -214.510085 
L 501.764161 -308.41983 
L 504.054935 -233.118547 
L 506.345709 -214.440297 
L 508.636484 -179.73661 
L 510.927258 -180.369274 
L 513.218032 -186.537084 
L 515.508806 -180.675512 
L 517.79958 -180.353994 
L 520.090355 -180.171814 
L 522.381129 -175.707796 
L 524.671903 -181.699595 
L 526.962677 -168.718776 
L 529.253452 -169.054717 
L 531.544226 -174.593719 
L 533.835 -187.294368 
L 536.125774 -175.500376 
L 538.416548 -183.180277 
L 540.707323 -176.409505 
L 542.998097 -176.627449 
L 545.288871 -170.579122 
L 547.579645 -177.68777 
L 549.87042 -184.074972 
L 552.161194 -176.630692 
L 554.451968 -181.838869 
L 556.742742 -178.893937 
L 559.033516 -183.965481 
L 561.324291 -189.677873 
L 563.615065 -190.637902 
L 565.905839 -187.997029 
L 568.196613 -177.528083 
L 570.487388 -177.134095 
L 572.778162 -179.748477 
L 575.068936 -184.618584 
L 577.35971 -189.034972 
L 579.650485 -168.919202 
L 581.941259 -176.437547 
L 584.232033 -172.078072 
L 586.522807 -185.759758 
L 588.813581 -185.322482 
L 591.104356 -168.419189 
L 593.39513 -162.568481 
L 595.685904 -167.0513 
L 597.976678 -179.508792 
L 600.267453 -171.584876 
L 602.558227 -176.652445 
L 604.849001 -188.028813 
L 607.139775 -174.103144 
L 609.430549 -179.799101 
L 611.721324 -168.820344 
L 614.012098 -174.32776 
L 616.302872 -167.764806 
L 618.593646 -179.929593 
L 620.884421 -177.221632 
L 623.175195 -176.316371 
L 625.465969 -170.85139 
L 627.756743 -173.654434 
L 630.047517 -170.40685 
L 632.338292 -169.164504 
L 634.629066 -184.891201 
L 636.91984 -183.159141 
L 639.210614 -172.867414 
L 641.501389 -181.376678 
L 643.792163 -177.66718 
L 646.082937 -169.68111 
L 648.373711 -181.816127 
L 650.664486 -186.270901 
L 652.95526 -179.397392 
L 655.246034 -178.055755 
L 657.536808 -183.468583 
L 659.827582 -189.929488 
L 662.118357 -182.502504 
L 664.409131 -184.780753 
L 666.699905 -191.648098 
L 668.990679 -193.375378 
L 671.281454 -189.02985 
L 673.572228 -196.708134 
L 675.863002 -195.946765 
L 678.153776 -193.364383 
L 680.44455 -189.768086 
L 682.735325 -201.585891 
L 685.026099 -197.658932 
L 687.316873 -217.078947 
L 689.607647 -215.857297 
L 691.898422 -200.505557 
L 694.189196 -186.986259 
L 696.47997 -178.360448 
L 698.770744 -180.791327 
L 701.061518 -185.759347 
L 703.352293 -189.411573 
L 705.643067 -180.511491 
L 707.933841 -183.295558 
L 710.224615 -199.103388 
L 712.51539 -170.717145 
L 714.806164 -184.954512 
L 717.096938 -174.580004 
L 719.387712 -182.988877 
L 721.678487 -192.50416 
L 723.969261 -190.04013 
L 726.260035 -174.892458 
L 728.550809 -183.207179 
L 730.841583 -191.930323 
L 733.132358 -189.228635 
L 735.423132 -189.35111 
L 737.713906 -184.401834 
L 740.00468 -181.198755 
L 742.295455 -179.850125 
L 744.586229 -164.939426 
L 746.877003 -170.719582 
L 749.167777 -169.166956 
L 751.458551 -170.925201 
L 753.749326 -170.455703 
L 756.0401 -180.044289 
L 758.330874 -187.715446 
L 760.621648 -183.600007 
L 762.912423 -184.262995 
L 765.203197 -171.642428 
L 767.493971 -176.839981 
L 769.784745 -175.154825 
L 772.075519 -169.31865 
L 774.366294 -170.010099 
L 776.657068 -167.88923 
L 778.947842 -168.303368 
L 781.238616 -175.5178 
L 783.529391 -164.629367 
L 785.820165 -180.542545 
L 788.110939 -192.590821 
L 790.401713 -175.099927 
L 792.692488 -158.492628 
L 794.983262 -176.696457 
L 797.274036 -171.178548 
L 799.56481 -174.786742 
L 801.855584 -176.189906 
L 804.146359 -171.950342 
L 806.437133 -156.587608 
L 808.727907 -151.445522 
L 811.018681 -176.192151 
L 813.309456 -254.451375 
L 815.60023 -217.290051 
L 817.891004 -200.360767 
L 820.181778 -186.349536 
L 822.472552 -167.380932 
L 824.763327 -180.813318 
L 827.054101 -173.915332 
L 829.344875 -186.207818 
L 831.635649 -160.597386 
L 833.926424 -188.224153 
L 836.217198 -258.44845 
L 838.507972 -220.486328 
L 840.798746 -194.827051 
L 843.08952 -176.04789 
L 845.380295 -166.631643 
L 847.671069 -157.156211 
L 849.961843 -160.032256 
L 852.252617 -158.423291 
L 854.543392 -161.005366 
L 856.834166 -160.772591 
L 859.12494 -157.58189 
L 861.415714 -149.471279 
L 863.706489 -143.247207 
L 865.997263 -152.381426 
L 868.288037 -133.91033 
L 870.578811 -129.956304 
L 872.869585 -126.403941 
L 875.16036 -120.922162 
L 877.451134 -116.048245 
L 879.741908 -112.500004 
L 882.032682 -156.197478 
L 884.323457 -141.556829 
L 886.614231 -148.552405 
L 888.905005 -159.685801 
L 891.195779 -161.981142 
L 893.486553 -166.978045 
L 895.777328 -156.428108 
L 898.068102 -151.601032 
L 900.358876 -163.660649 
L 902.64965 -160.182048 
L 904.940425 -172.690838 
L 907.231199 -163.453407 
L 909.521973 -151.650774 
L 911.812747 -149.515458 
L 914.103521 -148.848306 
L 916.394296 -158.760738 
L 918.68507 -159.749525 
L 920.975844 -165.49817 
L 923.266618 -164.462005 
L 925.557393 -164.051951 
L 927.848167 -162.252089 
L 930.138941 -164.691474 
L 932.429715 -164.477259 
L 934.72049 -155.515153 
L 937.011264 -160.458363 
L 939.302038 -164.149031 
L 941.592812 -164.130325 
L 943.883586 -160.1632 
L 946.174361 -161.516826 
L 948.465135 -171.040889 
L 950.755909 -164.634754 
L 950.755909 -218.293294 
L 950.755909 -218.293294 
L 948.465135 -245.962845 
L 946.174361 -207.33936 
L 943.883586 -214.190403 
L 941.592812 -225.095435 
L 939.302038 -214.932171 
L 937.011264 -209.777359 
L 934.72049 -209.701866 
L 932.429715 -218.195814 
L 930.138941 -213.879566 
L 927.848167 -221.215792 
L 925.557393 -220.71201 
L 923.266618 -226.411375 
L 920.975844 -227.392258 
L 918.68507 -215.026222 
L 916.394296 -207.248833 
L 914.103521 -194.491472 
L 911.812747 -194.96347 
L 909.521973 -199.491099 
L 907.231199 -222.859683 
L 904.940425 -234.414636 
L 902.64965 -216.546991 
L 900.358876 -217.405566 
L 898.068102 -191.829452 
L 895.777328 -196.738677 
L 893.486553 -218.668072 
L 891.195779 -218.438438 
L 888.905005 -216.685662 
L 886.614231 -201.48605 
L 884.323457 -208.119615 
L 882.032682 -234.747876 
L 879.741908 -134.497497 
L 877.451134 -150.755884 
L 875.16036 -157.683405 
L 872.869585 -167.661937 
L 870.578811 -178.947226 
L 868.288037 -171.320888 
L 865.997263 -199.6932 
L 863.706489 -185.103123 
L 861.415714 -193.851167 
L 859.12494 -206.472178 
L 856.834166 -212.829144 
L 854.543392 -216.814788 
L 852.252617 -203.881656 
L 849.961843 -244.963912 
L 847.671069 -206.199846 
L 845.380295 -211.361631 
L 843.08952 -235.924962 
L 840.798746 -285.163323 
L 838.507972 -317.715295 
L 836.217198 -402.84431 
L 833.926424 -275.527046 
L 831.635649 -218.354827 
L 829.344875 -262.002759 
L 827.054101 -245.551005 
L 824.763327 -279.39553 
L 822.472552 -246.172551 
L 820.181778 -279.827318 
L 817.891004 -285.999396 
L 815.60023 -302.279228 
L 813.309456 -362.595582 
L 811.018681 -252.159927 
L 808.727907 -200.000098 
L 806.437133 -211.970617 
L 804.146359 -240.287727 
L 801.855584 -267.611269 
L 799.56481 -244.407455 
L 797.274036 -241.115814 
L 794.983262 -262.616032 
L 792.692488 -244.280855 
L 790.401713 -236.811226 
L 788.110939 -292.566702 
L 785.820165 -246.306218 
L 783.529391 -225.821737 
L 781.238616 -250.503195 
L 778.947842 -242.843836 
L 776.657068 -235.252232 
L 774.366294 -233.638932 
L 772.075519 -246.712622 
L 769.784745 -267.426401 
L 767.493971 -239.974466 
L 765.203197 -244.82623 
L 762.912423 -260.230744 
L 760.621648 -264.123763 
L 758.330874 -304.272927 
L 756.0401 -253.034866 
L 753.749326 -242.646073 
L 751.458551 -237.426712 
L 749.167777 -232.500188 
L 746.877003 -241.970932 
L 744.586229 -225.508213 
L 742.295455 -251.893985 
L 740.00468 -263.460945 
L 737.713906 -260.514097 
L 735.423132 -272.500557 
L 733.132358 -278.146389 
L 730.841583 -313.532359 
L 728.550809 -265.801981 
L 726.260035 -287.862106 
L 723.969261 -284.932944 
L 721.678487 -299.067514 
L 719.387712 -256.696107 
L 717.096938 -238.450795 
L 714.806164 -266.015742 
L 712.51539 -240.613298 
L 710.224615 -297.874024 
L 707.933841 -282.852257 
L 705.643067 -254.596884 
L 703.352293 -275.987284 
L 701.061518 -271.675877 
L 698.770744 -262.609529 
L 696.47997 -258.018518 
L 694.189196 -302.590859 
L 691.898422 -284.224802 
L 689.607647 -323.244291 
L 687.316873 -317.323732 
L 685.026099 -307.081652 
L 682.735325 -300.412913 
L 680.44455 -276.612906 
L 678.153776 -274.743143 
L 675.863002 -285.987751 
L 673.572228 -277.902513 
L 671.281454 -263.402844 
L 668.990679 -283.32657 
L 666.699905 -319.710608 
L 664.409131 -266.169021 
L 662.118357 -259.095797 
L 659.827582 -286.52201 
L 657.536808 -260.188411 
L 655.246034 -254.127287 
L 652.95526 -249.114076 
L 650.664486 -280.229192 
L 648.373711 -263.342218 
L 646.082937 -244.471044 
L 643.792163 -293.780895 
L 641.501389 -271.700721 
L 639.210614 -237.92967 
L 636.91984 -299.89497 
L 634.629066 -265.717505 
L 632.338292 -241.994095 
L 630.047517 -233.378912 
L 627.756743 -244.811787 
L 625.465969 -234.486749 
L 623.175195 -244.4478 
L 620.884421 -240.273901 
L 618.593646 -279.455804 
L 616.302872 -232.361141 
L 614.012098 -253.899319 
L 611.721324 -232.060441 
L 609.430549 -260.248882 
L 607.139775 -236.202753 
L 604.849001 -280.205556 
L 602.558227 -242.25823 
L 600.267453 -241.604179 
L 597.976678 -254.04232 
L 595.685904 -238.127254 
L 593.39513 -232.112935 
L 591.104356 -233.97341 
L 588.813581 -258.273148 
L 586.522807 -260.748726 
L 584.232033 -241.334957 
L 581.941259 -246.691267 
L 579.650485 -243.366753 
L 577.35971 -262.504201 
L 575.068936 -266.234091 
L 572.778162 -247.943318 
L 570.487388 -253.983161 
L 568.196613 -245.625404 
L 565.905839 -265.273516 
L 563.615065 -260.703797 
L 561.324291 -260.056321 
L 559.033516 -253.588322 
L 556.742742 -272.535621 
L 554.451968 -256.063306 
L 552.161194 -261.698395 
L 549.87042 -253.394738 
L 547.579645 -241.265387 
L 545.288871 -235.81486 
L 542.998097 -252.004149 
L 540.707323 -253.558422 
L 538.416548 -259.476525 
L 536.125774 -243.181237 
L 533.835 -267.198787 
L 531.544226 -248.489788 
L 529.253452 -236.588489 
L 526.962677 -242.057409 
L 524.671903 -256.616487 
L 522.381129 -246.400423 
L 520.090355 -277.973885 
L 517.79958 -250.206085 
L 515.508806 -252.613093 
L 513.218032 -298.301441 
L 510.927258 -257.528078 
L 508.636484 -254.090561 
L 506.345709 -320.678023 
L 504.054935 -349.97495 
L 501.764161 -474.296075 
L 499.473387 -304.069008 
L 497.182612 -349.384629 
L 494.891838 -323.555602 
L 492.601064 -252.794983 
L 490.31029 -273.68725 
L 488.019515 -279.409488 
L 485.728741 -290.529585 
L 483.437967 -254.742791 
L 481.147193 -256.707636 
L 478.856419 -256.156843 
L 476.565644 -318.762776 
L 474.27487 -249.540818 
L 471.984096 -257.603731 
L 469.693322 -265.777077 
L 467.402547 -296.820551 
L 465.111773 -312.185541 
L 462.820999 -419.275638 
L 460.530225 -239.152341 
L 458.239451 -212.749253 
L 455.948676 -227.364285 
L 453.657902 -234.004576 
L 451.367128 -233.525288 
L 449.076354 -253.040686 
L 446.785579 -287.05606 
L 444.494805 -244.140257 
L 442.204031 -281.897004 
L 439.913257 -291.276584 
L 437.622483 -287.466927 
L 435.331708 -262.872801 
L 433.040934 -322.921002 
L 430.75016 -274.146516 
L 428.459386 -328.800792 
L 426.168611 -295.647339 
L 423.877837 -249.158824 
L 421.587063 -273.621863 
L 419.296289 -309.344099 
L 417.005514 -290.955099 
L 414.71474 -295.33361 
L 412.423966 -281.290688 
L 410.133192 -288.502851 
L 407.842418 -295.064968 
L 405.551643 -258.269991 
L 403.260869 -294.602453 
L 400.970095 -278.258668 
L 398.679321 -271.303393 
L 396.388546 -253.386096 
L 394.097772 -233.603852 
L 391.806998 -231.264997 
L 389.516224 -246.782756 
L 387.22545 -240.55907 
L 384.934675 -316.894924 
L 382.643901 -351.143386 
L 380.353127 -385.657444 
L 378.062353 -408.368252 
L 375.771578 -350.031485 
L 373.480804 -313.974442 
L 371.19003 -279.720436 
L 368.899256 -271.613128 
L 366.608482 -251.555277 
L 364.317707 -302.503461 
L 362.026933 -315.450613 
L 359.736159 -290.700027 
L 357.445385 -239.969747 
L 355.15461 -307.143318 
L 352.863836 -314.253439 
L 350.573062 -254.04708 
L 348.282288 -314.016706 
L 345.991513 -288.090487 
L 343.700739 -325.625007 
L 341.409965 -295.620579 
L 339.119191 -270.289598 
L 336.828417 -265.450388 
L 334.537642 -264.291235 
L 332.246868 -252.13224 
L 329.956094 -253.552948 
L 327.66532 -236.771316 
L 325.374545 -239.164069 
L 323.083771 -248.853741 
L 320.792997 -235.274831 
L 318.502223 -252.73983 
L 316.211449 -286.397112 
L 313.920674 -286.736238 
L 311.6299 -233.715054 
L 309.339126 -240.795938 
L 307.048352 -230.367753 
L 304.757577 -223.663134 
L 302.466803 -265.947096 
L 300.176029 -266.407274 
L 297.885255 -266.497883 
L 295.594481 -247.330436 
L 293.303706 -263.052191 
L 291.012932 -273.002237 
L 288.722158 -276.29464 
L 286.431384 -289.867984 
L 284.140609 -266.903096 
L 281.849835 -301.176346 
L 279.559061 -254.595737 
L 277.268287 -258.954314 
L 274.977512 -268.452813 
L 272.686738 -260.805701 
L 270.395964 -295.474446 
L 268.10519 -304.728544 
L 265.814416 -248.458278 
L 263.523641 -273.3066 
L 261.232867 -299.44383 
L 258.942093 -288.070065 
L 256.651319 -241.268897 
L 254.360544 -277.932791 
L 252.06977 -295.320743 
L 249.778996 -247.743443 
L 247.488222 -256.454072 
L 245.197448 -273.624746 
L 242.906673 -251.99437 
L 240.615899 -242.093855 
L 238.325125 -291.071326 
L 236.034351 -268.803949 
L 233.743576 -267.711984 
L 231.452802 -249.595685 
L 229.162028 -293.61646 
L 226.871254 -275.622974 
L 224.58048 -287.483306 
L 222.289705 -258.472206 
L 219.998931 -242.360224 
L 217.708157 -269.803637 
L 215.417383 -251.386338 
L 213.126608 -249.423413 
L 210.835834 -275.579263 
L 208.54506 -237.40766 
L 206.254286 -299.298763 
L 203.963511 -241.698425 
L 201.672737 -294.9554 
L 199.381963 -217.141546 
L 197.091189 -222.55566 
L 194.800415 -206.684369 
L 192.50964 -218.912727 
L 190.218866 -213.336761 
L 187.928092 -204.78459 
L 185.637318 -127.338919 
L 183.346543 -230.898466 
L 181.055769 -318.308321 
L 178.764995 -301.341422 
L 176.474221 -304.290701 
L 174.183447 -312.234576 
L 171.892672 -310.882623 
L 169.601898 -305.93315 
L 167.311124 -304.850892 
L 165.02035 -346.111703 
L 162.729575 -296.622682 
L 160.438801 -328.8952 
L 158.148027 -314.445207 
L 155.857253 -289.41536 
L 153.566479 -295.879829 
L 151.275704 -286.015607 
L 148.98493 -274.754706 
L 146.694156 -287.960586 
L 144.403382 -290.098879 
L 142.112607 -320.522284 
L 139.821833 -311.817975 
L 137.531059 -346.348569 
L 135.240285 -244.496921 
L 132.94951 -246.0935 
L 130.658736 -260.564008 
L 128.367962 -295.347806 
L 126.077188 -280.955293 
L 123.786414 -299.202729 
L 121.495639 -271.111886 
L 119.204865 -299.817063 
L 116.914091 -301.814203 
z
" style="stroke: #2d1e3e; stroke-opacity: 0.2"/>
    </defs>
    <g clip-path="url(#pa99eb9dca4)">
     <use xlink:href="#m482ce87b68" x="0" y="576" style="fill: #2d1e3e; fill-opacity: 0.2; stroke: #2d1e3e; stroke-opacity: 0.2"/>
    </g>
   </g>
   <g id="line2d_1">
    <path d="M 116.914091 360.178647 
L 119.204865 362.357997 
L 121.495639 400.846962 
L 123.786414 387.72647 
L 126.077188 387.38936 
L 128.367962 378.10561 
L 130.658736 390.759584 
L 132.94951 358.213927 
L 135.240285 388.673021 
L 137.531059 389.538601 
L 139.821833 402.30608 
L 142.112607 368.018454 
L 144.403382 401.104304 
L 146.694156 388.149111 
L 148.98493 382.215933 
L 151.275704 385.173316 
L 153.566479 397.055377 
L 155.857253 379.488402 
L 158.148027 410.878704 
L 160.438801 358.517264 
L 162.729575 377.488028 
L 165.02035 377.373926 
L 167.311124 379.098277 
L 169.601898 361.573045 
L 171.892672 374.194252 
L 174.183447 385.353532 
L 176.474221 392.198549 
L 178.764995 382.438656 
L 181.055769 376.301282 
L 183.346543 376.739992 
L 185.637318 371.179951 
L 187.928092 380.202008 
L 190.218866 361.722109 
L 192.50964 371.022899 
L 194.800415 370.954614 
L 197.091189 363.116213 
L 199.381963 364.465308 
L 201.672737 362.531674 
L 203.963511 361.912473 
L 206.254286 370.319173 
L 208.54506 375.14545 
L 210.835834 469.632572 
L 213.126608 413.788918 
L 215.417383 411.045328 
L 217.708157 394.322378 
L 219.998931 379.022255 
L 222.289705 374.018917 
L 224.58048 394.816866 
L 226.871254 386.032448 
L 229.162028 379.786896 
L 231.452802 378.336824 
L 233.743576 382.541645 
L 236.034351 400.544207 
L 238.325125 381.097965 
L 240.615899 393.823721 
L 242.906673 393.618223 
L 245.197448 406.519107 
L 247.488222 388.166275 
L 249.778996 396.380052 
L 252.06977 383.768517 
L 254.360544 394.139374 
L 256.651319 389.031452 
L 258.942093 390.654935 
L 261.232867 382.665796 
L 263.523641 387.861251 
L 265.814416 395.639541 
L 268.10519 363.665717 
L 270.395964 382.849208 
L 272.686738 404.169117 
L 274.977512 409.333478 
L 277.268287 389.657003 
L 279.559061 399.037684 
L 281.849835 396.037203 
L 284.140609 403.490903 
L 286.431384 393.318732 
L 288.722158 397.700831 
L 291.012932 383.461259 
L 293.303706 386.530711 
L 295.594481 383.285146 
L 297.885255 405.650085 
L 300.176029 391.365968 
L 302.466803 384.757958 
L 304.757577 399.33072 
L 307.048352 383.340485 
L 309.339126 396.695313 
L 311.6299 406.529687 
L 313.920674 383.865935 
L 316.211449 387.66521 
L 318.502223 390.768429 
L 320.792997 396.461506 
L 323.083771 404.222501 
L 325.374545 398.975124 
L 327.66532 390.498181 
L 329.956094 403.741927 
L 332.246868 390.178363 
L 334.537642 387.322124 
L 336.828417 388.517857 
L 339.119191 376.923249 
L 341.409965 387.690371 
L 343.700739 387.569707 
L 345.991513 395.879185 
L 348.282288 398.060426 
L 350.573062 396.271858 
L 352.863836 389.650764 
L 355.15461 396.735012 
L 357.445385 383.462042 
L 359.736159 387.980112 
L 362.026933 395.032408 
L 364.317707 396.944318 
L 366.608482 383.317785 
L 368.899256 389.531951 
L 371.19003 380.616182 
L 373.480804 397.013686 
L 375.771578 391.062586 
L 378.062353 373.079613 
L 380.353127 386.411611 
L 382.643901 390.389565 
L 384.934675 380.10193 
L 387.22545 396.540425 
L 389.516224 399.777945 
L 391.806998 398.517527 
L 394.097772 416.773467 
L 396.388546 414.873583 
L 398.679321 402.197678 
L 400.970095 407.513861 
L 403.260869 375.919758 
L 405.551643 374.407265 
L 407.842418 384.982557 
L 410.133192 384.59075 
L 412.423966 355.86558 
L 414.71474 370.153383 
L 417.005514 392.262042 
L 419.296289 389.880922 
L 421.587063 390.424512 
L 423.877837 376.164776 
L 426.168611 395.369495 
L 428.459386 373.185092 
L 430.75016 367.754653 
L 433.040934 371.183491 
L 435.331708 380.41251 
L 437.622483 378.228417 
L 439.913257 384.454362 
L 442.204031 374.899325 
L 444.494805 359.369783 
L 446.785579 360.845505 
L 449.076354 380.585395 
L 451.367128 396.012845 
L 453.657902 394.878021 
L 455.948676 382.642419 
L 458.239451 404.863994 
L 460.530225 383.256672 
L 462.820999 206.812361 
L 465.111773 324.729943 
L 467.402547 315.599435 
L 469.693322 370.781595 
L 471.984096 354.910885 
L 474.27487 352.587798 
L 476.565644 357.127834 
L 478.856419 340.427248 
L 481.147193 364.176653 
L 483.437967 379.822098 
L 485.728741 381.967402 
L 488.019515 376.409545 
L 490.31029 365.256195 
L 492.601064 376.356674 
L 494.891838 378.169046 
L 497.182612 319.105109 
L 499.473387 348.451229 
L 501.764161 144.083188 
L 504.054935 286.342882 
L 506.345709 362.005913 
L 508.636484 382.437089 
L 510.927258 395.574503 
L 513.218032 394.599902 
L 515.508806 392.582581 
L 520.090355 410.802627 
L 522.381129 394.866284 
L 524.671903 387.706546 
L 526.962677 398.269142 
L 529.253452 386.81475 
L 531.544226 387.366589 
L 533.835 376.741377 
L 536.125774 384.570835 
L 538.416548 375.756969 
L 540.707323 385.818872 
L 542.998097 387.841549 
L 545.288871 382.216628 
L 549.87042 393.977936 
L 552.161194 388.348749 
L 556.742742 389.400562 
L 559.033516 372.409499 
L 561.324291 396.343314 
L 563.615065 399.456444 
L 565.905839 400.86214 
L 568.196613 402.966673 
L 570.487388 413.166347 
L 572.778162 403.659717 
L 575.068936 407.549972 
L 577.35971 399.067622 
L 579.650485 409.440743 
L 581.941259 403.61269 
L 584.232033 407.523879 
L 586.522807 410.100852 
L 588.813581 403.804566 
L 591.104356 396.305812 
L 593.39513 400.895603 
L 595.685904 404.282029 
L 597.976678 398.34272 
L 600.267453 397.591184 
L 602.558227 408.877291 
L 604.849001 399.966822 
L 607.139775 399.109032 
L 609.430549 382.818922 
L 611.721324 388.757717 
L 614.012098 401.161328 
L 616.302872 399.014953 
L 618.593646 393.731057 
L 620.884421 403.822956 
L 623.175195 392.739312 
L 625.465969 402.020176 
L 627.756743 391.631409 
L 630.047517 383.646631 
L 632.338292 397.845726 
L 634.629066 387.427046 
L 636.91984 399.356916 
L 639.210614 395.224079 
L 641.501389 391.817128 
L 643.792163 404.706482 
L 646.082937 396.90132 
L 648.373711 398.62848 
L 650.664486 403.254199 
L 652.95526 389.974751 
L 655.246034 399.291143 
L 657.536808 383.321455 
L 659.827582 379.206242 
L 662.118357 380.476848 
L 664.409131 369.891811 
L 666.699905 372.974375 
L 668.990679 376.2703 
L 671.281454 376.55104 
L 673.572228 355.521104 
L 675.863002 361.536096 
L 678.153776 380.856034 
L 680.44455 375.240566 
L 682.735325 396.073713 
L 685.026099 369.240919 
L 687.316873 392.172927 
L 689.607647 378.487716 
L 691.898422 332.924738 
L 694.189196 374.639394 
L 696.47997 383.18888 
L 698.770744 375.629481 
L 701.061518 363.040919 
L 705.643067 378.237759 
L 707.933841 359.970038 
L 710.224615 371.622805 
L 712.51539 371.804385 
L 714.806164 368.251552 
L 717.096938 379.938732 
L 719.387712 398.334906 
L 721.678487 376.72672 
L 723.969261 373.889547 
L 726.260035 372.270175 
L 728.550809 387.024307 
L 730.841583 373.377092 
L 733.132358 385.228027 
L 735.423132 369.706244 
L 737.713906 383.810381 
L 740.00468 398.989284 
L 742.295455 389.504342 
L 744.586229 402.368792 
L 746.877003 404.024617 
L 749.167777 408.387281 
L 751.458551 409.357071 
L 753.749326 381.153127 
L 756.0401 408.342547 
L 758.330874 376.943517 
L 760.621648 385.092552 
L 762.912423 385.525894 
L 765.203197 380.659052 
L 767.493971 390.169439 
L 769.784745 389.853005 
L 772.075519 393.53819 
L 774.366294 376.183687 
L 776.657068 390.097178 
L 778.947842 394.194661 
L 781.238616 378.860913 
L 783.529391 368.533774 
L 785.820165 333.365765 
L 788.110939 342.702136 
L 790.401713 324.985609 
L 792.692488 343.163214 
L 794.983262 367.088175 
L 797.274036 356.287375 
L 799.56481 350.343898 
L 801.855584 349.456842 
L 804.146359 350.693643 
L 806.437133 370.081338 
L 808.727907 376.691101 
L 811.018681 356.060085 
L 813.309456 254.327261 
L 815.60023 282.404229 
L 817.891004 260.992681 
L 820.181778 243.108669 
L 822.472552 302.322418 
L 824.763327 316.42857 
L 827.054101 346.803421 
L 829.344875 302.420265 
L 831.635649 338.994366 
L 833.926424 377.467156 
L 836.217198 194.141178 
L 838.507972 285.732875 
L 843.08952 332.360983 
L 845.380295 368.388057 
L 847.671069 389.752599 
L 849.961843 368.831735 
L 852.252617 371.835383 
L 854.543392 358.964537 
L 856.834166 366.582584 
L 859.12494 371.163196 
L 861.415714 347.376002 
L 863.706489 365.120049 
L 865.997263 368.297051 
L 868.288037 383.367618 
L 870.578811 376.993355 
L 872.869585 369.51274 
L 875.16036 361.080031 
L 877.451134 354.682969 
L 879.741908 366.945372 
L 882.032682 358.669635 
L 884.323457 369.892699 
L 886.614231 359.243582 
L 888.905005 360.169099 
L 891.195779 372.372635 
L 893.486553 372.989786 
L 895.777328 354.012719 
L 898.068102 368.340048 
L 900.358876 363.639883 
L 902.64965 340.839993 
L 904.940425 321.686834 
L 907.231199 204.601582 
L 909.521973 321.966577 
L 911.812747 362.472371 
L 914.103521 361.661812 
L 916.394296 361.638035 
L 918.68507 376.774906 
L 920.975844 347.377155 
L 923.266618 357.284278 
L 925.557393 364.071478 
L 927.848167 343.134032 
L 930.138941 355.709675 
L 932.429715 354.131893 
L 934.72049 344.009977 
L 937.011264 367.769765 
L 939.302038 353.64558 
L 941.592812 368.248151 
L 943.883586 348.915839 
L 946.174361 347.899994 
L 948.465135 350.701683 
L 950.755909 350.996391 
L 950.755909 350.996391 
" clip-path="url(#pa99eb9dca4)" style="fill: none; stroke: #edd1cb; stroke-width: 1.5; stroke-linecap: round"/>
   </g>
   <g id="line2d_2">
    <path d="M 116.914091 338.242161 
L 119.204865 336.120356 
L 121.495639 362.044005 
L 123.786414 347.554191 
L 126.077188 357.30975 
L 128.367962 348.779739 
L 130.658736 356.378838 
L 132.94951 369.626716 
L 135.240285 366.171283 
L 137.531059 300.836645 
L 139.821833 332.860492 
L 142.112607 332.35928 
L 144.403382 345.346178 
L 146.694156 350.495819 
L 148.98493 350.644882 
L 151.275704 336.396301 
L 153.566479 339.770511 
L 155.857253 339.229624 
L 158.148027 321.982621 
L 160.438801 313.847523 
L 162.729575 331.978916 
L 165.02035 306.616478 
L 167.311124 324.237875 
L 169.601898 329.799854 
L 171.892672 319.927911 
L 174.183447 324.66106 
L 176.474221 333.931384 
L 178.764995 335.110945 
L 181.055769 331.358929 
L 183.346543 387.7655 
L 185.637318 462.288292 
L 187.928092 403.143449 
L 190.218866 402.327283 
L 192.50964 392.933509 
L 194.800415 402.870173 
L 197.091189 389.342294 
L 199.381963 390.992002 
L 201.672737 349.483211 
L 203.963511 373.808746 
L 206.254286 346.58075 
L 208.54506 373.400883 
L 210.835834 350.739057 
L 213.126608 367.585793 
L 215.417383 374.51101 
L 217.708157 356.093466 
L 219.998931 369.999315 
L 222.289705 365.277202 
L 224.58048 354.869584 
L 226.871254 354.692211 
L 229.162028 337.135479 
L 231.452802 366.217072 
L 233.743576 355.069465 
L 236.034351 350.581923 
L 238.325125 351.915868 
L 240.615899 370.759065 
L 242.906673 366.275894 
L 245.197448 351.71702 
L 247.488222 360.714102 
L 249.778996 367.477163 
L 252.06977 343.947174 
L 254.360544 354.8434 
L 256.651319 370.541846 
L 258.942093 340.335164 
L 261.232867 333.294575 
L 263.523641 356.326242 
L 265.814416 361.853784 
L 268.10519 332.387288 
L 270.395964 341.581748 
L 272.686738 362.602097 
L 274.977512 360.159913 
L 277.268287 360.199222 
L 279.559061 358.987529 
L 281.849835 336.970197 
L 284.140609 354.735665 
L 286.431384 347.535048 
L 288.722158 362.895536 
L 291.012932 356.018394 
L 293.303706 355.049813 
L 295.594481 368.723278 
L 297.885255 359.171615 
L 300.176029 354.181134 
L 302.466803 359.029121 
L 304.757577 383.818967 
L 307.048352 381.160125 
L 309.339126 373.847514 
L 311.6299 378.347201 
L 313.920674 355.559012 
L 316.211449 355.665624 
L 318.502223 370.653365 
L 320.792997 377.09847 
L 323.083771 366.48564 
L 327.66532 378.408184 
L 329.956094 367.194474 
L 332.246868 365.273719 
L 334.537642 356.959709 
L 336.828417 355.183442 
L 339.119191 350.373001 
L 341.409965 328.799194 
L 343.700739 324.449166 
L 345.991513 337.156348 
L 348.282288 327.636963 
L 350.573062 364.341373 
L 352.863836 333.597609 
L 355.15461 333.23675 
L 357.445385 377.559524 
L 359.736159 346.202935 
L 362.026933 323.08688 
L 364.317707 335.433649 
L 366.608482 362.203366 
L 368.899256 349.752569 
L 371.19003 344.816548 
L 373.480804 320.520794 
L 375.771578 293.765631 
L 378.062353 245.814963 
L 380.353127 258.077265 
L 384.934675 329.905673 
L 387.22545 376.988784 
L 389.516224 371.987551 
L 391.806998 382.251807 
L 394.097772 379.158948 
L 396.388546 362.863158 
L 398.679321 351.319958 
L 400.970095 351.424848 
L 403.260869 336.362719 
L 405.551643 356.42661 
L 407.842418 349.28561 
L 410.133192 336.042251 
L 412.423966 339.965994 
L 414.71474 331.638885 
L 417.005514 332.152456 
L 419.296289 329.796957 
L 421.587063 356.638944 
L 423.877837 368.951399 
L 426.168611 346.062081 
L 428.459386 317.671135 
L 430.75016 351.793317 
L 433.040934 329.757062 
L 435.331708 354.740568 
L 437.622483 339.748414 
L 439.913257 335.586291 
L 442.204031 353.773182 
L 444.494805 370.126802 
L 446.785579 351.556294 
L 451.367128 375.133663 
L 453.657902 374.695878 
L 455.948676 384.890843 
L 458.239451 394.522416 
L 460.530225 370.442221 
L 462.820999 243.645296 
L 465.111773 326.091677 
L 467.402547 331.757148 
L 469.693322 353.893762 
L 471.984096 362.552629 
L 474.27487 363.158757 
L 476.565644 323.773075 
L 478.856419 354.091954 
L 481.147193 359.127817 
L 483.437967 356.933893 
L 485.728741 341.147852 
L 488.019515 342.699957 
L 490.31029 341.65489 
L 492.601064 361.08211 
L 494.891838 313.466067 
L 497.182612 284.69761 
L 499.473387 319.65622 
L 501.764161 190.020738 
L 504.054935 291.762165 
L 506.345709 312.399491 
L 508.636484 362.198101 
L 510.927258 360.656828 
L 513.218032 342.959208 
L 515.508806 361.710385 
L 517.79958 362.606468 
L 520.090355 350.607267 
L 522.381129 367.956125 
L 524.671903 361.387838 
L 526.962677 371.803708 
L 529.253452 375.815938 
L 531.544226 366.139958 
L 533.835 352.700255 
L 536.125774 369.099038 
L 538.416548 356.19566 
L 540.707323 364.089597 
L 542.998097 363.304497 
L 545.288871 374.55241 
L 547.579645 368.419458 
L 549.87042 359.735113 
L 552.161194 363.080414 
L 554.451968 360.469627 
L 556.742742 356.016049 
L 559.033516 358.51496 
L 561.324291 352.63552 
L 563.615065 352.484438 
L 565.905839 352.69835 
L 568.196613 367.41649 
L 570.487388 363.295416 
L 572.778162 363.60751 
L 575.068936 352.887267 
L 577.35971 353.66301 
L 579.650485 371.762706 
L 581.941259 367.111597 
L 584.232033 371.136301 
L 586.522807 354.454823 
L 588.813581 355.078749 
L 591.104356 376.124961 
L 593.39513 382.081404 
L 595.685904 374.59676 
L 597.976678 362.721667 
L 600.267453 371.56175 
L 602.558227 367.96463 
L 604.849001 345.043113 
L 607.139775 373.08825 
L 609.430549 355.629022 
L 611.721324 377.733742 
L 614.012098 364.413856 
L 616.302872 379.031858 
L 618.593646 350.531955 
L 620.884421 369.73808 
L 623.175195 366.830015 
L 625.465969 374.627752 
L 627.756743 370.572873 
L 630.047517 374.378645 
L 632.338292 373.098892 
L 634.629066 352.447207 
L 636.91984 344.027847 
L 639.210614 373.187268 
L 641.501389 352.019727 
L 643.792163 350.166506 
L 646.082937 372.801928 
L 648.373711 357.350485 
L 650.664486 347.3413 
L 652.95526 361.841676 
L 655.246034 364.013675 
L 657.536808 356.673226 
L 659.827582 344.267445 
L 662.118357 359.421333 
L 664.409131 354.304415 
L 666.699905 327.256433 
L 671.281454 353.291069 
L 673.572228 344.479089 
L 675.863002 337.486867 
L 678.153776 342.927415 
L 680.44455 347.802926 
L 682.735325 327.9471 
L 685.026099 327.596925 
L 687.316873 311.697858 
L 689.607647 312.177031 
L 691.898422 335.082763 
L 694.189196 341.695525 
L 696.47997 360.233297 
L 698.770744 357.497308 
L 701.061518 350.728427 
L 703.352293 347.349046 
L 705.643067 359.257457 
L 707.933841 348.756217 
L 710.224615 330.936957 
L 712.51539 372.008422 
L 714.806164 353.844574 
L 717.096938 370.635142 
L 719.387712 355.717669 
L 721.678487 336.87746 
L 723.969261 343.306912 
L 726.260035 350.650253 
L 728.550809 353.979242 
L 730.841583 335.346218 
L 733.132358 348.508116 
L 735.423132 346.66536 
L 737.713906 356.165299 
L 740.00468 358.21408 
L 742.295455 361.519462 
L 744.586229 381.153581 
L 746.877003 372.347546 
L 749.167777 378.161775 
L 751.458551 374.011789 
L 753.749326 372.221958 
L 756.0401 360.445512 
L 758.330874 338.370639 
L 760.621648 355.015652 
L 762.912423 355.589114 
L 765.203197 369.887604 
L 767.493971 369.298815 
L 769.784745 359.041108 
L 772.075519 372.698283 
L 774.366294 375.321769 
L 776.657068 375.545206 
L 778.947842 375.470445 
L 781.238616 366.361914 
L 783.529391 383.269014 
L 785.820165 365.689587 
L 788.110939 338.760329 
L 790.401713 372.244981 
L 792.692488 380.538555 
L 794.983262 362.572743 
L 797.274036 371.68675 
L 799.56481 369.445548 
L 801.855584 361.643709 
L 804.146359 371.995331 
L 806.437133 394.569513 
L 808.727907 401.740852 
L 811.018681 364.408421 
L 813.309456 269.592662 
L 815.60023 315.653208 
L 817.891004 336.033735 
L 820.181778 349.818609 
L 822.472552 375.84307 
L 824.763327 353.311083 
L 827.054101 368.609064 
L 829.344875 354.017652 
L 831.635649 388.262204 
L 833.926424 349.22531 
L 836.217198 254.235619 
L 838.507972 307.707712 
L 840.798746 342.592599 
L 843.08952 373.445683 
L 845.380295 388.072257 
L 847.671069 397.136021 
L 849.961843 380.272372 
L 852.252617 395.510848 
L 854.543392 389.472425 
L 856.834166 390.792258 
L 859.12494 394.863414 
L 861.415714 406.029537 
L 863.706489 412.844563 
L 865.997263 399.907305 
L 868.288037 424.700485 
L 870.578811 425.348677 
L 872.869585 429.94085 
L 875.16036 438.004957 
L 877.451134 444.332949 
L 879.741908 452.745167 
L 882.032682 384.171601 
L 884.323457 403.611995 
L 886.614231 401.432134 
L 888.905005 388.971181 
L 891.195779 387.320066 
L 893.486553 385.382157 
L 895.777328 399.997602 
L 898.068102 405.169406 
L 900.358876 387.41067 
L 902.64965 389.637738 
L 904.940425 374.868597 
L 907.231199 384.205378 
L 909.521973 401.840758 
L 911.812747 406.135782 
L 914.103521 405.73385 
L 916.394296 394.759753 
L 918.68507 389.953705 
L 920.975844 382.820804 
L 923.266618 383.531049 
L 925.557393 385.094744 
L 927.848167 386.032084 
L 930.138941 388.456495 
L 932.429715 386.115627 
L 934.72049 395.221412 
L 937.011264 392.392103 
L 939.302038 388.966217 
L 941.592812 385.921361 
L 943.883586 391.276395 
L 946.174361 393.35875 
L 948.465135 371.539757 
L 950.755909 385.87536 
L 950.755909 385.87536 
" clip-path="url(#pa99eb9dca4)" style="fill: none; stroke: #2d1e3e; stroke-width: 1.5; stroke-linecap: round"/>
   </g>
   <g id="line2d_3"/>
   <g id="line2d_4"/>
   <g id="patch_3">
    <path d="M 75.222 501.03675 
L 75.222 15.552 
" style="fill: none; stroke: #262626; stroke-width: 1.25; stroke-linejoin: miter; stroke-linecap: square"/>
   </g>
   <g id="patch_4">
    <path d="M 992.448 501.03675 
L 992.448 15.552 
" style="fill: none; stroke: #262626; stroke-width: 1.25; stroke-linejoin: miter; stroke-linecap: square"/>
   </g>
   <g id="patch_5">
    <path d="M 75.222 501.03675 
L 992.448 501.03675 
" style="fill: none; stroke: #262626; stroke-width: 1.25; stroke-linejoin: miter; stroke-linecap: square"/>
   </g>
   <g id="patch_6">
    <path d="M 75.222 15.552 
L 992.448 15.552 
" style="fill: none; stroke: #262626; stroke-width: 1.25; stroke-linejoin: miter; stroke-linecap: square"/>
   </g>
   <g id="legend_1">
    <g id="patch_7">
     <path d="M 914.568 80.967 
L 983.208 80.967 
Q 985.848 80.967 985.848 78.327 
L 985.848 24.792 
Q 985.848 22.152 983.208 22.152 
L 914.568 22.152 
Q 911.928 22.152 911.928 24.792 
L 911.928 78.327 
Q 911.928 80.967 914.568 80.967 
z
" style="fill: #ffffff; opacity: 0.8; stroke: #cccccc; stroke-linejoin: miter"/>
    </g>
    <g id="text_49">
     <!-- 年份 -->
     <g style="fill: #262626" transform="translate(934.488 38.907) scale(0.144 -0.144)">
      <defs>
       <path id="SimHei-5e74" d="M 350 2925 
Q 900 3450 1375 4200 
Q 1850 4950 1900 5275 
Q 2275 5125 2600 5050 
Q 2375 4825 2100 4325 
L 4625 4325 
Q 5175 4325 5750 4350 
L 5750 3925 
Q 5225 3950 4625 3950 
L 3800 3950 
L 3800 2925 
Q 4750 2925 5475 2950 
L 5475 2525 
Q 4725 2550 3800 2550 
L 3800 1375 
L 5075 1375 
Q 5625 1375 6100 1400 
L 6100 975 
Q 5650 1000 5075 1000 
L 3800 1000 
L 3800 425 
Q 3800 -150 3825 -625 
L 3275 -625 
Q 3300 -150 3300 375 
L 3300 1000 
L 1600 1000 
Q 900 1000 275 975 
L 275 1400 
Q 875 1375 1450 1375 
Q 1450 2350 1425 2925 
L 3300 2925 
L 3300 3950 
L 1875 3950 
Q 1350 3150 925 2650 
Q 650 2875 350 2925 
z
M 3300 1375 
L 3300 2550 
L 1925 2550 
L 1925 1375 
L 3300 1375 
z
" transform="scale(0.015625)"/>
       <path id="SimHei-4efd" d="M 4750 5100 
Q 4875 4375 5250 3650 
Q 5625 2925 6200 2450 
Q 6025 2375 5775 2075 
Q 5600 2275 5350 2575 
Q 5300 2275 5275 1312 
Q 5250 350 5187 25 
Q 5125 -300 4850 -400 
Q 4575 -500 4075 -550 
Q 4000 -250 3875 0 
Q 4400 -25 4575 25 
Q 4750 75 4775 587 
Q 4800 1100 4825 2250 
L 3700 2250 
Q 3675 1300 3425 650 
Q 3175 0 2375 -625 
Q 2175 -350 2000 -225 
Q 2750 225 2987 800 
Q 3225 1375 3225 2250 
Q 3000 2250 2675 2225 
L 2675 2575 
Q 2475 2300 2150 1950 
Q 2000 2150 1750 2300 
Q 2875 3275 3225 4875 
Q 3450 4775 3750 4675 
Q 3625 4400 3425 3887 
Q 3225 3375 2775 2700 
Q 3050 2675 3400 2675 
L 5300 2675 
Q 4575 3625 4275 4975 
Q 4575 5025 4750 5100 
z
M 225 2525 
Q 575 2875 1025 3687 
Q 1475 4500 1650 5225 
Q 1975 5075 2200 4975 
Q 2050 4750 1600 3775 
L 1600 625 
Q 1600 75 1625 -575 
L 1100 -575 
Q 1125 50 1125 625 
L 1125 2925 
Q 775 2400 575 2175 
Q 425 2350 225 2525 
z
" transform="scale(0.015625)"/>
      </defs>
      <use xlink:href="#SimHei-5e74"/>
      <use xlink:href="#SimHei-4efd" x="100"/>
     </g>
    </g>
    <g id="line2d_5">
     <path d="M 917.208 51.927 
L 930.408 51.927 
L 943.608 51.927 
" style="fill: none; stroke: #edd1cb; stroke-width: 1.5; stroke-linecap: round"/>
    </g>
    <g id="text_50">
     <!-- 2021 -->
     <g style="fill: #262626" transform="translate(954.168 56.547) scale(0.132 -0.132)">
      <use xlink:href="#SimHei-32"/>
      <use xlink:href="#SimHei-30" x="50"/>
      <use xlink:href="#SimHei-32" x="100"/>
      <use xlink:href="#SimHei-31" x="150"/>
     </g>
    </g>
    <g id="line2d_6">
     <path d="M 917.208 69.417 
L 930.408 69.417 
L 943.608 69.417 
" style="fill: none; stroke: #2d1e3e; stroke-width: 1.5; stroke-linecap: round"/>
    </g>
    <g id="text_51">
     <!-- 2022 -->
     <g style="fill: #262626" transform="translate(954.168 74.037) scale(0.132 -0.132)">
      <use xlink:href="#SimHei-32"/>
      <use xlink:href="#SimHei-30" x="50"/>
      <use xlink:href="#SimHei-32" x="100"/>
      <use xlink:href="#SimHei-32" x="150"/>
     </g>
    </g>
   </g>
  </g>
 </g>
 <defs>
  <clipPath id="pa99eb9dca4">
   <rect x="75.222" y="15.552" width="917.226" height="485.48475"/>
  </clipPath>
 </defs>
</svg>
