<?xml version="1.0" encoding="utf-8" standalone="no"?>
<!DOCTYPE svg PUBLIC "-//W3C//DTD SVG 1.1//EN"
  "http://www.w3.org/Graphics/SVG/1.1/DTD/svg11.dtd">
<svg xmlns:xlink="http://www.w3.org/1999/xlink" width="1008pt" height="576pt" viewBox="0 0 1008 576" xmlns="http://www.w3.org/2000/svg" version="1.1">
 <metadata>
  <rdf:RDF xmlns:dc="http://purl.org/dc/elements/1.1/" xmlns:cc="http://creativecommons.org/ns#" xmlns:rdf="http://www.w3.org/1999/02/22-rdf-syntax-ns#">
   <cc:Work>
    <dc:type rdf:resource="http://purl.org/dc/dcmitype/StillImage"/>
    <dc:date>2023-04-14T12:56:09.932755</dc:date>
    <dc:format>image/svg+xml</dc:format>
    <dc:creator>
     <cc:Agent>
      <dc:title>Matplotlib v3.7.1, https://matplotlib.org/</dc:title>
     </cc:Agent>
    </dc:creator>
   </cc:Work>
  </rdf:RDF>
 </metadata>
 <defs>
  <style type="text/css">*{stroke-linejoin: round; stroke-linecap: butt}</style>
 </defs>
 <g id="figure_1">
  <g id="patch_1">
   <path d="M 0 576 
L 1008 576 
L 1008 0 
L 0 0 
z
" style="fill: #ffffff"/>
  </g>
  <g id="axes_1">
   <g id="patch_2">
    <path d="M 81.792 501.03675 
L 992.448 501.03675 
L 992.448 15.552 
L 81.792 15.552 
z
" style="fill: #ffffff"/>
   </g>
   <g id="matplotlib.axis_1">
    <g id="xtick_1">
     <g id="line2d_1">
      <path d="M 123.185455 501.03675 
L 123.185455 15.552 
" clip-path="url(#p11c93afd2b)" style="fill: none; stroke: #cccccc; stroke-linecap: round"/>
     </g>
     <g id="text_1">
      <!-- 01-01 -->
      <g style="fill: #262626" transform="translate(126.897955 543.53675) rotate(-90) scale(0.132 -0.132)">
       <defs>
        <path id="SimHei-30" d="M 225 2537 
Q 250 3200 412 3587 
Q 575 3975 875 4225 
Q 1175 4475 1612 4475 
Q 2050 4475 2375 4112 
Q 2700 3750 2800 3200 
Q 2900 2650 2862 1937 
Q 2825 1225 2612 775 
Q 2400 325 1975 150 
Q 1550 -25 1125 187 
Q 700 400 525 750 
Q 350 1100 275 1487 
Q 200 1875 225 2537 
z
M 750 2687 
Q 675 2000 800 1462 
Q 925 925 1212 700 
Q 1500 475 1800 612 
Q 2100 750 2237 1162 
Q 2375 1575 2375 2062 
Q 2375 2550 2337 2950 
Q 2300 3350 2112 3675 
Q 1925 4000 1612 4012 
Q 1300 4025 1062 3700 
Q 825 3375 750 2687 
z
" transform="scale(0.015625)"/>
        <path id="SimHei-31" d="M 1400 3600 
Q 1075 3275 575 2975 
L 575 3450 
Q 1200 3875 1600 4450 
L 1900 4450 
L 1900 150 
L 1400 150 
L 1400 3600 
z
" transform="scale(0.015625)"/>
        <path id="SimHei-2d" d="M 2975 2125 
L 125 2125 
L 125 2525 
L 2975 2525 
L 2975 2125 
z
" transform="scale(0.015625)"/>
       </defs>
       <use xlink:href="#SimHei-30"/>
       <use xlink:href="#SimHei-31" x="50"/>
       <use xlink:href="#SimHei-2d" x="100"/>
       <use xlink:href="#SimHei-30" x="150"/>
       <use xlink:href="#SimHei-31" x="200"/>
      </g>
     </g>
    </g>
    <g id="xtick_2">
     <g id="line2d_2">
      <path d="M 145.929111 501.03675 
L 145.929111 15.552 
" clip-path="url(#p11c93afd2b)" style="fill: none; stroke: #cccccc; stroke-linecap: round"/>
     </g>
     <g id="text_2">
      <!-- 01-11 -->
      <g style="fill: #262626" transform="translate(149.641611 543.53675) rotate(-90) scale(0.132 -0.132)">
       <use xlink:href="#SimHei-30"/>
       <use xlink:href="#SimHei-31" x="50"/>
       <use xlink:href="#SimHei-2d" x="100"/>
       <use xlink:href="#SimHei-31" x="150"/>
       <use xlink:href="#SimHei-31" x="200"/>
      </g>
     </g>
    </g>
    <g id="xtick_3">
     <g id="line2d_3">
      <path d="M 168.672767 501.03675 
L 168.672767 15.552 
" clip-path="url(#p11c93afd2b)" style="fill: none; stroke: #cccccc; stroke-linecap: round"/>
     </g>
     <g id="text_3">
      <!-- 01-21 -->
      <g style="fill: #262626" transform="translate(172.385267 543.53675) rotate(-90) scale(0.132 -0.132)">
       <defs>
        <path id="SimHei-32" d="M 300 250 
Q 325 625 650 925 
Q 975 1225 1475 1862 
Q 1975 2500 2125 2850 
Q 2275 3200 2237 3450 
Q 2200 3700 2000 3862 
Q 1800 4025 1537 4000 
Q 1275 3975 1037 3800 
Q 800 3625 675 3275 
L 200 3350 
Q 400 3925 712 4187 
Q 1025 4450 1450 4475 
Q 1700 4500 1900 4462 
Q 2100 4425 2312 4287 
Q 2525 4150 2662 3875 
Q 2800 3600 2762 3212 
Q 2725 2825 2375 2287 
Q 2025 1750 1025 600 
L 2825 600 
L 2825 150 
L 300 150 
L 300 250 
z
" transform="scale(0.015625)"/>
       </defs>
       <use xlink:href="#SimHei-30"/>
       <use xlink:href="#SimHei-31" x="50"/>
       <use xlink:href="#SimHei-2d" x="100"/>
       <use xlink:href="#SimHei-32" x="150"/>
       <use xlink:href="#SimHei-31" x="200"/>
      </g>
     </g>
    </g>
    <g id="xtick_4">
     <g id="line2d_4">
      <path d="M 191.416424 501.03675 
L 191.416424 15.552 
" clip-path="url(#p11c93afd2b)" style="fill: none; stroke: #cccccc; stroke-linecap: round"/>
     </g>
     <g id="text_4">
      <!-- 01-31 -->
      <g style="fill: #262626" transform="translate(195.128924 543.53675) rotate(-90) scale(0.132 -0.132)">
       <defs>
        <path id="SimHei-33" d="M 250 1225 
L 700 1300 
Q 800 975 1025 762 
Q 1250 550 1587 562 
Q 1925 575 2125 837 
Q 2325 1100 2300 1437 
Q 2275 1775 2037 1962 
Q 1800 2150 1275 2225 
L 1275 2550 
Q 1800 2600 2037 2825 
Q 2275 3050 2250 3412 
Q 2225 3775 1925 3937 
Q 1625 4100 1287 3975 
Q 950 3850 750 3275 
L 300 3350 
Q 450 3800 712 4100 
Q 975 4400 1425 4450 
Q 1875 4500 2212 4337 
Q 2550 4175 2687 3837 
Q 2825 3500 2725 3100 
Q 2625 2700 2150 2400 
Q 2500 2250 2687 1950 
Q 2875 1650 2812 1162 
Q 2750 675 2375 375 
Q 2000 75 1525 87 
Q 1050 100 700 387 
Q 350 675 250 1225 
z
" transform="scale(0.015625)"/>
       </defs>
       <use xlink:href="#SimHei-30"/>
       <use xlink:href="#SimHei-31" x="50"/>
       <use xlink:href="#SimHei-2d" x="100"/>
       <use xlink:href="#SimHei-33" x="150"/>
       <use xlink:href="#SimHei-31" x="200"/>
      </g>
     </g>
    </g>
    <g id="xtick_5">
     <g id="line2d_5">
      <path d="M 214.16008 501.03675 
L 214.16008 15.552 
" clip-path="url(#p11c93afd2b)" style="fill: none; stroke: #cccccc; stroke-linecap: round"/>
     </g>
     <g id="text_5">
      <!-- 02-10 -->
      <g style="fill: #262626" transform="translate(217.87258 543.53675) rotate(-90) scale(0.132 -0.132)">
       <use xlink:href="#SimHei-30"/>
       <use xlink:href="#SimHei-32" x="50"/>
       <use xlink:href="#SimHei-2d" x="100"/>
       <use xlink:href="#SimHei-31" x="150"/>
       <use xlink:href="#SimHei-30" x="200"/>
      </g>
     </g>
    </g>
    <g id="xtick_6">
     <g id="line2d_6">
      <path d="M 236.903736 501.03675 
L 236.903736 15.552 
" clip-path="url(#p11c93afd2b)" style="fill: none; stroke: #cccccc; stroke-linecap: round"/>
     </g>
     <g id="text_6">
      <!-- 02-20 -->
      <g style="fill: #262626" transform="translate(240.616236 543.53675) rotate(-90) scale(0.132 -0.132)">
       <use xlink:href="#SimHei-30"/>
       <use xlink:href="#SimHei-32" x="50"/>
       <use xlink:href="#SimHei-2d" x="100"/>
       <use xlink:href="#SimHei-32" x="150"/>
       <use xlink:href="#SimHei-30" x="200"/>
      </g>
     </g>
    </g>
    <g id="xtick_7">
     <g id="line2d_7">
      <path d="M 259.647393 501.03675 
L 259.647393 15.552 
" clip-path="url(#p11c93afd2b)" style="fill: none; stroke: #cccccc; stroke-linecap: round"/>
     </g>
     <g id="text_7">
      <!-- 03-02 -->
      <g style="fill: #262626" transform="translate(263.359893 543.53675) rotate(-90) scale(0.132 -0.132)">
       <use xlink:href="#SimHei-30"/>
       <use xlink:href="#SimHei-33" x="50"/>
       <use xlink:href="#SimHei-2d" x="100"/>
       <use xlink:href="#SimHei-30" x="150"/>
       <use xlink:href="#SimHei-32" x="200"/>
      </g>
     </g>
    </g>
    <g id="xtick_8">
     <g id="line2d_8">
      <path d="M 282.391049 501.03675 
L 282.391049 15.552 
" clip-path="url(#p11c93afd2b)" style="fill: none; stroke: #cccccc; stroke-linecap: round"/>
     </g>
     <g id="text_8">
      <!-- 03-12 -->
      <g style="fill: #262626" transform="translate(286.103549 543.53675) rotate(-90) scale(0.132 -0.132)">
       <use xlink:href="#SimHei-30"/>
       <use xlink:href="#SimHei-33" x="50"/>
       <use xlink:href="#SimHei-2d" x="100"/>
       <use xlink:href="#SimHei-31" x="150"/>
       <use xlink:href="#SimHei-32" x="200"/>
      </g>
     </g>
    </g>
    <g id="xtick_9">
     <g id="line2d_9">
      <path d="M 305.134705 501.03675 
L 305.134705 15.552 
" clip-path="url(#p11c93afd2b)" style="fill: none; stroke: #cccccc; stroke-linecap: round"/>
     </g>
     <g id="text_9">
      <!-- 03-22 -->
      <g style="fill: #262626" transform="translate(308.847205 543.53675) rotate(-90) scale(0.132 -0.132)">
       <use xlink:href="#SimHei-30"/>
       <use xlink:href="#SimHei-33" x="50"/>
       <use xlink:href="#SimHei-2d" x="100"/>
       <use xlink:href="#SimHei-32" x="150"/>
       <use xlink:href="#SimHei-32" x="200"/>
      </g>
     </g>
    </g>
    <g id="xtick_10">
     <g id="line2d_10">
      <path d="M 327.878362 501.03675 
L 327.878362 15.552 
" clip-path="url(#p11c93afd2b)" style="fill: none; stroke: #cccccc; stroke-linecap: round"/>
     </g>
     <g id="text_10">
      <!-- 04-01 -->
      <g style="fill: #262626" transform="translate(331.590862 543.53675) rotate(-90) scale(0.132 -0.132)">
       <defs>
        <path id="SimHei-34" d="M 2000 1100 
L 75 1100 
L 75 1525 
L 2100 4450 
L 2475 4450 
L 2475 1525 
L 3075 1525 
L 3075 1100 
L 2475 1100 
L 2475 150 
L 2000 150 
L 2000 1100 
z
M 2000 1525 
L 2000 3500 
L 600 1525 
L 2000 1525 
z
" transform="scale(0.015625)"/>
       </defs>
       <use xlink:href="#SimHei-30"/>
       <use xlink:href="#SimHei-34" x="50"/>
       <use xlink:href="#SimHei-2d" x="100"/>
       <use xlink:href="#SimHei-30" x="150"/>
       <use xlink:href="#SimHei-31" x="200"/>
      </g>
     </g>
    </g>
    <g id="xtick_11">
     <g id="line2d_11">
      <path d="M 350.622018 501.03675 
L 350.622018 15.552 
" clip-path="url(#p11c93afd2b)" style="fill: none; stroke: #cccccc; stroke-linecap: round"/>
     </g>
     <g id="text_11">
      <!-- 04-11 -->
      <g style="fill: #262626" transform="translate(354.334518 543.53675) rotate(-90) scale(0.132 -0.132)">
       <use xlink:href="#SimHei-30"/>
       <use xlink:href="#SimHei-34" x="50"/>
       <use xlink:href="#SimHei-2d" x="100"/>
       <use xlink:href="#SimHei-31" x="150"/>
       <use xlink:href="#SimHei-31" x="200"/>
      </g>
     </g>
    </g>
    <g id="xtick_12">
     <g id="line2d_12">
      <path d="M 373.365674 501.03675 
L 373.365674 15.552 
" clip-path="url(#p11c93afd2b)" style="fill: none; stroke: #cccccc; stroke-linecap: round"/>
     </g>
     <g id="text_12">
      <!-- 04-21 -->
      <g style="fill: #262626" transform="translate(377.078174 543.53675) rotate(-90) scale(0.132 -0.132)">
       <use xlink:href="#SimHei-30"/>
       <use xlink:href="#SimHei-34" x="50"/>
       <use xlink:href="#SimHei-2d" x="100"/>
       <use xlink:href="#SimHei-32" x="150"/>
       <use xlink:href="#SimHei-31" x="200"/>
      </g>
     </g>
    </g>
    <g id="xtick_13">
     <g id="line2d_13">
      <path d="M 396.109331 501.03675 
L 396.109331 15.552 
" clip-path="url(#p11c93afd2b)" style="fill: none; stroke: #cccccc; stroke-linecap: round"/>
     </g>
     <g id="text_13">
      <!-- 05-01 -->
      <g style="fill: #262626" transform="translate(399.821831 543.53675) rotate(-90) scale(0.132 -0.132)">
       <defs>
        <path id="SimHei-35" d="M 550 1325 
Q 725 650 1150 575 
Q 1575 500 1837 662 
Q 2100 825 2212 1087 
Q 2325 1350 2312 1675 
Q 2300 2000 2137 2225 
Q 1975 2450 1725 2525 
Q 1475 2600 1162 2525 
Q 850 2450 650 2175 
L 225 2225 
Q 275 2375 700 4375 
L 2675 4375 
L 2675 3925 
L 1075 3925 
Q 950 3250 825 2850 
Q 1200 3025 1525 3012 
Q 1850 3000 2150 2862 
Q 2450 2725 2587 2487 
Q 2725 2250 2787 2012 
Q 2850 1775 2837 1500 
Q 2825 1225 2725 937 
Q 2625 650 2425 462 
Q 2225 275 1937 162 
Q 1650 50 1275 75 
Q 900 100 562 350 
Q 225 600 100 1200 
L 550 1325 
z
" transform="scale(0.015625)"/>
       </defs>
       <use xlink:href="#SimHei-30"/>
       <use xlink:href="#SimHei-35" x="50"/>
       <use xlink:href="#SimHei-2d" x="100"/>
       <use xlink:href="#SimHei-30" x="150"/>
       <use xlink:href="#SimHei-31" x="200"/>
      </g>
     </g>
    </g>
    <g id="xtick_14">
     <g id="line2d_14">
      <path d="M 418.852987 501.03675 
L 418.852987 15.552 
" clip-path="url(#p11c93afd2b)" style="fill: none; stroke: #cccccc; stroke-linecap: round"/>
     </g>
     <g id="text_14">
      <!-- 05-11 -->
      <g style="fill: #262626" transform="translate(422.565487 543.53675) rotate(-90) scale(0.132 -0.132)">
       <use xlink:href="#SimHei-30"/>
       <use xlink:href="#SimHei-35" x="50"/>
       <use xlink:href="#SimHei-2d" x="100"/>
       <use xlink:href="#SimHei-31" x="150"/>
       <use xlink:href="#SimHei-31" x="200"/>
      </g>
     </g>
    </g>
    <g id="xtick_15">
     <g id="line2d_15">
      <path d="M 441.596643 501.03675 
L 441.596643 15.552 
" clip-path="url(#p11c93afd2b)" style="fill: none; stroke: #cccccc; stroke-linecap: round"/>
     </g>
     <g id="text_15">
      <!-- 05-21 -->
      <g style="fill: #262626" transform="translate(445.309143 543.53675) rotate(-90) scale(0.132 -0.132)">
       <use xlink:href="#SimHei-30"/>
       <use xlink:href="#SimHei-35" x="50"/>
       <use xlink:href="#SimHei-2d" x="100"/>
       <use xlink:href="#SimHei-32" x="150"/>
       <use xlink:href="#SimHei-31" x="200"/>
      </g>
     </g>
    </g>
    <g id="xtick_16">
     <g id="line2d_16">
      <path d="M 464.3403 501.03675 
L 464.3403 15.552 
" clip-path="url(#p11c93afd2b)" style="fill: none; stroke: #cccccc; stroke-linecap: round"/>
     </g>
     <g id="text_16">
      <!-- 05-31 -->
      <g style="fill: #262626" transform="translate(468.0528 543.53675) rotate(-90) scale(0.132 -0.132)">
       <use xlink:href="#SimHei-30"/>
       <use xlink:href="#SimHei-35" x="50"/>
       <use xlink:href="#SimHei-2d" x="100"/>
       <use xlink:href="#SimHei-33" x="150"/>
       <use xlink:href="#SimHei-31" x="200"/>
      </g>
     </g>
    </g>
    <g id="xtick_17">
     <g id="line2d_17">
      <path d="M 487.083956 501.03675 
L 487.083956 15.552 
" clip-path="url(#p11c93afd2b)" style="fill: none; stroke: #cccccc; stroke-linecap: round"/>
     </g>
     <g id="text_17">
      <!-- 06-10 -->
      <g style="fill: #262626" transform="translate(490.796456 543.53675) rotate(-90) scale(0.132 -0.132)">
       <defs>
        <path id="SimHei-36" d="M 250 1612 
Q 275 1975 387 2225 
Q 500 2475 725 2850 
L 1750 4450 
L 2325 4450 
L 1275 2800 
Q 1950 2975 2350 2750 
Q 2750 2525 2887 2237 
Q 3025 1950 3037 1612 
Q 3050 1275 2937 950 
Q 2825 625 2537 362 
Q 2250 100 1737 75 
Q 1225 50 862 262 
Q 500 475 362 862 
Q 225 1250 250 1612 
z
M 1025 787 
Q 1250 550 1625 525 
Q 2000 500 2250 775 
Q 2500 1050 2500 1575 
Q 2500 2100 2187 2300 
Q 1875 2500 1487 2450 
Q 1100 2400 925 2075 
Q 750 1750 775 1387 
Q 800 1025 1025 787 
z
" transform="scale(0.015625)"/>
       </defs>
       <use xlink:href="#SimHei-30"/>
       <use xlink:href="#SimHei-36" x="50"/>
       <use xlink:href="#SimHei-2d" x="100"/>
       <use xlink:href="#SimHei-31" x="150"/>
       <use xlink:href="#SimHei-30" x="200"/>
      </g>
     </g>
    </g>
    <g id="xtick_18">
     <g id="line2d_18">
      <path d="M 509.827612 501.03675 
L 509.827612 15.552 
" clip-path="url(#p11c93afd2b)" style="fill: none; stroke: #cccccc; stroke-linecap: round"/>
     </g>
     <g id="text_18">
      <!-- 06-20 -->
      <g style="fill: #262626" transform="translate(513.540112 543.53675) rotate(-90) scale(0.132 -0.132)">
       <use xlink:href="#SimHei-30"/>
       <use xlink:href="#SimHei-36" x="50"/>
       <use xlink:href="#SimHei-2d" x="100"/>
       <use xlink:href="#SimHei-32" x="150"/>
       <use xlink:href="#SimHei-30" x="200"/>
      </g>
     </g>
    </g>
    <g id="xtick_19">
     <g id="line2d_19">
      <path d="M 532.571269 501.03675 
L 532.571269 15.552 
" clip-path="url(#p11c93afd2b)" style="fill: none; stroke: #cccccc; stroke-linecap: round"/>
     </g>
     <g id="text_19">
      <!-- 06-30 -->
      <g style="fill: #262626" transform="translate(536.283769 543.53675) rotate(-90) scale(0.132 -0.132)">
       <use xlink:href="#SimHei-30"/>
       <use xlink:href="#SimHei-36" x="50"/>
       <use xlink:href="#SimHei-2d" x="100"/>
       <use xlink:href="#SimHei-33" x="150"/>
       <use xlink:href="#SimHei-30" x="200"/>
      </g>
     </g>
    </g>
    <g id="xtick_20">
     <g id="line2d_20">
      <path d="M 555.314925 501.03675 
L 555.314925 15.552 
" clip-path="url(#p11c93afd2b)" style="fill: none; stroke: #cccccc; stroke-linecap: round"/>
     </g>
     <g id="text_20">
      <!-- 07-10 -->
      <g style="fill: #262626" transform="translate(559.027425 543.53675) rotate(-90) scale(0.132 -0.132)">
       <defs>
        <path id="SimHei-37" d="M 850 150 
Q 1300 2050 2425 3925 
L 275 3925 
L 275 4375 
L 2950 4375 
L 2950 3950 
Q 1775 2050 1400 150 
L 850 150 
z
" transform="scale(0.015625)"/>
       </defs>
       <use xlink:href="#SimHei-30"/>
       <use xlink:href="#SimHei-37" x="50"/>
       <use xlink:href="#SimHei-2d" x="100"/>
       <use xlink:href="#SimHei-31" x="150"/>
       <use xlink:href="#SimHei-30" x="200"/>
      </g>
     </g>
    </g>
    <g id="xtick_21">
     <g id="line2d_21">
      <path d="M 578.058581 501.03675 
L 578.058581 15.552 
" clip-path="url(#p11c93afd2b)" style="fill: none; stroke: #cccccc; stroke-linecap: round"/>
     </g>
     <g id="text_21">
      <!-- 07-20 -->
      <g style="fill: #262626" transform="translate(581.771081 543.53675) rotate(-90) scale(0.132 -0.132)">
       <use xlink:href="#SimHei-30"/>
       <use xlink:href="#SimHei-37" x="50"/>
       <use xlink:href="#SimHei-2d" x="100"/>
       <use xlink:href="#SimHei-32" x="150"/>
       <use xlink:href="#SimHei-30" x="200"/>
      </g>
     </g>
    </g>
    <g id="xtick_22">
     <g id="line2d_22">
      <path d="M 600.802238 501.03675 
L 600.802238 15.552 
" clip-path="url(#p11c93afd2b)" style="fill: none; stroke: #cccccc; stroke-linecap: round"/>
     </g>
     <g id="text_22">
      <!-- 07-30 -->
      <g style="fill: #262626" transform="translate(604.514738 543.53675) rotate(-90) scale(0.132 -0.132)">
       <use xlink:href="#SimHei-30"/>
       <use xlink:href="#SimHei-37" x="50"/>
       <use xlink:href="#SimHei-2d" x="100"/>
       <use xlink:href="#SimHei-33" x="150"/>
       <use xlink:href="#SimHei-30" x="200"/>
      </g>
     </g>
    </g>
    <g id="xtick_23">
     <g id="line2d_23">
      <path d="M 623.545894 501.03675 
L 623.545894 15.552 
" clip-path="url(#p11c93afd2b)" style="fill: none; stroke: #cccccc; stroke-linecap: round"/>
     </g>
     <g id="text_23">
      <!-- 08-09 -->
      <g style="fill: #262626" transform="translate(627.258394 543.53675) rotate(-90) scale(0.132 -0.132)">
       <defs>
        <path id="SimHei-38" d="M 175 1375 
Q 175 1675 325 1962 
Q 475 2250 825 2425 
Q 525 2600 425 2812 
Q 325 3025 312 3300 
Q 300 3575 387 3775 
Q 475 3975 650 4150 
Q 825 4325 1037 4387 
Q 1250 4450 1500 4450 
Q 1750 4450 1950 4400 
Q 2150 4350 2375 4187 
Q 2600 4025 2700 3725 
Q 2800 3425 2687 3025 
Q 2575 2625 2100 2400 
Q 2525 2275 2700 2012 
Q 2875 1750 2875 1375 
Q 2875 1000 2762 775 
Q 2650 550 2512 400 
Q 2375 250 2137 162 
Q 1900 75 1537 75 
Q 1175 75 912 162 
Q 650 250 475 425 
Q 300 600 237 837 
Q 175 1075 175 1375 
z
M 687 1400 
Q 675 1100 787 875 
Q 900 650 1200 587 
Q 1500 525 1825 600 
Q 2150 675 2275 950 
Q 2400 1225 2362 1500 
Q 2325 1775 2050 1962 
Q 1775 2150 1450 2125 
Q 1125 2100 912 1900 
Q 700 1700 687 1400 
z
M 775 3350 
Q 775 3100 950 2875 
Q 1125 2650 1500 2650 
Q 1875 2650 2062 2875 
Q 2250 3100 2237 3412 
Q 2225 3725 2012 3875 
Q 1800 4025 1437 4000 
Q 1075 3975 925 3787 
Q 775 3600 775 3350 
z
" transform="scale(0.015625)"/>
        <path id="SimHei-39" d="M 800 75 
Q 1350 1000 1700 1750 
Q 1075 1650 662 1912 
Q 250 2175 162 2625 
Q 75 3075 175 3437 
Q 275 3800 487 4037 
Q 700 4275 1000 4375 
Q 1300 4475 1537 4475 
Q 1775 4475 2025 4375 
Q 2275 4275 2475 4075 
Q 2675 3875 2750 3662 
Q 2825 3450 2825 3112 
Q 2825 2775 2575 2250 
Q 2325 1725 1350 75 
L 800 75 
z
M 662 2875 
Q 700 2550 937 2337 
Q 1175 2125 1450 2150 
Q 1725 2175 1887 2300 
Q 2050 2425 2200 2725 
Q 2300 3100 2250 3362 
Q 2200 3625 1987 3800 
Q 1775 3975 1525 3975 
Q 1375 4000 1137 3900 
Q 900 3800 762 3500 
Q 625 3200 662 2875 
z
" transform="scale(0.015625)"/>
       </defs>
       <use xlink:href="#SimHei-30"/>
       <use xlink:href="#SimHei-38" x="50"/>
       <use xlink:href="#SimHei-2d" x="100"/>
       <use xlink:href="#SimHei-30" x="150"/>
       <use xlink:href="#SimHei-39" x="200"/>
      </g>
     </g>
    </g>
    <g id="xtick_24">
     <g id="line2d_24">
      <path d="M 646.28955 501.03675 
L 646.28955 15.552 
" clip-path="url(#p11c93afd2b)" style="fill: none; stroke: #cccccc; stroke-linecap: round"/>
     </g>
     <g id="text_24">
      <!-- 08-19 -->
      <g style="fill: #262626" transform="translate(650.00205 543.53675) rotate(-90) scale(0.132 -0.132)">
       <use xlink:href="#SimHei-30"/>
       <use xlink:href="#SimHei-38" x="50"/>
       <use xlink:href="#SimHei-2d" x="100"/>
       <use xlink:href="#SimHei-31" x="150"/>
       <use xlink:href="#SimHei-39" x="200"/>
      </g>
     </g>
    </g>
    <g id="xtick_25">
     <g id="line2d_25">
      <path d="M 669.033207 501.03675 
L 669.033207 15.552 
" clip-path="url(#p11c93afd2b)" style="fill: none; stroke: #cccccc; stroke-linecap: round"/>
     </g>
     <g id="text_25">
      <!-- 08-29 -->
      <g style="fill: #262626" transform="translate(672.745707 543.53675) rotate(-90) scale(0.132 -0.132)">
       <use xlink:href="#SimHei-30"/>
       <use xlink:href="#SimHei-38" x="50"/>
       <use xlink:href="#SimHei-2d" x="100"/>
       <use xlink:href="#SimHei-32" x="150"/>
       <use xlink:href="#SimHei-39" x="200"/>
      </g>
     </g>
    </g>
    <g id="xtick_26">
     <g id="line2d_26">
      <path d="M 691.776863 501.03675 
L 691.776863 15.552 
" clip-path="url(#p11c93afd2b)" style="fill: none; stroke: #cccccc; stroke-linecap: round"/>
     </g>
     <g id="text_26">
      <!-- 09-08 -->
      <g style="fill: #262626" transform="translate(695.489363 543.53675) rotate(-90) scale(0.132 -0.132)">
       <use xlink:href="#SimHei-30"/>
       <use xlink:href="#SimHei-39" x="50"/>
       <use xlink:href="#SimHei-2d" x="100"/>
       <use xlink:href="#SimHei-30" x="150"/>
       <use xlink:href="#SimHei-38" x="200"/>
      </g>
     </g>
    </g>
    <g id="xtick_27">
     <g id="line2d_27">
      <path d="M 714.520519 501.03675 
L 714.520519 15.552 
" clip-path="url(#p11c93afd2b)" style="fill: none; stroke: #cccccc; stroke-linecap: round"/>
     </g>
     <g id="text_27">
      <!-- 09-18 -->
      <g style="fill: #262626" transform="translate(718.233019 543.53675) rotate(-90) scale(0.132 -0.132)">
       <use xlink:href="#SimHei-30"/>
       <use xlink:href="#SimHei-39" x="50"/>
       <use xlink:href="#SimHei-2d" x="100"/>
       <use xlink:href="#SimHei-31" x="150"/>
       <use xlink:href="#SimHei-38" x="200"/>
      </g>
     </g>
    </g>
    <g id="xtick_28">
     <g id="line2d_28">
      <path d="M 737.264176 501.03675 
L 737.264176 15.552 
" clip-path="url(#p11c93afd2b)" style="fill: none; stroke: #cccccc; stroke-linecap: round"/>
     </g>
     <g id="text_28">
      <!-- 09-28 -->
      <g style="fill: #262626" transform="translate(740.976676 543.53675) rotate(-90) scale(0.132 -0.132)">
       <use xlink:href="#SimHei-30"/>
       <use xlink:href="#SimHei-39" x="50"/>
       <use xlink:href="#SimHei-2d" x="100"/>
       <use xlink:href="#SimHei-32" x="150"/>
       <use xlink:href="#SimHei-38" x="200"/>
      </g>
     </g>
    </g>
    <g id="xtick_29">
     <g id="line2d_29">
      <path d="M 760.007832 501.03675 
L 760.007832 15.552 
" clip-path="url(#p11c93afd2b)" style="fill: none; stroke: #cccccc; stroke-linecap: round"/>
     </g>
     <g id="text_29">
      <!-- 10-08 -->
      <g style="fill: #262626" transform="translate(763.720332 543.53675) rotate(-90) scale(0.132 -0.132)">
       <use xlink:href="#SimHei-31"/>
       <use xlink:href="#SimHei-30" x="50"/>
       <use xlink:href="#SimHei-2d" x="100"/>
       <use xlink:href="#SimHei-30" x="150"/>
       <use xlink:href="#SimHei-38" x="200"/>
      </g>
     </g>
    </g>
    <g id="xtick_30">
     <g id="line2d_30">
      <path d="M 782.751489 501.03675 
L 782.751489 15.552 
" clip-path="url(#p11c93afd2b)" style="fill: none; stroke: #cccccc; stroke-linecap: round"/>
     </g>
     <g id="text_30">
      <!-- 10-18 -->
      <g style="fill: #262626" transform="translate(786.463989 543.53675) rotate(-90) scale(0.132 -0.132)">
       <use xlink:href="#SimHei-31"/>
       <use xlink:href="#SimHei-30" x="50"/>
       <use xlink:href="#SimHei-2d" x="100"/>
       <use xlink:href="#SimHei-31" x="150"/>
       <use xlink:href="#SimHei-38" x="200"/>
      </g>
     </g>
    </g>
    <g id="xtick_31">
     <g id="line2d_31">
      <path d="M 805.495145 501.03675 
L 805.495145 15.552 
" clip-path="url(#p11c93afd2b)" style="fill: none; stroke: #cccccc; stroke-linecap: round"/>
     </g>
     <g id="text_31">
      <!-- 10-28 -->
      <g style="fill: #262626" transform="translate(809.207645 543.53675) rotate(-90) scale(0.132 -0.132)">
       <use xlink:href="#SimHei-31"/>
       <use xlink:href="#SimHei-30" x="50"/>
       <use xlink:href="#SimHei-2d" x="100"/>
       <use xlink:href="#SimHei-32" x="150"/>
       <use xlink:href="#SimHei-38" x="200"/>
      </g>
     </g>
    </g>
    <g id="xtick_32">
     <g id="line2d_32">
      <path d="M 828.238801 501.03675 
L 828.238801 15.552 
" clip-path="url(#p11c93afd2b)" style="fill: none; stroke: #cccccc; stroke-linecap: round"/>
     </g>
     <g id="text_32">
      <!-- 11-07 -->
      <g style="fill: #262626" transform="translate(831.951301 543.53675) rotate(-90) scale(0.132 -0.132)">
       <use xlink:href="#SimHei-31"/>
       <use xlink:href="#SimHei-31" x="50"/>
       <use xlink:href="#SimHei-2d" x="100"/>
       <use xlink:href="#SimHei-30" x="150"/>
       <use xlink:href="#SimHei-37" x="200"/>
      </g>
     </g>
    </g>
    <g id="xtick_33">
     <g id="line2d_33">
      <path d="M 850.982458 501.03675 
L 850.982458 15.552 
" clip-path="url(#p11c93afd2b)" style="fill: none; stroke: #cccccc; stroke-linecap: round"/>
     </g>
     <g id="text_33">
      <!-- 11-17 -->
      <g style="fill: #262626" transform="translate(854.694958 543.53675) rotate(-90) scale(0.132 -0.132)">
       <use xlink:href="#SimHei-31"/>
       <use xlink:href="#SimHei-31" x="50"/>
       <use xlink:href="#SimHei-2d" x="100"/>
       <use xlink:href="#SimHei-31" x="150"/>
       <use xlink:href="#SimHei-37" x="200"/>
      </g>
     </g>
    </g>
    <g id="xtick_34">
     <g id="line2d_34">
      <path d="M 873.726114 501.03675 
L 873.726114 15.552 
" clip-path="url(#p11c93afd2b)" style="fill: none; stroke: #cccccc; stroke-linecap: round"/>
     </g>
     <g id="text_34">
      <!-- 11-27 -->
      <g style="fill: #262626" transform="translate(877.438614 543.53675) rotate(-90) scale(0.132 -0.132)">
       <use xlink:href="#SimHei-31"/>
       <use xlink:href="#SimHei-31" x="50"/>
       <use xlink:href="#SimHei-2d" x="100"/>
       <use xlink:href="#SimHei-32" x="150"/>
       <use xlink:href="#SimHei-37" x="200"/>
      </g>
     </g>
    </g>
    <g id="xtick_35">
     <g id="line2d_35">
      <path d="M 896.46977 501.03675 
L 896.46977 15.552 
" clip-path="url(#p11c93afd2b)" style="fill: none; stroke: #cccccc; stroke-linecap: round"/>
     </g>
     <g id="text_35">
      <!-- 12-07 -->
      <g style="fill: #262626" transform="translate(900.18227 543.53675) rotate(-90) scale(0.132 -0.132)">
       <use xlink:href="#SimHei-31"/>
       <use xlink:href="#SimHei-32" x="50"/>
       <use xlink:href="#SimHei-2d" x="100"/>
       <use xlink:href="#SimHei-30" x="150"/>
       <use xlink:href="#SimHei-37" x="200"/>
      </g>
     </g>
    </g>
    <g id="xtick_36">
     <g id="line2d_36">
      <path d="M 919.213427 501.03675 
L 919.213427 15.552 
" clip-path="url(#p11c93afd2b)" style="fill: none; stroke: #cccccc; stroke-linecap: round"/>
     </g>
     <g id="text_36">
      <!-- 12-17 -->
      <g style="fill: #262626" transform="translate(922.925927 543.53675) rotate(-90) scale(0.132 -0.132)">
       <use xlink:href="#SimHei-31"/>
       <use xlink:href="#SimHei-32" x="50"/>
       <use xlink:href="#SimHei-2d" x="100"/>
       <use xlink:href="#SimHei-31" x="150"/>
       <use xlink:href="#SimHei-37" x="200"/>
      </g>
     </g>
    </g>
    <g id="xtick_37">
     <g id="line2d_37">
      <path d="M 941.957083 501.03675 
L 941.957083 15.552 
" clip-path="url(#p11c93afd2b)" style="fill: none; stroke: #cccccc; stroke-linecap: round"/>
     </g>
     <g id="text_37">
      <!-- 12-27 -->
      <g style="fill: #262626" transform="translate(945.669583 543.53675) rotate(-90) scale(0.132 -0.132)">
       <use xlink:href="#SimHei-31"/>
       <use xlink:href="#SimHei-32" x="50"/>
       <use xlink:href="#SimHei-2d" x="100"/>
       <use xlink:href="#SimHei-32" x="150"/>
       <use xlink:href="#SimHei-37" x="200"/>
      </g>
     </g>
    </g>
    <g id="text_38">
     <!-- 月日 -->
     <g style="fill: #262626" transform="translate(522.72 558.2805) scale(0.144 -0.144)">
      <defs>
       <path id="SimHei-6708" d="M 5250 4825 
Q 5200 4225 5200 3750 
L 5200 200 
Q 5200 -275 4950 -375 
Q 4700 -475 3975 -525 
Q 3925 -225 3750 50 
Q 4300 25 4512 50 
Q 4725 75 4725 400 
L 4725 1600 
L 1850 1600 
Q 1725 775 1450 225 
Q 1175 -325 900 -575 
Q 700 -400 400 -325 
Q 800 25 1037 512 
Q 1275 1000 1337 1475 
Q 1400 1950 1400 2525 
L 1400 3625 
Q 1400 4175 1375 4825 
L 5250 4825 
z
M 4725 3400 
L 4725 4450 
L 1875 4450 
L 1875 3400 
L 4725 3400 
z
M 4725 2000 
L 4725 3025 
L 1875 3025 
L 1875 2000 
L 4725 2000 
z
" transform="scale(0.015625)"/>
       <path id="SimHei-65e5" d="M 5375 5000 
Q 5350 3775 5350 2275 
Q 5350 775 5375 -450 
L 4800 -450 
L 4800 175 
L 1800 175 
L 1800 -575 
L 1250 -575 
Q 1275 575 1275 2125 
Q 1275 3675 1250 5000 
L 5375 5000 
z
M 4800 600 
L 4800 2375 
L 1800 2375 
L 1800 600 
L 4800 600 
z
M 4800 2800 
L 4800 4550 
L 1800 4550 
L 1800 2800 
L 4800 2800 
z
" transform="scale(0.015625)"/>
      </defs>
      <use xlink:href="#SimHei-6708"/>
      <use xlink:href="#SimHei-65e5" x="100"/>
     </g>
    </g>
   </g>
   <g id="matplotlib.axis_2">
    <g id="ytick_1">
     <g id="line2d_38">
      <path d="M 81.792 478.976045 
L 992.448 478.976045 
" clip-path="url(#p11c93afd2b)" style="fill: none; stroke: #cccccc; stroke-linecap: round"/>
     </g>
     <g id="text_39">
      <!-- 0 -->
      <g style="fill: #262626" transform="translate(65.692 483.513545) scale(0.132 -0.132)">
       <use xlink:href="#SimHei-30"/>
      </g>
     </g>
    </g>
    <g id="ytick_2">
     <g id="line2d_39">
      <path d="M 81.792 411.136614 
L 992.448 411.136614 
" clip-path="url(#p11c93afd2b)" style="fill: none; stroke: #cccccc; stroke-linecap: round"/>
     </g>
     <g id="text_40">
      <!-- 20000 -->
      <g style="fill: #262626" transform="translate(39.292 415.674114) scale(0.132 -0.132)">
       <use xlink:href="#SimHei-32"/>
       <use xlink:href="#SimHei-30" x="50"/>
       <use xlink:href="#SimHei-30" x="100"/>
       <use xlink:href="#SimHei-30" x="150"/>
       <use xlink:href="#SimHei-30" x="200"/>
      </g>
     </g>
    </g>
    <g id="ytick_3">
     <g id="line2d_40">
      <path d="M 81.792 343.297183 
L 992.448 343.297183 
" clip-path="url(#p11c93afd2b)" style="fill: none; stroke: #cccccc; stroke-linecap: round"/>
     </g>
     <g id="text_41">
      <!-- 40000 -->
      <g style="fill: #262626" transform="translate(39.292 347.834683) scale(0.132 -0.132)">
       <use xlink:href="#SimHei-34"/>
       <use xlink:href="#SimHei-30" x="50"/>
       <use xlink:href="#SimHei-30" x="100"/>
       <use xlink:href="#SimHei-30" x="150"/>
       <use xlink:href="#SimHei-30" x="200"/>
      </g>
     </g>
    </g>
    <g id="ytick_4">
     <g id="line2d_41">
      <path d="M 81.792 275.457751 
L 992.448 275.457751 
" clip-path="url(#p11c93afd2b)" style="fill: none; stroke: #cccccc; stroke-linecap: round"/>
     </g>
     <g id="text_42">
      <!-- 60000 -->
      <g style="fill: #262626" transform="translate(39.292 279.995251) scale(0.132 -0.132)">
       <use xlink:href="#SimHei-36"/>
       <use xlink:href="#SimHei-30" x="50"/>
       <use xlink:href="#SimHei-30" x="100"/>
       <use xlink:href="#SimHei-30" x="150"/>
       <use xlink:href="#SimHei-30" x="200"/>
      </g>
     </g>
    </g>
    <g id="ytick_5">
     <g id="line2d_42">
      <path d="M 81.792 207.61832 
L 992.448 207.61832 
" clip-path="url(#p11c93afd2b)" style="fill: none; stroke: #cccccc; stroke-linecap: round"/>
     </g>
     <g id="text_43">
      <!-- 80000 -->
      <g style="fill: #262626" transform="translate(39.292 212.15582) scale(0.132 -0.132)">
       <use xlink:href="#SimHei-38"/>
       <use xlink:href="#SimHei-30" x="50"/>
       <use xlink:href="#SimHei-30" x="100"/>
       <use xlink:href="#SimHei-30" x="150"/>
       <use xlink:href="#SimHei-30" x="200"/>
      </g>
     </g>
    </g>
    <g id="ytick_6">
     <g id="line2d_43">
      <path d="M 81.792 139.778888 
L 992.448 139.778888 
" clip-path="url(#p11c93afd2b)" style="fill: none; stroke: #cccccc; stroke-linecap: round"/>
     </g>
     <g id="text_44">
      <!-- 100000 -->
      <g style="fill: #262626" transform="translate(32.692 144.316388) scale(0.132 -0.132)">
       <use xlink:href="#SimHei-31"/>
       <use xlink:href="#SimHei-30" x="50"/>
       <use xlink:href="#SimHei-30" x="100"/>
       <use xlink:href="#SimHei-30" x="150"/>
       <use xlink:href="#SimHei-30" x="200"/>
       <use xlink:href="#SimHei-30" x="250"/>
      </g>
     </g>
    </g>
    <g id="ytick_7">
     <g id="line2d_44">
      <path d="M 81.792 71.939457 
L 992.448 71.939457 
" clip-path="url(#p11c93afd2b)" style="fill: none; stroke: #cccccc; stroke-linecap: round"/>
     </g>
     <g id="text_45">
      <!-- 120000 -->
      <g style="fill: #262626" transform="translate(32.692 76.476957) scale(0.132 -0.132)">
       <use xlink:href="#SimHei-31"/>
       <use xlink:href="#SimHei-32" x="50"/>
       <use xlink:href="#SimHei-30" x="100"/>
       <use xlink:href="#SimHei-30" x="150"/>
       <use xlink:href="#SimHei-30" x="200"/>
       <use xlink:href="#SimHei-30" x="250"/>
      </g>
     </g>
    </g>
    <g id="text_46">
     <!-- 货量 -->
     <g style="fill: #262626" transform="translate(26.892 272.694375) rotate(-90) scale(0.144 -0.144)">
      <defs>
       <path id="SimHei-8d27" d="M 3975 5075 
Q 3950 4750 3950 4100 
Q 4075 4175 4525 4375 
Q 4975 4575 5375 4900 
Q 5550 4625 5700 4400 
Q 5425 4325 4987 4112 
Q 4550 3900 3950 3650 
L 3950 3225 
Q 3950 3025 4300 3025 
L 5125 3025 
Q 5425 3025 5487 3150 
Q 5550 3275 5575 3625 
Q 5850 3450 6125 3375 
Q 5975 2875 5825 2750 
Q 5675 2625 5475 2625 
L 4000 2625 
Q 3425 2625 3425 3125 
L 3425 3525 
Q 2900 3325 2575 3225 
Q 2425 3500 2350 3650 
Q 2750 3750 3425 3925 
Q 3425 4750 3400 5075 
L 3975 5075 
z
M 5200 2200 
Q 5175 1825 5175 1425 
Q 5175 1050 5200 600 
L 4625 600 
L 4625 1775 
L 1950 1775 
L 1950 625 
L 1400 625 
Q 1425 1025 1425 1400 
Q 1425 1800 1400 2200 
L 5200 2200 
z
M 2625 4850 
Q 2425 4700 2050 4300 
Q 2050 2900 2075 2450 
L 1500 2450 
Q 1525 2900 1525 3825 
Q 1300 3625 1100 3425 
Q 900 3225 700 3050 
Q 475 3250 325 3400 
Q 850 3725 1325 4237 
Q 1800 4750 2050 5175 
Q 2325 4925 2625 4850 
z
M 3550 1325 
Q 3425 975 3312 687 
Q 3200 400 2925 137 
Q 2650 -125 2150 -325 
Q 1650 -525 800 -675 
Q 725 -400 475 -100 
Q 1200 -75 1675 25 
Q 2150 125 2412 325 
Q 2675 525 2787 775 
Q 2900 1025 2975 1400 
Q 3250 1350 3550 1325 
z
M 5575 -675 
Q 5125 -400 4650 -187 
Q 4175 25 3575 250 
Q 3725 500 3825 725 
Q 4350 500 4800 300 
Q 5250 100 5875 -175 
Q 5700 -400 5575 -675 
z
" transform="scale(0.015625)"/>
       <path id="SimHei-91cf" d="M 5250 2500 
Q 5225 2200 5225 1700 
Q 5225 1225 5250 950 
L 3425 950 
L 3425 625 
L 4575 625 
Q 5000 625 5375 650 
L 5375 275 
Q 5025 300 4575 300 
L 3425 300 
L 3425 -75 
L 5125 -75 
Q 5525 -75 5925 -50 
L 5925 -425 
Q 5525 -400 5125 -400 
L 1275 -400 
Q 900 -400 475 -425 
L 475 -50 
Q 925 -50 1275 -75 
L 2975 -75 
L 2975 300 
L 1725 300 
Q 1350 300 975 250 
L 975 650 
Q 1375 625 1725 625 
L 2975 625 
L 2975 950 
L 1150 950 
Q 1175 1375 1175 1775 
Q 1175 2175 1150 2500 
L 5250 2500 
z
M 5200 4950 
Q 5175 4575 5175 4250 
Q 5175 3925 5200 3400 
L 1200 3400 
Q 1225 3925 1225 4250 
Q 1225 4575 1200 4950 
L 5200 4950 
z
M 4900 3100 
Q 5500 3125 6000 3150 
L 6000 2750 
Q 5500 2775 4925 2775 
L 1650 2775 
Q 975 2775 325 2750 
L 325 3150 
Q 975 3125 1650 3100 
L 4900 3100 
z
M 4725 3700 
L 4725 4025 
L 1675 4025 
L 1675 3700 
L 4725 3700 
z
M 4725 4350 
L 4725 4650 
L 1675 4650 
L 1675 4350 
L 4725 4350 
z
M 4750 1875 
L 4750 2175 
L 3425 2175 
L 3425 1875 
L 4750 1875 
z
M 2975 1875 
L 2975 2175 
L 1650 2175 
L 1650 1875 
L 2975 1875 
z
M 2975 1275 
L 2975 1550 
L 1650 1550 
L 1650 1275 
L 2975 1275 
z
M 4750 1275 
L 4750 1550 
L 3425 1550 
L 3425 1275 
L 4750 1275 
z
" transform="scale(0.015625)"/>
      </defs>
      <use xlink:href="#SimHei-8d27"/>
      <use xlink:href="#SimHei-91cf" x="100"/>
     </g>
    </g>
   </g>
   <g id="PolyCollection_1"/>
   <g id="PolyCollection_2"/>
   <g id="line2d_45">
    <path d="M 123.185455 478.050037 
L 125.45982 478.138228 
L 127.734186 478.43333 
L 130.008551 477.999157 
L 132.282917 478.338355 
L 134.557283 478.436722 
L 139.106014 477.717624 
L 145.929111 478.511345 
L 148.203477 477.432698 
L 150.477842 478.267123 
L 157.300939 478.39941 
L 159.575305 478.307827 
L 161.84967 478.375666 
L 164.124036 477.632825 
L 166.398402 477.849911 
L 168.672767 478.355315 
L 170.947133 477.476794 
L 173.221499 478.206068 
L 175.495864 478.026293 
L 177.77023 477.972022 
L 180.044595 478.138228 
L 182.318961 477.381819 
L 184.593327 477.395387 
L 186.867692 478.409586 
L 189.142058 477.944886 
L 193.690789 477.361467 
L 195.965155 478.073781 
L 198.23952 476.421891 
L 200.513886 477.938102 
L 202.788252 477.765111 
L 205.062617 476.856063 
L 207.336983 476.961214 
L 209.611349 477.48697 
L 211.885714 477.632825 
L 214.16008 476.449026 
L 216.434446 478.541873 
L 218.708811 477.999157 
L 223.257542 477.602297 
L 225.531908 477.829559 
L 227.806274 477.690488 
L 230.080639 478.206068 
L 232.355005 477.476794 
L 234.629371 478.324787 
L 236.903736 477.98559 
L 241.452468 478.345139 
L 243.726833 478.236596 
L 246.001199 477.961846 
L 248.275564 477.463226 
L 250.54993 478.351923 
L 252.824296 478.504561 
L 255.098661 478.477425 
L 257.373027 477.673528 
L 259.647393 478.528305 
L 261.921758 477.839735 
L 264.196124 477.93471 
L 266.47049 477.880438 
L 268.744855 476.381187 
L 271.019221 477.805815 
L 273.293586 478.073781 
L 275.567952 477.510714 
L 277.842318 478.423154 
L 280.116683 478.490993 
L 282.391049 477.361467 
L 284.665415 478.524913 
L 286.93978 478.301043 
L 289.214146 478.358706 
L 291.488511 477.28006 
L 293.762877 478.362098 
L 296.037243 478.345139 
L 298.311608 478.535089 
L 300.585974 478.216244 
L 302.86034 478.17554 
L 305.134705 477.571769 
L 307.409071 478.429938 
L 309.683437 478.189108 
L 311.957802 478.341747 
L 314.232168 478.236596 
L 316.506533 478.528305 
L 318.780899 478.524913 
L 321.055265 478.351923 
L 323.32963 478.389234 
L 325.603996 476.588097 
L 327.878362 478.385842 
L 330.152727 478.528305 
L 332.427093 477.880438 
L 334.701459 478.436722 
L 336.975824 478.355315 
L 339.25019 478.474034 
L 341.524555 478.17554 
L 346.073287 478.38245 
L 348.347652 478.121268 
L 350.622018 478.304435 
L 352.896384 478.718255 
L 355.170749 478.70808 
L 361.993846 478.229812 
L 364.268212 478.752175 
L 368.816943 477.822775 
L 371.091309 477.90079 
L 373.365674 478.457074 
L 375.64004 478.490993 
L 377.914406 478.392626 
L 380.188771 478.14162 
L 382.463137 478.412978 
L 384.737502 478.484209 
L 387.011868 478.419762 
L 389.286234 478.182324 
L 391.560599 478.507953 
L 393.834965 478.521521 
L 396.109331 478.284083 
L 400.658062 478.406194 
L 402.932428 478.324787 
L 405.206793 478.758959 
L 407.481159 478.046645 
L 409.755524 477.707448 
L 412.02989 478.250163 
L 414.304256 477.856695 
L 416.578621 477.734584 
L 418.852987 478.233204 
L 421.127353 477.354683 
L 423.401718 478.314611 
L 425.676084 478.223028 
L 427.95045 478.497777 
L 430.224815 478.334963 
L 434.773546 478.453682 
L 437.047912 477.948278 
L 439.322278 478.680944 
L 441.596643 478.155188 
L 443.871009 478.134836 
L 446.145375 478.328179 
L 450.694106 477.88383 
L 452.968472 478.243379 
L 455.242837 478.138228 
L 457.517203 478.348531 
L 459.791568 478.290867 
L 462.065934 478.619888 
L 464.3403 478.206068 
L 466.614665 476.652545 
L 468.889031 475.655305 
L 471.163397 478.039861 
L 473.437762 477.67692 
L 475.712128 477.52089 
L 477.986494 478.243379 
L 482.535225 477.330939 
L 484.80959 475.536586 
L 487.083956 477.375035 
L 489.358322 478.301043 
L 491.632687 478.334963 
L 493.907053 477.534457 
L 496.181419 478.36549 
L 498.455784 478.138228 
L 503.004515 478.104309 
L 505.278881 474.11535 
L 507.553247 475.143117 
L 509.827612 477.561593 
L 516.650709 478.328179 
L 518.925075 478.389234 
L 521.199441 478.592753 
L 523.473806 478.358706 
L 525.748172 478.470642 
L 528.022537 478.239987 
L 530.296903 478.419762 
L 532.571269 477.531065 
L 534.845634 478.270515 
L 537.12 478.69112 
L 541.668731 478.633456 
L 543.943097 477.897398 
L 546.217463 478.385842 
L 550.766194 477.965238 
L 553.040559 478.738607 
L 555.314925 478.453682 
L 557.589291 478.304435 
L 562.138022 478.752175 
L 564.412388 478.331571 
L 566.686753 477.191868 
L 568.961119 472.460068 
L 571.235485 476.48973 
L 573.50985 475.238093 
L 575.784216 473.457308 
L 578.058581 476.659329 
L 580.332947 474.942991 
L 582.607313 475.862215 
L 584.881678 476.404931 
L 587.156044 477.283451 
L 589.43041 475.906311 
L 591.704775 477.049405 
L 593.979141 473.66761 
L 596.253506 476.638977 
L 598.527872 476.76448 
L 600.802238 478.107701 
L 603.076603 476.116613 
L 605.350969 477.948278 
L 607.625335 477.914358 
L 609.8997 476.703424 
L 612.174066 474.027159 
L 614.448432 477.67692 
L 616.722797 476.649153 
L 618.997163 474.773393 
L 621.271528 142.444978 
L 623.545894 272.581359 
L 625.82026 71.111816 
L 628.094625 241.432884 
L 630.368991 129.915035 
L 632.643357 247.674112 
L 634.917722 115.553427 
L 637.192088 123.449937 
L 639.466454 141.159421 
L 641.740819 165.038901 
L 644.015185 226.077429 
L 646.28955 169.462032 
L 648.563916 61.807638 
L 650.838282 44.885092 
L 653.112647 363.231799 
L 655.387013 48.01249 
L 657.661379 173.525614 
L 659.935744 478.046645 
L 662.21011 478.952302 
L 687.228132 478.894638 
L 689.502498 476.917119 
L 691.776863 403.480934 
L 694.051229 398.413329 
L 696.325594 384.099209 
L 698.59996 401.415223 
L 700.874326 416.940277 
L 703.148691 410.885608 
L 705.423057 370.209085 
L 707.697423 394.061429 
L 709.971788 416.13638 
L 712.246154 377.71891 
L 714.520519 401.866356 
L 716.794885 414.053709 
L 719.069251 416.933493 
L 721.343616 422.163913 
L 723.617982 402.348016 
L 725.892348 395.292715 
L 728.166713 419.399457 
L 730.441079 289.880414 
L 732.715445 418.500584 
L 734.98981 376.131467 
L 737.264176 388.322213 
L 739.538541 398.694862 
L 741.812907 370.483835 
L 744.087273 387.867689 
L 746.361638 411.391012 
L 748.636004 398.046996 
L 750.91037 433.415083 
L 753.184735 368.679306 
L 755.459101 383.213904 
L 757.733467 418.127467 
L 760.007832 378.68223 
L 762.282198 368.248525 
L 764.556563 387.47422 
L 766.830929 391.391947 
L 769.105295 409.627187 
L 771.37966 403.385959 
L 773.654026 413.74504 
L 775.928392 423.55123 
L 778.202757 397.694231 
L 780.477123 417.276082 
L 782.751489 383.695564 
L 785.025854 364.537708 
L 787.30022 39.173012 
L 789.574585 261.381069 
L 791.848951 267.279708 
L 794.123317 298.228056 
L 796.397682 357.078763 
L 798.672048 302.366262 
L 800.946414 392.233156 
L 803.220779 404.610461 
L 805.495145 414.847431 
L 810.043876 271.153339 
L 812.318242 287.763824 
L 814.592607 313.661527 
L 816.866973 301.820154 
L 819.141339 64.348225 
L 821.415704 171.232641 
L 823.69007 241.934896 
L 825.964436 354.38893 
L 828.238801 349.955623 
L 830.513167 363.37087 
L 832.787532 48.463622 
L 835.061898 313.739542 
L 837.336264 161.809744 
L 839.610629 353.883526 
L 841.884995 317.918451 
L 844.159361 362.573757 
L 846.433726 260.818002 
L 848.708092 266.370659 
L 850.982458 281.698979 
L 853.256823 394.112309 
L 855.531189 316.012163 
L 857.805554 292.00718 
L 860.07992 324.04096 
L 862.354286 298.231448 
L 864.628651 314.780878 
L 866.903017 325.302773 
L 869.177383 338.606086 
L 871.451748 348.032375 
L 873.726114 340.45471 
L 876.00048 360.799756 
L 878.274845 329.396883 
L 880.549211 332.846518 
L 882.823576 354.365186 
L 885.097942 344.864273 
L 887.372308 334.118507 
L 889.646673 286.596986 
L 891.921039 338.229577 
L 894.195405 350.182885 
L 896.46977 339.518526 
L 898.744136 338.178697 
L 901.018501 265.783848 
L 903.292867 323.772994 
L 905.567233 343.673691 
L 907.841598 132.689668 
L 910.115964 278.496958 
L 912.39033 315.92058 
L 914.664695 309.180732 
L 916.939061 300.239495 
L 919.213427 284.931528 
L 921.487792 387.538668 
L 923.762158 331.350659 
L 926.036523 358.632286 
L 928.310889 351.468442 
L 930.585255 273.307241 
L 932.85962 263.840249 
L 935.133986 346.977472 
L 937.408352 257.853419 
L 939.682717 322.077008 
L 941.957083 396.422241 
L 944.231449 351.682136 
L 946.505814 314.353489 
L 948.78018 332.371642 
L 951.054545 352.465682 
L 951.054545 352.465682 
" clip-path="url(#p11c93afd2b)" style="fill: none; stroke: #4c72b0; stroke-width: 1.5; stroke-linecap: round"/>
   </g>
   <g id="line2d_46">
    <path d="M 123.185455 360.535182 
L 125.45982 273.113899 
L 127.734186 359.582038 
L 130.008551 364.164592 
L 132.282917 408.585851 
L 134.557283 311.833254 
L 136.831648 332.792247 
L 139.106014 322.640076 
L 141.38038 277.716804 
L 143.654745 106.16445 
L 145.929111 293.391105 
L 148.203477 140.630273 
L 150.477842 134.572212 
L 152.752208 364.805674 
L 155.026573 323.277766 
L 157.300939 329.434195 
L 159.575305 349.731753 
L 161.84967 275.261017 
L 164.124036 228.889373 
L 166.398402 300.314119 
L 168.672767 360.426639 
L 170.947133 350.383011 
L 173.221499 327.531299 
L 175.495864 66.271472 
L 177.77023 362.990969 
L 180.044595 354.029381 
L 182.318961 246.005262 
L 184.593327 293.065476 
L 186.867692 259.827546 
L 189.142058 326.86308 
L 191.416424 442.322401 
L 193.690789 365.826658 
L 195.965155 320.981402 
L 198.23952 333.680943 
L 200.513886 368.916744 
L 202.788252 345.990408 
L 205.062617 337.290001 
L 207.336983 290.959061 
L 209.611349 318.138929 
L 211.885714 169.716429 
L 214.16008 348.164662 
L 216.434446 136.838049 
L 218.708811 93.648075 
L 220.983177 289.554785 
L 223.257542 299.537357 
L 225.531908 318.522222 
L 227.806274 333.725039 
L 230.080639 303.088752 
L 232.355005 353.883526 
L 234.629371 340.726068 
L 236.903736 297.478431 
L 239.178102 150.789228 
L 241.452468 337.103442 
L 243.726833 325.326517 
L 246.001199 321.809043 
L 248.275564 304.499812 
L 250.54993 257.97553 
L 252.824296 263.643514 
L 255.098661 366.355805 
L 257.373027 339.328576 
L 259.647393 335.712734 
L 261.921758 346.909632 
L 264.196124 309.845559 
L 266.47049 97.708265 
L 268.744855 338.64679 
L 271.019221 321.591956 
L 273.293586 305.931224 
L 275.567952 193.131209 
L 277.842318 267.917398 
L 280.116683 311.968933 
L 282.391049 340.827827 
L 284.665415 314.899597 
L 286.93978 330.214348 
L 289.214146 354.09722 
L 291.488511 259.919129 
L 293.762877 345.406989 
L 296.037243 360.396111 
L 298.311608 360.446991 
L 302.86034 286.237437 
L 305.134705 274.874332 
L 307.409071 356.732782 
L 309.683437 276.010643 
L 311.957802 394.671984 
L 314.232168 345.471436 
L 316.506533 384.160264 
L 318.780899 308.139397 
L 321.055265 283.184662 
L 323.32963 319.024234 
L 325.603996 390.242069 
L 327.878362 363.652404 
L 330.152727 287.885935 
L 332.427093 352.869326 
L 334.701459 301.735355 
L 336.975824 291.030293 
L 339.25019 367.346261 
L 341.524555 334.318634 
L 343.798921 356.851501 
L 346.073287 334.26097 
L 348.347652 211.16293 
L 350.622018 360.419855 
L 352.896384 353.798727 
L 355.170749 338.209225 
L 357.445115 303.811241 
L 359.719481 280.223471 
L 361.993846 367.363221 
L 364.268212 308.475202 
L 366.542577 257.263216 
L 368.816943 349.222957 
L 371.091309 309.567417 
L 373.365674 285.518339 
L 375.64004 332.894006 
L 377.914406 286.695353 
L 380.188771 363.767731 
L 382.463137 62.530128 
L 387.011868 309.513146 
L 389.286234 294.15769 
L 391.560599 285.677761 
L 393.834965 312.352226 
L 396.109331 281.139304 
L 398.383696 323.114952 
L 400.658062 269.250443 
L 402.932428 309.597945 
L 405.206793 353.961541 
L 407.481159 288.99511 
L 409.755524 287.784176 
L 412.02989 334.318634 
L 414.304256 274.718301 
L 416.578621 336.967764 
L 418.852987 322.840202 
L 421.127353 313.895573 
L 423.401718 364.151024 
L 425.676084 345.457868 
L 427.95045 263.853816 
L 430.224815 135.104752 
L 432.499181 186.716991 
L 434.773546 314.540048 
L 437.047912 225.100541 
L 439.322278 213.645853 
L 441.596643 355.711798 
L 443.871009 298.309464 
L 446.145375 310.137268 
L 448.41974 190.315873 
L 450.694106 300.907714 
L 452.968472 353.523977 
L 455.242837 275.250841 
L 457.517203 318.600238 
L 459.791568 385.893561 
L 462.065934 394.017333 
L 464.3403 380.364648 
L 466.614665 163.91955 
L 468.889031 367.468372 
L 471.163397 347.343805 
L 473.437762 350.064166 
L 475.712128 273.059627 
L 477.986494 282.024608 
L 480.260859 37.619489 
L 482.535225 335.248034 
L 484.80959 336.886356 
L 487.083956 326.401772 
L 489.358322 334.840997 
L 491.632687 357.970852 
L 493.907053 367.010456 
L 496.181419 354.555136 
L 498.455784 208.683399 
L 500.73015 354.015813 
L 505.278881 69.032537 
L 507.553247 240.849465 
L 509.827612 182.361699 
L 512.101978 306.300949 
L 514.376344 275.939411 
L 516.650709 318.427247 
L 518.925075 280.776363 
L 521.199441 356.29861 
L 523.473806 288.452394 
L 525.748172 401.09977 
L 528.022537 263.579067 
L 530.296903 304.275942 
L 532.571269 360.921867 
L 534.845634 305.578459 
L 537.12 281.5633 
L 539.394366 403.44023 
L 541.668731 271.383993 
L 543.943097 352.638672 
L 546.217463 322.005777 
L 548.491828 361.783428 
L 550.766194 338.266889 
L 553.040559 381.151585 
L 555.314925 337.083091 
L 557.589291 265.30558 
L 559.863656 338.341512 
L 562.138022 326.408556 
L 564.412388 358.10653 
L 566.686753 385.988537 
L 568.961119 344.982992 
L 571.235485 332.015485 
L 573.50985 325.628403 
L 575.784216 318.274608 
L 578.058581 395.140076 
L 580.332947 315.700102 
L 582.607313 257.47691 
L 584.881678 387.141807 
L 587.156044 354.053124 
L 589.43041 363.933938 
L 591.704775 309.353723 
L 593.979141 380.981987 
L 596.253506 392.27386 
L 598.527872 362.862075 
L 603.076603 352.611536 
L 605.350969 342.113384 
L 607.625335 68.133665 
L 609.8997 324.251262 
L 612.174066 105.943972 
L 614.448432 364.812458 
L 616.722797 355.888181 
L 618.997163 301.335102 
L 621.271528 298.92341 
L 623.545894 354.416065 
L 625.82026 389.251613 
L 628.094625 269.202956 
L 630.368991 307.678089 
L 632.643357 312.84067 
L 634.917722 301.518269 
L 637.192088 257.778795 
L 639.466454 269.684616 
L 641.740819 353.123724 
L 644.015185 288.638953 
L 646.28955 303.431341 
L 648.563916 324.631163 
L 650.838282 359.093594 
L 653.112647 137.4079 
L 655.387013 320.903386 
L 657.661379 356.671726 
L 659.935744 259.186464 
L 662.21011 359.436183 
L 664.484476 334.874917 
L 666.758841 283.588307 
L 669.033207 286.27814 
L 671.307572 278.27648 
L 673.581938 265.671913 
L 675.856304 308.52269 
L 678.130669 363.140216 
L 680.405035 350.70864 
L 682.679401 322.087184 
L 684.953766 365.948769 
L 687.228132 315.483016 
L 689.502498 317.138298 
L 691.776863 319.248104 
L 694.051229 286.756408 
L 696.325594 361.983554 
L 698.59996 342.150696 
L 700.874326 260.614484 
L 703.148691 412.02531 
L 705.423057 356.23077 
L 707.697423 356.915948 
L 709.971788 343.789018 
L 712.246154 345.071184 
L 714.520519 357.804645 
L 716.794885 364.12728 
L 719.069251 298.835219 
L 721.343616 341.482478 
L 723.617982 309.618297 
L 725.892348 352.37749 
L 728.166713 290.57916 
L 730.441079 325.770865 
L 732.715445 314.424721 
L 734.98981 324.047744 
L 737.264176 350.023462 
L 739.538541 335.70595 
L 741.812907 358.89686 
L 744.087273 347.879736 
L 746.361638 366.274398 
L 748.636004 268.490642 
L 750.91037 397.789206 
L 753.184735 268.653456 
L 755.459101 361.579909 
L 757.733467 348.948207 
L 760.007832 296.677925 
L 762.282198 318.166065 
L 764.556563 274.35536 
L 766.830929 366.03696 
L 769.105295 351.627865 
L 771.37966 349.982758 
L 773.654026 284.22939 
L 775.928392 331.710208 
L 778.202757 280.742443 
L 780.477123 270.963389 
L 782.751489 355.199611 
L 785.025854 331.133572 
L 787.30022 275.406872 
L 789.574585 274.925212 
L 791.848951 364.497005 
L 794.123317 339.864507 
L 796.397682 283.798609 
L 798.672048 258.012841 
L 800.946414 321.737811 
L 803.220779 361.281416 
L 805.495145 365.144871 
L 807.76951 300.86701 
L 810.043876 396.439201 
L 812.318242 290.881046 
L 814.592607 366.169247 
L 816.866973 361.579909 
L 819.141339 264.779825 
L 821.415704 302.6037 
L 823.69007 272.231986 
L 825.964436 273.866916 
L 828.238801 356.773486 
L 830.513167 331.574529 
L 832.787532 336.849045 
L 835.061898 376.877701 
L 837.336264 194.47443 
L 839.610629 316.236033 
L 841.884995 299.059089 
L 844.159361 315.808645 
L 846.433726 380.619046 
L 848.708092 421.963787 
L 850.982458 345.868297 
L 853.256823 411.987999 
L 855.531189 386.124216 
L 857.805554 421.86542 
L 860.07992 459.519696 
L 862.354286 478.962477 
L 869.177383 478.969261 
L 876.00048 478.531697 
L 878.274845 472.531299 
L 880.549211 466.178137 
L 882.823576 467.429774 
L 885.097942 412.886871 
L 887.372308 425.511789 
L 889.646673 417.228595 
L 891.921039 414.850823 
L 894.195405 317.806516 
L 896.46977 384.390918 
L 898.744136 411.055207 
L 901.018501 402.127537 
L 903.292867 320.581149 
L 905.567233 344.894801 
L 907.841598 325.17727 
L 910.115964 368.102671 
L 912.39033 445.748292 
L 914.664695 440.009076 
L 919.213427 378.756853 
L 921.487792 386.351478 
L 923.762158 389.753625 
L 926.036523 268.996045 
L 928.310889 416.048189 
L 930.585255 401.415223 
L 932.85962 370.490619 
L 935.133986 421.088659 
L 937.408352 403.633573 
L 939.682717 358.666206 
L 941.957083 383.122321 
L 944.231449 352.163796 
L 946.505814 399.200266 
L 948.78018 410.081711 
L 951.054545 391.924487 
L 951.054545 391.924487 
" clip-path="url(#p11c93afd2b)" style="fill: none; stroke: #dd8452; stroke-width: 1.5; stroke-linecap: round"/>
   </g>
   <g id="line2d_47"/>
   <g id="line2d_48"/>
   <g id="patch_3">
    <path d="M 81.792 501.03675 
L 81.792 15.552 
" style="fill: none; stroke: #cccccc; stroke-width: 1.25; stroke-linejoin: miter; stroke-linecap: square"/>
   </g>
   <g id="patch_4">
    <path d="M 992.448 501.03675 
L 992.448 15.552 
" style="fill: none; stroke: #cccccc; stroke-width: 1.25; stroke-linejoin: miter; stroke-linecap: square"/>
   </g>
   <g id="patch_5">
    <path d="M 81.792 501.03675 
L 992.448 501.03675 
" style="fill: none; stroke: #cccccc; stroke-width: 1.25; stroke-linejoin: miter; stroke-linecap: square"/>
   </g>
   <g id="patch_6">
    <path d="M 81.792 15.552 
L 992.448 15.552 
" style="fill: none; stroke: #cccccc; stroke-width: 1.25; stroke-linejoin: miter; stroke-linecap: square"/>
   </g>
   <g id="legend_1">
    <g id="patch_7">
     <path d="M 914.568 80.967 
L 983.208 80.967 
Q 985.848 80.967 985.848 78.327 
L 985.848 24.792 
Q 985.848 22.152 983.208 22.152 
L 914.568 22.152 
Q 911.928 22.152 911.928 24.792 
L 911.928 78.327 
Q 911.928 80.967 914.568 80.967 
z
" style="fill: #ffffff; opacity: 0.8; stroke: #cccccc; stroke-linejoin: miter"/>
    </g>
    <g id="text_47">
     <!-- 年份 -->
     <g style="fill: #262626" transform="translate(934.488 38.907) scale(0.144 -0.144)">
      <defs>
       <path id="SimHei-5e74" d="M 350 2925 
Q 900 3450 1375 4200 
Q 1850 4950 1900 5275 
Q 2275 5125 2600 5050 
Q 2375 4825 2100 4325 
L 4625 4325 
Q 5175 4325 5750 4350 
L 5750 3925 
Q 5225 3950 4625 3950 
L 3800 3950 
L 3800 2925 
Q 4750 2925 5475 2950 
L 5475 2525 
Q 4725 2550 3800 2550 
L 3800 1375 
L 5075 1375 
Q 5625 1375 6100 1400 
L 6100 975 
Q 5650 1000 5075 1000 
L 3800 1000 
L 3800 425 
Q 3800 -150 3825 -625 
L 3275 -625 
Q 3300 -150 3300 375 
L 3300 1000 
L 1600 1000 
Q 900 1000 275 975 
L 275 1400 
Q 875 1375 1450 1375 
Q 1450 2350 1425 2925 
L 3300 2925 
L 3300 3950 
L 1875 3950 
Q 1350 3150 925 2650 
Q 650 2875 350 2925 
z
M 3300 1375 
L 3300 2550 
L 1925 2550 
L 1925 1375 
L 3300 1375 
z
" transform="scale(0.015625)"/>
       <path id="SimHei-4efd" d="M 4750 5100 
Q 4875 4375 5250 3650 
Q 5625 2925 6200 2450 
Q 6025 2375 5775 2075 
Q 5600 2275 5350 2575 
Q 5300 2275 5275 1312 
Q 5250 350 5187 25 
Q 5125 -300 4850 -400 
Q 4575 -500 4075 -550 
Q 4000 -250 3875 0 
Q 4400 -25 4575 25 
Q 4750 75 4775 587 
Q 4800 1100 4825 2250 
L 3700 2250 
Q 3675 1300 3425 650 
Q 3175 0 2375 -625 
Q 2175 -350 2000 -225 
Q 2750 225 2987 800 
Q 3225 1375 3225 2250 
Q 3000 2250 2675 2225 
L 2675 2575 
Q 2475 2300 2150 1950 
Q 2000 2150 1750 2300 
Q 2875 3275 3225 4875 
Q 3450 4775 3750 4675 
Q 3625 4400 3425 3887 
Q 3225 3375 2775 2700 
Q 3050 2675 3400 2675 
L 5300 2675 
Q 4575 3625 4275 4975 
Q 4575 5025 4750 5100 
z
M 225 2525 
Q 575 2875 1025 3687 
Q 1475 4500 1650 5225 
Q 1975 5075 2200 4975 
Q 2050 4750 1600 3775 
L 1600 625 
Q 1600 75 1625 -575 
L 1100 -575 
Q 1125 50 1125 625 
L 1125 2925 
Q 775 2400 575 2175 
Q 425 2350 225 2525 
z
" transform="scale(0.015625)"/>
      </defs>
      <use xlink:href="#SimHei-5e74"/>
      <use xlink:href="#SimHei-4efd" x="100"/>
     </g>
    </g>
    <g id="line2d_49">
     <path d="M 917.208 51.927 
L 930.408 51.927 
L 943.608 51.927 
" style="fill: none; stroke: #4c72b0; stroke-width: 1.5; stroke-linecap: round"/>
    </g>
    <g id="text_48">
     <!-- 2021 -->
     <g style="fill: #262626" transform="translate(954.168 56.547) scale(0.132 -0.132)">
      <use xlink:href="#SimHei-32"/>
      <use xlink:href="#SimHei-30" x="50"/>
      <use xlink:href="#SimHei-32" x="100"/>
      <use xlink:href="#SimHei-31" x="150"/>
     </g>
    </g>
    <g id="line2d_50">
     <path d="M 917.208 69.417 
L 930.408 69.417 
L 943.608 69.417 
" style="fill: none; stroke: #dd8452; stroke-width: 1.5; stroke-linecap: round"/>
    </g>
    <g id="text_49">
     <!-- 2022 -->
     <g style="fill: #262626" transform="translate(954.168 74.037) scale(0.132 -0.132)">
      <use xlink:href="#SimHei-32"/>
      <use xlink:href="#SimHei-30" x="50"/>
      <use xlink:href="#SimHei-32" x="100"/>
      <use xlink:href="#SimHei-32" x="150"/>
     </g>
    </g>
   </g>
  </g>
 </g>
 <defs>
  <clipPath id="p11c93afd2b">
   <rect x="81.792" y="15.552" width="910.656" height="485.48475"/>
  </clipPath>
 </defs>
</svg>
