<?xml version="1.0" encoding="utf-8" standalone="no"?>
<!DOCTYPE svg PUBLIC "-//W3C//DTD SVG 1.1//EN"
  "http://www.w3.org/Graphics/SVG/1.1/DTD/svg11.dtd">
<svg xmlns:xlink="http://www.w3.org/1999/xlink" width="1008pt" height="576pt" viewBox="0 0 1008 576" xmlns="http://www.w3.org/2000/svg" version="1.1">
 <metadata>
  <rdf:RDF xmlns:dc="http://purl.org/dc/elements/1.1/" xmlns:cc="http://creativecommons.org/ns#" xmlns:rdf="http://www.w3.org/1999/02/22-rdf-syntax-ns#">
   <cc:Work>
    <dc:type rdf:resource="http://purl.org/dc/dcmitype/StillImage"/>
    <dc:date>2023-04-14T12:17:15.045119</dc:date>
    <dc:format>image/svg+xml</dc:format>
    <dc:creator>
     <cc:Agent>
      <dc:title>Matplotlib v3.7.1, https://matplotlib.org/</dc:title>
     </cc:Agent>
    </dc:creator>
   </cc:Work>
  </rdf:RDF>
 </metadata>
 <defs>
  <style type="text/css">*{stroke-linejoin: round; stroke-linecap: butt}</style>
 </defs>
 <g id="figure_1">
  <g id="patch_1">
   <path d="M 0 576 
L 1008 576 
L 1008 0 
L 0 0 
z
" style="fill: #ffffff"/>
  </g>
  <g id="axes_1">
   <g id="patch_2">
    <path d="M 75.222 501.03675 
L 992.448 501.03675 
L 992.448 15.552 
L 75.222 15.552 
z
" style="fill: #eaeaf2"/>
   </g>
   <g id="matplotlib.axis_1">
    <g id="xtick_1">
     <g id="line2d_1">
      <path d="M 116.914091 501.03675 
L 116.914091 15.552 
" clip-path="url(#pad3ef7185b)" style="fill: none; stroke: #ffffff; stroke-linecap: round"/>
     </g>
     <g id="text_1">
      <!-- 01-01 -->
      <g style="fill: #262626" transform="translate(120.626591 543.53675) rotate(-90) scale(0.132 -0.132)">
       <defs>
        <path id="SimHei-30" d="M 225 2537 
Q 250 3200 412 3587 
Q 575 3975 875 4225 
Q 1175 4475 1612 4475 
Q 2050 4475 2375 4112 
Q 2700 3750 2800 3200 
Q 2900 2650 2862 1937 
Q 2825 1225 2612 775 
Q 2400 325 1975 150 
Q 1550 -25 1125 187 
Q 700 400 525 750 
Q 350 1100 275 1487 
Q 200 1875 225 2537 
z
M 750 2687 
Q 675 2000 800 1462 
Q 925 925 1212 700 
Q 1500 475 1800 612 
Q 2100 750 2237 1162 
Q 2375 1575 2375 2062 
Q 2375 2550 2337 2950 
Q 2300 3350 2112 3675 
Q 1925 4000 1612 4012 
Q 1300 4025 1062 3700 
Q 825 3375 750 2687 
z
" transform="scale(0.015625)"/>
        <path id="SimHei-31" d="M 1400 3600 
Q 1075 3275 575 2975 
L 575 3450 
Q 1200 3875 1600 4450 
L 1900 4450 
L 1900 150 
L 1400 150 
L 1400 3600 
z
" transform="scale(0.015625)"/>
        <path id="SimHei-2d" d="M 2975 2125 
L 125 2125 
L 125 2525 
L 2975 2525 
L 2975 2125 
z
" transform="scale(0.015625)"/>
       </defs>
       <use xlink:href="#SimHei-30"/>
       <use xlink:href="#SimHei-31" x="50"/>
       <use xlink:href="#SimHei-2d" x="100"/>
       <use xlink:href="#SimHei-30" x="150"/>
       <use xlink:href="#SimHei-31" x="200"/>
      </g>
     </g>
    </g>
    <g id="xtick_2">
     <g id="line2d_2">
      <path d="M 139.821833 501.03675 
L 139.821833 15.552 
" clip-path="url(#pad3ef7185b)" style="fill: none; stroke: #ffffff; stroke-linecap: round"/>
     </g>
     <g id="text_2">
      <!-- 01-11 -->
      <g style="fill: #262626" transform="translate(143.534333 543.53675) rotate(-90) scale(0.132 -0.132)">
       <use xlink:href="#SimHei-30"/>
       <use xlink:href="#SimHei-31" x="50"/>
       <use xlink:href="#SimHei-2d" x="100"/>
       <use xlink:href="#SimHei-31" x="150"/>
       <use xlink:href="#SimHei-31" x="200"/>
      </g>
     </g>
    </g>
    <g id="xtick_3">
     <g id="line2d_3">
      <path d="M 162.729575 501.03675 
L 162.729575 15.552 
" clip-path="url(#pad3ef7185b)" style="fill: none; stroke: #ffffff; stroke-linecap: round"/>
     </g>
     <g id="text_3">
      <!-- 01-21 -->
      <g style="fill: #262626" transform="translate(166.442075 543.53675) rotate(-90) scale(0.132 -0.132)">
       <defs>
        <path id="SimHei-32" d="M 300 250 
Q 325 625 650 925 
Q 975 1225 1475 1862 
Q 1975 2500 2125 2850 
Q 2275 3200 2237 3450 
Q 2200 3700 2000 3862 
Q 1800 4025 1537 4000 
Q 1275 3975 1037 3800 
Q 800 3625 675 3275 
L 200 3350 
Q 400 3925 712 4187 
Q 1025 4450 1450 4475 
Q 1700 4500 1900 4462 
Q 2100 4425 2312 4287 
Q 2525 4150 2662 3875 
Q 2800 3600 2762 3212 
Q 2725 2825 2375 2287 
Q 2025 1750 1025 600 
L 2825 600 
L 2825 150 
L 300 150 
L 300 250 
z
" transform="scale(0.015625)"/>
       </defs>
       <use xlink:href="#SimHei-30"/>
       <use xlink:href="#SimHei-31" x="50"/>
       <use xlink:href="#SimHei-2d" x="100"/>
       <use xlink:href="#SimHei-32" x="150"/>
       <use xlink:href="#SimHei-31" x="200"/>
      </g>
     </g>
    </g>
    <g id="xtick_4">
     <g id="line2d_4">
      <path d="M 185.637318 501.03675 
L 185.637318 15.552 
" clip-path="url(#pad3ef7185b)" style="fill: none; stroke: #ffffff; stroke-linecap: round"/>
     </g>
     <g id="text_4">
      <!-- 01-31 -->
      <g style="fill: #262626" transform="translate(189.349818 543.53675) rotate(-90) scale(0.132 -0.132)">
       <defs>
        <path id="SimHei-33" d="M 250 1225 
L 700 1300 
Q 800 975 1025 762 
Q 1250 550 1587 562 
Q 1925 575 2125 837 
Q 2325 1100 2300 1437 
Q 2275 1775 2037 1962 
Q 1800 2150 1275 2225 
L 1275 2550 
Q 1800 2600 2037 2825 
Q 2275 3050 2250 3412 
Q 2225 3775 1925 3937 
Q 1625 4100 1287 3975 
Q 950 3850 750 3275 
L 300 3350 
Q 450 3800 712 4100 
Q 975 4400 1425 4450 
Q 1875 4500 2212 4337 
Q 2550 4175 2687 3837 
Q 2825 3500 2725 3100 
Q 2625 2700 2150 2400 
Q 2500 2250 2687 1950 
Q 2875 1650 2812 1162 
Q 2750 675 2375 375 
Q 2000 75 1525 87 
Q 1050 100 700 387 
Q 350 675 250 1225 
z
" transform="scale(0.015625)"/>
       </defs>
       <use xlink:href="#SimHei-30"/>
       <use xlink:href="#SimHei-31" x="50"/>
       <use xlink:href="#SimHei-2d" x="100"/>
       <use xlink:href="#SimHei-33" x="150"/>
       <use xlink:href="#SimHei-31" x="200"/>
      </g>
     </g>
    </g>
    <g id="xtick_5">
     <g id="line2d_5">
      <path d="M 208.54506 501.03675 
L 208.54506 15.552 
" clip-path="url(#pad3ef7185b)" style="fill: none; stroke: #ffffff; stroke-linecap: round"/>
     </g>
     <g id="text_5">
      <!-- 02-10 -->
      <g style="fill: #262626" transform="translate(212.25756 543.53675) rotate(-90) scale(0.132 -0.132)">
       <use xlink:href="#SimHei-30"/>
       <use xlink:href="#SimHei-32" x="50"/>
       <use xlink:href="#SimHei-2d" x="100"/>
       <use xlink:href="#SimHei-31" x="150"/>
       <use xlink:href="#SimHei-30" x="200"/>
      </g>
     </g>
    </g>
    <g id="xtick_6">
     <g id="line2d_6">
      <path d="M 231.452802 501.03675 
L 231.452802 15.552 
" clip-path="url(#pad3ef7185b)" style="fill: none; stroke: #ffffff; stroke-linecap: round"/>
     </g>
     <g id="text_6">
      <!-- 02-20 -->
      <g style="fill: #262626" transform="translate(235.165302 543.53675) rotate(-90) scale(0.132 -0.132)">
       <use xlink:href="#SimHei-30"/>
       <use xlink:href="#SimHei-32" x="50"/>
       <use xlink:href="#SimHei-2d" x="100"/>
       <use xlink:href="#SimHei-32" x="150"/>
       <use xlink:href="#SimHei-30" x="200"/>
      </g>
     </g>
    </g>
    <g id="xtick_7">
     <g id="line2d_7">
      <path d="M 254.360544 501.03675 
L 254.360544 15.552 
" clip-path="url(#pad3ef7185b)" style="fill: none; stroke: #ffffff; stroke-linecap: round"/>
     </g>
     <g id="text_7">
      <!-- 03-02 -->
      <g style="fill: #262626" transform="translate(258.073044 543.53675) rotate(-90) scale(0.132 -0.132)">
       <use xlink:href="#SimHei-30"/>
       <use xlink:href="#SimHei-33" x="50"/>
       <use xlink:href="#SimHei-2d" x="100"/>
       <use xlink:href="#SimHei-30" x="150"/>
       <use xlink:href="#SimHei-32" x="200"/>
      </g>
     </g>
    </g>
    <g id="xtick_8">
     <g id="line2d_8">
      <path d="M 277.268287 501.03675 
L 277.268287 15.552 
" clip-path="url(#pad3ef7185b)" style="fill: none; stroke: #ffffff; stroke-linecap: round"/>
     </g>
     <g id="text_8">
      <!-- 03-12 -->
      <g style="fill: #262626" transform="translate(280.980787 543.53675) rotate(-90) scale(0.132 -0.132)">
       <use xlink:href="#SimHei-30"/>
       <use xlink:href="#SimHei-33" x="50"/>
       <use xlink:href="#SimHei-2d" x="100"/>
       <use xlink:href="#SimHei-31" x="150"/>
       <use xlink:href="#SimHei-32" x="200"/>
      </g>
     </g>
    </g>
    <g id="xtick_9">
     <g id="line2d_9">
      <path d="M 300.176029 501.03675 
L 300.176029 15.552 
" clip-path="url(#pad3ef7185b)" style="fill: none; stroke: #ffffff; stroke-linecap: round"/>
     </g>
     <g id="text_9">
      <!-- 03-22 -->
      <g style="fill: #262626" transform="translate(303.888529 543.53675) rotate(-90) scale(0.132 -0.132)">
       <use xlink:href="#SimHei-30"/>
       <use xlink:href="#SimHei-33" x="50"/>
       <use xlink:href="#SimHei-2d" x="100"/>
       <use xlink:href="#SimHei-32" x="150"/>
       <use xlink:href="#SimHei-32" x="200"/>
      </g>
     </g>
    </g>
    <g id="xtick_10">
     <g id="line2d_10">
      <path d="M 323.083771 501.03675 
L 323.083771 15.552 
" clip-path="url(#pad3ef7185b)" style="fill: none; stroke: #ffffff; stroke-linecap: round"/>
     </g>
     <g id="text_10">
      <!-- 04-01 -->
      <g style="fill: #262626" transform="translate(326.796271 543.53675) rotate(-90) scale(0.132 -0.132)">
       <defs>
        <path id="SimHei-34" d="M 2000 1100 
L 75 1100 
L 75 1525 
L 2100 4450 
L 2475 4450 
L 2475 1525 
L 3075 1525 
L 3075 1100 
L 2475 1100 
L 2475 150 
L 2000 150 
L 2000 1100 
z
M 2000 1525 
L 2000 3500 
L 600 1525 
L 2000 1525 
z
" transform="scale(0.015625)"/>
       </defs>
       <use xlink:href="#SimHei-30"/>
       <use xlink:href="#SimHei-34" x="50"/>
       <use xlink:href="#SimHei-2d" x="100"/>
       <use xlink:href="#SimHei-30" x="150"/>
       <use xlink:href="#SimHei-31" x="200"/>
      </g>
     </g>
    </g>
    <g id="xtick_11">
     <g id="line2d_11">
      <path d="M 345.991513 501.03675 
L 345.991513 15.552 
" clip-path="url(#pad3ef7185b)" style="fill: none; stroke: #ffffff; stroke-linecap: round"/>
     </g>
     <g id="text_11">
      <!-- 04-11 -->
      <g style="fill: #262626" transform="translate(349.704013 543.53675) rotate(-90) scale(0.132 -0.132)">
       <use xlink:href="#SimHei-30"/>
       <use xlink:href="#SimHei-34" x="50"/>
       <use xlink:href="#SimHei-2d" x="100"/>
       <use xlink:href="#SimHei-31" x="150"/>
       <use xlink:href="#SimHei-31" x="200"/>
      </g>
     </g>
    </g>
    <g id="xtick_12">
     <g id="line2d_12">
      <path d="M 368.899256 501.03675 
L 368.899256 15.552 
" clip-path="url(#pad3ef7185b)" style="fill: none; stroke: #ffffff; stroke-linecap: round"/>
     </g>
     <g id="text_12">
      <!-- 04-21 -->
      <g style="fill: #262626" transform="translate(372.611756 543.53675) rotate(-90) scale(0.132 -0.132)">
       <use xlink:href="#SimHei-30"/>
       <use xlink:href="#SimHei-34" x="50"/>
       <use xlink:href="#SimHei-2d" x="100"/>
       <use xlink:href="#SimHei-32" x="150"/>
       <use xlink:href="#SimHei-31" x="200"/>
      </g>
     </g>
    </g>
    <g id="xtick_13">
     <g id="line2d_13">
      <path d="M 391.806998 501.03675 
L 391.806998 15.552 
" clip-path="url(#pad3ef7185b)" style="fill: none; stroke: #ffffff; stroke-linecap: round"/>
     </g>
     <g id="text_13">
      <!-- 05-01 -->
      <g style="fill: #262626" transform="translate(395.519498 543.53675) rotate(-90) scale(0.132 -0.132)">
       <defs>
        <path id="SimHei-35" d="M 550 1325 
Q 725 650 1150 575 
Q 1575 500 1837 662 
Q 2100 825 2212 1087 
Q 2325 1350 2312 1675 
Q 2300 2000 2137 2225 
Q 1975 2450 1725 2525 
Q 1475 2600 1162 2525 
Q 850 2450 650 2175 
L 225 2225 
Q 275 2375 700 4375 
L 2675 4375 
L 2675 3925 
L 1075 3925 
Q 950 3250 825 2850 
Q 1200 3025 1525 3012 
Q 1850 3000 2150 2862 
Q 2450 2725 2587 2487 
Q 2725 2250 2787 2012 
Q 2850 1775 2837 1500 
Q 2825 1225 2725 937 
Q 2625 650 2425 462 
Q 2225 275 1937 162 
Q 1650 50 1275 75 
Q 900 100 562 350 
Q 225 600 100 1200 
L 550 1325 
z
" transform="scale(0.015625)"/>
       </defs>
       <use xlink:href="#SimHei-30"/>
       <use xlink:href="#SimHei-35" x="50"/>
       <use xlink:href="#SimHei-2d" x="100"/>
       <use xlink:href="#SimHei-30" x="150"/>
       <use xlink:href="#SimHei-31" x="200"/>
      </g>
     </g>
    </g>
    <g id="xtick_14">
     <g id="line2d_14">
      <path d="M 414.71474 501.03675 
L 414.71474 15.552 
" clip-path="url(#pad3ef7185b)" style="fill: none; stroke: #ffffff; stroke-linecap: round"/>
     </g>
     <g id="text_14">
      <!-- 05-11 -->
      <g style="fill: #262626" transform="translate(418.42724 543.53675) rotate(-90) scale(0.132 -0.132)">
       <use xlink:href="#SimHei-30"/>
       <use xlink:href="#SimHei-35" x="50"/>
       <use xlink:href="#SimHei-2d" x="100"/>
       <use xlink:href="#SimHei-31" x="150"/>
       <use xlink:href="#SimHei-31" x="200"/>
      </g>
     </g>
    </g>
    <g id="xtick_15">
     <g id="line2d_15">
      <path d="M 437.622483 501.03675 
L 437.622483 15.552 
" clip-path="url(#pad3ef7185b)" style="fill: none; stroke: #ffffff; stroke-linecap: round"/>
     </g>
     <g id="text_15">
      <!-- 05-21 -->
      <g style="fill: #262626" transform="translate(441.334983 543.53675) rotate(-90) scale(0.132 -0.132)">
       <use xlink:href="#SimHei-30"/>
       <use xlink:href="#SimHei-35" x="50"/>
       <use xlink:href="#SimHei-2d" x="100"/>
       <use xlink:href="#SimHei-32" x="150"/>
       <use xlink:href="#SimHei-31" x="200"/>
      </g>
     </g>
    </g>
    <g id="xtick_16">
     <g id="line2d_16">
      <path d="M 460.530225 501.03675 
L 460.530225 15.552 
" clip-path="url(#pad3ef7185b)" style="fill: none; stroke: #ffffff; stroke-linecap: round"/>
     </g>
     <g id="text_16">
      <!-- 05-31 -->
      <g style="fill: #262626" transform="translate(464.242725 543.53675) rotate(-90) scale(0.132 -0.132)">
       <use xlink:href="#SimHei-30"/>
       <use xlink:href="#SimHei-35" x="50"/>
       <use xlink:href="#SimHei-2d" x="100"/>
       <use xlink:href="#SimHei-33" x="150"/>
       <use xlink:href="#SimHei-31" x="200"/>
      </g>
     </g>
    </g>
    <g id="xtick_17">
     <g id="line2d_17">
      <path d="M 483.437967 501.03675 
L 483.437967 15.552 
" clip-path="url(#pad3ef7185b)" style="fill: none; stroke: #ffffff; stroke-linecap: round"/>
     </g>
     <g id="text_17">
      <!-- 06-10 -->
      <g style="fill: #262626" transform="translate(487.150467 543.53675) rotate(-90) scale(0.132 -0.132)">
       <defs>
        <path id="SimHei-36" d="M 250 1612 
Q 275 1975 387 2225 
Q 500 2475 725 2850 
L 1750 4450 
L 2325 4450 
L 1275 2800 
Q 1950 2975 2350 2750 
Q 2750 2525 2887 2237 
Q 3025 1950 3037 1612 
Q 3050 1275 2937 950 
Q 2825 625 2537 362 
Q 2250 100 1737 75 
Q 1225 50 862 262 
Q 500 475 362 862 
Q 225 1250 250 1612 
z
M 1025 787 
Q 1250 550 1625 525 
Q 2000 500 2250 775 
Q 2500 1050 2500 1575 
Q 2500 2100 2187 2300 
Q 1875 2500 1487 2450 
Q 1100 2400 925 2075 
Q 750 1750 775 1387 
Q 800 1025 1025 787 
z
" transform="scale(0.015625)"/>
       </defs>
       <use xlink:href="#SimHei-30"/>
       <use xlink:href="#SimHei-36" x="50"/>
       <use xlink:href="#SimHei-2d" x="100"/>
       <use xlink:href="#SimHei-31" x="150"/>
       <use xlink:href="#SimHei-30" x="200"/>
      </g>
     </g>
    </g>
    <g id="xtick_18">
     <g id="line2d_18">
      <path d="M 506.345709 501.03675 
L 506.345709 15.552 
" clip-path="url(#pad3ef7185b)" style="fill: none; stroke: #ffffff; stroke-linecap: round"/>
     </g>
     <g id="text_18">
      <!-- 06-20 -->
      <g style="fill: #262626" transform="translate(510.058209 543.53675) rotate(-90) scale(0.132 -0.132)">
       <use xlink:href="#SimHei-30"/>
       <use xlink:href="#SimHei-36" x="50"/>
       <use xlink:href="#SimHei-2d" x="100"/>
       <use xlink:href="#SimHei-32" x="150"/>
       <use xlink:href="#SimHei-30" x="200"/>
      </g>
     </g>
    </g>
    <g id="xtick_19">
     <g id="line2d_19">
      <path d="M 529.253452 501.03675 
L 529.253452 15.552 
" clip-path="url(#pad3ef7185b)" style="fill: none; stroke: #ffffff; stroke-linecap: round"/>
     </g>
     <g id="text_19">
      <!-- 06-30 -->
      <g style="fill: #262626" transform="translate(532.965952 543.53675) rotate(-90) scale(0.132 -0.132)">
       <use xlink:href="#SimHei-30"/>
       <use xlink:href="#SimHei-36" x="50"/>
       <use xlink:href="#SimHei-2d" x="100"/>
       <use xlink:href="#SimHei-33" x="150"/>
       <use xlink:href="#SimHei-30" x="200"/>
      </g>
     </g>
    </g>
    <g id="xtick_20">
     <g id="line2d_20">
      <path d="M 552.161194 501.03675 
L 552.161194 15.552 
" clip-path="url(#pad3ef7185b)" style="fill: none; stroke: #ffffff; stroke-linecap: round"/>
     </g>
     <g id="text_20">
      <!-- 07-10 -->
      <g style="fill: #262626" transform="translate(555.873694 543.53675) rotate(-90) scale(0.132 -0.132)">
       <defs>
        <path id="SimHei-37" d="M 850 150 
Q 1300 2050 2425 3925 
L 275 3925 
L 275 4375 
L 2950 4375 
L 2950 3950 
Q 1775 2050 1400 150 
L 850 150 
z
" transform="scale(0.015625)"/>
       </defs>
       <use xlink:href="#SimHei-30"/>
       <use xlink:href="#SimHei-37" x="50"/>
       <use xlink:href="#SimHei-2d" x="100"/>
       <use xlink:href="#SimHei-31" x="150"/>
       <use xlink:href="#SimHei-30" x="200"/>
      </g>
     </g>
    </g>
    <g id="xtick_21">
     <g id="line2d_21">
      <path d="M 575.068936 501.03675 
L 575.068936 15.552 
" clip-path="url(#pad3ef7185b)" style="fill: none; stroke: #ffffff; stroke-linecap: round"/>
     </g>
     <g id="text_21">
      <!-- 07-20 -->
      <g style="fill: #262626" transform="translate(578.781436 543.53675) rotate(-90) scale(0.132 -0.132)">
       <use xlink:href="#SimHei-30"/>
       <use xlink:href="#SimHei-37" x="50"/>
       <use xlink:href="#SimHei-2d" x="100"/>
       <use xlink:href="#SimHei-32" x="150"/>
       <use xlink:href="#SimHei-30" x="200"/>
      </g>
     </g>
    </g>
    <g id="xtick_22">
     <g id="line2d_22">
      <path d="M 597.976678 501.03675 
L 597.976678 15.552 
" clip-path="url(#pad3ef7185b)" style="fill: none; stroke: #ffffff; stroke-linecap: round"/>
     </g>
     <g id="text_22">
      <!-- 07-30 -->
      <g style="fill: #262626" transform="translate(601.689178 543.53675) rotate(-90) scale(0.132 -0.132)">
       <use xlink:href="#SimHei-30"/>
       <use xlink:href="#SimHei-37" x="50"/>
       <use xlink:href="#SimHei-2d" x="100"/>
       <use xlink:href="#SimHei-33" x="150"/>
       <use xlink:href="#SimHei-30" x="200"/>
      </g>
     </g>
    </g>
    <g id="xtick_23">
     <g id="line2d_23">
      <path d="M 620.884421 501.03675 
L 620.884421 15.552 
" clip-path="url(#pad3ef7185b)" style="fill: none; stroke: #ffffff; stroke-linecap: round"/>
     </g>
     <g id="text_23">
      <!-- 08-09 -->
      <g style="fill: #262626" transform="translate(624.596921 543.53675) rotate(-90) scale(0.132 -0.132)">
       <defs>
        <path id="SimHei-38" d="M 175 1375 
Q 175 1675 325 1962 
Q 475 2250 825 2425 
Q 525 2600 425 2812 
Q 325 3025 312 3300 
Q 300 3575 387 3775 
Q 475 3975 650 4150 
Q 825 4325 1037 4387 
Q 1250 4450 1500 4450 
Q 1750 4450 1950 4400 
Q 2150 4350 2375 4187 
Q 2600 4025 2700 3725 
Q 2800 3425 2687 3025 
Q 2575 2625 2100 2400 
Q 2525 2275 2700 2012 
Q 2875 1750 2875 1375 
Q 2875 1000 2762 775 
Q 2650 550 2512 400 
Q 2375 250 2137 162 
Q 1900 75 1537 75 
Q 1175 75 912 162 
Q 650 250 475 425 
Q 300 600 237 837 
Q 175 1075 175 1375 
z
M 687 1400 
Q 675 1100 787 875 
Q 900 650 1200 587 
Q 1500 525 1825 600 
Q 2150 675 2275 950 
Q 2400 1225 2362 1500 
Q 2325 1775 2050 1962 
Q 1775 2150 1450 2125 
Q 1125 2100 912 1900 
Q 700 1700 687 1400 
z
M 775 3350 
Q 775 3100 950 2875 
Q 1125 2650 1500 2650 
Q 1875 2650 2062 2875 
Q 2250 3100 2237 3412 
Q 2225 3725 2012 3875 
Q 1800 4025 1437 4000 
Q 1075 3975 925 3787 
Q 775 3600 775 3350 
z
" transform="scale(0.015625)"/>
        <path id="SimHei-39" d="M 800 75 
Q 1350 1000 1700 1750 
Q 1075 1650 662 1912 
Q 250 2175 162 2625 
Q 75 3075 175 3437 
Q 275 3800 487 4037 
Q 700 4275 1000 4375 
Q 1300 4475 1537 4475 
Q 1775 4475 2025 4375 
Q 2275 4275 2475 4075 
Q 2675 3875 2750 3662 
Q 2825 3450 2825 3112 
Q 2825 2775 2575 2250 
Q 2325 1725 1350 75 
L 800 75 
z
M 662 2875 
Q 700 2550 937 2337 
Q 1175 2125 1450 2150 
Q 1725 2175 1887 2300 
Q 2050 2425 2200 2725 
Q 2300 3100 2250 3362 
Q 2200 3625 1987 3800 
Q 1775 3975 1525 3975 
Q 1375 4000 1137 3900 
Q 900 3800 762 3500 
Q 625 3200 662 2875 
z
" transform="scale(0.015625)"/>
       </defs>
       <use xlink:href="#SimHei-30"/>
       <use xlink:href="#SimHei-38" x="50"/>
       <use xlink:href="#SimHei-2d" x="100"/>
       <use xlink:href="#SimHei-30" x="150"/>
       <use xlink:href="#SimHei-39" x="200"/>
      </g>
     </g>
    </g>
    <g id="xtick_24">
     <g id="line2d_24">
      <path d="M 643.792163 501.03675 
L 643.792163 15.552 
" clip-path="url(#pad3ef7185b)" style="fill: none; stroke: #ffffff; stroke-linecap: round"/>
     </g>
     <g id="text_24">
      <!-- 08-19 -->
      <g style="fill: #262626" transform="translate(647.504663 543.53675) rotate(-90) scale(0.132 -0.132)">
       <use xlink:href="#SimHei-30"/>
       <use xlink:href="#SimHei-38" x="50"/>
       <use xlink:href="#SimHei-2d" x="100"/>
       <use xlink:href="#SimHei-31" x="150"/>
       <use xlink:href="#SimHei-39" x="200"/>
      </g>
     </g>
    </g>
    <g id="xtick_25">
     <g id="line2d_25">
      <path d="M 666.699905 501.03675 
L 666.699905 15.552 
" clip-path="url(#pad3ef7185b)" style="fill: none; stroke: #ffffff; stroke-linecap: round"/>
     </g>
     <g id="text_25">
      <!-- 08-29 -->
      <g style="fill: #262626" transform="translate(670.412405 543.53675) rotate(-90) scale(0.132 -0.132)">
       <use xlink:href="#SimHei-30"/>
       <use xlink:href="#SimHei-38" x="50"/>
       <use xlink:href="#SimHei-2d" x="100"/>
       <use xlink:href="#SimHei-32" x="150"/>
       <use xlink:href="#SimHei-39" x="200"/>
      </g>
     </g>
    </g>
    <g id="xtick_26">
     <g id="line2d_26">
      <path d="M 689.607647 501.03675 
L 689.607647 15.552 
" clip-path="url(#pad3ef7185b)" style="fill: none; stroke: #ffffff; stroke-linecap: round"/>
     </g>
     <g id="text_26">
      <!-- 09-08 -->
      <g style="fill: #262626" transform="translate(693.320147 543.53675) rotate(-90) scale(0.132 -0.132)">
       <use xlink:href="#SimHei-30"/>
       <use xlink:href="#SimHei-39" x="50"/>
       <use xlink:href="#SimHei-2d" x="100"/>
       <use xlink:href="#SimHei-30" x="150"/>
       <use xlink:href="#SimHei-38" x="200"/>
      </g>
     </g>
    </g>
    <g id="xtick_27">
     <g id="line2d_27">
      <path d="M 712.51539 501.03675 
L 712.51539 15.552 
" clip-path="url(#pad3ef7185b)" style="fill: none; stroke: #ffffff; stroke-linecap: round"/>
     </g>
     <g id="text_27">
      <!-- 09-18 -->
      <g style="fill: #262626" transform="translate(716.22789 543.53675) rotate(-90) scale(0.132 -0.132)">
       <use xlink:href="#SimHei-30"/>
       <use xlink:href="#SimHei-39" x="50"/>
       <use xlink:href="#SimHei-2d" x="100"/>
       <use xlink:href="#SimHei-31" x="150"/>
       <use xlink:href="#SimHei-38" x="200"/>
      </g>
     </g>
    </g>
    <g id="xtick_28">
     <g id="line2d_28">
      <path d="M 735.423132 501.03675 
L 735.423132 15.552 
" clip-path="url(#pad3ef7185b)" style="fill: none; stroke: #ffffff; stroke-linecap: round"/>
     </g>
     <g id="text_28">
      <!-- 09-28 -->
      <g style="fill: #262626" transform="translate(739.135632 543.53675) rotate(-90) scale(0.132 -0.132)">
       <use xlink:href="#SimHei-30"/>
       <use xlink:href="#SimHei-39" x="50"/>
       <use xlink:href="#SimHei-2d" x="100"/>
       <use xlink:href="#SimHei-32" x="150"/>
       <use xlink:href="#SimHei-38" x="200"/>
      </g>
     </g>
    </g>
    <g id="xtick_29">
     <g id="line2d_29">
      <path d="M 758.330874 501.03675 
L 758.330874 15.552 
" clip-path="url(#pad3ef7185b)" style="fill: none; stroke: #ffffff; stroke-linecap: round"/>
     </g>
     <g id="text_29">
      <!-- 10-08 -->
      <g style="fill: #262626" transform="translate(762.043374 543.53675) rotate(-90) scale(0.132 -0.132)">
       <use xlink:href="#SimHei-31"/>
       <use xlink:href="#SimHei-30" x="50"/>
       <use xlink:href="#SimHei-2d" x="100"/>
       <use xlink:href="#SimHei-30" x="150"/>
       <use xlink:href="#SimHei-38" x="200"/>
      </g>
     </g>
    </g>
    <g id="xtick_30">
     <g id="line2d_30">
      <path d="M 781.238616 501.03675 
L 781.238616 15.552 
" clip-path="url(#pad3ef7185b)" style="fill: none; stroke: #ffffff; stroke-linecap: round"/>
     </g>
     <g id="text_30">
      <!-- 10-18 -->
      <g style="fill: #262626" transform="translate(784.951116 543.53675) rotate(-90) scale(0.132 -0.132)">
       <use xlink:href="#SimHei-31"/>
       <use xlink:href="#SimHei-30" x="50"/>
       <use xlink:href="#SimHei-2d" x="100"/>
       <use xlink:href="#SimHei-31" x="150"/>
       <use xlink:href="#SimHei-38" x="200"/>
      </g>
     </g>
    </g>
    <g id="xtick_31">
     <g id="line2d_31">
      <path d="M 804.146359 501.03675 
L 804.146359 15.552 
" clip-path="url(#pad3ef7185b)" style="fill: none; stroke: #ffffff; stroke-linecap: round"/>
     </g>
     <g id="text_31">
      <!-- 10-28 -->
      <g style="fill: #262626" transform="translate(807.858859 543.53675) rotate(-90) scale(0.132 -0.132)">
       <use xlink:href="#SimHei-31"/>
       <use xlink:href="#SimHei-30" x="50"/>
       <use xlink:href="#SimHei-2d" x="100"/>
       <use xlink:href="#SimHei-32" x="150"/>
       <use xlink:href="#SimHei-38" x="200"/>
      </g>
     </g>
    </g>
    <g id="xtick_32">
     <g id="line2d_32">
      <path d="M 827.054101 501.03675 
L 827.054101 15.552 
" clip-path="url(#pad3ef7185b)" style="fill: none; stroke: #ffffff; stroke-linecap: round"/>
     </g>
     <g id="text_32">
      <!-- 11-07 -->
      <g style="fill: #262626" transform="translate(830.766601 543.53675) rotate(-90) scale(0.132 -0.132)">
       <use xlink:href="#SimHei-31"/>
       <use xlink:href="#SimHei-31" x="50"/>
       <use xlink:href="#SimHei-2d" x="100"/>
       <use xlink:href="#SimHei-30" x="150"/>
       <use xlink:href="#SimHei-37" x="200"/>
      </g>
     </g>
    </g>
    <g id="xtick_33">
     <g id="line2d_33">
      <path d="M 849.961843 501.03675 
L 849.961843 15.552 
" clip-path="url(#pad3ef7185b)" style="fill: none; stroke: #ffffff; stroke-linecap: round"/>
     </g>
     <g id="text_33">
      <!-- 11-17 -->
      <g style="fill: #262626" transform="translate(853.674343 543.53675) rotate(-90) scale(0.132 -0.132)">
       <use xlink:href="#SimHei-31"/>
       <use xlink:href="#SimHei-31" x="50"/>
       <use xlink:href="#SimHei-2d" x="100"/>
       <use xlink:href="#SimHei-31" x="150"/>
       <use xlink:href="#SimHei-37" x="200"/>
      </g>
     </g>
    </g>
    <g id="xtick_34">
     <g id="line2d_34">
      <path d="M 872.869585 501.03675 
L 872.869585 15.552 
" clip-path="url(#pad3ef7185b)" style="fill: none; stroke: #ffffff; stroke-linecap: round"/>
     </g>
     <g id="text_34">
      <!-- 11-27 -->
      <g style="fill: #262626" transform="translate(876.582085 543.53675) rotate(-90) scale(0.132 -0.132)">
       <use xlink:href="#SimHei-31"/>
       <use xlink:href="#SimHei-31" x="50"/>
       <use xlink:href="#SimHei-2d" x="100"/>
       <use xlink:href="#SimHei-32" x="150"/>
       <use xlink:href="#SimHei-37" x="200"/>
      </g>
     </g>
    </g>
    <g id="xtick_35">
     <g id="line2d_35">
      <path d="M 895.777328 501.03675 
L 895.777328 15.552 
" clip-path="url(#pad3ef7185b)" style="fill: none; stroke: #ffffff; stroke-linecap: round"/>
     </g>
     <g id="text_35">
      <!-- 12-07 -->
      <g style="fill: #262626" transform="translate(899.489828 543.53675) rotate(-90) scale(0.132 -0.132)">
       <use xlink:href="#SimHei-31"/>
       <use xlink:href="#SimHei-32" x="50"/>
       <use xlink:href="#SimHei-2d" x="100"/>
       <use xlink:href="#SimHei-30" x="150"/>
       <use xlink:href="#SimHei-37" x="200"/>
      </g>
     </g>
    </g>
    <g id="xtick_36">
     <g id="line2d_36">
      <path d="M 918.68507 501.03675 
L 918.68507 15.552 
" clip-path="url(#pad3ef7185b)" style="fill: none; stroke: #ffffff; stroke-linecap: round"/>
     </g>
     <g id="text_36">
      <!-- 12-17 -->
      <g style="fill: #262626" transform="translate(922.39757 543.53675) rotate(-90) scale(0.132 -0.132)">
       <use xlink:href="#SimHei-31"/>
       <use xlink:href="#SimHei-32" x="50"/>
       <use xlink:href="#SimHei-2d" x="100"/>
       <use xlink:href="#SimHei-31" x="150"/>
       <use xlink:href="#SimHei-37" x="200"/>
      </g>
     </g>
    </g>
    <g id="xtick_37">
     <g id="line2d_37">
      <path d="M 941.592812 501.03675 
L 941.592812 15.552 
" clip-path="url(#pad3ef7185b)" style="fill: none; stroke: #ffffff; stroke-linecap: round"/>
     </g>
     <g id="text_37">
      <!-- 12-27 -->
      <g style="fill: #262626" transform="translate(945.305312 543.53675) rotate(-90) scale(0.132 -0.132)">
       <use xlink:href="#SimHei-31"/>
       <use xlink:href="#SimHei-32" x="50"/>
       <use xlink:href="#SimHei-2d" x="100"/>
       <use xlink:href="#SimHei-32" x="150"/>
       <use xlink:href="#SimHei-37" x="200"/>
      </g>
     </g>
    </g>
    <g id="text_38">
     <!-- 月日 -->
     <g style="fill: #262626" transform="translate(519.435 558.2805) scale(0.144 -0.144)">
      <defs>
       <path id="SimHei-6708" d="M 5250 4825 
Q 5200 4225 5200 3750 
L 5200 200 
Q 5200 -275 4950 -375 
Q 4700 -475 3975 -525 
Q 3925 -225 3750 50 
Q 4300 25 4512 50 
Q 4725 75 4725 400 
L 4725 1600 
L 1850 1600 
Q 1725 775 1450 225 
Q 1175 -325 900 -575 
Q 700 -400 400 -325 
Q 800 25 1037 512 
Q 1275 1000 1337 1475 
Q 1400 1950 1400 2525 
L 1400 3625 
Q 1400 4175 1375 4825 
L 5250 4825 
z
M 4725 3400 
L 4725 4450 
L 1875 4450 
L 1875 3400 
L 4725 3400 
z
M 4725 2000 
L 4725 3025 
L 1875 3025 
L 1875 2000 
L 4725 2000 
z
" transform="scale(0.015625)"/>
       <path id="SimHei-65e5" d="M 5375 5000 
Q 5350 3775 5350 2275 
Q 5350 775 5375 -450 
L 4800 -450 
L 4800 175 
L 1800 175 
L 1800 -575 
L 1250 -575 
Q 1275 575 1275 2125 
Q 1275 3675 1250 5000 
L 5375 5000 
z
M 4800 600 
L 4800 2375 
L 1800 2375 
L 1800 600 
L 4800 600 
z
M 4800 2800 
L 4800 4550 
L 1800 4550 
L 1800 2800 
L 4800 2800 
z
" transform="scale(0.015625)"/>
      </defs>
      <use xlink:href="#SimHei-6708"/>
      <use xlink:href="#SimHei-65e5" x="100"/>
     </g>
    </g>
   </g>
   <g id="matplotlib.axis_2">
    <g id="ytick_1">
     <g id="line2d_38">
      <path d="M 75.222 495.79881 
L 992.448 495.79881 
" clip-path="url(#pad3ef7185b)" style="fill: none; stroke: #ffffff; stroke-linecap: round"/>
     </g>
     <g id="text_39">
      <!-- 0 -->
      <g style="fill: #262626" transform="translate(59.122 500.33631) scale(0.132 -0.132)">
       <use xlink:href="#SimHei-30"/>
      </g>
     </g>
    </g>
    <g id="ytick_2">
     <g id="line2d_39">
      <path d="M 75.222 440.047176 
L 992.448 440.047176 
" clip-path="url(#pad3ef7185b)" style="fill: none; stroke: #ffffff; stroke-linecap: round"/>
     </g>
     <g id="text_40">
      <!-- 2500 -->
      <g style="fill: #262626" transform="translate(39.322 444.584676) scale(0.132 -0.132)">
       <use xlink:href="#SimHei-32"/>
       <use xlink:href="#SimHei-35" x="50"/>
       <use xlink:href="#SimHei-30" x="100"/>
       <use xlink:href="#SimHei-30" x="150"/>
      </g>
     </g>
    </g>
    <g id="ytick_3">
     <g id="line2d_40">
      <path d="M 75.222 384.295543 
L 992.448 384.295543 
" clip-path="url(#pad3ef7185b)" style="fill: none; stroke: #ffffff; stroke-linecap: round"/>
     </g>
     <g id="text_41">
      <!-- 5000 -->
      <g style="fill: #262626" transform="translate(39.322 388.833043) scale(0.132 -0.132)">
       <use xlink:href="#SimHei-35"/>
       <use xlink:href="#SimHei-30" x="50"/>
       <use xlink:href="#SimHei-30" x="100"/>
       <use xlink:href="#SimHei-30" x="150"/>
      </g>
     </g>
    </g>
    <g id="ytick_4">
     <g id="line2d_41">
      <path d="M 75.222 328.543909 
L 992.448 328.543909 
" clip-path="url(#pad3ef7185b)" style="fill: none; stroke: #ffffff; stroke-linecap: round"/>
     </g>
     <g id="text_42">
      <!-- 7500 -->
      <g style="fill: #262626" transform="translate(39.322 333.081409) scale(0.132 -0.132)">
       <use xlink:href="#SimHei-37"/>
       <use xlink:href="#SimHei-35" x="50"/>
       <use xlink:href="#SimHei-30" x="100"/>
       <use xlink:href="#SimHei-30" x="150"/>
      </g>
     </g>
    </g>
    <g id="ytick_5">
     <g id="line2d_42">
      <path d="M 75.222 272.792276 
L 992.448 272.792276 
" clip-path="url(#pad3ef7185b)" style="fill: none; stroke: #ffffff; stroke-linecap: round"/>
     </g>
     <g id="text_43">
      <!-- 10000 -->
      <g style="fill: #262626" transform="translate(32.722 277.329776) scale(0.132 -0.132)">
       <use xlink:href="#SimHei-31"/>
       <use xlink:href="#SimHei-30" x="50"/>
       <use xlink:href="#SimHei-30" x="100"/>
       <use xlink:href="#SimHei-30" x="150"/>
       <use xlink:href="#SimHei-30" x="200"/>
      </g>
     </g>
    </g>
    <g id="ytick_6">
     <g id="line2d_43">
      <path d="M 75.222 217.040643 
L 992.448 217.040643 
" clip-path="url(#pad3ef7185b)" style="fill: none; stroke: #ffffff; stroke-linecap: round"/>
     </g>
     <g id="text_44">
      <!-- 12500 -->
      <g style="fill: #262626" transform="translate(32.722 221.578143) scale(0.132 -0.132)">
       <use xlink:href="#SimHei-31"/>
       <use xlink:href="#SimHei-32" x="50"/>
       <use xlink:href="#SimHei-35" x="100"/>
       <use xlink:href="#SimHei-30" x="150"/>
       <use xlink:href="#SimHei-30" x="200"/>
      </g>
     </g>
    </g>
    <g id="ytick_7">
     <g id="line2d_44">
      <path d="M 75.222 161.289009 
L 992.448 161.289009 
" clip-path="url(#pad3ef7185b)" style="fill: none; stroke: #ffffff; stroke-linecap: round"/>
     </g>
     <g id="text_45">
      <!-- 15000 -->
      <g style="fill: #262626" transform="translate(32.722 165.826509) scale(0.132 -0.132)">
       <use xlink:href="#SimHei-31"/>
       <use xlink:href="#SimHei-35" x="50"/>
       <use xlink:href="#SimHei-30" x="100"/>
       <use xlink:href="#SimHei-30" x="150"/>
       <use xlink:href="#SimHei-30" x="200"/>
      </g>
     </g>
    </g>
    <g id="ytick_8">
     <g id="line2d_45">
      <path d="M 75.222 105.537376 
L 992.448 105.537376 
" clip-path="url(#pad3ef7185b)" style="fill: none; stroke: #ffffff; stroke-linecap: round"/>
     </g>
     <g id="text_46">
      <!-- 17500 -->
      <g style="fill: #262626" transform="translate(32.722 110.074876) scale(0.132 -0.132)">
       <use xlink:href="#SimHei-31"/>
       <use xlink:href="#SimHei-37" x="50"/>
       <use xlink:href="#SimHei-35" x="100"/>
       <use xlink:href="#SimHei-30" x="150"/>
       <use xlink:href="#SimHei-30" x="200"/>
      </g>
     </g>
    </g>
    <g id="ytick_9">
     <g id="line2d_46">
      <path d="M 75.222 49.785742 
L 992.448 49.785742 
" clip-path="url(#pad3ef7185b)" style="fill: none; stroke: #ffffff; stroke-linecap: round"/>
     </g>
     <g id="text_47">
      <!-- 20000 -->
      <g style="fill: #262626" transform="translate(32.722 54.323242) scale(0.132 -0.132)">
       <use xlink:href="#SimHei-32"/>
       <use xlink:href="#SimHei-30" x="50"/>
       <use xlink:href="#SimHei-30" x="100"/>
       <use xlink:href="#SimHei-30" x="150"/>
       <use xlink:href="#SimHei-30" x="200"/>
      </g>
     </g>
    </g>
    <g id="text_48">
     <!-- 货量 -->
     <g style="fill: #262626" transform="translate(26.922 272.694375) rotate(-90) scale(0.144 -0.144)">
      <defs>
       <path id="SimHei-8d27" d="M 3975 5075 
Q 3950 4750 3950 4100 
Q 4075 4175 4525 4375 
Q 4975 4575 5375 4900 
Q 5550 4625 5700 4400 
Q 5425 4325 4987 4112 
Q 4550 3900 3950 3650 
L 3950 3225 
Q 3950 3025 4300 3025 
L 5125 3025 
Q 5425 3025 5487 3150 
Q 5550 3275 5575 3625 
Q 5850 3450 6125 3375 
Q 5975 2875 5825 2750 
Q 5675 2625 5475 2625 
L 4000 2625 
Q 3425 2625 3425 3125 
L 3425 3525 
Q 2900 3325 2575 3225 
Q 2425 3500 2350 3650 
Q 2750 3750 3425 3925 
Q 3425 4750 3400 5075 
L 3975 5075 
z
M 5200 2200 
Q 5175 1825 5175 1425 
Q 5175 1050 5200 600 
L 4625 600 
L 4625 1775 
L 1950 1775 
L 1950 625 
L 1400 625 
Q 1425 1025 1425 1400 
Q 1425 1800 1400 2200 
L 5200 2200 
z
M 2625 4850 
Q 2425 4700 2050 4300 
Q 2050 2900 2075 2450 
L 1500 2450 
Q 1525 2900 1525 3825 
Q 1300 3625 1100 3425 
Q 900 3225 700 3050 
Q 475 3250 325 3400 
Q 850 3725 1325 4237 
Q 1800 4750 2050 5175 
Q 2325 4925 2625 4850 
z
M 3550 1325 
Q 3425 975 3312 687 
Q 3200 400 2925 137 
Q 2650 -125 2150 -325 
Q 1650 -525 800 -675 
Q 725 -400 475 -100 
Q 1200 -75 1675 25 
Q 2150 125 2412 325 
Q 2675 525 2787 775 
Q 2900 1025 2975 1400 
Q 3250 1350 3550 1325 
z
M 5575 -675 
Q 5125 -400 4650 -187 
Q 4175 25 3575 250 
Q 3725 500 3825 725 
Q 4350 500 4800 300 
Q 5250 100 5875 -175 
Q 5700 -400 5575 -675 
z
" transform="scale(0.015625)"/>
       <path id="SimHei-91cf" d="M 5250 2500 
Q 5225 2200 5225 1700 
Q 5225 1225 5250 950 
L 3425 950 
L 3425 625 
L 4575 625 
Q 5000 625 5375 650 
L 5375 275 
Q 5025 300 4575 300 
L 3425 300 
L 3425 -75 
L 5125 -75 
Q 5525 -75 5925 -50 
L 5925 -425 
Q 5525 -400 5125 -400 
L 1275 -400 
Q 900 -400 475 -425 
L 475 -50 
Q 925 -50 1275 -75 
L 2975 -75 
L 2975 300 
L 1725 300 
Q 1350 300 975 250 
L 975 650 
Q 1375 625 1725 625 
L 2975 625 
L 2975 950 
L 1150 950 
Q 1175 1375 1175 1775 
Q 1175 2175 1150 2500 
L 5250 2500 
z
M 5200 4950 
Q 5175 4575 5175 4250 
Q 5175 3925 5200 3400 
L 1200 3400 
Q 1225 3925 1225 4250 
Q 1225 4575 1200 4950 
L 5200 4950 
z
M 4900 3100 
Q 5500 3125 6000 3150 
L 6000 2750 
Q 5500 2775 4925 2775 
L 1650 2775 
Q 975 2775 325 2750 
L 325 3150 
Q 975 3125 1650 3100 
L 4900 3100 
z
M 4725 3700 
L 4725 4025 
L 1675 4025 
L 1675 3700 
L 4725 3700 
z
M 4725 4350 
L 4725 4650 
L 1675 4650 
L 1675 4350 
L 4725 4350 
z
M 4750 1875 
L 4750 2175 
L 3425 2175 
L 3425 1875 
L 4750 1875 
z
M 2975 1875 
L 2975 2175 
L 1650 2175 
L 1650 1875 
L 2975 1875 
z
M 2975 1275 
L 2975 1550 
L 1650 1550 
L 1650 1275 
L 2975 1275 
z
M 4750 1275 
L 4750 1550 
L 3425 1550 
L 3425 1275 
L 4750 1275 
z
" transform="scale(0.015625)"/>
      </defs>
      <use xlink:href="#SimHei-8d27"/>
      <use xlink:href="#SimHei-91cf" x="100"/>
     </g>
    </g>
   </g>
   <g id="PolyCollection_1">
    <defs>
     <path id="mccf8cff846" d="M 116.914091 -250.57227 
L 116.914091 -172.995794 
L 119.204865 -166.113094 
L 121.495639 -143.484321 
L 123.786414 -142.538744 
L 126.077188 -145.904727 
L 128.367962 -155.142098 
L 130.658736 -144.284311 
L 132.94951 -163.494728 
L 135.240285 -150.09165 
L 137.531059 -152.290784 
L 139.821833 -142.582961 
L 142.112607 -157.438411 
L 144.403382 -141.709314 
L 146.694156 -144.35282 
L 148.98493 -154.883075 
L 151.275704 -157.5939 
L 153.566479 -142.797824 
L 155.857253 -153.793099 
L 158.148027 -140.035354 
L 160.438801 -165.584201 
L 162.729575 -155.255231 
L 165.02035 -160.539773 
L 167.311124 -160.29279 
L 169.601898 -165.596514 
L 171.892672 -160.718666 
L 174.183447 -153.227715 
L 176.474221 -149.244712 
L 178.764995 -150.983856 
L 181.055769 -160.225563 
L 183.346543 -155.963222 
L 185.637318 -158.898599 
L 187.928092 -159.797436 
L 190.218866 -165.57445 
L 192.50964 -159.196338 
L 194.800415 -159.489166 
L 197.091189 -161.71557 
L 199.381963 -168.206335 
L 201.672737 -171.555111 
L 203.963511 -163.432453 
L 206.254286 -159.393946 
L 208.54506 -153.717569 
L 210.835834 -97.030739 
L 213.126608 -130.407719 
L 215.417383 -131.180404 
L 217.708157 -139.290635 
L 219.998931 -155.839607 
L 222.289705 -149.128702 
L 224.58048 -137.181882 
L 226.871254 -149.772987 
L 229.162028 -148.591717 
L 231.452802 -151.856986 
L 233.743576 -143.634536 
L 236.034351 -146.804189 
L 238.325125 -147.837093 
L 240.615899 -147.146378 
L 242.906673 -146.899659 
L 245.197448 -139.718301 
L 247.488222 -152.300469 
L 249.778996 -147.462262 
L 252.06977 -149.660136 
L 254.360544 -152.520674 
L 256.651319 -152.585102 
L 258.942093 -147.615409 
L 261.232867 -155.798071 
L 263.523641 -148.087618 
L 265.814416 -144.895356 
L 268.10519 -159.993438 
L 270.395964 -145.791737 
L 272.686738 -140.950398 
L 274.977512 -140.567081 
L 277.268287 -147.403097 
L 279.559061 -144.271681 
L 281.849835 -143.891621 
L 284.140609 -143.051016 
L 286.431384 -145.428701 
L 288.722158 -148.348958 
L 291.012932 -151.26895 
L 293.303706 -151.768846 
L 295.594481 -158.055102 
L 297.885255 -140.027484 
L 300.176029 -144.344414 
L 302.466803 -149.985745 
L 304.757577 -144.763674 
L 307.048352 -152.840364 
L 309.339126 -143.915551 
L 311.6299 -141.655303 
L 313.920674 -153.253402 
L 316.211449 -148.836046 
L 318.502223 -145.570672 
L 320.792997 -147.432491 
L 323.083771 -142.684387 
L 325.374545 -145.918557 
L 327.66532 -138.665753 
L 329.956094 -139.41054 
L 332.246868 -146.898704 
L 334.537642 -151.53011 
L 336.828417 -153.074028 
L 339.119191 -148.680736 
L 341.409965 -149.407212 
L 343.700739 -142.60816 
L 345.991513 -139.06202 
L 348.282288 -149.908834 
L 350.573062 -148.358067 
L 352.863836 -146.210551 
L 355.15461 -141.969621 
L 357.445385 -148.187226 
L 359.736159 -148.043187 
L 362.026933 -142.357276 
L 364.317707 -148.421126 
L 366.608482 -157.985553 
L 368.899256 -149.335796 
L 371.19003 -150.99338 
L 373.480804 -148.670065 
L 375.771578 -150.085931 
L 378.062353 -162.989207 
L 380.353127 -149.215004 
L 382.643901 -150.579736 
L 384.934675 -149.505097 
L 387.22545 -147.897618 
L 389.516224 -136.229865 
L 391.806998 -144.699192 
L 394.097772 -135.189299 
L 396.388546 -133.431085 
L 398.679321 -140.514202 
L 400.970095 -141.98064 
L 403.260869 -156.580158 
L 405.551643 -157.054783 
L 407.842418 -154.918671 
L 410.133192 -150.327999 
L 412.423966 -164.709553 
L 414.71474 -155.053521 
L 417.005514 -145.857668 
L 419.296289 -151.259467 
L 421.587063 -150.904489 
L 423.877837 -155.656844 
L 426.168611 -147.971061 
L 428.459386 -159.679099 
L 430.75016 -158.772574 
L 433.040934 -156.615925 
L 435.331708 -151.312396 
L 437.622483 -150.068083 
L 439.913257 -148.152799 
L 442.204031 -150.653583 
L 444.494805 -167.675075 
L 446.785579 -162.729668 
L 449.076354 -154.236954 
L 451.367128 -148.274905 
L 453.657902 -147.193043 
L 455.948676 -153.483101 
L 458.239451 -140.33388 
L 460.530225 -150.023946 
L 462.820999 -257.437255 
L 465.111773 -198.45674 
L 467.402547 -184.022404 
L 469.693322 -162.307621 
L 471.984096 -166.956451 
L 474.27487 -167.631315 
L 476.565644 -172.214632 
L 478.856419 -180.454622 
L 481.147193 -163.145117 
L 483.437967 -156.299795 
L 485.728741 -154.030148 
L 488.019515 -154.467891 
L 490.31029 -161.36914 
L 492.601064 -152.91006 
L 494.891838 -155.973808 
L 497.182612 -203.023534 
L 499.473387 -178.822024 
L 501.764161 -312.922849 
L 504.054935 -206.355371 
L 506.345709 -162.89328 
L 508.636484 -159.128672 
L 510.927258 -151.740321 
L 513.218032 -141.948871 
L 515.508806 -149.247889 
L 517.79958 -144.213382 
L 520.090355 -140.363335 
L 522.381129 -144.121546 
L 524.671903 -148.490575 
L 526.962677 -147.243552 
L 529.253452 -153.69895 
L 531.544226 -150.390262 
L 533.835 -155.767141 
L 536.125774 -148.43534 
L 538.416548 -154.306759 
L 540.707323 -152.196771 
L 542.998097 -148.654246 
L 545.288871 -154.589496 
L 547.579645 -150.526251 
L 549.87042 -143.661864 
L 552.161194 -151.53276 
L 554.451968 -149.472331 
L 556.742742 -148.754315 
L 559.033516 -155.665355 
L 561.324291 -140.594337 
L 563.615065 -143.557926 
L 565.905839 -143.97954 
L 568.196613 -143.004846 
L 570.487388 -139.424396 
L 572.778162 -141.533338 
L 575.068936 -141.036265 
L 577.35971 -146.419334 
L 579.650485 -137.50833 
L 581.941259 -142.303989 
L 584.232033 -139.267548 
L 586.522807 -140.267883 
L 588.813581 -140.692744 
L 591.104356 -147.459395 
L 593.39513 -141.34406 
L 595.685904 -144.011998 
L 597.976678 -143.566722 
L 600.267453 -146.545145 
L 602.558227 -138.890265 
L 604.849001 -146.447661 
L 607.139775 -145.293254 
L 609.430549 -151.836409 
L 611.721324 -149.2215 
L 614.012098 -143.062666 
L 616.302872 -143.394831 
L 618.593646 -150.368376 
L 620.884421 -145.440053 
L 623.175195 -147.857357 
L 625.465969 -145.489097 
L 627.756743 -150.438191 
L 630.047517 -155.241295 
L 632.338292 -140.984768 
L 634.629066 -149.852038 
L 636.91984 -146.363791 
L 639.210614 -149.450797 
L 641.501389 -150.007321 
L 643.792163 -143.635283 
L 646.082937 -143.457896 
L 648.373711 -142.82335 
L 650.664486 -144.848073 
L 652.95526 -149.770318 
L 655.246034 -145.491015 
L 657.536808 -152.310212 
L 659.827582 -157.914282 
L 662.118357 -156.152457 
L 664.409131 -156.738339 
L 666.699905 -154.851233 
L 668.990679 -158.824207 
L 671.281454 -159.478025 
L 673.572228 -167.438783 
L 675.863002 -161.566142 
L 678.153776 -153.633343 
L 680.44455 -157.326065 
L 682.735325 -143.012205 
L 685.026099 -156.71179 
L 687.316873 -150.762371 
L 689.607647 -152.435807 
L 691.898422 -179.051246 
L 694.189196 -155.590038 
L 696.47997 -152.20221 
L 698.770744 -152.274955 
L 701.061518 -168.778508 
L 703.352293 -164.141594 
L 705.643067 -152.47236 
L 707.933841 -161.908276 
L 710.224615 -155.680548 
L 712.51539 -157.799669 
L 714.806164 -161.730741 
L 717.096938 -149.398262 
L 719.387712 -144.917275 
L 721.678487 -159.033873 
L 723.969261 -157.131548 
L 726.260035 -154.957485 
L 728.550809 -147.938127 
L 730.841583 -155.345925 
L 733.132358 -154.136747 
L 735.423132 -158.666484 
L 737.713906 -153.439765 
L 740.00468 -145.113364 
L 742.295455 -146.040613 
L 744.586229 -138.445636 
L 746.877003 -135.233107 
L 749.167777 -134.698493 
L 751.458551 -132.491779 
L 753.749326 -152.365376 
L 756.0401 -133.950203 
L 758.330874 -149.635763 
L 760.621648 -148.792288 
L 762.912423 -152.342187 
L 765.203197 -151.648187 
L 767.493971 -146.219777 
L 769.784745 -150.691892 
L 772.075519 -147.832761 
L 774.366294 -154.695131 
L 776.657068 -142.706626 
L 778.947842 -147.059418 
L 781.238616 -155.400408 
L 783.529391 -153.587014 
L 785.820165 -180.398907 
L 788.110939 -176.292695 
L 790.401713 -183.029582 
L 792.692488 -169.470358 
L 794.983262 -159.666968 
L 797.274036 -170.062835 
L 799.56481 -168.194175 
L 801.855584 -169.837214 
L 804.146359 -170.842792 
L 806.437133 -156.545957 
L 808.727907 -151.775681 
L 811.018681 -165.45688 
L 813.309456 -237.470717 
L 815.60023 -221.93738 
L 817.891004 -223.264787 
L 820.181778 -239.710835 
L 822.472552 -202.32319 
L 824.763327 -198.398327 
L 827.054101 -178.10251 
L 829.344875 -188.493812 
L 831.635649 -179.015473 
L 833.926424 -157.449187 
L 836.217198 -268.047972 
L 838.507972 -206.38528 
L 840.798746 -182.742516 
L 843.08952 -181.407757 
L 845.380295 -163.170282 
L 847.671069 -154.944146 
L 849.961843 -159.848451 
L 852.252617 -161.609424 
L 854.543392 -166.932459 
L 856.834166 -162.065846 
L 859.12494 -159.10134 
L 861.415714 -172.947435 
L 863.706489 -164.188437 
L 865.997263 -160.306328 
L 868.288037 -153.674897 
L 870.578811 -158.116432 
L 872.869585 -163.71275 
L 875.16036 -166.919878 
L 877.451134 -162.217698 
L 879.741908 -163.723425 
L 882.032682 -162.039738 
L 884.323457 -164.060172 
L 886.614231 -163.15817 
L 888.905005 -162.805607 
L 891.195779 -158.796072 
L 893.486553 -156.463278 
L 895.777328 -169.074771 
L 898.068102 -163.450032 
L 900.358876 -166.250114 
L 902.64965 -185.344345 
L 904.940425 -180.442006 
L 907.231199 -245.541533 
L 909.521973 -192.413355 
L 911.812747 -164.309049 
L 914.103521 -165.506797 
L 916.394296 -159.526651 
L 918.68507 -157.040413 
L 920.975844 -176.115423 
L 923.266618 -165.902458 
L 925.557393 -166.437583 
L 927.848167 -168.619528 
L 930.138941 -170.079817 
L 932.429715 -169.994808 
L 934.72049 -172.382491 
L 937.011264 -163.690671 
L 939.302038 -168.976722 
L 941.592812 -164.210616 
L 943.883586 -176.469005 
L 946.174361 -170.68519 
L 948.465135 -168.141032 
L 950.755909 -166.757845 
L 950.755909 -279.704927 
L 950.755909 -279.704927 
L 948.465135 -276.850845 
L 946.174361 -282.61699 
L 943.883586 -274.319483 
L 941.592812 -250.477918 
L 939.302038 -268.232651 
L 937.011264 -241.737187 
L 934.72049 -291.583039 
L 932.429715 -269.127113 
L 930.138941 -269.495 
L 927.848167 -308.614564 
L 925.557393 -250.357024 
L 923.266618 -267.825151 
L 920.975844 -269.809253 
L 918.68507 -235.99505 
L 916.394296 -271.486678 
L 914.103521 -254.469033 
L 911.812747 -255.681405 
L 909.521973 -307.275089 
L 907.231199 -521.570512 
L 904.940425 -321.522133 
L 902.64965 -276.853641 
L 900.358876 -256.457654 
L 898.068102 -245.738168 
L 895.777328 -271.703493 
L 893.486553 -239.88432 
L 891.195779 -241.707428 
L 888.905005 -266.496273 
L 886.614231 -272.093298 
L 884.323457 -238.849694 
L 882.032682 -286.789342 
L 879.741908 -248.425198 
L 877.451134 -279.529929 
L 875.16036 -257.402522 
L 872.869585 -242.854958 
L 870.578811 -232.334006 
L 868.288037 -224.072425 
L 865.997263 -255.756557 
L 863.706489 -258.520215 
L 861.415714 -276.721165 
L 859.12494 -244.214509 
L 856.834166 -251.467898 
L 854.543392 -253.473298 
L 852.252617 -237.973482 
L 849.961843 -250.961522 
L 847.671069 -212.285014 
L 845.380295 -245.702832 
L 843.08952 -301.187368 
L 840.798746 -372.282557 
L 838.507972 -364.299733 
L 836.217198 -481.771075 
L 833.926424 -243.617474 
L 831.635649 -296.36891 
L 829.344875 -370.659414 
L 827.054101 -280.97823 
L 824.763327 -320.62512 
L 822.472552 -335.642757 
L 820.181778 -415.76336 
L 817.891004 -394.371702 
L 815.60023 -353.855453 
L 813.309456 -395.455075 
L 811.018681 -270.431475 
L 808.727907 -244.414449 
L 806.437133 -247.801093 
L 804.146359 -276.859082 
L 801.855584 -278.640822 
L 799.56481 -281.789549 
L 797.274036 -267.470976 
L 794.983262 -251.730503 
L 792.692488 -295.912379 
L 790.401713 -315.25412 
L 788.110939 -290.322722 
L 785.820165 -304.4639 
L 783.529391 -259.329902 
L 781.238616 -243.722554 
L 778.947842 -212.49574 
L 776.657068 -233.576121 
L 774.366294 -243.901777 
L 772.075519 -207.807021 
L 769.784745 -226.098003 
L 767.493971 -222.174573 
L 765.203197 -244.420047 
L 762.912423 -230.544507 
L 760.621648 -226.712042 
L 758.330874 -243.183022 
L 756.0401 -195.401388 
L 753.749326 -235.825953 
L 751.458551 -202.918785 
L 749.167777 -194.764434 
L 746.877003 -220.282468 
L 744.586229 -204.645275 
L 742.295455 -231.915302 
L 740.00468 -208.405539 
L 737.713906 -225.850175 
L 735.423132 -245.578494 
L 733.132358 -224.605572 
L 730.841583 -250.806954 
L 728.550809 -226.1626 
L 726.260035 -247.3611 
L 723.969261 -246.358894 
L 721.678487 -238.326916 
L 719.387712 -208.739398 
L 717.096938 -242.191043 
L 714.806164 -243.601286 
L 712.51539 -243.270984 
L 710.224615 -249.828946 
L 707.933841 -266.629452 
L 705.643067 -241.194637 
L 703.352293 -238.205777 
L 701.061518 -252.659884 
L 698.770744 -250.61919 
L 696.47997 -230.896847 
L 694.189196 -246.615859 
L 691.898422 -304.020292 
L 689.607647 -239.677925 
L 687.316873 -212.193742 
L 685.026099 -250.423572 
L 682.735325 -213.434544 
L 680.44455 -240.888776 
L 678.153776 -235.463003 
L 675.863002 -265.23261 
L 673.572228 -280.255602 
L 671.281454 -236.228267 
L 668.990679 -236.371243 
L 666.699905 -247.604207 
L 664.409131 -253.207648 
L 662.118357 -229.159659 
L 659.827582 -230.584687 
L 657.536808 -231.46782 
L 655.246034 -205.083856 
L 652.95526 -216.614066 
L 650.664486 -193.055194 
L 648.373711 -204.928244 
L 646.082937 -209.998875 
L 643.792163 -192.386707 
L 641.501389 -211.12522 
L 639.210614 -208.261818 
L 636.91984 -202.923379 
L 634.629066 -221.922657 
L 632.338292 -211.256149 
L 630.047517 -222.255981 
L 627.756743 -212.523626 
L 625.465969 -197.960001 
L 623.175195 -215.789108 
L 620.884421 -194.242966 
L 618.593646 -208.534736 
L 616.302872 -204.452699 
L 614.012098 -202.73396 
L 611.721324 -220.686284 
L 609.430549 -230.833644 
L 607.139775 -202.716454 
L 604.849001 -201.260324 
L 602.558227 -192.070874 
L 600.267453 -204.053716 
L 597.976678 -211.211324 
L 595.685904 -196.484534 
L 593.39513 -203.695013 
L 591.104356 -204.89644 
L 588.813581 -200.178996 
L 586.522807 -187.561831 
L 584.232033 -196.026038 
L 581.941259 -202.814584 
L 579.650485 -192.094565 
L 577.35971 -207.108784 
L 575.068936 -191.464143 
L 572.778162 -199.884321 
L 570.487388 -182.386469 
L 568.196613 -201.303052 
L 565.905839 -199.4506 
L 563.615065 -207.85262 
L 561.324291 -218.8377 
L 559.033516 -255.266581 
L 556.742742 -223.760917 
L 554.451968 -219.06643 
L 552.161194 -220.520083 
L 549.87042 -216.220848 
L 547.579645 -217.923828 
L 545.288871 -229.928789 
L 542.998097 -225.053929 
L 540.707323 -226.917551 
L 538.416548 -239.150712 
L 536.125774 -232.995214 
L 533.835 -242.747879 
L 531.544226 -225.929948 
L 529.253452 -221.434521 
L 526.962677 -203.565721 
L 524.671903 -224.362642 
L 522.381129 -214.78835 
L 520.090355 -185.124092 
L 517.79958 -199.450515 
L 515.508806 -215.581013 
L 513.218032 -224.490509 
L 510.927258 -207.59833 
L 508.636484 -222.983104 
L 506.345709 -256.768864 
L 504.054935 -367.232028 
L 501.764161 -538.380511 
L 499.473387 -266.853253 
L 497.182612 -302.977957 
L 494.891838 -238.269137 
L 492.601064 -247.245608 
L 490.31029 -261.1045 
L 488.019515 -246.589157 
L 485.728741 -223.106339 
L 483.437967 -235.01997 
L 481.147193 -263.354419 
L 478.856419 -293.842668 
L 476.565644 -257.436073 
L 474.27487 -275.272486 
L 471.984096 -267.629444 
L 469.693322 -238.659211 
L 467.402547 -348.931342 
L 465.111773 -297.555809 
L 462.820999 -462.436657 
L 460.530225 -238.779239 
L 458.239451 -198.697748 
L 455.948676 -229.151359 
L 453.657902 -210.914597 
L 451.367128 -206.638541 
L 449.076354 -232.230069 
L 446.785579 -272.598373 
L 444.494805 -258.132262 
L 442.204031 -250.385374 
L 439.913257 -241.058534 
L 437.622483 -245.326353 
L 435.331708 -239.766366 
L 433.040934 -255.170838 
L 430.75016 -257.631697 
L 428.459386 -240.607987 
L 426.168611 -214.067086 
L 423.877837 -240.421852 
L 421.587063 -213.042522 
L 419.296289 -222.180891 
L 417.005514 -222.247212 
L 414.71474 -258.678305 
L 412.423966 -279.008801 
L 410.133192 -227.363762 
L 407.842418 -223.465767 
L 405.551643 -239.071462 
L 403.260869 -242.010766 
L 400.970095 -189.574103 
L 398.679321 -201.526307 
L 396.388546 -185.551816 
L 394.097772 -180.299647 
L 391.806998 -211.48861 
L 389.516224 -218.269339 
L 387.22545 -206.194613 
L 384.934675 -250.544511 
L 382.643901 -217.42347 
L 380.353127 -226.332379 
L 378.062353 -237.815776 
L 375.771578 -212.292407 
L 373.480804 -206.548064 
L 371.19003 -238.204486 
L 368.899256 -220.388542 
L 366.608482 -220.096271 
L 364.317707 -205.377193 
L 362.026933 -215.750517 
L 359.736159 -223.334453 
L 357.445385 -249.358401 
L 355.15461 -213.677505 
L 352.863836 -229.181455 
L 350.573062 -204.055403 
L 348.282288 -200.272317 
L 345.991513 -233.263198 
L 343.700739 -234.063844 
L 341.409965 -224.945809 
L 339.119191 -260.993409 
L 336.828417 -219.731598 
L 334.537642 -221.070023 
L 332.246868 -221.357299 
L 329.956094 -201.297224 
L 327.66532 -241.513273 
L 325.374545 -203.136098 
L 323.083771 -195.009962 
L 320.792997 -207.517339 
L 318.502223 -223.612391 
L 316.211449 -233.686522 
L 313.920674 -230.172902 
L 311.6299 -191.507149 
L 309.339126 -214.132038 
L 307.048352 -229.320033 
L 304.757577 -205.571876 
L 302.466803 -227.868194 
L 300.176029 -232.457971 
L 297.885255 -197.392239 
L 295.594481 -223.635006 
L 293.303706 -228.881236 
L 291.012932 -235.018702 
L 288.722158 -206.592763 
L 286.431384 -218.405421 
L 284.140609 -200.107374 
L 281.849835 -215.098247 
L 279.559061 -205.725215 
L 277.268287 -227.02824 
L 274.977512 -187.214445 
L 272.686738 -197.341111 
L 270.395964 -244.195453 
L 268.10519 -268.680273 
L 265.814416 -211.644071 
L 263.523641 -236.367095 
L 261.232867 -220.42122 
L 258.942093 -216.367933 
L 256.651319 -215.796297 
L 254.360544 -207.25301 
L 252.06977 -230.533373 
L 249.778996 -206.926607 
L 247.488222 -220.890293 
L 245.197448 -196.508074 
L 242.906673 -219.453201 
L 240.615899 -213.484589 
L 238.325125 -244.581358 
L 236.034351 -199.401386 
L 233.743576 -244.60837 
L 231.452802 -248.416004 
L 229.162028 -247.104213 
L 226.871254 -228.472348 
L 224.58048 -238.309588 
L 222.289705 -268.083907 
L 219.998931 -239.325495 
L 217.708157 -229.737902 
L 215.417383 -194.412402 
L 213.126608 -193.431226 
L 210.835834 -118.414201 
L 208.54506 -251.177901 
L 206.254286 -241.650409 
L 203.963511 -265.875287 
L 201.672737 -253.98724 
L 199.381963 -251.786941 
L 197.091189 -259.043308 
L 194.800415 -251.089207 
L 192.50964 -251.812176 
L 190.218866 -256.972388 
L 187.928092 -226.861114 
L 185.637318 -247.757854 
L 183.346543 -236.390519 
L 181.055769 -233.040482 
L 178.764995 -234.9633 
L 176.474221 -210.141973 
L 174.183447 -225.612751 
L 171.892672 -238.459314 
L 169.601898 -255.075412 
L 167.311124 -226.508301 
L 165.02035 -232.088208 
L 162.729575 -239.988264 
L 160.438801 -271.10158 
L 158.148027 -185.344736 
L 155.857253 -237.914282 
L 153.566479 -211.906334 
L 151.275704 -218.993262 
L 148.98493 -231.609772 
L 146.694156 -221.690292 
L 144.403382 -206.70126 
L 142.112607 -262.400323 
L 139.821833 -197.175795 
L 137.531059 -216.005936 
L 135.240285 -224.954439 
L 132.94951 -272.636624 
L 130.658736 -225.46811 
L 128.367962 -237.856878 
L 126.077188 -243.54766 
L 123.786414 -237.784529 
L 121.495639 -204.694776 
L 119.204865 -253.180077 
L 116.914091 -250.57227 
z
" style="stroke: #edd1cb; stroke-opacity: 0.2"/>
    </defs>
    <g clip-path="url(#pad3ef7185b)">
     <use xlink:href="#mccf8cff846" x="0" y="576" style="fill: #edd1cb; fill-opacity: 0.2; stroke: #edd1cb; stroke-opacity: 0.2"/>
    </g>
   </g>
   <g id="PolyCollection_2">
    <defs>
     <path id="m6d894d67d5" d="M 116.914091 -287.356673 
L 116.914091 -179.329193 
L 119.204865 -180.031588 
L 121.495639 -161.148585 
L 123.786414 -171.52619 
L 126.077188 -164.577136 
L 128.367962 -176.584149 
L 130.658736 -175.89474 
L 132.94951 -167.765897 
L 135.240285 -170.47251 
L 137.531059 -209.833002 
L 139.821833 -186.84815 
L 142.112607 -185.121961 
L 144.403382 -178.208557 
L 146.694156 -176.870406 
L 148.98493 -180.475435 
L 151.275704 -187.408371 
L 153.566479 -184.788813 
L 155.857253 -184.760399 
L 158.148027 -201.168173 
L 160.438801 -201.408708 
L 162.729575 -196.526731 
L 165.02035 -205.22094 
L 167.311124 -196.751892 
L 169.601898 -197.118436 
L 171.892672 -202.847761 
L 174.183447 -194.769303 
L 176.474221 -184.557869 
L 178.764995 -189.52168 
L 181.055769 -186.127335 
L 183.346543 -149.110046 
L 185.637318 -102.809758 
L 187.928092 -143.299712 
L 190.218866 -140.083331 
L 192.50964 -149.046736 
L 194.800415 -145.135871 
L 197.091189 -150.799863 
L 199.381963 -151.768594 
L 201.672737 -174.396334 
L 203.963511 -164.721693 
L 206.254286 -175.721894 
L 208.54506 -166.466771 
L 210.835834 -178.453088 
L 213.126608 -170.340705 
L 215.417383 -161.515166 
L 217.708157 -171.844547 
L 219.998931 -168.643477 
L 222.289705 -167.925574 
L 224.58048 -166.925728 
L 226.871254 -172.806115 
L 229.162028 -189.841831 
L 231.452802 -171.695858 
L 233.743576 -177.353241 
L 236.034351 -183.027296 
L 238.325125 -172.579031 
L 240.615899 -167.728445 
L 242.906673 -169.453109 
L 245.197448 -178.969582 
L 247.488222 -174.436274 
L 249.778996 -168.443481 
L 252.06977 -177.912213 
L 254.360544 -174.729883 
L 256.651319 -167.743319 
L 258.942093 -186.174034 
L 261.232867 -191.620122 
L 263.523641 -170.222095 
L 265.814416 -176.203632 
L 268.10519 -190.084087 
L 270.395964 -182.479966 
L 272.686738 -168.83534 
L 274.977512 -170.539955 
L 277.268287 -172.756746 
L 279.559061 -179.572555 
L 281.849835 -183.909224 
L 284.140609 -177.069528 
L 286.431384 -175.386167 
L 288.722158 -165.51635 
L 291.012932 -173.865862 
L 293.303706 -179.036355 
L 295.594481 -171.692937 
L 297.885255 -170.937023 
L 300.176029 -179.592133 
L 302.466803 -171.156449 
L 304.757577 -159.656877 
L 307.048352 -159.95532 
L 309.339126 -166.288687 
L 311.6299 -160.809587 
L 313.920674 -167.725175 
L 316.211449 -169.277375 
L 318.502223 -164.841975 
L 320.792997 -163.371405 
L 323.083771 -169.006649 
L 325.374545 -167.02969 
L 327.66532 -162.353304 
L 329.956094 -163.83105 
L 332.246868 -169.439859 
L 334.537642 -178.16538 
L 336.828417 -176.951436 
L 339.119191 -180.028659 
L 341.409965 -197.846329 
L 343.700739 -188.026858 
L 345.991513 -186.997144 
L 348.282288 -188.860742 
L 350.573062 -173.36362 
L 352.863836 -183.360848 
L 355.15461 -185.456177 
L 357.445385 -159.799394 
L 359.736159 -173.961382 
L 362.026933 -196.375892 
L 364.317707 -186.974305 
L 366.608482 -173.749684 
L 368.899256 -180.82613 
L 371.19003 -184.537574 
L 373.480804 -200.689589 
L 375.771578 -220.131055 
L 378.062353 -253.929628 
L 380.353127 -244.100034 
L 382.643901 -216.856676 
L 384.934675 -190.338831 
L 387.22545 -158.977048 
L 389.516224 -163.721225 
L 391.806998 -157.305816 
L 394.097772 -161.63632 
L 396.388546 -169.578051 
L 398.679321 -179.429885 
L 400.970095 -177.429397 
L 403.260869 -188.518952 
L 405.551643 -177.515324 
L 407.842418 -175.777277 
L 410.133192 -192.641124 
L 412.423966 -188.925173 
L 414.71474 -194.23643 
L 417.005514 -196.706697 
L 419.296289 -190.259881 
L 421.587063 -172.926338 
L 423.877837 -168.518109 
L 426.168611 -175.555848 
L 428.459386 -195.215334 
L 430.75016 -176.912098 
L 433.040934 -184.753233 
L 435.331708 -175.97772 
L 437.622483 -188.270288 
L 439.913257 -189.48133 
L 442.204031 -172.028251 
L 444.494805 -168.506921 
L 446.785579 -171.661874 
L 449.076354 -172.513959 
L 451.367128 -164.947455 
L 453.657902 -167.753915 
L 455.948676 -156.080439 
L 458.239451 -154.157387 
L 460.530225 -172.115965 
L 462.820999 -255.889765 
L 465.111773 -193.378868 
L 467.402547 -195.78207 
L 469.693322 -176.083476 
L 471.984096 -170.455141 
L 474.27487 -177.556999 
L 476.565644 -195.214442 
L 478.856419 -183.704144 
L 481.147193 -179.418025 
L 483.437967 -181.901337 
L 485.728741 -180.196025 
L 488.019515 -186.172118 
L 490.31029 -192.104303 
L 492.601064 -176.235824 
L 494.891838 -205.056098 
L 497.182612 -227.713312 
L 499.473387 -203.450662 
L 501.764161 -297.178203 
L 504.054935 -224.71012 
L 506.345709 -204.775236 
L 508.636484 -177.134452 
L 510.927258 -175.678711 
L 513.218032 -182.807799 
L 515.508806 -177.937292 
L 517.79958 -174.202873 
L 520.090355 -175.948822 
L 522.381129 -171.083374 
L 524.671903 -174.000877 
L 526.962677 -164.806769 
L 529.253452 -162.876943 
L 531.544226 -172.249292 
L 533.835 -181.540884 
L 536.125774 -172.562012 
L 538.416548 -178.328972 
L 540.707323 -171.777662 
L 542.998097 -175.183722 
L 545.288871 -166.94919 
L 547.579645 -171.845915 
L 549.87042 -178.098744 
L 552.161194 -171.662384 
L 554.451968 -175.145068 
L 556.742742 -174.051598 
L 559.033516 -180.12155 
L 561.324291 -184.142704 
L 563.615065 -184.320353 
L 565.905839 -182.793013 
L 568.196613 -171.054266 
L 570.487388 -171.166724 
L 572.778162 -176.063334 
L 575.068936 -180.858349 
L 577.35971 -180.943613 
L 579.650485 -164.648824 
L 581.941259 -171.796842 
L 584.232033 -168.870022 
L 586.522807 -180.439106 
L 588.813581 -182.505894 
L 591.104356 -165.690205 
L 593.39513 -159.772024 
L 595.685904 -163.493871 
L 597.976678 -176.195849 
L 600.267453 -169.368182 
L 602.558227 -173.570189 
L 604.849001 -180.914124 
L 607.139775 -168.714161 
L 609.430549 -176.187577 
L 611.721324 -167.301174 
L 614.012098 -170.951185 
L 616.302872 -164.309829 
L 618.593646 -175.33729 
L 620.884421 -172.53358 
L 623.175195 -170.907113 
L 625.465969 -167.030337 
L 627.756743 -166.736185 
L 630.047517 -165.67147 
L 632.338292 -163.851651 
L 634.629066 -179.693774 
L 636.91984 -178.178474 
L 639.210614 -169.426913 
L 641.501389 -181.800073 
L 643.792163 -174.750627 
L 646.082937 -165.225555 
L 648.373711 -178.12028 
L 650.664486 -183.516611 
L 652.95526 -175.727867 
L 655.246034 -173.430268 
L 657.536808 -177.147758 
L 659.827582 -183.510114 
L 662.118357 -175.754227 
L 664.409131 -178.190467 
L 666.699905 -189.049085 
L 668.990679 -187.512104 
L 671.281454 -182.205106 
L 673.572228 -185.326504 
L 675.863002 -191.872234 
L 678.153776 -189.630436 
L 680.44455 -182.768726 
L 682.735325 -195.467664 
L 685.026099 -192.939589 
L 687.316873 -209.835772 
L 689.607647 -206.663509 
L 691.898422 -196.192387 
L 694.189196 -182.099905 
L 696.47997 -173.654195 
L 698.770744 -175.950721 
L 701.061518 -179.748541 
L 703.352293 -181.972609 
L 705.643067 -175.803916 
L 707.933841 -177.667833 
L 710.224615 -191.612342 
L 712.51539 -168.783635 
L 714.806164 -177.930092 
L 717.096938 -171.183211 
L 719.387712 -182.632769 
L 721.678487 -187.311914 
L 723.969261 -186.587537 
L 726.260035 -172.092932 
L 728.550809 -174.426129 
L 730.841583 -185.009713 
L 733.132358 -181.829092 
L 735.423132 -183.669322 
L 737.713906 -178.929003 
L 740.00468 -175.174861 
L 742.295455 -177.068911 
L 744.586229 -159.531721 
L 746.877003 -164.18821 
L 749.167777 -162.652833 
L 751.458551 -167.73383 
L 753.749326 -167.070288 
L 756.0401 -176.215705 
L 758.330874 -180.309029 
L 760.621648 -177.447717 
L 762.912423 -177.865396 
L 765.203197 -169.0968 
L 767.493971 -172.423962 
L 769.784745 -169.811711 
L 772.075519 -166.195036 
L 774.366294 -164.618077 
L 776.657068 -163.21521 
L 778.947842 -165.021086 
L 781.238616 -172.204305 
L 783.529391 -162.39021 
L 785.820165 -174.360077 
L 788.110939 -188.721577 
L 790.401713 -170.578052 
L 792.692488 -156.7894 
L 794.983262 -169.776702 
L 797.274036 -169.811732 
L 799.56481 -168.384769 
L 801.855584 -166.756329 
L 804.146359 -167.609934 
L 806.437133 -153.103999 
L 808.727907 -149.651242 
L 811.018681 -173.855738 
L 813.309456 -246.612312 
L 815.60023 -209.200633 
L 817.891004 -196.453282 
L 820.181778 -179.233835 
L 822.472552 -161.692085 
L 824.763327 -174.303244 
L 827.054101 -169.240414 
L 829.344875 -181.408082 
L 831.635649 -156.989825 
L 833.926424 -183.26442 
L 836.217198 -250.668757 
L 838.507972 -215.487109 
L 840.798746 -188.328857 
L 843.08952 -170.965 
L 845.380295 -162.913585 
L 847.671069 -153.242341 
L 849.961843 -157.771724 
L 852.252617 -157.567725 
L 854.543392 -157.508481 
L 856.834166 -158.283581 
L 859.12494 -153.959315 
L 861.415714 -146.093369 
L 863.706489 -139.921757 
L 865.997263 -150.890457 
L 868.288037 -131.360366 
L 870.578811 -128.037717 
L 872.869585 -124.428656 
L 875.16036 -120.550845 
L 877.451134 -115.635458 
L 879.741908 -111.717591 
L 882.032682 -154.98627 
L 884.323457 -140.196503 
L 886.614231 -147.392056 
L 888.905005 -157.661958 
L 891.195779 -159.118218 
L 893.486553 -162.293289 
L 895.777328 -152.633704 
L 898.068102 -148.661082 
L 900.358876 -160.052159 
L 902.64965 -157.122368 
L 904.940425 -167.833552 
L 907.231199 -160.476428 
L 909.521973 -149.011096 
L 911.812747 -144.450757 
L 914.103521 -145.861628 
L 916.394296 -154.899159 
L 918.68507 -157.381051 
L 920.975844 -160.413332 
L 923.266618 -159.99679 
L 925.557393 -160.626531 
L 927.848167 -159.779374 
L 930.138941 -160.246311 
L 932.429715 -161.824542 
L 934.72049 -152.853372 
L 937.011264 -155.816755 
L 939.302038 -158.657241 
L 941.592812 -159.429163 
L 943.883586 -157.178346 
L 946.174361 -158.28994 
L 948.465135 -168.798418 
L 950.755909 -163.234787 
L 950.755909 -210.738486 
L 950.755909 -210.738486 
L 948.465135 -237.952729 
L 946.174361 -199.711615 
L 943.883586 -208.977317 
L 941.592812 -215.77334 
L 939.302038 -206.045053 
L 937.011264 -202.519796 
L 934.72049 -206.062625 
L 932.429715 -210.80032 
L 930.138941 -206.17137 
L 927.848167 -213.333158 
L 925.557393 -212.473858 
L 923.266618 -217.382433 
L 920.975844 -219.823312 
L 918.68507 -209.593327 
L 916.394296 -199.974088 
L 914.103521 -188.90278 
L 911.812747 -190.048683 
L 909.521973 -194.222886 
L 907.231199 -217.595439 
L 904.940425 -226.700561 
L 902.64965 -208.810569 
L 900.358876 -207.354897 
L 898.068102 -185.944823 
L 895.777328 -192.141576 
L 893.486553 -212.598779 
L 891.195779 -215.827169 
L 888.905005 -210.366573 
L 886.614231 -196.411403 
L 884.323457 -201.410209 
L 882.032682 -223.461984 
L 879.741908 -133.383961 
L 877.451134 -149.583273 
L 875.16036 -153.643499 
L 872.869585 -163.887198 
L 870.578811 -174.213876 
L 868.288037 -166.517373 
L 865.997263 -195.96248 
L 863.706489 -181.664412 
L 861.415714 -188.100452 
L 859.12494 -200.179864 
L 856.834166 -204.578194 
L 854.543392 -211.332736 
L 852.252617 -198.681832 
L 849.961843 -229.480126 
L 847.671069 -196.960654 
L 845.380295 -205.867396 
L 843.08952 -227.722528 
L 840.798746 -270.115389 
L 838.507972 -308.400428 
L 836.217198 -392.454263 
L 833.926424 -264.698575 
L 831.635649 -209.451574 
L 829.344875 -256.095364 
L 827.054101 -236.051601 
L 824.763327 -272.865895 
L 822.472552 -237.795507 
L 820.181778 -269.388183 
L 817.891004 -273.597584 
L 815.60023 -298.552622 
L 813.309456 -347.05239 
L 811.018681 -242.21642 
L 808.727907 -192.992036 
L 806.437133 -203.622962 
L 804.146359 -230.761989 
L 801.855584 -255.06463 
L 799.56481 -234.694357 
L 797.274036 -231.509534 
L 794.983262 -253.579273 
L 792.692488 -233.217144 
L 790.401713 -229.447822 
L 788.110939 -279.063148 
L 785.820165 -237.807996 
L 783.529391 -217.944063 
L 781.238616 -239.033456 
L 778.947842 -230.236988 
L 776.657068 -228.507241 
L 774.366294 -228.662928 
L 772.075519 -232.049226 
L 769.784745 -259.551944 
L 767.493971 -233.52076 
L 765.203197 -233.485163 
L 762.912423 -253.877203 
L 760.621648 -256.695434 
L 758.330874 -287.021137 
L 756.0401 -243.645229 
L 753.749326 -239.055744 
L 751.458551 -227.95467 
L 749.167777 -226.800618 
L 746.877003 -232.221706 
L 744.586229 -223.93776 
L 742.295455 -243.564414 
L 740.00468 -250.865759 
L 737.713906 -249.284656 
L 735.423132 -260.235605 
L 733.132358 -263.533533 
L 730.841583 -298.742094 
L 728.550809 -257.692158 
L 726.260035 -280.943637 
L 723.969261 -276.785674 
L 721.678487 -282.606046 
L 719.387712 -247.43623 
L 717.096938 -232.049738 
L 714.806164 -254.449002 
L 712.51539 -234.656042 
L 710.224615 -288.905715 
L 707.933841 -278.539785 
L 705.643067 -245.996621 
L 703.352293 -273.048318 
L 701.061518 -259.36825 
L 698.770744 -248.960341 
L 696.47997 -251.772798 
L 694.189196 -289.521039 
L 691.898422 -272.986082 
L 689.607647 -310.119426 
L 687.316873 -306.15673 
L 685.026099 -307.24431 
L 682.735325 -289.113196 
L 680.44455 -262.533761 
L 678.153776 -266.314605 
L 675.863002 -275.23071 
L 673.572228 -264.267195 
L 671.281454 -251.731788 
L 668.990679 -271.528131 
L 666.699905 -305.892568 
L 664.409131 -254.645719 
L 662.118357 -250.821172 
L 659.827582 -275.085847 
L 657.536808 -250.741778 
L 655.246034 -243.939776 
L 652.95526 -240.481476 
L 650.664486 -264.574167 
L 648.373711 -253.464298 
L 646.082937 -234.70645 
L 643.792163 -280.049483 
L 641.501389 -263.077448 
L 639.210614 -230.836734 
L 636.91984 -288.894273 
L 634.629066 -259.121719 
L 632.338292 -232.955488 
L 630.047517 -228.944513 
L 627.756743 -236.19458 
L 625.465969 -223.966509 
L 623.175195 -239.168395 
L 620.884421 -232.169702 
L 618.593646 -266.12551 
L 616.302872 -225.440194 
L 614.012098 -244.276993 
L 611.721324 -224.674536 
L 609.430549 -258.266905 
L 607.139775 -228.055424 
L 604.849001 -269.333962 
L 602.558227 -232.591126 
L 600.267453 -231.834526 
L 597.976678 -244.050029 
L 595.685904 -231.678799 
L 593.39513 -221.949652 
L 591.104356 -225.960234 
L 588.813581 -253.733717 
L 586.522807 -249.311352 
L 584.232033 -232.301849 
L 581.941259 -237.113427 
L 579.650485 -234.385384 
L 577.35971 -252.764422 
L 575.068936 -257.249156 
L 572.778162 -242.011176 
L 570.487388 -242.958998 
L 568.196613 -236.534486 
L 565.905839 -252.656618 
L 563.615065 -254.037568 
L 561.324291 -250.489689 
L 559.033516 -245.893313 
L 556.742742 -261.340179 
L 554.451968 -245.041643 
L 552.161194 -247.290446 
L 549.87042 -242.314555 
L 547.579645 -231.261768 
L 545.288871 -228.623119 
L 542.998097 -242.268438 
L 540.707323 -244.671511 
L 538.416548 -250.178105 
L 536.125774 -233.44222 
L 533.835 -255.527991 
L 531.544226 -238.496966 
L 529.253452 -226.913509 
L 526.962677 -232.180682 
L 524.671903 -245.934835 
L 522.381129 -233.933967 
L 520.090355 -266.824401 
L 517.79958 -241.822603 
L 515.508806 -246.116447 
L 513.218032 -287.008183 
L 510.927258 -247.585067 
L 508.636484 -244.206126 
L 506.345709 -307.944633 
L 504.054935 -332.452218 
L 501.764161 -450.006414 
L 499.473387 -294.462788 
L 497.182612 -333.203071 
L 494.891838 -311.015522 
L 492.601064 -244.01908 
L 490.31029 -263.805987 
L 488.019515 -270.6288 
L 485.728741 -277.65818 
L 483.437967 -244.413221 
L 481.147193 -243.859862 
L 478.856419 -246.088972 
L 476.565644 -300.393324 
L 474.27487 -236.918544 
L 471.984096 -246.207953 
L 469.693322 -261.073815 
L 467.402547 -280.690695 
L 465.111773 -298.029041 
L 462.820999 -394.300545 
L 460.530225 -233.057491 
L 458.239451 -202.931431 
L 455.948676 -219.840862 
L 453.657902 -225.230467 
L 451.367128 -225.445468 
L 449.076354 -244.121921 
L 446.785579 -274.40431 
L 444.494805 -237.010203 
L 442.204031 -264.944233 
L 439.913257 -283.501065 
L 437.622483 -277.027091 
L 435.331708 -256.136389 
L 433.040934 -310.40741 
L 430.75016 -266.287525 
L 428.459386 -321.220276 
L 426.168611 -286.331634 
L 423.877837 -234.422065 
L 421.587063 -263.07887 
L 419.296289 -291.047156 
L 417.005514 -281.250997 
L 414.71474 -286.947683 
L 412.423966 -267.680162 
L 410.133192 -274.229192 
L 407.842418 -281.428908 
L 405.551643 -254.901975 
L 403.260869 -282.660368 
L 400.970095 -272.002201 
L 398.679321 -261.598031 
L 396.388546 -244.033669 
L 394.097772 -222.962939 
L 391.806998 -223.199663 
L 389.516224 -237.663089 
L 387.22545 -234.531363 
L 384.934675 -305.052897 
L 382.643901 -335.319718 
L 380.353127 -368.240901 
L 378.062353 -396.483727 
L 375.771578 -328.228875 
L 373.480804 -294.068178 
L 371.19003 -269.546003 
L 368.899256 -258.680099 
L 366.608482 -242.201675 
L 364.317707 -288.393629 
L 362.026933 -299.490724 
L 359.736159 -276.195946 
L 357.445385 -230.739422 
L 355.15461 -295.503017 
L 352.863836 -296.927476 
L 350.573062 -245.013657 
L 348.282288 -308.226338 
L 345.991513 -282.878093 
L 343.700739 -309.826161 
L 341.409965 -282.924167 
L 339.119191 -263.877288 
L 336.828417 -257.944548 
L 334.537642 -254.214381 
L 332.246868 -242.820227 
L 329.956094 -246.90553 
L 327.66532 -228.653817 
L 325.374545 -234.432252 
L 323.083771 -240.93949 
L 320.792997 -228.104213 
L 318.502223 -244.320174 
L 316.211449 -271.843326 
L 313.920674 -271.955918 
L 311.6299 -226.293377 
L 309.339126 -230.992346 
L 307.048352 -219.774961 
L 304.757577 -217.788558 
L 302.466803 -258.306453 
L 300.176029 -256.802119 
L 297.885255 -253.671558 
L 295.594481 -237.019884 
L 293.303706 -254.41604 
L 291.012932 -265.667458 
L 288.722158 -265.44581 
L 286.431384 -274.417807 
L 284.140609 -258.259401 
L 281.849835 -294.471921 
L 279.559061 -244.026889 
L 277.268287 -245.076765 
L 274.977512 -256.723611 
L 272.686738 -248.043299 
L 270.395964 -280.228342 
L 268.10519 -291.83904 
L 265.814416 -242.684462 
L 263.523641 -263.291296 
L 261.232867 -280.060514 
L 258.942093 -280.407967 
L 256.651319 -231.804235 
L 254.360544 -270.329455 
L 252.06977 -285.519467 
L 249.778996 -239.73013 
L 247.488222 -248.996324 
L 245.197448 -258.859146 
L 242.906673 -241.467123 
L 240.615899 -237.237885 
L 238.325125 -276.736066 
L 236.034351 -259.862261 
L 233.743576 -259.031983 
L 231.452802 -240.304818 
L 229.162028 -277.78515 
L 226.871254 -267.194143 
L 224.58048 -280.175235 
L 222.289705 -252.484549 
L 219.998931 -239.464122 
L 217.708157 -255.807548 
L 215.417383 -247.538849 
L 213.126608 -241.338362 
L 210.835834 -276.292467 
L 208.54506 -228.16901 
L 206.254286 -281.384389 
L 203.963511 -234.013047 
L 201.672737 -284.094007 
L 199.381963 -213.073416 
L 197.091189 -215.037332 
L 194.800415 -196.965502 
L 192.50964 -214.290356 
L 190.218866 -201.929102 
L 187.928092 -199.456177 
L 185.637318 -124.906355 
L 183.346543 -225.620314 
L 181.055769 -293.232271 
L 178.764995 -292.452385 
L 176.474221 -295.943095 
L 174.183447 -308.78623 
L 171.892672 -295.444514 
L 169.601898 -286.727932 
L 167.311124 -292.366207 
L 165.02035 -331.546649 
L 162.729575 -285.520775 
L 160.438801 -314.191115 
L 158.148027 -293.62667 
L 155.857253 -276.4718 
L 153.566479 -284.432773 
L 151.275704 -277.263205 
L 148.98493 -264.222978 
L 146.694156 -277.371473 
L 144.403382 -277.249039 
L 142.112607 -299.409488 
L 139.821833 -289.676964 
L 137.531059 -326.799338 
L 135.240285 -240.635187 
L 132.94951 -236.442599 
L 130.658736 -256.899243 
L 128.367962 -275.547029 
L 126.077188 -265.897302 
L 123.786414 -280.690453 
L 121.495639 -266.845477 
L 119.204865 -294.569321 
L 116.914091 -287.356673 
z
" style="stroke: #2d1e3e; stroke-opacity: 0.2"/>
    </defs>
    <g clip-path="url(#pad3ef7185b)">
     <use xlink:href="#m6d894d67d5" x="0" y="576" style="fill: #2d1e3e; fill-opacity: 0.2; stroke: #2d1e3e; stroke-opacity: 0.2"/>
    </g>
   </g>
   <g id="line2d_47">
    <path d="M 116.914091 367.042647 
L 119.204865 369.087646 
L 121.495639 405.203864 
L 123.786414 392.892217 
L 126.077188 392.575889 
L 128.367962 383.864458 
L 130.658736 395.738348 
L 132.94951 365.199047 
L 135.240285 393.780416 
L 137.531059 394.592635 
L 139.821833 406.573031 
L 142.112607 374.39915 
L 144.403382 405.445342 
L 146.694156 393.288803 
L 148.98493 387.721391 
L 151.275704 390.496459 
L 153.566479 401.646021 
L 155.857253 385.162005 
L 158.148027 414.617175 
L 160.438801 365.483684 
L 162.729575 383.284949 
L 165.02035 383.177882 
L 167.311124 384.79593 
L 169.601898 368.351084 
L 171.892672 380.194226 
L 174.183447 390.665565 
L 176.474221 397.088604 
L 178.764995 387.930384 
L 181.055769 382.171363 
L 183.346543 382.583028 
L 185.637318 377.365749 
L 187.928092 385.831619 
L 190.218866 368.490959 
L 192.50964 377.218379 
L 194.800415 377.154304 
L 197.091189 369.79912 
L 199.381963 371.065046 
L 201.672737 369.250616 
L 203.963511 368.669587 
L 206.254286 376.558035 
L 208.54506 381.086785 
L 210.835834 469.749017 
L 213.126608 417.347982 
L 215.417383 414.773527 
L 217.708157 399.081504 
L 219.998931 384.724595 
L 222.289705 380.0297 
L 224.58048 399.545508 
L 226.871254 391.302627 
L 229.162028 385.442098 
L 231.452802 384.081419 
L 233.743576 388.027024 
L 236.034351 404.919773 
L 238.325125 386.672343 
L 240.615899 398.613589 
L 242.906673 398.420758 
L 245.197448 410.526336 
L 247.488222 393.304909 
L 249.778996 401.012328 
L 252.06977 389.178262 
L 254.360544 398.909783 
L 256.651319 394.116751 
L 258.942093 395.64015 
L 261.232867 388.143521 
L 263.523641 393.018689 
L 265.814416 400.317467 
L 268.10519 370.314749 
L 270.395964 388.315626 
L 272.686738 408.321217 
L 274.977512 413.167209 
L 277.268287 394.703738 
L 279.559061 403.506124 
L 281.849835 400.690615 
L 284.140609 407.684813 
L 286.431384 398.139731 
L 288.722158 402.251684 
L 291.012932 388.889946 
L 293.303706 391.770174 
L 295.594481 388.724689 
L 297.885255 409.710887 
L 300.176029 396.307349 
L 302.466803 390.106706 
L 304.757577 403.781095 
L 307.048352 388.776617 
L 309.339126 401.308154 
L 311.6299 410.536264 
L 313.920674 389.269674 
L 316.211449 392.834734 
L 318.502223 395.746647 
L 320.792997 401.088761 
L 323.083771 408.37131 
L 325.374545 403.44742 
L 327.66532 395.493059 
L 329.956094 407.920362 
L 332.246868 395.192958 
L 334.537642 392.512798 
L 336.828417 393.634817 
L 339.119191 382.754987 
L 341.409965 392.858343 
L 343.700739 392.745118 
L 345.991513 400.542338 
L 348.282288 402.589111 
L 350.573062 400.910804 
L 352.863836 394.697884 
L 355.15461 401.345406 
L 357.445385 388.89068 
L 359.736159 393.130223 
L 362.026933 399.747763 
L 364.317707 401.541808 
L 366.608482 388.755317 
L 368.899256 394.586395 
L 371.19003 386.220261 
L 373.480804 401.6069 
L 375.771578 396.02267 
L 378.062353 379.148301 
L 380.353127 391.658416 
L 382.643901 395.39114 
L 384.934675 385.737711 
L 387.22545 401.162814 
L 389.516224 404.200749 
L 391.806998 403.018033 
L 394.097772 420.148541 
L 396.388546 418.36578 
L 398.679321 406.471313 
L 400.970095 411.459766 
L 403.260869 381.813359 
L 405.551643 380.394107 
L 407.842418 390.31746 
L 410.133192 389.949807 
L 412.423966 362.99547 
L 414.71474 376.402466 
L 417.005514 397.148182 
L 419.296289 394.913853 
L 421.587063 395.423932 
L 423.877837 382.043273 
L 426.168611 400.06407 
L 428.459386 379.247278 
L 430.75016 374.151612 
L 433.040934 377.369071 
L 435.331708 386.029144 
L 437.622483 383.979695 
L 439.913257 389.821827 
L 442.204031 380.855833 
L 444.494805 366.283648 
L 446.785579 367.668395 
L 449.076354 386.191371 
L 451.367128 400.667758 
L 453.657902 399.602893 
L 455.948676 388.121585 
L 458.239451 408.973256 
L 460.530225 388.697971 
L 462.820999 223.131002 
L 465.111773 333.779266 
L 467.402547 325.21163 
L 469.693322 376.991951 
L 471.984096 362.099629 
L 474.27487 359.919755 
L 476.565644 364.179909 
L 478.856419 348.508872 
L 481.147193 370.794187 
L 483.437967 385.47513 
L 485.728741 387.488181 
L 488.019515 382.272952 
L 490.31029 371.807177 
L 492.601064 382.22334 
L 494.891838 383.923984 
L 497.182612 328.501188 
L 499.473387 356.038195 
L 501.764161 164.268923 
L 504.054935 297.758669 
L 506.345709 368.757267 
L 508.636484 387.928913 
L 510.927258 400.256439 
L 513.218032 399.34192 
L 515.508806 397.448962 
L 520.090355 414.545788 
L 522.381129 399.59188 
L 524.671903 392.873522 
L 526.962677 402.78496 
L 529.253452 392.036703 
L 531.544226 392.554522 
L 533.835 382.584327 
L 536.125774 389.931119 
L 538.416548 381.660605 
L 540.707323 391.102218 
L 542.998097 393.000201 
L 545.288871 387.722043 
L 549.87042 398.758297 
L 552.161194 393.476134 
L 556.742742 394.463106 
L 559.033516 378.519498 
L 561.324291 400.977855 
L 563.615065 403.899068 
L 565.905839 405.218107 
L 568.196613 407.1929 
L 570.487388 416.763791 
L 572.778162 407.84322 
L 575.068936 411.49365 
L 577.35971 403.534216 
L 579.650485 413.267861 
L 581.941259 407.799092 
L 584.232033 411.469167 
L 586.522807 413.887276 
L 588.813581 407.979139 
L 591.104356 400.942664 
L 593.39513 405.249507 
L 595.685904 408.427168 
L 597.976678 402.854003 
L 600.267453 402.148797 
L 602.558227 412.739144 
L 604.849001 404.377983 
L 607.139775 403.573073 
L 609.430549 388.287207 
L 611.721324 393.85989 
L 614.012098 405.49885 
L 616.302872 403.484794 
L 618.593646 398.526637 
L 620.884421 407.996396 
L 623.175195 397.59603 
L 625.465969 406.304752 
L 627.756743 396.556427 
L 630.047517 389.06389 
L 632.338292 402.387647 
L 634.629066 392.611252 
L 636.91984 403.805676 
L 639.210614 399.927618 
L 641.501389 396.730696 
L 643.792163 408.825455 
L 646.082937 401.501461 
L 648.373711 403.122146 
L 650.664486 407.462701 
L 652.95526 395.001898 
L 655.246034 403.743958 
L 657.536808 388.75876 
L 659.827582 384.89724 
L 662.118357 386.089516 
L 664.409131 376.157019 
L 666.699905 379.049551 
L 668.990679 382.142291 
L 671.281454 382.405724 
L 673.572228 362.67223 
L 675.863002 368.316413 
L 678.153776 386.445326 
L 680.44455 381.176037 
L 682.735325 400.724874 
L 685.026099 375.546253 
L 687.316873 397.064562 
L 689.607647 384.223009 
L 691.898422 341.468873 
L 694.189196 380.611926 
L 696.47997 388.634358 
L 698.770744 381.540977 
L 701.061518 369.728468 
L 705.643067 383.988461 
L 707.933841 366.846898 
L 710.224615 377.781302 
L 712.51539 377.951688 
L 714.806164 374.617879 
L 717.096938 385.584574 
L 719.387712 402.84667 
L 721.678487 382.570574 
L 723.969261 379.908305 
L 726.260035 378.388764 
L 728.550809 392.233341 
L 730.841583 379.427441 
L 733.132358 390.547797 
L 735.423132 375.982892 
L 737.713906 389.217545 
L 740.00468 403.460707 
L 742.295455 394.560488 
L 744.586229 406.631877 
L 746.877003 408.185625 
L 749.167777 412.279342 
L 751.458551 413.189347 
L 753.749326 386.724104 
L 756.0401 412.237366 
L 758.330874 382.774006 
L 760.621648 390.420673 
L 762.912423 390.827302 
L 765.203197 386.260488 
L 767.493971 395.184583 
L 769.784745 394.887656 
L 772.075519 398.34566 
L 774.366294 382.061017 
L 776.657068 395.116777 
L 778.947842 398.96166 
L 781.238616 384.573199 
L 783.529391 374.882702 
L 785.820165 341.882711 
L 788.110939 350.643519 
L 790.401713 334.01917 
L 792.692488 351.076173 
L 794.983262 373.526221 
L 797.274036 363.391262 
L 799.56481 357.814186 
L 801.855584 356.981814 
L 804.146359 358.142369 
L 806.437133 376.334862 
L 808.727907 382.53715 
L 811.018681 363.177984 
L 813.309456 267.71673 
L 815.60023 294.062824 
L 817.891004 273.971243 
L 820.181778 257.189735 
L 822.472552 312.753108 
L 824.763327 325.989651 
L 827.054101 354.49197 
L 829.344875 312.844922 
L 831.635649 347.164323 
L 833.926424 383.265363 
L 836.217198 211.240965 
L 838.507972 297.186267 
L 843.08952 340.939871 
L 845.380295 374.745968 
L 847.671069 394.793441 
L 849.961843 375.162294 
L 852.252617 377.980775 
L 854.543392 365.903384 
L 856.834166 373.051798 
L 859.12494 377.350027 
L 861.415714 355.029253 
L 863.706489 371.679424 
L 865.997263 374.660573 
L 868.288037 388.802077 
L 870.578811 382.820771 
L 872.869585 375.801317 
L 875.16036 367.888463 
L 877.451134 361.885763 
L 879.741908 373.392221 
L 882.032682 365.626662 
L 884.323457 376.157852 
L 886.614231 366.165227 
L 888.905005 367.033688 
L 891.195779 378.484907 
L 893.486553 379.064012 
L 895.777328 361.256833 
L 898.068102 374.700919 
L 900.358876 370.290507 
L 902.64965 348.896172 
L 904.940425 330.923757 
L 907.231199 221.056512 
L 909.521973 331.186254 
L 911.812747 369.194969 
L 914.103521 368.434379 
L 916.394296 368.412068 
L 918.68507 382.615789 
L 920.975844 355.030335 
L 923.266618 364.326709 
L 925.557393 370.695495 
L 927.848167 351.04879 
L 930.138941 362.849176 
L 932.429715 361.36866 
L 934.72049 351.870734 
L 937.011264 374.165792 
L 939.302038 360.912328 
L 941.592812 374.614687 
L 943.883586 356.474163 
L 946.174361 355.520942 
L 948.465135 358.149914 
L 950.755909 358.426454 
L 950.755909 358.426454 
" clip-path="url(#pad3ef7185b)" style="fill: none; stroke: #edd1cb; stroke-width: 1.5; stroke-linecap: round"/>
   </g>
   <g id="line2d_48">
    <path d="M 116.914091 346.458489 
L 119.204865 344.467489 
L 121.495639 368.793011 
L 123.786414 355.196456 
L 126.077188 364.35061 
L 128.367962 356.346453 
L 130.658736 363.477086 
L 132.94951 375.908267 
L 135.240285 372.665853 
L 137.531059 311.358929 
L 139.821833 341.408587 
L 142.112607 340.938274 
L 144.403382 353.124562 
L 146.694156 357.956741 
L 148.98493 358.096614 
L 151.275704 344.726423 
L 153.566479 347.892621 
L 155.857253 347.385078 
L 158.148027 331.201309 
L 160.438801 323.567719 
L 162.729575 340.581358 
L 165.02035 316.78245 
L 167.311124 333.317532 
L 169.601898 338.536629 
L 171.892672 329.273266 
L 174.183447 333.714629 
L 176.474221 342.413461 
L 178.764995 343.520305 
L 181.055769 339.999591 
L 183.346543 392.928841 
L 185.637318 462.857493 
L 187.928092 407.358779 
L 190.218866 406.592927 
L 192.50964 397.778256 
L 194.800415 407.10235 
L 197.091189 394.408429 
L 199.381963 395.956437 
L 201.672737 357.006558 
L 203.963511 379.832486 
L 206.254286 354.283026 
L 208.54506 379.449766 
L 210.835834 358.184984 
L 213.126608 373.993162 
L 215.417383 380.491457 
L 217.708157 363.209308 
L 219.998931 376.257896 
L 222.289705 371.826889 
L 224.58048 362.060875 
L 226.871254 361.894436 
L 229.162028 345.420032 
L 231.452802 372.708819 
L 233.743576 362.248434 
L 236.034351 358.037537 
L 238.325125 359.289247 
L 240.615899 376.97081 
L 242.906673 372.764014 
L 245.197448 359.102658 
L 247.488222 367.545092 
L 249.778996 373.891229 
L 252.06977 351.811803 
L 254.360544 362.036305 
L 256.651319 376.766982 
L 258.942093 348.422464 
L 261.232867 341.81591 
L 263.523641 363.427733 
L 265.814416 368.614516 
L 268.10519 340.964555 
L 270.395964 349.5922 
L 272.686738 369.316698 
L 274.977512 367.025068 
L 277.268287 367.061954 
L 279.559061 365.924959 
L 281.849835 345.264939 
L 284.140609 361.935212 
L 286.431384 355.178494 
L 288.722158 369.592047 
L 291.012932 363.138863 
L 293.303706 362.229993 
L 295.594481 375.060524 
L 297.885255 366.097696 
L 300.176029 361.414866 
L 302.466803 365.963987 
L 304.757577 389.225602 
L 307.048352 386.73067 
L 309.339126 379.868863 
L 311.6299 384.091156 
L 313.920674 362.707801 
L 316.211449 362.80784 
L 318.502223 376.871625 
L 320.792997 382.919407 
L 323.083771 372.96083 
L 327.66532 384.14838 
L 329.956094 373.625967 
L 332.246868 371.823621 
L 334.537642 364.022149 
L 336.828417 362.355384 
L 339.119191 357.841494 
L 341.409965 337.597658 
L 343.700739 333.515798 
L 345.991513 345.439615 
L 348.282288 336.507076 
L 350.573062 370.948752 
L 352.863836 342.100263 
L 355.15461 341.76165 
L 357.445385 383.352038 
L 359.736159 353.928503 
L 362.026933 332.237494 
L 364.317707 343.823116 
L 366.608482 368.942548 
L 368.899256 357.25931 
L 371.19003 352.627583 
L 373.480804 329.8296 
L 375.771578 304.723825 
L 378.062353 259.729193 
L 380.353127 271.235556 
L 384.934675 338.635925 
L 387.22545 382.816482 
L 389.516224 378.123562 
L 391.806998 387.755053 
L 394.097772 384.852861 
L 396.388546 369.561665 
L 398.679321 358.730074 
L 400.970095 358.828498 
L 403.260869 344.694911 
L 405.551643 363.521914 
L 407.842418 356.821138 
L 410.133192 344.394198 
L 412.423966 348.076053 
L 414.71474 340.262289 
L 417.005514 340.7442 
L 419.296289 338.533911 
L 421.587063 363.721158 
L 423.877837 375.274582 
L 426.168611 353.796332 
L 428.459386 327.155615 
L 430.75016 359.174252 
L 433.040934 338.496475 
L 435.331708 361.939812 
L 437.622483 347.871886 
L 439.913257 343.966348 
L 442.204031 361.032063 
L 444.494805 376.377524 
L 446.785579 358.95184 
L 451.367128 381.075725 
L 453.657902 380.664928 
L 455.948676 390.231399 
L 458.239451 399.26921 
L 460.530225 376.673498 
L 462.820999 257.693281 
L 465.111773 335.057052 
L 467.402547 340.373261 
L 469.693322 361.14521 
L 471.984096 369.270279 
L 474.27487 369.839041 
L 476.565644 332.881387 
L 478.856419 361.331183 
L 481.147193 366.056598 
L 483.437967 363.997924 
L 485.728741 349.185052 
L 488.019515 350.641474 
L 490.31029 349.660833 
L 492.601064 367.890414 
L 494.891838 323.209779 
L 497.182612 296.214824 
L 499.473387 329.018325 
L 501.764161 207.37454 
L 504.054935 302.843867 
L 506.345709 322.208955 
L 508.636484 368.937608 
L 510.927258 367.49135 
L 513.218032 350.884742 
L 515.508806 368.479957 
L 517.79958 369.320799 
L 520.090355 358.061319 
L 522.381129 374.340663 
L 524.671903 368.177295 
L 526.962677 377.951053 
L 529.253452 381.715939 
L 531.544226 372.636459 
L 533.835 360.025279 
L 536.125774 375.413119 
L 538.416548 363.305201 
L 540.707323 370.712497 
L 542.998097 369.975797 
L 545.288871 380.530304 
L 547.579645 374.775433 
L 549.87042 366.626456 
L 552.161194 369.765527 
L 554.451968 367.315689 
L 556.742742 363.136663 
L 559.033516 365.481522 
L 561.324291 359.964534 
L 563.615065 359.822767 
L 565.905839 360.023492 
L 568.196613 373.834296 
L 570.487388 369.967275 
L 572.778162 370.260129 
L 575.068936 360.200763 
L 577.35971 360.928682 
L 579.650485 377.912578 
L 581.941259 373.548198 
L 584.232033 377.32479 
L 586.522807 361.671683 
L 588.813581 362.257145 
L 591.104356 382.005911 
L 593.39513 387.595155 
L 595.685904 380.571921 
L 597.976678 369.428896 
L 600.267453 377.724011 
L 602.558227 374.348644 
L 604.849001 352.84018 
L 607.139775 379.156406 
L 609.430549 362.773495 
L 611.721324 383.515516 
L 614.012098 371.016766 
L 616.302872 384.733606 
L 618.593646 357.990649 
L 620.884421 376.012766 
L 623.175195 373.283976 
L 625.465969 380.601002 
L 627.756743 376.796096 
L 630.047517 380.367252 
L 632.338292 379.166393 
L 634.629066 359.787831 
L 636.91984 351.887503 
L 639.210614 379.24932 
L 641.501389 359.386704 
L 643.792163 357.647729 
L 646.082937 378.887735 
L 648.373711 364.388834 
L 650.664486 354.99669 
L 652.95526 368.603155 
L 655.246034 370.641256 
L 657.536808 363.753326 
L 659.827582 352.11233 
L 662.118357 366.33202 
L 664.409131 361.530547 
L 666.699905 336.150004 
L 671.281454 360.579671 
L 673.572228 352.310927 
L 675.863002 345.749757 
L 678.153776 350.85491 
L 680.44455 355.429858 
L 682.735325 336.798093 
L 685.026099 336.469506 
L 687.316873 321.550576 
L 689.607647 322.000209 
L 691.898422 343.49386 
L 694.189196 349.698963 
L 696.47997 367.093929 
L 698.770744 364.526606 
L 701.061518 358.17501 
L 703.352293 355.003959 
L 705.643067 366.178246 
L 707.933841 356.324381 
L 710.224615 339.603633 
L 712.51539 378.143147 
L 714.806164 361.099054 
L 717.096938 376.854526 
L 719.387712 362.856677 
L 721.678487 345.177919 
L 723.969261 351.211012 
L 726.260035 358.101655 
L 728.550809 361.22542 
L 730.841583 343.741074 
L 733.132358 356.091574 
L 735.423132 354.36242 
L 737.713906 363.276712 
L 740.00468 365.199191 
L 742.295455 368.300805 
L 744.586229 386.72453 
L 746.877003 378.461365 
L 749.167777 383.917161 
L 751.458551 380.023012 
L 753.749326 378.343519 
L 756.0401 367.293061 
L 758.330874 346.579047 
L 760.621648 362.197938 
L 762.912423 362.736048 
L 765.203197 376.153072 
L 767.493971 375.60058 
L 769.784745 365.975235 
L 772.075519 378.790479 
L 774.366294 381.252235 
L 776.657068 381.461898 
L 778.947842 381.391745 
L 781.238616 372.844731 
L 783.529391 388.709552 
L 785.820165 372.213852 
L 788.110939 346.944714 
L 790.401713 378.365123 
L 792.692488 386.147419 
L 794.983262 369.289153 
L 797.274036 377.841305 
L 799.56481 375.738268 
L 801.855584 368.417392 
L 804.146359 378.130863 
L 806.437133 399.313404 
L 808.727907 406.042648 
L 811.018681 371.011666 
L 813.309456 282.041058 
L 815.60023 325.262088 
L 817.891004 344.386208 
L 820.181778 357.321279 
L 822.472552 381.741399 
L 824.763327 360.598451 
L 827.054101 374.95335 
L 829.344875 361.261462 
L 831.635649 393.394924 
L 833.926424 356.764555 
L 836.217198 267.630737 
L 838.507972 317.806412 
L 840.798746 350.540734 
L 843.08952 379.491804 
L 845.380295 393.216687 
L 847.671069 401.721693 
L 849.961843 385.897645 
L 852.252617 400.196708 
L 854.543392 394.530539 
L 856.834166 395.769007 
L 859.12494 399.589187 
L 861.415714 410.066947 
L 863.706489 416.461843 
L 865.997263 404.322134 
L 868.288037 427.586878 
L 870.578811 428.195111 
L 872.869585 432.504188 
L 875.16036 440.071164 
L 877.451134 446.009051 
L 879.741908 453.902678 
L 882.032682 389.556497 
L 884.323457 407.79844 
L 886.614231 405.752962 
L 888.905005 394.060195 
L 891.195779 392.510867 
L 893.486553 390.692425 
L 895.777328 404.406865 
L 898.068102 409.25984 
L 900.358876 392.595886 
L 902.64965 394.685661 
L 904.940425 380.827 
L 907.231199 389.588191 
L 909.521973 406.136395 
L 911.812747 410.166642 
L 914.103521 409.789488 
L 916.394296 399.491916 
L 918.68507 394.982149 
L 920.975844 388.288973 
L 923.266618 388.955433 
L 925.557393 390.42273 
L 927.848167 391.302286 
L 930.138941 393.577238 
L 932.429715 391.380679 
L 934.72049 399.925115 
L 937.011264 397.270226 
L 939.302038 394.055537 
L 941.592812 391.198389 
L 943.883586 396.223299 
L 946.174361 398.177281 
L 948.465135 377.703374 
L 950.755909 391.155224 
L 950.755909 391.155224 
" clip-path="url(#pad3ef7185b)" style="fill: none; stroke: #2d1e3e; stroke-width: 1.5; stroke-linecap: round"/>
   </g>
   <g id="line2d_49"/>
   <g id="line2d_50"/>
   <g id="patch_3">
    <path d="M 75.222 501.03675 
L 75.222 15.552 
" style="fill: none; stroke: #ffffff; stroke-width: 1.25; stroke-linejoin: miter; stroke-linecap: square"/>
   </g>
   <g id="patch_4">
    <path d="M 992.448 501.03675 
L 992.448 15.552 
" style="fill: none; stroke: #ffffff; stroke-width: 1.25; stroke-linejoin: miter; stroke-linecap: square"/>
   </g>
   <g id="patch_5">
    <path d="M 75.222 501.03675 
L 992.448 501.03675 
" style="fill: none; stroke: #ffffff; stroke-width: 1.25; stroke-linejoin: miter; stroke-linecap: square"/>
   </g>
   <g id="patch_6">
    <path d="M 75.222 15.552 
L 992.448 15.552 
" style="fill: none; stroke: #ffffff; stroke-width: 1.25; stroke-linejoin: miter; stroke-linecap: square"/>
   </g>
   <g id="legend_1">
    <g id="patch_7">
     <path d="M 914.568 80.967 
L 983.208 80.967 
Q 985.848 80.967 985.848 78.327 
L 985.848 24.792 
Q 985.848 22.152 983.208 22.152 
L 914.568 22.152 
Q 911.928 22.152 911.928 24.792 
L 911.928 78.327 
Q 911.928 80.967 914.568 80.967 
z
" style="fill: #eaeaf2; opacity: 0.8; stroke: #cccccc; stroke-linejoin: miter"/>
    </g>
    <g id="text_49">
     <!-- 年份 -->
     <g style="fill: #262626" transform="translate(934.488 38.907) scale(0.144 -0.144)">
      <defs>
       <path id="SimHei-5e74" d="M 350 2925 
Q 900 3450 1375 4200 
Q 1850 4950 1900 5275 
Q 2275 5125 2600 5050 
Q 2375 4825 2100 4325 
L 4625 4325 
Q 5175 4325 5750 4350 
L 5750 3925 
Q 5225 3950 4625 3950 
L 3800 3950 
L 3800 2925 
Q 4750 2925 5475 2950 
L 5475 2525 
Q 4725 2550 3800 2550 
L 3800 1375 
L 5075 1375 
Q 5625 1375 6100 1400 
L 6100 975 
Q 5650 1000 5075 1000 
L 3800 1000 
L 3800 425 
Q 3800 -150 3825 -625 
L 3275 -625 
Q 3300 -150 3300 375 
L 3300 1000 
L 1600 1000 
Q 900 1000 275 975 
L 275 1400 
Q 875 1375 1450 1375 
Q 1450 2350 1425 2925 
L 3300 2925 
L 3300 3950 
L 1875 3950 
Q 1350 3150 925 2650 
Q 650 2875 350 2925 
z
M 3300 1375 
L 3300 2550 
L 1925 2550 
L 1925 1375 
L 3300 1375 
z
" transform="scale(0.015625)"/>
       <path id="SimHei-4efd" d="M 4750 5100 
Q 4875 4375 5250 3650 
Q 5625 2925 6200 2450 
Q 6025 2375 5775 2075 
Q 5600 2275 5350 2575 
Q 5300 2275 5275 1312 
Q 5250 350 5187 25 
Q 5125 -300 4850 -400 
Q 4575 -500 4075 -550 
Q 4000 -250 3875 0 
Q 4400 -25 4575 25 
Q 4750 75 4775 587 
Q 4800 1100 4825 2250 
L 3700 2250 
Q 3675 1300 3425 650 
Q 3175 0 2375 -625 
Q 2175 -350 2000 -225 
Q 2750 225 2987 800 
Q 3225 1375 3225 2250 
Q 3000 2250 2675 2225 
L 2675 2575 
Q 2475 2300 2150 1950 
Q 2000 2150 1750 2300 
Q 2875 3275 3225 4875 
Q 3450 4775 3750 4675 
Q 3625 4400 3425 3887 
Q 3225 3375 2775 2700 
Q 3050 2675 3400 2675 
L 5300 2675 
Q 4575 3625 4275 4975 
Q 4575 5025 4750 5100 
z
M 225 2525 
Q 575 2875 1025 3687 
Q 1475 4500 1650 5225 
Q 1975 5075 2200 4975 
Q 2050 4750 1600 3775 
L 1600 625 
Q 1600 75 1625 -575 
L 1100 -575 
Q 1125 50 1125 625 
L 1125 2925 
Q 775 2400 575 2175 
Q 425 2350 225 2525 
z
" transform="scale(0.015625)"/>
      </defs>
      <use xlink:href="#SimHei-5e74"/>
      <use xlink:href="#SimHei-4efd" x="100"/>
     </g>
    </g>
    <g id="line2d_51">
     <path d="M 917.208 51.927 
L 930.408 51.927 
L 943.608 51.927 
" style="fill: none; stroke: #edd1cb; stroke-width: 1.5; stroke-linecap: round"/>
    </g>
    <g id="text_50">
     <!-- 2021 -->
     <g style="fill: #262626" transform="translate(954.168 56.547) scale(0.132 -0.132)">
      <use xlink:href="#SimHei-32"/>
      <use xlink:href="#SimHei-30" x="50"/>
      <use xlink:href="#SimHei-32" x="100"/>
      <use xlink:href="#SimHei-31" x="150"/>
     </g>
    </g>
    <g id="line2d_52">
     <path d="M 917.208 69.417 
L 930.408 69.417 
L 943.608 69.417 
" style="fill: none; stroke: #2d1e3e; stroke-width: 1.5; stroke-linecap: round"/>
    </g>
    <g id="text_51">
     <!-- 2022 -->
     <g style="fill: #262626" transform="translate(954.168 74.037) scale(0.132 -0.132)">
      <use xlink:href="#SimHei-32"/>
      <use xlink:href="#SimHei-30" x="50"/>
      <use xlink:href="#SimHei-32" x="100"/>
      <use xlink:href="#SimHei-32" x="150"/>
     </g>
    </g>
   </g>
  </g>
 </g>
 <defs>
  <clipPath id="pad3ef7185b">
   <rect x="75.222" y="15.552" width="917.226" height="485.48475"/>
  </clipPath>
 </defs>
</svg>
