<?xml version="1.0" encoding="utf-8" standalone="no"?>
<!DOCTYPE svg PUBLIC "-//W3C//DTD SVG 1.1//EN"
  "http://www.w3.org/Graphics/SVG/1.1/DTD/svg11.dtd">
<svg xmlns:xlink="http://www.w3.org/1999/xlink" width="1008pt" height="576pt" viewBox="0 0 1008 576" xmlns="http://www.w3.org/2000/svg" version="1.1">
 <metadata>
  <rdf:RDF xmlns:dc="http://purl.org/dc/elements/1.1/" xmlns:cc="http://creativecommons.org/ns#" xmlns:rdf="http://www.w3.org/1999/02/22-rdf-syntax-ns#">
   <cc:Work>
    <dc:type rdf:resource="http://purl.org/dc/dcmitype/StillImage"/>
    <dc:date>2023-04-14T12:36:37.558449</dc:date>
    <dc:format>image/svg+xml</dc:format>
    <dc:creator>
     <cc:Agent>
      <dc:title>Matplotlib v3.7.1, https://matplotlib.org/</dc:title>
     </cc:Agent>
    </dc:creator>
   </cc:Work>
  </rdf:RDF>
 </metadata>
 <defs>
  <style type="text/css">*{stroke-linejoin: round; stroke-linecap: butt}</style>
 </defs>
 <g id="figure_1">
  <g id="patch_1">
   <path d="M 0 576 
L 1008 576 
L 1008 0 
L 0 0 
z
" style="fill: #ffffff"/>
  </g>
  <g id="axes_1">
   <g id="patch_2">
    <path d="M 75.222 501.03675 
L 992.448 501.03675 
L 992.448 15.552 
L 75.222 15.552 
z
" style="fill: #eaeaf2"/>
   </g>
   <g id="matplotlib.axis_1">
    <g id="xtick_1">
     <g id="text_1">
      <!-- 01-01 -->
      <g style="fill: #262626" transform="translate(120.626591 543.53675) rotate(-90) scale(0.132 -0.132)">
       <defs>
        <path id="SimHei-30" d="M 225 2537 
Q 250 3200 412 3587 
Q 575 3975 875 4225 
Q 1175 4475 1612 4475 
Q 2050 4475 2375 4112 
Q 2700 3750 2800 3200 
Q 2900 2650 2862 1937 
Q 2825 1225 2612 775 
Q 2400 325 1975 150 
Q 1550 -25 1125 187 
Q 700 400 525 750 
Q 350 1100 275 1487 
Q 200 1875 225 2537 
z
M 750 2687 
Q 675 2000 800 1462 
Q 925 925 1212 700 
Q 1500 475 1800 612 
Q 2100 750 2237 1162 
Q 2375 1575 2375 2062 
Q 2375 2550 2337 2950 
Q 2300 3350 2112 3675 
Q 1925 4000 1612 4012 
Q 1300 4025 1062 3700 
Q 825 3375 750 2687 
z
" transform="scale(0.015625)"/>
        <path id="SimHei-31" d="M 1400 3600 
Q 1075 3275 575 2975 
L 575 3450 
Q 1200 3875 1600 4450 
L 1900 4450 
L 1900 150 
L 1400 150 
L 1400 3600 
z
" transform="scale(0.015625)"/>
        <path id="SimHei-2d" d="M 2975 2125 
L 125 2125 
L 125 2525 
L 2975 2525 
L 2975 2125 
z
" transform="scale(0.015625)"/>
       </defs>
       <use xlink:href="#SimHei-30"/>
       <use xlink:href="#SimHei-31" x="50"/>
       <use xlink:href="#SimHei-2d" x="100"/>
       <use xlink:href="#SimHei-30" x="150"/>
       <use xlink:href="#SimHei-31" x="200"/>
      </g>
     </g>
    </g>
    <g id="xtick_2">
     <g id="text_2">
      <!-- 01-11 -->
      <g style="fill: #262626" transform="translate(143.534333 543.53675) rotate(-90) scale(0.132 -0.132)">
       <use xlink:href="#SimHei-30"/>
       <use xlink:href="#SimHei-31" x="50"/>
       <use xlink:href="#SimHei-2d" x="100"/>
       <use xlink:href="#SimHei-31" x="150"/>
       <use xlink:href="#SimHei-31" x="200"/>
      </g>
     </g>
    </g>
    <g id="xtick_3">
     <g id="text_3">
      <!-- 01-21 -->
      <g style="fill: #262626" transform="translate(166.442075 543.53675) rotate(-90) scale(0.132 -0.132)">
       <defs>
        <path id="SimHei-32" d="M 300 250 
Q 325 625 650 925 
Q 975 1225 1475 1862 
Q 1975 2500 2125 2850 
Q 2275 3200 2237 3450 
Q 2200 3700 2000 3862 
Q 1800 4025 1537 4000 
Q 1275 3975 1037 3800 
Q 800 3625 675 3275 
L 200 3350 
Q 400 3925 712 4187 
Q 1025 4450 1450 4475 
Q 1700 4500 1900 4462 
Q 2100 4425 2312 4287 
Q 2525 4150 2662 3875 
Q 2800 3600 2762 3212 
Q 2725 2825 2375 2287 
Q 2025 1750 1025 600 
L 2825 600 
L 2825 150 
L 300 150 
L 300 250 
z
" transform="scale(0.015625)"/>
       </defs>
       <use xlink:href="#SimHei-30"/>
       <use xlink:href="#SimHei-31" x="50"/>
       <use xlink:href="#SimHei-2d" x="100"/>
       <use xlink:href="#SimHei-32" x="150"/>
       <use xlink:href="#SimHei-31" x="200"/>
      </g>
     </g>
    </g>
    <g id="xtick_4">
     <g id="text_4">
      <!-- 01-31 -->
      <g style="fill: #262626" transform="translate(189.349818 543.53675) rotate(-90) scale(0.132 -0.132)">
       <defs>
        <path id="SimHei-33" d="M 250 1225 
L 700 1300 
Q 800 975 1025 762 
Q 1250 550 1587 562 
Q 1925 575 2125 837 
Q 2325 1100 2300 1437 
Q 2275 1775 2037 1962 
Q 1800 2150 1275 2225 
L 1275 2550 
Q 1800 2600 2037 2825 
Q 2275 3050 2250 3412 
Q 2225 3775 1925 3937 
Q 1625 4100 1287 3975 
Q 950 3850 750 3275 
L 300 3350 
Q 450 3800 712 4100 
Q 975 4400 1425 4450 
Q 1875 4500 2212 4337 
Q 2550 4175 2687 3837 
Q 2825 3500 2725 3100 
Q 2625 2700 2150 2400 
Q 2500 2250 2687 1950 
Q 2875 1650 2812 1162 
Q 2750 675 2375 375 
Q 2000 75 1525 87 
Q 1050 100 700 387 
Q 350 675 250 1225 
z
" transform="scale(0.015625)"/>
       </defs>
       <use xlink:href="#SimHei-30"/>
       <use xlink:href="#SimHei-31" x="50"/>
       <use xlink:href="#SimHei-2d" x="100"/>
       <use xlink:href="#SimHei-33" x="150"/>
       <use xlink:href="#SimHei-31" x="200"/>
      </g>
     </g>
    </g>
    <g id="xtick_5">
     <g id="text_5">
      <!-- 02-10 -->
      <g style="fill: #262626" transform="translate(212.25756 543.53675) rotate(-90) scale(0.132 -0.132)">
       <use xlink:href="#SimHei-30"/>
       <use xlink:href="#SimHei-32" x="50"/>
       <use xlink:href="#SimHei-2d" x="100"/>
       <use xlink:href="#SimHei-31" x="150"/>
       <use xlink:href="#SimHei-30" x="200"/>
      </g>
     </g>
    </g>
    <g id="xtick_6">
     <g id="text_6">
      <!-- 02-20 -->
      <g style="fill: #262626" transform="translate(235.165302 543.53675) rotate(-90) scale(0.132 -0.132)">
       <use xlink:href="#SimHei-30"/>
       <use xlink:href="#SimHei-32" x="50"/>
       <use xlink:href="#SimHei-2d" x="100"/>
       <use xlink:href="#SimHei-32" x="150"/>
       <use xlink:href="#SimHei-30" x="200"/>
      </g>
     </g>
    </g>
    <g id="xtick_7">
     <g id="text_7">
      <!-- 03-02 -->
      <g style="fill: #262626" transform="translate(258.073044 543.53675) rotate(-90) scale(0.132 -0.132)">
       <use xlink:href="#SimHei-30"/>
       <use xlink:href="#SimHei-33" x="50"/>
       <use xlink:href="#SimHei-2d" x="100"/>
       <use xlink:href="#SimHei-30" x="150"/>
       <use xlink:href="#SimHei-32" x="200"/>
      </g>
     </g>
    </g>
    <g id="xtick_8">
     <g id="text_8">
      <!-- 03-12 -->
      <g style="fill: #262626" transform="translate(280.980787 543.53675) rotate(-90) scale(0.132 -0.132)">
       <use xlink:href="#SimHei-30"/>
       <use xlink:href="#SimHei-33" x="50"/>
       <use xlink:href="#SimHei-2d" x="100"/>
       <use xlink:href="#SimHei-31" x="150"/>
       <use xlink:href="#SimHei-32" x="200"/>
      </g>
     </g>
    </g>
    <g id="xtick_9">
     <g id="text_9">
      <!-- 03-22 -->
      <g style="fill: #262626" transform="translate(303.888529 543.53675) rotate(-90) scale(0.132 -0.132)">
       <use xlink:href="#SimHei-30"/>
       <use xlink:href="#SimHei-33" x="50"/>
       <use xlink:href="#SimHei-2d" x="100"/>
       <use xlink:href="#SimHei-32" x="150"/>
       <use xlink:href="#SimHei-32" x="200"/>
      </g>
     </g>
    </g>
    <g id="xtick_10">
     <g id="text_10">
      <!-- 04-01 -->
      <g style="fill: #262626" transform="translate(326.796271 543.53675) rotate(-90) scale(0.132 -0.132)">
       <defs>
        <path id="SimHei-34" d="M 2000 1100 
L 75 1100 
L 75 1525 
L 2100 4450 
L 2475 4450 
L 2475 1525 
L 3075 1525 
L 3075 1100 
L 2475 1100 
L 2475 150 
L 2000 150 
L 2000 1100 
z
M 2000 1525 
L 2000 3500 
L 600 1525 
L 2000 1525 
z
" transform="scale(0.015625)"/>
       </defs>
       <use xlink:href="#SimHei-30"/>
       <use xlink:href="#SimHei-34" x="50"/>
       <use xlink:href="#SimHei-2d" x="100"/>
       <use xlink:href="#SimHei-30" x="150"/>
       <use xlink:href="#SimHei-31" x="200"/>
      </g>
     </g>
    </g>
    <g id="xtick_11">
     <g id="text_11">
      <!-- 04-11 -->
      <g style="fill: #262626" transform="translate(349.704013 543.53675) rotate(-90) scale(0.132 -0.132)">
       <use xlink:href="#SimHei-30"/>
       <use xlink:href="#SimHei-34" x="50"/>
       <use xlink:href="#SimHei-2d" x="100"/>
       <use xlink:href="#SimHei-31" x="150"/>
       <use xlink:href="#SimHei-31" x="200"/>
      </g>
     </g>
    </g>
    <g id="xtick_12">
     <g id="text_12">
      <!-- 04-21 -->
      <g style="fill: #262626" transform="translate(372.611756 543.53675) rotate(-90) scale(0.132 -0.132)">
       <use xlink:href="#SimHei-30"/>
       <use xlink:href="#SimHei-34" x="50"/>
       <use xlink:href="#SimHei-2d" x="100"/>
       <use xlink:href="#SimHei-32" x="150"/>
       <use xlink:href="#SimHei-31" x="200"/>
      </g>
     </g>
    </g>
    <g id="xtick_13">
     <g id="text_13">
      <!-- 05-01 -->
      <g style="fill: #262626" transform="translate(395.519498 543.53675) rotate(-90) scale(0.132 -0.132)">
       <defs>
        <path id="SimHei-35" d="M 550 1325 
Q 725 650 1150 575 
Q 1575 500 1837 662 
Q 2100 825 2212 1087 
Q 2325 1350 2312 1675 
Q 2300 2000 2137 2225 
Q 1975 2450 1725 2525 
Q 1475 2600 1162 2525 
Q 850 2450 650 2175 
L 225 2225 
Q 275 2375 700 4375 
L 2675 4375 
L 2675 3925 
L 1075 3925 
Q 950 3250 825 2850 
Q 1200 3025 1525 3012 
Q 1850 3000 2150 2862 
Q 2450 2725 2587 2487 
Q 2725 2250 2787 2012 
Q 2850 1775 2837 1500 
Q 2825 1225 2725 937 
Q 2625 650 2425 462 
Q 2225 275 1937 162 
Q 1650 50 1275 75 
Q 900 100 562 350 
Q 225 600 100 1200 
L 550 1325 
z
" transform="scale(0.015625)"/>
       </defs>
       <use xlink:href="#SimHei-30"/>
       <use xlink:href="#SimHei-35" x="50"/>
       <use xlink:href="#SimHei-2d" x="100"/>
       <use xlink:href="#SimHei-30" x="150"/>
       <use xlink:href="#SimHei-31" x="200"/>
      </g>
     </g>
    </g>
    <g id="xtick_14">
     <g id="text_14">
      <!-- 05-11 -->
      <g style="fill: #262626" transform="translate(418.42724 543.53675) rotate(-90) scale(0.132 -0.132)">
       <use xlink:href="#SimHei-30"/>
       <use xlink:href="#SimHei-35" x="50"/>
       <use xlink:href="#SimHei-2d" x="100"/>
       <use xlink:href="#SimHei-31" x="150"/>
       <use xlink:href="#SimHei-31" x="200"/>
      </g>
     </g>
    </g>
    <g id="xtick_15">
     <g id="text_15">
      <!-- 05-21 -->
      <g style="fill: #262626" transform="translate(441.334983 543.53675) rotate(-90) scale(0.132 -0.132)">
       <use xlink:href="#SimHei-30"/>
       <use xlink:href="#SimHei-35" x="50"/>
       <use xlink:href="#SimHei-2d" x="100"/>
       <use xlink:href="#SimHei-32" x="150"/>
       <use xlink:href="#SimHei-31" x="200"/>
      </g>
     </g>
    </g>
    <g id="xtick_16">
     <g id="text_16">
      <!-- 05-31 -->
      <g style="fill: #262626" transform="translate(464.242725 543.53675) rotate(-90) scale(0.132 -0.132)">
       <use xlink:href="#SimHei-30"/>
       <use xlink:href="#SimHei-35" x="50"/>
       <use xlink:href="#SimHei-2d" x="100"/>
       <use xlink:href="#SimHei-33" x="150"/>
       <use xlink:href="#SimHei-31" x="200"/>
      </g>
     </g>
    </g>
    <g id="xtick_17">
     <g id="text_17">
      <!-- 06-10 -->
      <g style="fill: #262626" transform="translate(487.150467 543.53675) rotate(-90) scale(0.132 -0.132)">
       <defs>
        <path id="SimHei-36" d="M 250 1612 
Q 275 1975 387 2225 
Q 500 2475 725 2850 
L 1750 4450 
L 2325 4450 
L 1275 2800 
Q 1950 2975 2350 2750 
Q 2750 2525 2887 2237 
Q 3025 1950 3037 1612 
Q 3050 1275 2937 950 
Q 2825 625 2537 362 
Q 2250 100 1737 75 
Q 1225 50 862 262 
Q 500 475 362 862 
Q 225 1250 250 1612 
z
M 1025 787 
Q 1250 550 1625 525 
Q 2000 500 2250 775 
Q 2500 1050 2500 1575 
Q 2500 2100 2187 2300 
Q 1875 2500 1487 2450 
Q 1100 2400 925 2075 
Q 750 1750 775 1387 
Q 800 1025 1025 787 
z
" transform="scale(0.015625)"/>
       </defs>
       <use xlink:href="#SimHei-30"/>
       <use xlink:href="#SimHei-36" x="50"/>
       <use xlink:href="#SimHei-2d" x="100"/>
       <use xlink:href="#SimHei-31" x="150"/>
       <use xlink:href="#SimHei-30" x="200"/>
      </g>
     </g>
    </g>
    <g id="xtick_18">
     <g id="text_18">
      <!-- 06-20 -->
      <g style="fill: #262626" transform="translate(510.058209 543.53675) rotate(-90) scale(0.132 -0.132)">
       <use xlink:href="#SimHei-30"/>
       <use xlink:href="#SimHei-36" x="50"/>
       <use xlink:href="#SimHei-2d" x="100"/>
       <use xlink:href="#SimHei-32" x="150"/>
       <use xlink:href="#SimHei-30" x="200"/>
      </g>
     </g>
    </g>
    <g id="xtick_19">
     <g id="text_19">
      <!-- 06-30 -->
      <g style="fill: #262626" transform="translate(532.965952 543.53675) rotate(-90) scale(0.132 -0.132)">
       <use xlink:href="#SimHei-30"/>
       <use xlink:href="#SimHei-36" x="50"/>
       <use xlink:href="#SimHei-2d" x="100"/>
       <use xlink:href="#SimHei-33" x="150"/>
       <use xlink:href="#SimHei-30" x="200"/>
      </g>
     </g>
    </g>
    <g id="xtick_20">
     <g id="text_20">
      <!-- 07-10 -->
      <g style="fill: #262626" transform="translate(555.873694 543.53675) rotate(-90) scale(0.132 -0.132)">
       <defs>
        <path id="SimHei-37" d="M 850 150 
Q 1300 2050 2425 3925 
L 275 3925 
L 275 4375 
L 2950 4375 
L 2950 3950 
Q 1775 2050 1400 150 
L 850 150 
z
" transform="scale(0.015625)"/>
       </defs>
       <use xlink:href="#SimHei-30"/>
       <use xlink:href="#SimHei-37" x="50"/>
       <use xlink:href="#SimHei-2d" x="100"/>
       <use xlink:href="#SimHei-31" x="150"/>
       <use xlink:href="#SimHei-30" x="200"/>
      </g>
     </g>
    </g>
    <g id="xtick_21">
     <g id="text_21">
      <!-- 07-20 -->
      <g style="fill: #262626" transform="translate(578.781436 543.53675) rotate(-90) scale(0.132 -0.132)">
       <use xlink:href="#SimHei-30"/>
       <use xlink:href="#SimHei-37" x="50"/>
       <use xlink:href="#SimHei-2d" x="100"/>
       <use xlink:href="#SimHei-32" x="150"/>
       <use xlink:href="#SimHei-30" x="200"/>
      </g>
     </g>
    </g>
    <g id="xtick_22">
     <g id="text_22">
      <!-- 07-30 -->
      <g style="fill: #262626" transform="translate(601.689178 543.53675) rotate(-90) scale(0.132 -0.132)">
       <use xlink:href="#SimHei-30"/>
       <use xlink:href="#SimHei-37" x="50"/>
       <use xlink:href="#SimHei-2d" x="100"/>
       <use xlink:href="#SimHei-33" x="150"/>
       <use xlink:href="#SimHei-30" x="200"/>
      </g>
     </g>
    </g>
    <g id="xtick_23">
     <g id="text_23">
      <!-- 08-09 -->
      <g style="fill: #262626" transform="translate(624.596921 543.53675) rotate(-90) scale(0.132 -0.132)">
       <defs>
        <path id="SimHei-38" d="M 175 1375 
Q 175 1675 325 1962 
Q 475 2250 825 2425 
Q 525 2600 425 2812 
Q 325 3025 312 3300 
Q 300 3575 387 3775 
Q 475 3975 650 4150 
Q 825 4325 1037 4387 
Q 1250 4450 1500 4450 
Q 1750 4450 1950 4400 
Q 2150 4350 2375 4187 
Q 2600 4025 2700 3725 
Q 2800 3425 2687 3025 
Q 2575 2625 2100 2400 
Q 2525 2275 2700 2012 
Q 2875 1750 2875 1375 
Q 2875 1000 2762 775 
Q 2650 550 2512 400 
Q 2375 250 2137 162 
Q 1900 75 1537 75 
Q 1175 75 912 162 
Q 650 250 475 425 
Q 300 600 237 837 
Q 175 1075 175 1375 
z
M 687 1400 
Q 675 1100 787 875 
Q 900 650 1200 587 
Q 1500 525 1825 600 
Q 2150 675 2275 950 
Q 2400 1225 2362 1500 
Q 2325 1775 2050 1962 
Q 1775 2150 1450 2125 
Q 1125 2100 912 1900 
Q 700 1700 687 1400 
z
M 775 3350 
Q 775 3100 950 2875 
Q 1125 2650 1500 2650 
Q 1875 2650 2062 2875 
Q 2250 3100 2237 3412 
Q 2225 3725 2012 3875 
Q 1800 4025 1437 4000 
Q 1075 3975 925 3787 
Q 775 3600 775 3350 
z
" transform="scale(0.015625)"/>
        <path id="SimHei-39" d="M 800 75 
Q 1350 1000 1700 1750 
Q 1075 1650 662 1912 
Q 250 2175 162 2625 
Q 75 3075 175 3437 
Q 275 3800 487 4037 
Q 700 4275 1000 4375 
Q 1300 4475 1537 4475 
Q 1775 4475 2025 4375 
Q 2275 4275 2475 4075 
Q 2675 3875 2750 3662 
Q 2825 3450 2825 3112 
Q 2825 2775 2575 2250 
Q 2325 1725 1350 75 
L 800 75 
z
M 662 2875 
Q 700 2550 937 2337 
Q 1175 2125 1450 2150 
Q 1725 2175 1887 2300 
Q 2050 2425 2200 2725 
Q 2300 3100 2250 3362 
Q 2200 3625 1987 3800 
Q 1775 3975 1525 3975 
Q 1375 4000 1137 3900 
Q 900 3800 762 3500 
Q 625 3200 662 2875 
z
" transform="scale(0.015625)"/>
       </defs>
       <use xlink:href="#SimHei-30"/>
       <use xlink:href="#SimHei-38" x="50"/>
       <use xlink:href="#SimHei-2d" x="100"/>
       <use xlink:href="#SimHei-30" x="150"/>
       <use xlink:href="#SimHei-39" x="200"/>
      </g>
     </g>
    </g>
    <g id="xtick_24">
     <g id="text_24">
      <!-- 08-19 -->
      <g style="fill: #262626" transform="translate(647.504663 543.53675) rotate(-90) scale(0.132 -0.132)">
       <use xlink:href="#SimHei-30"/>
       <use xlink:href="#SimHei-38" x="50"/>
       <use xlink:href="#SimHei-2d" x="100"/>
       <use xlink:href="#SimHei-31" x="150"/>
       <use xlink:href="#SimHei-39" x="200"/>
      </g>
     </g>
    </g>
    <g id="xtick_25">
     <g id="text_25">
      <!-- 08-29 -->
      <g style="fill: #262626" transform="translate(670.412405 543.53675) rotate(-90) scale(0.132 -0.132)">
       <use xlink:href="#SimHei-30"/>
       <use xlink:href="#SimHei-38" x="50"/>
       <use xlink:href="#SimHei-2d" x="100"/>
       <use xlink:href="#SimHei-32" x="150"/>
       <use xlink:href="#SimHei-39" x="200"/>
      </g>
     </g>
    </g>
    <g id="xtick_26">
     <g id="text_26">
      <!-- 09-08 -->
      <g style="fill: #262626" transform="translate(693.320147 543.53675) rotate(-90) scale(0.132 -0.132)">
       <use xlink:href="#SimHei-30"/>
       <use xlink:href="#SimHei-39" x="50"/>
       <use xlink:href="#SimHei-2d" x="100"/>
       <use xlink:href="#SimHei-30" x="150"/>
       <use xlink:href="#SimHei-38" x="200"/>
      </g>
     </g>
    </g>
    <g id="xtick_27">
     <g id="text_27">
      <!-- 09-18 -->
      <g style="fill: #262626" transform="translate(716.22789 543.53675) rotate(-90) scale(0.132 -0.132)">
       <use xlink:href="#SimHei-30"/>
       <use xlink:href="#SimHei-39" x="50"/>
       <use xlink:href="#SimHei-2d" x="100"/>
       <use xlink:href="#SimHei-31" x="150"/>
       <use xlink:href="#SimHei-38" x="200"/>
      </g>
     </g>
    </g>
    <g id="xtick_28">
     <g id="text_28">
      <!-- 09-28 -->
      <g style="fill: #262626" transform="translate(739.135632 543.53675) rotate(-90) scale(0.132 -0.132)">
       <use xlink:href="#SimHei-30"/>
       <use xlink:href="#SimHei-39" x="50"/>
       <use xlink:href="#SimHei-2d" x="100"/>
       <use xlink:href="#SimHei-32" x="150"/>
       <use xlink:href="#SimHei-38" x="200"/>
      </g>
     </g>
    </g>
    <g id="xtick_29">
     <g id="text_29">
      <!-- 10-08 -->
      <g style="fill: #262626" transform="translate(762.043374 543.53675) rotate(-90) scale(0.132 -0.132)">
       <use xlink:href="#SimHei-31"/>
       <use xlink:href="#SimHei-30" x="50"/>
       <use xlink:href="#SimHei-2d" x="100"/>
       <use xlink:href="#SimHei-30" x="150"/>
       <use xlink:href="#SimHei-38" x="200"/>
      </g>
     </g>
    </g>
    <g id="xtick_30">
     <g id="text_30">
      <!-- 10-18 -->
      <g style="fill: #262626" transform="translate(784.951116 543.53675) rotate(-90) scale(0.132 -0.132)">
       <use xlink:href="#SimHei-31"/>
       <use xlink:href="#SimHei-30" x="50"/>
       <use xlink:href="#SimHei-2d" x="100"/>
       <use xlink:href="#SimHei-31" x="150"/>
       <use xlink:href="#SimHei-38" x="200"/>
      </g>
     </g>
    </g>
    <g id="xtick_31">
     <g id="text_31">
      <!-- 10-28 -->
      <g style="fill: #262626" transform="translate(807.858859 543.53675) rotate(-90) scale(0.132 -0.132)">
       <use xlink:href="#SimHei-31"/>
       <use xlink:href="#SimHei-30" x="50"/>
       <use xlink:href="#SimHei-2d" x="100"/>
       <use xlink:href="#SimHei-32" x="150"/>
       <use xlink:href="#SimHei-38" x="200"/>
      </g>
     </g>
    </g>
    <g id="xtick_32">
     <g id="text_32">
      <!-- 11-07 -->
      <g style="fill: #262626" transform="translate(830.766601 543.53675) rotate(-90) scale(0.132 -0.132)">
       <use xlink:href="#SimHei-31"/>
       <use xlink:href="#SimHei-31" x="50"/>
       <use xlink:href="#SimHei-2d" x="100"/>
       <use xlink:href="#SimHei-30" x="150"/>
       <use xlink:href="#SimHei-37" x="200"/>
      </g>
     </g>
    </g>
    <g id="xtick_33">
     <g id="text_33">
      <!-- 11-17 -->
      <g style="fill: #262626" transform="translate(853.674343 543.53675) rotate(-90) scale(0.132 -0.132)">
       <use xlink:href="#SimHei-31"/>
       <use xlink:href="#SimHei-31" x="50"/>
       <use xlink:href="#SimHei-2d" x="100"/>
       <use xlink:href="#SimHei-31" x="150"/>
       <use xlink:href="#SimHei-37" x="200"/>
      </g>
     </g>
    </g>
    <g id="xtick_34">
     <g id="text_34">
      <!-- 11-27 -->
      <g style="fill: #262626" transform="translate(876.582085 543.53675) rotate(-90) scale(0.132 -0.132)">
       <use xlink:href="#SimHei-31"/>
       <use xlink:href="#SimHei-31" x="50"/>
       <use xlink:href="#SimHei-2d" x="100"/>
       <use xlink:href="#SimHei-32" x="150"/>
       <use xlink:href="#SimHei-37" x="200"/>
      </g>
     </g>
    </g>
    <g id="xtick_35">
     <g id="text_35">
      <!-- 12-07 -->
      <g style="fill: #262626" transform="translate(899.489828 543.53675) rotate(-90) scale(0.132 -0.132)">
       <use xlink:href="#SimHei-31"/>
       <use xlink:href="#SimHei-32" x="50"/>
       <use xlink:href="#SimHei-2d" x="100"/>
       <use xlink:href="#SimHei-30" x="150"/>
       <use xlink:href="#SimHei-37" x="200"/>
      </g>
     </g>
    </g>
    <g id="xtick_36">
     <g id="text_36">
      <!-- 12-17 -->
      <g style="fill: #262626" transform="translate(922.39757 543.53675) rotate(-90) scale(0.132 -0.132)">
       <use xlink:href="#SimHei-31"/>
       <use xlink:href="#SimHei-32" x="50"/>
       <use xlink:href="#SimHei-2d" x="100"/>
       <use xlink:href="#SimHei-31" x="150"/>
       <use xlink:href="#SimHei-37" x="200"/>
      </g>
     </g>
    </g>
    <g id="xtick_37">
     <g id="text_37">
      <!-- 12-27 -->
      <g style="fill: #262626" transform="translate(945.305312 543.53675) rotate(-90) scale(0.132 -0.132)">
       <use xlink:href="#SimHei-31"/>
       <use xlink:href="#SimHei-32" x="50"/>
       <use xlink:href="#SimHei-2d" x="100"/>
       <use xlink:href="#SimHei-32" x="150"/>
       <use xlink:href="#SimHei-37" x="200"/>
      </g>
     </g>
    </g>
    <g id="text_38">
     <!-- 月日 -->
     <g style="fill: #262626" transform="translate(519.435 558.2805) scale(0.144 -0.144)">
      <defs>
       <path id="SimHei-6708" d="M 5250 4825 
Q 5200 4225 5200 3750 
L 5200 200 
Q 5200 -275 4950 -375 
Q 4700 -475 3975 -525 
Q 3925 -225 3750 50 
Q 4300 25 4512 50 
Q 4725 75 4725 400 
L 4725 1600 
L 1850 1600 
Q 1725 775 1450 225 
Q 1175 -325 900 -575 
Q 700 -400 400 -325 
Q 800 25 1037 512 
Q 1275 1000 1337 1475 
Q 1400 1950 1400 2525 
L 1400 3625 
Q 1400 4175 1375 4825 
L 5250 4825 
z
M 4725 3400 
L 4725 4450 
L 1875 4450 
L 1875 3400 
L 4725 3400 
z
M 4725 2000 
L 4725 3025 
L 1875 3025 
L 1875 2000 
L 4725 2000 
z
" transform="scale(0.015625)"/>
       <path id="SimHei-65e5" d="M 5375 5000 
Q 5350 3775 5350 2275 
Q 5350 775 5375 -450 
L 4800 -450 
L 4800 175 
L 1800 175 
L 1800 -575 
L 1250 -575 
Q 1275 575 1275 2125 
Q 1275 3675 1250 5000 
L 5375 5000 
z
M 4800 600 
L 4800 2375 
L 1800 2375 
L 1800 600 
L 4800 600 
z
M 4800 2800 
L 4800 4550 
L 1800 4550 
L 1800 2800 
L 4800 2800 
z
" transform="scale(0.015625)"/>
      </defs>
      <use xlink:href="#SimHei-6708"/>
      <use xlink:href="#SimHei-65e5" x="100"/>
     </g>
    </g>
   </g>
   <g id="matplotlib.axis_2">
    <g id="ytick_1">
     <g id="text_39">
      <!-- 0 -->
      <g style="fill: #262626" transform="translate(59.122 501.62175) scale(0.132 -0.132)">
       <use xlink:href="#SimHei-30"/>
      </g>
     </g>
    </g>
    <g id="ytick_2">
     <g id="text_40">
      <!-- 2500 -->
      <g style="fill: #262626" transform="translate(39.322 444.362138) scale(0.132 -0.132)">
       <use xlink:href="#SimHei-32"/>
       <use xlink:href="#SimHei-35" x="50"/>
       <use xlink:href="#SimHei-30" x="100"/>
       <use xlink:href="#SimHei-30" x="150"/>
      </g>
     </g>
    </g>
    <g id="ytick_3">
     <g id="text_41">
      <!-- 5000 -->
      <g style="fill: #262626" transform="translate(39.322 387.102526) scale(0.132 -0.132)">
       <use xlink:href="#SimHei-35"/>
       <use xlink:href="#SimHei-30" x="50"/>
       <use xlink:href="#SimHei-30" x="100"/>
       <use xlink:href="#SimHei-30" x="150"/>
      </g>
     </g>
    </g>
    <g id="ytick_4">
     <g id="text_42">
      <!-- 7500 -->
      <g style="fill: #262626" transform="translate(39.322 329.842914) scale(0.132 -0.132)">
       <use xlink:href="#SimHei-37"/>
       <use xlink:href="#SimHei-35" x="50"/>
       <use xlink:href="#SimHei-30" x="100"/>
       <use xlink:href="#SimHei-30" x="150"/>
      </g>
     </g>
    </g>
    <g id="ytick_5">
     <g id="text_43">
      <!-- 10000 -->
      <g style="fill: #262626" transform="translate(32.722 272.583303) scale(0.132 -0.132)">
       <use xlink:href="#SimHei-31"/>
       <use xlink:href="#SimHei-30" x="50"/>
       <use xlink:href="#SimHei-30" x="100"/>
       <use xlink:href="#SimHei-30" x="150"/>
       <use xlink:href="#SimHei-30" x="200"/>
      </g>
     </g>
    </g>
    <g id="ytick_6">
     <g id="text_44">
      <!-- 12500 -->
      <g style="fill: #262626" transform="translate(32.722 215.323691) scale(0.132 -0.132)">
       <use xlink:href="#SimHei-31"/>
       <use xlink:href="#SimHei-32" x="50"/>
       <use xlink:href="#SimHei-35" x="100"/>
       <use xlink:href="#SimHei-30" x="150"/>
       <use xlink:href="#SimHei-30" x="200"/>
      </g>
     </g>
    </g>
    <g id="ytick_7">
     <g id="text_45">
      <!-- 15000 -->
      <g style="fill: #262626" transform="translate(32.722 158.064079) scale(0.132 -0.132)">
       <use xlink:href="#SimHei-31"/>
       <use xlink:href="#SimHei-35" x="50"/>
       <use xlink:href="#SimHei-30" x="100"/>
       <use xlink:href="#SimHei-30" x="150"/>
       <use xlink:href="#SimHei-30" x="200"/>
      </g>
     </g>
    </g>
    <g id="ytick_8">
     <g id="text_46">
      <!-- 17500 -->
      <g style="fill: #262626" transform="translate(32.722 100.804467) scale(0.132 -0.132)">
       <use xlink:href="#SimHei-31"/>
       <use xlink:href="#SimHei-37" x="50"/>
       <use xlink:href="#SimHei-35" x="100"/>
       <use xlink:href="#SimHei-30" x="150"/>
       <use xlink:href="#SimHei-30" x="200"/>
      </g>
     </g>
    </g>
    <g id="ytick_9">
     <g id="text_47">
      <!-- 20000 -->
      <g style="fill: #262626" transform="translate(32.722 43.544855) scale(0.132 -0.132)">
       <use xlink:href="#SimHei-32"/>
       <use xlink:href="#SimHei-30" x="50"/>
       <use xlink:href="#SimHei-30" x="100"/>
       <use xlink:href="#SimHei-30" x="150"/>
       <use xlink:href="#SimHei-30" x="200"/>
      </g>
     </g>
    </g>
    <g id="text_48">
     <!-- 货量 -->
     <g style="fill: #262626" transform="translate(26.922 272.694375) rotate(-90) scale(0.144 -0.144)">
      <defs>
       <path id="SimHei-8d27" d="M 3975 5075 
Q 3950 4750 3950 4100 
Q 4075 4175 4525 4375 
Q 4975 4575 5375 4900 
Q 5550 4625 5700 4400 
Q 5425 4325 4987 4112 
Q 4550 3900 3950 3650 
L 3950 3225 
Q 3950 3025 4300 3025 
L 5125 3025 
Q 5425 3025 5487 3150 
Q 5550 3275 5575 3625 
Q 5850 3450 6125 3375 
Q 5975 2875 5825 2750 
Q 5675 2625 5475 2625 
L 4000 2625 
Q 3425 2625 3425 3125 
L 3425 3525 
Q 2900 3325 2575 3225 
Q 2425 3500 2350 3650 
Q 2750 3750 3425 3925 
Q 3425 4750 3400 5075 
L 3975 5075 
z
M 5200 2200 
Q 5175 1825 5175 1425 
Q 5175 1050 5200 600 
L 4625 600 
L 4625 1775 
L 1950 1775 
L 1950 625 
L 1400 625 
Q 1425 1025 1425 1400 
Q 1425 1800 1400 2200 
L 5200 2200 
z
M 2625 4850 
Q 2425 4700 2050 4300 
Q 2050 2900 2075 2450 
L 1500 2450 
Q 1525 2900 1525 3825 
Q 1300 3625 1100 3425 
Q 900 3225 700 3050 
Q 475 3250 325 3400 
Q 850 3725 1325 4237 
Q 1800 4750 2050 5175 
Q 2325 4925 2625 4850 
z
M 3550 1325 
Q 3425 975 3312 687 
Q 3200 400 2925 137 
Q 2650 -125 2150 -325 
Q 1650 -525 800 -675 
Q 725 -400 475 -100 
Q 1200 -75 1675 25 
Q 2150 125 2412 325 
Q 2675 525 2787 775 
Q 2900 1025 2975 1400 
Q 3250 1350 3550 1325 
z
M 5575 -675 
Q 5125 -400 4650 -187 
Q 4175 25 3575 250 
Q 3725 500 3825 725 
Q 4350 500 4800 300 
Q 5250 100 5875 -175 
Q 5700 -400 5575 -675 
z
" transform="scale(0.015625)"/>
       <path id="SimHei-91cf" d="M 5250 2500 
Q 5225 2200 5225 1700 
Q 5225 1225 5250 950 
L 3425 950 
L 3425 625 
L 4575 625 
Q 5000 625 5375 650 
L 5375 275 
Q 5025 300 4575 300 
L 3425 300 
L 3425 -75 
L 5125 -75 
Q 5525 -75 5925 -50 
L 5925 -425 
Q 5525 -400 5125 -400 
L 1275 -400 
Q 900 -400 475 -425 
L 475 -50 
Q 925 -50 1275 -75 
L 2975 -75 
L 2975 300 
L 1725 300 
Q 1350 300 975 250 
L 975 650 
Q 1375 625 1725 625 
L 2975 625 
L 2975 950 
L 1150 950 
Q 1175 1375 1175 1775 
Q 1175 2175 1150 2500 
L 5250 2500 
z
M 5200 4950 
Q 5175 4575 5175 4250 
Q 5175 3925 5200 3400 
L 1200 3400 
Q 1225 3925 1225 4250 
Q 1225 4575 1200 4950 
L 5200 4950 
z
M 4900 3100 
Q 5500 3125 6000 3150 
L 6000 2750 
Q 5500 2775 4925 2775 
L 1650 2775 
Q 975 2775 325 2750 
L 325 3150 
Q 975 3125 1650 3100 
L 4900 3100 
z
M 4725 3700 
L 4725 4025 
L 1675 4025 
L 1675 3700 
L 4725 3700 
z
M 4725 4350 
L 4725 4650 
L 1675 4650 
L 1675 4350 
L 4725 4350 
z
M 4750 1875 
L 4750 2175 
L 3425 2175 
L 3425 1875 
L 4750 1875 
z
M 2975 1875 
L 2975 2175 
L 1650 2175 
L 1650 1875 
L 2975 1875 
z
M 2975 1275 
L 2975 1550 
L 1650 1550 
L 1650 1275 
L 2975 1275 
z
M 4750 1275 
L 4750 1550 
L 3425 1550 
L 3425 1275 
L 4750 1275 
z
" transform="scale(0.015625)"/>
      </defs>
      <use xlink:href="#SimHei-8d27"/>
      <use xlink:href="#SimHei-91cf" x="100"/>
     </g>
    </g>
   </g>
   <g id="PolyCollection_1">
    <defs>
     <path id="mc04fe7414b" d="M 116.914091 -256.563145 
L 116.914091 -174.528109 
L 119.204865 -166.322287 
L 121.495639 -143.655994 
L 123.786414 -144.049982 
L 126.077188 -146.270336 
L 128.367962 -156.647237 
L 130.658736 -148.024096 
L 132.94951 -169.444472 
L 135.240285 -150.729326 
L 137.531059 -150.459576 
L 139.821833 -143.724354 
L 142.112607 -157.143837 
L 144.403382 -141.225791 
L 146.694156 -145.759073 
L 148.98493 -154.228916 
L 151.275704 -157.354572 
L 153.566479 -143.538344 
L 155.857253 -156.359601 
L 158.148027 -140.773413 
L 160.438801 -167.600283 
L 162.729575 -155.296604 
L 165.02035 -162.107877 
L 167.311124 -160.842625 
L 169.601898 -167.314452 
L 171.892672 -163.386035 
L 174.183447 -154.453874 
L 176.474221 -149.289184 
L 178.764995 -151.582063 
L 181.055769 -160.502067 
L 183.346543 -158.456087 
L 185.637318 -159.209175 
L 187.928092 -161.889787 
L 190.218866 -166.134324 
L 192.50964 -159.535711 
L 194.800415 -157.546858 
L 197.091189 -166.498358 
L 199.381963 -164.031941 
L 201.672737 -173.113169 
L 203.963511 -167.37738 
L 206.254286 -162.743581 
L 208.54506 -153.03177 
L 210.835834 -97.030739 
L 213.126608 -128.576297 
L 215.417383 -132.09078 
L 217.708157 -140.283021 
L 219.998931 -154.103013 
L 222.289705 -147.752716 
L 224.58048 -138.836459 
L 226.871254 -152.898678 
L 229.162028 -151.88709 
L 231.452802 -150.547993 
L 233.743576 -147.940417 
L 236.034351 -145.615919 
L 238.325125 -147.826187 
L 240.615899 -147.932411 
L 242.906673 -146.838716 
L 245.197448 -139.429263 
L 247.488222 -153.132671 
L 249.778996 -147.121981 
L 252.06977 -148.766214 
L 254.360544 -154.458417 
L 256.651319 -151.127024 
L 258.942093 -149.599099 
L 261.232867 -159.195654 
L 263.523641 -148.407733 
L 265.814416 -145.619796 
L 268.10519 -160.691745 
L 270.395964 -147.140163 
L 272.686738 -142.524671 
L 274.977512 -140.675939 
L 277.268287 -146.612572 
L 279.559061 -142.861769 
L 281.849835 -145.595855 
L 284.140609 -144.166022 
L 286.431384 -144.554716 
L 288.722158 -148.4985 
L 291.012932 -153.151384 
L 293.303706 -148.679709 
L 295.594481 -157.43431 
L 297.885255 -140.865342 
L 300.176029 -143.307451 
L 302.466803 -148.466171 
L 304.757577 -147.250614 
L 307.048352 -152.641354 
L 309.339126 -144.037923 
L 311.6299 -144.06511 
L 313.920674 -150.414193 
L 316.211449 -147.42857 
L 318.502223 -147.489857 
L 320.792997 -146.199854 
L 323.083771 -144.334681 
L 325.374545 -146.996335 
L 327.66532 -139.473012 
L 329.956094 -140.976185 
L 332.246868 -149.604549 
L 334.537642 -151.094649 
L 336.828417 -155.051019 
L 339.119191 -148.63822 
L 341.409965 -151.221442 
L 343.700739 -145.343537 
L 345.991513 -137.779315 
L 348.282288 -149.606659 
L 350.573062 -149.069243 
L 352.863836 -145.336039 
L 355.15461 -144.159974 
L 357.445385 -149.644643 
L 359.736159 -147.928355 
L 362.026933 -145.2566 
L 364.317707 -146.24209 
L 366.608482 -159.020273 
L 368.899256 -149.812554 
L 371.19003 -149.267543 
L 373.480804 -147.573804 
L 375.771578 -150.300963 
L 378.062353 -163.102704 
L 380.353127 -149.795097 
L 382.643901 -148.71216 
L 384.934675 -151.145913 
L 387.22545 -149.320169 
L 389.516224 -138.741541 
L 391.806998 -144.070003 
L 394.097772 -134.604731 
L 396.388546 -133.798523 
L 398.679321 -142.988243 
L 400.970095 -141.496666 
L 403.260869 -159.86052 
L 405.551643 -159.330826 
L 407.842418 -156.088559 
L 410.133192 -154.151907 
L 412.423966 -164.890743 
L 414.71474 -157.38999 
L 417.005514 -145.85296 
L 419.296289 -150.885234 
L 421.587063 -151.346755 
L 423.877837 -156.816041 
L 426.168611 -147.449376 
L 428.459386 -160.950345 
L 430.75016 -161.102097 
L 433.040934 -154.916284 
L 435.331708 -153.984786 
L 437.622483 -154.269589 
L 439.913257 -147.4091 
L 442.204031 -152.813041 
L 444.494805 -167.508378 
L 446.785579 -165.702663 
L 449.076354 -157.354288 
L 451.367128 -147.84661 
L 453.657902 -150.650274 
L 455.948676 -154.547083 
L 458.239451 -141.200902 
L 460.530225 -149.795983 
L 462.820999 -266.350149 
L 465.111773 -197.236709 
L 467.402547 -185.476945 
L 469.693322 -166.176299 
L 471.984096 -172.978058 
L 474.27487 -169.606563 
L 476.565644 -170.195866 
L 478.856419 -181.563496 
L 481.147193 -162.133265 
L 483.437967 -155.426526 
L 485.728741 -155.893687 
L 488.019515 -154.641197 
L 490.31029 -162.27631 
L 492.601064 -153.846921 
L 494.891838 -156.014862 
L 497.182612 -205.195096 
L 499.473387 -180.12533 
L 501.764161 -316.230189 
L 504.054935 -210.512366 
L 506.345709 -166.739384 
L 508.636484 -156.42653 
L 510.927258 -149.414618 
L 513.218032 -144.52373 
L 515.508806 -148.471074 
L 517.79958 -145.527948 
L 520.090355 -139.857618 
L 522.381129 -145.056017 
L 524.671903 -148.994988 
L 526.962677 -148.071633 
L 529.253452 -156.330853 
L 531.544226 -150.113361 
L 533.835 -153.333071 
L 536.125774 -150.383056 
L 538.416548 -158.852436 
L 540.707323 -152.161502 
L 542.998097 -149.653397 
L 545.288871 -152.675648 
L 547.579645 -150.757283 
L 549.87042 -147.393239 
L 552.161194 -153.123508 
L 554.451968 -150.302125 
L 556.742742 -148.415622 
L 559.033516 -152.794807 
L 561.324291 -141.649921 
L 563.615065 -143.704374 
L 565.905839 -145.449925 
L 568.196613 -144.689825 
L 570.487388 -137.608622 
L 572.778162 -142.880044 
L 575.068936 -139.972359 
L 577.35971 -147.253359 
L 579.650485 -138.320112 
L 581.941259 -139.843947 
L 584.232033 -139.044289 
L 586.522807 -139.973887 
L 588.813581 -140.751867 
L 591.104356 -149.337069 
L 593.39513 -140.749606 
L 595.685904 -144.491951 
L 597.976678 -144.270053 
L 600.267453 -147.058075 
L 602.558227 -139.155228 
L 604.849001 -147.866618 
L 607.139775 -147.13708 
L 609.430549 -154.14225 
L 611.721324 -152.392891 
L 614.012098 -146.369678 
L 616.302872 -145.183043 
L 618.593646 -152.257145 
L 620.884421 -142.929483 
L 623.175195 -147.245657 
L 625.465969 -143.541956 
L 627.756743 -148.425143 
L 630.047517 -157.332585 
L 632.338292 -145.46829 
L 634.629066 -150.006655 
L 636.91984 -147.312548 
L 639.210614 -148.986776 
L 641.501389 -152.527071 
L 643.792163 -143.16603 
L 646.082937 -144.4606 
L 648.373711 -143.051396 
L 650.664486 -143.296114 
L 652.95526 -150.139227 
L 655.246034 -145.983832 
L 657.536808 -153.086095 
L 659.827582 -156.56637 
L 662.118357 -157.479182 
L 664.409131 -156.850086 
L 666.699905 -156.202349 
L 668.990679 -157.163211 
L 671.281454 -160.546982 
L 673.572228 -167.028178 
L 675.863002 -162.557233 
L 678.153776 -154.793166 
L 680.44455 -153.581377 
L 682.735325 -144.670711 
L 685.026099 -159.059381 
L 687.316873 -152.2481 
L 689.607647 -152.342107 
L 691.898422 -180.266186 
L 694.189196 -158.379636 
L 696.47997 -153.61251 
L 698.770744 -152.386357 
L 701.061518 -163.942442 
L 703.352293 -165.829378 
L 705.643067 -154.362766 
L 707.933841 -163.317191 
L 710.224615 -158.43465 
L 712.51539 -159.379103 
L 714.806164 -164.091543 
L 717.096938 -152.461747 
L 719.387712 -143.420623 
L 721.678487 -156.721128 
L 723.969261 -155.250163 
L 726.260035 -156.649006 
L 728.550809 -146.959056 
L 730.841583 -156.615747 
L 733.132358 -153.621163 
L 735.423132 -161.704907 
L 737.713906 -150.408884 
L 740.00468 -143.000198 
L 742.295455 -146.734831 
L 744.586229 -138.840363 
L 746.877003 -133.190416 
L 749.167777 -136.828481 
L 751.458551 -131.63493 
L 753.749326 -153.49169 
L 756.0401 -137.717747 
L 758.330874 -155.282642 
L 760.621648 -149.768818 
L 762.912423 -153.00078 
L 765.203197 -151.230751 
L 767.493971 -149.661606 
L 769.784745 -150.207671 
L 772.075519 -148.389116 
L 774.366294 -153.950044 
L 776.657068 -144.492066 
L 778.947842 -145.252459 
L 781.238616 -154.015925 
L 783.529391 -155.814599 
L 785.820165 -178.950657 
L 788.110939 -176.498405 
L 790.401713 -185.902813 
L 792.692488 -173.167269 
L 794.983262 -162.0581 
L 797.274036 -170.645586 
L 799.56481 -169.782491 
L 801.855584 -173.407603 
L 804.146359 -171.908998 
L 806.437133 -158.650522 
L 808.727907 -148.620274 
L 811.018681 -168.073558 
L 813.309456 -239.70749 
L 815.60023 -221.496779 
L 817.891004 -217.438868 
L 820.181778 -240.539705 
L 822.472552 -200.65572 
L 824.763327 -196.176002 
L 827.054101 -177.33854 
L 829.344875 -188.251775 
L 831.635649 -180.036753 
L 833.926424 -157.639978 
L 836.217198 -268.092556 
L 838.507972 -213.609287 
L 840.798746 -180.035715 
L 843.08952 -183.914996 
L 845.380295 -163.604406 
L 847.671069 -155.187429 
L 849.961843 -162.519016 
L 852.252617 -163.178425 
L 854.543392 -168.746404 
L 856.834166 -165.103308 
L 859.12494 -159.316589 
L 861.415714 -174.30351 
L 863.706489 -166.611041 
L 865.997263 -160.831309 
L 868.288037 -156.008307 
L 870.578811 -158.390975 
L 872.869585 -164.918834 
L 875.16036 -165.356599 
L 877.451134 -166.792111 
L 879.741908 -164.000176 
L 882.032682 -163.919986 
L 884.323457 -164.661867 
L 886.614231 -166.008201 
L 888.905005 -161.463364 
L 891.195779 -161.756845 
L 893.486553 -162.014835 
L 895.777328 -169.341326 
L 898.068102 -161.939277 
L 900.358876 -164.766532 
L 902.64965 -179.645605 
L 904.940425 -187.335603 
L 907.231199 -249.155174 
L 909.521973 -191.787996 
L 911.812747 -164.824367 
L 914.103521 -166.897856 
L 916.394296 -160.87632 
L 918.68507 -159.229694 
L 920.975844 -177.910958 
L 923.266618 -164.253745 
L 925.557393 -161.670875 
L 927.848167 -171.588979 
L 930.138941 -167.979429 
L 932.429715 -169.657813 
L 934.72049 -173.60042 
L 937.011264 -163.1202 
L 939.302038 -166.981876 
L 941.592812 -164.413518 
L 943.883586 -177.344803 
L 946.174361 -173.173119 
L 948.465135 -167.47393 
L 950.755909 -166.38847 
L 950.755909 -294.661787 
L 950.755909 -294.661787 
L 948.465135 -281.70734 
L 946.174361 -285.502111 
L 943.883586 -272.220441 
L 941.592812 -249.640567 
L 939.302038 -272.065625 
L 937.011264 -250.1538 
L 934.72049 -291.304198 
L 932.429715 -276.260104 
L 930.138941 -278.313199 
L 927.848167 -313.953402 
L 925.557393 -256.775862 
L 923.266618 -272.404514 
L 920.975844 -279.579602 
L 918.68507 -239.878157 
L 916.394296 -274.479625 
L 914.103521 -258.225011 
L 911.812747 -262.88817 
L 909.521973 -318.372936 
L 907.231199 -527.690233 
L 904.940425 -332.005625 
L 902.64965 -280.680355 
L 900.358876 -253.73722 
L 898.068102 -254.628112 
L 895.777328 -273.891776 
L 893.486553 -248.595521 
L 891.195779 -247.923999 
L 888.905005 -271.064979 
L 886.614231 -269.70207 
L 884.323457 -243.605197 
L 882.032682 -286.0866 
L 879.741908 -256.335977 
L 877.451134 -286.482613 
L 875.16036 -256.064707 
L 872.869585 -245.513202 
L 870.578811 -236.506021 
L 868.288037 -224.541579 
L 865.997263 -264.790187 
L 863.706489 -261.660915 
L 861.415714 -280.949224 
L 859.12494 -251.778639 
L 856.834166 -256.259428 
L 854.543392 -260.694963 
L 852.252617 -245.524458 
L 849.961843 -253.747497 
L 847.671069 -216.569464 
L 845.380295 -249.652528 
L 843.08952 -305.012975 
L 840.798746 -393.498244 
L 838.507972 -370.749518 
L 836.217198 -488.814713 
L 833.926424 -244.984487 
L 831.635649 -299.458867 
L 829.344875 -378.832697 
L 827.054101 -285.881645 
L 824.763327 -323.671538 
L 822.472552 -339.136366 
L 820.181778 -432.910017 
L 817.891004 -411.165331 
L 815.60023 -356.300337 
L 813.309456 -401.107148 
L 811.018681 -274.070882 
L 808.727907 -245.243638 
L 806.437133 -255.951255 
L 804.146359 -277.384258 
L 801.855584 -285.560842 
L 799.56481 -281.841702 
L 797.274036 -269.69561 
L 794.983262 -251.248051 
L 792.692488 -301.685337 
L 790.401713 -316.275109 
L 788.110939 -288.431617 
L 785.820165 -305.185017 
L 783.529391 -274.349018 
L 781.238616 -246.078703 
L 778.947842 -215.035941 
L 776.657068 -235.960317 
L 774.366294 -250.388822 
L 772.075519 -211.321349 
L 769.784745 -221.875796 
L 767.493971 -223.890861 
L 765.203197 -246.319064 
L 762.912423 -228.662829 
L 760.621648 -235.919679 
L 758.330874 -249.851354 
L 756.0401 -198.117104 
L 753.749326 -237.785496 
L 751.458551 -202.435282 
L 749.167777 -197.018424 
L 746.877003 -221.198861 
L 744.586229 -206.998567 
L 742.295455 -231.444855 
L 740.00468 -206.630806 
L 737.713906 -232.469952 
L 735.423132 -251.649009 
L 733.132358 -226.484491 
L 730.841583 -250.555925 
L 728.550809 -235.574617 
L 726.260035 -249.419134 
L 723.969261 -252.952274 
L 721.678487 -242.039725 
L 719.387712 -213.217123 
L 717.096938 -242.919543 
L 714.806164 -254.777614 
L 712.51539 -244.726797 
L 710.224615 -255.184149 
L 707.933841 -271.373748 
L 705.643067 -242.249391 
L 703.352293 -244.68813 
L 701.061518 -251.160609 
L 698.770744 -256.806796 
L 696.47997 -235.998457 
L 694.189196 -250.770198 
L 691.898422 -314.395032 
L 689.607647 -242.959811 
L 687.316873 -212.248688 
L 685.026099 -253.293194 
L 682.735325 -213.624138 
L 680.44455 -245.40959 
L 678.153776 -234.411975 
L 675.863002 -270.340391 
L 673.572228 -277.189264 
L 671.281454 -239.967302 
L 668.990679 -239.528531 
L 666.699905 -260.10708 
L 664.409131 -253.435291 
L 662.118357 -236.804725 
L 659.827582 -234.359551 
L 657.536808 -232.579927 
L 655.246034 -203.743731 
L 652.95526 -220.625475 
L 650.664486 -198.185144 
L 648.373711 -209.831569 
L 646.082937 -212.405014 
L 643.792163 -193.609947 
L 641.501389 -215.796353 
L 639.210614 -213.296177 
L 636.91984 -203.038595 
L 634.629066 -222.425509 
L 632.338292 -213.126455 
L 630.047517 -228.192487 
L 627.756743 -216.832502 
L 625.465969 -199.435843 
L 623.175195 -220.154435 
L 620.884421 -194.612131 
L 618.593646 -211.986335 
L 616.302872 -205.21887 
L 614.012098 -203.32252 
L 611.721324 -224.770545 
L 609.430549 -235.287673 
L 607.139775 -207.384433 
L 604.849001 -202.29886 
L 602.558227 -193.515718 
L 600.267453 -209.602971 
L 597.976678 -212.754547 
L 595.685904 -197.270758 
L 593.39513 -204.429268 
L 591.104356 -204.601309 
L 588.813581 -200.223893 
L 586.522807 -188.071048 
L 584.232033 -197.518169 
L 581.941259 -201.514194 
L 579.650485 -193.632195 
L 577.35971 -205.325261 
L 575.068936 -192.59507 
L 572.778162 -205.536447 
L 570.487388 -183.207249 
L 568.196613 -201.446718 
L 565.905839 -200.318798 
L 563.615065 -210.307078 
L 561.324291 -217.405224 
L 559.033516 -250.807412 
L 556.742742 -227.391679 
L 554.451968 -223.922914 
L 552.161194 -222.744468 
L 549.87042 -220.135039 
L 547.579645 -222.125093 
L 545.288871 -234.767655 
L 542.998097 -232.448675 
L 540.707323 -237.476692 
L 538.416548 -241.113503 
L 536.125774 -237.378004 
L 533.835 -242.965889 
L 531.544226 -230.498246 
L 529.253452 -221.117868 
L 526.962677 -204.117595 
L 524.671903 -228.692392 
L 522.381129 -215.332419 
L 520.090355 -187.150771 
L 517.79958 -201.656276 
L 515.508806 -215.107515 
L 513.218032 -225.825169 
L 510.927258 -205.790085 
L 508.636484 -226.794366 
L 506.345709 -267.156397 
L 504.054935 -367.169422 
L 501.764161 -538.380511 
L 499.473387 -272.073827 
L 497.182612 -305.677024 
L 494.891838 -238.839229 
L 492.601064 -248.735677 
L 490.31029 -268.010274 
L 488.019515 -255.486453 
L 485.728741 -227.345337 
L 483.437967 -241.437159 
L 481.147193 -265.76257 
L 478.856419 -294.402263 
L 476.565644 -266.362729 
L 474.27487 -276.879645 
L 471.984096 -278.500764 
L 469.693322 -245.380753 
L 467.402547 -346.04865 
L 465.111773 -301.73033 
L 462.820999 -473.05024 
L 460.530225 -234.503028 
L 458.239451 -200.597613 
L 455.948676 -234.989029 
L 453.657902 -208.026688 
L 451.367128 -208.220642 
L 449.076354 -230.593592 
L 446.785579 -278.920782 
L 444.494805 -264.899455 
L 442.204031 -251.202481 
L 439.913257 -238.218656 
L 437.622483 -250.602141 
L 435.331708 -240.729102 
L 433.040934 -253.887677 
L 430.75016 -264.728986 
L 428.459386 -241.447438 
L 426.168611 -214.289093 
L 423.877837 -242.807335 
L 421.587063 -217.920862 
L 419.296289 -223.579993 
L 417.005514 -221.864508 
L 414.71474 -260.590785 
L 412.423966 -283.269125 
L 410.133192 -228.733748 
L 407.842418 -222.947053 
L 405.551643 -248.62541 
L 403.260869 -241.141787 
L 400.970095 -193.156871 
L 398.679321 -202.545364 
L 396.388546 -188.590541 
L 394.097772 -182.166774 
L 391.806998 -211.698509 
L 389.516224 -224.386181 
L 387.22545 -208.183483 
L 384.934675 -255.128193 
L 382.643901 -218.951616 
L 380.353127 -231.977591 
L 378.062353 -236.703427 
L 375.771578 -217.411922 
L 373.480804 -207.244001 
L 371.19003 -241.322244 
L 368.899256 -221.406262 
L 366.608482 -222.184757 
L 364.317707 -210.962099 
L 362.026933 -224.740228 
L 359.736159 -226.448392 
L 357.445385 -247.154098 
L 355.15461 -218.101454 
L 352.863836 -230.259548 
L 350.573062 -208.253229 
L 348.282288 -203.311713 
L 345.991513 -235.963151 
L 343.700739 -235.705503 
L 341.409965 -231.061226 
L 339.119191 -263.046282 
L 336.828417 -218.113531 
L 334.537642 -223.829556 
L 332.246868 -228.215201 
L 329.956094 -204.253658 
L 327.66532 -248.592892 
L 325.374545 -201.747464 
L 323.083771 -200.187347 
L 320.792997 -212.17125 
L 318.502223 -222.573577 
L 316.211449 -233.187258 
L 313.920674 -231.222467 
L 311.6299 -194.17604 
L 309.339126 -216.034539 
L 307.048352 -229.784366 
L 304.757577 -205.431072 
L 302.466803 -235.405675 
L 300.176029 -234.819904 
L 297.885255 -198.575647 
L 295.594481 -228.255968 
L 293.303706 -233.584344 
L 291.012932 -235.950334 
L 288.722158 -205.306179 
L 286.431384 -222.383444 
L 284.140609 -198.989694 
L 281.849835 -215.673441 
L 279.559061 -206.4276 
L 277.268287 -233.425541 
L 274.977512 -189.159161 
L 272.686738 -202.150748 
L 270.395964 -252.116936 
L 268.10519 -273.891401 
L 265.814416 -217.898839 
L 263.523641 -233.520041 
L 261.232867 -225.057382 
L 258.942093 -225.204091 
L 256.651319 -220.138449 
L 254.360544 -210.167033 
L 252.06977 -234.890644 
L 249.778996 -210.155976 
L 247.488222 -222.808826 
L 245.197448 -198.82582 
L 242.906673 -219.688317 
L 240.615899 -215.478717 
L 238.325125 -256.501916 
L 236.034351 -204.535296 
L 233.743576 -252.896096 
L 231.452802 -246.128459 
L 229.162028 -255.540027 
L 226.871254 -230.49546 
L 224.58048 -233.303578 
L 222.289705 -267.956015 
L 219.998931 -251.543724 
L 217.708157 -236.327886 
L 215.417383 -202.959429 
L 213.126608 -197.33422 
L 210.835834 -118.677975 
L 208.54506 -257.899422 
L 206.254286 -248.489247 
L 203.963511 -263.8761 
L 201.672737 -253.884337 
L 199.381963 -256.377236 
L 197.091189 -265.571009 
L 194.800415 -250.670765 
L 192.50964 -257.861321 
L 190.218866 -258.9191 
L 187.928092 -227.639697 
L 185.637318 -259.343783 
L 183.346543 -234.910486 
L 181.055769 -238.074287 
L 178.764995 -240.188313 
L 176.474221 -214.727579 
L 174.183447 -230.036704 
L 171.892672 -241.681238 
L 169.601898 -262.483525 
L 167.311124 -228.083862 
L 165.02035 -234.458031 
L 162.729575 -245.580572 
L 160.438801 -270.666928 
L 158.148027 -188.710154 
L 155.857253 -245.101153 
L 153.566479 -211.893891 
L 151.275704 -220.523843 
L 148.98493 -232.730532 
L 146.694156 -227.078674 
L 144.403382 -208.130572 
L 142.112607 -269.926752 
L 139.821833 -203.238736 
L 137.531059 -221.626886 
L 135.240285 -228.361572 
L 132.94951 -271.370131 
L 130.658736 -228.963043 
L 128.367962 -233.591026 
L 126.077188 -249.164165 
L 123.786414 -235.254482 
L 121.495639 -207.639532 
L 119.204865 -259.328485 
L 116.914091 -256.563145 
z
" style="stroke: #edd1cb; stroke-opacity: 0.2"/>
    </defs>
    <g clip-path="url(#p9000753785)">
     <use xlink:href="#mc04fe7414b" x="0" y="576" style="fill: #edd1cb; fill-opacity: 0.2; stroke: #edd1cb; stroke-opacity: 0.2"/>
    </g>
   </g>
   <g id="PolyCollection_2">
    <defs>
     <path id="me1fc72827c" d="M 116.914091 -293.129623 
L 116.914091 -181.950187 
L 119.204865 -184.321407 
L 121.495639 -163.732429 
L 123.786414 -173.569923 
L 126.077188 -169.408513 
L 128.367962 -177.520186 
L 130.658736 -177.437178 
L 132.94951 -171.35688 
L 135.240285 -174.831901 
L 137.531059 -212.228442 
L 139.821833 -190.881361 
L 142.112607 -188.32342 
L 144.403382 -178.586937 
L 146.694156 -176.376627 
L 148.98493 -182.669737 
L 151.275704 -189.468467 
L 153.566479 -182.687883 
L 155.857253 -189.305319 
L 158.148027 -201.170889 
L 160.438801 -201.709355 
L 162.729575 -194.165058 
L 165.02035 -206.418033 
L 167.311124 -197.821362 
L 169.601898 -195.74351 
L 171.892672 -206.277923 
L 174.183447 -198.898894 
L 176.474221 -189.436488 
L 178.764995 -190.549649 
L 181.055769 -187.592421 
L 183.346543 -150.895428 
L 185.637318 -102.406882 
L 187.928092 -143.802976 
L 190.218866 -142.287574 
L 192.50964 -149.952625 
L 194.800415 -144.621353 
L 197.091189 -153.046172 
L 199.381963 -151.593676 
L 201.672737 -172.231538 
L 203.963511 -166.194898 
L 206.254286 -175.885165 
L 208.54506 -169.170058 
L 210.835834 -177.217457 
L 213.126608 -171.718504 
L 215.417383 -161.284131 
L 217.708157 -175.64562 
L 219.998931 -169.458701 
L 222.289705 -168.804701 
L 224.58048 -167.721711 
L 226.871254 -175.683194 
L 229.162028 -188.005509 
L 231.452802 -173.74691 
L 233.743576 -177.886965 
L 236.034351 -179.894882 
L 238.325125 -172.647345 
L 240.615899 -168.54331 
L 242.906673 -167.873526 
L 245.197448 -176.776763 
L 247.488222 -176.3047 
L 249.778996 -168.636712 
L 252.06977 -178.797514 
L 254.360544 -174.981737 
L 256.651319 -170.537803 
L 258.942093 -191.402623 
L 261.232867 -190.660889 
L 263.523641 -172.906499 
L 265.814416 -179.327888 
L 268.10519 -191.229134 
L 270.395964 -181.706203 
L 272.686738 -173.936195 
L 274.977512 -169.460468 
L 277.268287 -175.577876 
L 279.559061 -180.425304 
L 281.849835 -184.067012 
L 284.140609 -175.471558 
L 286.431384 -178.723249 
L 288.722158 -167.177205 
L 291.012932 -171.319485 
L 293.303706 -177.764093 
L 295.594481 -172.987482 
L 297.885255 -171.552047 
L 300.176029 -181.633497 
L 302.466803 -172.916226 
L 304.757577 -161.086169 
L 307.048352 -162.906282 
L 309.339126 -164.387489 
L 311.6299 -159.941495 
L 313.920674 -166.978868 
L 316.211449 -170.940086 
L 318.502223 -164.262319 
L 320.792997 -162.980408 
L 323.083771 -171.305925 
L 325.374545 -165.208311 
L 327.66532 -161.18633 
L 329.956094 -170.094943 
L 332.246868 -173.618938 
L 334.537642 -177.056884 
L 336.828417 -177.266356 
L 339.119191 -184.694549 
L 341.409965 -203.306401 
L 343.700739 -196.841637 
L 345.991513 -191.631957 
L 348.282288 -187.771316 
L 350.573062 -173.047024 
L 352.863836 -183.931029 
L 355.15461 -188.438442 
L 357.445385 -160.791783 
L 359.736159 -177.65427 
L 362.026933 -197.05162 
L 364.317707 -189.669396 
L 366.608482 -175.94314 
L 368.899256 -184.738598 
L 371.19003 -186.846431 
L 373.480804 -202.488229 
L 375.771578 -224.2762 
L 378.062353 -257.214627 
L 380.353127 -246.67909 
L 382.643901 -215.945407 
L 384.934675 -188.863088 
L 387.22545 -161.079138 
L 389.516224 -165.33864 
L 391.806998 -158.923122 
L 394.097772 -165.765944 
L 396.388546 -171.827006 
L 398.679321 -180.290864 
L 400.970095 -179.450227 
L 403.260869 -189.128549 
L 405.551643 -178.482082 
L 407.842418 -174.739217 
L 410.133192 -192.312345 
L 412.423966 -193.410321 
L 414.71474 -197.317152 
L 417.005514 -196.444197 
L 419.296289 -194.381969 
L 421.587063 -172.513391 
L 423.877837 -170.037315 
L 426.168611 -178.337234 
L 428.459386 -197.956273 
L 430.75016 -179.833422 
L 433.040934 -185.290609 
L 435.331708 -178.38649 
L 437.622483 -191.723057 
L 439.913257 -191.548588 
L 442.204031 -174.740237 
L 444.494805 -168.621849 
L 446.785579 -172.354185 
L 449.076354 -175.76772 
L 451.367128 -168.266836 
L 453.657902 -167.340831 
L 455.948676 -158.231187 
L 458.239451 -154.644792 
L 460.530225 -171.714659 
L 462.820999 -253.513003 
L 465.111773 -195.851154 
L 467.402547 -195.835116 
L 469.693322 -177.870833 
L 471.984096 -174.839548 
L 474.27487 -176.950735 
L 476.565644 -196.966204 
L 478.856419 -186.382932 
L 481.147193 -178.608357 
L 483.437967 -182.043456 
L 485.728741 -182.253889 
L 488.019515 -187.571156 
L 490.31029 -195.483398 
L 492.601064 -178.031207 
L 494.891838 -207.723041 
L 497.182612 -237.678526 
L 499.473387 -209.224758 
L 501.764161 -308.575753 
L 504.054935 -222.569158 
L 506.345709 -208.8616 
L 508.636484 -174.830255 
L 510.927258 -177.935398 
L 513.218032 -183.261217 
L 515.508806 -178.697838 
L 517.79958 -177.586971 
L 520.090355 -179.138138 
L 522.381129 -173.347465 
L 524.671903 -173.901276 
L 526.962677 -164.877246 
L 529.253452 -164.73562 
L 531.544226 -175.160678 
L 533.835 -183.372794 
L 536.125774 -170.321136 
L 538.416548 -179.913532 
L 540.707323 -174.212237 
L 542.998097 -174.619968 
L 545.288871 -167.89711 
L 547.579645 -175.079866 
L 549.87042 -178.460292 
L 552.161194 -172.627813 
L 554.451968 -177.387213 
L 556.742742 -176.423467 
L 559.033516 -182.024256 
L 561.324291 -185.336231 
L 563.615065 -185.882594 
L 565.905839 -183.105825 
L 568.196613 -176.178012 
L 570.487388 -174.803337 
L 572.778162 -177.899489 
L 575.068936 -182.691953 
L 577.35971 -181.814479 
L 579.650485 -168.470657 
L 581.941259 -170.832024 
L 584.232033 -170.229355 
L 586.522807 -182.160703 
L 588.813581 -179.69948 
L 591.104356 -165.153502 
L 593.39513 -161.072777 
L 595.685904 -165.475465 
L 597.976678 -175.403358 
L 600.267453 -168.077253 
L 602.558227 -175.289012 
L 604.849001 -181.547659 
L 607.139775 -169.698948 
L 609.430549 -178.761165 
L 611.721324 -165.238282 
L 614.012098 -172.848112 
L 616.302872 -162.537496 
L 618.593646 -177.583406 
L 620.884421 -172.654941 
L 623.175195 -172.708916 
L 625.465969 -169.067292 
L 627.756743 -169.218471 
L 630.047517 -169.244353 
L 632.338292 -164.152342 
L 634.629066 -182.452681 
L 636.91984 -179.6683 
L 639.210614 -169.545364 
L 641.501389 -181.112115 
L 643.792163 -174.226456 
L 646.082937 -166.202076 
L 648.373711 -178.373926 
L 650.664486 -181.506659 
L 652.95526 -178.97849 
L 655.246034 -172.840727 
L 657.536808 -182.597336 
L 659.827582 -189.025599 
L 662.118357 -180.464552 
L 664.409131 -181.676103 
L 666.699905 -189.977482 
L 668.990679 -188.623299 
L 671.281454 -182.209633 
L 673.572228 -187.812055 
L 675.863002 -190.888487 
L 678.153776 -191.25207 
L 680.44455 -186.802758 
L 682.735325 -200.58639 
L 685.026099 -196.375154 
L 687.316873 -212.791506 
L 689.607647 -207.388622 
L 691.898422 -197.307917 
L 694.189196 -183.481341 
L 696.47997 -175.639557 
L 698.770744 -177.634701 
L 701.061518 -180.695905 
L 703.352293 -182.002033 
L 705.643067 -179.71405 
L 707.933841 -179.014223 
L 710.224615 -191.106151 
L 712.51539 -168.826159 
L 714.806164 -182.866164 
L 717.096938 -172.254436 
L 719.387712 -181.314398 
L 721.678487 -186.98858 
L 723.969261 -189.975186 
L 726.260035 -175.549492 
L 728.550809 -180.288735 
L 730.841583 -189.374862 
L 733.132358 -183.005684 
L 735.423132 -186.146427 
L 737.713906 -181.016209 
L 740.00468 -178.006866 
L 742.295455 -175.702172 
L 744.586229 -161.466782 
L 746.877003 -167.414869 
L 749.167777 -164.890113 
L 751.458551 -165.88354 
L 753.749326 -165.027627 
L 756.0401 -176.243921 
L 758.330874 -185.6364 
L 760.621648 -179.715963 
L 762.912423 -180.132799 
L 765.203197 -168.090172 
L 767.493971 -173.219984 
L 769.784745 -173.765701 
L 772.075519 -165.227513 
L 774.366294 -165.304486 
L 776.657068 -164.37477 
L 778.947842 -164.619515 
L 781.238616 -170.567321 
L 783.529391 -162.247906 
L 785.820165 -176.801911 
L 788.110939 -188.82678 
L 790.401713 -169.895005 
L 792.692488 -156.225466 
L 794.983262 -172.892914 
L 797.274036 -168.550094 
L 799.56481 -171.226686 
L 801.855584 -169.531376 
L 804.146359 -169.132511 
L 806.437133 -154.759276 
L 808.727907 -148.206252 
L 811.018681 -175.756522 
L 813.309456 -248.219786 
L 815.60023 -211.001891 
L 817.891004 -196.401847 
L 820.181778 -179.794531 
L 822.472552 -164.488291 
L 824.763327 -179.706348 
L 827.054101 -171.752067 
L 829.344875 -184.168986 
L 831.635649 -157.412937 
L 833.926424 -182.922285 
L 836.217198 -252.407434 
L 838.507972 -218.746297 
L 840.798746 -192.409498 
L 843.08952 -172.783866 
L 845.380295 -163.723368 
L 847.671069 -154.117065 
L 849.961843 -157.675146 
L 852.252617 -156.714392 
L 854.543392 -155.978707 
L 856.834166 -161.534774 
L 859.12494 -155.434788 
L 861.415714 -146.155967 
L 863.706489 -141.740399 
L 865.997263 -151.696764 
L 868.288037 -131.520207 
L 870.578811 -127.394337 
L 872.869585 -126.434229 
L 875.16036 -120.299887 
L 877.451134 -115.076517 
L 879.741908 -111.433793 
L 882.032682 -152.456967 
L 884.323457 -141.882025 
L 886.614231 -145.044075 
L 888.905005 -157.634679 
L 891.195779 -159.691287 
L 893.486553 -165.271736 
L 895.777328 -152.675355 
L 898.068102 -150.795665 
L 900.358876 -160.691172 
L 902.64965 -158.946424 
L 904.940425 -167.531879 
L 907.231199 -162.989978 
L 909.521973 -149.293802 
L 911.812747 -146.671884 
L 914.103521 -147.498314 
L 916.394296 -157.366621 
L 918.68507 -158.137749 
L 920.975844 -162.687794 
L 923.266618 -162.472384 
L 925.557393 -160.524256 
L 927.848167 -160.510791 
L 930.138941 -160.021855 
L 932.429715 -163.248375 
L 934.72049 -153.105686 
L 937.011264 -158.655088 
L 939.302038 -161.422613 
L 941.592812 -159.112297 
L 943.883586 -157.7696 
L 946.174361 -159.510499 
L 948.465135 -167.950679 
L 950.755909 -161.778406 
L 950.755909 -212.313154 
L 950.755909 -212.313154 
L 948.465135 -243.374775 
L 946.174361 -203.173851 
L 943.883586 -209.787218 
L 941.592812 -217.797618 
L 939.302038 -210.681777 
L 937.011264 -208.293162 
L 934.72049 -203.370893 
L 932.429715 -213.033631 
L 930.138941 -209.703872 
L 927.848167 -217.051955 
L 925.557393 -218.358192 
L 923.266618 -219.129617 
L 920.975844 -220.860317 
L 918.68507 -209.068872 
L 916.394296 -201.311174 
L 914.103521 -188.907141 
L 911.812747 -192.365932 
L 909.521973 -195.829669 
L 907.231199 -218.174001 
L 904.940425 -230.801614 
L 902.64965 -212.741826 
L 900.358876 -210.939536 
L 898.068102 -188.411663 
L 895.777328 -193.265331 
L 893.486553 -212.313223 
L 891.195779 -215.07808 
L 888.905005 -210.603641 
L 886.614231 -198.89985 
L 884.323457 -202.161744 
L 882.032682 -223.245268 
L 879.741908 -132.473413 
L 877.451134 -149.464571 
L 875.16036 -153.973685 
L 872.869585 -163.876011 
L 870.578811 -175.439005 
L 868.288037 -166.67583 
L 865.997263 -196.423638 
L 863.706489 -183.238114 
L 861.415714 -192.100002 
L 859.12494 -201.618132 
L 856.834166 -206.886508 
L 854.543392 -215.398124 
L 852.252617 -200.12703 
L 849.961843 -237.044472 
L 847.671069 -199.382757 
L 845.380295 -207.938165 
L 843.08952 -230.607111 
L 840.798746 -276.464365 
L 838.507972 -313.462378 
L 836.217198 -391.98762 
L 833.926424 -266.730894 
L 831.635649 -209.56347 
L 829.344875 -256.607242 
L 827.054101 -240.732427 
L 824.763327 -272.405732 
L 822.472552 -238.255316 
L 820.181778 -275.314486 
L 817.891004 -276.347194 
L 815.60023 -300.063725 
L 813.309456 -353.70962 
L 811.018681 -243.580451 
L 808.727907 -195.297497 
L 806.437133 -203.425425 
L 804.146359 -237.148937 
L 801.855584 -259.364233 
L 799.56481 -241.816197 
L 797.274036 -233.319319 
L 794.983262 -257.767195 
L 792.692488 -240.62036 
L 790.401713 -235.355923 
L 788.110939 -285.535296 
L 785.820165 -240.937051 
L 783.529391 -218.130511 
L 781.238616 -244.276017 
L 778.947842 -233.990775 
L 776.657068 -230.816334 
L 774.366294 -231.412749 
L 772.075519 -238.84225 
L 769.784745 -261.584292 
L 767.493971 -234.721062 
L 765.203197 -240.494064 
L 762.912423 -257.570056 
L 760.621648 -262.018985 
L 758.330874 -292.422682 
L 756.0401 -247.394012 
L 753.749326 -235.80414 
L 751.458551 -233.708193 
L 749.167777 -225.413528 
L 746.877003 -238.553933 
L 744.586229 -223.682758 
L 742.295455 -246.103854 
L 740.00468 -253.429186 
L 737.713906 -254.674797 
L 735.423132 -267.912558 
L 733.132358 -269.850136 
L 730.841583 -298.773276 
L 728.550809 -260.909292 
L 726.260035 -287.799583 
L 723.969261 -275.894679 
L 721.678487 -288.463418 
L 719.387712 -253.769866 
L 717.096938 -232.118127 
L 714.806164 -257.868036 
L 712.51539 -234.998746 
L 710.224615 -292.839213 
L 707.933841 -277.494855 
L 705.643067 -253.427415 
L 703.352293 -277.880164 
L 701.061518 -261.19285 
L 698.770744 -257.448045 
L 696.47997 -251.548978 
L 694.189196 -291.494219 
L 691.898422 -280.739894 
L 689.607647 -318.185114 
L 687.316873 -308.063478 
L 685.026099 -297.607101 
L 682.735325 -291.50968 
L 680.44455 -266.441376 
L 678.153776 -274.828444 
L 675.863002 -276.677357 
L 673.572228 -267.090876 
L 671.281454 -253.904069 
L 668.990679 -276.296252 
L 666.699905 -309.644698 
L 664.409131 -258.929815 
L 662.118357 -249.932819 
L 659.827582 -277.774835 
L 657.536808 -255.319132 
L 655.246034 -247.147824 
L 652.95526 -245.488733 
L 650.664486 -267.193373 
L 648.373711 -257.598624 
L 646.082937 -236.329849 
L 643.792163 -287.200336 
L 641.501389 -266.336028 
L 639.210614 -228.89198 
L 636.91984 -291.776365 
L 634.629066 -263.978821 
L 632.338292 -236.810932 
L 630.047517 -232.431154 
L 627.756743 -236.305688 
L 625.465969 -229.600809 
L 623.175195 -241.144311 
L 620.884421 -235.206622 
L 618.593646 -272.382223 
L 616.302872 -228.85912 
L 614.012098 -250.48383 
L 611.721324 -230.952777 
L 609.430549 -258.346675 
L 607.139775 -231.422875 
L 604.849001 -272.529443 
L 602.558227 -237.889673 
L 600.267453 -236.472375 
L 597.976678 -248.518102 
L 595.685904 -231.78162 
L 593.39513 -223.787124 
L 591.104356 -231.5743 
L 588.813581 -252.226665 
L 586.522807 -256.064295 
L 584.232033 -232.855942 
L 581.941259 -244.222994 
L 579.650485 -240.425171 
L 577.35971 -254.667888 
L 575.068936 -258.961035 
L 572.778162 -242.224903 
L 570.487388 -244.871303 
L 568.196613 -237.700652 
L 565.905839 -258.40239 
L 563.615065 -257.423493 
L 561.324291 -251.215546 
L 559.033516 -247.967977 
L 556.742742 -267.383594 
L 554.451968 -247.682433 
L 552.161194 -246.097825 
L 549.87042 -248.314884 
L 547.579645 -235.014038 
L 545.288871 -232.4165 
L 542.998097 -244.121385 
L 540.707323 -246.233777 
L 538.416548 -252.654215 
L 536.125774 -236.673511 
L 533.835 -259.821052 
L 531.544226 -239.572171 
L 529.253452 -230.010953 
L 526.962677 -237.184363 
L 524.671903 -250.607249 
L 522.381129 -236.407524 
L 520.090355 -271.669804 
L 517.79958 -248.432486 
L 515.508806 -244.389971 
L 513.218032 -295.080386 
L 510.927258 -251.038506 
L 508.636484 -249.24541 
L 506.345709 -313.151689 
L 504.054935 -335.037026 
L 501.764161 -461.211217 
L 499.473387 -296.788515 
L 497.182612 -341.232743 
L 494.891838 -322.040468 
L 492.601064 -246.901175 
L 490.31029 -271.634712 
L 488.019515 -275.043051 
L 485.728741 -282.314368 
L 483.437967 -248.42672 
L 481.147193 -251.138196 
L 478.856419 -248.728979 
L 476.565644 -310.84279 
L 474.27487 -240.303766 
L 471.984096 -247.234702 
L 469.693322 -262.682229 
L 467.402547 -281.754132 
L 465.111773 -306.178153 
L 462.820999 -409.888387 
L 460.530225 -232.808942 
L 458.239451 -207.723744 
L 455.948676 -224.267077 
L 453.657902 -232.679009 
L 451.367128 -228.77135 
L 449.076354 -245.577743 
L 446.785579 -280.600063 
L 444.494805 -240.281756 
L 442.204031 -269.037109 
L 439.913257 -284.560559 
L 437.622483 -281.290702 
L 435.331708 -258.075488 
L 433.040934 -307.638122 
L 430.75016 -265.085358 
L 428.459386 -327.023492 
L 426.168611 -280.398639 
L 423.877837 -240.651777 
L 421.587063 -267.319586 
L 419.296289 -302.11753 
L 417.005514 -281.035596 
L 414.71474 -286.982804 
L 412.423966 -272.715656 
L 410.133192 -281.916074 
L 407.842418 -283.382895 
L 405.551643 -258.029081 
L 403.260869 -287.885258 
L 400.970095 -271.301167 
L 398.679321 -267.963406 
L 396.388546 -246.738157 
L 394.097772 -223.465688 
L 391.806998 -223.999789 
L 389.516224 -237.418672 
L 387.22545 -236.941511 
L 384.934675 -300.653769 
L 382.643901 -342.800641 
L 380.353127 -382.824282 
L 378.062353 -399.246699 
L 375.771578 -336.20403 
L 373.480804 -300.461506 
L 371.19003 -271.338542 
L 368.899256 -265.230906 
L 366.608482 -250.847776 
L 364.317707 -293.818475 
L 362.026933 -306.019261 
L 359.736159 -286.703606 
L 357.445385 -232.389766 
L 355.15461 -301.03212 
L 352.863836 -305.401412 
L 350.573062 -248.281892 
L 348.282288 -312.821691 
L 345.991513 -282.438174 
L 343.700739 -313.732494 
L 341.409965 -291.210486 
L 339.119191 -266.542729 
L 336.828417 -257.276949 
L 334.537642 -255.394606 
L 332.246868 -246.097645 
L 329.956094 -244.720803 
L 327.66532 -227.303171 
L 325.374545 -233.949458 
L 323.083771 -245.049449 
L 320.792997 -231.342258 
L 318.502223 -250.850191 
L 316.211449 -279.924795 
L 313.920674 -279.729295 
L 311.6299 -231.105355 
L 309.339126 -236.434546 
L 307.048352 -225.982733 
L 304.757577 -218.717673 
L 302.466803 -265.864122 
L 300.176029 -259.827899 
L 297.885255 -260.027148 
L 295.594481 -237.80268 
L 293.303706 -256.165696 
L 291.012932 -269.302534 
L 288.722158 -262.204022 
L 286.431384 -286.341699 
L 284.140609 -263.40344 
L 281.849835 -301.340783 
L 279.559061 -247.589583 
L 277.268287 -251.104621 
L 274.977512 -259.803029 
L 272.686738 -256.428669 
L 270.395964 -287.12053 
L 268.10519 -293.700799 
L 265.814416 -244.270864 
L 263.523641 -267.538716 
L 261.232867 -285.875898 
L 258.942093 -278.8224 
L 256.651319 -237.306207 
L 254.360544 -275.130898 
L 252.06977 -292.302717 
L 249.778996 -242.317264 
L 247.488222 -251.705276 
L 245.197448 -264.061178 
L 242.906673 -246.487339 
L 240.615899 -236.442832 
L 238.325125 -281.088395 
L 236.034351 -263.366377 
L 233.743576 -263.587054 
L 231.452802 -240.643801 
L 229.162028 -281.763511 
L 226.871254 -272.117743 
L 224.58048 -277.486175 
L 222.289705 -251.756785 
L 219.998931 -237.296908 
L 217.708157 -264.076403 
L 215.417383 -251.478334 
L 213.126608 -242.975864 
L 210.835834 -275.772558 
L 208.54506 -233.556494 
L 206.254286 -292.829766 
L 203.963511 -237.618288 
L 201.672737 -291.56969 
L 199.381963 -215.489345 
L 197.091189 -217.060423 
L 194.800415 -199.107595 
L 192.50964 -215.539144 
L 190.218866 -209.646366 
L 187.928092 -199.989949 
L 185.637318 -124.408876 
L 183.346543 -232.240086 
L 181.055769 -301.756107 
L 178.764995 -295.727981 
L 176.474221 -293.778211 
L 174.183447 -311.593852 
L 171.892672 -301.942288 
L 169.601898 -295.232277 
L 167.311124 -298.391751 
L 165.02035 -334.545089 
L 162.729575 -290.76748 
L 160.438801 -323.313163 
L 158.148027 -306.94637 
L 155.857253 -280.887996 
L 153.566479 -293.548678 
L 151.275704 -282.189367 
L 148.98493 -266.712213 
L 146.694156 -277.031196 
L 144.403382 -288.266498 
L 142.112607 -305.987158 
L 139.821833 -299.157921 
L 137.531059 -330.945931 
L 135.240285 -240.674494 
L 132.94951 -241.793556 
L 130.658736 -255.666067 
L 128.367962 -281.948899 
L 126.077188 -273.56187 
L 123.786414 -293.617189 
L 121.495639 -271.39249 
L 119.204865 -297.174001 
L 116.914091 -293.129623 
z
" style="stroke: #2d1e3e; stroke-opacity: 0.2"/>
    </defs>
    <g clip-path="url(#p9000753785)">
     <use xlink:href="#me1fc72827c" x="0" y="576" style="fill: #2d1e3e; fill-opacity: 0.2; stroke: #2d1e3e; stroke-opacity: 0.2"/>
    </g>
   </g>
   <g id="line2d_1">
    <path d="M 116.914091 364.845472 
L 119.204865 366.945784 
L 121.495639 404.038879 
L 123.786414 391.394225 
L 126.077188 391.06934 
L 128.367962 382.122282 
L 130.658736 394.317338 
L 132.94951 362.952006 
L 135.240285 392.306448 
L 137.531059 393.140636 
L 139.821833 405.445079 
L 142.112607 372.400954 
L 144.403382 404.286888 
L 146.694156 391.801538 
L 148.98493 386.083537 
L 151.275704 388.933665 
L 153.566479 400.384802 
L 155.857253 383.454924 
L 158.148027 413.706802 
L 160.438801 363.244342 
L 162.729575 381.527097 
L 165.02035 381.417134 
L 167.311124 383.078948 
L 169.601898 366.1893 
L 171.892672 378.352776 
L 174.183447 389.107346 
L 176.474221 395.704115 
L 178.764995 386.298183 
L 181.055769 380.383391 
L 183.346543 380.806191 
L 185.637318 375.447794 
L 187.928092 384.14265 
L 190.218866 366.332957 
L 192.50964 375.296438 
L 194.800415 375.23063 
L 197.091189 367.676502 
L 199.381963 368.976669 
L 201.672737 367.113162 
L 203.963511 366.516417 
L 206.254286 374.618233 
L 208.54506 379.269478 
L 210.835834 470.329858 
L 213.126608 416.511472 
L 215.417383 413.867384 
L 217.708157 397.75092 
L 219.998931 383.005683 
L 222.289705 378.1838 
L 224.58048 398.227475 
L 226.871254 389.761639 
L 229.162028 383.742593 
L 231.452802 382.34511 
L 233.743576 386.397437 
L 236.034351 403.747103 
L 238.325125 385.006114 
L 240.615899 397.270349 
L 242.906673 397.072303 
L 245.197448 409.505314 
L 247.488222 391.818079 
L 249.778996 399.733969 
L 252.06977 387.579813 
L 254.360544 397.574554 
L 256.651319 392.651879 
L 258.942093 394.216484 
L 261.232867 386.517085 
L 263.523641 391.524117 
L 265.814416 399.020314 
L 268.10519 368.206077 
L 270.395964 386.693845 
L 272.686738 407.240551 
L 274.977512 412.217617 
L 277.268287 393.254743 
L 279.559061 402.295217 
L 281.849835 399.403555 
L 284.140609 406.586932 
L 286.431384 396.783674 
L 288.722158 401.006848 
L 291.012932 387.283699 
L 293.303706 390.241832 
L 295.594481 387.113973 
L 297.885255 408.667808 
L 300.176029 394.90173 
L 302.466803 388.533371 
L 304.757577 402.577626 
L 307.048352 387.167305 
L 309.339126 400.037797 
L 311.6299 409.51551 
L 313.920674 387.673698 
L 316.211449 391.335186 
L 318.502223 394.325862 
L 320.792997 399.81247 
L 323.083771 407.291998 
L 325.374545 402.234926 
L 327.66532 394.065415 
L 329.956094 406.828853 
L 332.246868 393.757196 
L 334.537642 391.004543 
L 336.828417 392.15691 
L 339.119191 380.982801 
L 341.409965 391.359434 
L 343.700739 391.243147 
L 345.991513 399.251267 
L 348.282288 401.353402 
L 350.573062 399.629699 
L 352.863836 393.248731 
L 355.15461 400.076057 
L 357.445385 387.284454 
L 359.736159 391.638668 
L 362.026933 398.4352 
L 364.317707 400.277771 
L 366.608482 387.145429 
L 368.899256 393.134227 
L 371.19003 384.541804 
L 373.480804 400.344624 
L 375.771578 394.609351 
L 378.062353 377.278561 
L 380.353127 390.127051 
L 382.643901 393.960738 
L 384.934675 384.046202 
L 387.22545 399.888526 
L 389.516224 403.008631 
L 391.806998 401.793925 
L 394.097772 419.387781 
L 396.388546 417.5568 
L 398.679321 405.340609 
L 400.970095 410.463991 
L 403.260869 380.015704 
L 405.551643 378.558064 
L 407.842418 388.749825 
L 410.133192 388.372227 
L 412.423966 360.688826 
L 414.71474 374.458456 
L 417.005514 395.765306 
L 419.296289 393.470542 
L 421.587063 393.994417 
L 423.877837 380.251836 
L 426.168611 398.760062 
L 428.459386 377.380215 
L 430.75016 372.14672 
L 433.040934 375.451206 
L 435.331708 384.345518 
L 437.622483 382.240635 
L 439.913257 388.240786 
L 442.204031 379.032279 
L 444.494805 364.065942 
L 446.785579 365.488145 
L 449.076354 384.512133 
L 451.367128 399.380079 
L 453.657902 398.286412 
L 455.948676 386.494556 
L 458.239451 407.910226 
L 460.530225 387.086531 
L 462.820999 217.041283 
L 465.111773 330.682377 
L 467.402547 321.883003 
L 469.693322 375.063885 
L 471.984096 359.768754 
L 474.27487 357.529918 
L 476.565644 361.905302 
L 478.856419 345.810392 
L 481.147193 368.698483 
L 483.437967 383.776519 
L 485.728741 385.844019 
L 488.019515 380.487728 
L 490.31029 369.738873 
L 492.601064 380.436774 
L 494.891838 382.183417 
L 497.182612 325.261537 
L 499.473387 353.543369 
L 501.764161 156.587094 
L 504.054935 293.68749 
L 506.345709 366.606469 
L 508.636484 386.296673 
L 510.927258 398.957635 
L 513.218032 398.018379 
L 515.508806 396.074221 
L 520.090355 413.633484 
L 522.381129 398.2751 
L 524.671903 391.375023 
L 526.962677 401.554548 
L 529.253452 390.51557 
L 531.544226 391.047395 
L 533.835 380.807525 
L 536.125774 388.353034 
L 538.416548 379.858818 
L 540.707323 389.555809 
L 542.998097 391.50513 
L 545.288871 386.084207 
L 549.87042 397.418971 
L 552.161194 391.993935 
L 556.742742 393.007603 
L 559.033516 376.63275 
L 561.324291 399.698564 
L 563.615065 402.698791 
L 565.905839 404.053507 
L 568.196613 406.081715 
L 570.487388 415.91148 
L 572.778162 406.749625 
L 575.068936 410.498792 
L 577.35971 402.32407 
L 579.650485 412.320992 
L 581.941259 406.704303 
L 584.232033 410.473646 
L 586.522807 412.95716 
L 588.813581 406.88922 
L 591.104356 399.662421 
L 593.39513 404.085756 
L 595.685904 407.349367 
L 597.976678 401.625458 
L 600.267453 400.901178 
L 602.558227 411.777974 
L 604.849001 403.190659 
L 607.139775 402.363978 
L 609.430549 386.664657 
L 611.721324 392.388072 
L 614.012098 404.341844 
L 616.302872 402.273311 
L 618.593646 397.181045 
L 620.884421 406.906943 
L 623.175195 396.225267 
L 625.465969 405.169544 
L 627.756743 395.157545 
L 630.047517 387.462348 
L 632.338292 401.146488 
L 634.629066 391.10566 
L 636.91984 402.602873 
L 639.210614 398.61992 
L 641.501389 395.336527 
L 643.792163 407.758427 
L 646.082937 400.236333 
L 648.373711 401.900854 
L 650.664486 406.358813 
L 652.95526 393.560968 
L 655.246034 402.539485 
L 657.536808 387.148965 
L 659.827582 383.182998 
L 662.118357 384.407523 
L 664.409131 374.20637 
L 666.699905 377.17714 
L 668.990679 380.353533 
L 671.281454 380.624091 
L 673.572228 360.356843 
L 675.863002 366.15369 
L 678.153776 384.772957 
L 680.44455 379.361143 
L 682.735325 399.43874 
L 685.026099 373.579084 
L 687.316873 395.679423 
L 689.607647 382.49053 
L 691.898422 338.579974 
L 694.189196 378.781774 
L 696.47997 387.021198 
L 698.770744 379.735954 
L 701.061518 367.603939 
L 705.643067 382.249639 
L 707.933841 364.644428 
L 710.224615 375.874588 
L 712.51539 376.049582 
L 714.806164 372.625599 
L 717.096938 383.888923 
L 719.387712 401.617927 
L 721.678487 380.7934 
L 723.969261 378.059122 
L 726.260035 376.49848 
L 728.550809 390.717527 
L 730.841583 377.565252 
L 733.132358 388.986392 
L 735.423132 374.027534 
L 737.713906 387.620159 
L 740.00468 402.248573 
L 742.295455 393.107619 
L 744.586229 405.505517 
L 746.877003 407.10129 
L 749.167777 411.305735 
L 751.458551 412.240354 
L 753.749326 385.059275 
L 756.0401 411.262624 
L 758.330874 381.002335 
L 760.621648 388.85583 
L 762.912423 389.273457 
L 765.203197 384.583119 
L 767.493971 393.748595 
L 769.784745 393.443637 
L 772.075519 396.995173 
L 774.366294 380.270061 
L 776.657068 393.678955 
L 778.947842 397.627835 
L 781.238616 382.850193 
L 783.529391 372.897586 
L 785.820165 339.005005 
L 788.110939 348.002777 
L 790.401713 330.928771 
L 792.692488 348.447134 
L 794.983262 371.504414 
L 797.274036 361.095323 
L 799.56481 355.367398 
L 801.855584 354.512512 
L 804.146359 355.704458 
L 806.437133 374.389024 
L 808.727907 380.759072 
L 811.018681 360.876276 
L 813.309456 262.832972 
L 815.60023 289.891679 
L 817.891004 269.256659 
L 820.181778 252.021242 
L 822.472552 309.087501 
L 824.763327 322.682068 
L 827.054101 351.955322 
L 829.344875 309.181799 
L 831.635649 344.429476 
L 833.926424 381.506982 
L 836.217198 204.829642 
L 838.507972 293.099606 
L 843.08952 338.036664 
L 845.380295 372.757153 
L 847.671069 393.346873 
L 849.961843 373.18474 
L 852.252617 376.079456 
L 854.543392 363.675394 
L 856.834166 371.017158 
L 859.12494 375.431647 
L 861.415714 352.507138 
L 863.706489 369.607665 
L 865.997263 372.669448 
L 868.288037 387.193454 
L 870.578811 381.050365 
L 872.869585 373.841047 
L 875.16036 365.714165 
L 877.451134 359.549104 
L 879.741908 371.36679 
L 882.032682 363.391187 
L 884.323457 374.207226 
L 886.614231 363.944318 
L 888.905005 364.83627 
L 891.195779 376.597224 
L 893.486553 377.191992 
L 895.777328 358.903162 
L 898.068102 372.710886 
L 900.358876 368.18118 
L 902.64965 346.208168 
L 904.940425 327.749632 
L 907.231199 214.910681 
L 909.521973 328.019229 
L 911.812747 367.05601 
L 914.103521 366.274847 
L 916.394296 366.251933 
L 918.68507 380.839838 
L 920.975844 352.508249 
L 923.266618 362.056073 
L 925.557393 368.597122 
L 927.848167 348.41901 
L 930.138941 360.538575 
L 932.429715 359.018014 
L 934.72049 349.263186 
L 937.011264 372.161284 
L 939.302038 358.549338 
L 941.592812 372.622321 
L 943.883586 353.991129 
L 946.174361 353.012126 
L 948.465135 355.712206 
L 950.755909 355.996226 
L 950.755909 355.996226 
" clip-path="url(#p9000753785)" style="fill: none; stroke: #edd1cb; stroke-width: 1.5; stroke-linecap: round"/>
   </g>
   <g id="line2d_2">
    <path d="M 116.914091 343.70455 
L 119.204865 341.659697 
L 121.495639 366.64318 
L 123.786414 352.678863 
L 126.077188 362.08062 
L 128.367962 353.859965 
L 130.658736 361.183469 
L 132.94951 373.95089 
L 135.240285 370.620774 
L 137.531059 307.655612 
L 139.821833 338.518057 
L 142.112607 338.035023 
L 144.403382 350.550928 
L 146.694156 355.513808 
L 148.98493 355.657465 
L 151.275704 341.925635 
L 153.566479 345.177472 
L 155.857253 344.656201 
L 158.148027 328.034691 
L 160.438801 320.194627 
L 162.729575 337.668454 
L 165.02035 313.225829 
L 167.311124 330.208155 
L 169.601898 335.568419 
L 171.892672 326.054499 
L 174.183447 330.615992 
L 176.474221 339.550112 
L 178.764995 340.686894 
L 181.055769 337.070951 
L 183.346543 391.431839 
L 185.637318 463.251931 
L 187.928092 406.25208 
L 190.218866 405.465513 
L 192.50964 396.412421 
L 194.800415 405.988715 
L 197.091189 392.951447 
L 199.381963 394.541326 
L 201.672737 354.537925 
L 203.963511 377.981252 
L 206.254286 351.740727 
L 208.54506 377.58818 
L 210.835834 355.748225 
L 213.126608 371.983985 
L 215.417383 378.658047 
L 217.708157 360.908447 
L 219.998931 374.309976 
L 222.289705 369.759118 
L 224.58048 359.728952 
L 226.871254 359.558011 
L 229.162028 342.638005 
L 231.452802 370.664903 
L 233.743576 359.921584 
L 236.034351 355.59679 
L 238.325125 356.882357 
L 240.615899 375.042173 
L 242.906673 370.721591 
L 245.197448 356.690721 
L 247.488222 365.361507 
L 249.778996 371.879294 
L 252.06977 349.202661 
L 254.360544 359.703717 
L 256.651319 374.832831 
L 258.942093 345.721647 
L 261.232867 338.936398 
L 263.523641 361.132781 
L 265.814416 366.459857 
L 268.10519 338.062015 
L 270.395964 346.923022 
L 272.686738 367.181031 
L 274.977512 364.827417 
L 277.268287 364.865301 
L 279.559061 363.697552 
L 281.849835 342.478717 
L 284.140609 359.599889 
L 286.431384 352.660415 
L 288.722158 367.463828 
L 291.012932 360.836098 
L 293.303706 359.902644 
L 295.594481 373.080217 
L 297.885255 363.874961 
L 300.176029 359.065469 
L 302.466803 363.737636 
L 304.757577 387.628434 
L 307.048352 385.066019 
L 309.339126 378.018613 
L 311.6299 382.355111 
L 313.920674 360.393376 
L 316.211449 360.496121 
L 318.502223 374.940305 
L 320.792997 381.151668 
L 323.083771 370.923731 
L 327.66532 382.413883 
L 329.956094 371.606858 
L 332.246868 369.755762 
L 334.537642 361.743274 
L 336.828417 360.031427 
L 339.119191 355.395444 
L 341.409965 334.60405 
L 343.700739 330.411783 
L 345.991513 342.658117 
L 348.282288 333.483969 
L 350.573062 368.857229 
L 352.863836 339.228442 
L 355.15461 338.88067 
L 357.445385 381.596001 
L 359.736159 351.376614 
L 362.026933 329.098903 
L 364.317707 340.997895 
L 366.608482 366.796761 
L 368.899256 354.797513 
L 371.19003 350.040506 
L 373.480804 326.62588 
L 375.771578 300.841041 
L 378.062353 254.629388 
L 380.353127 266.446976 
L 384.934675 335.6704 
L 387.22545 381.04596 
L 389.516224 376.226105 
L 391.806998 386.11811 
L 394.097772 383.137419 
L 396.388546 367.432624 
L 398.679321 356.308059 
L 400.970095 356.409145 
L 403.260869 341.893271 
L 405.551643 361.229509 
L 407.842418 354.347489 
L 410.133192 341.584424 
L 412.423966 345.365866 
L 414.71474 337.340754 
L 417.005514 337.8357 
L 419.296289 335.565627 
L 421.587063 361.434143 
L 423.877837 373.300065 
L 426.168611 351.240868 
L 428.459386 323.879569 
L 430.75016 356.76425 
L 433.040934 335.527179 
L 435.331708 359.604614 
L 437.622483 345.156177 
L 439.913257 341.145001 
L 442.204031 358.672313 
L 444.494805 374.43284 
L 446.785579 356.535824 
L 451.367128 379.258118 
L 453.657902 378.836209 
L 455.948676 388.661436 
L 458.239451 397.943703 
L 460.530225 374.736819 
L 462.820999 252.538408 
L 465.111773 331.994725 
L 467.402547 337.454728 
L 469.693322 358.788519 
L 471.984096 367.133357 
L 474.27487 367.717503 
L 476.565644 329.760212 
L 478.856419 358.979523 
L 481.147193 363.832752 
L 483.437967 361.718394 
L 485.728741 346.504862 
L 488.019515 348.000677 
L 490.31029 346.993511 
L 492.601064 365.716169 
L 494.891838 319.827006 
L 497.182612 292.101887 
L 499.473387 325.792662 
L 501.764161 200.858638 
L 504.054935 298.910234 
L 506.345709 318.799111 
L 508.636484 366.791687 
L 510.927258 365.306311 
L 513.218032 348.250525 
L 515.508806 366.321658 
L 517.79958 367.185243 
L 520.090355 355.621215 
L 522.381129 372.340886 
L 524.671903 366.010809 
L 526.962677 376.04893 
L 529.253452 379.915649 
L 531.544226 370.590586 
L 533.835 357.638297 
L 536.125774 373.442349 
L 538.416548 361.006934 
L 540.707323 368.614584 
L 542.998097 367.857957 
L 545.288871 378.697945 
L 547.579645 372.787415 
L 549.87042 364.418024 
L 552.161194 367.642001 
L 554.451968 365.125899 
L 556.742742 360.833838 
L 559.033516 363.242121 
L 561.324291 357.575909 
L 563.615065 357.430307 
L 565.905839 357.636461 
L 568.196613 371.820822 
L 570.487388 367.849205 
L 572.778162 368.149981 
L 575.068936 357.818527 
L 577.35971 358.566135 
L 579.650485 376.009414 
L 581.941259 371.526986 
L 584.232033 375.405728 
L 586.522807 359.329233 
L 588.813581 359.930531 
L 591.104356 380.213464 
L 593.39513 385.953887 
L 595.685904 378.740687 
L 597.976678 367.296264 
L 600.267453 375.815746 
L 602.558227 372.349082 
L 604.849001 350.258854 
L 607.139775 377.286885 
L 609.430549 360.460847 
L 611.721324 381.763901 
L 614.012098 368.927083 
L 616.302872 383.014938 
L 618.593646 355.548634 
L 620.884421 374.058215 
L 623.175195 371.255617 
L 625.465969 378.770554 
L 627.756743 374.862733 
L 630.047517 378.530482 
L 632.338292 377.297142 
L 634.629066 357.394426 
L 636.91984 349.280409 
L 639.210614 377.382312 
L 641.501389 356.98245 
L 643.792163 355.196439 
L 646.082937 377.010947 
L 648.373711 362.119878 
L 650.664486 352.473694 
L 652.95526 366.448188 
L 655.246034 368.541416 
L 657.536808 361.467181 
L 659.827582 349.511317 
L 662.118357 364.115623 
L 664.409131 359.184279 
L 666.699905 333.11724 
L 671.281454 358.207684 
L 673.572228 349.715286 
L 675.863002 342.976649 
L 678.153776 348.219886 
L 680.44455 352.918578 
L 682.735325 333.782858 
L 685.026099 333.445383 
L 687.316873 318.122924 
L 689.607647 318.584719 
L 691.898422 340.659734 
L 694.189196 347.032673 
L 696.47997 364.89814 
L 698.770744 362.261376 
L 701.061518 355.737981 
L 703.352293 352.481159 
L 705.643067 363.95769 
L 707.933841 353.837297 
L 710.224615 336.664283 
L 712.51539 376.246219 
L 714.806164 358.741115 
L 717.096938 374.922743 
L 719.387712 360.546279 
L 721.678487 342.389343 
L 723.969261 348.58562 
L 726.260035 355.662642 
L 728.550809 358.870899 
L 730.841583 340.913634 
L 733.132358 353.598193 
L 735.423132 351.822268 
L 737.713906 360.977675 
L 740.00468 362.952153 
L 742.295455 366.13766 
L 744.586229 385.059713 
L 746.877003 376.573044 
L 749.167777 382.17641 
L 751.458551 378.176931 
L 753.749326 376.452011 
L 756.0401 365.102658 
L 758.330874 343.828369 
L 760.621648 359.869722 
L 762.912423 360.422387 
L 765.203197 374.202316 
L 767.493971 373.63488 
L 769.784745 363.749188 
L 772.075519 376.911061 
L 774.366294 379.439402 
L 776.657068 379.654736 
L 778.947842 379.582686 
L 781.238616 370.804491 
L 783.529391 387.098426 
L 785.820165 370.156548 
L 788.110939 344.203926 
L 790.401713 376.474199 
L 792.692488 384.466992 
L 794.983262 367.152742 
L 797.274036 375.936213 
L 799.56481 373.776292 
L 801.855584 366.2574 
L 804.146359 376.233603 
L 806.437133 397.989093 
L 808.727907 404.90035 
L 811.018681 368.921845 
L 813.309456 277.544747 
L 815.60023 321.934826 
L 817.891004 341.576218 
L 820.181778 354.861159 
L 822.472552 379.941797 
L 824.763327 358.226972 
L 827.054101 372.970145 
L 829.344875 358.907916 
L 831.635649 391.910529 
L 833.926424 354.289376 
L 836.217198 262.744653 
L 838.507972 314.277487 
L 840.798746 347.897212 
L 843.08952 377.631355 
L 845.380295 391.727471 
L 847.671069 400.462522 
L 849.961843 384.210463 
L 852.252617 398.896288 
L 854.543392 393.07686 
L 856.834166 394.348827 
L 859.12494 398.272335 
L 861.415714 409.033499 
L 863.706489 415.601365 
L 865.997263 403.1333 
L 868.288037 427.027312 
L 870.578811 427.651996 
L 872.869585 432.077626 
L 875.16036 439.849274 
L 877.451134 445.94777 
L 879.741908 454.054905 
L 882.032682 387.968279 
L 884.323457 406.703633 
L 886.614231 404.602829 
L 888.905005 392.593794 
L 891.195779 391.00256 
L 893.486553 389.134932 
L 895.777328 403.220322 
L 898.068102 408.204562 
L 900.358876 391.089878 
L 902.64965 393.236178 
L 904.940425 379.002665 
L 907.231199 388.000831 
L 909.521973 404.996633 
L 911.812747 409.13589 
L 914.103521 408.748535 
L 916.394296 398.172433 
L 918.68507 393.540685 
L 920.975844 386.666471 
L 923.266618 387.350958 
L 925.557393 388.857942 
L 927.848167 389.761289 
L 930.138941 392.097774 
L 932.429715 389.841802 
L 934.72049 398.617349 
L 937.011264 395.89065 
L 939.302038 392.58901 
L 941.592812 389.654582 
L 943.883586 394.815406 
L 946.174361 396.82224 
L 948.465135 375.794551 
L 950.755909 389.610249 
L 950.755909 389.610249 
" clip-path="url(#p9000753785)" style="fill: none; stroke: #2d1e3e; stroke-width: 1.5; stroke-linecap: round"/>
   </g>
   <g id="line2d_3"/>
   <g id="line2d_4"/>
   <g id="patch_3">
    <path d="M 75.222 501.03675 
L 75.222 15.552 
" style="fill: none; stroke: #ffffff; stroke-width: 1.25; stroke-linejoin: miter; stroke-linecap: square"/>
   </g>
   <g id="patch_4">
    <path d="M 992.448 501.03675 
L 992.448 15.552 
" style="fill: none; stroke: #ffffff; stroke-width: 1.25; stroke-linejoin: miter; stroke-linecap: square"/>
   </g>
   <g id="patch_5">
    <path d="M 75.222 501.03675 
L 992.448 501.03675 
" style="fill: none; stroke: #ffffff; stroke-width: 1.25; stroke-linejoin: miter; stroke-linecap: square"/>
   </g>
   <g id="patch_6">
    <path d="M 75.222 15.552 
L 992.448 15.552 
" style="fill: none; stroke: #ffffff; stroke-width: 1.25; stroke-linejoin: miter; stroke-linecap: square"/>
   </g>
   <g id="legend_1">
    <g id="patch_7">
     <path d="M 914.568 80.967 
L 983.208 80.967 
Q 985.848 80.967 985.848 78.327 
L 985.848 24.792 
Q 985.848 22.152 983.208 22.152 
L 914.568 22.152 
Q 911.928 22.152 911.928 24.792 
L 911.928 78.327 
Q 911.928 80.967 914.568 80.967 
z
" style="fill: #eaeaf2; opacity: 0.8; stroke: #cccccc; stroke-linejoin: miter"/>
    </g>
    <g id="text_49">
     <!-- 年份 -->
     <g style="fill: #262626" transform="translate(934.488 38.907) scale(0.144 -0.144)">
      <defs>
       <path id="SimHei-5e74" d="M 350 2925 
Q 900 3450 1375 4200 
Q 1850 4950 1900 5275 
Q 2275 5125 2600 5050 
Q 2375 4825 2100 4325 
L 4625 4325 
Q 5175 4325 5750 4350 
L 5750 3925 
Q 5225 3950 4625 3950 
L 3800 3950 
L 3800 2925 
Q 4750 2925 5475 2950 
L 5475 2525 
Q 4725 2550 3800 2550 
L 3800 1375 
L 5075 1375 
Q 5625 1375 6100 1400 
L 6100 975 
Q 5650 1000 5075 1000 
L 3800 1000 
L 3800 425 
Q 3800 -150 3825 -625 
L 3275 -625 
Q 3300 -150 3300 375 
L 3300 1000 
L 1600 1000 
Q 900 1000 275 975 
L 275 1400 
Q 875 1375 1450 1375 
Q 1450 2350 1425 2925 
L 3300 2925 
L 3300 3950 
L 1875 3950 
Q 1350 3150 925 2650 
Q 650 2875 350 2925 
z
M 3300 1375 
L 3300 2550 
L 1925 2550 
L 1925 1375 
L 3300 1375 
z
" transform="scale(0.015625)"/>
       <path id="SimHei-4efd" d="M 4750 5100 
Q 4875 4375 5250 3650 
Q 5625 2925 6200 2450 
Q 6025 2375 5775 2075 
Q 5600 2275 5350 2575 
Q 5300 2275 5275 1312 
Q 5250 350 5187 25 
Q 5125 -300 4850 -400 
Q 4575 -500 4075 -550 
Q 4000 -250 3875 0 
Q 4400 -25 4575 25 
Q 4750 75 4775 587 
Q 4800 1100 4825 2250 
L 3700 2250 
Q 3675 1300 3425 650 
Q 3175 0 2375 -625 
Q 2175 -350 2000 -225 
Q 2750 225 2987 800 
Q 3225 1375 3225 2250 
Q 3000 2250 2675 2225 
L 2675 2575 
Q 2475 2300 2150 1950 
Q 2000 2150 1750 2300 
Q 2875 3275 3225 4875 
Q 3450 4775 3750 4675 
Q 3625 4400 3425 3887 
Q 3225 3375 2775 2700 
Q 3050 2675 3400 2675 
L 5300 2675 
Q 4575 3625 4275 4975 
Q 4575 5025 4750 5100 
z
M 225 2525 
Q 575 2875 1025 3687 
Q 1475 4500 1650 5225 
Q 1975 5075 2200 4975 
Q 2050 4750 1600 3775 
L 1600 625 
Q 1600 75 1625 -575 
L 1100 -575 
Q 1125 50 1125 625 
L 1125 2925 
Q 775 2400 575 2175 
Q 425 2350 225 2525 
z
" transform="scale(0.015625)"/>
      </defs>
      <use xlink:href="#SimHei-5e74"/>
      <use xlink:href="#SimHei-4efd" x="100"/>
     </g>
    </g>
    <g id="line2d_5">
     <path d="M 917.208 51.927 
L 930.408 51.927 
L 943.608 51.927 
" style="fill: none; stroke: #edd1cb; stroke-width: 1.5; stroke-linecap: round"/>
    </g>
    <g id="text_50">
     <!-- 2021 -->
     <g style="fill: #262626" transform="translate(954.168 56.547) scale(0.132 -0.132)">
      <use xlink:href="#SimHei-32"/>
      <use xlink:href="#SimHei-30" x="50"/>
      <use xlink:href="#SimHei-32" x="100"/>
      <use xlink:href="#SimHei-31" x="150"/>
     </g>
    </g>
    <g id="line2d_6">
     <path d="M 917.208 69.417 
L 930.408 69.417 
L 943.608 69.417 
" style="fill: none; stroke: #2d1e3e; stroke-width: 1.5; stroke-linecap: round"/>
    </g>
    <g id="text_51">
     <!-- 2022 -->
     <g style="fill: #262626" transform="translate(954.168 74.037) scale(0.132 -0.132)">
      <use xlink:href="#SimHei-32"/>
      <use xlink:href="#SimHei-30" x="50"/>
      <use xlink:href="#SimHei-32" x="100"/>
      <use xlink:href="#SimHei-32" x="150"/>
     </g>
    </g>
   </g>
  </g>
 </g>
 <defs>
  <clipPath id="p9000753785">
   <rect x="75.222" y="15.552" width="917.226" height="485.48475"/>
  </clipPath>
 </defs>
</svg>
